solid exported
	facet normal -0.6980944578051488 -0.5813459568829987 0.4179724947858721
		outer loop
			vertex -1.5359108 2.1933949 -0.6790888
			vertex -1.9194738 2.3162601 -1.1488231
			vertex -1.3675839 1.864863 -0.8548961
		endloop
	endfacet
	facet normal -0.04177428695339503 -0.7278012356614516 0.68451462388995
		outer loop
			vertex -0.298439 1.95415 -0.322766
			vertex -0.9328758 2.015732 -0.2960079
			vertex -0.286349 1.7749569 -0.5125529
		endloop
	endfacet
	facet normal -0.07073389099123631 -0.7653126988342499 0.6397602595256109
		outer loop
			vertex -0.9328758 2.015732 -0.2960079
			vertex -0.9501708 1.7505701 -0.6151198
			vertex -0.286349 1.7749569 -0.5125529
		endloop
	endfacet
	facet normal -0.3386478837725563 -0.7413922133312514 0.5793575725130012
		outer loop
			vertex 0.2833408 1.9265842 -0.5762658
			vertex 0.1170718 1.94143 -0.654456
			vertex 0.277596 1.788759 -0.7559959
		endloop
	endfacet
	facet normal -0.334084554064784 -0.7397443252338103 0.5840940369664027
		outer loop
			vertex 0.1170718 1.94143 -0.654456
			vertex 0.1170718 1.811057 -0.819571
			vertex 0.277596 1.788759 -0.7559959
		endloop
	endfacet
	facet normal -0.7464741661726169 -0.5097916954717123 0.4276549385485612
		outer loop
			vertex -1.6646748 2.5018971 -0.536093
			vertex -1.997564 2.6525159 -0.9376059
			vertex -1.5359108 2.1933949 -0.6790888
		endloop
	endfacet
	facet normal -0.7390201781676176 -0.4729704524635799 0.4797375609200302
		outer loop
			vertex -1.997564 2.6525159 -0.9376059
			vertex -1.9194738 2.3162601 -1.1488231
			vertex -1.5359108 2.1933949 -0.6790888
		endloop
	endfacet
	facet normal -0.03976804849888776 -0.4260312999681489 0.9038339636050635
		outer loop
			vertex -0.253053 2.6476729 0.00613
			vertex -1.125141 2.65746 -0.027628
			vertex -0.298439 1.95415 -0.322766
		endloop
	endfacet
	facet normal 0.001503391024395957 -0.38544788617498 0.9227283819514102
		outer loop
			vertex -1.125141 2.65746 -0.027628
			vertex -0.9328758 2.015732 -0.2960079
			vertex -0.298439 1.95415 -0.322766
		endloop
	endfacet
	facet normal -0.391595093396283 -0.392396248960008 0.8322730721524468
		outer loop
			vertex 0.2860578 2.4325585 -0.336433
			vertex 0.1170718 2.4269259 -0.4185987
			vertex 0.2833408 1.9265842 -0.5762658
		endloop
	endfacet
	facet normal -0.4194083810228793 -0.3966816433378564 0.8165416607660292
		outer loop
			vertex 0.1170718 2.4269259 -0.4185987
			vertex 0.1170718 1.94143 -0.654456
			vertex 0.2833408 1.9265842 -0.5762658
		endloop
	endfacet
	facet normal 0.6357138166586227 -0.42501413446531205 0.6443841469294763
		outer loop
			vertex 1.2997189 2.01021 -0.490217
			vertex 1.8776259 2.2402389 -0.9086288
			vertex 1.4598562 2.6431043 -0.2307638
		endloop
	endfacet
	facet normal 0.5983590445828016 -0.470605031515202 0.6484576763972592
		outer loop
			vertex 1.8776259 2.2402389 -0.9086288
			vertex 1.93738 2.6018727 -0.701318
			vertex 1.4598562 2.6431043 -0.2307638
		endloop
	endfacet
	facet normal -0.7873098643662835 -0.1384518002982468 0.6008113484827985
		outer loop
			vertex -1.6646748 2.5018971 -0.536093
			vertex -1.5998148 3.8748147 -0.1347227
			vertex -1.997564 2.6525159 -0.9376059
		endloop
	endfacet
	facet normal -0.7888823603114374 -0.1368279845740521 0.5991182890104915
		outer loop
			vertex -1.5998148 3.8748147 -0.1347227
			vertex -2.0420487 3.5099452 -0.800359
			vertex -1.997564 2.6525159 -0.9376059
		endloop
	endfacet
	facet normal -0.04025037382425759 -0.24756846808926425 0.9680339668704516
		outer loop
			vertex -1.125141 2.65746 -0.027628
			vertex -0.253053 2.6476729 0.00613
			vertex -1.0086451 4.0897312 0.34351
		endloop
	endfacet
	facet normal -0.07056832677374938 -0.26214639791204136 0.9624444801224096
		outer loop
			vertex -0.253053 2.6476729 0.00613
			vertex -0.2618269 4.1135168 0.4047468
			vertex -1.0086451 4.0897312 0.34351
		endloop
	endfacet
	facet normal -0.3687704399075431 -0.2606712221146566 0.8922213159366058
		outer loop
			vertex 0.3037317 4.066103 0.148128
			vertex 0.1170718 4.048635 0.0658748
			vertex 0.2860578 2.4325585 -0.336433
		endloop
	endfacet
	facet normal -0.415156867593593 -0.2604089188212599 0.8716834117317013
		outer loop
			vertex 0.1170718 4.048635 0.0658748
			vertex 0.1170718 2.4269259 -0.4185987
			vertex 0.2860578 2.4325585 -0.336433
		endloop
	endfacet
	facet normal 0.689101910403279 -0.13800946764420097 0.7114013943752963
		outer loop
			vertex 1.4598562 2.6431043 -0.2307638
			vertex 1.93738 2.6018727 -0.701318
			vertex 1.261216 4.1512442 0.2542239
		endloop
	endfacet
	facet normal 0.5962660234180296 -0.21653405120791003 0.7730328802740153
		outer loop
			vertex 1.93738 2.6018727 -0.701318
			vertex 1.8051438 3.7269528 -0.2841739
			vertex 1.261216 4.1512442 0.2542239
		endloop
	endfacet
	facet normal -0.8639111515053425 0.22579462195667466 0.45019363722753336
		outer loop
			vertex -1.5998148 3.8748147 -0.1347227
			vertex -1.424698 4.7092166 -0.2171719
			vertex -2.0420487 3.5099452 -0.800359
		endloop
	endfacet
	facet normal -0.8434485252045417 0.1897928507590427 0.5025666713293268
		outer loop
			vertex -1.424698 4.7092166 -0.2171719
			vertex -1.719263 4.3884301 -0.5903909
			vertex -2.0420487 3.5099452 -0.800359
		endloop
	endfacet
	facet normal -0.08754770227166525 0.3207502873125451 0.9431090355923178
		outer loop
			vertex -0.2618269 4.1135168 0.4047468
			vertex -0.2387329 4.9125686 0.135134
			vertex -1.0086451 4.0897312 0.34351
		endloop
	endfacet
	facet normal -0.03410248034532557 0.275216957650648 0.9607771058137357
		outer loop
			vertex -0.2387329 4.9125686 0.135134
			vertex -0.942311 4.901135 0.1134359
			vertex -1.0086451 4.0897312 0.34351
		endloop
	endfacet
	facet normal -0.46228925662021675 0.267892513536566 0.8452941762514328
		outer loop
			vertex 0.114941 4.8769722 -0.197809
			vertex 0.1170718 4.048635 0.0658748
			vertex 0.2753149 4.888628 -0.1137949
		endloop
	endfacet
	facet normal -0.4095206469770812 0.2639390002871327 0.873286346982994
		outer loop
			vertex 0.1170718 4.048635 0.0658748
			vertex 0.3037317 4.066103 0.148128
			vertex 0.2753149 4.888628 -0.1137949
		endloop
	endfacet
	facet normal 0.7830125481200293 0.3614896702642027 0.5061783952114677
		outer loop
			vertex 1.261216 4.1512442 0.2542239
			vertex 1.8051438 3.7269528 -0.2841739
			vertex 1.120079 4.8247862 -0.008463
		endloop
	endfacet
	facet normal 0.6441489230946426 0.21781419980425984 0.7332319818717963
		outer loop
			vertex 1.8051438 3.7269528 -0.2841739
			vertex 1.449399 4.6089759 -0.233664
			vertex 1.120079 4.8247862 -0.008463
		endloop
	endfacet
	facet normal -0.5636789578723506 0.7636355407805012 -0.31484407777312956
		outer loop
			vertex -1.796847 4.1338558 -1.0689437
			vertex -1.719263 4.3884301 -0.5903909
			vertex -1.451663 4.5275846 -0.7319758
		endloop
	endfacet
	facet normal -0.5482281628577341 0.7972768390342432 -0.25257775711491165
		outer loop
			vertex -1.719263 4.3884301 -0.5903909
			vertex -1.424698 4.7092166 -0.2171719
			vertex -1.451663 4.5275846 -0.7319758
		endloop
	endfacet
	facet normal 0.0015462553662407127 0.8631402906614283 -0.5049618279942035
		outer loop
			vertex -0.2387329 4.9125686 0.135134
			vertex -0.304823 4.6116881 -0.3793688
			vertex -0.942311 4.901135 0.1134359
		endloop
	endfacet
	facet normal 0.011894362538610741 0.8688514269433847 -0.49493001731380615
		outer loop
			vertex -0.304823 4.6116881 -0.3793688
			vertex -0.8136217 4.5396099 -0.51813
			vertex -0.942311 4.901135 0.1134359
		endloop
	endfacet
	facet normal 0.2214683205930109 0.814782821892744 -0.5357991565150217
		outer loop
			vertex 0.2753149 4.888628 -0.1137949
			vertex 0.169851 4.3775449 -0.934585
			vertex 0.114941 4.8769722 -0.197809
		endloop
	endfacet
	facet normal 0.25367912038338936 0.856389946122202 -0.44971453619192925
		outer loop
			vertex 1.449399 4.6089759 -0.233664
			vertex 1.856668 4.0411606 -1.0852168
			vertex 1.120079 4.8247862 -0.008463
		endloop
	endfacet
	facet normal 0.8323626605837682 0.5203988846189217 0.19067617091103276
		outer loop
			vertex 1.856668 4.0411606 -1.0852168
			vertex 1.469304 4.5043359 -0.65836
			vertex 1.120079 4.8247862 -0.008463
		endloop
	endfacet
	facet normal -0.6593030174380653 0.2022775708139593 -0.7241569688559698
		outer loop
			vertex -0.6912149 4.0569458 -1.817596
			vertex -0.313062 3.9643352 -2.1877511
			vertex -0.5181729 3.1218464 -2.2363405
		endloop
	endfacet
	facet normal -0.2580704270214062 0.11813130832160658 -0.9588767640793132
		outer loop
			vertex -0.313062 3.9643352 -2.1877511
			vertex -0.253549 3.4960933 -2.2614546
			vertex -0.5181729 3.1218464 -2.2363405
		endloop
	endfacet
	facet normal 0.012940100566019089 0.9351512391726008 -0.35401230723138793
		outer loop
			vertex 0.169851 4.3775449 -0.934585
			vertex 0.2043927 4.0833149 -1.710554
			vertex 0.105764 4.0998082 -1.6705908
		endloop
	endfacet
	facet normal -0.564356947708204 0.017224761118311813 -0.8253511635527612
		outer loop
			vertex 0.078201 3.5106709 -2.0071471
			vertex 0.1424718 3.5653129 -2.0499537
			vertex 0.0864479 3.0170417 -2.023088
		endloop
	endfacet
	facet normal -0.30941118938768053 -0.014973915416972804 -0.9508104425903127
		outer loop
			vertex 0.1424718 3.5653129 -2.0499537
			vertex 0.2332638 3.1225057 -2.0725255
			vertex 0.0864479 3.0170417 -2.023088
		endloop
	endfacet
	facet normal -0.5799622550686199 0.07797324738775932 -0.810903172633779
		outer loop
			vertex 0.229839 2.7107143 -2.1096723
			vertex 0.101181 2.6949401 -2.0191722
			vertex 0.2332638 3.1225057 -2.0725255
		endloop
	endfacet
	facet normal -0.3025710982553131 -0.02542283658652002 -0.9527877045178893
		outer loop
			vertex 0.101181 2.6949401 -2.0191722
			vertex 0.0864479 3.0170417 -2.023088
			vertex 0.2332638 3.1225057 -2.0725255
		endloop
	endfacet
	facet normal -0.21278564960747073 -0.7253389513375363 -0.6546798247950596
		outer loop
			vertex 0.3072858 2.466908 -1.963593
			vertex 0.3008958 2.1262145 -1.5840518
			vertex 0.107059 2.4952331 -1.929897
		endloop
	endfacet
	facet normal -0.0027779072330143826 -0.6845994487112467 -0.7289141774280852
		outer loop
			vertex 0.3008958 2.1262145 -1.5840518
			vertex 0.121103 2.0662875 -1.5270829
			vertex 0.107059 2.4952331 -1.929897
		endloop
	endfacet
	facet normal -0.13639104736843713 -0.9722349762964115 0.19014897597320096
		outer loop
			vertex -1.4575599 1.7262874 -2.2615032
			vertex -1.2157727 1.813062 -1.6443928
			vertex -1.767395 1.931914 -1.432371
		endloop
	endfacet
	facet normal -0.6287977652060721 -0.7764108452827972 -0.04242133660201872
		outer loop
			vertex -2.056103 2.183815 -1.76333
			vertex -1.4575599 1.7262874 -2.2615032
			vertex -1.767395 1.931914 -1.432371
		endloop
	endfacet
	facet normal 0.08876239214217513 -0.8952039796430804 -0.4367276869771257
		outer loop
			vertex -1.0074828 2.0255051 -1.60627
			vertex -0.322709 2.0416307 -1.5001479
			vertex -1.0673219 1.7602859 -1.0747859
		endloop
	endfacet
	facet normal 0.11157536047716629 -0.9075127478601177 -0.4049340087048371
		outer loop
			vertex -0.322709 2.0416307 -1.5001479
			vertex -0.239314 1.784968 -0.9019529
			vertex -1.0673219 1.7602859 -1.0747859
		endloop
	endfacet
	facet normal 0.17488283398439827 -0.9013460468378804 -0.39622127432447535
		outer loop
			vertex 0.121103 2.0662875 -1.5270829
			vertex 0.3008958 2.1262145 -1.5840518
			vertex 0.1044009 1.839722 -1.0190511
		endloop
	endfacet
	facet normal -0.08619729992100546 -0.8761610156336229 -0.4742487745584452
		outer loop
			vertex 0.3008958 2.1262145 -1.5840518
			vertex 0.3059557 1.836097 -1.0489877
			vertex 0.1044009 1.839722 -1.0190511
		endloop
	endfacet
	facet normal 0.02812551225150376 -0.9149040587058007 -0.4026903511685419
		outer loop
			vertex 1.363795 2.0502975 -1.7115098
			vertex 1.677927 1.971992 -1.5116611
			vertex 1.2997108 1.760926 -1.0585397
		endloop
	endfacet
	facet normal -0.6981558427538594 -0.5829128641187663 0.4156813828805723
		outer loop
			vertex -1.767395 1.931914 -1.432371
			vertex -1.3675839 1.864863 -0.8548961
			vertex -1.9194738 2.3162601 -1.1488231
		endloop
	endfacet
	facet normal 0.03610353279512718 -0.9988881637136117 -0.030314539623095722
		outer loop
			vertex -1.0673219 1.7602859 -1.0747859
			vertex -0.239314 1.784968 -0.9019529
			vertex -0.9501708 1.7505701 -0.6151198
		endloop
	endfacet
	facet normal 0.039922863276399725 -0.9989849824200701 -0.02086072594581446
		outer loop
			vertex -0.239314 1.784968 -0.9019529
			vertex -0.286349 1.7749569 -0.5125529
			vertex -0.9501708 1.7505701 -0.6151198
		endloop
	endfacet
	facet normal -0.041984958610674444 -0.9856797380441189 -0.1633178412168659
		outer loop
			vertex 0.3059557 1.836097 -1.0489877
			vertex 0.277596 1.788759 -0.7559959
			vertex 0.1044009 1.839722 -1.0190511
		endloop
	endfacet
	facet normal -0.08303066488733483 -0.9871436688736063 -0.1365770320775915
		outer loop
			vertex 0.277596 1.788759 -0.7559959
			vertex 0.1170718 1.811057 -0.819571
			vertex 0.1044009 1.839722 -1.0190511
		endloop
	endfacet
	facet normal 0.2994972813470194 -0.9520018283041175 -0.06319728927226431
		outer loop
			vertex 1.675509 1.939284 -1.030408
			vertex 1.2179049 1.7761821 -0.7420709
			vertex 1.677927 1.971992 -1.5116611
		endloop
	endfacet
	facet normal 0.6517369792111203 -0.7305812814966056 0.20369069948218374
		outer loop
			vertex 1.2179049 1.7761821 -0.7420709
			vertex 1.2997108 1.760926 -1.0585397
			vertex 1.677927 1.971992 -1.5116611
		endloop
	endfacet
	facet normal 0.5657254505771602 -0.5070383445359361 0.6502821170380796
		outer loop
			vertex 2.2391069 2.6489029 -0.9700168
			vertex 2.0691831 2.101928 -1.2486759
			vertex 2.5587561 2.6451051 -1.251063
		endloop
	endfacet
	facet normal 0.7328426557335788 -0.6597908409653943 0.1661857037038177
		outer loop
			vertex 2.0691831 2.101928 -1.2486759
			vertex 2.3064549 2.2875719 -1.5579489
			vertex 2.5587561 2.6451051 -1.251063
		endloop
	endfacet
	facet normal 0.5871609883465055 -0.2509830590403215 0.7695774670809415
		outer loop
			vertex 2.2391069 2.6489029 -0.9700168
			vertex 2.59127 2.8498285 -1.173177
			vertex 2.2101469 3.380754 -0.709242
		endloop
	endfacet
	facet normal 0.8777500225382663 0.3134594185052602 0.36235078430219686
		outer loop
			vertex 2.59127 2.8498285 -1.173177
			vertex 1.78545 4.2772341 -0.4559858
			vertex 2.2101469 3.380754 -0.709242
		endloop
	endfacet
	facet normal -0.7963808787973068 -0.5300192517968422 0.2913024006264709
		outer loop
			vertex -2.056103 2.183815 -1.76333
			vertex -1.767395 1.931914 -1.432371
			vertex -1.9194738 2.3162601 -1.1488231
		endloop
	endfacet
	facet normal -0.6572858814136936 -0.6344625702654814 0.4067339634531927
		outer loop
			vertex -2.428303 2.856699 -1.3151798
			vertex -2.056103 2.183815 -1.76333
			vertex -1.997564 2.6525159 -0.9376059
		endloop
	endfacet
	facet normal -0.8824148457709385 -0.37955182913031754 0.2780008074932182
		outer loop
			vertex -2.056103 2.183815 -1.76333
			vertex -1.9194738 2.3162601 -1.1488231
			vertex -1.997564 2.6525159 -0.9376059
		endloop
	endfacet
	facet normal -0.6908290462189858 -0.14908613250246458 0.7074804265812757
		outer loop
			vertex -1.997564 2.6525159 -0.9376059
			vertex -2.0420487 3.5099452 -0.800359
			vertex -2.428303 2.856699 -1.3151798
		endloop
	endfacet
	facet normal -0.46719605421858473 0.34014150436711227 -0.8161075933536356
		outer loop
			vertex -1.5327599 3.5065479 -1.4815779
			vertex -2.0900035 3.6588244 -1.0991068
			vertex -1.796847 4.1338558 -1.0689437
		endloop
	endfacet
	facet normal -0.9202841227330084 0.2706048209782156 0.2825777137512531
		outer loop
			vertex -2.0420487 3.5099452 -0.800359
			vertex -1.719263 4.3884301 -0.5903909
			vertex -2.0900035 3.6588244 -1.0991068
		endloop
	endfacet
	facet normal -0.8379944555992318 0.526303278707912 -0.14411853179327472
		outer loop
			vertex -1.719263 4.3884301 -0.5903909
			vertex -1.796847 4.1338558 -1.0689437
			vertex -2.0900035 3.6588244 -1.0991068
		endloop
	endfacet
	facet normal -0.4335368386344017 0.8010457947988352 -0.4127607590142159
		outer loop
			vertex -0.2387329 4.9125686 0.135134
			vertex -0.027934 4.8916311 -0.1269088
			vertex -0.304823 4.6116881 -0.3793688
		endloop
	endfacet
	facet normal -0.27440011461582337 0.7793786669781038 -0.5632703352372262
		outer loop
			vertex -0.027934 4.8916311 -0.1269088
			vertex 0.169851 4.3775449 -0.934585
			vertex -0.304823 4.6116881 -0.3793688
		endloop
	endfacet
	facet normal 0.027562022908173014 0.9292862576471237 -0.3683305393819704
		outer loop
			vertex -0.304823 4.6116881 -0.3793688
			vertex 0.169851 4.3775449 -0.934585
			vertex -0.4910958 4.2261567 -1.365991
		endloop
	endfacet
	facet normal -0.025439675020232567 0.9548216015774011 -0.29608872335168657
		outer loop
			vertex 0.169851 4.3775449 -0.934585
			vertex -0.319678 4.1756525 -1.5435841
			vertex -0.4910958 4.2261567 -1.365991
		endloop
	endfacet
	facet normal -0.005769165487284226 0.9505599318762146 -0.31048757244222674
		outer loop
			vertex 0.0208928 4.1187525 -1.724112
			vertex -0.319678 4.1756525 -1.5435841
			vertex 0.169851 4.3775449 -0.934585
		endloop
	endfacet
	facet normal -0.07553652123881562 0.11490191116142599 -0.9905007747450729
		outer loop
			vertex -0.0149268 2.7116909 -2.1101229
			vertex -0.370646 2.4725585 -2.1107357
			vertex -0.0739839 3.1290059 -2.057209
		endloop
	endfacet
	facet normal 0.3781961688291642 -0.09583660425682723 -0.9207513253682902
		outer loop
			vertex -0.370646 2.4725585 -2.1107357
			vertex -0.292616 3.2253101 -2.1570354
			vertex -0.0739839 3.1290059 -2.057209
		endloop
	endfacet
	facet normal 0.09252075441567506 -0.8100745462565601 -0.5789811218939549
		outer loop
			vertex -0.322709 2.0416307 -1.5001479
			vertex -0.370646 2.4725585 -2.1107357
			vertex -0.0429339 2.1244781 -1.571355
		endloop
	endfacet
	facet normal 0.30036531270210076 -0.7078652187995899 -0.6393023626885622
		outer loop
			vertex -0.370646 2.4725585 -2.1107357
			vertex -0.0669829 2.472528 -1.968031
			vertex -0.0429339 2.1244781 -1.571355
		endloop
	endfacet
	facet normal -0.0040338072422297835 -0.9191779182813431 -0.39382189241217797
		outer loop
			vertex -0.239314 1.784968 -0.9019529
			vertex -0.322709 2.0416307 -1.5001479
			vertex -0.0526928 1.83077 -1.010766
		endloop
	endfacet
	facet normal 0.14349352699305382 -0.8776463994079683 -0.4573252729921263
		outer loop
			vertex -0.322709 2.0416307 -1.5001479
			vertex -0.0429339 2.1244781 -1.571355
			vertex -0.0526928 1.83077 -1.010766
		endloop
	endfacet
	facet normal 0.05434817145151238 -0.9983393214101878 -0.01910171683705109
		outer loop
			vertex -0.286349 1.7749569 -0.5125529
			vertex -0.239314 1.784968 -0.9019529
			vertex -0.02449 1.7939528 -0.760321
		endloop
	endfacet
	facet normal 0.14630724193988098 -0.9762164196158301 -0.15998654014758532
		outer loop
			vertex -0.239314 1.784968 -0.9019529
			vertex -0.0526928 1.83077 -1.010766
			vertex -0.02449 1.7939528 -0.760321
		endloop
	endfacet
	facet normal 0.5273534714031514 -0.6007604971474456 0.6008203901884485
		outer loop
			vertex -0.298439 1.95415 -0.322766
			vertex -0.286349 1.7749569 -0.5125529
			vertex -0.029752 1.928278 -0.584468
		endloop
	endfacet
	facet normal 0.5406939409938641 -0.6606227064824013 0.5207952590532972
		outer loop
			vertex -0.286349 1.7749569 -0.5125529
			vertex -0.02449 1.7939528 -0.760321
			vertex -0.029752 1.928278 -0.584468
		endloop
	endfacet
	facet normal 0.6803860715065858 -0.349902372970508 0.6439278865598558
		outer loop
			vertex -0.253053 2.6476729 0.00613
			vertex -0.298439 1.95415 -0.322766
			vertex -0.0317359 2.430656 -0.345642
		endloop
	endfacet
	facet normal 0.6431154384732369 -0.3267061584970189 0.6925789621389731
		outer loop
			vertex -0.298439 1.95415 -0.322766
			vertex -0.029752 1.928278 -0.584468
			vertex -0.0317359 2.430656 -0.345642
		endloop
	endfacet
	facet normal 0.7309726300905305 -0.19204459971715576 0.65482660741452
		outer loop
			vertex -0.0291239 4.0930715 0.138988
			vertex -0.2618269 4.1135168 0.4047468
			vertex -0.0317359 2.430656 -0.345642
		endloop
	endfacet
	facet normal 0.7895421536223745 -0.15663351380803775 0.5933709885101314
		outer loop
			vertex -0.2618269 4.1135168 0.4047468
			vertex -0.253053 2.6476729 0.00613
			vertex -0.0317359 2.430656 -0.345642
		endloop
	endfacet
	facet normal 0.7711662464418371 0.20008934720065294 0.6043731243905743
		outer loop
			vertex -0.027934 4.8916311 -0.1269088
			vertex -0.2387329 4.9125686 0.135134
			vertex -0.0291239 4.0930715 0.138988
		endloop
	endfacet
	facet normal 0.7454388170438906 0.19366614404070556 0.6378200331571671
		outer loop
			vertex -0.2387329 4.9125686 0.135134
			vertex -0.2618269 4.1135168 0.4047468
			vertex -0.0291239 4.0930715 0.138988
		endloop
	endfacet
	facet normal 0.06320770399476767 0.8645368395018853 -0.4985788195459182
		outer loop
			vertex 0.4987359 4.9273629 0.090634
			vertex 1.120079 4.8247862 -0.008463
			vertex 0.628339 4.6712961 -0.3369559
		endloop
	endfacet
	facet normal 0.0114149889605104 0.8992574796878751 -0.4372707207811227
		outer loop
			vertex 1.120079 4.8247862 -0.008463
			vertex 1.469304 4.5043359 -0.65836
			vertex 0.628339 4.6712961 -0.3369559
		endloop
	endfacet
	facet normal -0.7449896402692479 -0.5957444035329105 0.30013170700663017
		outer loop
			vertex 0.1875409 3.5230107 -2.290987
			vertex 0.472189 3.1361539 -2.3523197
			vertex 0.4535269 3.2710147 -2.1309519
		endloop
	endfacet
	facet normal -0.8012188669138327 -0.5386411701445626 0.2606031794253685
		outer loop
			vertex 0.472189 3.1361539 -2.3523197
			vertex 0.797499 2.632236 -2.3937099
			vertex 0.4535269 3.2710147 -2.1309519
		endloop
	endfacet
	facet normal -0.12079361493206373 -0.7957416709035408 -0.5934678557253842
		outer loop
			vertex 1.363795 2.0502975 -1.7115098
			vertex 0.6241758 1.9911606 -1.481676
			vertex 0.578062 2.460737 -2.1019139
		endloop
	endfacet
	facet normal -0.042579206332964324 -0.9259375135652189 -0.3752688798191439
		outer loop
			vertex 0.6241758 1.9911606 -1.481676
			vertex 1.363795 2.0502975 -1.7115098
			vertex 0.56572 1.7753139 -0.9424638
		endloop
	endfacet
	facet normal -0.08272553451613313 -0.9080798501932106 -0.41054533441764574
		outer loop
			vertex 1.363795 2.0502975 -1.7115098
			vertex 1.2997108 1.760926 -1.0585397
			vertex 0.56572 1.7753139 -0.9424638
		endloop
	endfacet
	facet normal -0.012475584942659226 -0.998912237906252 0.044929953722012646
		outer loop
			vertex 1.2997108 1.760926 -1.0585397
			vertex 1.2179049 1.7761821 -0.7420709
			vertex 0.56572 1.7753139 -0.9424638
		endloop
	endfacet
	facet normal -0.0032189527487980476 -0.9998851715886122 0.014808172757382118
		outer loop
			vertex 1.2179049 1.7761821 -0.7420709
			vertex 0.5683919 1.781039 -0.5553098
			vertex 0.56572 1.7753139 -0.9424638
		endloop
	endfacet
	facet normal 0.16035051228615183 -0.7072714933240808 0.6885163381799254
		outer loop
			vertex 0.577847 1.9673361 -0.36614
			vertex 0.5683919 1.781039 -0.5553098
			vertex 1.2997189 2.01021 -0.490217
		endloop
	endfacet
	facet normal 0.17791071359288546 -0.7490212022880686 0.6382123600431181
		outer loop
			vertex 0.5683919 1.781039 -0.5553098
			vertex 1.2179049 1.7761821 -0.7420709
			vertex 1.2997189 2.01021 -0.490217
		endloop
	endfacet
	facet normal 0.16702220446281119 -0.40986928759800806 0.8967222258315471
		outer loop
			vertex 1.4598562 2.6431043 -0.2307638
			vertex 0.558462 2.6574945 -0.056294
			vertex 1.2997189 2.01021 -0.490217
		endloop
	endfacet
	facet normal 0.17829982982982284 -0.39883212806148477 0.8995232650179782
		outer loop
			vertex 0.558462 2.6574945 -0.056294
			vertex 0.577847 1.9673361 -0.36614
			vertex 1.2997189 2.01021 -0.490217
		endloop
	endfacet
	facet normal 0.14164164768723184 -0.2649139175499649 0.9538124867754546
		outer loop
			vertex 0.539564 4.1493979 0.3608768
			vertex 0.558462 2.6574945 -0.056294
			vertex 1.261216 4.1512442 0.2542239
		endloop
	endfacet
	facet normal 0.1781237500821128 -0.27990427207468 0.9433586423683353
		outer loop
			vertex 0.558462 2.6574945 -0.056294
			vertex 1.4598562 2.6431043 -0.2307638
			vertex 1.261216 4.1512442 0.2542239
		endloop
	endfacet
	facet normal 0.13710749893925123 0.331451647090643 0.9334566617553934
		outer loop
			vertex 0.539564 4.1493979 0.3608768
			vertex 1.261216 4.1512442 0.2542239
			vertex 0.4987359 4.9273629 0.090634
		endloop
	endfacet
	facet normal 0.20773487956178743 0.39290255463604234 0.895809021150112
		outer loop
			vertex 1.261216 4.1512442 0.2542239
			vertex 1.120079 4.8247862 -0.008463
			vertex 0.4987359 4.9273629 0.090634
		endloop
	endfacet
	facet normal 0.36721311929913963 -0.26085064272873815 0.8928109918692758
		outer loop
			vertex -0.0291239 4.0930715 0.138988
			vertex -0.0317359 2.430656 -0.345642
			vertex 0.1170718 4.048635 0.0658748
		endloop
	endfacet
	facet normal 0.4198414036263016 -0.25979282324711767 0.8696211156534718
		outer loop
			vertex -0.0317359 2.430656 -0.345642
			vertex 0.1170718 2.4269259 -0.4185987
			vertex 0.1170718 4.048635 0.0658748
		endloop
	endfacet
	facet normal 0.45000852027361266 0.2719328717105875 0.850614392638866
		outer loop
			vertex 0.114941 4.8769722 -0.197809
			vertex -0.027934 4.8916311 -0.1269088
			vertex 0.1170718 4.048635 0.0658748
		endloop
	endfacet
	facet normal 0.49547279398449123 0.273749039705922 0.8243592503764894
		outer loop
			vertex -0.027934 4.8916311 -0.1269088
			vertex -0.0291239 4.0930715 0.138988
			vertex 0.1170718 4.048635 0.0658748
		endloop
	endfacet
	facet normal -0.19541148488055868 0.8049679636583869 -0.5602150739318296
		outer loop
			vertex -0.027934 4.8916311 -0.1269088
			vertex 0.114941 4.8769722 -0.197809
			vertex 0.169851 4.3775449 -0.934585
		endloop
	endfacet
	facet normal 0.7074671220374079 -0.126442673257574 -0.695343455865938
		outer loop
			vertex -0.034717 3.6369915 -2.1096306
			vertex 0.0044459 3.5690761 -2.057435
			vertex -0.0739839 3.1290059 -2.057209
		endloop
	endfacet
	facet normal 0.6182249223383326 0.01872520812133883 -0.7857781569759846
		outer loop
			vertex 0.101181 2.6949401 -2.0191722
			vertex -0.0149268 2.7116909 -2.1101229
			vertex 0.0864479 3.0170417 -2.023088
		endloop
	endfacet
	facet normal 0.3127137416869985 0.16290662471942885 -0.9357732350215198
		outer loop
			vertex -0.0149268 2.7116909 -2.1101229
			vertex -0.0739839 3.1290059 -2.057209
			vertex 0.0864479 3.0170417 -2.023088
		endloop
	endfacet
	facet normal 0.23652152935619394 -0.723194326321409 -0.64888175542816
		outer loop
			vertex -0.0669829 2.472528 -1.968031
			vertex 0.107059 2.4952331 -1.929897
			vertex -0.0429339 2.1244781 -1.571355
		endloop
	endfacet
	facet normal -0.04654125059666298 -0.6846212587287227 -0.7274116056880026
		outer loop
			vertex 0.107059 2.4952331 -1.929897
			vertex 0.121103 2.0662875 -1.5270829
			vertex -0.0429339 2.1244781 -1.571355
		endloop
	endfacet
	facet normal -0.1845752864280196 -0.8692447008454498 -0.45863450992279187
		outer loop
			vertex -0.0429339 2.1244781 -1.571355
			vertex 0.121103 2.0662875 -1.5270829
			vertex -0.0526928 1.83077 -1.010766
		endloop
	endfacet
	facet normal 0.03061454363339446 -0.9132405965272797 -0.40626883042219425
		outer loop
			vertex 0.121103 2.0662875 -1.5270829
			vertex 0.1044009 1.839722 -1.0190511
			vertex -0.0526928 1.83077 -1.010766
		endloop
	endfacet
	facet normal 0.055884812607714766 -0.9868955501507151 -0.1513739106072062
		outer loop
			vertex -0.02449 1.7939528 -0.760321
			vertex -0.0526928 1.83077 -1.010766
			vertex 0.1170718 1.811057 -0.819571
		endloop
	endfacet
	facet normal 0.048661438436089874 -0.9882201161967489 -0.14509674825238117
		outer loop
			vertex -0.0526928 1.83077 -1.010766
			vertex 0.1044009 1.839722 -1.0190511
			vertex 0.1170718 1.811057 -0.819571
		endloop
	endfacet
	facet normal 0.3414884368344624 -0.7419573078938319 0.5769618711589988
		outer loop
			vertex -0.029752 1.928278 -0.584468
			vertex -0.02449 1.7939528 -0.760321
			vertex 0.1170718 1.94143 -0.654456
		endloop
	endfacet
	facet normal 0.3338755247535519 -0.7398024538301571 0.5841399346709816
		outer loop
			vertex -0.02449 1.7939528 -0.760321
			vertex 0.1170718 1.811057 -0.819571
			vertex 0.1170718 1.94143 -0.654456
		endloop
	endfacet
	facet normal 0.3968737593544004 -0.392805392739166 0.8295752784232033
		outer loop
			vertex -0.0317359 2.430656 -0.345642
			vertex -0.029752 1.928278 -0.584468
			vertex 0.1170718 2.4269259 -0.4185987
		endloop
	endfacet
	facet normal 0.42380599219850834 -0.3957881770378546 0.8147025223317342
		outer loop
			vertex -0.029752 1.928278 -0.584468
			vertex 0.1170718 1.94143 -0.654456
			vertex 0.1170718 2.4269259 -0.4185987
		endloop
	endfacet
	facet normal -0.6041170990557295 -0.2216869774071019 0.7654393605483016
		outer loop
			vertex 0.558462 2.6574945 -0.056294
			vertex 0.539564 4.1493979 0.3608768
			vertex 0.2860578 2.4325585 -0.336433
		endloop
	endfacet
	facet normal -0.6096714331060492 -0.21934812459402328 0.7617001666610695
		outer loop
			vertex 0.539564 4.1493979 0.3608768
			vertex 0.3037317 4.066103 0.148128
			vertex 0.2860578 2.4325585 -0.336433
		endloop
	endfacet
	facet normal -0.6800150276852537 0.20103654951000094 0.7050984809821509
		outer loop
			vertex 0.2753149 4.888628 -0.1137949
			vertex 0.3037317 4.066103 0.148128
			vertex 0.4987359 4.9273629 0.090634
		endloop
	endfacet
	facet normal -0.6944601811157253 0.2033132409754977 0.6902092312398852
		outer loop
			vertex 0.3037317 4.066103 0.148128
			vertex 0.539564 4.1493979 0.3608768
			vertex 0.4987359 4.9273629 0.090634
		endloop
	endfacet
	facet normal 0.2527597282352352 0.8619177832468942 -0.43955688449301994
		outer loop
			vertex 0.4987359 4.9273629 0.090634
			vertex 0.628339 4.6712961 -0.3369559
			vertex 0.2753149 4.888628 -0.1137949
		endloop
	endfacet
	facet normal 0.16973636783785068 0.8266338996813319 -0.5365314169094365
		outer loop
			vertex 0.628339 4.6712961 -0.3369559
			vertex 0.169851 4.3775449 -0.934585
			vertex 0.2753149 4.888628 -0.1137949
		endloop
	endfacet
	facet normal 0.3350371856687625 0.938136661679242 -0.0874624961482501
		outer loop
			vertex 0.4756998 4.1373348 -1.524677
			vertex 1.0131609 3.960036 -1.3675931
			vertex 0.836406 3.9833989 -1.794083
		endloop
	endfacet
	facet normal -0.1447512180539295 -0.7940308879767282 -0.5903914242354749
		outer loop
			vertex 0.6241758 1.9911606 -1.481676
			vertex 0.3008958 2.1262145 -1.5840518
			vertex 0.578062 2.460737 -2.1019139
		endloop
	endfacet
	facet normal -0.338581427056809 -0.6973713883930018 -0.6316927765163945
		outer loop
			vertex 0.3008958 2.1262145 -1.5840518
			vertex 0.3072858 2.466908 -1.963593
			vertex 0.578062 2.460737 -2.1019139
		endloop
	endfacet
	facet normal -0.03689975264725391 -0.99920592979668 0.0150305726346033
		outer loop
			vertex 0.5683919 1.781039 -0.5553098
			vertex 0.277596 1.788759 -0.7559959
			vertex 0.56572 1.7753139 -0.9424638
		endloop
	endfacet
	facet normal -0.1568922224378426 -0.972468812167278 -0.17230565835305015
		outer loop
			vertex 0.277596 1.788759 -0.7559959
			vertex 0.3059557 1.836097 -1.0489877
			vertex 0.56572 1.7753139 -0.9424638
		endloop
	endfacet
	facet normal -0.3800345566751633 -0.6494721670939162 0.6586043120896222
		outer loop
			vertex 0.577847 1.9673361 -0.36614
			vertex 0.2833408 1.9265842 -0.5762658
			vertex 0.5683919 1.781039 -0.5553098
		endloop
	endfacet
	facet normal -0.40810192974957066 -0.7181040995586723 0.5637191828665272
		outer loop
			vertex 0.2833408 1.9265842 -0.5762658
			vertex 0.277596 1.788759 -0.7559959
			vertex 0.5683919 1.781039 -0.5553098
		endloop
	endfacet
	facet normal -0.5067760254806831 -0.3648852468456606 0.7810485366687422
		outer loop
			vertex 0.577847 1.9673361 -0.36614
			vertex 0.558462 2.6574945 -0.056294
			vertex 0.2833408 1.9265842 -0.5762658
		endloop
	endfacet
	facet normal -0.5010268979277541 -0.3684841118950718 0.7830654550124098
		outer loop
			vertex 0.558462 2.6574945 -0.056294
			vertex 0.2860578 2.4325585 -0.336433
			vertex 0.2833408 1.9265842 -0.5762658
		endloop
	endfacet
	facet normal 0.6693803159522955 -0.18782695258302598 0.718784410306024
		outer loop
			vertex 1.93738 2.6018727 -0.701318
			vertex 2.2391069 2.6489029 -0.9700168
			vertex 1.8051438 3.7269528 -0.2841739
		endloop
	endfacet
	facet normal 0.5912453317093415 -0.2498381779392395 0.7668179983385313
		outer loop
			vertex 2.2391069 2.6489029 -0.9700168
			vertex 2.2101469 3.380754 -0.709242
			vertex 1.8051438 3.7269528 -0.2841739
		endloop
	endfacet
	facet normal 0.7999609224440214 0.29264798850903245 0.5238508159620714
		outer loop
			vertex 1.8051438 3.7269528 -0.2841739
			vertex 2.2101469 3.380754 -0.709242
			vertex 1.449399 4.6089759 -0.233664
		endloop
	endfacet
	facet normal 0.5830653901370734 0.047095675727886185 0.8110590287716648
		outer loop
			vertex 2.2101469 3.380754 -0.709242
			vertex 1.78545 4.2772341 -0.4559858
			vertex 1.449399 4.6089759 -0.233664
		endloop
	endfacet
	facet normal 0.4995007064698699 0.828185132485968 -0.25418188480948145
		outer loop
			vertex 2.1405699 3.8963411 -0.9991688
			vertex 1.856668 4.0411606 -1.0852168
			vertex 1.78545 4.2772341 -0.4559858
		endloop
	endfacet
	facet normal 0.6092164807902555 0.7626823185662874 -0.21718876692842193
		outer loop
			vertex 1.856668 4.0411606 -1.0852168
			vertex 1.449399 4.6089759 -0.233664
			vertex 1.78545 4.2772341 -0.4559858
		endloop
	endfacet
	facet normal 0.14715121122577435 -0.9560879426463136 0.25346077992685045
		outer loop
			vertex 1.669507 1.8064238 -2.1313181
			vertex 2.0691831 2.101928 -1.2486759
			vertex 1.677927 1.971992 -1.5116611
		endloop
	endfacet
	facet normal 0.3516908890114715 -0.934079511580308 -0.061716971994858684
		outer loop
			vertex 2.0691831 2.101928 -1.2486759
			vertex 1.675509 1.939284 -1.030408
			vertex 1.677927 1.971992 -1.5116611
		endloop
	endfacet
	facet normal 0.5623705460190874 -0.6055306584410952 0.5630914585199168
		outer loop
			vertex 1.8776259 2.2402389 -0.9086288
			vertex 1.675509 1.939284 -1.030408
			vertex 2.0691831 2.101928 -1.2486759
		endloop
	endfacet
	facet normal 0.6288166774883156 -0.46230128743062104 0.6251936546003536
		outer loop
			vertex 1.93738 2.6018727 -0.701318
			vertex 1.8776259 2.2402389 -0.9086288
			vertex 2.2391069 2.6489029 -0.9700168
		endloop
	endfacet
	facet normal 0.6558082735724973 -0.4943891612698313 0.5705215732404633
		outer loop
			vertex 1.8776259 2.2402389 -0.9086288
			vertex 2.0691831 2.101928 -1.2486759
			vertex 2.2391069 2.6489029 -0.9700168
		endloop
	endfacet
	facet normal -0.6578316809886801 -0.13833818730828465 0.7403512851477099
		outer loop
			vertex -1.125141 2.65746 -0.027628
			vertex -1.0086451 4.0897312 0.34351
			vertex -1.6646748 2.5018971 -0.536093
		endloop
	endfacet
	facet normal -0.5691457779863967 -0.2058376519879369 0.7960552395558694
		outer loop
			vertex -1.0086451 4.0897312 0.34351
			vertex -1.5998148 3.8748147 -0.1347227
			vertex -1.6646748 2.5018971 -0.536093
		endloop
	endfacet
	facet normal -0.6072747575654104 0.20334022902495663 0.7680300255093874
		outer loop
			vertex -1.424698 4.7092166 -0.2171719
			vertex -1.5998148 3.8748147 -0.1347227
			vertex -0.942311 4.901135 0.1134359
		endloop
	endfacet
	facet normal -0.662442923543491 0.25398611193299386 0.704741390860728
		outer loop
			vertex -1.5998148 3.8748147 -0.1347227
			vertex -1.0086451 4.0897312 0.34351
			vertex -0.942311 4.901135 0.1134359
		endloop
	endfacet
	facet normal -0.004212720448889694 0.8674917556410419 -0.4974337210938181
		outer loop
			vertex -0.942311 4.901135 0.1134359
			vertex -0.8136217 4.5396099 -0.51813
			vertex -1.424698 4.7092166 -0.2171719
		endloop
	endfacet
	facet normal 0.09482619437182914 0.9372085896836494 -0.3356308273745739
		outer loop
			vertex -0.8136217 4.5396099 -0.51813
			vertex -1.451663 4.5275846 -0.7319758
			vertex -1.424698 4.7092166 -0.2171719
		endloop
	endfacet
	facet normal 0.08803165986431456 0.9447392723888958 -0.3157817823555272
		outer loop
			vertex -0.8136217 4.5396099 -0.51813
			vertex -0.4910958 4.2261567 -1.365991
			vertex -1.451663 4.5275846 -0.7319758
		endloop
	endfacet
	facet normal 0.03884110128623562 0.9239885035512245 -0.380442655542253
		outer loop
			vertex -0.4910958 4.2261567 -1.365991
			vertex -0.982636 4.25456 -1.3471909
			vertex -1.451663 4.5275846 -0.7319758
		endloop
	endfacet
	facet normal -0.32569915606205685 0.3355565540899459 -0.8839241249947561
		outer loop
			vertex -0.5181729 3.1218464 -2.2363405
			vertex -0.7261419 2.70769 -2.3169329
			vertex -0.6912149 4.0569458 -1.817596
		endloop
	endfacet
	facet normal 0.8455985314279073 -0.5290837488336285 0.07094723650094069
		outer loop
			vertex -1.0241627 1.8814451 -2.4817841
			vertex -0.701064 2.4070463 -2.4130673
			vertex -1.0074828 2.0255051 -1.60627
		endloop
	endfacet
	facet normal 0.25105302021940706 -0.4039952857690075 0.8796363965384402
		outer loop
			vertex -1.2157727 1.813062 -1.6443928
			vertex -1.0074828 2.0255051 -1.60627
			vertex -1.767395 1.931914 -1.432371
		endloop
	endfacet
	facet normal 0.008237039093278808 -0.8951188680164849 -0.4457514591202845
		outer loop
			vertex -1.0074828 2.0255051 -1.60627
			vertex -1.0673219 1.7602859 -1.0747859
			vertex -1.767395 1.931914 -1.432371
		endloop
	endfacet
	facet normal -0.259884670019816 -0.9645506697659193 0.04584717813353394
		outer loop
			vertex -1.0673219 1.7602859 -1.0747859
			vertex -0.9501708 1.7505701 -0.6151198
			vertex -1.767395 1.931914 -1.432371
		endloop
	endfacet
	facet normal -0.3230446096468091 -0.9394218308030988 0.11458099313889278
		outer loop
			vertex -0.9501708 1.7505701 -0.6151198
			vertex -1.3675839 1.864863 -0.8548961
			vertex -1.767395 1.931914 -1.432371
		endloop
	endfacet
	facet normal -0.5484363610021997 -0.5952611906248907 0.5872662708401554
		outer loop
			vertex -1.5359108 2.1933949 -0.6790888
			vertex -1.3675839 1.864863 -0.8548961
			vertex -0.9328758 2.015732 -0.2960079
		endloop
	endfacet
	facet normal -0.5043260475389948 -0.6505190099552999 0.5678734502162188
		outer loop
			vertex -1.3675839 1.864863 -0.8548961
			vertex -0.9501708 1.7505701 -0.6151198
			vertex -0.9328758 2.015732 -0.2960079
		endloop
	endfacet
	facet normal -0.49743434384229757 -0.5270153173944349 0.689067434144022
		outer loop
			vertex -1.6646748 2.5018971 -0.536093
			vertex -1.5359108 2.1933949 -0.6790888
			vertex -1.125141 2.65746 -0.027628
		endloop
	endfacet
	facet normal -0.5689989479802926 -0.4565245309497661 0.6839777407477647
		outer loop
			vertex -1.5359108 2.1933949 -0.6790888
			vertex -0.9328758 2.015732 -0.2960079
			vertex -1.125141 2.65746 -0.027628
		endloop
	endfacet
	facet normal 0.5438068088607649 -0.6955052276158374 0.46962392719676643
		outer loop
			vertex 1.2179049 1.7761821 -0.7420709
			vertex 1.675509 1.939284 -1.030408
			vertex 1.2997189 2.01021 -0.490217
		endloop
	endfacet
	facet normal 0.6087561320526926 -0.6127476434914726 0.503940767435908
		outer loop
			vertex 1.675509 1.939284 -1.030408
			vertex 1.8776259 2.2402389 -0.9086288
			vertex 1.2997189 2.01021 -0.490217
		endloop
	endfacet
	facet normal -0.0345225407635109 0.9330522187374087 -0.3580806491398699
		outer loop
			vertex -0.8136217 4.5396099 -0.51813
			vertex -0.304823 4.6116881 -0.3793688
			vertex -0.4910958 4.2261567 -1.365991
		endloop
	endfacet
	facet normal -0.010275933077277062 -0.8790858862656639 -0.4765526306379013
		outer loop
			vertex 0.3059557 1.836097 -1.0489877
			vertex 0.3008958 2.1262145 -1.5840518
			vertex 0.56572 1.7753139 -0.9424638
		endloop
	endfacet
	facet normal -0.2501644409878488 -0.8892003440032447 -0.38306722737627713
		outer loop
			vertex 0.3008958 2.1262145 -1.5840518
			vertex 0.6241758 1.9911606 -1.481676
			vertex 0.56572 1.7753139 -0.9424638
		endloop
	endfacet
	facet normal -0.813265703065508 -0.5414056990089339 0.21325750935902055
		outer loop
			vertex 1.363795 2.0502975 -1.7115098
			vertex 0.797499 2.632236 -2.3937099
			vertex 1.0732273 2.2155125 -2.4001627
		endloop
	endfacet
	facet normal 0.6082851848198086 -0.7936589155818483 -0.009729318895786545
		outer loop
			vertex 1.669507 1.8064238 -2.1313181
			vertex 2.3064549 2.2875719 -1.5579489
			vertex 2.0691831 2.101928 -1.2486759
		endloop
	endfacet
	facet normal 0.43464702409784944 0.3621259140436831 -0.8245888592631545
		outer loop
			vertex 2.1405699 3.8963411 -0.9991688
			vertex 1.802474 3.3621471 -1.411978
			vertex 1.856668 4.0411606 -1.0852168
		endloop
	endfacet
	facet normal -0.3329741740141237 -0.09628880586460932 -0.9380067512042649
		outer loop
			vertex 0.1712179 3.596154 -2.292701
			vertex 0.472189 3.1361539 -2.3523197
			vertex 0.1875409 3.5230107 -2.290987
		endloop
	endfacet
	facet normal -0.17625543979537892 -0.9503833005338397 0.25633103988581424
		outer loop
			vertex 1.310884 1.805905 -2.3798339
			vertex 1.669507 1.8064238 -2.1313181
			vertex 1.677927 1.971992 -1.5116611
		endloop
	endfacet
	facet normal -0.21370638332334774 -0.5511527566922003 -0.8065731340166511
		outer loop
			vertex 0.3072858 2.466908 -1.963593
			vertex 0.107059 2.4952331 -1.929897
			vertex 0.229839 2.7107143 -2.1096723
		endloop
	endfacet
	facet normal -0.5054463079165806 -0.36449584218369485 -0.7820913059510994
		outer loop
			vertex 0.107059 2.4952331 -1.929897
			vertex 0.101181 2.6949401 -2.0191722
			vertex 0.229839 2.7107143 -2.1096723
		endloop
	endfacet
	facet normal 0.2453306165142148 -0.38960992187772414 -0.8877032146923819
		outer loop
			vertex 0.107059 2.4952331 -1.929897
			vertex -0.0669829 2.472528 -1.968031
			vertex 0.101181 2.6949401 -2.0191722
		endloop
	endfacet
	facet normal 0.4774271852973494 -0.5232832625181278 -0.7058596956247286
		outer loop
			vertex -0.0669829 2.472528 -1.968031
			vertex -0.0149268 2.7116909 -2.1101229
			vertex 0.101181 2.6949401 -2.0191722
		endloop
	endfacet
	facet normal 0.3597694646995112 -0.5332096464063737 -0.7656718652588832
		outer loop
			vertex -0.0669829 2.472528 -1.968031
			vertex -0.370646 2.4725585 -2.1107357
			vertex -0.0149268 2.7116909 -2.1101229
		endloop
	endfacet
	facet normal 0.9166523061854133 -0.3572687134663384 0.17918598143568906
		outer loop
			vertex -0.701064 2.4070463 -2.4130673
			vertex -0.6442599 2.6566727 -2.2059412
			vertex -1.0074828 2.0255051 -1.60627
		endloop
	endfacet
	facet normal -0.3740873361655341 0.3850406102268302 -0.8436838231213901
		outer loop
			vertex -2.0900035 3.6588244 -1.0991068
			vertex -1.547722 2.001792 -2.0957899
			vertex -2.428303 2.856699 -1.3151798
		endloop
	endfacet
	facet normal -0.46065695201996965 0.3561927529008439 -0.8129710298261495
		outer loop
			vertex -1.5327599 3.5065479 -1.4815779
			vertex -1.1000288 2.1238551 -2.332587
			vertex -2.0900035 3.6588244 -1.0991068
		endloop
	endfacet
	facet normal -0.509436063978049 0.314952044157036 -0.800799666957884
		outer loop
			vertex -1.1000288 2.1238551 -2.332587
			vertex -1.547722 2.001792 -2.0957899
			vertex -2.0900035 3.6588244 -1.0991068
		endloop
	endfacet
	facet normal -0.49443559669066356 0.33810616699649115 -0.8007606762098701
		outer loop
			vertex -0.7261419 2.70769 -2.3169329
			vertex -1.1000288 2.1238551 -2.332587
			vertex -1.5327599 3.5065479 -1.4815779
		endloop
	endfacet
	facet normal -0.4762848658870621 0.27010002123293847 -0.836778767092539
		outer loop
			vertex -0.4951069 3.009697 -2.3509519
			vertex -0.5153548 2.7030132 -2.4384201
			vertex -0.7261419 2.70769 -2.3169329
		endloop
	endfacet
	facet normal -0.48211413906411327 0.23009656844283702 -0.8453529003352978
		outer loop
			vertex -0.5153548 2.7030132 -2.4384201
			vertex -0.701064 2.4070463 -2.4130673
			vertex -0.7261419 2.70769 -2.3169329
		endloop
	endfacet
	facet normal -0.11524601284526002 0.051532744939433626 -0.9919993612509422
		outer loop
			vertex -0.2106689 3.3735299 -2.3650961
			vertex -0.1958 3.18419 -2.3766594
			vertex -0.4951069 3.009697 -2.3509519
		endloop
	endfacet
	facet normal -0.24346827010926853 0.2808478399010049 -0.9283575239491195
		outer loop
			vertex -0.1958 3.18419 -2.3766594
			vertex -0.5153548 2.7030132 -2.4384201
			vertex -0.4951069 3.009697 -2.3509519
		endloop
	endfacet
	facet normal 0.36970202613922143 -0.14876441116935904 -0.9171638685851011
		outer loop
			vertex 0.0112017 3.6666031 -2.3231983
			vertex 0.049474 3.5908899 -2.2954903
			vertex -0.2106689 3.3735299 -2.3650961
		endloop
	endfacet
	facet normal 0.19857147382675244 0.07527255980856808 -0.9771915940705471
		outer loop
			vertex 0.049474 3.5908899 -2.2954903
			vertex -0.1958 3.18419 -2.3766594
			vertex -0.2106689 3.3735299 -2.3650961
		endloop
	endfacet
	facet normal 0.5627113379772154 0.21436859021245736 -0.7983746348940551
		outer loop
			vertex 2.59127 2.8498285 -1.173177
			vertex 2.5587561 2.6451051 -1.251063
			vertex 2.2839551 2.5057812 -1.4821579
		endloop
	endfacet
	facet normal 0.5043577981585335 0.32926361190564324 -0.7982535219537249
		outer loop
			vertex 2.5587561 2.6451051 -1.251063
			vertex 2.3064549 2.2875719 -1.5579489
			vertex 2.2839551 2.5057812 -1.4821579
		endloop
	endfacet
	facet normal 0.48044213407401676 0.33155185127504366 -0.8119413314535084
		outer loop
			vertex 2.3064549 2.2875719 -1.5579489
			vertex 1.669507 1.8064238 -2.1313181
			vertex 2.2839551 2.5057812 -1.4821579
		endloop
	endfacet
	facet normal 0.47721149904520205 0.3348877586479749 -0.8124773069364872
		outer loop
			vertex 1.669507 1.8064238 -2.1313181
			vertex 1.686753 2.0082009 -2.0380199
			vertex 2.2839551 2.5057812 -1.4821579
		endloop
	endfacet
	facet normal 0.3339583751437446 0.2351004343766877 -0.9127976716815412
		outer loop
			vertex 0.797499 2.632236 -2.3937099
			vertex 0.699219 3.0142629 -2.3312719
			vertex 1.0732273 2.2155125 -2.4001627
		endloop
	endfacet
	facet normal 0.4376865947503251 0.27867261229666046 -0.8548520456380856
		outer loop
			vertex 0.699219 3.0142629 -2.3312719
			vertex 1.10726 2.512166 -2.286032
			vertex 1.0732273 2.2155125 -2.4001627
		endloop
	endfacet
	facet normal 0.04046609402972903 0.10771459044611506 -0.9933579728572188
		outer loop
			vertex 0.472189 3.1361539 -2.3523197
			vertex 0.478728 3.35322 -2.3285158
			vertex 0.797499 2.632236 -2.3937099
		endloop
	endfacet
	facet normal 0.35665690275878326 0.23934753823955257 -0.9030551531624068
		outer loop
			vertex 0.478728 3.35322 -2.3285158
			vertex 0.699219 3.0142629 -2.3312719
			vertex 0.797499 2.632236 -2.3937099
		endloop
	endfacet
	facet normal 0.5403395968719567 0.314659663367057 -0.7803988828169744
		outer loop
			vertex 1.669507 1.8064238 -2.1313181
			vertex 1.310884 1.805905 -2.3798339
			vertex 1.686753 2.0082009 -2.0380199
		endloop
	endfacet
	facet normal 0.5307208400921076 0.33173522635317537 -0.7799276437518643
		outer loop
			vertex 1.310884 1.805905 -2.3798339
			vertex 1.3301063 2.038923 -2.2676415
			vertex 1.686753 2.0082009 -2.0380199
		endloop
	endfacet
	facet normal 0.5949061618420686 0.3083273822787146 -0.7423078094291438
		outer loop
			vertex 1.310884 1.805905 -2.3798339
			vertex 1.0732273 2.2155125 -2.4001627
			vertex 1.3301063 2.038923 -2.2676415
		endloop
	endfacet
	facet normal 0.5693078499374893 0.23749633934378794 -0.787073097493399
		outer loop
			vertex 1.0732273 2.2155125 -2.4001627
			vertex 1.10726 2.512166 -2.286032
			vertex 1.3301063 2.038923 -2.2676415
		endloop
	endfacet
	facet normal 0.28439028197604005 -0.31639136945966223 -0.9049965021197751
		outer loop
			vertex 0.9526218 2.6248007 -2.041568
			vertex 1.363795 2.0502975 -1.7115098
			vertex 0.578062 2.460737 -2.1019139
		endloop
	endfacet
	facet normal 0.806083749754904 -0.4756246746921361 0.35215075919990985
		outer loop
			vertex -0.5153548 2.7030132 -2.4384201
			vertex -0.6442599 2.6566727 -2.2059412
			vertex -0.701064 2.4070463 -2.4130673
		endloop
	endfacet
	facet normal 0.7527109086481892 -0.5020974183245935 0.42582211134908865
		outer loop
			vertex -0.292616 3.2253101 -2.1570354
			vertex -0.6442599 2.6566727 -2.2059412
			vertex -0.1958 3.18419 -2.3766594
		endloop
	endfacet
	facet normal 0.7707392178159653 -0.5525719988005003 0.31721482352193753
		outer loop
			vertex -0.6442599 2.6566727 -2.2059412
			vertex -0.5153548 2.7030132 -2.4384201
			vertex -0.1958 3.18419 -2.3766594
		endloop
	endfacet
	facet normal -0.8034344084133246 0.5366151056209146 -0.25794840530033497
		outer loop
			vertex 0.036367 3.9616337 -2.195986
			vertex -0.253549 3.4960933 -2.2614546
			vertex 0.0032488 4.0289202 -1.952855
		endloop
	endfacet
	facet normal 0.5580715237948946 0.19777928441055057 -0.8058781105026338
		outer loop
			vertex -0.253549 3.4960933 -2.2614546
			vertex -0.313062 3.9643352 -2.1877511
			vertex 0.0032488 4.0289202 -1.952855
		endloop
	endfacet
	facet normal -0.38661046399612997 -0.5612675467353707 -0.7317862325231022
		outer loop
			vertex 0.578062 2.460737 -2.1019139
			vertex 0.3072858 2.466908 -1.963593
			vertex 0.229839 2.7107143 -2.1096723
		endloop
	endfacet
	facet normal -0.21293454488010266 -0.06765801020271184 -0.9747211258878683
		outer loop
			vertex 0.4535269 3.2710147 -2.1309519
			vertex 0.578062 2.460737 -2.1019139
			vertex 0.2332638 3.1225057 -2.0725255
		endloop
	endfacet
	facet normal 0.08585791423455458 0.08880292339043636 -0.992341906482138
		outer loop
			vertex 0.578062 2.460737 -2.1019139
			vertex 0.229839 2.7107143 -2.1096723
			vertex 0.2332638 3.1225057 -2.0725255
		endloop
	endfacet
	facet normal 0.2744357104153601 -0.08734913224972442 -0.9576299754832431
		outer loop
			vertex -0.292616 3.2253101 -2.1570354
			vertex -0.370646 2.4725585 -2.1107357
			vertex -0.6442599 2.6566727 -2.2059412
		endloop
	endfacet
	facet normal -0.8437253977046755 -0.39511999278305826 0.3633285628342523
		outer loop
			vertex 0.797499 2.632236 -2.3937099
			vertex 1.363795 2.0502975 -1.7115098
			vertex 0.9526218 2.6248007 -2.041568
		endloop
	endfacet
	facet normal -0.1596038334424257 -0.6301358252050432 -0.7599049007235326
		outer loop
			vertex -1.0074828 2.0255051 -1.60627
			vertex -0.6442599 2.6566727 -2.2059412
			vertex -0.370646 2.4725585 -2.1107357
		endloop
	endfacet
	facet normal 0.10874196456996213 -0.8081285269120022 -0.5788812219553356
		outer loop
			vertex -1.0074828 2.0255051 -1.60627
			vertex -0.370646 2.4725585 -2.1107357
			vertex -0.322709 2.0416307 -1.5001479
		endloop
	endfacet
	facet normal 0.33717750199050117 -0.9414410539529424 0.0002721826938378384
		outer loop
			vertex -1.4575599 1.7262874 -2.2615032
			vertex -1.0241627 1.8814451 -2.4817841
			vertex -1.2157727 1.813062 -1.6443928
		endloop
	endfacet
	facet normal 0.700990184197635 -0.7057276638380408 0.10276782644518243
		outer loop
			vertex -1.0074828 2.0255051 -1.60627
			vertex -1.2157727 1.813062 -1.6443928
			vertex -1.0241627 1.8814451 -2.4817841
		endloop
	endfacet
	facet normal -0.7939368802962358 -0.43981239449591036 0.41979672194200685
		outer loop
			vertex 1.0732273 2.2155125 -2.4001627
			vertex 1.310884 1.805905 -2.3798339
			vertex 1.677927 1.971992 -1.5116611
		endloop
	endfacet
	facet normal 0.2221965340262853 0.5325235156722277 -0.8167297016288785
		outer loop
			vertex 1.10726 2.512166 -2.286032
			vertex 1.0131609 3.960036 -1.3675931
			vertex 1.856668 4.0411606 -1.0852168
		endloop
	endfacet
	facet normal 0.2687721410507086 0.34959328982081883 -0.8975221824040202
		outer loop
			vertex 0.836406 3.9833989 -1.794083
			vertex 1.10726 2.512166 -2.286032
			vertex 0.7244328 3.1155651 -2.1656439
		endloop
	endfacet
	facet normal 0.5324711943689484 0.2741651547926219 -0.8008170172173187
		outer loop
			vertex 0.836406 3.9833989 -1.794083
			vertex 0.7244328 3.1155651 -2.1656439
			vertex 0.4953278 3.4599771 -2.2000663
		endloop
	endfacet
	facet normal 0.24550804655866537 0.9408773981487576 -0.23339991586924952
		outer loop
			vertex 0.2087319 3.9988327 -1.944355
			vertex 0.4130949 3.8932352 -2.1550729
			vertex 0.1593569 3.9489772 -2.197268
		endloop
	endfacet
	facet normal 0.19176845771729908 0.13731688683198787 -0.9717864637951589
		outer loop
			vertex 0.4130949 3.8932352 -2.1550729
			vertex 0.4953278 3.4599771 -2.2000663
			vertex 0.1593569 3.9489772 -2.197268
		endloop
	endfacet
	facet normal 0.11806991422230322 0.9220032903836668 -0.36874032580832555
		outer loop
			vertex 0.836406 3.9833989 -1.794083
			vertex 0.4130949 3.8932352 -2.1550729
			vertex 0.4756998 4.1373348 -1.524677
		endloop
	endfacet
	facet normal 0.09852044789651807 0.9246602232495359 -0.36782766737480194
		outer loop
			vertex 0.4130949 3.8932352 -2.1550729
			vertex 0.2087319 3.9988327 -1.944355
			vertex 0.4756998 4.1373348 -1.524677
		endloop
	endfacet
	facet normal -0.9060334715071764 0.3023572870439493 0.29611386235716436
		outer loop
			vertex -2.428303 2.856699 -1.3151798
			vertex -2.0420487 3.5099452 -0.800359
			vertex -2.0900035 3.6588244 -1.0991068
		endloop
	endfacet
	facet normal -0.7692143142235647 -0.5488261749265623 0.3272600930590987
		outer loop
			vertex 0.9526218 2.6248007 -2.041568
			vertex 0.4535269 3.2710147 -2.1309519
			vertex 0.797499 2.632236 -2.3937099
		endloop
	endfacet
	facet normal 0.3666400294026128 -0.12350019466147652 -0.9221294869801251
		outer loop
			vertex -0.292616 3.2253101 -2.1570354
			vertex -0.034717 3.6369915 -2.1096306
			vertex -0.0739839 3.1290059 -2.057209
		endloop
	endfacet
	facet normal 0.1634208452134981 -0.010236555557161206 -0.9865033402275085
		outer loop
			vertex 0.4535269 3.2710147 -2.1309519
			vertex 0.9526218 2.6248007 -2.041568
			vertex 0.578062 2.460737 -2.1019139
		endloop
	endfacet
	facet normal -0.2689322270685648 0.5476636580412513 -0.7923004322255653
		outer loop
			vertex 0.1993719 4.04283 -1.7368348
			vertex 0.14912 3.6376879 -1.999825
			vertex 0.103386 4.0490379 -1.699963
		endloop
	endfacet
	facet normal -0.6284891813584408 0.4113508430688082 -0.6601453118988105
		outer loop
			vertex 0.14912 3.6376879 -1.999825
			vertex 0.0795899 3.5409689 -1.9938968
			vertex 0.103386 4.0490379 -1.699963
		endloop
	endfacet
	facet normal -0.7416358745200726 -0.4959968755254935 0.4516229944254337
		outer loop
			vertex 0.4535269 3.2710147 -2.1309519
			vertex 0.225319 3.6357491 -2.105134
			vertex 0.1875409 3.5230107 -2.290987
		endloop
	endfacet
	facet normal -0.21451839696115568 -0.06523718725579437 -0.9745388482580715
		outer loop
			vertex 0.2332638 3.1225057 -2.0725255
			vertex 0.225319 3.6357491 -2.105134
			vertex 0.4535269 3.2710147 -2.1309519
		endloop
	endfacet
	facet normal 0.8118115285084124 0.02699746308642935 -0.5832951047006412
		outer loop
			vertex -0.024904 3.707942 -2.0531175
			vertex 0.011234 3.9859619 -1.9899538
			vertex 0.011451 3.6418867 -2.0055771
		endloop
	endfacet
	facet normal 0.9992948015399689 0.002331897552303496 -0.03747615066945947
		outer loop
			vertex 0.011234 3.9859619 -1.9899538
			vertex 0.020036 4.075429 -1.7496831
			vertex 0.011451 3.6418867 -2.0055771
		endloop
	endfacet
	facet normal 0.5623310173348967 -0.5592563813622554 0.6091109314802157
		outer loop
			vertex 0.046532 3.5344069 -2.2788279
			vertex -0.034717 3.6369915 -2.1096306
			vertex -0.1958 3.18419 -2.3766594
		endloop
	endfacet
	facet normal 0.7444416468840274 -0.5152546143870281 0.4246402203483229
		outer loop
			vertex -0.034717 3.6369915 -2.1096306
			vertex -0.292616 3.2253101 -2.1570354
			vertex -0.1958 3.18419 -2.3766594
		endloop
	endfacet
	facet normal -0.9978211522729576 -0.06597134611132911 -0.0008541480705062282
		outer loop
			vertex 0.205249 3.9571257 -1.983006
			vertex 0.22332 3.684798 -2.0600431
			vertex 0.1993719 4.04283 -1.7368348
		endloop
	endfacet
	facet normal -0.7175520163146981 0.43966226984437445 -0.5402001410199777
		outer loop
			vertex 0.22332 3.684798 -2.0600431
			vertex 0.14912 3.6376879 -1.999825
			vertex 0.1993719 4.04283 -1.7368348
		endloop
	endfacet
	facet normal -0.5160596187485383 -0.06226479383918067 -0.8542865826789495
		outer loop
			vertex 0.2332638 3.1225057 -2.0725255
			vertex 0.1424718 3.5653129 -2.0499537
			vertex 0.225319 3.6357491 -2.105134
		endloop
	endfacet
	facet normal 0.41031047472525517 0.8408438400003974 -0.3530254255207716
		outer loop
			vertex 0.0208928 4.1187525 -1.724112
			vertex 0.169851 4.3775449 -0.934585
			vertex 0.105764 4.0998082 -1.6705908
		endloop
	endfacet
	facet normal 0.6616683172601404 0.37136302374853664 -0.6513712785550787
		outer loop
			vertex 0.011451 3.6418867 -2.0055771
			vertex 0.020036 4.075429 -1.7496831
			vertex 0.0795899 3.5409689 -1.9938968
		endloop
	endfacet
	facet normal 0.5596540866376898 0.3952037954956301 -0.7284238212301829
		outer loop
			vertex 0.020036 4.075429 -1.7496831
			vertex 0.103386 4.0490379 -1.699963
			vertex 0.0795899 3.5409689 -1.9938968
		endloop
	endfacet
	facet normal 0.18545259520660334 -0.03355591915917552 -0.9820801063154262
		outer loop
			vertex -0.0739839 3.1290059 -2.057209
			vertex 0.0044459 3.5690761 -2.057435
			vertex 0.0864479 3.0170417 -2.023088
		endloop
	endfacet
	facet normal 0.5822562790683735 0.035956471969037646 -0.8122097990106943
		outer loop
			vertex 0.0044459 3.5690761 -2.057435
			vertex 0.078201 3.5106709 -2.0071471
			vertex 0.0864479 3.0170417 -2.023088
		endloop
	endfacet
	facet normal 0.1185916808615219 0.10470847926110341 -0.9874067791955178
		outer loop
			vertex 0.478728 3.35322 -2.3285158
			vertex 0.472189 3.1361539 -2.3523197
			vertex 0.1998928 3.6735361 -2.3280375
		endloop
	endfacet
	facet normal -0.48570701621870527 -0.20774550253745017 -0.8490762631067865
		outer loop
			vertex 0.472189 3.1361539 -2.3523197
			vertex 0.1712179 3.596154 -2.292701
			vertex 0.1998928 3.6735361 -2.3280375
		endloop
	endfacet
	facet normal 0.6473716368522282 -0.24647815663418965 -0.7212201342873608
		outer loop
			vertex -0.1958 3.18419 -2.3766594
			vertex 0.049474 3.5908899 -2.2954903
			vertex 0.046532 3.5344069 -2.2788279
		endloop
	endfacet
	facet normal 0.150227303768843 0.964009119417875 -0.21935855324449324
		outer loop
			vertex 0.2087319 3.9988327 -1.944355
			vertex 0.1593569 3.9489772 -2.197268
			vertex 0.0032488 4.0289202 -1.952855
		endloop
	endfacet
	facet normal 0.09641628938095557 0.9625813104310231 -0.25326097202471304
		outer loop
			vertex 0.1593569 3.9489772 -2.197268
			vertex 0.036367 3.9616337 -2.195986
			vertex 0.0032488 4.0289202 -1.952855
		endloop
	endfacet
	facet normal -0.008187760648078376 -0.41286248717413176 -0.9107565686065402
		outer loop
			vertex 0.1998928 3.6735361 -2.3280375
			vertex 0.1712179 3.596154 -2.292701
			vertex 0.0112017 3.6666031 -2.3231983
		endloop
	endfacet
	facet normal 0.035791004309466794 -0.32744456254175797 -0.9441922804558173
		outer loop
			vertex 0.1712179 3.596154 -2.292701
			vertex 0.049474 3.5908899 -2.2954903
			vertex 0.0112017 3.6666031 -2.3231983
		endloop
	endfacet
	facet normal -0.1281704502570166 -0.6683387677969 0.7327316201315697
		outer loop
			vertex 0.2087319 3.9988327 -1.944355
			vertex 0.0032488 4.0289202 -1.952855
			vertex 0.205249 3.9571257 -1.983006
		endloop
	endfacet
	facet normal -0.12482042963794161 -0.6616811533170367 0.739322603259251
		outer loop
			vertex 0.0032488 4.0289202 -1.952855
			vertex 0.011234 3.9859619 -1.9899538
			vertex 0.205249 3.9571257 -1.983006
		endloop
	endfacet
	facet normal 0.7157341648187144 0.5419737443365304 -0.44044189828069075
		outer loop
			vertex 0.7244328 3.1155651 -2.1656439
			vertex 1.10726 2.512166 -2.286032
			vertex 0.699219 3.0142629 -2.3312719
		endloop
	endfacet
	facet normal 0.7539178829473687 0.4540561632624455 -0.47480609344820446
		outer loop
			vertex 0.4953278 3.4599771 -2.2000663
			vertex 0.7244328 3.1155651 -2.1656439
			vertex 0.478728 3.35322 -2.3285158
		endloop
	endfacet
	facet normal 0.7592660981078869 0.4973143365659708 -0.4197540266751153
		outer loop
			vertex 0.7244328 3.1155651 -2.1656439
			vertex 0.699219 3.0142629 -2.3312719
			vertex 0.478728 3.35322 -2.3285158
		endloop
	endfacet
	facet normal 0.5969691173858261 0.4140839184737902 -0.687140728926018
		outer loop
			vertex 0.1593569 3.9489772 -2.197268
			vertex 0.4953278 3.4599771 -2.2000663
			vertex 0.1998928 3.6735361 -2.3280375
		endloop
	endfacet
	facet normal 0.6338596100270015 0.5525829540515875 -0.5411784120491491
		outer loop
			vertex 0.4953278 3.4599771 -2.2000663
			vertex 0.478728 3.35322 -2.3285158
			vertex 0.1998928 3.6735361 -2.3280375
		endloop
	endfacet
	facet normal 0.030919818307643912 0.39353028907707305 -0.9187915304435156
		outer loop
			vertex 0.036367 3.9616337 -2.195986
			vertex 0.1593569 3.9489772 -2.197268
			vertex 0.0112017 3.6666031 -2.3231983
		endloop
	endfacet
	facet normal -0.03878175115191819 0.4238968797146309 -0.9048797771780464
		outer loop
			vertex 0.1593569 3.9489772 -2.197268
			vertex 0.1998928 3.6735361 -2.3280375
			vertex 0.0112017 3.6666031 -2.3231983
		endloop
	endfacet
	facet normal -0.36224719513097775 0.3949365313496731 -0.8442760838879828
		outer loop
			vertex 0.0112017 3.6666031 -2.3231983
			vertex -0.2106689 3.3735299 -2.3650961
			vertex 0.036367 3.9616337 -2.195986
		endloop
	endfacet
	facet normal -0.5292224006783972 0.4322510177966795 -0.7301251319013261
		outer loop
			vertex -0.2106689 3.3735299 -2.3650961
			vertex -0.253549 3.4960933 -2.2614546
			vertex 0.036367 3.9616337 -2.195986
		endloop
	endfacet
	facet normal -0.6858280461154158 0.44636534262103694 -0.5748024635196997
		outer loop
			vertex -0.5181729 3.1218464 -2.2363405
			vertex -0.253549 3.4960933 -2.2614546
			vertex -0.4951069 3.009697 -2.3509519
		endloop
	endfacet
	facet normal -0.5614059625963979 0.41097359243059844 -0.7182785333600749
		outer loop
			vertex -0.253549 3.4960933 -2.2614546
			vertex -0.2106689 3.3735299 -2.3650961
			vertex -0.4951069 3.009697 -2.3509519
		endloop
	endfacet
	facet normal -0.6774434987883818 0.4529592335591143 -0.5795672857252171
		outer loop
			vertex -0.4951069 3.009697 -2.3509519
			vertex -0.7261419 2.70769 -2.3169329
			vertex -0.5181729 3.1218464 -2.2363405
		endloop
	endfacet
	facet normal -0.07293356309714831 0.947426694107066 -0.3115499232343197
		outer loop
			vertex -0.6912149 4.0569458 -1.817596
			vertex -0.319678 4.1756525 -1.5435841
			vertex -0.313062 3.9643352 -2.1877511
		endloop
	endfacet
	facet normal 0.037160470989936745 0.9496360057947705 -0.3111439472237262
		outer loop
			vertex -0.319678 4.1756525 -1.5435841
			vertex 0.0032488 4.0289202 -1.952855
			vertex -0.313062 3.9643352 -2.1877511
		endloop
	endfacet
	facet normal -0.06048100206085503 0.9432211976892826 -0.32661264614112884
		outer loop
			vertex -0.4910958 4.2261567 -1.365991
			vertex -0.319678 4.1756525 -1.5435841
			vertex -0.6912149 4.0569458 -1.817596
		endloop
	endfacet
	facet normal -0.3082185614784685 0.7599618049916931 -0.5722406603116484
		outer loop
			vertex -0.982636 4.25456 -1.3471909
			vertex -1.796847 4.1338558 -1.0689437
			vertex -1.451663 4.5275846 -0.7319758
		endloop
	endfacet
	facet normal -0.3488146218312469 0.40810749745071784 -0.8436685546594922
		outer loop
			vertex -0.982636 4.25456 -1.3471909
			vertex -1.5327599 3.5065479 -1.4815779
			vertex -1.796847 4.1338558 -1.0689437
		endloop
	endfacet
	facet normal 0.04496330494705405 0.9397996634409803 -0.33875491701886534
		outer loop
			vertex 0.4756998 4.1373348 -1.524677
			vertex 0.2087319 3.9988327 -1.944355
			vertex 0.2043927 4.0833149 -1.710554
		endloop
	endfacet
	facet normal -0.06000219396834619 0.9132868279056062 -0.4028733134536222
		outer loop
			vertex 0.169851 4.3775449 -0.934585
			vertex 0.628339 4.6712961 -0.3369559
			vertex 0.4756998 4.1373348 -1.524677
		endloop
	endfacet
	facet normal 0.3925100324262302 0.8189583076630961 -0.4186205498471829
		outer loop
			vertex 0.628339 4.6712961 -0.3369559
			vertex 1.0131609 3.960036 -1.3675931
			vertex 0.4756998 4.1373348 -1.524677
		endloop
	endfacet
	facet normal -0.06166238382655712 0.8105579049818908 -0.5824033251039991
		outer loop
			vertex 1.0131609 3.960036 -1.3675931
			vertex 0.628339 4.6712961 -0.3369559
			vertex 1.469304 4.5043359 -0.65836
		endloop
	endfacet
	facet normal 0.150582584348346 0.7351135901770898 -0.6610089975393096
		outer loop
			vertex 1.469304 4.5043359 -0.65836
			vertex 1.856668 4.0411606 -1.0852168
			vertex 1.0131609 3.960036 -1.3675931
		endloop
	endfacet
	facet normal 0.5639347768228633 0.32112297614880253 -0.7608269196598415
		outer loop
			vertex 1.802474 3.3621471 -1.411978
			vertex 1.10726 2.512166 -2.286032
			vertex 1.856668 4.0411606 -1.0852168
		endloop
	endfacet
	facet normal -0.7788662419594268 0.23531769401189026 -0.5813716195523532
		outer loop
			vertex -0.6912149 4.0569458 -1.817596
			vertex -0.7261419 2.70769 -2.3169329
			vertex -0.982636 4.25456 -1.3471909
		endloop
	endfacet
	facet normal 0.03972858826174361 0.9297743159069539 -0.3659800004842953
		outer loop
			vertex -0.982636 4.25456 -1.3471909
			vertex -0.4910958 4.2261567 -1.365991
			vertex -0.6912149 4.0569458 -1.817596
		endloop
	endfacet
	facet normal -0.3995133090545186 0.43845967149886106 -0.8050728118359355
		outer loop
			vertex -0.7261419 2.70769 -2.3169329
			vertex -1.5327599 3.5065479 -1.4815779
			vertex -0.982636 4.25456 -1.3471909
		endloop
	endfacet
	facet normal -0.1288408309682686 -0.9752636137221914 -0.17961326238599026
		outer loop
			vertex 1.363795 2.0502975 -1.7115098
			vertex 1.0732273 2.2155125 -2.4001627
			vertex 1.677927 1.971992 -1.5116611
		endloop
	endfacet
	facet normal -0.7172049557199239 0.4555554252331023 -0.527338891066712
		outer loop
			vertex 0.22332 3.684798 -2.0600431
			vertex 0.225319 3.6357491 -2.105134
			vertex 0.14912 3.6376879 -1.999825
		endloop
	endfacet
	facet normal -0.7253792547115147 0.4357232979489146 -0.5328884915802639
		outer loop
			vertex 0.225319 3.6357491 -2.105134
			vertex 0.1424718 3.5653129 -2.0499537
			vertex 0.14912 3.6376879 -1.999825
		endloop
	endfacet
	facet normal -0.5567026855614329 0.35414873860682405 -0.7514391464595679
		outer loop
			vertex 0.0795899 3.5409689 -1.9938968
			vertex 0.14912 3.6376879 -1.999825
			vertex 0.078201 3.5106709 -2.0071471
		endloop
	endfacet
	facet normal -0.7253734889692507 0.435726430331853 -0.532893778731594
		outer loop
			vertex 0.14912 3.6376879 -1.999825
			vertex 0.1424718 3.5653129 -2.0499537
			vertex 0.078201 3.5106709 -2.0071471
		endloop
	endfacet
	facet normal 0.7043626106304286 0.3655922245959075 -0.6084534806054631
		outer loop
			vertex 0.0044459 3.5690761 -2.057435
			vertex 0.011451 3.6418867 -2.0055771
			vertex 0.078201 3.5106709 -2.0071471
		endloop
	endfacet
	facet normal 0.5798208938286693 0.30400160527153025 -0.7559039324358986
		outer loop
			vertex 0.011451 3.6418867 -2.0055771
			vertex 0.0795899 3.5409689 -1.9938968
			vertex 0.078201 3.5106709 -2.0071471
		endloop
	endfacet
	facet normal 0.891025631776429 0.20097740032545364 -0.40703981141386936
		outer loop
			vertex -0.034717 3.6369915 -2.1096306
			vertex -0.024904 3.707942 -2.0531175
			vertex 0.0044459 3.5690761 -2.057435
		endloop
	endfacet
	facet normal 0.8927525102747395 0.20122041810144464 -0.40311697897413223
		outer loop
			vertex -0.024904 3.707942 -2.0531175
			vertex 0.011451 3.6418867 -2.0055771
			vertex 0.0044459 3.5690761 -2.057435
		endloop
	endfacet
	facet normal 0.5587346563182153 -0.5625543077308053 0.6093834873726728
		outer loop
			vertex 0.046532 3.5344069 -2.2788279
			vertex 0.045788 3.5439761 -2.2693119
			vertex -0.034717 3.6369915 -2.1096306
		endloop
	endfacet
	facet normal 0.5586335206278198 -0.5626497493120747 0.6093880940993408
		outer loop
			vertex 0.045788 3.5439761 -2.2693119
			vertex -0.024904 3.707942 -2.0531175
			vertex -0.034717 3.6369915 -2.1096306
		endloop
	endfacet
	facet normal 0.9933472158164217 -0.018195312430716745 0.11371121068439967
		outer loop
			vertex 0.049474 3.5908899 -2.2954903
			vertex 0.0488039 3.599148 -2.2883151
			vertex 0.046532 3.5344069 -2.2788279
		endloop
	endfacet
	facet normal 0.9949360836603515 -0.020495095576682783 0.09839786830976066
		outer loop
			vertex 0.0488039 3.599148 -2.2883151
			vertex 0.045788 3.5439761 -2.2693119
			vertex 0.046532 3.5344069 -2.2788279
		endloop
	endfacet
	facet normal 0.013408892247496806 -0.6923696539080441 0.7214183695720191
		outer loop
			vertex 0.1712179 3.596154 -2.292701
			vertex 0.171745 3.6038156 -2.2853577
			vertex 0.049474 3.5908899 -2.2954903
		endloop
	endfacet
	facet normal 0.006724124693867187 -0.6555532366392041 0.7551190237829831
		outer loop
			vertex 0.171745 3.6038156 -2.2853577
			vertex 0.0488039 3.599148 -2.2883151
			vertex 0.049474 3.5908899 -2.2954903
		endloop
	endfacet
	facet normal -0.9490173996807958 -0.20235388732647067 0.2416999780450277
		outer loop
			vertex 0.1881518 3.5305312 -2.2822921
			vertex 0.171745 3.6038156 -2.2853577
			vertex 0.1875409 3.5230107 -2.290987
		endloop
	endfacet
	facet normal -0.9385817222161453 -0.20291834774643663 0.279085103274308
		outer loop
			vertex 0.171745 3.6038156 -2.2853577
			vertex 0.1712179 3.596154 -2.292701
			vertex 0.1875409 3.5230107 -2.290987
		endloop
	endfacet
	facet normal -0.80833374296107 -0.4159529498134326 0.41662897586707875
		outer loop
			vertex 0.22332 3.684798 -2.0600431
			vertex 0.1881518 3.5305312 -2.2822921
			vertex 0.225319 3.6357491 -2.105134
		endloop
	endfacet
	facet normal -0.8082058396192978 -0.416125609971864 0.4167046886355015
		outer loop
			vertex 0.1881518 3.5305312 -2.2822921
			vertex 0.1875409 3.5230107 -2.290987
			vertex 0.225319 3.6357491 -2.105134
		endloop
	endfacet
	facet normal 0.5596540911510014 0.3952028566435478 -0.7284243271326996
		outer loop
			vertex 0.103386 4.0490379 -1.699963
			vertex 0.020036 4.075429 -1.7496831
			vertex 0.105764 4.0998082 -1.6705908
		endloop
	endfacet
	facet normal 0.5496371011259439 0.4165471847642401 -0.7241460487573311
		outer loop
			vertex 0.020036 4.075429 -1.7496831
			vertex 0.0208928 4.1187525 -1.724112
			vertex 0.105764 4.0998082 -1.6705908
		endloop
	endfacet
	facet normal -0.233124790406634 0.5496605353109058 -0.8022008028041308
		outer loop
			vertex 0.2043927 4.0833149 -1.710554
			vertex 0.1993719 4.04283 -1.7368348
			vertex 0.105764 4.0998082 -1.6705908
		endloop
	endfacet
	facet normal -0.2847987353821704 0.4899879277198633 -0.8238941139573158
		outer loop
			vertex 0.1993719 4.04283 -1.7368348
			vertex 0.103386 4.0490379 -1.699963
			vertex 0.105764 4.0998082 -1.6705908
		endloop
	endfacet
	facet normal -0.9861464694264043 0.14931280203007719 -0.07225529729898714
		outer loop
			vertex 0.2087319 3.9988327 -1.944355
			vertex 0.205249 3.9571257 -1.983006
			vertex 0.2043927 4.0833149 -1.710554
		endloop
	endfacet
	facet normal -0.9805829841108378 0.17675158269685984 -0.08494639066163837
		outer loop
			vertex 0.205249 3.9571257 -1.983006
			vertex 0.1993719 4.04283 -1.7368348
			vertex 0.2043927 4.0833149 -1.710554
		endloop
	endfacet
	facet normal 0.8686571027512892 -0.21438085836463325 0.44662700926676985
		outer loop
			vertex 0.045788 3.5439761 -2.2693119
			vertex 0.011234 3.9859619 -1.9899538
			vertex -0.024904 3.707942 -2.0531175
		endloop
	endfacet
	facet normal 0.9908432470249768 -0.007734694177261214 0.13479552785973706
		outer loop
			vertex 0.011234 3.9859619 -1.9899538
			vertex 0.045788 3.5439761 -2.2693119
			vertex 0.0488039 3.599148 -2.2883151
		endloop
	endfacet
	facet normal -0.12212416233789886 -0.6386120218948858 0.75977652929305
		outer loop
			vertex 0.205249 3.9571257 -1.983006
			vertex 0.011234 3.9859619 -1.9899538
			vertex 0.171745 3.6038156 -2.2853577
		endloop
	endfacet
	facet normal 0.004126204843342713 -0.6104981936892601 0.7920069001818997
		outer loop
			vertex 0.011234 3.9859619 -1.9899538
			vertex 0.0488039 3.599148 -2.2883151
			vertex 0.171745 3.6038156 -2.2853577
		endloop
	endfacet
	facet normal -0.9245937510030936 -0.1932636855421512 0.32829185712821746
		outer loop
			vertex 0.1881518 3.5305312 -2.2822921
			vertex 0.205249 3.9571257 -1.983006
			vertex 0.171745 3.6038156 -2.2853577
		endloop
	endfacet
	facet normal -0.960587157165853 -0.13282087264774028 0.2441944497262737
		outer loop
			vertex 0.205249 3.9571257 -1.983006
			vertex 0.1881518 3.5305312 -2.2822921
			vertex 0.22332 3.684798 -2.0600431
		endloop
	endfacet
	facet normal 0.9419133476545414 0.30199788215757195 -0.14695756082133565
		outer loop
			vertex 0.011234 3.9859619 -1.9899538
			vertex 0.0032488 4.0289202 -1.952855
			vertex 0.020036 4.075429 -1.7496831
		endloop
	endfacet
	facet normal 0.995393248477907 0.033366523368369726 -0.08988301287177577
		outer loop
			vertex 0.0032488 4.0289202 -1.952855
			vertex 0.0208928 4.1187525 -1.724112
			vertex 0.020036 4.075429 -1.7496831
		endloop
	endfacet
	facet normal -0.03676535244289146 0.9311268120626398 -0.36283766165851034
		outer loop
			vertex 0.0032488 4.0289202 -1.952855
			vertex -0.319678 4.1756525 -1.5435841
			vertex 0.0208928 4.1187525 -1.724112
		endloop
	endfacet
	facet normal 0.055015125313187856 0.9344320163896493 -0.3518666547610739
		outer loop
			vertex 0.4756998 4.1373348 -1.524677
			vertex 0.2043927 4.0833149 -1.710554
			vertex 0.169851 4.3775449 -0.934585
		endloop
	endfacet
	facet normal 0.5325369347638762 0.3173066504008984 -0.7846788532410297
		outer loop
			vertex 1.686753 2.0082009 -2.0380199
			vertex 1.3301063 2.038923 -2.2676415
			vertex 1.802474 3.3621471 -1.411978
		endloop
	endfacet
	facet normal 0.6156649469910731 0.2610179068804496 -0.7435229151372728
		outer loop
			vertex 1.3301063 2.038923 -2.2676415
			vertex 1.10726 2.512166 -2.286032
			vertex 1.802474 3.3621471 -1.411978
		endloop
	endfacet
	facet normal 0.47978077886790166 0.3316138289909362 -0.8123070064026776
		outer loop
			vertex 2.2839551 2.5057812 -1.4821579
			vertex 1.686753 2.0082009 -2.0380199
			vertex 2.1405699 3.8963411 -0.9991688
		endloop
	endfacet
	facet normal 0.46405250792943803 0.3387814057087167 -0.8184634561362072
		outer loop
			vertex 1.686753 2.0082009 -2.0380199
			vertex 1.802474 3.3621471 -1.411978
			vertex 2.1405699 3.8963411 -0.9991688
		endloop
	endfacet
	facet normal 0.4560605544777076 0.333597043063101 -0.8250586545870794
		outer loop
			vertex 2.59127 2.8498285 -1.173177
			vertex 2.2839551 2.5057812 -1.4821579
			vertex 2.1405699 3.8963411 -0.9991688
		endloop
	endfacet
	facet normal 0.6125136284551858 -0.36418609126767065 0.701566494271098
		outer loop
			vertex 2.5587561 2.6451051 -1.251063
			vertex 2.59127 2.8498285 -1.173177
			vertex 2.2391069 2.6489029 -0.9700168
		endloop
	endfacet
	facet normal 0.8799735868398821 0.3207120493098744 0.3504144230644814
		outer loop
			vertex 2.59127 2.8498285 -1.173177
			vertex 2.1405699 3.8963411 -0.9991688
			vertex 1.78545 4.2772341 -0.4559858
		endloop
	endfacet
	facet normal -0.3626406772473179 0.25625863675678406 -0.8960040459133884
		outer loop
			vertex -0.7261419 2.70769 -2.3169329
			vertex -0.701064 2.4070463 -2.4130673
			vertex -1.1000288 2.1238551 -2.332587
		endloop
	endfacet
	facet normal -0.42990338720704896 0.371837205892378 -0.8227515846123029
		outer loop
			vertex -0.701064 2.4070463 -2.4130673
			vertex -1.0241627 1.8814451 -2.4817841
			vertex -1.1000288 2.1238551 -2.332587
		endloop
	endfacet
	facet normal -0.5094361458922891 0.31495373824529765 -0.8007989485655703
		outer loop
			vertex -1.547722 2.001792 -2.0957899
			vertex -1.1000288 2.1238551 -2.332587
			vertex -1.4575599 1.7262874 -2.2615032
		endloop
	endfacet
	facet normal -0.5183471315281216 0.3246958859173079 -0.7911313626098656
		outer loop
			vertex -1.1000288 2.1238551 -2.332587
			vertex -1.0241627 1.8814451 -2.4817841
			vertex -1.4575599 1.7262874 -2.2615032
		endloop
	endfacet
	facet normal -0.4359531627333835 0.31926461588748417 -0.8414362393817949
		outer loop
			vertex -2.428303 2.856699 -1.3151798
			vertex -1.547722 2.001792 -2.0957899
			vertex -2.056103 2.183815 -1.76333
		endloop
	endfacet
	facet normal -0.4140875769833242 0.3658212685874879 -0.8334904186834547
		outer loop
			vertex -1.547722 2.001792 -2.0957899
			vertex -1.4575599 1.7262874 -2.2615032
			vertex -2.056103 2.183815 -1.76333
		endloop
	endfacet
	facet normal 0.6118568444719621 0.19571805575360024 -0.766371740426827
		outer loop
			vertex 0.836406 3.9833989 -1.794083
			vertex 0.4953278 3.4599771 -2.2000663
			vertex 0.4130949 3.8932352 -2.1550729
		endloop
	endfacet
	facet normal 0.8915485423740334 0.282510357894613 -0.35401849425276394
		outer loop
			vertex 0.836406 3.9833989 -1.794083
			vertex 1.0131609 3.960036 -1.3675931
			vertex 1.10726 2.512166 -2.286032
		endloop
	endfacet
endsolid exported
