solid exported
	facet normal 0.27916224485794283 -0.4097483284344027 0.8684323510735231
		outer loop
			vertex -0.479772 5.0735192 0.887092
			vertex -0.531441 5.1108799 0.921329
			vertex -0.521935 5.0507851 0.889919
		endloop
	endfacet
	facet normal 0.2749598543372042 -0.4108432490846359 0.8692553728246053
		outer loop
			vertex -0.531441 5.1108799 0.921329
			vertex -0.573297 5.0892529 0.924347
			vertex -0.521935 5.0507851 0.889919
		endloop
	endfacet
	facet normal -0.10795721689920033 -0.7391537050708394 0.664828579108502
		outer loop
			vertex -0.521935 5.0507851 0.889919
			vertex -0.573297 5.0892529 0.924347
			vertex -0.573505 5.0387902 0.868209
		endloop
	endfacet
	facet normal -0.11779184881769074 -0.7383046969284633 0.6641018407183346
		outer loop
			vertex -0.573297 5.0892529 0.924347
			vertex -0.623882 5.0784502 0.903365
			vertex -0.573505 5.0387902 0.868209
		endloop
	endfacet
	facet normal -0.40418732931591894 -0.8381209484005564 0.3663139072880213
		outer loop
			vertex -0.573505 5.0387902 0.868209
			vertex -0.623882 5.0784502 0.903365
			vertex -0.614782 5.04211 0.83026
		endloop
	endfacet
	facet normal -0.4204166992378878 -0.832258719810294 0.3613796096927028
		outer loop
			vertex -0.623882 5.0784502 0.903365
			vertex -0.663873 5.0825992 0.866396
			vertex -0.614782 5.04211 0.83026
		endloop
	endfacet
	facet normal -0.6732305706221158 -0.7366458801905086 -0.06413615188153404
		outer loop
			vertex -0.630003 5.0594769 0.790563
			vertex -0.614782 5.04211 0.83026
			vertex -0.677996 5.1001172 0.82756
		endloop
	endfacet
	facet normal -0.6714675675075359 -0.7358227344807191 -0.08772804116603784
		outer loop
			vertex -0.614782 5.04211 0.83026
			vertex -0.663873 5.0825992 0.866396
			vertex -0.677996 5.1001172 0.82756
		endloop
	endfacet
	facet normal -0.7089595870695161 -0.2304406465811102 -0.6665383802193998
		outer loop
			vertex -0.630003 5.0594769 0.790563
			vertex -0.677996 5.1001172 0.82756
			vertex -0.613351 5.08426 0.764283
		endloop
	endfacet
	facet normal -0.7095756295531138 -0.2148562034904397 -0.6710731985156142
		outer loop
			vertex -0.677996 5.1001172 0.82756
			vertex -0.660855 5.1243062 0.801691
			vertex -0.613351 5.08426 0.764283
		endloop
	endfacet
	facet normal -0.29489347280010597 0.4416874124930707 -0.8473193431906706
		outer loop
			vertex -0.613351 5.08426 0.764283
			vertex -0.660855 5.1243062 0.801691
			vertex -0.571188 5.1069889 0.761457
		endloop
	endfacet
	facet normal -0.29249944139780776 0.44813576672859634 -0.8447593807472891
		outer loop
			vertex -0.660855 5.1243062 0.801691
			vertex -0.619 5.1459341 0.798672
			vertex -0.571188 5.1069889 0.761457
		endloop
	endfacet
	facet normal 0.10109189281108737 0.7493961103627705 -0.6543591513695075
		outer loop
			vertex -0.571188 5.1069889 0.761457
			vertex -0.619 5.1459341 0.798672
			vertex -0.519618 5.118989 0.783167
		endloop
	endfacet
	facet normal 0.10510902489147317 0.758057302617361 -0.6436623484676222
		outer loop
			vertex -0.619 5.1459341 0.798672
			vertex -0.568415 5.1567359 0.819654
			vertex -0.519618 5.118989 0.783167
		endloop
	endfacet
	facet normal 0.39285760850889934 0.8491285624806492 -0.3530489821769989
		outer loop
			vertex -0.519618 5.118989 0.783167
			vertex -0.568415 5.1567359 0.819654
			vertex -0.478342 5.1156702 0.821115
		endloop
	endfacet
	facet normal 0.3957632847729922 0.8562517518370574 -0.3319704202209315
		outer loop
			vertex -0.568415 5.1567359 0.819654
			vertex -0.528424 5.152586 0.856626
			vertex -0.478342 5.1156702 0.821115
		endloop
	endfacet
	facet normal 0.6328902902981911 0.7685610556162085 0.09361508551708331
		outer loop
			vertex -0.478342 5.1156702 0.821115
			vertex -0.528424 5.152586 0.856626
			vertex -0.463121 5.0983009 0.860811
		endloop
	endfacet
	facet normal 0.6304386686204648 0.7673999509741933 0.11680924771978193
		outer loop
			vertex -0.528424 5.152586 0.856626
			vertex -0.514301 5.1350722 0.895462
			vertex -0.463121 5.0983009 0.860811
		endloop
	endfacet
	facet normal 0.668322238443279 0.28126180764205194 0.6886488082935237
		outer loop
			vertex -0.463121 5.0983009 0.860811
			vertex -0.514301 5.1350722 0.895462
			vertex -0.479772 5.0735192 0.887092
		endloop
	endfacet
	facet normal 0.6616914204504417 0.27641121373287 0.6969657846874542
		outer loop
			vertex -0.514301 5.1350722 0.895462
			vertex -0.531441 5.1108799 0.921329
			vertex -0.479772 5.0735192 0.887092
		endloop
	endfacet
	facet normal -0.37180735048364416 0.788049620346345 0.4906496611619273
		outer loop
			vertex -0.573297 5.0892529 0.924347
			vertex -0.531441 5.1108799 0.921329
			vertex -0.623882 5.0784502 0.903365
		endloop
	endfacet
	facet normal -0.3572998156794152 0.9151827681852753 0.18648684278573796
		outer loop
			vertex -0.531441 5.1108799 0.921329
			vertex -0.587777 5.1028218 0.852937
			vertex -0.623882 5.0784502 0.903365
		endloop
	endfacet
	facet normal -0.3718442132510464 0.7880142757507005 0.4906784917691108
		outer loop
			vertex -0.663873 5.0825992 0.866396
			vertex -0.623882 5.0784502 0.903365
			vertex -0.677996 5.1001172 0.82756
		endloop
	endfacet
	facet normal -0.1278523695249902 0.9257481921052984 0.35587084232993477
		outer loop
			vertex -0.623882 5.0784502 0.903365
			vertex -0.587777 5.1028218 0.852937
			vertex -0.677996 5.1001172 0.82756
		endloop
	endfacet
	facet normal -0.37185798614027793 0.7881029895551035 0.49052555081056254
		outer loop
			vertex -0.660855 5.1243062 0.801691
			vertex -0.677996 5.1001172 0.82756
			vertex -0.619 5.1459341 0.798672
		endloop
	endfacet
	facet normal -0.21226965708797163 0.7019717404646083 0.6798362069416748
		outer loop
			vertex -0.677996 5.1001172 0.82756
			vertex -0.587777 5.1028218 0.852937
			vertex -0.619 5.1459341 0.798672
		endloop
	endfacet
	facet normal -0.3717816557625948 0.7880932464391102 0.4905990576381978
		outer loop
			vertex -0.568415 5.1567359 0.819654
			vertex -0.619 5.1459341 0.798672
			vertex -0.528424 5.152586 0.856626
		endloop
	endfacet
	facet normal -0.4851813888167325 0.5269403613471548 0.6978057577357731
		outer loop
			vertex -0.619 5.1459341 0.798672
			vertex -0.587777 5.1028218 0.852937
			vertex -0.528424 5.152586 0.856626
		endloop
	endfacet
	facet normal -0.37186850577843755 0.7880424596334616 0.4906148145184328
		outer loop
			vertex -0.514301 5.1350722 0.895462
			vertex -0.528424 5.152586 0.856626
			vertex -0.531441 5.1108799 0.921329
		endloop
	endfacet
	facet normal -0.5999484288022061 0.6848971224389775 0.4134946365463191
		outer loop
			vertex -0.528424 5.152586 0.856626
			vertex -0.587777 5.1028218 0.852937
			vertex -0.531441 5.1108799 0.921329
		endloop
	endfacet
	facet normal -0.2954363913363267 -0.9493422666329172 0.10708220887917988
		outer loop
			vertex -0.481982 4.9945998 0.728946
			vertex -0.573505 5.0387902 0.868209
			vertex -0.533059 5.0073409 0.700983
		endloop
	endfacet
	facet normal -0.20110686479934584 -0.970380952289067 0.1338537872648417
		outer loop
			vertex -0.573505 5.0387902 0.868209
			vertex -0.614782 5.04211 0.83026
			vertex -0.533059 5.0073409 0.700983
		endloop
	endfacet
	facet normal 0.040209917716013475 -0.9402313238596938 0.3381541366748588
		outer loop
			vertex -0.424164 5.002583 0.744268
			vertex -0.521935 5.0507851 0.889919
			vertex -0.481982 4.9945998 0.728946
		endloop
	endfacet
	facet normal 0.07258337081769016 -0.935909645134343 0.3446807079388834
		outer loop
			vertex -0.521935 5.0507851 0.889919
			vertex -0.573505 5.0387902 0.868209
			vertex -0.481982 4.9945998 0.728946
		endloop
	endfacet
	facet normal 0.46639708231756055 -0.7063917348409345 0.5324326047060619
		outer loop
			vertex -0.381688 5.0282378 0.741097
			vertex -0.479772 5.0735192 0.887092
			vertex -0.424164 5.002583 0.744268
		endloop
	endfacet
	facet normal 0.4296466860277396 -0.7308872170437866 0.5302901103616492
		outer loop
			vertex -0.479772 5.0735192 0.887092
			vertex -0.521935 5.0507851 0.889919
			vertex -0.424164 5.002583 0.744268
		endloop
	endfacet
	facet normal 0.840349485203549 0.055402153225415286 0.5392062167075949
		outer loop
			vertex -0.370775 5.0617681 0.720644
			vertex -0.463121 5.0983009 0.860811
			vertex -0.381688 5.0282378 0.741097
		endloop
	endfacet
	facet normal 0.8334328418174842 0.02544353501022608 0.5520347133163056
		outer loop
			vertex -0.463121 5.0983009 0.860811
			vertex -0.479772 5.0735192 0.887092
			vertex -0.381688 5.0282378 0.741097
		endloop
	endfacet
	facet normal 0.6006522140846604 0.7648928177663363 0.2327141917560455
		outer loop
			vertex -0.395598 5.090364 0.690724
			vertex -0.478342 5.1156702 0.821115
			vertex -0.370775 5.0617681 0.720644
		endloop
	endfacet
	facet normal 0.5503800971227317 0.8216083005174808 0.14846396603873172
		outer loop
			vertex -0.478342 5.1156702 0.821115
			vertex -0.463121 5.0983009 0.860811
			vertex -0.370775 5.0617681 0.720644
		endloop
	endfacet
	facet normal 0.23478968027418426 0.971944983743358 0.014026924569202707
		outer loop
			vertex -0.446671 5.1031051 0.662761
			vertex -0.519618 5.118989 0.783167
			vertex -0.395598 5.090364 0.690724
		endloop
	endfacet
	facet normal 0.16068802693585454 0.9830015707210317 -0.0888103032279865
		outer loop
			vertex -0.519618 5.118989 0.783167
			vertex -0.478342 5.1156702 0.821115
			vertex -0.395598 5.090364 0.690724
		endloop
	endfacet
	facet normal -0.09403910256578601 0.9830590510794234 -0.15732625108177417
		outer loop
			vertex -0.50449 5.0951219 0.647438
			vertex -0.571188 5.1069889 0.761457
			vertex -0.446671 5.1031051 0.662761
		endloop
	endfacet
	facet normal -0.1366409016448857 0.9680015412198749 -0.21048106849220352
		outer loop
			vertex -0.571188 5.1069889 0.761457
			vertex -0.519618 5.118989 0.783167
			vertex -0.446671 5.1031051 0.662761
		endloop
	endfacet
	facet normal -0.4970167648215531 0.7746337927230211 -0.39104580634225516
		outer loop
			vertex -0.546969 5.069468 0.65061
			vertex -0.613351 5.08426 0.764283
			vertex -0.50449 5.0951219 0.647438
		endloop
	endfacet
	facet normal -0.4619564215401209 0.812829379597017 -0.35483047256651257
		outer loop
			vertex -0.613351 5.08426 0.764283
			vertex -0.571188 5.1069889 0.761457
			vertex -0.50449 5.0951219 0.647438
		endloop
	endfacet
	facet normal -0.8585339320047497 -0.03278204729414439 -0.5117077534801172
		outer loop
			vertex -0.557878 5.0359378 0.671061
			vertex -0.630003 5.0594769 0.790563
			vertex -0.546969 5.069468 0.65061
		endloop
	endfacet
	facet normal -0.8605876594937234 0.03982655836428108 -0.5077427750110995
		outer loop
			vertex -0.630003 5.0594769 0.790563
			vertex -0.613351 5.08426 0.764283
			vertex -0.546969 5.069468 0.65061
		endloop
	endfacet
	facet normal -0.6115161579454794 -0.76022464626952 -0.21933188499619244
		outer loop
			vertex -0.557878 5.0359378 0.671061
			vertex -0.533059 5.0073409 0.700983
			vertex -0.630003 5.0594769 0.790563
		endloop
	endfacet
	facet normal -0.5655037171862781 -0.8129762044991955 -0.13883528646055526
		outer loop
			vertex -0.533059 5.0073409 0.700983
			vertex -0.614782 5.04211 0.83026
			vertex -0.630003 5.0594769 0.790563
		endloop
	endfacet
	facet normal -0.2396276933543785 -0.9703037407269965 0.03300332269419861
		outer loop
			vertex -0.430655 4.979568 0.659679
			vertex -0.481982 4.9945998 0.728946
			vertex -0.483606 4.9916549 0.630574
		endloop
	endfacet
	facet normal -0.25895887435294523 -0.9653185168954505 0.03317321709789229
		outer loop
			vertex -0.481982 4.9945998 0.728946
			vertex -0.533059 5.0073409 0.700983
			vertex -0.483606 4.9916549 0.630574
		endloop
	endfacet
	facet normal 0.07813132949803828 -0.963475041217268 0.2561471067614324
		outer loop
			vertex -0.371381 4.98873 0.676061
			vertex -0.424164 5.002583 0.744268
			vertex -0.430655 4.979568 0.659679
		endloop
	endfacet
	facet normal 0.06492663276854754 -0.9641371220284185 0.2573405181546366
		outer loop
			vertex -0.424164 5.002583 0.744268
			vertex -0.481982 4.9945998 0.728946
			vertex -0.430655 4.979568 0.659679
		endloop
	endfacet
	facet normal 0.4785845774483633 -0.7147247619130989 0.51002481992236
		outer loop
			vertex -0.328421 5.0156431 0.673464
			vertex -0.381688 5.0282378 0.741097
			vertex -0.371381 4.98873 0.676061
		endloop
	endfacet
	facet normal 0.47199678040174264 -0.7182937406588296 0.5111488446829705
		outer loop
			vertex -0.381688 5.0282378 0.741097
			vertex -0.424164 5.002583 0.744268
			vertex -0.371381 4.98873 0.676061
		endloop
	endfacet
	facet normal 0.7942373359788475 0.12005000739260056 0.5956299605142944
		outer loop
			vertex -0.318182 5.0500259 0.652881
			vertex -0.370775 5.0617681 0.720644
			vertex -0.328421 5.0156431 0.673464
		endloop
	endfacet
	facet normal 0.7906896570354773 0.11002070481081949 0.6022502061187275
		outer loop
			vertex -0.370775 5.0617681 0.720644
			vertex -0.381688 5.0282378 0.741097
			vertex -0.328421 5.0156431 0.673464
		endloop
	endfacet
	facet normal 0.5458823253027096 0.7924897427045483 0.27197884960082025
		outer loop
			vertex -0.34458 5.0787482 0.622173
			vertex -0.395598 5.090364 0.690724
			vertex -0.318182 5.0500259 0.652881
		endloop
	endfacet
	facet normal 0.5501990713806421 0.7825285260946092 0.2914276714728338
		outer loop
			vertex -0.395598 5.090364 0.690724
			vertex -0.370775 5.0617681 0.720644
			vertex -0.318182 5.0500259 0.652881
		endloop
	endfacet
	facet normal 0.22807414855341349 0.9735863328296892 -0.010575220511797316
		outer loop
			vertex -0.397529 5.090836 0.593069
			vertex -0.446671 5.1031051 0.662761
			vertex -0.34458 5.0787482 0.622173
		endloop
	endfacet
	facet normal 0.2362609630897685 0.9716251603431534 0.011193976417549309
		outer loop
			vertex -0.446671 5.1031051 0.662761
			vertex -0.395598 5.090364 0.690724
			vertex -0.34458 5.0787482 0.622173
		endloop
	endfacet
	facet normal -0.08318886100968984 0.967225515890459 -0.23990501206591366
		outer loop
			vertex -0.456804 5.0816741 0.576685
			vertex -0.50449 5.0951219 0.647438
			vertex -0.397529 5.090836 0.593069
		endloop
	endfacet
	facet normal -0.07484701709244722 0.9717453280420306 -0.22385026571538733
		outer loop
			vertex -0.50449 5.0951219 0.647438
			vertex -0.446671 5.1031051 0.662761
			vertex -0.397529 5.090836 0.593069
		endloop
	endfacet
	facet normal -0.48787821137736503 0.7329877631298565 -0.47402931340278154
		outer loop
			vertex -0.499763 5.05476 0.579282
			vertex -0.546969 5.069468 0.65061
			vertex -0.456804 5.0816741 0.576685
		endloop
	endfacet
	facet normal -0.4825963469351205 0.741464793839479 -0.46618743593264694
		outer loop
			vertex -0.546969 5.069468 0.65061
			vertex -0.50449 5.0951219 0.647438
			vertex -0.456804 5.0816741 0.576685
		endloop
	endfacet
	facet normal -0.8350789912978768 -0.07742231645360963 -0.5446548110573135
		outer loop
			vertex -0.51 5.0203781 0.599865
			vertex -0.557878 5.0359378 0.671061
			vertex -0.499763 5.05476 0.579282
		endloop
	endfacet
	facet normal -0.837984610238484 -0.05829237153411786 -0.5425714629653724
		outer loop
			vertex -0.557878 5.0359378 0.671061
			vertex -0.546969 5.069468 0.65061
			vertex -0.499763 5.05476 0.579282
		endloop
	endfacet
	facet normal -0.5863246690458862 -0.7784426867378483 -0.22416593392527878
		outer loop
			vertex -0.51 5.0203781 0.599865
			vertex -0.483606 4.9916549 0.630574
			vertex -0.557878 5.0359378 0.671061
		endloop
	endfacet
	facet normal -0.5913226008181394 -0.7686068069521736 -0.24409251948483715
		outer loop
			vertex -0.483606 4.9916549 0.630574
			vertex -0.533059 5.0073409 0.700983
			vertex -0.557878 5.0359378 0.671061
		endloop
	endfacet
	facet normal -0.25633604109115765 -0.9621378084342206 -0.09264270947628611
		outer loop
			vertex -0.212881 4.9520721 0.342671
			vertex -0.430655 4.979568 0.659679
			vertex -0.270216 4.9707508 0.307326
		endloop
	endfacet
	facet normal -0.18968131821808684 -0.9798958194938096 -0.0618480432803201
		outer loop
			vertex -0.430655 4.979568 0.659679
			vertex -0.483606 4.9916549 0.630574
			vertex -0.270216 4.9707508 0.307326
		endloop
	endfacet
	facet normal 0.046708322521136554 -0.990269384294549 0.13109111005768612
		outer loop
			vertex -0.148032 4.9588981 0.371129
			vertex -0.371381 4.98873 0.676061
			vertex -0.212881 4.9520721 0.342671
		endloop
	endfacet
	facet normal 0.10771414374689388 -0.9813663517220654 0.1591155144685673
		outer loop
			vertex -0.371381 4.98873 0.676061
			vertex -0.430655 4.979568 0.659679
			vertex -0.212881 4.9520721 0.342671
		endloop
	endfacet
	facet normal 0.41813791286762597 -0.814421422206144 0.40234118963191856
		outer loop
			vertex -0.100437 4.9886212 0.381831
			vertex -0.328421 5.0156431 0.673464
			vertex -0.148032 4.9588981 0.371129
		endloop
	endfacet
	facet normal 0.496354159619538 -0.7501413786252211 0.43694445905931256
		outer loop
			vertex -0.328421 5.0156431 0.673464
			vertex -0.371381 4.98873 0.676061
			vertex -0.148032 4.9588981 0.371129
		endloop
	endfacet
	facet normal 0.7720541829749838 -0.056561722708338126 0.6330348411225842
		outer loop
			vertex -0.088278 5.0298882 0.370689
			vertex -0.318182 5.0500259 0.652881
			vertex -0.100437 4.9886212 0.381831
		endloop
	endfacet
	facet normal 0.7871339115461061 0.1269252729961114 0.6035811298980357
		outer loop
			vertex -0.318182 5.0500259 0.652881
			vertex -0.328421 5.0156431 0.673464
			vertex -0.100437 4.9886212 0.381831
		endloop
	endfacet
	facet normal 0.5442992171055736 0.7302721945260358 0.41284486694203604
		outer loop
			vertex -0.116196 5.0669379 0.34196
			vertex -0.34458 5.0787482 0.622173
			vertex -0.088278 5.0298882 0.370689
		endloop
	endfacet
	facet normal 0.48503013922639554 0.8067087223013295 0.337589693866652
		outer loop
			vertex -0.34458 5.0787482 0.622173
			vertex -0.318182 5.0500259 0.652881
			vertex -0.088278 5.0298882 0.370689
		endloop
	endfacet
	facet normal 0.21911602551972398 0.9635019498601489 0.15379258752011063
		outer loop
			vertex -0.173528 5.085618 0.306614
			vertex -0.397529 5.090836 0.593069
			vertex -0.116196 5.0669379 0.34196
		endloop
	endfacet
	facet normal 0.17028438897799256 0.9805635266931079 0.0974597198311521
		outer loop
			vertex -0.397529 5.090836 0.593069
			vertex -0.34458 5.0787482 0.622173
			vertex -0.116196 5.0669379 0.34196
		endloop
	endfacet
	facet normal -0.07606091858892496 0.9949659029687818 -0.06525019994548617
		outer loop
			vertex -0.238379 5.078794 0.278154
			vertex -0.456804 5.0816741 0.576685
			vertex -0.173528 5.085618 0.306614
		endloop
	endfacet
	facet normal -0.1212574470716692 0.9861928012529935 -0.11278470767987736
		outer loop
			vertex -0.456804 5.0816741 0.576685
			vertex -0.397529 5.090836 0.593069
			vertex -0.173528 5.085618 0.306614
		endloop
	endfacet
	facet normal -0.4481764613682795 0.8337533024402978 -0.3224799065760606
		outer loop
			vertex -0.285974 5.0490708 0.267453
			vertex -0.499763 5.05476 0.579282
			vertex -0.238379 5.078794 0.278154
		endloop
	endfacet
	facet normal -0.5076697519858365 0.7737563822825796 -0.378909598447458
		outer loop
			vertex -0.499763 5.05476 0.579282
			vertex -0.456804 5.0816741 0.576685
			vertex -0.238379 5.078794 0.278154
		endloop
	endfacet
	facet normal -0.8292584143821742 0.09570014938320164 -0.5506105371171125
		outer loop
			vertex -0.298134 5.007802 0.278594
			vertex -0.51 5.0203781 0.599865
			vertex -0.285974 5.0490708 0.267453
		endloop
	endfacet
	facet normal -0.8220822860500974 -0.0916429683308063 -0.5619450874579871
		outer loop
			vertex -0.51 5.0203781 0.599865
			vertex -0.499763 5.05476 0.579282
			vertex -0.285974 5.0490708 0.267453
		endloop
	endfacet
	facet normal -0.5891657631009938 -0.7232740024576075 -0.3602199619101871
		outer loop
			vertex -0.298134 5.007802 0.278594
			vertex -0.270216 4.9707508 0.307326
			vertex -0.51 5.0203781 0.599865
		endloop
	endfacet
	facet normal -0.5252287279989258 -0.7981506560438265 -0.29511068015481906
		outer loop
			vertex -0.270216 4.9707508 0.307326
			vertex -0.483606 4.9916549 0.630574
			vertex -0.51 5.0203781 0.599865
		endloop
	endfacet
	facet normal -0.3063304571367606 -0.9501803502647961 0.05761035498113787
		outer loop
			vertex -0.168486 4.9300461 0.215452
			vertex -0.212881 4.9520721 0.342671
			vertex -0.237433 4.9509158 0.19305
		endloop
	endfacet
	facet normal -0.34444571752301195 -0.9366385552969075 0.06376021025200143
		outer loop
			vertex -0.212881 4.9520721 0.342671
			vertex -0.270216 4.9707508 0.307326
			vertex -0.237433 4.9509158 0.19305
		endloop
	endfacet
	facet normal 0.044014668512472224 -0.983323451793513 0.17645877169647406
		outer loop
			vertex -0.096298 4.9370379 0.236408
			vertex -0.148032 4.9588981 0.371129
			vertex -0.168486 4.9300461 0.215452
		endloop
	endfacet
	facet normal 0.024975532799301876 -0.9835322028254131 0.1789989630326995
		outer loop
			vertex -0.148032 4.9588981 0.371129
			vertex -0.212881 4.9520721 0.342671
			vertex -0.168486 4.9300461 0.215452
		endloop
	endfacet
	facet normal 0.4798614209771879 -0.8224744607397645 0.3053993747350968
		outer loop
			vertex -0.048445 4.9692302 0.247916
			vertex -0.100437 4.9886212 0.381831
			vertex -0.096298 4.9370379 0.236408
		endloop
	endfacet
	facet normal 0.45264390920578146 -0.836251230881636 0.3095115027068575
		outer loop
			vertex -0.100437 4.9886212 0.381831
			vertex -0.148032 4.9588981 0.371129
			vertex -0.096298 4.9370379 0.236408
		endloop
	endfacet
	facet normal 0.9332750625865442 -0.09058591243567934 0.3475512192789397
		outer loop
			vertex -0.043198 5.014318 0.245578
			vertex -0.088278 5.0298882 0.370689
			vertex -0.048445 4.9692302 0.247916
		endloop
	endfacet
	facet normal 0.9108449364978924 -0.16638835025405788 0.37772532157095784
		outer loop
			vertex -0.088278 5.0298882 0.370689
			vertex -0.100437 4.9886212 0.381831
			vertex -0.048445 4.9692302 0.247916
		endloop
	endfacet
	facet normal 0.7141088828508044 0.6790475457402586 0.1701262297757392
		outer loop
			vertex -0.069486 5.041225 0.248525
			vertex -0.116196 5.0669379 0.34196
			vertex -0.043198 5.014318 0.245578
		endloop
	endfacet
	facet normal 0.7167597518119262 0.6752023693911021 0.17423323032977356
		outer loop
			vertex -0.116196 5.0669379 0.34196
			vertex -0.088278 5.0298882 0.370689
			vertex -0.043198 5.014318 0.245578
		endloop
	endfacet
	facet normal 0.44325762177282696 0.8890549644841224 0.11447248956161231
		outer loop
			vertex -0.130596 5.0745492 0.22634
			vertex -0.173528 5.085618 0.306614
			vertex -0.069486 5.041225 0.248525
		endloop
	endfacet
	facet normal 0.35306108613504267 0.9321713941247391 -0.0800272543117933
		outer loop
			vertex -0.173528 5.085618 0.306614
			vertex -0.116196 5.0669379 0.34196
			vertex -0.069486 5.041225 0.248525
		endloop
	endfacet
	facet normal -0.01339432840196757 0.9939198290075664 -0.10928845077239678
		outer loop
			vertex -0.2237 5.0689611 0.18693
			vertex -0.238379 5.078794 0.278154
			vertex -0.130596 5.0745492 0.22634
		endloop
	endfacet
	facet normal -0.035751373993405625 0.9872285190903314 -0.15524719112529925
		outer loop
			vertex -0.238379 5.078794 0.278154
			vertex -0.173528 5.085618 0.306614
			vertex -0.130596 5.0745492 0.22634
		endloop
	endfacet
	facet normal -0.5154515493130737 0.8350479501891108 -0.192365852467938
		outer loop
			vertex -0.271556 5.0367699 0.175422
			vertex -0.285974 5.0490708 0.267453
			vertex -0.2237 5.0689611 0.18693
		endloop
	endfacet
	facet normal -0.4938566873250425 0.8524920239235905 -0.17135612487155458
		outer loop
			vertex -0.285974 5.0490708 0.267453
			vertex -0.238379 5.078794 0.278154
			vertex -0.2237 5.0689611 0.18693
		endloop
	endfacet
	facet normal -0.9699027248243124 0.10134187490419581 -0.22140128447973537
		outer loop
			vertex -0.276801 4.9916821 0.177761
			vertex -0.298134 5.007802 0.278594
			vertex -0.271556 5.0367699 0.175422
		endloop
	endfacet
	facet normal -0.9555796536922299 0.2327517746096158 -0.18081520086959713
		outer loop
			vertex -0.298134 5.007802 0.278594
			vertex -0.285974 5.0490708 0.267453
			vertex -0.271556 5.0367699 0.175422
		endloop
	endfacet
	facet normal -0.7115727715630966 -0.7015628913289095 -0.03838880410007539
		outer loop
			vertex -0.276801 4.9916821 0.177761
			vertex -0.237433 4.9509158 0.19305
			vertex -0.298134 5.007802 0.278594
		endloop
	endfacet
	facet normal -0.7540272598411929 -0.6486001667548583 -0.10373386670684046
		outer loop
			vertex -0.237433 4.9509158 0.19305
			vertex -0.270216 4.9707508 0.307326
			vertex -0.298134 5.007802 0.278594
		endloop
	endfacet
	facet normal -0.3101986220429591 -0.9500801542819302 0.03353379373517536
		outer loop
			vertex -0.111364 4.907784 0.113119
			vertex -0.168486 4.9300461 0.215452
			vertex -0.18334 4.9306412 0.094908
		endloop
	endfacet
	facet normal -0.2991159043441592 -0.9536750121021141 0.0321503819636499
		outer loop
			vertex -0.168486 4.9300461 0.215452
			vertex -0.237433 4.9509158 0.19305
			vertex -0.18334 4.9306412 0.094908
		endloop
	endfacet
	facet normal 0.01742192192630041 -0.9733133296183946 0.22881791674505858
		outer loop
			vertex -0.035448 4.9131761 0.130275
			vertex -0.096298 4.9370379 0.236408
			vertex -0.111364 4.907784 0.113119
		endloop
	endfacet
	facet normal 0.028230312542877455 -0.9733665117891888 0.22750974304648736
		outer loop
			vertex -0.096298 4.9370379 0.236408
			vertex -0.168486 4.9300461 0.215452
			vertex -0.111364 4.907784 0.113119
		endloop
	endfacet
	facet normal 0.4174625733079244 -0.8015589582982601 0.4280516747531006
		outer loop
			vertex 0.015403 4.9447551 0.139816
			vertex -0.048445 4.9692302 0.247916
			vertex -0.035448 4.9131761 0.130275
		endloop
	endfacet
	facet normal 0.432066164802658 -0.7946781664942051 0.4263864924339549
		outer loop
			vertex -0.048445 4.9692302 0.247916
			vertex -0.096298 4.9370379 0.236408
			vertex -0.035448 4.9131761 0.130275
		endloop
	endfacet
	facet normal 0.8419904587747608 -0.09743700560804743 0.5306204832744447
		outer loop
			vertex 0.021772 4.990458 0.138102
			vertex -0.043198 5.014318 0.245578
			vertex 0.015403 4.9447551 0.139816
		endloop
	endfacet
	facet normal 0.8515430544581886 -0.07216891151371031 0.5192938230086553
		outer loop
			vertex -0.043198 5.014318 0.245578
			vertex -0.048445 4.9692302 0.247916
			vertex 0.015403 4.9447551 0.139816
		endloop
	endfacet
	facet normal 0.6694612912601493 0.7069047771201921 0.2282700496976013
		outer loop
			vertex -0.018773 5.0328321 0.125787
			vertex -0.069486 5.041225 0.248525
			vertex 0.021772 4.990458 0.138102
		endloop
	endfacet
	facet normal 0.7019980244603867 0.6553036322497516 0.2788833505500043
		outer loop
			vertex -0.069486 5.041225 0.248525
			vertex -0.043198 5.014318 0.245578
			vertex 0.021772 4.990458 0.138102
		endloop
	endfacet
	facet normal 0.3128089272774349 0.9487145268733741 -0.0457309688829201
		outer loop
			vertex -0.090752 5.055687 0.107574
			vertex -0.130596 5.0745492 0.22634
			vertex -0.018773 5.0328321 0.125787
		endloop
	endfacet
	facet normal 0.4408989753044881 0.8893143666356204 0.12135918123874251
		outer loop
			vertex -0.130596 5.0745492 0.22634
			vertex -0.069486 5.041225 0.248525
			vertex -0.018773 5.0328321 0.125787
		endloop
	endfacet
	facet normal -0.023560712151198458 0.9788521949642212 -0.2032074635850141
		outer loop
			vertex -0.166667 5.0502982 0.090418
			vertex -0.2237 5.0689611 0.18693
			vertex -0.090752 5.055687 0.107574
		endloop
	endfacet
	facet normal 0.006233909675425199 0.9879247441534967 -0.1548090380417333
		outer loop
			vertex -0.2237 5.0689611 0.18693
			vertex -0.130596 5.0745492 0.22634
			vertex -0.090752 5.055687 0.107574
		endloop
	endfacet
	facet normal -0.42834062056717076 0.8104813432889337 -0.39955513380846025
		outer loop
			vertex -0.217521 5.0187192 0.080879
			vertex -0.271556 5.0367699 0.175422
			vertex -0.166667 5.0502982 0.090418
		endloop
	endfacet
	facet normal -0.437801014670335 0.7985321711582744 -0.4131302980645186
		outer loop
			vertex -0.271556 5.0367699 0.175422
			vertex -0.2237 5.0689611 0.18693
			vertex -0.166667 5.0502982 0.090418
		endloop
	endfacet
	facet normal -0.8609372699670598 0.10124340898394774 -0.4985346420450393
		outer loop
			vertex -0.223889 4.9730129 0.082594
			vertex -0.276801 4.9916821 0.177761
			vertex -0.217521 5.0187192 0.080879
		endloop
	endfacet
	facet normal -0.8597008218432974 0.07378727417205808 -0.5054403378166572
		outer loop
			vertex -0.276801 4.9916821 0.177761
			vertex -0.271556 5.0367699 0.175422
			vertex -0.217521 5.0187192 0.080879
		endloop
	endfacet
	facet normal -0.667968923984295 -0.7068666942501524 -0.23271655108978576
		outer loop
			vertex -0.223889 4.9730129 0.082594
			vertex -0.18334 4.9306412 0.094908
			vertex -0.276801 4.9916821 0.177761
		endloop
	endfacet
	facet normal -0.6607458876657823 -0.7189622583878186 -0.21565746670738103
		outer loop
			vertex -0.18334 4.9306412 0.094908
			vertex -0.237433 4.9509158 0.19305
			vertex -0.276801 4.9916821 0.177761
		endloop
	endfacet
	facet normal -0.43979666740700113 -0.897165319635459 -0.04090575242066465
		outer loop
			vertex -0.064232 4.8978782 -0.17636
			vertex -0.111364 4.907784 0.113119
			vertex -0.137508 4.933187 -0.162946
		endloop
	endfacet
	facet normal -0.28814207617917437 -0.9556650148011773 -0.060650831982923675
		outer loop
			vertex -0.111364 4.907784 0.113119
			vertex -0.18334 4.9306412 0.094908
			vertex -0.137508 4.933187 -0.162946
		endloop
	endfacet
	facet normal -0.09485948546318372 -0.9937712880978183 0.058483373449750006
		outer loop
			vertex 0.017377 4.8897409 -0.182263
			vertex -0.035448 4.9131761 0.130275
			vertex -0.064232 4.8978782 -0.17636
		endloop
	endfacet
	facet normal 0.06087529636595106 -0.9971735994109633 0.044034201822465265
		outer loop
			vertex -0.035448 4.9131761 0.130275
			vertex -0.111364 4.907784 0.113119
			vertex -0.064232 4.8978782 -0.17636
		endloop
	endfacet
	facet normal 0.33875325126952394 -0.9270962361126239 0.16043317531026108
		outer loop
			vertex 0.076145 4.9118829 -0.178399
			vertex 0.015403 4.9447551 0.139816
			vertex 0.017377 4.8897409 -0.182263
		endloop
	endfacet
	facet normal 0.5014180256354389 -0.8523379379232616 0.14866069804955506
		outer loop
			vertex 0.015403 4.9447551 0.139816
			vertex -0.035448 4.9131761 0.130275
			vertex 0.017377 4.8897409 -0.182263
		endloop
	endfacet
	facet normal 0.9070550087301827 -0.3448951210907529 0.24145096103615563
		outer loop
			vertex 0.089628 4.9558511 -0.166245
			vertex 0.021772 4.990458 0.138102
			vertex 0.076145 4.9118829 -0.178399
		endloop
	endfacet
	facet normal 0.9716724897214943 -0.12795730084097062 0.19869449383394103
		outer loop
			vertex 0.021772 4.990458 0.138102
			vertex 0.015403 4.9447551 0.139816
			vertex 0.076145 4.9118829 -0.178399
		endloop
	endfacet
	facet normal 0.8120587326558447 0.5631678713619853 0.15297896385775966
		outer loop
			vertex 0.052673 5.0048461 -0.150444
			vertex -0.018773 5.0328321 0.125787
			vertex 0.089628 4.9558511 -0.166245
		endloop
	endfacet
	facet normal 0.7088397662878931 0.7010068982856684 0.07832952371125389
		outer loop
			vertex -0.018773 5.0328321 0.125787
			vertex 0.021772 4.990458 0.138102
			vertex 0.089628 4.9558511 -0.166245
		endloop
	endfacet
	facet normal 0.43725403327051093 0.8990687685266436 0.022005904858824726
		outer loop
			vertex 0.052673 5.0048461 -0.150444
			vertex -0.020603 5.0401549 -0.13703
			vertex -0.018773 5.0328321 0.125787
		endloop
	endfacet
	facet normal 0.2968975009728204 0.9545942270083068 0.024530301231488166
		outer loop
			vertex -0.020603 5.0401549 -0.13703
			vertex -0.090752 5.055687 0.107574
			vertex -0.018773 5.0328321 0.125787
		endloop
	endfacet
	facet normal 0.10068458079716992 0.9947113183130359 0.020297990285748923
		outer loop
			vertex -0.102213 5.048295 -0.131127
			vertex -0.166667 5.0502982 0.090418
			vertex -0.020603 5.0401549 -0.13703
		endloop
	endfacet
	facet normal -0.05294888795047327 0.9955149352857691 -0.07839916382066343
		outer loop
			vertex -0.166667 5.0502982 0.090418
			vertex -0.090752 5.055687 0.107574
			vertex -0.020603 5.0401549 -0.13703
		endloop
	endfacet
	facet normal -0.34858742514980395 0.9354111886302515 -0.05909919807214057
		outer loop
			vertex -0.160982 5.0261502 -0.134991
			vertex -0.217521 5.0187192 0.080879
			vertex -0.102213 5.048295 -0.131127
		endloop
	endfacet
	facet normal -0.5003927273112234 0.8521215657848756 -0.15328390515108783
		outer loop
			vertex -0.217521 5.0187192 0.080879
			vertex -0.166667 5.0502982 0.090418
			vertex -0.102213 5.048295 -0.131127
		endloop
	endfacet
	facet normal -0.9239508916610146 0.3345643150231463 -0.18542240671480067
		outer loop
			vertex -0.174463 4.9821849 -0.147144
			vertex -0.223889 4.9730129 0.082594
			vertex -0.160982 5.0261502 -0.134991
		endloop
	endfacet
	facet normal -0.9608756466744854 0.1245912675958625 -0.24737624717572534
		outer loop
			vertex -0.223889 4.9730129 0.082594
			vertex -0.217521 5.0187192 0.080879
			vertex -0.160982 5.0261502 -0.134991
		endloop
	endfacet
	facet normal -0.8119997814260568 -0.5640808125725385 -0.14989727099430775
		outer loop
			vertex -0.137508 4.933187 -0.162946
			vertex -0.18334 4.9306412 0.094908
			vertex -0.174463 4.9821849 -0.147144
		endloop
	endfacet
	facet normal -0.6852465266222054 -0.7068144701000068 -0.1756431114773641
		outer loop
			vertex -0.18334 4.9306412 0.094908
			vertex -0.223889 4.9730129 0.082594
			vertex -0.174463 4.9821849 -0.147144
		endloop
	endfacet
	facet normal 0.12079762176102013 0.9699600895799652 -0.2111524548730312
		outer loop
			vertex -0.082364 5.027885 -0.213528
			vertex -0.102213 5.048295 -0.131127
			vertex -0.005353 5.0149012 -0.229114
		endloop
	endfacet
	facet normal 0.07801877230259524 0.96467188966147 -0.25163707291526927
		outer loop
			vertex -0.102213 5.048295 -0.131127
			vertex -0.020603 5.0401549 -0.13703
			vertex -0.005353 5.0149012 -0.229114
		endloop
	endfacet
	facet normal -0.2805070121129791 0.9238578064258437 -0.26038926564180315
		outer loop
			vertex -0.138909 5.0103078 -0.214978
			vertex -0.160982 5.0261502 -0.134991
			vertex -0.082364 5.027885 -0.213528
		endloop
	endfacet
	facet normal -0.31910416943013475 0.8991267082851588 -0.29957251459471207
		outer loop
			vertex -0.160982 5.0261502 -0.134991
			vertex -0.102213 5.048295 -0.131127
			vertex -0.082364 5.027885 -0.213528
		endloop
	endfacet
	facet normal -0.8631264894112851 0.42192957752867266 -0.277467286149245
		outer loop
			vertex -0.15339 4.9688902 -0.232913
			vertex -0.174463 4.9821849 -0.147144
			vertex -0.138909 5.0103078 -0.214978
		endloop
	endfacet
	facet normal -0.8801212012286153 0.3565257134909525 -0.31349017012925107
		outer loop
			vertex -0.174463 4.9821849 -0.147144
			vertex -0.160982 5.0261502 -0.134991
			vertex -0.138909 5.0103078 -0.214978
		endloop
	endfacet
	facet normal -0.8475060339221907 -0.5253590689646528 -0.07570581960504645
		outer loop
			vertex -0.120278 4.9194469 -0.260482
			vertex -0.137508 4.933187 -0.162946
			vertex -0.15339 4.9688902 -0.232913
		endloop
	endfacet
	facet normal -0.810259341145915 -0.5756861840805938 -0.1098417841466196
		outer loop
			vertex -0.137508 4.933187 -0.162946
			vertex -0.174463 4.9821849 -0.147144
			vertex -0.15339 4.9688902 -0.232913
		endloop
	endfacet
	facet normal -0.4660445648396885 -0.8806984874466085 0.08469142691348167
		outer loop
			vertex -0.052218 4.8808661 -0.287156
			vertex -0.064232 4.8978782 -0.17636
			vertex -0.120278 4.9194469 -0.260482
		endloop
	endfacet
	facet normal -0.4257563664950705 -0.9033398595919365 0.05204435090704599
		outer loop
			vertex -0.064232 4.8978782 -0.17636
			vertex -0.137508 4.933187 -0.162946
			vertex -0.120278 4.9194469 -0.260482
		endloop
	endfacet
	facet normal -0.13043839222489934 -0.9769122886892138 0.16919871761271107
		outer loop
			vertex 0.024788 4.8678842 -0.302745
			vertex 0.017377 4.8897409 -0.182263
			vertex -0.052218 4.8808661 -0.287156
		endloop
	endfacet
	facet normal -0.08805162617020797 -0.9859654404818237 0.14184167689457738
		outer loop
			vertex 0.017377 4.8897409 -0.182263
			vertex -0.064232 4.8978782 -0.17636
			vertex -0.052218 4.8808661 -0.287156
		endloop
	endfacet
	facet normal 0.28498735604682074 -0.9345693707207049 0.21298426750384308
		outer loop
			vertex 0.081334 4.885458 -0.301294
			vertex 0.076145 4.9118829 -0.178399
			vertex 0.024788 4.8678842 -0.302745
		endloop
	endfacet
	facet normal 0.33542812535915034 -0.923097660421278 0.18809221685866992
		outer loop
			vertex 0.076145 4.9118829 -0.178399
			vertex 0.017377 4.8897409 -0.182263
			vertex 0.024788 4.8678842 -0.302745
		endloop
	endfacet
	facet normal 0.9134943092823798 -0.3810697309595791 0.14252721513837835
		outer loop
			vertex 0.095814 4.926878 -0.283357
			vertex 0.089628 4.9558511 -0.166245
			vertex 0.081334 4.885458 -0.301294
		endloop
	endfacet
	facet normal 0.9416520864260192 -0.3186937558575351 0.10828498560254274
		outer loop
			vertex 0.089628 4.9558511 -0.166245
			vertex 0.076145 4.9118829 -0.178399
			vertex 0.081334 4.885458 -0.301294
		endloop
	endfacet
	facet normal 0.8064112249219878 0.5856684217421018 -0.0818134224558221
		outer loop
			vertex 0.062702 4.9763212 -0.255789
			vertex 0.052673 5.0048461 -0.150444
			vertex 0.095814 4.926878 -0.283357
		endloop
	endfacet
	facet normal 0.7754571626394429 0.6212542852970248 -0.11273553969919067
		outer loop
			vertex 0.052673 5.0048461 -0.150444
			vertex 0.089628 4.9558511 -0.166245
			vertex 0.095814 4.926878 -0.283357
		endloop
	endfacet
	facet normal 0.4344867725821674 0.8843771960481326 -0.1705820024538792
		outer loop
			vertex -0.005353 5.0149012 -0.229114
			vertex -0.020603 5.0401549 -0.13703
			vertex 0.062702 4.9763212 -0.255789
		endloop
	endfacet
	facet normal 0.3941496995441118 0.895877776809332 -0.20505858521031362
		outer loop
			vertex -0.020603 5.0401549 -0.13703
			vertex 0.052673 5.0048461 -0.150444
			vertex 0.062702 4.9763212 -0.255789
		endloop
	endfacet
	facet normal 0.36503697354090264 -0.4187566834343784 0.8314991569611713
		outer loop
			vertex 0.914333 5.1811719 0.470134
			vertex 0.943948 5.1543088 0.443604
			vertex 0.978671 5.2117171 0.457272
		endloop
	endfacet
	facet normal 0.36843094066381227 -0.4202705319604031 0.8292353839093568
		outer loop
			vertex 0.943948 5.1543088 0.443604
			vertex 1.008312 5.1859732 0.431055
			vertex 0.978671 5.2117171 0.457272
		endloop
	endfacet
	facet normal 0.464769280995208 -0.7750986201441823 0.42803229375104673
		outer loop
			vertex 0.943948 5.1543088 0.443604
			vertex 0.964243 5.138288 0.392556
			vertex 1.008312 5.1859732 0.431055
		endloop
	endfacet
	facet normal 0.47138881870947835 -0.7751882286683589 0.42056603729936975
		outer loop
			vertex 0.964243 5.138288 0.392556
			vertex 1.028537 5.171206 0.381167
			vertex 1.008312 5.1859732 0.431055
		endloop
	endfacet
	facet normal 0.457292626421958 -0.8892441120083744 0.011329743092644137
		outer loop
			vertex 0.964243 5.138288 0.392556
			vertex 0.96747 5.1392331 0.336486
			vertex 1.028537 5.171206 0.381167
		endloop
	endfacet
	facet normal 0.46598110184655117 -0.8847867907201616 -0.0037346604920905097
		outer loop
			vertex 0.96747 5.1392331 0.336486
			vertex 1.031615 5.1730571 0.326667
			vertex 1.028537 5.171206 0.381167
		endloop
	endfacet
	facet normal 0.3588559050421351 -0.7955648388653979 -0.48815881286469026
		outer loop
			vertex 0.952393 5.1567769 0.296811
			vertex 1.016372 5.1908178 0.288366
			vertex 0.96747 5.1392331 0.336486
		endloop
	endfacet
	facet normal 0.3413116794906916 -0.7935281944877074 -0.5038048649986647
		outer loop
			vertex 1.016372 5.1908178 0.288366
			vertex 1.031615 5.1730571 0.326667
			vertex 0.96747 5.1392331 0.336486
		endloop
	endfacet
	facet normal 0.015952382908879816 -0.26889610985356605 -0.9630370727989384
		outer loop
			vertex 0.952393 5.1567769 0.296811
			vertex 0.924772 5.1842232 0.28869
			vertex 1.016372 5.1908178 0.288366
		endloop
	endfacet
	facet normal 0.014812049283346129 -0.2532653311180356 -0.9672834513469667
		outer loop
			vertex 0.924772 5.1842232 0.28869
			vertex 0.988633 5.2177062 0.280901
			vertex 1.016372 5.1908178 0.288366
		endloop
	endfacet
	facet normal -0.3359162299458977 0.4479374434888799 -0.8285603980275555
		outer loop
			vertex 0.924772 5.1842232 0.28869
			vertex 0.895159 5.2110872 0.315219
			vertex 0.988633 5.2177062 0.280901
		endloop
	endfacet
	facet normal -0.33517051589629454 0.4545518125551854 -0.825253521638416
		outer loop
			vertex 0.895159 5.2110872 0.315219
			vertex 0.958989 5.2434492 0.30712
			vertex 0.988633 5.2177062 0.280901
		endloop
	endfacet
	facet normal -0.45158269620128905 0.7841777811211723 -0.42560342584082844
		outer loop
			vertex 0.895159 5.2110872 0.315219
			vertex 0.874863 5.2271051 0.366267
			vertex 0.958989 5.2434492 0.30712
		endloop
	endfacet
	facet normal -0.44613382785805666 0.7926648622243325 -0.4155081513467555
		outer loop
			vertex 0.874863 5.2271051 0.366267
			vertex 0.938766 5.2582159 0.357004
			vertex 0.958989 5.2434492 0.30712
		endloop
	endfacet
	facet normal -0.4388882150986147 0.8984847370533298 -0.010114935974140617
		outer loop
			vertex 0.874863 5.2271051 0.366267
			vertex 0.871636 5.22616 0.422336
			vertex 0.938766 5.2582159 0.357004
		endloop
	endfacet
	facet normal -0.4255853830734851 0.9048934807207152 0.006698526953280709
		outer loop
			vertex 0.871636 5.22616 0.422336
			vertex 0.935688 5.2563648 0.411508
			vertex 0.938766 5.2582159 0.357004
		endloop
	endfacet
	facet normal -0.3065036294894109 0.8220193579045341 0.4799371837439101
		outer loop
			vertex 0.871636 5.22616 0.422336
			vertex 0.886712 5.2086182 0.462009
			vertex 0.935688 5.2563648 0.411508
		endloop
	endfacet
	facet normal -0.288639764636265 0.8195780453233229 0.49495344618935905
		outer loop
			vertex 0.886712 5.2086182 0.462009
			vertex 0.95093 5.2386041 0.449806
			vertex 0.935688 5.2563648 0.411508
		endloop
	endfacet
	facet normal 0.033428543265229545 0.3144801440495528 0.9486752718890366
		outer loop
			vertex 0.886712 5.2086182 0.462009
			vertex 0.914333 5.1811719 0.470134
			vertex 0.95093 5.2386041 0.449806
		endloop
	endfacet
	facet normal 0.043420363420466304 0.3086474871544007 0.9501849297445781
		outer loop
			vertex 0.914333 5.1811719 0.470134
			vertex 0.978671 5.2117171 0.457272
			vertex 0.95093 5.2386041 0.449806
		endloop
	endfacet
	facet normal 0.6857919906360453 0.7250298643148295 0.06341168213405289
		outer loop
			vertex 1.008312 5.1859732 0.431055
			vertex 1.028537 5.171206 0.381167
			vertex 0.978671 5.2117171 0.457272
		endloop
	endfacet
	facet normal 0.47649232495961497 0.8664588672689304 -0.1490103875091355
		outer loop
			vertex 1.028537 5.171206 0.381167
			vertex 0.970235 5.201231 0.369322
			vertex 0.978671 5.2117171 0.457272
		endloop
	endfacet
	facet normal 0.6856993574063952 0.7251224129687498 0.06335516918795735
		outer loop
			vertex 1.031615 5.1730571 0.326667
			vertex 1.016372 5.1908178 0.288366
			vertex 1.028537 5.171206 0.381167
		endloop
	endfacet
	facet normal 0.43255699513795703 0.8919226971650095 0.13178902928209135
		outer loop
			vertex 1.016372 5.1908178 0.288366
			vertex 0.970235 5.201231 0.369322
			vertex 1.028537 5.171206 0.381167
		endloop
	endfacet
	facet normal 0.6857558982334422 0.7250616864606352 0.06343814991710062
		outer loop
			vertex 0.988633 5.2177062 0.280901
			vertex 0.958989 5.2434492 0.30712
			vertex 1.016372 5.1908178 0.288366
		endloop
	endfacet
	facet normal 0.6954937657309135 0.646688439516063 0.3131812319180584
		outer loop
			vertex 0.958989 5.2434492 0.30712
			vertex 0.970235 5.201231 0.369322
			vertex 1.016372 5.1908178 0.288366
		endloop
	endfacet
	facet normal 0.6857281696761914 0.7250955099756095 0.06335123302471268
		outer loop
			vertex 0.938766 5.2582159 0.357004
			vertex 0.935688 5.2563648 0.411508
			vertex 0.958989 5.2434492 0.30712
		endloop
	endfacet
	facet normal 0.8840975566110851 0.445118494408935 0.14227099609348498
		outer loop
			vertex 0.935688 5.2563648 0.411508
			vertex 0.970235 5.201231 0.369322
			vertex 0.958989 5.2434492 0.30712
		endloop
	endfacet
	facet normal 0.6857248685658165 0.7250981597853126 0.06335663585092946
		outer loop
			vertex 0.95093 5.2386041 0.449806
			vertex 0.978671 5.2117171 0.457272
			vertex 0.935688 5.2563648 0.411508
		endloop
	endfacet
	facet normal 0.7836065533475739 0.6035848156216785 -0.14712627196283015
		outer loop
			vertex 0.978671 5.2117171 0.457272
			vertex 0.970235 5.201231 0.369322
			vertex 0.935688 5.2563648 0.411508
		endloop
	endfacet
	facet normal 0.4202554041153999 -0.903957332375583 0.07903503372696005
		outer loop
			vertex 0.807248 5.0620828 0.355759
			vertex 0.826259 5.0659938 0.299403
			vertex 0.964243 5.138288 0.392556
		endloop
	endfacet
	facet normal 0.45802417993944106 -0.8888669118938367 0.011378204213192872
		outer loop
			vertex 0.826259 5.0659938 0.299403
			vertex 0.96747 5.1392331 0.336486
			vertex 0.964243 5.138288 0.392556
		endloop
	endfacet
	facet normal 0.27474195741833046 -0.8447203904647868 0.4593085224192584
		outer loop
			vertex 0.783652 5.0824952 0.407414
			vertex 0.807248 5.0620828 0.355759
			vertex 0.943948 5.1543088 0.443604
		endloop
	endfacet
	facet normal 0.32342031091361567 -0.8584817954679473 0.3980054137052279
		outer loop
			vertex 0.807248 5.0620828 0.355759
			vertex 0.964243 5.138288 0.392556
			vertex 0.943948 5.1543088 0.443604
		endloop
	endfacet
	facet normal 0.04482174200612528 -0.5774884709557352 0.8151675149052147
		outer loop
			vertex 0.764484 5.1194291 0.434633
			vertex 0.783652 5.0824952 0.407414
			vertex 0.914333 5.1811719 0.470134
		endloop
	endfacet
	facet normal 0.11104382720228785 -0.6336753401258447 0.7655878994319747
		outer loop
			vertex 0.783652 5.0824952 0.407414
			vertex 0.943948 5.1543088 0.443604
			vertex 0.914333 5.1811719 0.470134
		endloop
	endfacet
	facet normal -0.3031428487749803 0.12548493010103148 0.9446469952072725
		outer loop
			vertex 0.757063 5.158782 0.427024
			vertex 0.764484 5.1194291 0.434633
			vertex 0.886712 5.2086182 0.462009
		endloop
	endfacet
	facet normal -0.2457110676784832 0.039444445821021606 0.9685402453766041
		outer loop
			vertex 0.764484 5.1194291 0.434633
			vertex 0.914333 5.1811719 0.470134
			vertex 0.886712 5.2086182 0.462009
		endloop
	endfacet
	facet normal -0.439765061172723 0.7789079939898433 0.4471118739985215
		outer loop
			vertex 0.764227 5.1855202 0.38749
			vertex 0.757063 5.158782 0.427024
			vertex 0.871636 5.22616 0.422336
		endloop
	endfacet
	facet normal -0.42492691712904535 0.7570940782911524 0.4962314698965353
		outer loop
			vertex 0.757063 5.158782 0.427024
			vertex 0.886712 5.2086182 0.462009
			vertex 0.871636 5.22616 0.422336
		endloop
	endfacet
	facet normal -0.3608469940729819 0.9308738576353442 -0.05712537124243738
		outer loop
			vertex 0.783238 5.1894312 0.331133
			vertex 0.764227 5.1855202 0.38749
			vertex 0.874863 5.2271051 0.366267
		endloop
	endfacet
	facet normal -0.3525944090869778 0.9357653298386885 -0.004519972621111416
		outer loop
			vertex 0.764227 5.1855202 0.38749
			vertex 0.871636 5.22616 0.422336
			vertex 0.874863 5.2271051 0.366267
		endloop
	endfacet
	facet normal -0.23078235708721315 0.8642946739794414 -0.4469163458501392
		outer loop
			vertex 0.806834 5.1690221 0.279479
			vertex 0.783238 5.1894312 0.331133
			vertex 0.895159 5.2110872 0.315219
		endloop
	endfacet
	facet normal -0.22708242617771263 0.8997724552661761 -0.37261655956964795
		outer loop
			vertex 0.783238 5.1894312 0.331133
			vertex 0.874863 5.2271051 0.366267
			vertex 0.895159 5.2110872 0.315219
		endloop
	endfacet
	facet normal -0.012794339267077797 0.5889211169891956 -0.808089241882923
		outer loop
			vertex 0.826003 5.1320872 0.252258
			vertex 0.806834 5.1690221 0.279479
			vertex 0.924772 5.1842232 0.28869
		endloop
	endfacet
	facet normal -0.03136153636294821 0.6845957717161231 -0.7282479546043101
		outer loop
			vertex 0.806834 5.1690221 0.279479
			vertex 0.895159 5.2110872 0.315219
			vertex 0.924772 5.1842232 0.28869
		endloop
	endfacet
	facet normal 0.3499994181117567 -0.11384334916825532 -0.9298064847975553
		outer loop
			vertex 0.833422 5.0927339 0.259869
			vertex 0.826003 5.1320872 0.252258
			vertex 0.952393 5.1567769 0.296811
		endloop
	endfacet
	facet normal 0.3240057812176604 0.04648089678632896 -0.9449125779517766
		outer loop
			vertex 0.826003 5.1320872 0.252258
			vertex 0.924772 5.1842232 0.28869
			vertex 0.952393 5.1567769 0.296811
		endloop
	endfacet
	facet normal 0.5277343586833212 -0.7448889775035125 -0.40821178064685454
		outer loop
			vertex 0.833422 5.0927339 0.259869
			vertex 0.952393 5.1567769 0.296811
			vertex 0.826259 5.0659938 0.299403
		endloop
	endfacet
	facet normal 0.4984189731099332 -0.7068348297452591 -0.5019592121906223
		outer loop
			vertex 0.952393 5.1567769 0.296811
			vertex 0.96747 5.1392331 0.336486
			vertex 0.826259 5.0659938 0.299403
		endloop
	endfacet
	facet normal 0.4348009302870142 -0.8953988290758943 0.0959639927840896
		outer loop
			vertex 0.695665 5.003047 0.31049
			vertex 0.714858 5.0061002 0.252017
			vertex 0.807248 5.0620828 0.355759
		endloop
	endfacet
	facet normal 0.4426369153863339 -0.8924328737626505 0.08738493557249398
		outer loop
			vertex 0.714858 5.0061002 0.252017
			vertex 0.826259 5.0659938 0.299403
			vertex 0.807248 5.0620828 0.355759
		endloop
	endfacet
	facet normal 0.26153898542534243 -0.8492349544415236 0.4586909103714464
		outer loop
			vertex 0.672305 5.0246959 0.363891
			vertex 0.695665 5.003047 0.31049
			vertex 0.783652 5.0824952 0.407414
		endloop
	endfacet
	facet normal 0.26430592682038107 -0.8495794714779354 0.4564614974900856
		outer loop
			vertex 0.695665 5.003047 0.31049
			vertex 0.807248 5.0620828 0.355759
			vertex 0.783652 5.0824952 0.407414
		endloop
	endfacet
	facet normal -0.007401116998441728 -0.5936822621462476 0.8046655175164957
		outer loop
			vertex 0.653701 5.0627809 0.391819
			vertex 0.672305 5.0246959 0.363891
			vertex 0.764484 5.1194291 0.434633
		endloop
	endfacet
	facet normal -0.005270555333518055 -0.5950261877461431 0.8036890301246921
		outer loop
			vertex 0.672305 5.0246959 0.363891
			vertex 0.783652 5.0824952 0.407414
			vertex 0.764484 5.1194291 0.434633
		endloop
	endfacet
	facet normal -0.41461642018613504 0.11539214126995444 0.9026504737965684
		outer loop
			vertex 0.646959 5.1027551 0.383612
			vertex 0.653701 5.0627809 0.391819
			vertex 0.757063 5.158782 0.427024
		endloop
	endfacet
	facet normal -0.4027425395239687 0.09997230032502602 0.9098373404216314
		outer loop
			vertex 0.653701 5.0627809 0.391819
			vertex 0.764484 5.1194291 0.434633
			vertex 0.757063 5.158782 0.427024
		endloop
	endfacet
	facet normal -0.5412416698322456 0.7489627497947786 0.3822463266756744
		outer loop
			vertex 0.654654 5.1293492 0.3424
			vertex 0.646959 5.1027551 0.383612
			vertex 0.764227 5.1855202 0.38749
		endloop
	endfacet
	facet normal -0.5363574067873234 0.7410237320165969 0.4039858422922425
		outer loop
			vertex 0.646959 5.1027551 0.383612
			vertex 0.757063 5.158782 0.427024
			vertex 0.764227 5.1855202 0.38749
		endloop
	endfacet
	facet normal -0.4281877906927493 0.8988285324231363 -0.09360814710127363
		outer loop
			vertex 0.673847 5.1324029 0.283928
			vertex 0.654654 5.1293492 0.3424
			vertex 0.783238 5.1894312 0.331133
		endloop
	endfacet
	facet normal -0.4277827498490428 0.9001693363598982 -0.0818357184178894
		outer loop
			vertex 0.654654 5.1293492 0.3424
			vertex 0.764227 5.1855202 0.38749
			vertex 0.783238 5.1894312 0.331133
		endloop
	endfacet
	facet normal -0.25043820653376486 0.8541182584655552 -0.45580994423544424
		outer loop
			vertex 0.697206 5.110754 0.230527
			vertex 0.673847 5.1324029 0.283928
			vertex 0.806834 5.1690221 0.279479
		endloop
	endfacet
	facet normal -0.2507681393262107 0.8557003256599482 -0.45265029875647794
		outer loop
			vertex 0.673847 5.1324029 0.283928
			vertex 0.783238 5.1894312 0.331133
			vertex 0.806834 5.1690221 0.279479
		endloop
	endfacet
	facet normal 0.03488220764512328 0.6020064487513564 -0.7977289434711411
		outer loop
			vertex 0.715811 5.0726681 0.202599
			vertex 0.697206 5.110754 0.230527
			vertex 0.826003 5.1320872 0.252258
		endloop
	endfacet
	facet normal 0.034192928966715136 0.6043732925405282 -0.7959671895702727
		outer loop
			vertex 0.697206 5.110754 0.230527
			vertex 0.806834 5.1690221 0.279479
			vertex 0.826003 5.1320872 0.252258
		endloop
	endfacet
	facet normal 0.4499108796261493 -0.10620580229481379 -0.8867358839885411
		outer loop
			vertex 0.72255 5.0326939 0.210806
			vertex 0.715811 5.0726681 0.202599
			vertex 0.833422 5.0927339 0.259869
		endloop
	endfacet
	facet normal 0.44815421019574603 -0.08757383189726185 -0.8896564661995423
		outer loop
			vertex 0.715811 5.0726681 0.202599
			vertex 0.826003 5.1320872 0.252258
			vertex 0.833422 5.0927339 0.259869
		endloop
	endfacet
	facet normal 0.5637700106255948 -0.7379345492529876 -0.37096627358562745
		outer loop
			vertex 0.72255 5.0326939 0.210806
			vertex 0.833422 5.0927339 0.259869
			vertex 0.714858 5.0061002 0.252017
		endloop
	endfacet
	facet normal 0.5594476756902739 -0.7300725068165446 -0.3924441781392057
		outer loop
			vertex 0.833422 5.0927339 0.259869
			vertex 0.826259 5.0659938 0.299403
			vertex 0.714858 5.0061002 0.252017
		endloop
	endfacet
	facet normal 0.25305971976025243 -0.9613748380806811 0.10825524901918887
		outer loop
			vertex 0.553888 4.9580269 0.242104
			vertex 0.584013 4.9588552 0.179039
			vertex 0.695665 5.003047 0.31049
		endloop
	endfacet
	facet normal 0.3127792504595167 -0.9483377346575846 0.053147732844439105
		outer loop
			vertex 0.584013 4.9588552 0.179039
			vertex 0.714858 5.0061002 0.252017
			vertex 0.695665 5.003047 0.31049
		endloop
	endfacet
	facet normal 0.06712466666886084 -0.9012390259261829 0.42809169259893315
		outer loop
			vertex 0.525951 4.9843922 0.30199
			vertex 0.553888 4.9580269 0.242104
			vertex 0.672305 5.0246959 0.363891
		endloop
	endfacet
	facet normal 0.0914996093411357 -0.9082759230598554 0.408243394410966
		outer loop
			vertex 0.553888 4.9580269 0.242104
			vertex 0.695665 5.003047 0.31049
			vertex 0.672305 5.0246959 0.363891
		endloop
	endfacet
	facet normal -0.14098594482265037 -0.6378662114665978 0.7571325244841315
		outer loop
			vertex 0.510871 5.0278831 0.335822
			vertex 0.525951 4.9843922 0.30199
			vertex 0.653701 5.0627809 0.391819
		endloop
	endfacet
	facet normal -0.1483528557572281 -0.6309108743004793 0.7615398209404942
		outer loop
			vertex 0.525951 4.9843922 0.30199
			vertex 0.672305 5.0246959 0.363891
			vertex 0.653701 5.0627809 0.391819
		endloop
	endfacet
	facet normal -0.39487527279578943 0.13795933337780153 0.908317533282499
		outer loop
			vertex 0.514409 5.0718842 0.330677
			vertex 0.510871 5.0278831 0.335822
			vertex 0.646959 5.1027551 0.383612
		endloop
	endfacet
	facet normal -0.3879923438280203 0.12211754247556589 0.9135366697350291
		outer loop
			vertex 0.510871 5.0278831 0.335822
			vertex 0.653701 5.0627809 0.391819
			vertex 0.646959 5.1027551 0.383612
		endloop
	endfacet
	facet normal -0.37851013096139663 0.848157769231536 0.3706190486898522
		outer loop
			vertex 0.535214 5.0995898 0.288521
			vertex 0.514409 5.0718842 0.330677
			vertex 0.654654 5.1293492 0.3424
		endloop
	endfacet
	facet normal -0.3700640394375927 0.8105456114400262 0.4539475944318307
		outer loop
			vertex 0.514409 5.0718842 0.330677
			vertex 0.646959 5.1027551 0.383612
			vertex 0.654654 5.1293492 0.3424
		endloop
	endfacet
	facet normal -0.23229348636342725 0.9676704509501723 -0.09825291115796193
		outer loop
			vertex 0.565339 5.1004181 0.225456
			vertex 0.535214 5.0995898 0.288521
			vertex 0.673847 5.1324029 0.283928
		endloop
	endfacet
	facet normal -0.23103993219378624 0.9726219459361942 -0.025041965082266124
		outer loop
			vertex 0.535214 5.0995898 0.288521
			vertex 0.654654 5.1293492 0.3424
			vertex 0.673847 5.1324029 0.283928
		endloop
	endfacet
	facet normal -0.054584724375972754 0.9042148403872292 -0.4235752947095675
		outer loop
			vertex 0.593279 5.0740519 0.165571
			vertex 0.565339 5.1004181 0.225456
			vertex 0.697206 5.110754 0.230527
		endloop
	endfacet
	facet normal -0.05658955990149335 0.9163921103230739 -0.39626143118877827
		outer loop
			vertex 0.565339 5.1004181 0.225456
			vertex 0.673847 5.1324029 0.283928
			vertex 0.697206 5.110754 0.230527
		endloop
	endfacet
	facet normal 0.2275249458532749 0.6458388490459414 -0.7287829444199956
		outer loop
			vertex 0.608358 5.0305638 0.13174
			vertex 0.593279 5.0740519 0.165571
			vertex 0.715811 5.0726681 0.202599
		endloop
	endfacet
	facet normal 0.22756380194133125 0.6456730362547165 -0.7289177225857678
		outer loop
			vertex 0.593279 5.0740519 0.165571
			vertex 0.697206 5.110754 0.230527
			vertex 0.715811 5.0726681 0.202599
		endloop
	endfacet
	facet normal 0.5653805342953622 -0.14052438401582562 -0.8127716462431892
		outer loop
			vertex 0.604818 4.9865632 0.136885
			vertex 0.608358 5.0305638 0.13174
			vertex 0.72255 5.0326939 0.210806
		endloop
	endfacet
	facet normal 0.5686786051156326 -0.07235308969778137 -0.8193715118887912
		outer loop
			vertex 0.608358 5.0305638 0.13174
			vertex 0.715811 5.0726681 0.202599
			vertex 0.72255 5.0326939 0.210806
		endloop
	endfacet
	facet normal 0.5010459128020559 -0.8157690379356861 -0.288918448718388
		outer loop
			vertex 0.604818 4.9865632 0.136885
			vertex 0.72255 5.0326939 0.210806
			vertex 0.584013 4.9588552 0.179039
		endloop
	endfacet
	facet normal 0.5007788131294533 -0.7668760622605405 -0.40139965801234084
		outer loop
			vertex 0.72255 5.0326939 0.210806
			vertex 0.714858 5.0061002 0.252017
			vertex 0.584013 4.9588552 0.179039
		endloop
	endfacet
	facet normal 0.15973966716081553 -0.9681238453672307 0.19292345312770662
		outer loop
			vertex 0.444473 4.9223161 0.153496
			vertex 0.509988 4.925705 0.116256
			vertex 0.553888 4.9580269 0.242104
		endloop
	endfacet
	facet normal 0.307664264539155 -0.9419273236878485 0.1345942688818072
		outer loop
			vertex 0.509988 4.925705 0.116256
			vertex 0.584013 4.9588552 0.179039
			vertex 0.553888 4.9580269 0.242104
		endloop
	endfacet
	facet normal -0.08518210669206475 -0.9017802894853381 0.4237172620925917
		outer loop
			vertex 0.384591 4.9463782 0.192668
			vertex 0.444473 4.9223161 0.153496
			vertex 0.525951 4.9843922 0.30199
		endloop
	endfacet
	facet normal -0.02010317208172564 -0.9184677128961392 0.3949847121593287
		outer loop
			vertex 0.444473 4.9223161 0.153496
			vertex 0.553888 4.9580269 0.242104
			vertex 0.525951 4.9843922 0.30199
		endloop
	endfacet
	facet normal -0.33365251598082746 -0.6619408277254151 0.6712006698222642
		outer loop
			vertex 0.353219 4.988698 0.218809
			vertex 0.384591 4.9463782 0.192668
			vertex 0.510871 5.0278831 0.335822
		endloop
	endfacet
	facet normal -0.3493630945563684 -0.6477808145113197 0.6769973740813543
		outer loop
			vertex 0.384591 4.9463782 0.192668
			vertex 0.525951 4.9843922 0.30199
			vertex 0.510871 5.0278831 0.335822
		endloop
	endfacet
	facet normal -0.5913323037183843 0.064862288249595 0.8038152711550927
		outer loop
			vertex 0.362343 5.0331149 0.221937
			vertex 0.353219 4.988698 0.218809
			vertex 0.514409 5.0718842 0.330677
		endloop
	endfacet
	facet normal -0.6123439806961106 0.14021429532332585 0.7780583530123076
		outer loop
			vertex 0.353219 4.988698 0.218809
			vertex 0.510871 5.0278831 0.335822
			vertex 0.514409 5.0718842 0.330677
		endloop
	endfacet
	facet normal -0.4728713371432713 0.7176755703185245 0.5112088362658801
		outer loop
			vertex 0.395858 5.056222 0.220499
			vertex 0.362343 5.0331149 0.221937
			vertex 0.535214 5.0995898 0.288521
		endloop
	endfacet
	facet normal -0.4463026188605036 0.8329356869408971 0.3271576283973093
		outer loop
			vertex 0.362343 5.0331149 0.221937
			vertex 0.514409 5.0718842 0.330677
			vertex 0.535214 5.0995898 0.288521
		endloop
	endfacet
	facet normal -0.24682080038720716 0.9607232390215485 -0.12684774534915103
		outer loop
			vertex 0.458189 5.0677571 0.18658
			vertex 0.395858 5.056222 0.220499
			vertex 0.565339 5.1004181 0.225456
		endloop
	endfacet
	facet normal -0.24801834813925847 0.9629577851167581 -0.10582628723196069
		outer loop
			vertex 0.395858 5.056222 0.220499
			vertex 0.535214 5.0995898 0.288521
			vertex 0.565339 5.1004181 0.225456
		endloop
	endfacet
	facet normal -0.11764182299395962 0.858440664560161 -0.499239448473543
		outer loop
			vertex 0.533873 5.0419922 0.124443
			vertex 0.458189 5.0677571 0.18658
			vertex 0.593279 5.0740519 0.165571
		endloop
	endfacet
	facet normal -0.11037553081863896 0.8896133733796562 -0.4431763622989976
		outer loop
			vertex 0.458189 5.0677571 0.18658
			vertex 0.565339 5.1004181 0.225456
			vertex 0.593279 5.0740519 0.165571
		endloop
	endfacet
	facet normal 0.16910207959530144 0.6056735730491696 -0.7775371435413209
		outer loop
			vertex 0.565244 4.999671 0.098299
			vertex 0.533873 5.0419922 0.124443
			vertex 0.608358 5.0305638 0.13174
		endloop
	endfacet
	facet normal 0.17165897299077795 0.6412967783580337 -0.7478446623860856
		outer loop
			vertex 0.533873 5.0419922 0.124443
			vertex 0.593279 5.0740519 0.165571
			vertex 0.608358 5.0305638 0.13174
		endloop
	endfacet
	facet normal 0.6801893191268295 -0.08851109440757252 -0.7276731933447557
		outer loop
			vertex 0.556121 4.9552541 0.095174
			vertex 0.565244 4.999671 0.098299
			vertex 0.604818 4.9865632 0.136885
		endloop
	endfacet
	facet normal 0.6672850841031462 -0.13923987346087405 -0.7316712883338097
		outer loop
			vertex 0.565244 4.999671 0.098299
			vertex 0.608358 5.0305638 0.13174
			vertex 0.604818 4.9865632 0.136885
		endloop
	endfacet
	facet normal 0.5398653701955255 -0.8417499526131843 0.0015489800999650412
		outer loop
			vertex 0.556121 4.9552541 0.095174
			vertex 0.604818 4.9865632 0.136885
			vertex 0.509988 4.925705 0.116256
		endloop
	endfacet
	facet normal 0.560810827864444 -0.7913641919446859 -0.24338021911760024
		outer loop
			vertex 0.604818 4.9865632 0.136885
			vertex 0.584013 4.9588552 0.179039
			vertex 0.509988 4.925705 0.116256
		endloop
	endfacet
	facet normal 0.0424958883659999 -0.9988688298239886 -0.021334485652114096
		outer loop
			vertex 0.377099 4.9205942 0.099913
			vertex 0.44695 4.9242878 0.066116
			vertex 0.444473 4.9223161 0.153496
		endloop
	endfacet
	facet normal 0.03949804489256204 -0.9989899868194556 -0.021422200730297526
		outer loop
			vertex 0.44695 4.9242878 0.066116
			vertex 0.509988 4.925705 0.116256
			vertex 0.444473 4.9223161 0.153496
		endloop
	endfacet
	facet normal -0.1970092651297759 -0.9403636912150278 0.2773147628552679
		outer loop
			vertex 0.312453 4.9448471 0.136228
			vertex 0.377099 4.9205942 0.099913
			vertex 0.384591 4.9463782 0.192668
		endloop
	endfacet
	facet normal -0.19650598840802974 -0.9404720901096427 0.27730424490905936
		outer loop
			vertex 0.377099 4.9205942 0.099913
			vertex 0.444473 4.9223161 0.153496
			vertex 0.384591 4.9463782 0.192668
		endloop
	endfacet
	facet normal -0.44785516267916425 -0.679043088146705 0.5816581794334245
		outer loop
			vertex 0.289055 4.9676499 0.144833
			vertex 0.312453 4.9448471 0.136228
			vertex 0.353219 4.988698 0.218809
		endloop
	endfacet
	facet normal -0.43991314896835343 -0.6849022167746178 0.580848839907563
		outer loop
			vertex 0.312453 4.9448471 0.136228
			vertex 0.384591 4.9463782 0.192668
			vertex 0.353219 4.988698 0.218809
		endloop
	endfacet
	facet normal -0.7563574464480549 0.08241999586091257 0.648945573592166
		outer loop
			vertex 0.297473 5.0128708 0.148901
			vertex 0.289055 4.9676499 0.144833
			vertex 0.362343 5.0331149 0.221937
		endloop
	endfacet
	facet normal -0.7662733334288336 0.11286110696153054 0.6325247418174894
		outer loop
			vertex 0.289055 4.9676499 0.144833
			vertex 0.353219 4.988698 0.218809
			vertex 0.362343 5.0331149 0.221937
		endloop
	endfacet
	facet normal -0.5158693768121942 0.8317059432139099 0.20529006330083033
		outer loop
			vertex 0.344396 5.046803 0.129341
			vertex 0.297473 5.0128708 0.148901
			vertex 0.395858 5.056222 0.220499
		endloop
	endfacet
	facet normal -0.540794355610294 0.8004632395591762 0.2584570893871475
		outer loop
			vertex 0.297473 5.0128708 0.148901
			vertex 0.362343 5.0331149 0.221937
			vertex 0.395858 5.056222 0.220499
		endloop
	endfacet
	facet normal -0.12908948365534265 0.9861254137592139 -0.10436749277345014
		outer loop
			vertex 0.405525 5.0514712 0.09784
			vertex 0.344396 5.046803 0.129341
			vertex 0.458189 5.0677571 0.18658
		endloop
	endfacet
	facet normal -0.18151761795224308 0.9833873135082726 0.0008637151881747391
		outer loop
			vertex 0.344396 5.046803 0.129341
			vertex 0.395858 5.056222 0.220499
			vertex 0.458189 5.0677571 0.18658
		endloop
	endfacet
	facet normal 0.09081802235773281 0.9922675897894128 -0.08459974626758841
		outer loop
			vertex 0.461978 5.0438132 0.068622
			vertex 0.405525 5.0514712 0.09784
			vertex 0.533873 5.0419922 0.124443
		endloop
	endfacet
	facet normal 0.12257371619222725 0.96070154326968 -0.24905467042013624
		outer loop
			vertex 0.405525 5.0514712 0.09784
			vertex 0.458189 5.0677571 0.18658
			vertex 0.533873 5.0419922 0.124443
		endloop
	endfacet
	facet normal 0.4537935232157107 0.8057767826846417 -0.3805196641093073
		outer loop
			vertex 0.483621 5.013948 0.031191
			vertex 0.461978 5.0438132 0.068622
			vertex 0.565244 4.999671 0.098299
		endloop
	endfacet
	facet normal 0.45623104667678477 0.6873288154845135 -0.5651834493798108
		outer loop
			vertex 0.461978 5.0438132 0.068622
			vertex 0.533873 5.0419922 0.124443
			vertex 0.565244 4.999671 0.098299
		endloop
	endfacet
	facet normal 0.7219048080564041 0.15704591926208528 -0.6739362190505664
		outer loop
			vertex 0.489942 4.9627528 0.026032
			vertex 0.483621 5.013948 0.031191
			vertex 0.556121 4.9552541 0.095174
		endloop
	endfacet
	facet normal 0.6256072726871896 -0.07385551050233934 -0.7766343437740408
		outer loop
			vertex 0.483621 5.013948 0.031191
			vertex 0.565244 4.999671 0.098299
			vertex 0.556121 4.9552541 0.095174
		endloop
	endfacet
	facet normal 0.3499722710226194 -0.834554869433507 -0.4254851106914233
		outer loop
			vertex 0.489942 4.9627528 0.026032
			vertex 0.556121 4.9552541 0.095174
			vertex 0.44695 4.9242878 0.066116
		endloop
	endfacet
	facet normal 0.3487829989172881 -0.8404365941119429 -0.41474902163089017
		outer loop
			vertex 0.556121 4.9552541 0.095174
			vertex 0.509988 4.925705 0.116256
			vertex 0.44695 4.9242878 0.066116
		endloop
	endfacet
	facet normal 0.11899643413811886 -0.9898667761535912 0.07748299251905998
		outer loop
			vertex 0.363645 4.903296 -0.100414
			vertex 0.444251 4.91254 -0.106112
			vertex 0.377099 4.9205942 0.099913
		endloop
	endfacet
	facet normal 0.08473949846374045 -0.994182495081586 0.06648596749289325
		outer loop
			vertex 0.444251 4.91254 -0.106112
			vertex 0.44695 4.9242878 0.066116
			vertex 0.377099 4.9205942 0.099913
		endloop
	endfacet
	facet normal -0.5212847764966962 -0.8525831656928698 0.0369340949518754
		outer loop
			vertex 0.311818 4.9357409 -0.082941
			vertex 0.363645 4.903296 -0.100414
			vertex 0.312453 4.9448471 0.136228
		endloop
	endfacet
	facet normal -0.2986912407069889 -0.9488837328658611 0.10199609907966478
		outer loop
			vertex 0.363645 4.903296 -0.100414
			vertex 0.377099 4.9205942 0.099913
			vertex 0.312453 4.9448471 0.136228
		endloop
	endfacet
	facet normal -0.7184013555194866 -0.6951579850603029 0.025590392624263405
		outer loop
			vertex 0.289788 4.959487 -0.056333
			vertex 0.311818 4.9357409 -0.082941
			vertex 0.289055 4.9676499 0.144833
		endloop
	endfacet
	facet normal -0.6915239552498417 -0.7216449615203855 0.03198701029881228
		outer loop
			vertex 0.311818 4.9357409 -0.082941
			vertex 0.312453 4.9448471 0.136228
			vertex 0.289055 4.9676499 0.144833
		endloop
	endfacet
	facet normal -0.9063564497563924 0.41593826503939624 -0.07425190678363305
		outer loop
			vertex 0.307711 5.0088801 0.001576
			vertex 0.289788 4.959487 -0.056333
			vertex 0.297473 5.0128708 0.148901
		endloop
	endfacet
	facet normal -0.9828720144268228 0.1839581187105129 -0.011045986467876204
		outer loop
			vertex 0.289788 4.959487 -0.056333
			vertex 0.289055 4.9676499 0.144833
			vertex 0.297473 5.0128708 0.148901
		endloop
	endfacet
	facet normal -0.5000563864132147 0.8640379620741175 -0.05815505568876831
		outer loop
			vertex 0.307711 5.0088801 0.001576
			vertex 0.297473 5.0128708 0.148901
			vertex 0.351948 5.0352702 0.013287
		endloop
	endfacet
	facet normal -0.6136245188022332 0.7808030792521513 -0.11752234406735873
		outer loop
			vertex 0.297473 5.0128708 0.148901
			vertex 0.344396 5.046803 0.129341
			vertex 0.351948 5.0352702 0.013287
		endloop
	endfacet
	facet normal -0.22735882684731334 0.9728898583987955 -0.0423472228060514
		outer loop
			vertex 0.405675 5.0453162 -0.044371
			vertex 0.351948 5.0352702 0.013287
			vertex 0.405525 5.0514712 0.09784
		endloop
	endfacet
	facet normal -0.13012401113607241 0.9857691712601336 -0.10642782868671438
		outer loop
			vertex 0.351948 5.0352702 0.013287
			vertex 0.344396 5.046803 0.129341
			vertex 0.405525 5.0514712 0.09784
		endloop
	endfacet
	facet normal 0.3046320683558034 0.9422344027618323 -0.13926102534922796
		outer loop
			vertex 0.456499 5.026557 -0.060118
			vertex 0.405675 5.0453162 -0.044371
			vertex 0.461978 5.0438132 0.068622
		endloop
	endfacet
	facet normal 0.11249004410043302 0.99272860873736 -0.04284739633476369
		outer loop
			vertex 0.405675 5.0453162 -0.044371
			vertex 0.405525 5.0514712 0.09784
			vertex 0.461978 5.0438132 0.068622
		endloop
	endfacet
	facet normal 0.6992526473117348 0.7063353805439531 -0.11016381175031997
		outer loop
			vertex 0.485879 4.9939928 -0.082423
			vertex 0.456499 5.026557 -0.060118
			vertex 0.483621 5.013948 0.031191
		endloop
	endfacet
	facet normal 0.7249702258807574 0.6779390887096203 -0.12172412902121495
		outer loop
			vertex 0.456499 5.026557 -0.060118
			vertex 0.461978 5.0438132 0.068622
			vertex 0.483621 5.013948 0.031191
		endloop
	endfacet
	facet normal 0.9850929234523135 0.17156719985404803 0.01251511479833841
		outer loop
			vertex 0.492909 4.9540882 -0.088726
			vertex 0.485879 4.9939928 -0.082423
			vertex 0.489942 4.9627528 0.026032
		endloop
	endfacet
	facet normal 0.9924396950964391 0.12271960327818827 -0.0018304557168057475
		outer loop
			vertex 0.485879 4.9939928 -0.082423
			vertex 0.483621 5.013948 0.031191
			vertex 0.489942 4.9627528 0.026032
		endloop
	endfacet
	facet normal 0.6399949434443356 -0.7672137545086241 0.04230280438059025
		outer loop
			vertex 0.444251 4.91254 -0.106112
			vertex 0.492909 4.9540882 -0.088726
			vertex 0.44695 4.9242878 0.066116
		endloop
	endfacet
	facet normal 0.7013538140871785 -0.7092001175501859 0.07167998836614109
		outer loop
			vertex 0.492909 4.9540882 -0.088726
			vertex 0.489942 4.9627528 0.026032
			vertex 0.44695 4.9242878 0.066116
		endloop
	endfacet
	facet normal 0.6514035771669662 0.758034322888745 -0.03251684143152083
		outer loop
			vertex 0.409714 5.0367718 -0.162646
			vertex 0.388042 5.056901 -0.127544
			vertex 0.405675 5.0453162 -0.044371
		endloop
	endfacet
	facet normal -0.030220884581936034 0.9890909105171147 0.14417305180757664
		outer loop
			vertex 0.388042 5.056901 -0.127544
			vertex 0.351948 5.0352702 0.013287
			vertex 0.405675 5.0453162 -0.044371
		endloop
	endfacet
	facet normal 0.4554953607045659 0.8821182278158975 -0.11996419687372518
		outer loop
			vertex 0.466642 5.001586 -0.205222
			vertex 0.409714 5.0367718 -0.162646
			vertex 0.456499 5.026557 -0.060118
		endloop
	endfacet
	facet normal 0.33017477659214917 0.942209804992204 -0.05679172720456218
		outer loop
			vertex 0.409714 5.0367718 -0.162646
			vertex 0.405675 5.0453162 -0.044371
			vertex 0.456499 5.026557 -0.060118
		endloop
	endfacet
	facet normal 0.5539858661809427 0.8317751473209283 -0.03535200660498727
		outer loop
			vertex 0.510344 4.9715271 -0.227624
			vertex 0.466642 5.001586 -0.205222
			vertex 0.485879 4.9939928 -0.082423
		endloop
	endfacet
	facet normal 0.7166010460484127 0.6940276377618604 -0.06934391700079166
		outer loop
			vertex 0.466642 5.001586 -0.205222
			vertex 0.456499 5.026557 -0.060118
			vertex 0.485879 4.9939928 -0.082423
		endloop
	endfacet
	facet normal 0.7035205117209091 -0.7106743607221871 -0.0009179324925065943
		outer loop
			vertex 0.476444 4.9380078 -0.258169
			vertex 0.510344 4.9715271 -0.227624
			vertex 0.492909 4.9540882 -0.088726
		endloop
	endfacet
	facet normal 0.9784845313389561 0.15000490217131782 0.14165645504161434
		outer loop
			vertex 0.510344 4.9715271 -0.227624
			vertex 0.485879 4.9939928 -0.082423
			vertex 0.492909 4.9540882 -0.088726
		endloop
	endfacet
	facet normal 0.5323430721958304 -0.8460320079259425 -0.02899474176299863
		outer loop
			vertex 0.421465 4.9041262 -0.278958
			vertex 0.476444 4.9380078 -0.258169
			vertex 0.444251 4.91254 -0.106112
		endloop
	endfacet
	facet normal 0.6473836914546647 -0.7621060681554256 0.00941790418350336
		outer loop
			vertex 0.476444 4.9380078 -0.258169
			vertex 0.492909 4.9540882 -0.088726
			vertex 0.444251 4.91254 -0.106112
		endloop
	endfacet
	facet normal 0.636420869860542 -0.7442485523676876 0.2026390108161613
		outer loop
			vertex 0.39066 4.8794661 -0.272781
			vertex 0.421465 4.9041262 -0.278958
			vertex 0.363645 4.903296 -0.100414
		endloop
	endfacet
	facet normal 0.11617505830051683 -0.9926801722980224 0.033006535038387394
		outer loop
			vertex 0.421465 4.9041262 -0.278958
			vertex 0.444251 4.91254 -0.106112
			vertex 0.363645 4.903296 -0.100414
		endloop
	endfacet
	facet normal -0.5498894731711693 -0.8350177939231119 0.019153358121063894
		outer loop
			vertex 0.341347 4.9118729 -0.275728
			vertex 0.39066 4.8794661 -0.272781
			vertex 0.311818 4.9357409 -0.082941
		endloop
	endfacet
	facet normal -0.521498253513989 -0.8524873608509792 0.0361230005839998
		outer loop
			vertex 0.39066 4.8794661 -0.272781
			vertex 0.363645 4.903296 -0.100414
			vertex 0.311818 4.9357409 -0.082941
		endloop
	endfacet
	facet normal -0.6115461562717166 -0.7907171024127947 0.02788839725053001
		outer loop
			vertex 0.32475 4.9245658 -0.279792
			vertex 0.341347 4.9118729 -0.275728
			vertex 0.289788 4.959487 -0.056333
		endloop
	endfacet
	facet normal -0.7510805205196733 -0.6593647316782714 -0.03340961410638854
		outer loop
			vertex 0.341347 4.9118729 -0.275728
			vertex 0.311818 4.9357409 -0.082941
			vertex 0.289788 4.959487 -0.056333
		endloop
	endfacet
	facet normal -0.9940678425844973 0.07178294431991918 -0.08170883210624584
		outer loop
			vertex 0.319907 5.0389309 -0.1204
			vertex 0.32475 4.9245658 -0.279792
			vertex 0.307711 5.0088801 0.001576
		endloop
	endfacet
	facet normal -0.8123206041146198 0.5433146181404639 -0.21200108925602584
		outer loop
			vertex 0.32475 4.9245658 -0.279792
			vertex 0.289788 4.959487 -0.056333
			vertex 0.307711 5.0088801 0.001576
		endloop
	endfacet
	facet normal -0.24571706486896147 0.9655784057906681 0.08533150826590816
		outer loop
			vertex 0.388042 5.056901 -0.127544
			vertex 0.319907 5.0389309 -0.1204
			vertex 0.351948 5.0352702 0.013287
		endloop
	endfacet
	facet normal -0.5356397808721266 0.8308131448891801 0.15112757334983787
		outer loop
			vertex 0.319907 5.0389309 -0.1204
			vertex 0.307711 5.0088801 0.001576
			vertex 0.351948 5.0352702 0.013287
		endloop
	endfacet
endsolid exported
