solid exported
	facet normal -0.4304761032194159 0.5289145386575537 -0.7313957446920882
		outer loop
			vertex -1.9202369 1.816209 -0.806623
			vertex -1.980989 1.858232 -0.740477
			vertex -1.919174 1.833762 -0.794555
		endloop
	endfacet
	facet normal -0.10105791366436916 0.8579320766549885 -0.5037259671014233
		outer loop
			vertex -1.980989 1.858232 -0.740477
			vertex -1.937783 1.869966 -0.72916
			vertex -1.919174 1.833762 -0.794555
		endloop
	endfacet
	facet normal 0.02393249680831351 0.8774947988397739 -0.4789886361967946
		outer loop
			vertex -1.919174 1.833762 -0.794555
			vertex -1.937783 1.869966 -0.72916
			vertex -1.866834 1.8407511 -0.779136
		endloop
	endfacet
	facet normal 0.15526777694777344 0.9329056988812464 -0.32492902984588784
		outer loop
			vertex -1.937783 1.869966 -0.72916
			vertex -1.884577 1.8659461 -0.715277
			vertex -1.866834 1.8407511 -0.779136
		endloop
	endfacet
	facet normal 0.3482103266693959 0.9010030197651112 -0.25873369856851525
		outer loop
			vertex -1.866834 1.8407511 -0.779136
			vertex -1.884577 1.8659461 -0.715277
			vertex -1.805406 1.8265899 -0.745779
		endloop
	endfacet
	facet normal 0.4114957317286626 0.9058315138626042 -0.1007002048780207
		outer loop
			vertex -1.884577 1.8659461 -0.715277
			vertex -1.841693 1.8477041 -0.704131
			vertex -1.805406 1.8265899 -0.745779
		endloop
	endfacet
	facet normal 0.6974744471558643 0.6631975562725176 0.2714744866811286
		outer loop
			vertex -1.805406 1.8265899 -0.745779
			vertex -1.841693 1.8477041 -0.704131
			vertex -1.790458 1.805299 -0.732171
		endloop
	endfacet
	facet normal 0.699479494454847 0.5232939383352629 0.48671541062386936
		outer loop
			vertex -1.841693 1.8477041 -0.704131
			vertex -1.825508 1.822209 -0.69998
			vertex -1.790458 1.805299 -0.732171
		endloop
	endfacet
	facet normal 0.5575822920062304 -0.3101286302687269 0.7700144286496988
		outer loop
			vertex -1.790458 1.805299 -0.732171
			vertex -1.825508 1.822209 -0.69998
			vertex -1.802621 1.781554 -0.732927
		endloop
	endfacet
	facet normal 0.38857569055685404 -0.43814535748867106 0.8105785454966031
		outer loop
			vertex -1.825508 1.822209 -0.69998
			vertex -1.842211 1.7992001 -0.70441
			vertex -1.802621 1.781554 -0.732927
		endloop
	endfacet
	facet normal 0.11071077976056329 -0.7690208586337319 0.6295633742770033
		outer loop
			vertex -1.802621 1.781554 -0.732927
			vertex -1.842211 1.7992001 -0.70441
			vertex -1.837242 1.76443 -0.747756
		endloop
	endfacet
	facet normal 0.0463663659825897 -0.7766091314440191 0.6282741575644626
		outer loop
			vertex -1.842211 1.7992001 -0.70441
			vertex -1.885416 1.787466 -0.715726
			vertex -1.837242 1.76443 -0.747756
		endloop
	endfacet
	facet normal -0.15585154029351853 -0.8820960576965482 0.4445411593816096
		outer loop
			vertex -1.881106 1.760468 -0.770996
			vertex -1.837242 1.76443 -0.747756
			vertex -1.938622 1.791487 -0.72961
		endloop
	endfacet
	facet normal -0.17081965887021178 -0.903564653485098 0.3929269157436526
		outer loop
			vertex -1.837242 1.76443 -0.747756
			vertex -1.885416 1.787466 -0.715726
			vertex -1.938622 1.791487 -0.72961
		endloop
	endfacet
	facet normal -0.3729328654575545 -0.9128991414148021 0.16594045759167617
		outer loop
			vertex -1.881106 1.760468 -0.770996
			vertex -1.938622 1.791487 -0.72961
			vertex -1.917452 1.771176 -0.793771
		endloop
	endfacet
	facet normal -0.41905484363502843 -0.8962355166719087 0.14544736739404773
		outer loop
			vertex -1.938622 1.791487 -0.72961
			vertex -1.9815069 1.8097301 -0.740755
			vertex -1.917452 1.771176 -0.793771
		endloop
	endfacet
	facet normal -0.6681754611910978 -0.6725033824031035 -0.3182463726713139
		outer loop
			vertex -1.917452 1.771176 -0.793771
			vertex -1.9815069 1.8097301 -0.740755
			vertex -1.932399 1.792466 -0.807378
		endloop
	endfacet
	facet normal -0.739955341886955 -0.5358900556859656 -0.40655619566039347
		outer loop
			vertex -1.9815069 1.8097301 -0.740755
			vertex -1.997692 1.8352261 -0.744904
			vertex -1.932399 1.792466 -0.807378
		endloop
	endfacet
	facet normal -0.5466342915081859 0.3048083312129794 -0.7799248890569543
		outer loop
			vertex -1.932399 1.792466 -0.807378
			vertex -1.997692 1.8352261 -0.744904
			vertex -1.9202369 1.816209 -0.806623
		endloop
	endfacet
	facet normal -0.4699137040692559 0.4833083342835529 -0.738643462531125
		outer loop
			vertex -1.997692 1.8352261 -0.744904
			vertex -1.980989 1.858232 -0.740477
			vertex -1.9202369 1.816209 -0.806623
		endloop
	endfacet
	facet normal -0.1208445688031905 -0.42173198967846415 0.8986315813906248
		outer loop
			vertex -1.937783 1.869966 -0.72916
			vertex -1.980989 1.858232 -0.740477
			vertex -1.902396 1.828403 -0.743907
		endloop
	endfacet
	facet normal -0.25322315218766916 -0.5077617321168052 0.8234415939177973
		outer loop
			vertex -1.884577 1.8659461 -0.715277
			vertex -1.937783 1.869966 -0.72916
			vertex -1.902396 1.828403 -0.743907
		endloop
	endfacet
	facet normal -0.3944219903183196 -0.43150036225841076 0.8113191301357289
		outer loop
			vertex -1.841693 1.8477041 -0.704131
			vertex -1.884577 1.8659461 -0.715277
			vertex -1.902396 1.828403 -0.743907
		endloop
	endfacet
	facet normal -0.4988933979805244 -0.17863507920699906 0.8480535867079129
		outer loop
			vertex -1.825508 1.822209 -0.69998
			vertex -1.841693 1.8477041 -0.704131
			vertex -1.902396 1.828403 -0.743907
		endloop
	endfacet
	facet normal -0.4768995427457222 0.18057930942440933 0.8602080789766652
		outer loop
			vertex -1.842211 1.7992001 -0.70441
			vertex -1.825508 1.822209 -0.69998
			vertex -1.902396 1.828403 -0.743907
		endloop
	endfacet
	facet normal -0.3368636467450596 0.4350867531916908 0.8349984435307245
		outer loop
			vertex -1.885416 1.787466 -0.715726
			vertex -1.842211 1.7992001 -0.70441
			vertex -1.902396 1.828403 -0.743907
		endloop
	endfacet
	facet normal -0.18194559073499741 0.5052486622302839 0.8435754805152894
		outer loop
			vertex -1.938622 1.791487 -0.72961
			vertex -1.885416 1.787466 -0.715726
			vertex -1.902396 1.828403 -0.743907
		endloop
	endfacet
	facet normal -0.061017644333597625 0.4119766468207239 0.9091491019378126
		outer loop
			vertex -1.9815069 1.8097301 -0.740755
			vertex -1.938622 1.791487 -0.72961
			vertex -1.902396 1.828403 -0.743907
		endloop
	endfacet
	facet normal 0.0012295667242145343 0.16137882829599867 0.9868917680999683
		outer loop
			vertex -1.997692 1.8352261 -0.744904
			vertex -1.9815069 1.8097301 -0.740755
			vertex -1.902396 1.828403 -0.743907
		endloop
	endfacet
	facet normal -0.02268858881645139 -0.17300435894605168 0.9846596974199685
		outer loop
			vertex -1.980989 1.858232 -0.740477
			vertex -1.997692 1.8352261 -0.744904
			vertex -1.902396 1.828403 -0.743907
		endloop
	endfacet
	facet normal 0.02832904250959771 -0.8834210097272188 0.46772297882724406
		outer loop
			vertex -1.296796 1.614598 -0.999053
			vertex -1.575132 1.661485 -0.893636
			vertex -1.341135 1.60501 -1.014477
		endloop
	endfacet
	facet normal 0.03219930484012629 -0.8801128829774396 0.4736713185162812
		outer loop
			vertex -1.575132 1.661485 -0.893636
			vertex -1.608695 1.648208 -0.916024
			vertex -1.341135 1.60501 -1.014477
		endloop
	endfacet
	facet normal 0.36253243284241865 -0.14864409207022036 0.9200408518266878
		outer loop
			vertex -1.29335 1.6638041 -0.992461
			vertex -1.568289 1.684893 -0.880717
			vertex -1.296796 1.614598 -0.999053
		endloop
	endfacet
	facet normal 0.22440703379623692 -0.520341993189553 0.8239452004267626
		outer loop
			vertex -1.568289 1.684893 -0.880717
			vertex -1.575132 1.661485 -0.893636
			vertex -1.296796 1.614598 -0.999053
		endloop
	endfacet
	facet normal 0.33675558074853684 0.7157105534105628 0.6118448190280454
		outer loop
			vertex -1.32601 1.691161 -1.0064861
			vertex -1.590777 1.709493 -0.882204
			vertex -1.29335 1.6638041 -0.992461
		endloop
	endfacet
	facet normal 0.3721230459379243 0.39105828078598764 0.8417825489463352
		outer loop
			vertex -1.590777 1.709493 -0.882204
			vertex -1.568289 1.684893 -0.880717
			vertex -1.29335 1.6638041 -0.992461
		endloop
	endfacet
	facet normal 0.14644945020929948 0.9841155024403632 0.10034558480544055
		outer loop
			vertex -1.384565 1.702513 -1.03236
			vertex -1.634007 1.725885 -0.897527
			vertex -1.32601 1.691161 -1.0064861
		endloop
	endfacet
	facet normal 0.22422925856576534 0.912123337731016 0.34315048647711155
		outer loop
			vertex -1.634007 1.725885 -0.897527
			vertex -1.590777 1.709493 -0.882204
			vertex -1.32601 1.691161 -1.0064861
		endloop
	endfacet
	facet normal -0.019334013625678104 0.9627047107924294 -0.2698626238203194
		outer loop
			vertex -1.446784 1.693532 -1.0599411
			vertex -1.681468 1.7278121 -0.920837
			vertex -1.384565 1.702513 -1.03236
		endloop
	endfacet
	facet normal 0.06565040296725869 0.9965239410877327 -0.05128410503469846
		outer loop
			vertex -1.681468 1.7278121 -0.920837
			vertex -1.634007 1.725885 -0.897527
			vertex -1.384565 1.702513 -1.03236
		endloop
	endfacet
	facet normal -0.20408437033754764 0.767875651621813 -0.6072203499803863
		outer loop
			vertex -1.489018 1.667643 -1.078485
			vertex -1.715031 1.714533 -0.943227
			vertex -1.446784 1.693532 -1.0599411
		endloop
	endfacet
	facet normal -0.09945489421381688 0.9141176583976923 -0.3930618661514221
		outer loop
			vertex -1.715031 1.714533 -0.943227
			vertex -1.681468 1.7278121 -0.920837
			vertex -1.446784 1.693532 -1.0599411
		endloop
	endfacet
	facet normal -0.4467094845177896 0.15812947717386436 -0.8805939500647113
		outer loop
			vertex -1.494851 1.634737 -1.081435
			vertex -1.721874 1.691123 -0.956145
			vertex -1.489018 1.667643 -1.078485
		endloop
	endfacet
	facet normal -0.3522822094005763 0.5290024048509671 -0.7720451415569832
		outer loop
			vertex -1.721874 1.691123 -0.956145
			vertex -1.715031 1.714533 -0.943227
			vertex -1.489018 1.667643 -1.078485
		endloop
	endfacet
	facet normal -0.4247294470096922 -0.7578699617954053 -0.4952151228012654
		outer loop
			vertex -1.4620171 1.6073821 -1.067732
			vertex -1.699386 1.666523 -0.954657
			vertex -1.494851 1.634737 -1.081435
		endloop
	endfacet
	facet normal -0.5094972207438815 -0.5077745695980398 -0.6946780322737909
		outer loop
			vertex -1.699386 1.666523 -0.954657
			vertex -1.721874 1.691123 -0.956145
			vertex -1.494851 1.634737 -1.081435
		endloop
	endfacet
	facet normal -0.2144361133806354 -0.9749086100847167 0.059752449831727214
		outer loop
			vertex -1.4620171 1.6073821 -1.067732
			vertex -1.403278 1.596027 -1.0422
			vertex -1.699386 1.666523 -0.954657
		endloop
	endfacet
	facet normal -0.28326158057778444 -0.9372279208444522 -0.2033880560853089
		outer loop
			vertex -1.403278 1.596027 -1.0422
			vertex -1.656155 1.6501319 -0.939334
			vertex -1.699386 1.666523 -0.954657
		endloop
	endfacet
	facet normal -0.02165233469559892 -0.9358355752352849 0.3517711650011599
		outer loop
			vertex -1.341135 1.60501 -1.014477
			vertex -1.608695 1.648208 -0.916024
			vertex -1.403278 1.596027 -1.0422
		endloop
	endfacet
	facet normal -0.13177848074712298 -0.9732933716880562 0.18797458509084544
		outer loop
			vertex -1.608695 1.648208 -0.916024
			vertex -1.656155 1.6501319 -0.939334
			vertex -1.403278 1.596027 -1.0422
		endloop
	endfacet
	facet normal 0.15126715893242898 -0.9876783251362792 0.040121972589912895
		outer loop
			vertex -1.258324 1.61036 -1.2358691
			vertex -1.191308 1.621752 -1.208096
			vertex -1.403278 1.596027 -1.0422
		endloop
	endfacet
	facet normal 0.1348657057200904 -0.9906874370012617 0.018698759009440277
		outer loop
			vertex -1.191308 1.621752 -1.208096
			vertex -1.341135 1.60501 -1.014477
			vertex -1.403278 1.596027 -1.0422
		endloop
	endfacet
	facet normal 0.39038605743841265 -0.9055607680344029 0.16600729367902803
		outer loop
			vertex -1.145699 1.6468199 -1.178607
			vertex -1.296796 1.614598 -0.999053
			vertex -1.191308 1.621752 -1.208096
		endloop
	endfacet
	facet normal 0.19015244197228356 -0.9797679057405537 0.06242515272505765
		outer loop
			vertex -1.296796 1.614598 -0.999053
			vertex -1.341135 1.60501 -1.014477
			vertex -1.191308 1.621752 -1.208096
		endloop
	endfacet
	facet normal 0.634033531273838 -0.5412626265705789 0.5523008693622936
		outer loop
			vertex -1.140123 1.675987 -1.156424
			vertex -1.29335 1.6638041 -0.992461
			vertex -1.145699 1.6468199 -1.178607
		endloop
	endfacet
	facet normal 0.76988734079911 -0.1374066168965867 0.6232117650608899
		outer loop
			vertex -1.29335 1.6638041 -0.992461
			vertex -1.296796 1.614598 -0.999053
			vertex -1.145699 1.6468199 -1.178607
		endloop
	endfacet
	facet normal 0.5047092976236307 0.6577346903110388 0.5591543633503214
		outer loop
			vertex -1.177332 1.698114 -1.1488661
			vertex -1.32601 1.691161 -1.0064861
			vertex -1.140123 1.675987 -1.156424
		endloop
	endfacet
	facet normal 0.44037960453903263 0.7659093384222869 0.46845350807052377
		outer loop
			vertex -1.32601 1.691161 -1.0064861
			vertex -1.29335 1.6638041 -0.992461
			vertex -1.140123 1.675987 -1.156424
		endloop
	endfacet
	facet normal 0.0820151712733743 0.990710082682951 0.10847600541750882
		outer loop
			vertex -1.242304 1.704747 -1.160322
			vertex -1.384565 1.702513 -1.03236
			vertex -1.177332 1.698114 -1.1488661
		endloop
	endfacet
	facet normal 0.11541124851742966 0.978952374496742 0.16832258369820366
		outer loop
			vertex -1.384565 1.702513 -1.03236
			vertex -1.32601 1.691161 -1.0064861
			vertex -1.177332 1.698114 -1.1488661
		endloop
	endfacet
	facet normal -0.11571068327224705 0.9853068111624702 -0.12562454240121382
		outer loop
			vertex -1.309492 1.693356 -1.1877789
			vertex -1.446784 1.693532 -1.0599411
			vertex -1.242304 1.704747 -1.160322
		endloop
	endfacet
	facet normal -0.10089482415779372 0.9903626494652646 -0.09487917053974154
		outer loop
			vertex -1.446784 1.693532 -1.0599411
			vertex -1.384565 1.702513 -1.03236
			vertex -1.242304 1.704747 -1.160322
		endloop
	endfacet
	facet normal -0.30492377860236747 0.9080277617857503 -0.2872404446961033
		outer loop
			vertex -1.353428 1.66829 -1.220377
			vertex -1.489018 1.667643 -1.078485
			vertex -1.309492 1.693356 -1.1877789
		endloop
	endfacet
	facet normal -0.3550031877548961 0.8530642841841501 -0.38243177657360783
		outer loop
			vertex -1.489018 1.667643 -1.078485
			vertex -1.446784 1.693532 -1.0599411
			vertex -1.309492 1.693356 -1.1877789
		endloop
	endfacet
	facet normal -0.6507879942819185 0.5422366648592006 -0.5314643786566401
		outer loop
			vertex -1.357825 1.639122 -1.244752
			vertex -1.494851 1.634737 -1.081435
			vertex -1.353428 1.66829 -1.220377
		endloop
	endfacet
	facet normal -0.7106813844022788 0.1867831875962109 -0.678265442651665
		outer loop
			vertex -1.494851 1.634737 -1.081435
			vertex -1.489018 1.667643 -1.078485
			vertex -1.353428 1.66829 -1.220377
		endloop
	endfacet
	facet normal -0.819243766562827 -0.23300066077064097 -0.5239755175849318
		outer loop
			vertex -1.345643 1.602242 -1.247399
			vertex -1.4620171 1.6073821 -1.067732
			vertex -1.357825 1.639122 -1.244752
		endloop
	endfacet
	facet normal -0.4725449672656584 -0.776240169600383 -0.4173157713418784
		outer loop
			vertex -1.4620171 1.6073821 -1.067732
			vertex -1.494851 1.634737 -1.081435
			vertex -1.357825 1.639122 -1.244752
		endloop
	endfacet
	facet normal 0.09309422241043987 -0.9956492355485181 -0.0040081798171930074
		outer loop
			vertex -1.258324 1.61036 -1.2358691
			vertex -1.403278 1.596027 -1.0422
			vertex -1.345643 1.602242 -1.247399
		endloop
	endfacet
	facet normal -0.15808105400656103 -0.9846325817730794 -0.074223037360746
		outer loop
			vertex -1.403278 1.596027 -1.0422
			vertex -1.4620171 1.6073821 -1.067732
			vertex -1.345643 1.602242 -1.247399
		endloop
	endfacet
	facet normal 0.39627560330883455 -0.8889075494690629 0.2298021207890062
		outer loop
			vertex -1.095651 1.6338511 -1.315076
			vertex -1.145699 1.6468199 -1.178607
			vertex -1.150617 1.608476 -1.318446
		endloop
	endfacet
	facet normal 0.345911678283974 -0.9078986679763911 0.23678074143278516
		outer loop
			vertex -1.145699 1.6468199 -1.178607
			vertex -1.191308 1.621752 -1.208096
			vertex -1.150617 1.608476 -1.318446
		endloop
	endfacet
	facet normal 0.9031103062326455 -0.27825791061641675 0.3270539863015941
		outer loop
			vertex -1.0820529 1.666478 -1.3248661
			vertex -1.140123 1.675987 -1.156424
			vertex -1.095651 1.6338511 -1.315076
		endloop
	endfacet
	facet normal 0.8365649959856806 -0.4239023622561028 0.34708182718945946
		outer loop
			vertex -1.140123 1.675987 -1.156424
			vertex -1.145699 1.6468199 -1.178607
			vertex -1.095651 1.6338511 -1.315076
		endloop
	endfacet
	facet normal 0.39109813341395877 0.9191733956512811 0.046502889878056675
		outer loop
			vertex -1.135559 1.687766 -1.295647
			vertex -1.177332 1.698114 -1.1488661
			vertex -1.0820529 1.666478 -1.3248661
		endloop
	endfacet
	facet normal 0.5264874522713892 0.8395386199153092 0.13411140246630784
		outer loop
			vertex -1.177332 1.698114 -1.1488661
			vertex -1.140123 1.675987 -1.156424
			vertex -1.0820529 1.666478 -1.3248661
		endloop
	endfacet
	facet normal 0.10677903145060502 0.9934602540694609 -0.04043466367750666
		outer loop
			vertex -1.2042691 1.6948169 -1.303858
			vertex -1.242304 1.704747 -1.160322
			vertex -1.135559 1.687766 -1.295647
		endloop
	endfacet
	facet normal 0.10832263888986189 0.9933425323712981 -0.03920228674597164
		outer loop
			vertex -1.242304 1.704747 -1.160322
			vertex -1.177332 1.698114 -1.1488661
			vertex -1.135559 1.687766 -1.295647
		endloop
	endfacet
	facet normal -0.191275647901376 0.9682085053256533 -0.16120147869971072
		outer loop
			vertex -1.2729549 1.6794 -1.314955
			vertex -1.309492 1.693356 -1.1877789
			vertex -1.2042691 1.6948169 -1.303858
		endloop
	endfacet
	facet normal -0.125787193473636 0.986840592229453 -0.10160328482017159
		outer loop
			vertex -1.309492 1.693356 -1.1877789
			vertex -1.242304 1.704747 -1.160322
			vertex -1.2042691 1.6948169 -1.303858
		endloop
	endfacet
	facet normal -0.5148889720292344 0.7843455186502336 -0.34596452687519036
		outer loop
			vertex -1.316328 1.647408 -1.322934
			vertex -1.353428 1.66829 -1.220377
			vertex -1.2729549 1.6794 -1.314955
		endloop
	endfacet
	facet normal -0.36599007271962225 0.9078112272024242 -0.20476826520707309
		outer loop
			vertex -1.353428 1.66829 -1.220377
			vertex -1.309492 1.693356 -1.1877789
			vertex -1.2729549 1.6794 -1.314955
		endloop
	endfacet
	facet normal -0.8843184215677159 0.05993020872074965 -0.46302192103470746
		outer loop
			vertex -1.318565 1.6110539 -1.323367
			vertex -1.357825 1.639122 -1.244752
			vertex -1.316328 1.647408 -1.322934
		endloop
	endfacet
	facet normal -0.810652023538932 0.4425748776456045 -0.3833676752273372
		outer loop
			vertex -1.357825 1.639122 -1.244752
			vertex -1.353428 1.66829 -1.220377
			vertex -1.316328 1.647408 -1.322934
		endloop
	endfacet
	facet normal -0.5028392719011454 -0.819698270125139 -0.2743126183531865
		outer loop
			vertex -1.278801 1.584231 -1.316106
			vertex -1.345643 1.602242 -1.247399
			vertex -1.318565 1.6110539 -1.323367
		endloop
	endfacet
	facet normal -0.896364483602939 -0.2708953628976352 -0.3509222348267425
		outer loop
			vertex -1.345643 1.602242 -1.247399
			vertex -1.357825 1.639122 -1.244752
			vertex -1.318565 1.6110539 -1.323367
		endloop
	endfacet
	facet normal -0.003648781949688514 -0.9505718682820051 0.3104831873405419
		outer loop
			vertex -1.200205 1.578846 -1.331669
			vertex -1.258324 1.61036 -1.2358691
			vertex -1.278801 1.584231 -1.316106
		endloop
	endfacet
	facet normal 0.04929910371413538 -0.9533327332438523 0.297869599151691
		outer loop
			vertex -1.258324 1.61036 -1.2358691
			vertex -1.345643 1.602242 -1.247399
			vertex -1.278801 1.584231 -1.316106
		endloop
	endfacet
	facet normal 0.35283110474878565 -0.8040520286681455 0.4785504641272344
		outer loop
			vertex -1.200205 1.578846 -1.331669
			vertex -1.150617 1.608476 -1.318446
			vertex -1.258324 1.61036 -1.2358691
		endloop
	endfacet
	facet normal 0.10237683662451405 -0.9824456624681974 0.15594711802461228
		outer loop
			vertex -1.150617 1.608476 -1.318446
			vertex -1.191308 1.621752 -1.208096
			vertex -1.258324 1.61036 -1.2358691
		endloop
	endfacet
	facet normal -0.004759068848227585 -0.7974056511802528 0.6034248741388566
		outer loop
			vertex -1.679526 1.70494 -0.833199
			vertex -1.802621 1.781554 -0.732927
			vertex -1.713473 1.690272 -0.85285
		endloop
	endfacet
	facet normal 0.09667537488618647 -0.7560420116817202 0.6473440727023558
		outer loop
			vertex -1.802621 1.781554 -0.732927
			vertex -1.837242 1.76443 -0.747756
			vertex -1.713473 1.690272 -0.85285
		endloop
	endfacet
	facet normal 0.36037967663959386 -0.4332487964631195 0.826088354250561
		outer loop
			vertex -1.670758 1.728471 -0.824683
			vertex -1.790458 1.805299 -0.732171
			vertex -1.679526 1.70494 -0.833199
		endloop
	endfacet
	facet normal 0.4955136348072919 -0.27999750395666384 0.8222333218120658
		outer loop
			vertex -1.790458 1.805299 -0.732171
			vertex -1.802621 1.781554 -0.732927
			vertex -1.679526 1.70494 -0.833199
		endloop
	endfacet
	facet normal 0.6755645831671526 0.6552573072202397 0.3380094012075285
		outer loop
			vertex -1.690515 1.7518719 -0.83056
			vertex -1.805406 1.8265899 -0.745779
			vertex -1.670758 1.728471 -0.824683
		endloop
	endfacet
	facet normal 0.6721594441026066 0.6714032296748528 0.31212078573182495
		outer loop
			vertex -1.805406 1.8265899 -0.745779
			vertex -1.790458 1.805299 -0.732171
			vertex -1.670758 1.728471 -0.824683
		endloop
	endfacet
	facet normal 0.39841763034246414 0.8981077984818091 -0.18618747041209346
		outer loop
			vertex -1.731253 1.7662081 -0.848581
			vertex -1.866834 1.8407511 -0.779136
			vertex -1.690515 1.7518719 -0.83056
		endloop
	endfacet
	facet normal 0.3618750250246786 0.8858659639155639 -0.2903238885096045
		outer loop
			vertex -1.866834 1.8407511 -0.779136
			vertex -1.805406 1.8265899 -0.745779
			vertex -1.690515 1.7518719 -0.83056
		endloop
	endfacet
	facet normal 0.20228953065854077 0.8898280128515853 -0.4090049551418004
		outer loop
			vertex -1.777411 1.766 -0.871863
			vertex -1.919174 1.833762 -0.794555
			vertex -1.731253 1.7662081 -0.848581
		endloop
	endfacet
	facet normal 0.0881574910639936 0.7601058722520649 -0.6437913635155644
		outer loop
			vertex -1.919174 1.833762 -0.794555
			vertex -1.866834 1.8407511 -0.779136
			vertex -1.731253 1.7662081 -0.848581
		endloop
	endfacet
	facet normal 0.004702681878278853 0.7974217192098649 -0.6034040822827892
		outer loop
			vertex -1.811359 1.7513289 -0.891516
			vertex -1.9202369 1.816209 -0.806623
			vertex -1.777411 1.766 -0.871863
		endloop
	endfacet
	facet normal -0.17000265737468126 0.5652615133570408 -0.8072041365124776
		outer loop
			vertex -1.9202369 1.816209 -0.806623
			vertex -1.919174 1.833762 -0.794555
			vertex -1.777411 1.766 -0.871863
		endloop
	endfacet
	facet normal -0.40639462756478373 0.4409770076667282 -0.8002391426291138
		outer loop
			vertex -1.820127 1.7278 -0.900029
			vertex -1.932399 1.792466 -0.807378
			vertex -1.811359 1.7513289 -0.891516
		endloop
	endfacet
	facet normal -0.48422211861876563 0.2744556373637926 -0.830784594801558
		outer loop
			vertex -1.932399 1.792466 -0.807378
			vertex -1.9202369 1.816209 -0.806623
			vertex -1.811359 1.7513289 -0.891516
		endloop
	endfacet
	facet normal -0.6714723364800849 -0.6542634469230142 -0.34794287370542887
		outer loop
			vertex -1.800369 1.704399 -0.894156
			vertex -1.917452 1.771176 -0.793771
			vertex -1.820127 1.7278 -0.900029
		endloop
	endfacet
	facet normal -0.660574306462471 -0.6744899268704436 -0.3297042981095775
		outer loop
			vertex -1.917452 1.771176 -0.793771
			vertex -1.932399 1.792466 -0.807378
			vertex -1.820127 1.7278 -0.900029
		endloop
	endfacet
	facet normal -0.3875321275423928 -0.9091120089821646 0.15275537714555154
		outer loop
			vertex -1.800369 1.704399 -0.894156
			vertex -1.759632 1.690062 -0.876134
			vertex -1.917452 1.771176 -0.793771
		endloop
	endfacet
	facet normal -0.3769219524624583 -0.9097999996511223 0.1737636394263948
		outer loop
			vertex -1.759632 1.690062 -0.876134
			vertex -1.881106 1.760468 -0.770996
			vertex -1.917452 1.771176 -0.793771
		endloop
	endfacet
	facet normal -0.19013559888517917 -0.9030861952335785 0.3850763275184719
		outer loop
			vertex -1.759632 1.690062 -0.876134
			vertex -1.713473 1.690272 -0.85285
			vertex -1.881106 1.760468 -0.770996
		endloop
	endfacet
	facet normal -0.1542904074964044 -0.8837111534585974 0.4418699666275917
		outer loop
			vertex -1.713473 1.690272 -0.85285
			vertex -1.837242 1.76443 -0.747756
			vertex -1.881106 1.760468 -0.770996
		endloop
	endfacet
	facet normal -0.1824519526225592 -0.9382164915339802 0.29404268397272587
		outer loop
			vertex -1.656155 1.6501319 -0.939334
			vertex -1.608695 1.648208 -0.916024
			vertex -1.759632 1.690062 -0.876134
		endloop
	endfacet
	facet normal -0.16699330685990307 -0.9256994000040601 0.3394022043182949
		outer loop
			vertex -1.608695 1.648208 -0.916024
			vertex -1.713473 1.690272 -0.85285
			vertex -1.759632 1.690062 -0.876134
		endloop
	endfacet
	facet normal -0.0326946418705326 -0.8373930354799652 0.5456225476669814
		outer loop
			vertex -1.575132 1.661485 -0.893636
			vertex -1.679526 1.70494 -0.833199
			vertex -1.608695 1.648208 -0.916024
		endloop
	endfacet
	facet normal 0.019443776675566835 -0.8170320963026114 0.5762642563615681
		outer loop
			vertex -1.679526 1.70494 -0.833199
			vertex -1.713473 1.690272 -0.85285
			vertex -1.608695 1.648208 -0.916024
		endloop
	endfacet
	facet normal 0.22836164157131672 -0.5207540926354399 0.822597189189395
		outer loop
			vertex -1.568289 1.684893 -0.880717
			vertex -1.670758 1.728471 -0.824683
			vertex -1.575132 1.661485 -0.893636
		endloop
	endfacet
	facet normal 0.31476713027851194 -0.42452351570609215 0.8489413632924067
		outer loop
			vertex -1.670758 1.728471 -0.824683
			vertex -1.679526 1.70494 -0.833199
			vertex -1.575132 1.661485 -0.893636
		endloop
	endfacet
	facet normal 0.5563334555613785 0.5464125457669498 0.6260402671167541
		outer loop
			vertex -1.590777 1.709493 -0.882204
			vertex -1.690515 1.7518719 -0.83056
			vertex -1.568289 1.684893 -0.880717
		endloop
	endfacet
	facet normal 0.5633640469309843 0.6143753010722984 0.5524164552743396
		outer loop
			vertex -1.690515 1.7518719 -0.83056
			vertex -1.670758 1.728471 -0.824683
			vertex -1.568289 1.684893 -0.880717
		endloop
	endfacet
	facet normal 0.36617186219817466 0.929752707266289 -0.038445684612548124
		outer loop
			vertex -1.634007 1.725885 -0.897527
			vertex -1.731253 1.7662081 -0.848581
			vertex -1.590777 1.709493 -0.882204
		endloop
	endfacet
	facet normal 0.35882905637550294 0.9307179379577293 -0.07075187816855859
		outer loop
			vertex -1.731253 1.7662081 -0.848581
			vertex -1.690515 1.7518719 -0.83056
			vertex -1.590777 1.709493 -0.882204
		endloop
	endfacet
	facet normal 0.19923633840784957 0.9229451858068123 -0.3293585666926878
		outer loop
			vertex -1.681468 1.7278121 -0.920837
			vertex -1.777411 1.766 -0.871863
			vertex -1.634007 1.725885 -0.897527
		endloop
	endfacet
	facet normal 0.18623514850987585 0.9071591582805772 -0.3773310628707627
		outer loop
			vertex -1.777411 1.766 -0.871863
			vertex -1.731253 1.7662081 -0.848581
			vertex -1.634007 1.725885 -0.897527
		endloop
	endfacet
	facet normal 0.0295927933936248 0.8396406044319602 -0.5423356174623744
		outer loop
			vertex -1.715031 1.714533 -0.943227
			vertex -1.811359 1.7513289 -0.891516
			vertex -1.681468 1.7278121 -0.920837
		endloop
	endfacet
	facet normal 0.007174009983705722 0.7953410504750259 -0.6061197464280766
		outer loop
			vertex -1.811359 1.7513289 -0.891516
			vertex -1.777411 1.766 -0.871863
			vertex -1.681468 1.7278121 -0.920837
		endloop
	endfacet
	facet normal -0.26630586797078637 0.5241996943890669 -0.8088855698346553
		outer loop
			vertex -1.721874 1.691123 -0.956145
			vertex -1.820127 1.7278 -0.900029
			vertex -1.715031 1.714533 -0.943227
		endloop
	endfacet
	facet normal -0.29881448306758657 0.42118437708659784 -0.8563373314338373
		outer loop
			vertex -1.820127 1.7278 -0.900029
			vertex -1.811359 1.7513289 -0.891516
			vertex -1.715031 1.714533 -0.943227
		endloop
	endfacet
	facet normal -0.5704094592583664 -0.5579003894363203 -0.6028102555990404
		outer loop
			vertex -1.699386 1.666523 -0.954657
			vertex -1.800369 1.704399 -0.894156
			vertex -1.721874 1.691123 -0.956145
		endloop
	endfacet
	facet normal -0.5523824366942479 -0.6091918512684168 -0.5689981827562232
		outer loop
			vertex -1.800369 1.704399 -0.894156
			vertex -1.820127 1.7278 -0.900029
			vertex -1.721874 1.691123 -0.956145
		endloop
	endfacet
	facet normal -0.3565354663916585 -0.9342590634037319 0.006516414110879031
		outer loop
			vertex -1.656155 1.6501319 -0.939334
			vertex -1.759632 1.690062 -0.876134
			vertex -1.699386 1.666523 -0.954657
		endloop
	endfacet
	facet normal -0.340115303889597 -0.9401518806605013 0.020881124265945628
		outer loop
			vertex -1.759632 1.690062 -0.876134
			vertex -1.800369 1.704399 -0.894156
			vertex -1.699386 1.666523 -0.954657
		endloop
	endfacet
	facet normal 0.6128509213340627 0.2310717773695459 -0.7556583764660256
		outer loop
			vertex 1.959632 1.8542449 -0.995234
			vertex 1.959322 1.8747081 -0.989228
			vertex 2.014905 1.908919 -0.933688
		endloop
	endfacet
	facet normal 0.30459560488798343 0.6441681189501228 -0.7016188081937257
		outer loop
			vertex 1.959322 1.8747081 -0.989228
			vertex 1.972693 1.927609 -0.934854
			vertex 2.014905 1.908919 -0.933688
		endloop
	endfacet
	facet normal 0.18154908530683309 0.6821511673472075 -0.7083147001941259
		outer loop
			vertex 1.959322 1.8747081 -0.989228
			vertex 1.906846 1.891052 -0.986938
			vertex 1.972693 1.927609 -0.934854
		endloop
	endfacet
	facet normal 0.03751361014403099 0.7950114268267312 -0.6054333656719678
		outer loop
			vertex 1.906846 1.891052 -0.986938
			vertex 1.917974 1.933145 -0.930975
			vertex 1.972693 1.927609 -0.934854
		endloop
	endfacet
	facet normal -0.1659121938703397 0.8036620593886699 -0.571489665894575
		outer loop
			vertex 1.906846 1.891052 -0.986938
			vertex 1.839559 1.893857 -0.963459
			vertex 1.917974 1.933145 -0.930975
		endloop
	endfacet
	facet normal -0.2515821670948512 0.8635197532607696 -0.43708128412037733
		outer loop
			vertex 1.839559 1.893857 -0.963459
			vertex 1.871648 1.923414 -0.923535
			vertex 1.917974 1.933145 -0.930975
		endloop
	endfacet
	facet normal -0.624842814717766 0.7773071662742049 -0.07324633884601511
		outer loop
			vertex 1.839559 1.893857 -0.963459
			vertex 1.819679 1.879388 -0.947417
			vertex 1.871648 1.923414 -0.923535
		endloop
	endfacet
	facet normal -0.6811354059966928 0.7124145831054777 0.16887871528516885
		outer loop
			vertex 1.819679 1.879388 -0.947417
			vertex 1.8514121 1.902132 -0.915374
			vertex 1.871648 1.923414 -0.923535
		endloop
	endfacet
	facet normal -0.7104448757956738 -0.0002520639325853801 0.7037528081076789
		outer loop
			vertex 1.819679 1.879388 -0.947417
			vertex 1.828148 1.855565 -0.938876
			vertex 1.8514121 1.902132 -0.915374
		endloop
	endfacet
	facet normal -0.5707821633862703 -0.1244618374234886 0.8116138077837627
		outer loop
			vertex 1.828148 1.855565 -0.938876
			vertex 1.8649909 1.877427 -0.909613
			vertex 1.8514121 1.902132 -0.915374
		endloop
	endfacet
	facet normal -0.32037657707431616 -0.5199711707920195 0.791826262766853
		outer loop
			vertex 1.828148 1.855565 -0.938876
			vertex 1.861725 1.83149 -0.9411
			vertex 1.8649909 1.877427 -0.909613
		endloop
	endfacet
	facet normal -0.2585086478009387 -0.5335848470221936 0.8052704452793686
		outer loop
			vertex 1.861725 1.83149 -0.9411
			vertex 1.907204 1.858737 -0.908446
			vertex 1.8649909 1.877427 -0.909613
		endloop
	endfacet
	facet normal -0.04810530201399104 -0.7096158268669813 0.7029447049221107
		outer loop
			vertex 1.907588 1.81636 -0.953235
			vertex 1.961923 1.853202 -0.912325
			vertex 1.861725 1.83149 -0.9411
		endloop
	endfacet
	facet normal -0.028577496375104528 -0.7475611302269642 0.6635779406179163
		outer loop
			vertex 1.961923 1.853202 -0.912325
			vertex 1.907204 1.858737 -0.908446
			vertex 1.861725 1.83149 -0.9411
		endloop
	endfacet
	facet normal 0.20270749940429886 -0.8461906644466521 0.49281946906406765
		outer loop
			vertex 1.907588 1.81636 -0.953235
			vertex 1.948218 1.81595 -0.970651
			vertex 1.961923 1.853202 -0.912325
		endloop
	endfacet
	facet normal 0.25343968502205494 -0.8411750339482535 0.4776953928164645
		outer loop
			vertex 1.948218 1.81595 -0.970651
			vertex 2.008249 1.862934 -0.919766
			vertex 1.961923 1.853202 -0.912325
		endloop
	endfacet
	facet normal 0.6021496036313714 -0.7979468510256146 0.026394654475633814
		outer loop
			vertex 1.948218 1.81595 -0.970651
			vertex 1.968099 1.830422 -0.986694
			vertex 2.008249 1.862934 -0.919766
		endloop
	endfacet
	facet normal 0.7063077025575846 -0.7031217950906086 -0.08215333575934113
		outer loop
			vertex 1.968099 1.830422 -0.986694
			vertex 2.028486 1.884216 -0.927925
			vertex 2.008249 1.862934 -0.919766
		endloop
	endfacet
	facet normal 0.7005390735547968 -0.006822054778180383 -0.7135814361315675
		outer loop
			vertex 1.968099 1.830422 -0.986694
			vertex 1.959632 1.8542449 -0.995234
			vertex 2.028486 1.884216 -0.927925
		endloop
	endfacet
	facet normal 0.6457147625681889 0.1819926586803347 -0.7415734067426979
		outer loop
			vertex 1.959632 1.8542449 -0.995234
			vertex 2.014905 1.908919 -0.933688
			vertex 2.028486 1.884216 -0.927925
		endloop
	endfacet
	facet normal -0.08455016146203703 -0.1293222812504297 0.9879914057161269
		outer loop
			vertex 1.972693 1.927609 -0.934854
			vertex 1.934253 1.8870389 -0.943454
			vertex 2.014905 1.908919 -0.933688
		endloop
	endfacet
	facet normal 0.04368032173065595 -0.24660991809944988 0.9681299384837189
		outer loop
			vertex 1.917974 1.933145 -0.930975
			vertex 1.934253 1.8870389 -0.943454
			vertex 1.972693 1.927609 -0.934854
		endloop
	endfacet
	facet normal 0.1947389025501741 -0.19160432225417476 0.9619587015704324
		outer loop
			vertex 1.871648 1.923414 -0.923535
			vertex 1.934253 1.8870389 -0.943454
			vertex 1.917974 1.933145 -0.930975
		endloop
	endfacet
	facet normal 0.32865808758147275 0.049173095506061394 0.9431679957174337
		outer loop
			vertex 1.8514121 1.902132 -0.915374
			vertex 1.934253 1.8870389 -0.943454
			vertex 1.871648 1.923414 -0.923535
		endloop
	endfacet
	facet normal 0.3586420756212043 0.3944165178409048 0.8460564236789234
		outer loop
			vertex 1.8649909 1.877427 -0.909613
			vertex 1.934253 1.8870389 -0.943454
			vertex 1.8514121 1.902132 -0.915374
		endloop
	endfacet
	facet normal 0.26359561805621934 0.6403987658753181 0.7213922447648917
		outer loop
			vertex 1.907204 1.858737 -0.908446
			vertex 1.934253 1.8870389 -0.943454
			vertex 1.8649909 1.877427 -0.909613
		endloop
	endfacet
	facet normal 0.12137086405207095 0.7239731707960692 0.6790669785276998
		outer loop
			vertex 1.961923 1.853202 -0.912325
			vertex 1.934253 1.8870389 -0.943454
			vertex 1.907204 1.858737 -0.908446
		endloop
	endfacet
	facet normal -0.020729990762915654 0.6676658758896901 0.7441723897427414
		outer loop
			vertex 2.008249 1.862934 -0.919766
			vertex 1.934253 1.8870389 -0.943454
			vertex 1.961923 1.853202 -0.912325
		endloop
	endfacet
	facet normal -0.13083898678190062 0.46091998305063114 0.8777436577740061
		outer loop
			vertex 2.028486 1.884216 -0.927925
			vertex 1.934253 1.8870389 -0.943454
			vertex 2.008249 1.862934 -0.919766
		endloop
	endfacet
	facet normal -0.15682044133538564 0.14180238795240868 0.9773942049911948
		outer loop
			vertex 2.014905 1.908919 -0.933688
			vertex 1.934253 1.8870389 -0.943454
			vertex 2.028486 1.884216 -0.927925
		endloop
	endfacet
	facet normal -0.10850360416397564 -0.6589515212125656 0.744318386562547
		outer loop
			vertex 1.384228 1.661132 -1.178171
			vertex 1.424572 1.643399 -1.187989
			vertex 1.613169 1.713255 -1.098652
		endloop
	endfacet
	facet normal -0.15157959185550188 -0.597635071011552 0.787309309756932
		outer loop
			vertex 1.424572 1.643399 -1.187989
			vertex 1.64746 1.690554 -1.109282
			vertex 1.613169 1.713255 -1.098652
		endloop
	endfacet
	facet normal -0.4022092457317764 0.1933011570453019 0.894909149206121
		outer loop
			vertex 1.386779 1.7100509 -1.187591
			vertex 1.384228 1.661132 -1.178171
			vertex 1.607954 1.740061 -1.094668
		endloop
	endfacet
	facet normal -0.2820330958403812 -0.19449758496338537 0.9394828483235345
		outer loop
			vertex 1.384228 1.661132 -1.178171
			vertex 1.613169 1.713255 -1.098652
			vertex 1.607954 1.740061 -1.094668
		endloop
	endfacet
	facet normal -0.2984412496595799 0.9004364281073747 0.3164602019825889
		outer loop
			vertex 1.4222521 1.728627 -1.206993
			vertex 1.386779 1.7100509 -1.187591
			vertex 1.6338021 1.7607369 -1.098852
		endloop
	endfacet
	facet normal -0.3757092130136715 0.6107444739065099 0.6970177722621628
		outer loop
			vertex 1.386779 1.7100509 -1.187591
			vertex 1.607954 1.740061 -1.094668
			vertex 1.6338021 1.7607369 -1.098852
		endloop
	endfacet
	facet normal -0.060517075393478746 0.97220091960979 -0.22619251865545573
		outer loop
			vertex 1.479486 1.7261291 -1.233042
			vertex 1.4222521 1.728627 -1.206993
			vertex 1.68084 1.767382 -1.109604
		endloop
	endfacet
	facet normal -0.14301943496500102 0.9896199575454809 -0.014063457966392752
		outer loop
			vertex 1.4222521 1.728627 -1.206993
			vertex 1.6338021 1.7607369 -1.098852
			vertex 1.68084 1.767382 -1.109604
		endloop
	endfacet
	facet normal 0.1227121831810668 0.8450982500925959 -0.5203370713195139
		outer loop
			vertex 1.536294 1.703512 -1.2563781
			vertex 1.479486 1.7261291 -1.233042
			vertex 1.731104 1.757458 -1.12282
		endloop
	endfacet
	facet normal 0.06951229112826046 0.9065410034075086 -0.4163549573657164
		outer loop
			vertex 1.479486 1.7261291 -1.233042
			vertex 1.68084 1.767382 -1.109604
			vertex 1.731104 1.757458 -1.12282
		endloop
	endfacet
	facet normal 0.3277032066912744 0.5678803066303698 -0.7550646102590512
		outer loop
			vertex 1.571782 1.669414 -1.266621
			vertex 1.536294 1.703512 -1.2563781
			vertex 1.765394 1.7347569 -1.133448
		endloop
	endfacet
	facet normal 0.2597206380070397 0.7025121336756451 -0.6625872714078569
		outer loop
			vertex 1.536294 1.703512 -1.2563781
			vertex 1.731104 1.757458 -1.12282
			vertex 1.765394 1.7347569 -1.133448
		endloop
	endfacet
	facet normal 0.5594085806077704 -0.1593655275073589 -0.8134277279418872
		outer loop
			vertex 1.572428 1.636861 -1.259799
			vertex 1.571782 1.669414 -1.266621
			vertex 1.770611 1.707952 -1.1374331
		endloop
	endfacet
	facet normal 0.5006637943607283 0.22184108622309362 -0.8367331100653759
		outer loop
			vertex 1.571782 1.669414 -1.266621
			vertex 1.765394 1.7347569 -1.133448
			vertex 1.770611 1.707952 -1.1374331
		endloop
	endfacet
	facet normal 0.3869410818540254 -0.907121442153161 -0.1655514674039652
		outer loop
			vertex 1.537955 1.618283 -1.2385761
			vertex 1.572428 1.636861 -1.259799
			vertex 1.7447619 1.687276 -1.133249
		endloop
	endfacet
	facet normal 0.5246857506694312 -0.7408286535292595 -0.4193778357930706
		outer loop
			vertex 1.572428 1.636861 -1.259799
			vertex 1.770611 1.707952 -1.1374331
			vertex 1.7447619 1.687276 -1.133249
		endloop
	endfacet
	facet normal 0.1321685159277263 -0.9279957554385329 0.34836096406676953
		outer loop
			vertex 1.537955 1.618283 -1.2385761
			vertex 1.7447619 1.687276 -1.133249
			vertex 1.481776 1.620783 -1.210602
		endloop
	endfacet
	facet normal 0.18272672689770836 -0.9614963845188885 0.20526969049120677
		outer loop
			vertex 1.7447619 1.687276 -1.133249
			vertex 1.697722 1.680632 -1.122496
			vertex 1.481776 1.620783 -1.210602
		endloop
	endfacet
	facet normal -0.05799543241912205 -0.7754042259665062 0.6287963232810784
		outer loop
			vertex 1.424572 1.643399 -1.187989
			vertex 1.481776 1.620783 -1.210602
			vertex 1.64746 1.690554 -1.109282
		endloop
	endfacet
	facet normal -0.00934358336774129 -0.8163726783187142 0.5774498658278304
		outer loop
			vertex 1.481776 1.620783 -1.210602
			vertex 1.697722 1.680632 -1.122496
			vertex 1.64746 1.690554 -1.109282
		endloop
	endfacet
	facet normal -0.25542865243658397 -0.9069547365675155 0.334946726110556
		outer loop
			vertex 1.399021 1.578265 -1.388839
			vertex 1.481776 1.620783 -1.210602
			vertex 1.336429 1.602309 -1.371466
		endloop
	endfacet
	facet normal -0.23663001742769468 -0.9176723501607258 0.3191922502233714
		outer loop
			vertex 1.481776 1.620783 -1.210602
			vertex 1.424572 1.643399 -1.187989
			vertex 1.336429 1.602309 -1.371466
		endloop
	endfacet
	facet normal -0.5289339430170762 -0.7665965080328584 0.3640860856943536
		outer loop
			vertex 1.292882 1.639309 -1.356825
			vertex 1.336429 1.602309 -1.371466
			vertex 1.384228 1.661132 -1.178171
		endloop
	endfacet
	facet normal -0.30583499036559103 -0.8871439775362819 0.345601680825172
		outer loop
			vertex 1.336429 1.602309 -1.371466
			vertex 1.424572 1.643399 -1.187989
			vertex 1.384228 1.661132 -1.178171
		endloop
	endfacet
	facet normal -0.7793363459300472 -0.29194435976192334 0.5544396727468218
		outer loop
			vertex 1.288536 1.675128 -1.3440731
			vertex 1.292882 1.639309 -1.356825
			vertex 1.386779 1.7100509 -1.187591
		endloop
	endfacet
	facet normal -0.889100315389087 0.1308261238625729 0.4386173212381395
		outer loop
			vertex 1.292882 1.639309 -1.356825
			vertex 1.384228 1.661132 -1.178171
			vertex 1.386779 1.7100509 -1.187591
		endloop
	endfacet
	facet normal -0.5053885121886177 0.8475053565782158 0.16222552918393335
		outer loop
			vertex 1.3264 1.696089 -1.335619
			vertex 1.288536 1.675128 -1.3440731
			vertex 1.4222521 1.728627 -1.206993
		endloop
	endfacet
	facet normal -0.4321423782765927 0.8990323216679142 0.07066717408988603
		outer loop
			vertex 1.288536 1.675128 -1.3440731
			vertex 1.386779 1.7100509 -1.187591
			vertex 1.4222521 1.728627 -1.206993
		endloop
	endfacet
	facet normal 0.008876628341642488 0.9560045837694631 -0.29321739593867896
		outer loop
			vertex 1.3891391 1.694183 -1.339934
			vertex 1.3264 1.696089 -1.335619
			vertex 1.479486 1.7261291 -1.233042
		endloop
	endfacet
	facet normal -0.05213923877339548 0.9766922291172291 -0.20821572794135712
		outer loop
			vertex 1.3264 1.696089 -1.335619
			vertex 1.4222521 1.728627 -1.206993
			vertex 1.479486 1.7261291 -1.233042
		endloop
	endfacet
	facet normal 0.19802598226313572 0.8727508290458493 -0.4461969304561644
		outer loop
			vertex 1.450367 1.670138 -1.359792
			vertex 1.3891391 1.694183 -1.339934
			vertex 1.536294 1.703512 -1.2563781
		endloop
	endfacet
	facet normal 0.18178677964565057 0.8893881581699715 -0.41945473039779835
		outer loop
			vertex 1.3891391 1.694183 -1.339934
			vertex 1.479486 1.7261291 -1.233042
			vertex 1.536294 1.703512 -1.2563781
		endloop
	endfacet
	facet normal 0.39944753584853016 0.7586738555416397 -0.5146412799437299
		outer loop
			vertex 1.4881001 1.633139 -1.385048
			vertex 1.450367 1.670138 -1.359792
			vertex 1.571782 1.669414 -1.266621
		endloop
	endfacet
	facet normal 0.460722712511766 0.6583210796153395 -0.5952713148723818
		outer loop
			vertex 1.450367 1.670138 -1.359792
			vertex 1.536294 1.703512 -1.2563781
			vertex 1.571782 1.669414 -1.266621
		endloop
	endfacet
	facet normal 0.7872731514137888 0.29954126566989525 -0.5389582685365155
		outer loop
			vertex 1.490236 1.597319 -1.401836
			vertex 1.4881001 1.633139 -1.385048
			vertex 1.572428 1.636861 -1.259799
		endloop
	endfacet
	facet normal 0.8267511881526141 -0.09962515187467089 -0.5536761707010605
		outer loop
			vertex 1.4881001 1.633139 -1.385048
			vertex 1.571782 1.669414 -1.266621
			vertex 1.572428 1.636861 -1.259799
		endloop
	endfacet
	facet normal 0.8749142957583744 -0.4414853412597822 -0.1990368521916517
		outer loop
			vertex 1.474296 1.562446 -1.394552
			vertex 1.490236 1.597319 -1.401836
			vertex 1.537955 1.618283 -1.2385761
		endloop
	endfacet
	facet normal 0.46383846597355427 -0.8856503148608489 -0.021849422650934137
		outer loop
			vertex 1.490236 1.597319 -1.401836
			vertex 1.572428 1.636861 -1.259799
			vertex 1.537955 1.618283 -1.2385761
		endloop
	endfacet
	facet normal -0.17375713752087218 -0.9366559416644724 0.30411199270201955
		outer loop
			vertex 1.399021 1.578265 -1.388839
			vertex 1.474296 1.562446 -1.394552
			vertex 1.481776 1.620783 -1.210602
		endloop
	endfacet
	facet normal 0.1055087195281503 -0.9491214114052021 0.2967093805657776
		outer loop
			vertex 1.474296 1.562446 -1.394552
			vertex 1.537955 1.618283 -1.2385761
			vertex 1.481776 1.620783 -1.210602
		endloop
	endfacet
	facet normal -0.20775120709239017 -0.5657765216767677 0.7979576200970783
		outer loop
			vertex 1.712166 1.763396 -1.034423
			vertex 1.746197 1.740198 -1.042011
			vertex 1.828148 1.855565 -0.938876
		endloop
	endfacet
	facet normal -0.30748375870008665 -0.5034348677927554 0.8074695486680338
		outer loop
			vertex 1.746197 1.740198 -1.042011
			vertex 1.861725 1.83149 -0.9411
			vertex 1.828148 1.855565 -0.938876
		endloop
	endfacet
	facet normal -0.5449229945223537 -0.11764103607729309 0.8301924576093497
		outer loop
			vertex 1.705771 1.789122 -1.0349751
			vertex 1.712166 1.763396 -1.034423
			vertex 1.819679 1.879388 -0.947417
		endloop
	endfacet
	facet normal -0.6535008492558881 0.03869995744217295 0.7559358129602056
		outer loop
			vertex 1.712166 1.763396 -1.034423
			vertex 1.828148 1.855565 -0.938876
			vertex 1.819679 1.879388 -0.947417
		endloop
	endfacet
	facet normal -0.6149791453469938 0.7885314576932871 -0.004334860595343562
		outer loop
			vertex 1.729458 1.807549 -1.043451
			vertex 1.705771 1.789122 -1.0349751
			vertex 1.839559 1.893857 -0.963459
		endloop
	endfacet
	facet normal -0.6052231531603803 0.7953870114751219 -0.032625708502361656
		outer loop
			vertex 1.705771 1.789122 -1.0349751
			vertex 1.819679 1.879388 -0.947417
			vertex 1.839559 1.893857 -0.963459
		endloop
	endfacet
	facet normal -0.22667773301285205 0.8283038544743571 -0.5123767461732409
		outer loop
			vertex 1.774178 1.811643 -1.056617
			vertex 1.729458 1.807549 -1.043451
			vertex 1.906846 1.891052 -0.986938
		endloop
	endfacet
	facet normal -0.1765894491529217 0.7807635926587817 -0.5993533005051529
		outer loop
			vertex 1.729458 1.807549 -1.043451
			vertex 1.839559 1.893857 -0.963459
			vertex 1.906846 1.891052 -0.986938
		endloop
	endfacet
	facet normal -0.0016857099040304792 0.7324482341033104 -0.6808206391855801
		outer loop
			vertex 1.822848 1.799834 -1.069442
			vertex 1.774178 1.811643 -1.056617
			vertex 1.959322 1.8747081 -0.989228
		endloop
	endfacet
	facet normal 0.1270488784568189 0.5257683117333842 -0.8410863599297587
		outer loop
			vertex 1.774178 1.811643 -1.056617
			vertex 1.906846 1.891052 -0.986938
			vertex 1.959322 1.8747081 -0.989228
		endloop
	endfacet
	facet normal 0.20782651378691294 0.5657917720790406 -0.7979271964376433
		outer loop
			vertex 1.856881 1.776636 -1.077027
			vertex 1.822848 1.799834 -1.069442
			vertex 1.959632 1.8542449 -0.995234
		endloop
	endfacet
	facet normal 0.37568384630357005 0.26622890171890945 -0.8876845270230291
		outer loop
			vertex 1.822848 1.799834 -1.069442
			vertex 1.959322 1.8747081 -0.989228
			vertex 1.959632 1.8542449 -0.995234
		endloop
	endfacet
	facet normal 0.5869686392765925 0.12871121308415645 -0.7993129800848916
		outer loop
			vertex 1.863273 1.750908 -1.076476
			vertex 1.856881 1.776636 -1.077027
			vertex 1.968099 1.830422 -0.986694
		endloop
	endfacet
	facet normal 0.6429831177234735 -0.04554051342668267 -0.7645251938029484
		outer loop
			vertex 1.856881 1.776636 -1.077027
			vertex 1.959632 1.8542449 -0.995234
			vertex 1.968099 1.830422 -0.986694
		endloop
	endfacet
	facet normal 0.6127067690451519 -0.7902868590952514 -0.006090608148047037
		outer loop
			vertex 1.839587 1.732479 -1.068
			vertex 1.863273 1.750908 -1.076476
			vertex 1.948218 1.81595 -0.970651
		endloop
	endfacet
	facet normal 0.596217292143165 -0.8026872858287744 0.01476691295794002
		outer loop
			vertex 1.863273 1.750908 -1.076476
			vertex 1.968099 1.830422 -0.986694
			vertex 1.948218 1.81595 -0.970651
		endloop
	endfacet
	facet normal 0.21953264802430753 -0.8480980152421708 0.4822190093657928
		outer loop
			vertex 1.839587 1.732479 -1.068
			vertex 1.948218 1.81595 -0.970651
			vertex 1.794867 1.728388 -1.054836
		endloop
	endfacet
	facet normal 0.2058362839302749 -0.84120751689448 0.5000013377362091
		outer loop
			vertex 1.948218 1.81595 -0.970651
			vertex 1.907588 1.81636 -0.953235
			vertex 1.794867 1.728388 -1.054836
		endloop
	endfacet
	facet normal -0.008425666973243082 -0.7513201487676303 0.659884112698466
		outer loop
			vertex 1.794867 1.728388 -1.054836
			vertex 1.907588 1.81636 -0.953235
			vertex 1.746197 1.740198 -1.042011
		endloop
	endfacet
	facet normal -0.04945709664774805 -0.7118352854197391 0.7006029703209757
		outer loop
			vertex 1.907588 1.81636 -0.953235
			vertex 1.861725 1.83149 -0.9411
			vertex 1.746197 1.740198 -1.042011
		endloop
	endfacet
	facet normal -0.0069831628147685705 -0.8122197132093834 0.5833098429747002
		outer loop
			vertex 1.697722 1.680632 -1.122496
			vertex 1.794867 1.728388 -1.054836
			vertex 1.64746 1.690554 -1.109282
		endloop
	endfacet
	facet normal -0.027272488994493548 -0.7847802864423215 0.6191737343876541
		outer loop
			vertex 1.794867 1.728388 -1.054836
			vertex 1.746197 1.740198 -1.042011
			vertex 1.64746 1.690554 -1.109282
		endloop
	endfacet
	facet normal -0.177423762861758 -0.6242613139071316 0.7608013014781959
		outer loop
			vertex 1.613169 1.713255 -1.098652
			vertex 1.64746 1.690554 -1.109282
			vertex 1.712166 1.763396 -1.034423
		endloop
	endfacet
	facet normal -0.23008512333867878 -0.5905434969037276 0.7735109658453085
		outer loop
			vertex 1.64746 1.690554 -1.109282
			vertex 1.746197 1.740198 -1.042011
			vertex 1.712166 1.763396 -1.034423
		endloop
	endfacet
	facet normal -0.4284795572664239 -0.2138331532238556 0.8778841903047991
		outer loop
			vertex 1.607954 1.740061 -1.094668
			vertex 1.613169 1.713255 -1.098652
			vertex 1.705771 1.789122 -1.0349751
		endloop
	endfacet
	facet normal -0.5026453609622886 -0.10653692168806018 0.8579029813564717
		outer loop
			vertex 1.613169 1.713255 -1.098652
			vertex 1.712166 1.763396 -1.034423
			vertex 1.705771 1.789122 -1.0349751
		endloop
	endfacet
	facet normal -0.5595808969407153 0.7643798694101289 0.32030085079434134
		outer loop
			vertex 1.6338021 1.7607369 -1.098852
			vertex 1.607954 1.740061 -1.094668
			vertex 1.729458 1.807549 -1.043451
		endloop
	endfacet
	facet normal -0.5448805611918551 0.8062984877199807 0.23019105702811601
		outer loop
			vertex 1.607954 1.740061 -1.094668
			vertex 1.705771 1.789122 -1.0349751
			vertex 1.729458 1.807549 -1.043451
		endloop
	endfacet
	facet normal -0.2134757136035156 0.9013354676056964 -0.37685871959859224
		outer loop
			vertex 1.68084 1.767382 -1.109604
			vertex 1.6338021 1.7607369 -1.098852
			vertex 1.774178 1.811643 -1.056617
		endloop
	endfacet
	facet normal -0.2011368234024649 0.8914724420250414 -0.40598135841621497
		outer loop
			vertex 1.6338021 1.7607369 -1.098852
			vertex 1.729458 1.807549 -1.043451
			vertex 1.774178 1.811643 -1.056617
		endloop
	endfacet
	facet normal -0.006135167877547282 0.7882931245824661 -0.6152692983167019
		outer loop
			vertex 1.731104 1.757458 -1.12282
			vertex 1.68084 1.767382 -1.109604
			vertex 1.822848 1.799834 -1.069442
		endloop
	endfacet
	facet normal 0.011646652685812102 0.7572303325065203 -0.6530440865770709
		outer loop
			vertex 1.68084 1.767382 -1.109604
			vertex 1.774178 1.811643 -1.056617
			vertex 1.822848 1.799834 -1.069442
		endloop
	endfacet
	facet normal 0.18028176074878813 0.6270930980184956 -0.7577946510492684
		outer loop
			vertex 1.765394 1.7347569 -1.133448
			vertex 1.731104 1.757458 -1.12282
			vertex 1.856881 1.776636 -1.077027
		endloop
	endfacet
	facet normal 0.20551911334689052 0.563200309196391 -0.8003544875679763
		outer loop
			vertex 1.731104 1.757458 -1.12282
			vertex 1.822848 1.799834 -1.069442
			vertex 1.856881 1.776636 -1.077027
		endloop
	endfacet
	facet normal 0.46385024375256484 0.21794015910715842 -0.8586879750054922
		outer loop
			vertex 1.770611 1.707952 -1.1374331
			vertex 1.765394 1.7347569 -1.133448
			vertex 1.863273 1.750908 -1.076476
		endloop
	endfacet
	facet normal 0.48769881398116044 0.10259929695081443 -0.8669620817005599
		outer loop
			vertex 1.765394 1.7347569 -1.133448
			vertex 1.856881 1.776636 -1.077027
			vertex 1.863273 1.750908 -1.076476
		endloop
	endfacet
	facet normal 0.5679957299991538 -0.7692998728116776 -0.29250394252841344
		outer loop
			vertex 1.7447619 1.687276 -1.133249
			vertex 1.770611 1.707952 -1.1374331
			vertex 1.839587 1.732479 -1.068
		endloop
	endfacet
	facet normal 0.5375003950843126 -0.8055361306462084 -0.24940903653986277
		outer loop
			vertex 1.770611 1.707952 -1.1374331
			vertex 1.863273 1.750908 -1.076476
			vertex 1.839587 1.732479 -1.068
		endloop
	endfacet
	facet normal 0.20837245075107136 -0.914650293474304 0.34640404503319844
		outer loop
			vertex 1.697722 1.680632 -1.122496
			vertex 1.7447619 1.687276 -1.133249
			vertex 1.794867 1.728388 -1.054836
		endloop
	endfacet
	facet normal 0.18914469362333824 -0.914187825155372 0.3584479114345968
		outer loop
			vertex 1.7447619 1.687276 -1.133249
			vertex 1.839587 1.732479 -1.068
			vertex 1.794867 1.728388 -1.054836
		endloop
	endfacet
endsolid exported
