solid exported
	facet normal -0.0674751031848274 -0.7750705286494791 -0.6282617178128983
		outer loop
			vertex -0.515643 6.4683509 1.779278
			vertex -0.644563 6.5699968 1.667726
			vertex -0.424084 6.5280681 1.695773
		endloop
	endfacet
	facet normal -0.06747591031846205 -0.7750728221996943 -0.6282588016208733
		outer loop
			vertex -0.644563 6.5699968 1.667726
			vertex -0.475379 6.6803398 1.513427
			vertex -0.424084 6.5280681 1.695773
		endloop
	endfacet
	facet normal 0.24509569416736784 -0.7091232190099392 -0.6611144840053029
		outer loop
			vertex -0.424084 6.5280681 1.695773
			vertex -0.475379 6.6803398 1.513427
			vertex -0.320771 6.5476699 1.7130491
		endloop
	endfacet
	facet normal 0.245102017189215 -0.7091190506394927 -0.6611166108864021
		outer loop
			vertex -0.475379 6.6803398 1.513427
			vertex -0.284485 6.7165608 1.545348
			vertex -0.320771 6.5476699 1.7130491
		endloop
	endfacet
	facet normal 0.35605551655086126 -0.6958341711639612 -0.6237301302440524
		outer loop
			vertex -0.320771 6.5476699 1.7130491
			vertex -0.284485 6.7165608 1.545348
			vertex -0.245167 6.4864478 1.824507
		endloop
	endfacet
	facet normal 0.7439843827957925 -0.4603854692610102 -0.4842855127394203
		outer loop
			vertex -0.284485 6.7165608 1.545348
			vertex -0.176649 6.6572952 1.767352
			vertex -0.245167 6.4864478 1.824507
		endloop
	endfacet
	facet normal 0.8770229032877388 -0.4260299042106733 -0.22210211126189275
		outer loop
			vertex -0.245167 6.4864478 1.824507
			vertex -0.176649 6.6572952 1.767352
			vertex -0.226362 6.4356489 1.996204
		endloop
	endfacet
	facet normal 0.7618021908043823 -0.5401365019504905 -0.3576450493804317
		outer loop
			vertex -0.176649 6.6572952 1.767352
			vertex -0.130564 6.53722 2.04686
			vertex -0.226362 6.4356489 1.996204
		endloop
	endfacet
	facet normal 0.7373474436248737 -0.6741657256927104 -0.04265350725421086
		outer loop
			vertex -0.226362 6.4356489 1.996204
			vertex -0.130564 6.53722 2.04686
			vertex -0.270987 6.3777461 2.139966
		endloop
	endfacet
	facet normal 0.681523063332901 -0.708054261990863 -0.18489314812051025
		outer loop
			vertex -0.130564 6.53722 2.04686
			vertex -0.192497 6.4025779 2.3341889
			vertex -0.270987 6.3777461 2.139966
		endloop
	endfacet
	facet normal 0.48795687451277725 -0.8686067686504536 -0.08614156993193924
		outer loop
			vertex -0.270987 6.3777461 2.139966
			vertex -0.192497 6.4025779 2.3341889
			vertex -0.362547 6.3180289 2.2234731
		endloop
	endfacet
	facet normal 0.48795112303084337 -0.8686112121271155 -0.08612934285133156
		outer loop
			vertex -0.192497 6.4025779 2.3341889
			vertex -0.361677 6.2922392 2.4884901
			vertex -0.362547 6.3180289 2.2234731
		endloop
	endfacet
	facet normal 0.2009511443674068 -0.9749317774396647 -0.09553359051017551
		outer loop
			vertex -0.362547 6.3180289 2.2234731
			vertex -0.361677 6.2922392 2.4884901
			vertex -0.46586 6.2984271 2.206197
		endloop
	endfacet
	facet normal 0.20095944416389275 -0.9749297708137239 -0.09553660964488567
		outer loop
			vertex -0.361677 6.2922392 2.4884901
			vertex -0.552575 6.2560182 2.456567
			vertex -0.46586 6.2984271 2.206197
		endloop
	endfacet
	facet normal -0.07809766423280524 -0.9781388257627227 -0.1927308807039033
		outer loop
			vertex -0.46586 6.2984271 2.206197
			vertex -0.552575 6.2560182 2.456567
			vertex -0.541462 6.3264251 2.094738
		endloop
	endfacet
	facet normal -0.07810682316785339 -0.9781380680650431 -0.19273101456852013
		outer loop
			vertex -0.552575 6.2560182 2.456567
			vertex -0.692272 6.3077531 2.2506189
			vertex -0.541462 6.3264251 2.094738
		endloop
	endfacet
	facet normal -0.23415506907694178 -0.9123563404279676 -0.33582333407084625
		outer loop
			vertex -0.541462 6.3264251 2.094738
			vertex -0.692272 6.3077531 2.2506189
			vertex -0.560479 6.3913288 1.931669
		endloop
	endfacet
	facet normal -0.2341771799757756 -0.9123480974351316 -0.3358303105514585
		outer loop
			vertex -0.692272 6.3077531 2.2506189
			vertex -0.727407 6.4276819 1.949309
			vertex -0.560479 6.3913288 1.931669
		endloop
	endfacet
	facet normal -0.23456326037307867 -0.8380564613754986 -0.49258648421361406
		outer loop
			vertex -0.560479 6.3913288 1.931669
			vertex -0.727407 6.4276819 1.949309
			vertex -0.515643 6.4683509 1.779278
		endloop
	endfacet
	facet normal -0.23455159700537734 -0.8380668088946579 -0.4925744331279813
		outer loop
			vertex -0.727407 6.4276819 1.949309
			vertex -0.644563 6.5699968 1.667726
			vertex -0.515643 6.4683509 1.779278
		endloop
	endfacet
	facet normal -0.3766271589544656 -0.5068395400801516 -0.775413221288642
		outer loop
			vertex -0.644563 6.5699968 1.667726
			vertex -0.751594 6.7111731 1.627434
			vertex -0.475379 6.6803398 1.513427
		endloop
	endfacet
	facet normal -0.3766260346025252 -0.5068480740716693 -0.7754081891941931
		outer loop
			vertex -0.751594 6.7111731 1.627434
			vertex -0.530546 6.8553429 1.425831
			vertex -0.475379 6.6803398 1.513427
		endloop
	endfacet
	facet normal 0.22218944096395646 -0.37950061957926245 -0.8981153222515916
		outer loop
			vertex -0.475379 6.6803398 1.513427
			vertex -0.530546 6.8553429 1.425831
			vertex -0.284485 6.7165608 1.545348
		endloop
	endfacet
	facet normal 0.22218152301893426 -0.37951214933361166 -0.8981124090764862
		outer loop
			vertex -0.530546 6.8553429 1.425831
			vertex -0.281129 6.902667 1.467536
			vertex -0.284485 6.7165608 1.545348
		endloop
	endfacet
	facet normal 0.8553375553116359 -0.2128974554562846 -0.4723053460778881
		outer loop
			vertex -0.284485 6.7165608 1.545348
			vertex -0.281129 6.902667 1.467536
			vertex -0.176649 6.6572952 1.767352
		endloop
	endfacet
	facet normal 0.8294721868254117 -0.25439336721950856 -0.4972523564527271
		outer loop
			vertex -0.281129 6.902667 1.467536
			vertex -0.134706 6.828589 1.749684
			vertex -0.176649 6.6572952 1.767352
		endloop
	endfacet
	facet normal 0.9305091542892677 -0.25496668993553606 -0.2629537997580337
		outer loop
			vertex -0.176649 6.6572952 1.767352
			vertex -0.134706 6.828589 1.749684
			vertex -0.130564 6.53722 2.04686
		endloop
	endfacet
	facet normal 0.9802498110277131 -0.13421073654894994 -0.14525076996395334
		outer loop
			vertex -0.134706 6.828589 1.749684
			vertex -0.099529 6.6783781 2.1258759
			vertex -0.130564 6.53722 2.04686
		endloop
	endfacet
	facet normal 0.9619321647256093 -0.2594882118344084 0.08574601090012736
		outer loop
			vertex -0.130564 6.53722 2.04686
			vertex -0.099529 6.6783781 2.1258759
			vertex -0.192497 6.4025779 2.3341889
		endloop
	endfacet
	facet normal 0.965617372565324 -0.2006049318239385 0.16535038895615944
		outer loop
			vertex -0.099529 6.6783781 2.1258759
			vertex -0.200827 6.496017 2.496196
			vertex -0.192497 6.4025779 2.3341889
		endloop
	endfacet
	facet normal 0.7211883249553904 -0.5833890294952071 0.3735567429624026
		outer loop
			vertex -0.192497 6.4025779 2.3341889
			vertex -0.200827 6.496017 2.496196
			vertex -0.361677 6.2922392 2.4884901
		endloop
	endfacet
	facet normal 0.7588041368495057 -0.6078059364047764 0.23406884792981214
		outer loop
			vertex -0.200827 6.496017 2.496196
			vertex -0.381987 6.3482642 2.699811
			vertex -0.361677 6.2922392 2.4884901
		endloop
	endfacet
	facet normal 0.136554430943453 -0.9542224821817664 0.2661058847312073
		outer loop
			vertex -0.361677 6.2922392 2.4884901
			vertex -0.381987 6.3482642 2.699811
			vertex -0.552575 6.2560182 2.456567
		endloop
	endfacet
	facet normal 0.13655355630820568 -0.9542224406794748 0.26610648237742734
		outer loop
			vertex -0.381987 6.3482642 2.699811
			vertex -0.631404 6.30094 2.658102
			vertex -0.552575 6.2560182 2.456567
		endloop
	endfacet
	facet normal -0.4048592780050074 -0.9132608323657314 0.045206383176670216
		outer loop
			vertex -0.552575 6.2560182 2.456567
			vertex -0.631404 6.30094 2.658102
			vertex -0.692272 6.3077531 2.2506189
		endloop
	endfacet
	facet normal -0.4048470161132824 -0.9132663633486902 0.04520445907241775
		outer loop
			vertex -0.631404 6.30094 2.658102
			vertex -0.813928 6.3685331 2.3890181
			vertex -0.692272 6.3077531 2.2506189
		endloop
	endfacet
	facet normal -0.6272594867290706 -0.7459704045846058 -0.22377151693694727
		outer loop
			vertex -0.692272 6.3077531 2.2506189
			vertex -0.813928 6.3685331 2.3890181
			vertex -0.727407 6.4276819 1.949309
		endloop
	endfacet
	facet normal -0.627262370599095 -0.7459679100696363 -0.223771748835153
		outer loop
			vertex -0.813928 6.3685331 2.3890181
			vertex -0.859834 6.525228 1.995339
			vertex -0.727407 6.4276819 1.949309
		endloop
	endfacet
	facet normal -0.6207769863954236 -0.6108827586582869 -0.49138395205364355
		outer loop
			vertex -0.727407 6.4276819 1.949309
			vertex -0.859834 6.525228 1.995339
			vertex -0.644563 6.5699968 1.667726
		endloop
	endfacet
	facet normal -0.6207799143827231 -0.6108786835673496 -0.49138531913560557
		outer loop
			vertex -0.859834 6.525228 1.995339
			vertex -0.751594 6.7111731 1.627434
			vertex -0.644563 6.5699968 1.667726
		endloop
	endfacet
	facet normal -0.6395164949366428 -0.08751178650716006 -0.763780295586549
		outer loop
			vertex -0.751594 6.7111731 1.627434
			vertex -0.820438 6.8904791 1.664533
			vertex -0.530546 6.8553429 1.425831
		endloop
	endfacet
	facet normal -0.6395166225857206 -0.08751981684574327 -0.7637792685690289
		outer loop
			vertex -0.820438 6.8904791 1.664533
			vertex -0.58118 7.046524 1.4463201
			vertex -0.530546 6.8553429 1.425831
		endloop
	endfacet
	facet normal 0.1371086957363674 0.1413851085189092 -0.9804139210775052
		outer loop
			vertex -0.530546 6.8553429 1.425831
			vertex -0.58118 7.046524 1.4463201
			vertex -0.281129 6.902667 1.467536
		endloop
	endfacet
	facet normal 0.13711030778819622 0.14138857790583834 -0.9804131953089937
		outer loop
			vertex -0.58118 7.046524 1.4463201
			vertex -0.311212 7.0977468 1.491462
			vertex -0.281129 6.902667 1.467536
		endloop
	endfacet
	facet normal 0.8910759769046992 0.18807146192927032 -0.41305293679033794
		outer loop
			vertex -0.281129 6.902667 1.467536
			vertex -0.311212 7.0977468 1.491462
			vertex -0.134706 6.828589 1.749684
		endloop
	endfacet
	facet normal 0.8674872309895396 0.1017066492018764 -0.48695139549879896
		outer loop
			vertex -0.311212 7.0977468 1.491462
			vertex -0.140459 7.0245862 1.780372
			vertex -0.134706 6.828589 1.749684
		endloop
	endfacet
	facet normal 0.9962019577682024 0.04124753473219083 -0.07668311559474934
		outer loop
			vertex -0.134706 6.828589 1.749684
			vertex -0.140459 7.0245862 1.780372
			vertex -0.099529 6.6783781 2.1258759
		endloop
	endfacet
	facet normal 0.9963823625534418 0.047408398303903296 -0.07053106664924702
		outer loop
			vertex -0.140459 7.0245862 1.780372
			vertex -0.102316 6.854979 2.205209
			vertex -0.099529 6.6783781 2.1258759
		endloop
	endfacet
	facet normal 0.9709403422284613 -0.0851507661151147 0.22366090150781362
		outer loop
			vertex -0.099529 6.6783781 2.1258759
			vertex -0.102316 6.854979 2.205209
			vertex -0.200827 6.496017 2.496196
		endloop
	endfacet
	facet normal 0.9728247502736908 -0.09627228840790923 0.21057932410290378
		outer loop
			vertex -0.102316 6.854979 2.205209
			vertex -0.208628 6.6501479 2.6027
			vertex -0.200827 6.496017 2.496196
		endloop
	endfacet
	facet normal 0.8105888385327973 -0.30459017913980596 0.5001705285376498
		outer loop
			vertex -0.200827 6.496017 2.496196
			vertex -0.208628 6.6501479 2.6027
			vertex -0.381987 6.3482642 2.699811
		endloop
	endfacet
	facet normal 0.7831134762247293 -0.269407339254273 0.5604935047894433
		outer loop
			vertex -0.208628 6.6501479 2.6027
			vertex -0.420379 6.4976692 2.8252649
			vertex -0.381987 6.3482642 2.699811
		endloop
	endfacet
	facet normal -0.005765891549726545 -0.6439107831641443 0.7650788572556266
		outer loop
			vertex -0.381987 6.3482642 2.699811
			vertex -0.420379 6.4976692 2.8252649
			vertex -0.631404 6.30094 2.658102
		endloop
	endfacet
	facet normal -0.005748227217184016 -0.6439218964207912 0.7650696368264209
		outer loop
			vertex -0.420379 6.4976692 2.8252649
			vertex -0.69035 6.4464431 2.780122
			vertex -0.631404 6.30094 2.658102
		endloop
	endfacet
	facet normal -0.7304917607107636 -0.5876728477939346 0.34788275539246793
		outer loop
			vertex -0.631404 6.30094 2.658102
			vertex -0.69035 6.4464431 2.780122
			vertex -0.813928 6.3685331 2.3890181
		endloop
	endfacet
	facet normal -0.7305026225014977 -0.5876589529349142 0.34788341948686596
		outer loop
			vertex -0.69035 6.4464431 2.780122
			vertex -0.88791 6.519608 2.488869
			vertex -0.813928 6.3685331 2.3890181
		endloop
	endfacet
	facet normal -0.9108994334610168 -0.40874554561626913 -0.056473897149545274
		outer loop
			vertex -0.813928 6.3685331 2.3890181
			vertex -0.88791 6.519608 2.488869
			vertex -0.859834 6.525228 1.995339
		endloop
	endfacet
	facet normal -0.9108962441955688 -0.4087526667611636 -0.05647379680917607
		outer loop
			vertex -0.88791 6.519608 2.488869
			vertex -0.9376 6.6892142 2.0627501
			vertex -0.859834 6.525228 1.995339
		endloop
	endfacet
	facet normal -0.8835506766663946 -0.25844568552206165 -0.39056885359356025
		outer loop
			vertex -0.859834 6.525228 1.995339
			vertex -0.9376 6.6892142 2.0627501
			vertex -0.751594 6.7111731 1.627434
		endloop
	endfacet
	facet normal -0.8835553063702493 -0.25842820063734556 -0.39056994981733933
		outer loop
			vertex -0.9376 6.6892142 2.0627501
			vertex -0.820438 6.8904791 1.664533
			vertex -0.751594 6.7111731 1.627434
		endloop
	endfacet
	facet normal -0.7429241509004928 0.3080807244073963 -0.5942642284854406
		outer loop
			vertex -0.820438 6.8904791 1.664533
			vertex -0.840621 7.0517602 1.7733769
			vertex -0.58118 7.046524 1.4463201
		endloop
	endfacet
	facet normal -0.7429238545446943 0.30808185752699724 -0.594264011539626
		outer loop
			vertex -0.840621 7.0517602 1.7733769
			vertex -0.619574 7.1959271 1.5717731
			vertex -0.58118 7.046524 1.4463201
		endloop
	endfacet
	facet normal 0.005756726831801491 0.6439115799829505 -0.7650782556445088
		outer loop
			vertex -0.58118 7.046524 1.4463201
			vertex -0.619574 7.1959271 1.5717731
			vertex -0.311212 7.0977468 1.491462
		endloop
	endfacet
	facet normal 0.0057554918456276805 0.6439092872184966 -0.7650801945857587
		outer loop
			vertex -0.619574 7.1959271 1.5717731
			vertex -0.370155 7.2432542 1.613481
			vertex -0.311212 7.0977468 1.491462
		endloop
	endfacet
	facet normal 0.7637637496593056 0.5674307063019022 -0.3077130615558623
		outer loop
			vertex -0.311212 7.0977468 1.491462
			vertex -0.370155 7.2432542 1.613481
			vertex -0.140459 7.0245862 1.780372
		endloop
	endfacet
	facet normal 0.7675710974701527 0.5059140484760846 -0.3935550608021743
		outer loop
			vertex -0.370155 7.2432542 1.613481
			vertex -0.187634 7.1756568 1.882565
			vertex -0.140459 7.0245862 1.780372
		endloop
	endfacet
	facet normal 0.9591432678985369 0.28169155929679335 0.026344962817525637
		outer loop
			vertex -0.140459 7.0245862 1.780372
			vertex -0.187634 7.1756568 1.882565
			vertex -0.102316 6.854979 2.205209
		endloop
	endfacet
	facet normal 0.9379806543860223 0.3358982816130508 0.08581745980258973
		outer loop
			vertex -0.187634 7.1756568 1.882565
			vertex -0.167318 7.0189629 2.273828
			vertex -0.102316 6.854979 2.205209
		endloop
	endfacet
	facet normal 0.910845208827564 0.2131507490242145 0.3534512183403642
		outer loop
			vertex -0.102316 6.854979 2.205209
			vertex -0.167318 7.0189629 2.273828
			vertex -0.208628 6.6501479 2.6027
		endloop
	endfacet
	facet normal 0.946517004554416 0.14912170422434054 0.28612633122200437
		outer loop
			vertex -0.167318 7.0189629 2.273828
			vertex -0.249969 6.8330169 2.644151
			vertex -0.208628 6.6501479 2.6027
		endloop
	endfacet
	facet normal 0.7222422387578873 0.006509078146989312 0.6916095578111044
		outer loop
			vertex -0.208628 6.6501479 2.6027
			vertex -0.249969 6.8330169 2.644151
			vertex -0.420379 6.4976692 2.8252649
		endloop
	endfacet
	facet normal 0.6395232095840161 0.08751791774758384 0.7637739708031989
		outer loop
			vertex -0.249969 6.8330169 2.644151
			vertex -0.471013 6.6888499 2.8457551
			vertex -0.420379 6.4976692 2.8252649
		endloop
	endfacet
	facet normal -0.1371101093445022 -0.1413913028230484 0.9804128300881929
		outer loop
			vertex -0.420379 6.4976692 2.8252649
			vertex -0.471013 6.6888499 2.8457551
			vertex -0.69035 6.4464431 2.780122
		endloop
	endfacet
	facet normal -0.13711860844497983 -0.14138359183668958 0.9804127534755291
		outer loop
			vertex -0.471013 6.6888499 2.8457551
			vertex -0.720434 6.6415262 2.8040471
			vertex -0.69035 6.4464431 2.780122
		endloop
	endfacet
	facet normal -0.833910811140534 -0.19205327198644898 0.5174053534533983
		outer loop
			vertex -0.69035 6.4464431 2.780122
			vertex -0.720434 6.6415262 2.8040471
			vertex -0.88791 6.519608 2.488869
		endloop
	endfacet
	facet normal -0.8518896344577677 -0.1367294529970801 0.5055582136475785
		outer loop
			vertex -0.720434 6.6415262 2.8040471
			vertex -0.886989 6.7394691 2.5498829
			vertex -0.88791 6.519608 2.488869
		endloop
	endfacet
	facet normal -0.9940590563383775 -0.025218795498555865 0.10588014386680997
		outer loop
			vertex -0.88791 6.519608 2.488869
			vertex -0.886989 6.7394691 2.5498829
			vertex -0.9376 6.6892142 2.0627501
		endloop
	endfacet
	facet normal -0.9940591054036526 -0.025217431030104608 0.10588000819952799
		outer loop
			vertex -0.886989 6.7394691 2.5498829
			vertex -0.932896 6.8961639 2.156203
			vertex -0.9376 6.6892142 2.0627501
		endloop
	endfacet
	facet normal -0.9671725297928393 0.12251979715421768 -0.22263467142250976
		outer loop
			vertex -0.9376 6.6892142 2.0627501
			vertex -0.932896 6.8961639 2.156203
			vertex -0.820438 6.8904791 1.664533
		endloop
	endfacet
	facet normal -0.9743520985000693 0.02869361783287549 -0.22319199009859675
		outer loop
			vertex -0.932896 6.8961639 2.156203
			vertex -0.840621 7.0517602 1.7733769
			vertex -0.820438 6.8904791 1.664533
		endloop
	endfacet
	facet normal -0.7053058064387827 0.6317910460015751 -0.32153350306923595
		outer loop
			vertex -0.840621 7.0517602 1.7733769
			vertex -0.809063 7.170464 1.937397
			vertex -0.619574 7.1959271 1.5717731
		endloop
	endfacet
	facet normal -0.7053158133015964 0.6317767276211659 -0.32153968641988645
		outer loop
			vertex -0.809063 7.170464 1.937397
			vertex -0.639882 7.280807 1.783096
			vertex -0.619574 7.1959271 1.5717731
		endloop
	endfacet
	facet normal -0.11081257267547927 0.9185010701980806 -0.37957391609806734
		outer loop
			vertex -0.619574 7.1959271 1.5717731
			vertex -0.639882 7.280807 1.783096
			vertex -0.370155 7.2432542 1.613481
		endloop
	endfacet
	facet normal -0.11080664005417282 0.9185052978017 -0.3795654178532545
		outer loop
			vertex -0.639882 7.280807 1.783096
			vertex -0.448985 7.317028 1.8150181
			vertex -0.370155 7.2432542 1.613481
		endloop
	endfacet
	facet normal 0.49624216260931975 0.8597642966848998 -0.12061952658979154
		outer loop
			vertex -0.370155 7.2432542 1.613481
			vertex -0.448985 7.317028 1.8150181
			vertex -0.187634 7.1756568 1.882565
		endloop
	endfacet
	facet normal 0.49624235443237175 0.8597639925345946 -0.12062090535388152
		outer loop
			vertex -0.448985 7.317028 1.8150181
			vertex -0.309289 7.2652912 2.0209661
			vertex -0.187634 7.1756568 1.882565
		endloop
	endfacet
	facet normal 0.7291017113059374 0.6475763630679688 0.22148487209382012
		outer loop
			vertex -0.187634 7.1756568 1.882565
			vertex -0.309289 7.2652912 2.0209661
			vertex -0.167318 7.0189629 2.273828
		endloop
	endfacet
	facet normal 0.7826497827979746 0.6043011644909746 0.1492629226604361
		outer loop
			vertex -0.309289 7.2652912 2.0209661
			vertex -0.274154 7.1453629 2.3222761
			vertex -0.167318 7.0189629 2.273828
		endloop
	endfacet
	facet normal 0.7667892547431296 0.48849640690117696 0.41641985934284625
		outer loop
			vertex -0.167318 7.0189629 2.273828
			vertex -0.274154 7.1453629 2.3222761
			vertex -0.249969 6.8330169 2.644151
		endloop
	endfacet
	facet normal 0.6876255931684236 0.5462025211573897 0.47836581138401285
		outer loop
			vertex -0.274154 7.1453629 2.3222761
			vertex -0.356999 7.0030479 2.603858
			vertex -0.249969 6.8330169 2.644151
		endloop
	endfacet
	facet normal 0.4220506019183021 0.45190968274899523 0.7859077096314182
		outer loop
			vertex -0.249969 6.8330169 2.644151
			vertex -0.356999 7.0030479 2.603858
			vertex -0.471013 6.6888499 2.8457551
		endloop
	endfacet
	facet normal 0.42203398478447934 0.4519186243579583 0.7859114916104386
		outer loop
			vertex -0.356999 7.0030479 2.603858
			vertex -0.52618 6.892705 2.758158
			vertex -0.471013 6.6888499 2.8457551
		endloop
	endfacet
	facet normal -0.2169186446408734 0.33525573553884136 0.9168150813525469
		outer loop
			vertex -0.471013 6.6888499 2.8457551
			vertex -0.52618 6.892705 2.758158
			vertex -0.720434 6.6415262 2.8040471
		endloop
	endfacet
	facet normal -0.2169278613274545 0.3352620436081695 0.9168105939045265
		outer loop
			vertex -0.52618 6.892705 2.758158
			vertex -0.717076 6.8564849 2.7262349
			vertex -0.720434 6.6415262 2.8040471
		endloop
	endfacet
	facet normal -0.7722144193160558 0.22689109926037146 0.5934688868650041
		outer loop
			vertex -0.720434 6.6415262 2.8040471
			vertex -0.717076 6.8564849 2.7262349
			vertex -0.886989 6.7394691 2.5498829
		endloop
	endfacet
	facet normal -0.7717121557399197 0.22290861095490588 0.5956274841252714
		outer loop
			vertex -0.717076 6.8564849 2.7262349
			vertex -0.840805 6.938571 2.535208
			vertex -0.886989 6.7394691 2.5498829
		endloop
	endfacet
	facet normal -0.9501208727598798 0.23546544899125674 0.2045149126038261
		outer loop
			vertex -0.886989 6.7394691 2.5498829
			vertex -0.840805 6.938571 2.535208
			vertex -0.932896 6.8961639 2.156203
		endloop
	endfacet
	facet normal -0.9501226112841745 0.23545727221378046 0.20451624993673975
		outer loop
			vertex -0.840805 6.938571 2.535208
			vertex -0.875942 7.0584998 2.2338991
			vertex -0.932896 6.8961639 2.156203
		endloop
	endfacet
	facet normal -0.9288323322459393 0.3625071566083617 -0.07654449674724997
		outer loop
			vertex -0.932896 6.8961639 2.156203
			vertex -0.875942 7.0584998 2.2338991
			vertex -0.840621 7.0517602 1.7733769
		endloop
	endfacet
	facet normal -0.9321842966769652 0.3537705141239542 -0.07667372669529668
		outer loop
			vertex -0.875942 7.0584998 2.2338991
			vertex -0.809063 7.170464 1.937397
			vertex -0.840621 7.0517602 1.7733769
		endloop
	endfacet
	facet normal -0.5597844092020045 0.8283620972797869 -0.02139277926300252
		outer loop
			vertex -0.809063 7.170464 1.937397
			vertex -0.730575 7.2285199 2.131619
			vertex -0.639882 7.280807 1.783096
		endloop
	endfacet
	facet normal -0.559794607655343 0.828355109734255 -0.02139648141987771
		outer loop
			vertex -0.730575 7.2285199 2.131619
			vertex -0.639014 7.288239 2.0481131
			vertex -0.639882 7.280807 1.783096
		endloop
	endfacet
	facet normal -0.18199244112990365 0.9829300283433009 -0.02696869949805625
		outer loop
			vertex -0.639882 7.280807 1.783096
			vertex -0.639014 7.288239 2.0481131
			vertex -0.448985 7.317028 1.8150181
		endloop
	endfacet
	facet normal -0.1820046636474465 0.9829274831581905 -0.026978978166068417
		outer loop
			vertex -0.639014 7.288239 2.0481131
			vertex -0.535701 7.3078432 2.065388
			vertex -0.448985 7.317028 1.8150181
		endloop
	endfacet
	facet normal 0.20376168845224019 0.9732350887554687 0.10627622657126747
		outer loop
			vertex -0.448985 7.317028 1.8150181
			vertex -0.535701 7.3078432 2.065388
			vertex -0.309289 7.2652912 2.0209661
		endloop
	endfacet
	facet normal 0.2037613793981579 0.9732353531228981 0.10627439812818548
		outer loop
			vertex -0.535701 7.3078432 2.065388
			vertex -0.460099 7.2798438 2.176847
			vertex -0.309289 7.2652912 2.0209661
		endloop
	endfacet
	facet normal 0.3938364527034191 0.8688771843733121 0.2999087977994194
		outer loop
			vertex -0.309289 7.2652912 2.0209661
			vertex -0.460099 7.2798438 2.176847
			vertex -0.274154 7.1453629 2.3222761
		endloop
	endfacet
	facet normal 0.393839778479789 0.8688771542586963 0.29990451762902903
		outer loop
			vertex -0.460099 7.2798438 2.176847
			vertex -0.441082 7.2149391 2.3399141
			vertex -0.274154 7.1453629 2.3222761
		endloop
	endfacet
	facet normal 0.3771536091203592 0.7771666212205242 0.5037531121374458
		outer loop
			vertex -0.274154 7.1453629 2.3222761
			vertex -0.441082 7.2149391 2.3399141
			vertex -0.356999 7.0030479 2.603858
		endloop
	endfacet
	facet normal 0.3771420984700016 0.7771687319638841 0.5037584734962703
		outer loop
			vertex -0.441082 7.2149391 2.3399141
			vertex -0.485918 7.137917 2.492306
			vertex -0.356999 7.0030479 2.603858
		endloop
	endfacet
	facet normal 0.15659848422556014 0.7140635109492378 0.6823417157620549
		outer loop
			vertex -0.356999 7.0030479 2.603858
			vertex -0.485918 7.137917 2.492306
			vertex -0.52618 6.892705 2.758158
		endloop
	endfacet
	facet normal 0.1565885010754129 0.7140654425173111 0.6823419854688059
		outer loop
			vertex -0.485918 7.137917 2.492306
			vertex -0.577477 7.0781989 2.5758121
			vertex -0.52618 6.892705 2.758158
		endloop
	endfacet
	facet normal -0.24350545008324775 0.6448482948437785 0.7244831070610455
		outer loop
			vertex -0.52618 6.892705 2.758158
			vertex -0.577477 7.0781989 2.5758121
			vertex -0.717076 6.8564849 2.7262349
		endloop
	endfacet
	facet normal -0.2434855881979987 0.6448433213995493 0.7244942092151408
		outer loop
			vertex -0.577477 7.0781989 2.5758121
			vertex -0.68079 7.058599 2.5585361
			vertex -0.717076 6.8564849 2.7262349
		endloop
	endfacet
	facet normal -0.5337271124238039 0.594682850195946 0.6012384528176606
		outer loop
			vertex -0.717076 6.8564849 2.7262349
			vertex -0.68079 7.058599 2.5585361
			vertex -0.840805 6.938571 2.535208
		endloop
	endfacet
	facet normal -0.555115577258167 0.635826322972377 0.5362570119828354
		outer loop
			vertex -0.68079 7.058599 2.5585361
			vertex -0.756394 7.086596 2.447078
			vertex -0.840805 6.938571 2.535208
		endloop
	endfacet
	facet normal -0.7244122763203077 0.6073056087502775 0.3262004774626873
		outer loop
			vertex -0.840805 6.938571 2.535208
			vertex -0.756394 7.086596 2.447078
			vertex -0.875942 7.0584998 2.2338991
		endloop
	endfacet
	facet normal -0.7244106010085745 0.6073083024187776 0.32619918295363415
		outer loop
			vertex -0.756394 7.086596 2.447078
			vertex -0.775409 7.1515021 2.2840099
			vertex -0.875942 7.0584998 2.2338991
		endloop
	endfacet
	facet normal -0.7033468100218749 0.7027875600523185 0.10673757664366247
		outer loop
			vertex -0.875942 7.0584998 2.2338991
			vertex -0.775409 7.1515021 2.2840099
			vertex -0.809063 7.170464 1.937397
		endloop
	endfacet
	facet normal -0.7506476516629188 0.6517268243778738 0.10853685751521237
		outer loop
			vertex -0.775409 7.1515021 2.2840099
			vertex -0.730575 7.2285199 2.131619
			vertex -0.809063 7.170464 1.937397
		endloop
	endfacet
	facet normal 0.10842182676233732 -0.8610259466625181 -0.4968692249027227
		outer loop
			vertex -0.424084 6.5280681 1.695773
			vertex -0.38446 6.3891759 1.945106
			vertex -0.515643 6.4683509 1.779278
		endloop
	endfacet
	facet normal 0.2414729224602976 -0.8309281971905591 -0.5012476023205805
		outer loop
			vertex -0.320771 6.5476699 1.7130491
			vertex -0.38446 6.3891759 1.945106
			vertex -0.424084 6.5280681 1.695773
		endloop
	endfacet
	facet normal 0.11715119291564738 -0.8347696154616315 -0.5379919024488016
		outer loop
			vertex -0.245167 6.4864478 1.824507
			vertex -0.38446 6.3891759 1.945106
			vertex -0.320771 6.5476699 1.7130491
		endloop
	endfacet
	facet normal 0.3571459102358791 -0.8843055047862403 -0.3007500174672291
		outer loop
			vertex -0.226362 6.4356489 1.996204
			vertex -0.38446 6.3891759 1.945106
			vertex -0.245167 6.4864478 1.824507
		endloop
	endfacet
	facet normal 0.34773319935580865 -0.9021343750532098 -0.2554118075053077
		outer loop
			vertex -0.270987 6.3777461 2.139966
			vertex -0.38446 6.3891759 1.945106
			vertex -0.226362 6.4356489 1.996204
		endloop
	endfacet
	facet normal 0.3518833627741189 -0.8998727211383837 -0.2576959152834573
		outer loop
			vertex -0.362547 6.3180289 2.2234731
			vertex -0.38446 6.3891759 1.945106
			vertex -0.270987 6.3777461 2.139966
		endloop
	endfacet
	facet normal 0.22154515026155097 -0.9404535911510479 -0.2578076594802504
		outer loop
			vertex -0.46586 6.2984271 2.206197
			vertex -0.38446 6.3891759 1.945106
			vertex -0.362547 6.3180289 2.2234731
		endloop
	endfacet
	facet normal 0.09239335944260602 -0.9491115967043761 -0.30108245404237616
		outer loop
			vertex -0.541462 6.3264251 2.094738
			vertex -0.38446 6.3891759 1.945106
			vertex -0.46586 6.2984271 2.206197
		endloop
	endfacet
	facet normal 0.01700236552249323 -0.9282945554512739 -0.3714567779515693
		outer loop
			vertex -0.560479 6.3913288 1.931669
			vertex -0.38446 6.3891759 1.945106
			vertex -0.541462 6.3264251 2.094738
		endloop
	endfacet
	facet normal 0.023066103001415036 -0.8949606802217666 -0.44554835399687115
		outer loop
			vertex -0.515643 6.4683509 1.779278
			vertex -0.38446 6.3891759 1.945106
			vertex -0.560479 6.3913288 1.931669
		endloop
	endfacet
	facet normal -0.3518980693364605 0.8998670353154744 0.2576956878758556
		outer loop
			vertex -0.730575 7.2285199 2.131619
			vertex -0.6171 7.217093 2.326478
			vertex -0.639014 7.288239 2.0481131
		endloop
	endfacet
	facet normal -0.22156317437694537 0.9404493991397461 0.25780746191237675
		outer loop
			vertex -0.639014 7.288239 2.0481131
			vertex -0.6171 7.217093 2.326478
			vertex -0.535701 7.3078432 2.065388
		endloop
	endfacet
	facet normal -0.09238779659431885 0.9491097041707822 0.30109012685456354
		outer loop
			vertex -0.535701 7.3078432 2.065388
			vertex -0.6171 7.217093 2.326478
			vertex -0.460099 7.2798438 2.176847
		endloop
	endfacet
	facet normal -0.01699594045175741 0.9282914566279543 0.371464816045492
		outer loop
			vertex -0.460099 7.2798438 2.176847
			vertex -0.6171 7.217093 2.326478
			vertex -0.441082 7.2149391 2.3399141
		endloop
	endfacet
	facet normal -0.02305884274510222 0.8949610266921239 0.44554803385654884
		outer loop
			vertex -0.441082 7.2149391 2.3399141
			vertex -0.6171 7.217093 2.326478
			vertex -0.485918 7.137917 2.492306
		endloop
	endfacet
	facet normal -0.10842067861588871 0.8610244176498758 0.4968721250575067
		outer loop
			vertex -0.485918 7.137917 2.492306
			vertex -0.6171 7.217093 2.326478
			vertex -0.577477 7.0781989 2.5758121
		endloop
	endfacet
	facet normal -0.2414580993739109 0.8309310616927603 0.5012499944746941
		outer loop
			vertex -0.577477 7.0781989 2.5758121
			vertex -0.6171 7.217093 2.326478
			vertex -0.68079 7.058599 2.5585361
		endloop
	endfacet
	facet normal -0.3679095637636371 0.8117914913136367 0.45347230072192063
		outer loop
			vertex -0.68079 7.058599 2.5585361
			vertex -0.6171 7.217093 2.326478
			vertex -0.756394 7.086596 2.447078
		endloop
	endfacet
	facet normal -0.43897106315248924 0.8160451139861918 0.3759983745364286
		outer loop
			vertex -0.756394 7.086596 2.447078
			vertex -0.6171 7.217093 2.326478
			vertex -0.775409 7.1515021 2.2840099
		endloop
	endfacet
	facet normal -0.43290641406971475 0.8493777762800957 0.3019096384993047
		outer loop
			vertex -0.775409 7.1515021 2.2840099
			vertex -0.6171 7.217093 2.326478
			vertex -0.730575 7.2285199 2.131619
		endloop
	endfacet
	facet normal 0.15488094974918007 -0.6762815756706938 -0.7201771461336133
		outer loop
			vertex 0.799157 6.5461249 1.7695431
			vertex 0.699746 6.6038299 1.693976
			vertex 0.91379 6.6924272 1.656811
		endloop
	endfacet
	facet normal 0.15487923495017486 -0.6762787145731614 -0.7201802016138191
		outer loop
			vertex 0.699746 6.6038299 1.693976
			vertex 0.730104 6.7990532 1.517182
			vertex 0.91379 6.6924272 1.656811
		endloop
	endfacet
	facet normal -0.2501817127004145 -0.6282447520625227 -0.7366937234266264
		outer loop
			vertex 0.699746 6.6038299 1.693976
			vertex 0.596712 6.616837 1.7178741
			vertex 0.730104 6.7990532 1.517182
		endloop
	endfacet
	facet normal -0.25017757033309374 -0.6282471147211601 -0.7366931153110958
		outer loop
			vertex 0.596712 6.616837 1.7178741
			vertex 0.539722 6.8230858 1.56134
			vertex 0.730104 6.7990532 1.517182
		endloop
	endfacet
	facet normal -0.6065789811582093 -0.5801600549324772 -0.5435772716714836
		outer loop
			vertex 0.596712 6.616837 1.7178741
			vertex 0.52941 6.5801749 1.832106
			vertex 0.539722 6.8230858 1.56134
		endloop
	endfacet
	facet normal -0.6065902848279005 -0.5801534145822297 -0.5435717449435594
		outer loop
			vertex 0.52941 6.5801749 1.832106
			vertex 0.415365 6.7553449 1.772414
			vertex 0.539722 6.8230858 1.56134
		endloop
	endfacet
	facet normal -0.752769904859609 -0.5897520752876689 -0.29245505643011677
		outer loop
			vertex 0.52941 6.5801749 1.832106
			vertex 0.523547 6.5078502 1.993044
			vertex 0.415365 6.7553449 1.772414
		endloop
	endfacet
	facet normal -0.7527698987151372 -0.5897520793671895 -0.2924550640192071
		outer loop
			vertex 0.523547 6.5078502 1.993044
			vertex 0.404534 6.621706 2.069783
			vertex 0.415365 6.7553449 1.772414
		endloop
	endfacet
	facet normal -0.7191973070872459 -0.68841794292864 -0.09399983687407969
		outer loop
			vertex 0.523547 6.5078502 1.993044
			vertex 0.581366 6.4274879 2.13921
			vertex 0.404534 6.621706 2.069783
		endloop
	endfacet
	facet normal -0.6884186567584328 -0.6976791951448352 -0.19830152215494962
		outer loop
			vertex 0.581366 6.4274879 2.13921
			vertex 0.477223 6.4732161 2.3398659
			vertex 0.404534 6.621706 2.069783
		endloop
	endfacet
	facet normal -0.47497062732908324 -0.8787856328365901 -0.046246239788884716
		outer loop
			vertex 0.581366 6.4274879 2.13921
			vertex 0.680777 6.369781 2.214777
			vertex 0.477223 6.4732161 2.3398659
		endloop
	endfacet
	facet normal -0.44647020271801935 -0.8946997850565127 0.013291076132539449
		outer loop
			vertex 0.680777 6.369781 2.214777
			vertex 0.695052 6.36659 2.4794941
			vertex 0.477223 6.4732161 2.3398659
		endloop
	endfacet
	facet normal -0.12638890848756157 -0.9919674409943062 -0.005141966406976235
		outer loop
			vertex 0.680777 6.369781 2.214777
			vertex 0.78381 6.3567772 2.1908791
			vertex 0.695052 6.36659 2.4794941
		endloop
	endfacet
	facet normal -0.1264275512625906 -0.9919624541088342 -0.005154019802453894
		outer loop
			vertex 0.78381 6.3567772 2.1908791
			vertex 0.885433 6.342555 2.4353371
			vertex 0.695052 6.36659 2.4794941
		endloop
	endfacet
	facet normal 0.2497328919413544 -0.955107683482525 -0.15938254495161258
		outer loop
			vertex 0.78381 6.3567772 2.1908791
			vertex 0.85111 6.3934369 2.0766449
			vertex 0.885433 6.342555 2.4353371
		endloop
	endfacet
	facet normal 0.15687703941205736 -0.9756307812928526 -0.153408517036069
		outer loop
			vertex 0.85111 6.3934369 2.0766449
			vertex 1.008937 6.392961 2.2410669
			vertex 0.885433 6.342555 2.4353371
		endloop
	endfacet
	facet normal 0.3803382973997124 -0.8486799609626352 -0.3675392542185773
		outer loop
			vertex 0.85111 6.3934369 2.0766449
			vertex 0.856973 6.4657612 1.915709
			vertex 1.008937 6.392961 2.2410669
		endloop
	endfacet
	facet normal 0.4196716145184992 -0.8241124477861724 -0.38041347159547273
		outer loop
			vertex 0.856973 6.4657612 1.915709
			vertex 1.02062 6.5439348 1.926892
			vertex 1.008937 6.392961 2.2410669
		endloop
	endfacet
	facet normal 0.38862521880564443 -0.7338320437372033 -0.5571902465879535
		outer loop
			vertex 0.856973 6.4657612 1.915709
			vertex 0.799157 6.5461249 1.7695431
			vertex 1.02062 6.5439348 1.926892
		endloop
	endfacet
	facet normal 0.388622858206111 -0.733835777101175 -0.557186976091534
		outer loop
			vertex 0.799157 6.5461249 1.7695431
			vertex 0.91379 6.6924272 1.656811
			vertex 1.02062 6.5439348 1.926892
		endloop
	endfacet
	facet normal 0.3118994618941266 -0.5113325422758371 -0.8007857122101291
		outer loop
			vertex 0.91379 6.6924272 1.656811
			vertex 0.730104 6.7990532 1.517182
			vertex 1.008873 6.8113551 1.617905
		endloop
	endfacet
	facet normal 0.3118997930566017 -0.511330517614809 -0.8007868760456935
		outer loop
			vertex 0.730104 6.7990532 1.517182
			vertex 0.768875 6.9506688 1.4354711
			vertex 1.008873 6.8113551 1.617905
		endloop
	endfacet
	facet normal -0.254837503188612 -0.4074517999874117 -0.8769497577715685
		outer loop
			vertex 0.730104 6.7990532 1.517182
			vertex 0.539722 6.8230858 1.56134
			vertex 0.768875 6.9506688 1.4354711
		endloop
	endfacet
	facet normal -0.25483616153264366 -0.40745371608283987 -0.8769492573835689
		outer loop
			vertex 0.539722 6.8230858 1.56134
			vertex 0.520128 6.9820671 1.493167
			vertex 0.768875 6.9506688 1.4354711
		endloop
	endfacet
	facet normal -0.7621612084946131 -0.33220464044150244 -0.5556531014357456
		outer loop
			vertex 0.539722 6.8230858 1.56134
			vertex 0.415365 6.7553449 1.772414
			vertex 0.520128 6.9820671 1.493167
		endloop
	endfacet
	facet normal -0.7621733248372503 -0.33218962708922634 -0.5556454576084038
		outer loop
			vertex 0.415365 6.7553449 1.772414
			vertex 0.35765 6.8935599 1.76895
			vertex 0.520128 6.9820671 1.493167
		endloop
	endfacet
	facet normal -0.90148370453374 -0.38155666136622896 -0.20430772042970283
		outer loop
			vertex 0.415365 6.7553449 1.772414
			vertex 0.404534 6.621706 2.069783
			vertex 0.35765 6.8935599 1.76895
		endloop
	endfacet
	facet normal -0.9014861680004628 -0.38155287751572414 -0.2043039171511709
		outer loop
			vertex 0.404534 6.621706 2.069783
			vertex 0.343498 6.718955 2.1574831
			vertex 0.35765 6.8935599 1.76895
		endloop
	endfacet
	facet normal -0.8635059999292591 -0.5024301901949803 -0.043832545748640275
		outer loop
			vertex 0.404534 6.621706 2.069783
			vertex 0.477223 6.4732161 2.3398659
			vertex 0.343498 6.718955 2.1574831
		endloop
	endfacet
	facet normal -0.8781863859424038 -0.47831823533198853 -0.0005807704469725617
		outer loop
			vertex 0.477223 6.4732161 2.3398659
			vertex 0.448938 6.52494 2.510359
			vertex 0.343498 6.718955 2.1574831
		endloop
	endfacet
	facet normal -0.5183366118100899 -0.8384380041615616 0.16837122686140188
		outer loop
			vertex 0.477223 6.4732161 2.3398659
			vertex 0.695052 6.36659 2.4794941
			vertex 0.448938 6.52494 2.510359
		endloop
	endfacet
	facet normal -0.5226611291839526 -0.840346298303617 0.14367826198685704
		outer loop
			vertex 0.695052 6.36659 2.4794941
			vertex 0.723079 6.3856268 2.692791
			vertex 0.448938 6.52494 2.510359
		endloop
	endfacet
	facet normal -0.1013637730824201 -0.9896432087004706 0.10164499485726013
		outer loop
			vertex 0.695052 6.36659 2.4794941
			vertex 0.885433 6.342555 2.4353371
			vertex 0.723079 6.3856268 2.692791
		endloop
	endfacet
	facet normal -0.12016094778005826 -0.98869975263828 0.08963339646360671
		outer loop
			vertex 0.885433 6.342555 2.4353371
			vertex 0.938404 6.3542271 2.635098
			vertex 0.723079 6.3856268 2.692791
		endloop
	endfacet
	facet normal 0.3325698280774145 -0.942496961314179 -0.03311778021090867
		outer loop
			vertex 0.885433 6.342555 2.4353371
			vertex 1.008937 6.392961 2.2410669
			vertex 0.938404 6.3542271 2.635098
		endloop
	endfacet
	facet normal 0.5433117936259835 -0.8394015845694216 0.014740241831846097
		outer loop
			vertex 1.008937 6.392961 2.2410669
			vertex 1.08263 6.4427361 2.3593161
			vertex 0.938404 6.3542271 2.635098
		endloop
	endfacet
	facet normal 0.781877027705994 -0.5727743821925445 -0.2461662459590872
		outer loop
			vertex 1.008937 6.392961 2.2410669
			vertex 1.02062 6.5439348 1.926892
			vertex 1.08263 6.4427361 2.3593161
		endloop
	endfacet
	facet normal 0.5469080030239852 -0.7943683685809577 -0.26433034488371615
		outer loop
			vertex 1.02062 6.5439348 1.926892
			vertex 1.148456 6.6173429 1.970782
			vertex 1.08263 6.4427361 2.3593161
		endloop
	endfacet
	facet normal 0.5488440738655002 -0.6216353430621826 -0.5588735839514014
		outer loop
			vertex 1.02062 6.5439348 1.926892
			vertex 0.91379 6.6924272 1.656811
			vertex 1.148456 6.6173429 1.970782
		endloop
	endfacet
	facet normal 0.548845999311592 -0.6216328790283997 -0.5588744337957527
		outer loop
			vertex 0.91379 6.6924272 1.656811
			vertex 1.008873 6.8113551 1.617905
			vertex 1.148456 6.6173429 1.970782
		endloop
	endfacet
	facet normal 0.5954798868992823 -0.025649048777523917 -0.802960665658802
		outer loop
			vertex 1.008873 6.8113551 1.617905
			vertex 0.768875 6.9506688 1.4354711
			vertex 1.069932 6.9503422 1.658747
		endloop
	endfacet
	facet normal 0.5954802479869967 -0.025626448544483055 -0.8029611194773641
		outer loop
			vertex 0.768875 6.9506688 1.4354711
			vertex 0.810157 7.1011329 1.461284
			vertex 1.069932 6.9503422 1.658747
		endloop
	endfacet
	facet normal -0.19441436790315864 0.21743585785782626 -0.9565169633992106
		outer loop
			vertex 0.768875 6.9506688 1.4354711
			vertex 0.520128 6.9820671 1.493167
			vertex 0.810157 7.1011329 1.461284
		endloop
	endfacet
	facet normal -0.19441022117549023 0.2174248619604822 -0.9565203057457601
		outer loop
			vertex 0.520128 6.9820671 1.493167
			vertex 0.540918 7.1351171 1.523731
			vertex 0.810157 7.1011329 1.461284
		endloop
	endfacet
	facet normal -0.8705168553059335 0.20737761198583077 -0.4463125930055333
		outer loop
			vertex 0.520128 6.9820671 1.493167
			vertex 0.35765 6.8935599 1.76895
			vertex 0.540918 7.1351171 1.523731
		endloop
	endfacet
	facet normal -0.870515485361545 0.2073705104667993 -0.4463185646312426
		outer loop
			vertex 0.35765 6.8935599 1.76895
			vertex 0.365052 7.0393209 1.822237
			vertex 0.540918 7.1351171 1.523731
		endloop
	endfacet
	facet normal -0.9984200806063939 0.05496605119806962 -0.011665155704643668
		outer loop
			vertex 0.35765 6.8935599 1.76895
			vertex 0.343498 6.718955 2.1574831
			vertex 0.365052 7.0393209 1.822237
		endloop
	endfacet
	facet normal -0.998420235366741 0.054962522020019444 -0.01166853818696584
		outer loop
			vertex 0.343498 6.718955 2.1574831
			vertex 0.349733 6.8503261 2.242784
			vertex 0.365052 7.0393209 1.822237
		endloop
	endfacet
	facet normal -0.9671943870152903 -0.10445625487091682 0.23156836689077165
		outer loop
			vertex 0.343498 6.718955 2.1574831
			vertex 0.448938 6.52494 2.510359
			vertex 0.349733 6.8503261 2.242784
		endloop
	endfacet
	facet normal -0.965231626402759 -0.09357485466476491 0.2440730504712736
		outer loop
			vertex 0.448938 6.52494 2.510359
			vertex 0.466673 6.640326 2.624733
			vertex 0.349733 6.8503261 2.242784
		endloop
	endfacet
	facet normal -0.6417206123059668 -0.48790550767988305 0.591728714291685
		outer loop
			vertex 0.448938 6.52494 2.510359
			vertex 0.723079 6.3856268 2.692791
			vertex 0.466673 6.640326 2.624733
		endloop
	endfacet
	facet normal -0.6451006752874339 -0.49355917705563135 0.5833047723856413
		outer loop
			vertex 0.723079 6.3856268 2.692791
			vertex 0.760589 6.4895339 2.8221951
			vertex 0.466673 6.640326 2.624733
		endloop
	endfacet
	facet normal 0.050547135769879584 -0.7858447081643791 0.6163546720156369
		outer loop
			vertex 0.723079 6.3856268 2.692791
			vertex 0.938404 6.3542271 2.635098
			vertex 0.760589 6.4895339 2.8221951
		endloop
	endfacet
	facet normal 0.2084389280492396 -0.6876961056381933 0.6954331596665109
		outer loop
			vertex 0.938404 6.3542271 2.635098
			vertex 0.996409 6.4978638 2.7597511
			vertex 0.760589 6.4895339 2.8221951
		endloop
	endfacet
	facet normal 0.804598763110497 -0.5397576451281524 0.24755305477163927
		outer loop
			vertex 0.938404 6.3542271 2.635098
			vertex 1.08263 6.4427361 2.3593161
			vertex 0.996409 6.4978638 2.7597511
		endloop
	endfacet
	facet normal 0.6905259506376233 -0.6814462388592833 0.24249728872823156
		outer loop
			vertex 1.08263 6.4427361 2.3593161
			vertex 1.154021 6.5513501 2.4612441
			vertex 0.996409 6.4978638 2.7597511
		endloop
	endfacet
	facet normal 0.8646775972307776 -0.49645102101261385 -0.07660963766225885
		outer loop
			vertex 1.08263 6.4427361 2.3593161
			vertex 1.148456 6.6173429 1.970782
			vertex 1.154021 6.5513501 2.4612441
		endloop
	endfacet
	facet normal 0.9232635983361657 -0.3792124981899258 -0.061499668323584944
		outer loop
			vertex 1.148456 6.6173429 1.970782
			vertex 1.2210129 6.7826571 2.0407
			vertex 1.154021 6.5513501 2.4612441
		endloop
	endfacet
	facet normal 0.871858052029111 -0.19212624839264322 -0.45050087879001083
		outer loop
			vertex 1.148456 6.6173429 1.970782
			vertex 1.008873 6.8113551 1.617905
			vertex 1.2210129 6.7826571 2.0407
		endloop
	endfacet
	facet normal 0.8595438449651706 -0.24596970510035937 -0.4479768774784399
		outer loop
			vertex 1.008873 6.8113551 1.617905
			vertex 1.069932 6.9503422 1.658747
			vertex 1.2210129 6.7826571 2.0407
		endloop
	endfacet
	facet normal 0.6889396037079509 0.37317716017890484 -0.6213702837789554
		outer loop
			vertex 1.069932 6.9503422 1.658747
			vertex 0.810157 7.1011329 1.461284
			vertex 1.087669 7.1080441 1.773124
		endloop
	endfacet
	facet normal 0.6889414438990237 0.3731712540458768 -0.6213717905023982
		outer loop
			vertex 0.810157 7.1011329 1.461284
			vertex 0.84767 7.2473559 1.590692
			vertex 1.087669 7.1080441 1.773124
		endloop
	endfacet
	facet normal -0.08560960852623022 0.6725305657186833 -0.7351011040000508
		outer loop
			vertex 0.810157 7.1011329 1.461284
			vertex 0.540918 7.1351171 1.523731
			vertex 0.84767 7.2473559 1.590692
		endloop
	endfacet
	facet normal -0.08560363782105888 0.6725202776854391 -0.7351112115140817
		outer loop
			vertex 0.540918 7.1351171 1.523731
			vertex 0.598924 7.2787571 1.648386
			vertex 0.84767 7.2473559 1.590692
		endloop
	endfacet
	facet normal -0.7805045572239674 0.5586618546711843 -0.2805522558953528
		outer loop
			vertex 0.540918 7.1351171 1.523731
			vertex 0.365052 7.0393209 1.822237
			vertex 0.598924 7.2787571 1.648386
		endloop
	endfacet
	facet normal -0.7805044646469457 0.5586624769202094 -0.28055127436452904
		outer loop
			vertex 0.365052 7.0393209 1.822237
			vertex 0.436443 7.190249 1.924168
			vertex 0.598924 7.2787571 1.648386
		endloop
	endfacet
	facet normal -0.926882466489322 0.3538371889693233 0.12525229345987363
		outer loop
			vertex 0.365052 7.0393209 1.822237
			vertex 0.349733 6.8503261 2.242784
			vertex 0.436443 7.190249 1.924168
		endloop
	endfacet
	facet normal -0.9268764542851191 0.35384820000689443 0.12526567703775307
		outer loop
			vertex 0.349733 6.8503261 2.242784
			vertex 0.422293 7.0156398 2.312701
			vertex 0.436443 7.190249 1.924168
		endloop
	endfacet
	facet normal -0.8907498596198871 0.22362750718316676 0.3956708551538696
		outer loop
			vertex 0.349733 6.8503261 2.242784
			vertex 0.466673 6.640326 2.624733
			vertex 0.422293 7.0156398 2.312701
		endloop
	endfacet
	facet normal -0.8969733963004444 0.21505860570325994 0.38624930089543996
		outer loop
			vertex 0.466673 6.640326 2.624733
			vertex 0.52773 6.8216281 2.6655769
			vertex 0.422293 7.0156398 2.312701
		endloop
	endfacet
	facet normal -0.5574215765719177 0.0006877258610338619 0.8302293135063454
		outer loop
			vertex 0.466673 6.640326 2.624733
			vertex 0.760589 6.4895339 2.8221951
			vertex 0.52773 6.8216281 2.6655769
		endloop
	endfacet
	facet normal -0.5517092502920271 0.006476759436537402 0.8340113636692313
		outer loop
			vertex 0.760589 6.4895339 2.8221951
			vertex 0.801873 6.6823149 2.8480079
			vertex 0.52773 6.8216281 2.6655769
		endloop
	endfacet
	facet normal 0.25769720577448507 -0.1822385505226052 0.9488842188799657
		outer loop
			vertex 0.760589 6.4895339 2.8221951
			vertex 0.996409 6.4978638 2.7597511
			vertex 0.801873 6.6823149 2.8480079
		endloop
	endfacet
	facet normal 0.2224149966021104 -0.2199017931993148 0.9498288112255856
		outer loop
			vertex 0.996409 6.4978638 2.7597511
			vertex 1.017199 6.6509161 2.7903171
			vertex 0.801873 6.6823149 2.8480079
		endloop
	endfacet
	facet normal 0.8802070862968528 -0.20504160883044098 0.4280110090652216
		outer loop
			vertex 0.996409 6.4978638 2.7597511
			vertex 1.154021 6.5513501 2.4612441
			vertex 1.017199 6.6509161 2.7903171
		endloop
	endfacet
	facet normal 0.8950060246672781 -0.15385957140859732 0.41867821545339384
		outer loop
			vertex 1.154021 6.5513501 2.4612441
			vertex 1.161424 6.7394218 2.514533
			vertex 1.017199 6.6509161 2.7903171
		endloop
	endfacet
	facet normal 0.9903774171312658 -0.07240219443407621 0.11794275678282796
		outer loop
			vertex 1.154021 6.5513501 2.4612441
			vertex 1.2210129 6.7826571 2.0407
			vertex 1.161424 6.7394218 2.514533
		endloop
	endfacet
	facet normal 0.9862874619038413 -0.12022203738333016 0.11306504419439414
		outer loop
			vertex 1.2210129 6.7826571 2.0407
			vertex 1.227248 6.914031 2.1259999
			vertex 1.161424 6.7394218 2.514533
		endloop
	endfacet
	facet normal 0.9400829399088335 0.15316172630920788 -0.30460720885485976
		outer loop
			vertex 1.2210129 6.7826571 2.0407
			vertex 1.069932 6.9503422 1.658747
			vertex 1.227248 6.914031 2.1259999
		endloop
	endfacet
	facet normal 0.9438703576295082 0.11768899120819226 -0.308639027565767
		outer loop
			vertex 1.069932 6.9503422 1.658747
			vertex 1.087669 7.1080441 1.773124
			vertex 1.227248 6.914031 2.1259999
		endloop
	endfacet
	facet normal 0.649851469547802 0.68309534346645 -0.3332773908638491
		outer loop
			vertex 1.087669 7.1080441 1.773124
			vertex 0.84767 7.2473559 1.590692
			vertex 1.059382 7.2181368 1.943617
		endloop
	endfacet
	facet normal 0.6498705962463288 0.6830705472127943 -0.33329091746529044
		outer loop
			vertex 0.84767 7.2473559 1.590692
			vertex 0.875696 7.3247652 1.803987
			vertex 1.059382 7.2181368 1.943617
		endloop
	endfacet
	facet normal 0.038275186353442806 0.9376970190360675 -0.34533941362155923
		outer loop
			vertex 0.84767 7.2473559 1.590692
			vertex 0.598924 7.2787571 1.648386
			vertex 0.875696 7.3247652 1.803987
		endloop
	endfacet
	facet normal 0.03826346133788924 0.9377043769170885 -0.3453207335752934
		outer loop
			vertex 0.598924 7.2787571 1.648386
			vertex 0.685314 7.3487959 1.848146
			vertex 0.875696 7.3247652 1.803987
		endloop
	endfacet
	facet normal -0.5484446410906503 0.8343528797545822 -0.05535113101088229
		outer loop
			vertex 0.598924 7.2787571 1.648386
			vertex 0.436443 7.190249 1.924168
			vertex 0.685314 7.3487959 1.848146
		endloop
	endfacet
	facet normal -0.5484430452132032 0.8343544993961133 -0.05534252880678335
		outer loop
			vertex 0.436443 7.190249 1.924168
			vertex 0.560958 7.281054 2.059221
			vertex 0.685314 7.3487959 1.848146
		endloop
	endfacet
	facet normal -0.7350755661840935 0.6280147530510473 0.25546307355343273
		outer loop
			vertex 0.436443 7.190249 1.924168
			vertex 0.422293 7.0156398 2.312701
			vertex 0.560958 7.281054 2.059221
		endloop
	endfacet
	facet normal -0.7350846677106686 0.6280087022815242 0.2554517589592443
		outer loop
			vertex 0.422293 7.0156398 2.312701
			vertex 0.550127 7.1474171 2.35659
			vertex 0.560958 7.281054 2.059221
		endloop
	endfacet
	facet normal -0.7008041733230232 0.5156673922159989 0.492910388669366
		outer loop
			vertex 0.422293 7.0156398 2.312701
			vertex 0.52773 6.8216281 2.6655769
			vertex 0.550127 7.1474171 2.35659
		endloop
	endfacet
	facet normal -0.6107971976851991 0.5665699564741483 0.5531051145313967
		outer loop
			vertex 0.52773 6.8216281 2.6655769
			vertex 0.656959 6.9989252 2.626672
			vertex 0.550127 7.1474171 2.35659
		endloop
	endfacet
	facet normal -0.3383053670431609 0.43023510030265605 0.8369272591434431
		outer loop
			vertex 0.52773 6.8216281 2.6655769
			vertex 0.801873 6.6823149 2.8480079
			vertex 0.656959 6.9989252 2.626672
		endloop
	endfacet
	facet normal -0.3991538680899401 0.39556196623400663 0.8271680122308438
		outer loop
			vertex 0.801873 6.6823149 2.8480079
			vertex 0.840646 6.8923011 2.7663
			vertex 0.656959 6.9989252 2.626672
		endloop
	endfacet
	facet normal 0.2874885755609748 0.30075059488989664 0.9093400896228512
		outer loop
			vertex 0.801873 6.6823149 2.8480079
			vertex 1.017199 6.6509161 2.7903171
			vertex 0.840646 6.8923011 2.7663
		endloop
	endfacet
	facet normal 0.25005628075440983 0.27525656113055647 0.9282810361145228
		outer loop
			vertex 1.017199 6.6509161 2.7903171
			vertex 1.031026 6.8682671 2.7221429
			vertex 0.840646 6.8923011 2.7663
		endloop
	endfacet
	facet normal 0.868836132118794 0.09701059710028742 0.48550254332505727
		outer loop
			vertex 1.017199 6.6509161 2.7903171
			vertex 1.161424 6.7394218 2.514533
			vertex 1.031026 6.8682671 2.7221429
		endloop
	endfacet
	facet normal 0.882040187896963 0.26581941116285307 0.3890310367872006
		outer loop
			vertex 1.161424 6.7394218 2.514533
			vertex 1.103707 6.9360089 2.5110681
			vertex 1.031026 6.8682671 2.7221429
		endloop
	endfacet
	facet normal 0.9199338280190069 0.2750133109143103 0.27944486197861124
		outer loop
			vertex 1.161424 6.7394218 2.514533
			vertex 1.227248 6.914031 2.1259999
			vertex 1.103707 6.9360089 2.5110681
		endloop
	endfacet
	facet normal 0.9354378192909714 0.20433013724661092 0.2884532566169665
		outer loop
			vertex 1.227248 6.914031 2.1259999
			vertex 1.166214 7.0696468 2.213697
			vertex 1.103707 6.9360089 2.5110681
		endloop
	endfacet
	facet normal 0.8982430918836061 0.4218270679601377 -0.12337452176009936
		outer loop
			vertex 1.227248 6.914031 2.1259999
			vertex 1.087669 7.1080441 1.773124
			vertex 1.166214 7.0696468 2.213697
		endloop
	endfacet
	facet normal 0.8982341855685992 0.4218470051867159 -0.12337119635844672
		outer loop
			vertex 1.087669 7.1080441 1.773124
			vertex 1.059382 7.2181368 1.943617
			vertex 1.166214 7.0696468 2.213697
		endloop
	endfacet
	facet normal 0.5117262885730721 0.8589757578438622 -0.01722942308354141
		outer loop
			vertex 1.059382 7.2181368 1.943617
			vertex 0.875696 7.3247652 1.803987
			vertex 0.989381 7.263864 2.144274
		endloop
	endfacet
	facet normal 0.5117322894973129 0.8589721295823658 -0.017232077256493537
		outer loop
			vertex 0.875696 7.3247652 1.803987
			vertex 0.889972 7.3215709 2.068707
			vertex 0.989381 7.263864 2.144274
		endloop
	endfacet
	facet normal 0.12640465174835916 0.9919653781178492 0.005152924595655523
		outer loop
			vertex 0.875696 7.3247652 1.803987
			vertex 0.685314 7.3487959 1.848146
			vertex 0.889972 7.3215709 2.068707
		endloop
	endfacet
	facet normal 0.12641251463687203 0.9919644146202984 0.0051455097115278
		outer loop
			vertex 0.685314 7.3487959 1.848146
			vertex 0.786939 7.3345771 2.0926061
			vertex 0.889972 7.3215709 2.068707
		endloop
	endfacet
	facet normal -0.24975952165867746 0.9551010415670453 0.15938061908015563
		outer loop
			vertex 0.685314 7.3487959 1.848146
			vertex 0.560958 7.281054 2.059221
			vertex 0.786939 7.3345771 2.0926061
		endloop
	endfacet
	facet normal -0.2497589256193628 0.9551021734955152 0.1593747698276131
		outer loop
			vertex 0.560958 7.281054 2.059221
			vertex 0.719636 7.2979159 2.2068379
			vertex 0.786939 7.3345771 2.0926061
		endloop
	endfacet
	facet normal -0.4222015116707377 0.8324955445766911 0.35874371325906523
		outer loop
			vertex 0.560958 7.281054 2.059221
			vertex 0.550127 7.1474171 2.35659
			vertex 0.719636 7.2979159 2.2068379
		endloop
	endfacet
	facet normal -0.42220912000852223 0.8324954416638448 0.3587349977219249
		outer loop
			vertex 0.550127 7.1474171 2.35659
			vertex 0.713774 7.2255931 2.367774
			vertex 0.719636 7.2979159 2.2068379
		endloop
	endfacet
	facet normal -0.38863713679753625 0.7338277081879314 0.5571876439741477
		outer loop
			vertex 0.550127 7.1474171 2.35659
			vertex 0.656959 6.9989252 2.626672
			vertex 0.713774 7.2255931 2.367774
		endloop
	endfacet
	facet normal -0.3886173294351316 0.733832026689715 0.5571957715804847
		outer loop
			vertex 0.656959 6.9989252 2.626672
			vertex 0.771592 7.1452279 2.513941
			vertex 0.713774 7.2255931 2.367774
		endloop
	endfacet
	facet normal -0.15488217116013847 0.6762777991106234 0.7201804298138161
		outer loop
			vertex 0.656959 6.9989252 2.626672
			vertex 0.840646 6.8923011 2.7663
			vertex 0.771592 7.1452279 2.513941
		endloop
	endfacet
	facet normal -0.15487407196165648 0.6762798379530135 0.7201802570275454
		outer loop
			vertex 0.840646 6.8923011 2.7663
			vertex 0.871001 7.087522 2.5895071
			vertex 0.771592 7.1452279 2.513941
		endloop
	endfacet
	facet normal 0.25018092639092954 0.6282491425126383 0.7366902463059432
		outer loop
			vertex 0.840646 6.8923011 2.7663
			vertex 1.031026 6.8682671 2.7221429
			vertex 0.871001 7.087522 2.5895071
		endloop
	endfacet
	facet normal 0.25017423715174264 0.6282468283625142 0.7366944914399628
		outer loop
			vertex 1.031026 6.8682671 2.7221429
			vertex 0.974036 7.0745158 2.565609
			vertex 0.871001 7.087522 2.5895071
		endloop
	endfacet
	facet normal 0.738631815927775 0.5250091455622894 0.4228338179180948
		outer loop
			vertex 1.031026 6.8682671 2.7221429
			vertex 1.103707 6.9360089 2.5110681
			vertex 0.974036 7.0745158 2.565609
		endloop
	endfacet
	facet normal 0.7045329837119523 0.4404796390443738 0.5564269605700932
		outer loop
			vertex 1.103707 6.9360089 2.5110681
			vertex 1.041335 7.111177 2.451375
			vertex 0.974036 7.0745158 2.565609
		endloop
	endfacet
	facet normal 0.8315500360063696 0.4199698750860534 0.36352419677101316
		outer loop
			vertex 1.103707 6.9360089 2.5110681
			vertex 1.166214 7.0696468 2.213697
			vertex 1.041335 7.111177 2.451375
		endloop
	endfacet
	facet normal 0.752773173683858 0.5897408670197133 0.29246924410742575
		outer loop
			vertex 1.166214 7.0696468 2.213697
			vertex 1.047199 7.1835041 2.2904401
			vertex 1.041335 7.111177 2.451375
		endloop
	endfacet
	facet normal 0.7191989756752434 0.6884152682941739 0.0940066581000597
		outer loop
			vertex 1.166214 7.0696468 2.213697
			vertex 1.059382 7.2181368 1.943617
			vertex 1.047199 7.1835041 2.2904401
		endloop
	endfacet
	facet normal 0.7191817992440498 0.6884330522456682 0.094007830587693
		outer loop
			vertex 1.059382 7.2181368 1.943617
			vertex 0.989381 7.263864 2.144274
			vertex 1.047199 7.1835041 2.2904401
		endloop
	endfacet
	facet normal -0.0904193771532143 -0.845317765616068 -0.5265569402914404
		outer loop
			vertex 0.699746 6.6038299 1.693976
			vertex 0.799157 6.5461249 1.7695431
			vertex 0.682425 6.4530921 1.93894
		endloop
	endfacet
	facet normal -0.22495839555566727 -0.8226630703210417 -0.5221294791514618
		outer loop
			vertex 0.596712 6.616837 1.7178741
			vertex 0.699746 6.6038299 1.693976
			vertex 0.682425 6.4530921 1.93894
		endloop
	endfacet
	facet normal -0.3491876002491688 -0.8126512845921973 -0.4665467923830134
		outer loop
			vertex 0.52941 6.5801749 1.832106
			vertex 0.596712 6.616837 1.7178741
			vertex 0.682425 6.4530921 1.93894
		endloop
	endfacet
	facet normal -0.41525659059998127 -0.8240151958801507 -0.3854360140436755
		outer loop
			vertex 0.523547 6.5078502 1.993044
			vertex 0.52941 6.5801749 1.832106
			vertex 0.682425 6.4530921 1.93894
		endloop
	endfacet
	facet normal -0.403056014098882 -0.8598697887362452 -0.3133205960632126
		outer loop
			vertex 0.581366 6.4274879 2.13921
			vertex 0.523547 6.5078502 1.993044
			vertex 0.682425 6.4530921 1.93894
		endloop
	endfacet
	facet normal -0.3169685311754119 -0.9074022781316952 -0.27595661957255513
		outer loop
			vertex 0.680777 6.369781 2.214777
			vertex 0.581366 6.4274879 2.13921
			vertex 0.682425 6.4530921 1.93894
		endloop
	endfacet
	facet normal -0.18484026057229005 -0.9404880570643745 -0.28516011746183184
		outer loop
			vertex 0.78381 6.3567772 2.1908791
			vertex 0.680777 6.369781 2.214777
			vertex 0.682425 6.4530921 1.93894
		endloop
	endfacet
	facet normal -0.05819042215362583 -0.9400740908354679 -0.33596812126963993
		outer loop
			vertex 0.85111 6.3934369 2.0766449
			vertex 0.78381 6.3567772 2.1908791
			vertex 0.682425 6.4530921 1.93894
		endloop
	endfacet
	facet normal 0.011706657620979766 -0.912223698723425 -0.4095251856170745
		outer loop
			vertex 0.856973 6.4657612 1.915709
			vertex 0.85111 6.3934369 2.0766449
			vertex 0.682425 6.4530921 1.93894
		endloop
	endfacet
	facet normal -0.0004940064806670684 -0.876368008291987 -0.4816418482648002
		outer loop
			vertex 0.799157 6.5461249 1.7695431
			vertex 0.856973 6.4657612 1.915709
			vertex 0.682425 6.4530921 1.93894
		endloop
	endfacet
	facet normal 0.3169802230766679 0.9074006891877842 0.2759484144542247
		outer loop
			vertex 0.989381 7.263864 2.144274
			vertex 0.889972 7.3215709 2.068707
			vertex 0.888324 7.2382622 2.3445439
		endloop
	endfacet
	facet normal 0.184863266695958 0.9404861206249733 0.2851515904537227
		outer loop
			vertex 0.889972 7.3215709 2.068707
			vertex 0.786939 7.3345771 2.0926061
			vertex 0.888324 7.2382622 2.3445439
		endloop
	endfacet
	facet normal 0.05817094132486588 0.9400721415059186 0.33597694913469206
		outer loop
			vertex 0.786939 7.3345771 2.0926061
			vertex 0.719636 7.2979159 2.2068379
			vertex 0.888324 7.2382622 2.3445439
		endloop
	endfacet
	facet normal -0.011709883047428725 0.912227047266392 0.40951763438789235
		outer loop
			vertex 0.719636 7.2979159 2.2068379
			vertex 0.713774 7.2255931 2.367774
			vertex 0.888324 7.2382622 2.3445439
		endloop
	endfacet
	facet normal 0.00049231839624835 0.8763654640978853 0.48164647923460924
		outer loop
			vertex 0.713774 7.2255931 2.367774
			vertex 0.771592 7.1452279 2.513941
			vertex 0.888324 7.2382622 2.3445439
		endloop
	endfacet
	facet normal 0.09042506170672034 0.8453123088373309 0.526564724173047
		outer loop
			vertex 0.771592 7.1452279 2.513941
			vertex 0.871001 7.087522 2.5895071
			vertex 0.888324 7.2382622 2.3445439
		endloop
	endfacet
	facet normal 0.22495064322575922 0.8226595496388126 0.5221383662405813
		outer loop
			vertex 0.871001 7.087522 2.5895071
			vertex 0.974036 7.0745158 2.565609
			vertex 0.888324 7.2382622 2.3445439
		endloop
	endfacet
	facet normal 0.3492178997208143 0.8126433439722233 0.46653794487932715
		outer loop
			vertex 0.974036 7.0745158 2.565609
			vertex 1.041335 7.111177 2.451375
			vertex 0.888324 7.2382622 2.3445439
		endloop
	endfacet
	facet normal 0.41526545958786015 0.8240027612209876 0.3854530419823815
		outer loop
			vertex 1.041335 7.111177 2.451375
			vertex 1.047199 7.1835041 2.2904401
			vertex 0.888324 7.2382622 2.3445439
		endloop
	endfacet
	facet normal 0.4030600369470084 0.859872214743208 0.31330876293025556
		outer loop
			vertex 1.047199 7.1835041 2.2904401
			vertex 0.989381 7.263864 2.144274
			vertex 0.888324 7.2382622 2.3445439
		endloop
	endfacet
endsolid exported
