solid exported
	facet normal 0.26448406448825085 -0.33390512054842536 0.904740598239803
		outer loop
			vertex -1.078872 5.6966848 2.4170051
			vertex -1.5298229 5.5509772 2.4950571
			vertex -0.929153 5.5445871 2.3171041
		endloop
	endfacet
	facet normal 0.25276734505772225 -0.42637494090233025 0.8685119913063981
		outer loop
			vertex -1.5298229 5.5509772 2.4950571
			vertex -1.501116 5.2071772 2.3179221
			vertex -0.929153 5.5445871 2.3171041
		endloop
	endfacet
	facet normal 0.42157852735676715 -0.7132846867863895 0.5599075824345854
		outer loop
			vertex -0.929153 5.5445871 2.3171041
			vertex -1.501116 5.2071772 2.3179221
			vertex -0.799136 5.3067522 1.916223
		endloop
	endfacet
	facet normal 0.3762916152094966 -0.8054233785445056 0.4579277253202545
		outer loop
			vertex -1.501116 5.2071772 2.3179221
			vertex -1.478616 5.054553 2.0309911
			vertex -0.799136 5.3067522 1.916223
		endloop
	endfacet
	facet normal 0.3743996483726769 -0.8894776614326769 0.26201983342997537
		outer loop
			vertex -0.799136 5.3067522 1.916223
			vertex -1.478616 5.054553 2.0309911
			vertex -0.946161 5.1770682 1.686069
		endloop
	endfacet
	facet normal 0.22806602202079782 -0.9736256988484501 0.0062360357179972944
		outer loop
			vertex -1.478616 5.054553 2.0309911
			vertex -1.49348 5.0491352 1.728726
			vertex -0.946161 5.1770682 1.686069
		endloop
	endfacet
	facet normal -0.00743738129065122 -0.4584875348127247 0.8886697169257475
		outer loop
			vertex -1.5298229 5.5509772 2.4950571
			vertex -2.0729661 5.5602722 2.495307
			vertex -1.501116 5.2071772 2.3179221
		endloop
	endfacet
	facet normal 0.04201097031665814 -0.39335337153385247 0.9184270267560749
		outer loop
			vertex -2.0729661 5.5602722 2.495307
			vertex -2.0773931 5.1631761 2.3254371
			vertex -1.501116 5.2071772 2.3179221
		endloop
	endfacet
	facet normal 0.07321316281634775 -0.878109662820409 0.4728247591358288
		outer loop
			vertex -1.501116 5.2071772 2.3179221
			vertex -2.0773931 5.1631761 2.3254371
			vertex -1.478616 5.054553 2.0309911
		endloop
	endfacet
	facet normal 0.14140472574851312 -0.8002395651179871 0.5827704024362965
		outer loop
			vertex -2.0773931 5.1631761 2.3254371
			vertex -2.070595 4.955864 2.039114
			vertex -1.478616 5.054553 2.0309911
		endloop
	endfacet
	facet normal 0.16456129540925934 -0.986320272620012 0.009586442093504984
		outer loop
			vertex -1.478616 5.054553 2.0309911
			vertex -2.070595 4.955864 2.039114
			vertex -1.49348 5.0491352 1.728726
		endloop
	endfacet
	facet normal 0.07220724436645433 -0.9842272754710119 -0.1615016534897152
		outer loop
			vertex -2.070595 4.955864 2.039114
			vertex -2.037503 5.007267 1.740648
			vertex -1.49348 5.0491352 1.728726
		endloop
	endfacet
	facet normal -0.11470662095463635 -0.38962743031196323 0.9138013223111826
		outer loop
			vertex -2.0729661 5.5602722 2.495307
			vertex -2.4565461 5.545939 2.441046
			vertex -2.0773931 5.1631761 2.3254371
		endloop
	endfacet
	facet normal -0.15901310522468992 -0.4264546054246475 0.8904219796697013
		outer loop
			vertex -2.4565461 5.545939 2.441046
			vertex -2.566148 5.2480531 2.278805
			vertex -2.0773931 5.1631761 2.3254371
		endloop
	endfacet
	facet normal -0.19300748855353755 -0.7969175016971585 0.5724251958562058
		outer loop
			vertex -2.0773931 5.1631761 2.3254371
			vertex -2.566148 5.2480531 2.278805
			vertex -2.070595 4.955864 2.039114
		endloop
	endfacet
	facet normal -0.20395993979622043 -0.8040528381603144 0.5584795219206032
		outer loop
			vertex -2.566148 5.2480531 2.278805
			vertex -2.5628331 5.04388 1.986064
			vertex -2.070595 4.955864 2.039114
		endloop
	endfacet
	facet normal -0.1537282125913818 -0.9707854508202535 -0.1842369266167239
		outer loop
			vertex -2.070595 4.955864 2.039114
			vertex -2.5628331 5.04388 1.986064
			vertex -2.037503 5.007267 1.740648
		endloop
	endfacet
	facet normal -0.04789709775824631 -0.9977772842138254 0.046328815366037564
		outer loop
			vertex -2.5628331 5.04388 1.986064
			vertex -2.4713039 5.027791 1.734185
			vertex -2.037503 5.007267 1.740648
		endloop
	endfacet
	facet normal -0.6596863940107578 -0.1575097048489013 0.734850021729261
		outer loop
			vertex -2.4565461 5.545939 2.441046
			vertex -2.630393 5.7718072 2.3333941
			vertex -2.566148 5.2480531 2.278805
		endloop
	endfacet
	facet normal -0.6662335063171257 -0.15769059362651605 0.7288803686079804
		outer loop
			vertex -2.630393 5.7718072 2.3333941
			vertex -2.8027861 5.6107502 2.140974
			vertex -2.566148 5.2480531 2.278805
		endloop
	endfacet
	facet normal -0.8474139872386793 -0.4399320631371304 0.2972361250860189
		outer loop
			vertex -2.566148 5.2480531 2.278805
			vertex -2.8027861 5.6107502 2.140974
			vertex -2.5628331 5.04388 1.986064
		endloop
	endfacet
	facet normal -0.8588643139526573 -0.43669881046182585 0.26766815118698345
		outer loop
			vertex -2.8027861 5.6107502 2.140974
			vertex -2.7938991 5.3867679 1.804064
			vertex -2.5628331 5.04388 1.986064
		endloop
	endfacet
	facet normal -0.745602529114728 -0.6250673416954008 -0.23101447340711426
		outer loop
			vertex -2.5628331 5.04388 1.986064
			vertex -2.7938991 5.3867679 1.804064
			vertex -2.4713039 5.027791 1.734185
		endloop
	endfacet
	facet normal -0.7432986155479682 -0.6689410349242032 0.005005988314979645
		outer loop
			vertex -2.7938991 5.3867679 1.804064
			vertex -2.659976 5.2359219 1.531945
			vertex -2.4713039 5.027791 1.734185
		endloop
	endfacet
	facet normal -0.8163087463337606 0.46599094088258614 0.3413099378488214
		outer loop
			vertex -2.630393 5.7718072 2.3333941
			vertex -2.5450871 6.075778 2.1224079
			vertex -2.8027861 5.6107502 2.140974
		endloop
	endfacet
	facet normal -0.6966271917537298 0.4095590969117277 0.5890432088108326
		outer loop
			vertex -2.5450871 6.075778 2.1224079
			vertex -2.8151391 5.9044409 1.922163
			vertex -2.8027861 5.6107502 2.140974
		endloop
	endfacet
	facet normal -0.9991488550044462 -0.04123644025221191 0.0010590272092796623
		outer loop
			vertex -2.8027861 5.6107502 2.140974
			vertex -2.8151391 5.9044409 1.922163
			vertex -2.7938991 5.3867679 1.804064
		endloop
	endfacet
	facet normal -0.9668698988230435 -0.09382947623807578 0.2373997222803902
		outer loop
			vertex -2.8151391 5.9044409 1.922163
			vertex -2.8909111 5.7988071 1.571812
			vertex -2.7938991 5.3867679 1.804064
		endloop
	endfacet
	facet normal -0.9021791964064116 -0.35253102989290247 -0.2485851373958854
		outer loop
			vertex -2.7938991 5.3867679 1.804064
			vertex -2.8909111 5.7988071 1.571812
			vertex -2.659976 5.2359219 1.531945
		endloop
	endfacet
	facet normal -0.8984766692194119 -0.3498316985217298 -0.26524980222008315
		outer loop
			vertex -2.8909111 5.7988071 1.571812
			vertex -2.7507861 5.641294 1.304909
			vertex -2.659976 5.2359219 1.531945
		endloop
	endfacet
	facet normal -0.6883935086815693 0.5869374631580657 0.42616756275748224
		outer loop
			vertex -2.5450871 6.075778 2.1224079
			vertex -2.50861 6.2059369 2.002069
			vertex -2.8151391 5.9044409 1.922163
		endloop
	endfacet
	facet normal -0.7091184109592067 0.6461811306141846 0.2821365372950904
		outer loop
			vertex -2.50861 6.2059369 2.002069
			vertex -2.6482761 6.179141 1.712405
			vertex -2.8151391 5.9044409 1.922163
		endloop
	endfacet
	facet normal -0.8466349336037338 0.5316855711221621 0.022797865301420098
		outer loop
			vertex -2.8151391 5.9044409 1.922163
			vertex -2.6482761 6.179141 1.712405
			vertex -2.8909111 5.7988071 1.571812
		endloop
	endfacet
	facet normal -0.8538885706201634 0.5135872611396584 0.08427594057213776
		outer loop
			vertex -2.6482761 6.179141 1.712405
			vertex -2.705776 6.1429892 1.350126
			vertex -2.8909111 5.7988071 1.571812
		endloop
	endfacet
	facet normal -0.8471059061058666 0.12260330620364047 -0.517088012961522
		outer loop
			vertex -2.8909111 5.7988071 1.571812
			vertex -2.705776 6.1429892 1.350126
			vertex -2.7507861 5.641294 1.304909
		endloop
	endfacet
	facet normal -0.8214383193807617 0.12386911131414896 -0.5566826121904231
		outer loop
			vertex -2.705776 6.1429892 1.350126
			vertex -2.6431351 5.90799 1.205403
			vertex -2.7507861 5.641294 1.304909
		endloop
	endfacet
	facet normal -0.4891959941757444 0.8580178810811334 0.15650110232023007
		outer loop
			vertex -2.50861 6.2059369 2.002069
			vertex -2.1602931 6.400744 2.0228181
			vertex -2.6482761 6.179141 1.712405
		endloop
	endfacet
	facet normal -0.44220589416160516 0.8951562772112972 0.05611761343772994
		outer loop
			vertex -2.1602931 6.400744 2.0228181
			vertex -2.1634221 6.4254632 1.603855
			vertex -2.6482761 6.179141 1.712405
		endloop
	endfacet
	facet normal -0.4558001366672615 0.8899298925113843 -0.01646274062184045
		outer loop
			vertex -2.6482761 6.179141 1.712405
			vertex -2.1634221 6.4254632 1.603855
			vertex -2.705776 6.1429892 1.350126
		endloop
	endfacet
	facet normal -0.3419155042159221 0.8998316688043341 -0.2709183563245197
		outer loop
			vertex -2.1634221 6.4254632 1.603855
			vertex -2.151706 6.34056 1.30707
			vertex -2.705776 6.1429892 1.350126
		endloop
	endfacet
	facet normal -0.2320371840330821 0.46447763148064125 -0.8546457014928066
		outer loop
			vertex -2.705776 6.1429892 1.350126
			vertex -2.151706 6.34056 1.30707
			vertex -2.6431351 5.90799 1.205403
		endloop
	endfacet
	facet normal -0.2145691446670355 0.4477758566205538 -0.8680189308906726
		outer loop
			vertex -2.151706 6.34056 1.30707
			vertex -2.0869131 5.9387751 1.083789
			vertex -2.6431351 5.90799 1.205403
		endloop
	endfacet
	facet normal 0.01837201252990763 0.9981035494577326 0.05875179755102382
		outer loop
			vertex -2.1602931 6.400744 2.0228181
			vertex -1.533931 6.391788 1.9791
			vertex -2.1634221 6.4254632 1.603855
		endloop
	endfacet
	facet normal -0.049628402293291934 0.9839240442836389 0.17155318932139665
		outer loop
			vertex -1.533931 6.391788 1.9791
			vertex -1.512184 6.4587631 1.601263
			vertex -2.1634221 6.4254632 1.603855
		endloop
	endfacet
	facet normal -0.05017292938729613 0.9596955346033811 -0.27652695712900766
		outer loop
			vertex -2.1634221 6.4254632 1.603855
			vertex -1.512184 6.4587631 1.601263
			vertex -2.151706 6.34056 1.30707
		endloop
	endfacet
	facet normal 0.06074324851205514 0.8735060840022213 -0.48300867380545803
		outer loop
			vertex -1.512184 6.4587631 1.601263
			vertex -1.491465 6.2920599 1.3023911
			vertex -2.151706 6.34056 1.30707
		endloop
	endfacet
	facet normal 0.029758698334765396 0.4892017912620122 -0.8716627944907704
		outer loop
			vertex -2.151706 6.34056 1.30707
			vertex -1.491465 6.2920599 1.3023911
			vertex -2.0869131 5.9387751 1.083789
		endloop
	endfacet
	facet normal -0.10196484887770889 0.6420379161019282 -0.7598621479458229
		outer loop
			vertex -1.491465 6.2920599 1.3023911
			vertex -1.492961 5.9721131 1.032256
			vertex -2.0869131 5.9387751 1.083789
		endloop
	endfacet
	facet normal 0.18565089360815812 0.9656411242009927 0.18185424095779434
		outer loop
			vertex -1.533931 6.391788 1.9791
			vertex -1.092007 6.3013229 2.008317
			vertex -1.512184 6.4587631 1.601263
		endloop
	endfacet
	facet normal 0.23854446264339185 0.9628974765671168 0.12619425091046796
		outer loop
			vertex -1.092007 6.3013229 2.008317
			vertex -1.0146461 6.301939 1.857381
			vertex -1.512184 6.4587631 1.601263
		endloop
	endfacet
	facet normal 0.4589153211605418 0.7890939168328107 -0.40832281153710964
		outer loop
			vertex -1.512184 6.4587631 1.601263
			vertex -1.0146461 6.301939 1.857381
			vertex -1.491465 6.2920599 1.3023911
		endloop
	endfacet
	facet normal 0.1616920286894614 0.9743910019748608 -0.15626216153859251
		outer loop
			vertex -1.0146461 6.301939 1.857381
			vertex -0.883603 6.2089829 1.413339
			vertex -1.491465 6.2920599 1.3023911
		endloop
	endfacet
	facet normal 0.22196261815198526 0.6284234132923815 -0.7455310924227565
		outer loop
			vertex -1.491465 6.2920599 1.3023911
			vertex -0.883603 6.2089829 1.413339
			vertex -1.492961 5.9721131 1.032256
		endloop
	endfacet
	facet normal 0.16674044773353983 0.6954930912010769 -0.6989184381465332
		outer loop
			vertex -0.883603 6.2089829 1.413339
			vertex -0.960652 5.9814091 1.168499
			vertex -1.492961 5.9721131 1.032256
		endloop
	endfacet
	facet normal 0.6431700574768715 0.6897812646050329 0.33246666624652715
		outer loop
			vertex -1.092007 6.3013229 2.008317
			vertex -1.006925 6.1757159 2.1043241
			vertex -1.0146461 6.301939 1.857381
		endloop
	endfacet
	facet normal 0.7069066510108845 0.6385160529387909 0.3042700065666063
		outer loop
			vertex -1.006925 6.1757159 2.1043241
			vertex -0.811664 6.007791 2.0030701
			vertex -1.0146461 6.301939 1.857381
		endloop
	endfacet
	facet normal 0.7923776582041374 0.6003656121156218 0.10816089204496294
		outer loop
			vertex -1.0146461 6.301939 1.857381
			vertex -0.811664 6.007791 2.0030701
			vertex -0.883603 6.2089829 1.413339
		endloop
	endfacet
	facet normal 0.8521413707339252 0.5182168666687926 0.07284478968111568
		outer loop
			vertex -0.811664 6.007791 2.0030701
			vertex -0.690164 5.8635879 1.607617
			vertex -0.883603 6.2089829 1.413339
		endloop
	endfacet
	facet normal 0.8561996747436581 0.2153657116955367 -0.4696165746592951
		outer loop
			vertex -0.883603 6.2089829 1.413339
			vertex -0.690164 5.8635879 1.607617
			vertex -0.960652 5.9814091 1.168499
		endloop
	endfacet
	facet normal 0.8555833402130639 0.040908245395735676 -0.5160461834065811
		outer loop
			vertex -0.690164 5.8635879 1.607617
			vertex -0.866274 5.7100558 1.303463
			vertex -0.960652 5.9814091 1.168499
		endloop
	endfacet
	facet normal 0.666416613317782 0.3927800959339146 0.6337291958969563
		outer loop
			vertex -1.006925 6.1757159 2.1043241
			vertex -1.005625 5.8306999 2.3167951
			vertex -0.811664 6.007791 2.0030701
		endloop
	endfacet
	facet normal 0.5865119445236524 0.49428673309748994 0.6416263432987264
		outer loop
			vertex -1.005625 5.8306999 2.3167951
			vertex -0.797913 5.7663279 2.1765151
			vertex -0.811664 6.007791 2.0030701
		endloop
	endfacet
	facet normal 0.9534879268148571 0.20978113357852815 0.21645472832168286
		outer loop
			vertex -0.811664 6.007791 2.0030701
			vertex -0.797913 5.7663279 2.1765151
			vertex -0.690164 5.8635879 1.607617
		endloop
	endfacet
	facet normal 0.9674167774437145 0.14446864258910824 0.20792688625783665
		outer loop
			vertex -0.797913 5.7663279 2.1765151
			vertex -0.682095 5.54211 1.793439
			vertex -0.690164 5.8635879 1.607617
		endloop
	endfacet
	facet normal 0.8883233753220027 -0.21289428044175712 -0.40688770712779077
		outer loop
			vertex -0.690164 5.8635879 1.607617
			vertex -0.682095 5.54211 1.793439
			vertex -0.866274 5.7100558 1.303463
		endloop
	endfacet
	facet normal 0.8388140594304395 -0.3341217343152376 -0.4298297806806843
		outer loop
			vertex -0.682095 5.54211 1.793439
			vertex -0.869979 5.400207 1.537089
			vertex -0.866274 5.7100558 1.303463
		endloop
	endfacet
	facet normal 0.5937935845703088 0.24785488904058883 0.7654914322850523
		outer loop
			vertex -1.005625 5.8306999 2.3167951
			vertex -1.078872 5.6966848 2.4170051
			vertex -0.797913 5.7663279 2.1765151
		endloop
	endfacet
	facet normal 0.6294069912438095 0.114760201360839 0.7685550959801353
		outer loop
			vertex -1.078872 5.6966848 2.4170051
			vertex -0.929153 5.5445871 2.3171041
			vertex -0.797913 5.7663279 2.1765151
		endloop
	endfacet
	facet normal 0.8740140478321803 -0.25509239530069616 0.41355448740372847
		outer loop
			vertex -0.797913 5.7663279 2.1765151
			vertex -0.929153 5.5445871 2.3171041
			vertex -0.682095 5.54211 1.793439
		endloop
	endfacet
	facet normal 0.88165643263799 -0.22089445166849722 0.41699829257459525
		outer loop
			vertex -0.929153 5.5445871 2.3171041
			vertex -0.799136 5.3067522 1.916223
			vertex -0.682095 5.54211 1.793439
		endloop
	endfacet
	facet normal 0.7925640163064809 -0.5409574636754355 -0.2814379195310763
		outer loop
			vertex -0.682095 5.54211 1.793439
			vertex -0.799136 5.3067522 1.916223
			vertex -0.869979 5.400207 1.537089
		endloop
	endfacet
	facet normal 0.8401890764680873 -0.4688234637496331 -0.27255618800808645
		outer loop
			vertex -0.799136 5.3067522 1.916223
			vertex -0.946161 5.1770682 1.686069
			vertex -0.869979 5.400207 1.537089
		endloop
	endfacet
	facet normal 0.2677556128599032 -0.35280335903816906 -0.896569418189915
		outer loop
			vertex -0.866274 5.7100558 1.303463
			vertex -1.479725 5.5806699 1.171173
			vertex -0.960652 5.9814091 1.168499
		endloop
	endfacet
	facet normal 0.24033028189564856 -0.3174181369629102 -0.9173260499576763
		outer loop
			vertex -1.479725 5.5806699 1.171173
			vertex -1.492961 5.9721131 1.032256
			vertex -0.960652 5.9814091 1.168499
		endloop
	endfacet
	facet normal 0.30308473241750294 -0.5760321260718684 -0.7591617974506711
		outer loop
			vertex -0.869979 5.400207 1.537089
			vertex -1.478085 5.2212501 1.430099
			vertex -0.866274 5.7100558 1.303463
		endloop
	endfacet
	facet normal 0.2857710451747235 -0.5592840045518932 -0.7781621373416624
		outer loop
			vertex -1.478085 5.2212501 1.430099
			vertex -1.479725 5.5806699 1.171173
			vertex -0.866274 5.7100558 1.303463
		endloop
	endfacet
	facet normal 0.06949267908436717 -0.5702294304942248 -0.8185408750648372
		outer loop
			vertex -0.946161 5.1770682 1.686069
			vertex -1.49348 5.0491352 1.728726
			vertex -0.869979 5.400207 1.537089
		endloop
	endfacet
	facet normal 0.32419187848739855 -0.8267404817332522 -0.45978234175127064
		outer loop
			vertex -1.49348 5.0491352 1.728726
			vertex -1.478085 5.2212501 1.430099
			vertex -0.869979 5.400207 1.537089
		endloop
	endfacet
	facet normal 0.048643702394520885 -0.33259075772589924 -0.9418158939477851
		outer loop
			vertex -1.479725 5.5806699 1.171173
			vertex -2.0864339 5.5525341 1.149773
			vertex -1.492961 5.9721131 1.032256
		endloop
	endfacet
	facet normal -0.07584628869822609 -0.16800305070297006 -0.9828643423408954
		outer loop
			vertex -2.0864339 5.5525341 1.149773
			vertex -2.0869131 5.9387751 1.083789
			vertex -1.492961 5.9721131 1.032256
		endloop
	endfacet
	facet normal 0.04426227325874235 -0.5838125872161307 -0.8106810187576715
		outer loop
			vertex -1.478085 5.2212501 1.430099
			vertex -2.071281 5.17839 1.4285769
			vertex -1.479725 5.5806699 1.171173
		endloop
	endfacet
	facet normal 0.05587612871210681 -0.5951329591316679 -0.8016823680207347
		outer loop
			vertex -2.071281 5.17839 1.4285769
			vertex -2.0864339 5.5525341 1.149773
			vertex -1.479725 5.5806699 1.171173
		endloop
	endfacet
	facet normal 0.055791386653693334 -0.8662910763873742 -0.4964142344321554
		outer loop
			vertex -1.49348 5.0491352 1.728726
			vertex -2.037503 5.007267 1.740648
			vertex -1.478085 5.2212501 1.430099
		endloop
	endfacet
	facet normal 0.06425420388174923 -0.872067275374833 -0.48514952798476285
		outer loop
			vertex -2.037503 5.007267 1.740648
			vertex -2.071281 5.17839 1.4285769
			vertex -1.478085 5.2212501 1.430099
		endloop
	endfacet
	facet normal -0.2450048561340214 -0.16355960713109136 -0.9556259076573168
		outer loop
			vertex -2.0864339 5.5525341 1.149773
			vertex -2.7507861 5.641294 1.304909
			vertex -2.0869131 5.9387751 1.083789
		endloop
	endfacet
	facet normal -0.19085816915913056 -0.2745875285224319 -0.9424302883742476
		outer loop
			vertex -2.7507861 5.641294 1.304909
			vertex -2.6431351 5.90799 1.205403
			vertex -2.0869131 5.9387751 1.083789
		endloop
	endfacet
	facet normal -0.19518701823177814 -0.5911002381754187 -0.7826254125331932
		outer loop
			vertex -2.071281 5.17839 1.4285769
			vertex -2.659976 5.2359219 1.531945
			vertex -2.0864339 5.5525341 1.149773
		endloop
	endfacet
	facet normal -0.2595676177527533 -0.5155117204231926 -0.8166225063764045
		outer loop
			vertex -2.659976 5.2359219 1.531945
			vertex -2.7507861 5.641294 1.304909
			vertex -2.0864339 5.5525341 1.149773
		endloop
	endfacet
	facet normal -0.034417653459167315 -0.877873885268434 -0.477653500661378
		outer loop
			vertex -2.037503 5.007267 1.740648
			vertex -2.4713039 5.027791 1.734185
			vertex -2.071281 5.17839 1.4285769
		endloop
	endfacet
	facet normal -0.18312529401312388 -0.7654420863627504 -0.6168983215386853
		outer loop
			vertex -2.4713039 5.027791 1.734185
			vertex -2.659976 5.2359219 1.531945
			vertex -2.071281 5.17839 1.4285769
		endloop
	endfacet
	facet normal 0.08024449246331489 0.6390527217620862 0.7649656464428811
		outer loop
			vertex -1.092007 6.3013229 2.008317
			vertex -1.533931 6.391788 1.9791
			vertex -1.006925 6.1757159 2.1043241
		endloop
	endfacet
	facet normal 0.10235863956508211 0.6737757119272718 0.7318121336267143
		outer loop
			vertex -1.533931 6.391788 1.9791
			vertex -1.53022 6.1761279 2.1771381
			vertex -1.006925 6.1757159 2.1043241
		endloop
	endfacet
	facet normal 0.11803498791424909 0.5210288695577383 0.8453381919181628
		outer loop
			vertex -1.006925 6.1757159 2.1043241
			vertex -1.53022 6.1761279 2.1771381
			vertex -1.005625 5.8306999 2.3167951
		endloop
	endfacet
	facet normal 0.12327219057720157 0.5271428445628769 0.8407879568930902
		outer loop
			vertex -1.53022 6.1761279 2.1771381
			vertex -1.5289921 5.8478022 2.3828061
			vertex -1.005625 5.8306999 2.3167951
		endloop
	endfacet
	facet normal 0.1221421640876828 0.5506829407033659 0.8257297321583321
		outer loop
			vertex -1.005625 5.8306999 2.3167951
			vertex -1.5289921 5.8478022 2.3828061
			vertex -1.078872 5.6966848 2.4170051
		endloop
	endfacet
	facet normal 0.04759240075271951 0.35320612625653575 0.9343341991843417
		outer loop
			vertex -1.5289921 5.8478022 2.3828061
			vertex -1.5298229 5.5509772 2.4950571
			vertex -1.078872 5.6966848 2.4170051
		endloop
	endfacet
	facet normal 0.06093871286009944 0.6756849842663986 0.7346674589988802
		outer loop
			vertex -1.533931 6.391788 1.9791
			vertex -2.1602931 6.400744 2.0228181
			vertex -1.53022 6.1761279 2.1771381
		endloop
	endfacet
	facet normal 0.017672063139133307 0.5993855461620936 0.800265371758878
		outer loop
			vertex -2.1602931 6.400744 2.0228181
			vertex -2.052742 6.1226859 2.228704
			vertex -1.53022 6.1761279 2.1771381
		endloop
	endfacet
	facet normal 0.029312439010445508 0.5307113306688422 0.8470456094089419
		outer loop
			vertex -1.53022 6.1761279 2.1771381
			vertex -2.052742 6.1226859 2.228704
			vertex -1.5289921 5.8478022 2.3828061
		endloop
	endfacet
	facet normal 0.06977219753550494 0.5856591663161612 0.8075488724287375
		outer loop
			vertex -2.052742 6.1226859 2.228704
			vertex -2.1019101 5.8301969 2.4450741
			vertex -1.5289921 5.8478022 2.3828061
		endloop
	endfacet
	facet normal 0.0904334448334756 0.35205265593004675 0.9316011590311334
		outer loop
			vertex -1.5289921 5.8478022 2.3828061
			vertex -2.1019101 5.8301969 2.4450741
			vertex -1.5298229 5.5509772 2.4950571
		endloop
	endfacet
	facet normal 0.003589676932524647 0.18332928116777888 0.9830450085759175
		outer loop
			vertex -2.1019101 5.8301969 2.4450741
			vertex -2.0729661 5.5602722 2.495307
			vertex -1.5298229 5.5509772 2.4950571
		endloop
	endfacet
	facet normal -0.31802457918783006 0.4816516264027047 0.8166223593657189
		outer loop
			vertex -2.1602931 6.400744 2.0228181
			vertex -2.50861 6.2059369 2.002069
			vertex -2.052742 6.1226859 2.228704
		endloop
	endfacet
	facet normal -0.21441053865151116 0.6947969173652723 0.6865022684120454
		outer loop
			vertex -2.50861 6.2059369 2.002069
			vertex -2.5450871 6.075778 2.1224079
			vertex -2.052742 6.1226859 2.228704
		endloop
	endfacet
	facet normal -0.22277659241996922 0.6036974897641556 0.765454068329514
		outer loop
			vertex -2.052742 6.1226859 2.228704
			vertex -2.5450871 6.075778 2.1224079
			vertex -2.1019101 5.8301969 2.4450741
		endloop
	endfacet
	facet normal -0.22844135678978686 0.5975798968370879 0.7685784367286248
		outer loop
			vertex -2.5450871 6.075778 2.1224079
			vertex -2.630393 5.7718072 2.3333941
			vertex -2.1019101 5.8301969 2.4450741
		endloop
	endfacet
	facet normal -0.22065934381226457 0.1555286765532363 0.9628708557007734
		outer loop
			vertex -2.1019101 5.8301969 2.4450741
			vertex -2.630393 5.7718072 2.3333941
			vertex -2.0729661 5.5602722 2.495307
		endloop
	endfacet
	facet normal -0.14425781298168833 0.33307570561331507 0.9317994729146033
		outer loop
			vertex -2.630393 5.7718072 2.3333941
			vertex -2.4565461 5.545939 2.441046
			vertex -2.0729661 5.5602722 2.495307
		endloop
	endfacet
	facet normal 0.30911552331533076 0.31799820243048316 0.8962838481733734
		outer loop
			vertex 2.5830519 5.5398951 2.211807
			vertex 2.730716 5.9398112 2.018991
			vertex 2.256819 5.5936952 2.305232
		endloop
	endfacet
	facet normal 0.3325959647803536 0.28743325014944865 0.8981993380761034
		outer loop
			vertex 2.730716 5.9398112 2.018991
			vertex 2.30337 5.9977489 2.1586931
			vertex 2.256819 5.5936952 2.305232
		endloop
	endfacet
	facet normal 0.32638306686121465 0.5447449935011733 0.7724810584873097
		outer loop
			vertex 2.730716 5.9398112 2.018991
			vertex 2.6975191 6.1121211 1.9115061
			vertex 2.30337 5.9977489 2.1586931
		endloop
	endfacet
	facet normal 0.3115018311361545 0.5698920967557948 0.7603878005689639
		outer loop
			vertex 2.6975191 6.1121211 1.9115061
			vertex 2.3184969 6.2765641 1.943531
			vertex 2.30337 5.9977489 2.1586931
		endloop
	endfacet
	facet normal 0.3901385794034358 0.8162502775724517 0.4260602929445139
		outer loop
			vertex 2.6975191 6.1121211 1.9115061
			vertex 2.7092569 6.2204142 1.693289
			vertex 2.3184969 6.2765641 1.943531
		endloop
	endfacet
	facet normal 0.35590040634060494 0.8613638632677811 0.36247371742375406
		outer loop
			vertex 2.7092569 6.2204142 1.693289
			vertex 2.360374 6.3676481 1.685966
			vertex 2.3184969 6.2765641 1.943531
		endloop
	endfacet
	facet normal -0.06251980396242941 0.34663292122845635 0.9359150025686768
		outer loop
			vertex 2.256819 5.5936952 2.305232
			vertex 2.30337 5.9977489 2.1586931
			vertex 1.556559 5.6458731 2.2391291
		endloop
	endfacet
	facet normal -0.0008759482809272061 0.22461019329120613 0.9744483022635404
		outer loop
			vertex 2.30337 5.9977489 2.1586931
			vertex 1.675216 6.077209 2.1398129
			vertex 1.556559 5.6458731 2.2391291
		endloop
	endfacet
	facet normal 0.05314103941952231 0.6082670407607517 0.7919515370611835
		outer loop
			vertex 2.30337 5.9977489 2.1586931
			vertex 2.3184969 6.2765641 1.943531
			vertex 1.675216 6.077209 2.1398129
		endloop
	endfacet
	facet normal 0.014908733551996088 0.676675137320095 0.7361307548232897
		outer loop
			vertex 2.3184969 6.2765641 1.943531
			vertex 1.672282 6.3656011 1.874773
			vertex 1.675216 6.077209 2.1398129
		endloop
	endfacet
	facet normal 0.09195387460631882 0.933997096725626 0.34524470778418515
		outer loop
			vertex 2.3184969 6.2765641 1.943531
			vertex 2.360374 6.3676481 1.685966
			vertex 1.672282 6.3656011 1.874773
		endloop
	endfacet
	facet normal 0.1161829727279922 0.8938216376838445 0.43311014402373116
		outer loop
			vertex 2.360374 6.3676481 1.685966
			vertex 1.702919 6.457346 1.677218
			vertex 1.672282 6.3656011 1.874773
		endloop
	endfacet
	facet normal -0.19357902568446822 0.27039997002460114 0.9430859011912684
		outer loop
			vertex 1.556559 5.6458731 2.2391291
			vertex 1.675216 6.077209 2.1398129
			vertex 1.283267 5.725843 2.160104
		endloop
	endfacet
	facet normal -0.27059836132406856 0.3535622062466962 0.8954162680913819
		outer loop
			vertex 1.675216 6.077209 2.1398129
			vertex 1.184175 6.060143 1.998157
			vertex 1.283267 5.725843 2.160104
		endloop
	endfacet
	facet normal -0.22989506955069258 0.6572748696056577 0.7177311493735993
		outer loop
			vertex 1.675216 6.077209 2.1398129
			vertex 1.672282 6.3656011 1.874773
			vertex 1.184175 6.060143 1.998157
		endloop
	endfacet
	facet normal -0.25375147319551594 0.682389985247551 0.6855319816645701
		outer loop
			vertex 1.672282 6.3656011 1.874773
			vertex 1.205919 6.2592139 1.8080471
			vertex 1.184175 6.060143 1.998157
		endloop
	endfacet
	facet normal -0.2568056084949493 0.8911533238563598 0.37402758297390454
		outer loop
			vertex 1.672282 6.3656011 1.874773
			vertex 1.702919 6.457346 1.677218
			vertex 1.205919 6.2592139 1.8080471
		endloop
	endfacet
	facet normal -0.2960636512898262 0.9176611288539529 0.2650365389440199
		outer loop
			vertex 1.702919 6.457346 1.677218
			vertex 1.3148431 6.3372722 1.659454
			vertex 1.205919 6.2592139 1.8080471
		endloop
	endfacet
	facet normal -0.6652566369658628 0.15646297330645093 0.7300362627684842
		outer loop
			vertex 1.283267 5.725843 2.160104
			vertex 1.184175 6.060143 1.998157
			vertex 1.136263 5.6028752 2.0524991
		endloop
	endfacet
	facet normal -0.7266507612622882 0.1556588728400833 0.6691404833539006
		outer loop
			vertex 1.184175 6.060143 1.998157
			vertex 1.024345 5.902607 1.861237
			vertex 1.136263 5.6028752 2.0524991
		endloop
	endfacet
	facet normal -0.793939003543223 0.46302452047810616 0.39404206893276517
		outer loop
			vertex 1.184175 6.060143 1.998157
			vertex 1.205919 6.2592139 1.8080471
			vertex 1.024345 5.902607 1.861237
		endloop
	endfacet
	facet normal -0.7807991460893331 0.46053525398416734 0.42220844769368016
		outer loop
			vertex 1.205919 6.2592139 1.8080471
			vertex 0.994332 6.0352311 1.66107
			vertex 1.024345 5.902607 1.861237
		endloop
	endfacet
	facet normal -0.6811947457831063 0.7222084462399504 -0.1199528177958567
		outer loop
			vertex 1.205919 6.2592139 1.8080471
			vertex 1.3148431 6.3372722 1.659454
			vertex 0.994332 6.0352311 1.66107
		endloop
	endfacet
	facet normal -0.6699450604944382 0.7120371476771596 0.21018257836195223
		outer loop
			vertex 1.3148431 6.3372722 1.659454
			vertex 1.1502481 6.2489481 1.434033
			vertex 0.994332 6.0352311 1.66107
		endloop
	endfacet
	facet normal -0.8689466987671417 -0.008703497620787256 0.49482914610080475
		outer loop
			vertex 1.136263 5.6028752 2.0524991
			vertex 1.024345 5.902607 1.861237
			vertex 1.063611 5.2409272 1.918552
		endloop
	endfacet
	facet normal -0.7631278316884793 0.010684381016397845 0.6461592346355013
		outer loop
			vertex 1.024345 5.902607 1.861237
			vertex 0.893824 5.6911139 1.710586
			vertex 1.063611 5.2409272 1.918552
		endloop
	endfacet
	facet normal -0.889339832199478 0.3083381440357386 0.33764219492830105
		outer loop
			vertex 1.024345 5.902607 1.861237
			vertex 0.994332 6.0352311 1.66107
			vertex 0.893824 5.6911139 1.710586
		endloop
	endfacet
	facet normal -0.9382929692760567 0.2990480418847979 0.17371405369741708
		outer loop
			vertex 0.994332 6.0352311 1.66107
			vertex 0.918385 5.9649472 1.371846
			vertex 0.893824 5.6911139 1.710586
		endloop
	endfacet
	facet normal -0.7791810322949403 0.624568685892668 0.052828737578113426
		outer loop
			vertex 0.994332 6.0352311 1.66107
			vertex 1.1502481 6.2489481 1.434033
			vertex 0.918385 5.9649472 1.371846
		endloop
	endfacet
	facet normal -0.7527753128039347 0.644214033251426 -0.13534255722007354
		outer loop
			vertex 1.1502481 6.2489481 1.434033
			vertex 1.101465 6.1332841 1.1548181
			vertex 0.918385 5.9649472 1.371846
		endloop
	endfacet
	facet normal -0.848789586893874 -0.44905694366323345 -0.27911305689337157
		outer loop
			vertex 1.063611 5.2409272 1.918552
			vertex 0.893824 5.6911139 1.710586
			vertex 1.140756 5.1852479 1.773533
		endloop
	endfacet
	facet normal -0.8863655423636784 -0.4474616254856811 -0.11888742165618199
		outer loop
			vertex 0.893824 5.6911139 1.710586
			vertex 0.978403 5.5811348 1.49394
			vertex 1.140756 5.1852479 1.773533
		endloop
	endfacet
	facet normal -0.9406984267641776 -0.22723096479998606 -0.25189791289224467
		outer loop
			vertex 0.893824 5.6911139 1.710586
			vertex 0.918385 5.9649472 1.371846
			vertex 0.978403 5.5811348 1.49394
		endloop
	endfacet
	facet normal -0.9304985823865202 -0.2349098707227871 -0.2810511355851102
		outer loop
			vertex 0.918385 5.9649472 1.371846
			vertex 1.0272731 5.7978292 1.151023
			vertex 0.978403 5.5811348 1.49394
		endloop
	endfacet
	facet normal -0.8175581336528672 0.18697944427556898 -0.5446442742895953
		outer loop
			vertex 0.918385 5.9649472 1.371846
			vertex 1.101465 6.1332841 1.1548181
			vertex 1.0272731 5.7978292 1.151023
		endloop
	endfacet
	facet normal -0.7591565772681101 0.17499396462118783 -0.6269437004522229
		outer loop
			vertex 1.101465 6.1332841 1.1548181
			vertex 1.189329 6.0486369 1.024798
			vertex 1.0272731 5.7978292 1.151023
		endloop
	endfacet
	facet normal -0.5025167135436373 -0.6267069208350019 -0.5955798754044773
		outer loop
			vertex 1.140756 5.1852479 1.773533
			vertex 0.978403 5.5811348 1.49394
			vertex 1.3983541 5.1938629 1.547121
		endloop
	endfacet
	facet normal -0.5347155634943905 -0.6534189948083704 -0.5358384862815428
		outer loop
			vertex 0.978403 5.5811348 1.49394
			vertex 1.488423 5.394989 1.2119811
			vertex 1.3983541 5.1938629 1.547121
		endloop
	endfacet
	facet normal -0.5285275904909585 -0.6816041563173373 -0.5060379038972798
		outer loop
			vertex 0.978403 5.5811348 1.49394
			vertex 1.0272731 5.7978292 1.151023
			vertex 1.488423 5.394989 1.2119811
		endloop
	endfacet
	facet normal -0.5060093290504736 -0.662778144688581 -0.5519779794856422
		outer loop
			vertex 1.0272731 5.7978292 1.151023
			vertex 1.452888 5.6179118 0.976886
			vertex 1.488423 5.394989 1.2119811
		endloop
	endfacet
	facet normal -0.43279625526700516 -0.1662686212623666 -0.8860260419481862
		outer loop
			vertex 1.0272731 5.7978292 1.151023
			vertex 1.189329 6.0486369 1.024798
			vertex 1.452888 5.6179118 0.976886
		endloop
	endfacet
	facet normal -0.404715467693738 -0.1472526316314107 -0.902508754908817
		outer loop
			vertex 1.189329 6.0486369 1.024798
			vertex 1.4765331 6.1533442 0.878922
			vertex 1.452888 5.6179118 0.976886
		endloop
	endfacet
	facet normal 0.09356644035373574 -0.8645784593856414 -0.4937098427273675
		outer loop
			vertex 1.3983541 5.1938629 1.547121
			vertex 1.488423 5.394989 1.2119811
			vertex 1.923954 5.0875602 1.8328871
		endloop
	endfacet
	facet normal 0.027478085741204493 -0.8880298389258358 -0.45896400728309117
		outer loop
			vertex 1.488423 5.394989 1.2119811
			vertex 2.3219111 5.3207049 1.405611
			vertex 1.923954 5.0875602 1.8328871
		endloop
	endfacet
	facet normal 0.09716978970553611 -0.7148340658686166 -0.6925101372848806
		outer loop
			vertex 1.488423 5.394989 1.2119811
			vertex 1.452888 5.6179118 0.976886
			vertex 2.3219111 5.3207049 1.405611
		endloop
	endfacet
	facet normal 0.1593112568487625 -0.6302747303212973 -0.7598510957810639
		outer loop
			vertex 1.452888 5.6179118 0.976886
			vertex 2.280472 5.6686721 1.108294
			vertex 2.3219111 5.3207049 1.405611
		endloop
	endfacet
	facet normal 0.16515807813968994 -0.18455584198172983 -0.9688456793605569
		outer loop
			vertex 1.452888 5.6179118 0.976886
			vertex 1.4765331 6.1533442 0.878922
			vertex 2.280472 5.6686721 1.108294
		endloop
	endfacet
	facet normal -0.0005189117812300944 -0.4284702242957207 -0.9035557523598298
		outer loop
			vertex 1.4765331 6.1533442 0.878922
			vertex 2.290077 6.0740151 0.916073
			vertex 2.280472 5.6686721 1.108294
		endloop
	endfacet
	facet normal 0.21161521299817646 -0.9272638148807121 -0.3088702304214584
		outer loop
			vertex 1.923954 5.0875602 1.8328871
			vertex 2.3219111 5.3207049 1.405611
			vertex 2.605963 5.2254672 1.886137
		endloop
	endfacet
	facet normal 0.5404458082193827 -0.7050183824590606 -0.45920301476896724
		outer loop
			vertex 2.3219111 5.3207049 1.405611
			vertex 2.6893079 5.4925342 1.5741971
			vertex 2.605963 5.2254672 1.886137
		endloop
	endfacet
	facet normal 0.5439148075511545 -0.5067306948975935 -0.6688652218311195
		outer loop
			vertex 2.3219111 5.3207049 1.405611
			vertex 2.280472 5.6686721 1.108294
			vertex 2.6893079 5.4925342 1.5741971
		endloop
	endfacet
	facet normal 0.4327277464737188 -0.6494612043566165 -0.6252574201618326
		outer loop
			vertex 2.280472 5.6686721 1.108294
			vertex 2.771066 5.7992859 1.3121541
			vertex 2.6893079 5.4925342 1.5741971
		endloop
	endfacet
	facet normal 0.4401348081711393 -0.39323950901087573 -0.8072447207563764
		outer loop
			vertex 2.280472 5.6686721 1.108294
			vertex 2.290077 6.0740151 0.916073
			vertex 2.771066 5.7992859 1.3121541
		endloop
	endfacet
	facet normal 0.3206641792616607 -0.5501821170998317 -0.771021479702085
		outer loop
			vertex 2.290077 6.0740151 0.916073
			vertex 2.7393069 6.0854611 1.094738
			vertex 2.771066 5.7992859 1.3121541
		endloop
	endfacet
	facet normal 0.7234889017524856 -0.607897036111561 -0.3271467599224573
		outer loop
			vertex 2.605963 5.2254672 1.886137
			vertex 2.6893079 5.4925342 1.5741971
			vertex 2.6723909 5.240293 2.0054941
		endloop
	endfacet
	facet normal 0.833424468733024 -0.4906627341046275 -0.2542709898475414
		outer loop
			vertex 2.6893079 5.4925342 1.5741971
			vertex 2.865185 5.6470718 1.852461
			vertex 2.6723909 5.240293 2.0054941
		endloop
	endfacet
	facet normal 0.8430658260243902 -0.4611293378804406 -0.2767665925211336
		outer loop
			vertex 2.6893079 5.4925342 1.5741971
			vertex 2.771066 5.7992859 1.3121541
			vertex 2.865185 5.6470718 1.852461
		endloop
	endfacet
	facet normal 0.7145902384373262 -0.6308948217695876 -0.3022126982679678
		outer loop
			vertex 2.771066 5.7992859 1.3121541
			vertex 2.9213109 5.912879 1.430277
			vertex 2.865185 5.6470718 1.852461
		endloop
	endfacet
	facet normal 0.7295349184812662 -0.3605745816721247 -0.5811753382315052
		outer loop
			vertex 2.771066 5.7992859 1.3121541
			vertex 2.7393069 6.0854611 1.094738
			vertex 2.9213109 5.912879 1.430277
		endloop
	endfacet
	facet normal 0.8984108680062173 0.13495405577521388 -0.41790586868113727
		outer loop
			vertex 2.7393069 6.0854611 1.094738
			vertex 2.776176 6.1416969 1.1921591
			vertex 2.9213109 5.912879 1.430277
		endloop
	endfacet
	facet normal 0.8807061325908887 -0.2713593978890969 0.3882277491293828
		outer loop
			vertex 2.6723909 5.240293 2.0054941
			vertex 2.865185 5.6470718 1.852461
			vertex 2.6619821 5.4144411 2.150831
		endloop
	endfacet
	facet normal 0.8744528911678269 -0.19299513860394646 0.44506743040068925
		outer loop
			vertex 2.865185 5.6470718 1.852461
			vertex 2.860563 5.8224878 1.937608
			vertex 2.6619821 5.4144411 2.150831
		endloop
	endfacet
	facet normal 0.9930862278730396 -0.0290418153114254 0.1137379311061821
		outer loop
			vertex 2.865185 5.6470718 1.852461
			vertex 2.9213109 5.912879 1.430277
			vertex 2.860563 5.8224878 1.937608
		endloop
	endfacet
	facet normal 0.9924881827030064 0.014681191649115992 0.12145645230553131
		outer loop
			vertex 2.9213109 5.912879 1.430277
			vertex 2.8865211 6.0169921 1.701979
			vertex 2.860563 5.8224878 1.937608
		endloop
	endfacet
	facet normal 0.8744206171548865 0.47981225010966794 -0.07189429003171821
		outer loop
			vertex 2.9213109 5.912879 1.430277
			vertex 2.776176 6.1416969 1.1921591
			vertex 2.8865211 6.0169921 1.701979
		endloop
	endfacet
	facet normal 0.841222254558565 0.5383359548937882 -0.050393631581763375
		outer loop
			vertex 2.776176 6.1416969 1.1921591
			vertex 2.7567129 6.1889062 1.37158
			vertex 2.8865211 6.0169921 1.701979
		endloop
	endfacet
	facet normal 0.6693045901534104 0.06120057361292442 0.7404632707899997
		outer loop
			vertex 2.6619821 5.4144411 2.150831
			vertex 2.860563 5.8224878 1.937608
			vertex 2.5830519 5.5398951 2.211807
		endloop
	endfacet
	facet normal 0.6164556507524779 0.14547835265336068 0.7738336252480914
		outer loop
			vertex 2.860563 5.8224878 1.937608
			vertex 2.730716 5.9398112 2.018991
			vertex 2.5830519 5.5398951 2.211807
		endloop
	endfacet
	facet normal 0.7346104661786206 0.4812984422478646 0.4782251273935832
		outer loop
			vertex 2.860563 5.8224878 1.937608
			vertex 2.8865211 6.0169921 1.701979
			vertex 2.730716 5.9398112 2.018991
		endloop
	endfacet
	facet normal 0.7560480496144877 0.4450350400809635 0.47993245334553525
		outer loop
			vertex 2.8865211 6.0169921 1.701979
			vertex 2.6975191 6.1121211 1.9115061
			vertex 2.730716 5.9398112 2.018991
		endloop
	endfacet
	facet normal 0.5917784985760137 0.7864892143812129 0.17672839128205023
		outer loop
			vertex 2.8865211 6.0169921 1.701979
			vertex 2.7567129 6.1889062 1.37158
			vertex 2.6975191 6.1121211 1.9115061
		endloop
	endfacet
	facet normal 0.9794891282141749 0.15449328713447813 0.12935560266420507
		outer loop
			vertex 2.7567129 6.1889062 1.37158
			vertex 2.7092569 6.2204142 1.693289
			vertex 2.6975191 6.1121211 1.9115061
		endloop
	endfacet
	facet normal 0.3769950454479213 0.7332181992293813 -0.5659203195031464
		outer loop
			vertex 2.776176 6.1416969 1.1921591
			vertex 2.7393069 6.0854611 1.094738
			vertex 2.2919631 6.2486792 1.008203
		endloop
	endfacet
	facet normal 0.32238192474253763 0.43891057185086996 -0.8387057913934057
		outer loop
			vertex 2.7393069 6.0854611 1.094738
			vertex 2.290077 6.0740151 0.916073
			vertex 2.2919631 6.2486792 1.008203
		endloop
	endfacet
	facet normal 0.42422689539478475 0.8860144380887359 -0.18710947790532767
		outer loop
			vertex 2.7567129 6.1889062 1.37158
			vertex 2.776176 6.1416969 1.1921591
			vertex 2.341537 6.3700151 1.287866
		endloop
	endfacet
	facet normal 0.3460929327172912 0.8367332781115785 -0.4243784905291461
		outer loop
			vertex 2.776176 6.1416969 1.1921591
			vertex 2.2919631 6.2486792 1.008203
			vertex 2.341537 6.3700151 1.287866
		endloop
	endfacet
	facet normal 0.3891850443875338 0.9205771858424749 -0.03275127679073196
		outer loop
			vertex 2.7092569 6.2204142 1.693289
			vertex 2.7567129 6.1889062 1.37158
			vertex 2.360374 6.3676481 1.685966
		endloop
	endfacet
	facet normal 0.4020982630013903 0.9154957630306029 -0.013582884976297777
		outer loop
			vertex 2.7567129 6.1889062 1.37158
			vertex 2.341537 6.3700151 1.287866
			vertex 2.360374 6.3676481 1.685966
		endloop
	endfacet
	facet normal 0.01824204769844488 0.46631364854893265 -0.8844313477442723
		outer loop
			vertex 2.2919631 6.2486792 1.008203
			vertex 2.290077 6.0740151 0.916073
			vertex 1.72594 6.3939691 1.073132
		endloop
	endfacet
	facet normal 0.09256724411747771 0.5655053638650991 -0.8195333969743376
		outer loop
			vertex 2.290077 6.0740151 0.916073
			vertex 1.4765331 6.1533442 0.878922
			vertex 1.72594 6.3939691 1.073132
		endloop
	endfacet
	facet normal 0.04844213684261888 0.9131367964797201 -0.4047648086146757
		outer loop
			vertex 2.341537 6.3700151 1.287866
			vertex 2.2919631 6.2486792 1.008203
			vertex 1.627177 6.4280081 1.333202
		endloop
	endfacet
	facet normal 0.24483896476089495 0.9689728879660249 -0.03384410911214368
		outer loop
			vertex 2.2919631 6.2486792 1.008203
			vertex 1.72594 6.3939691 1.073132
			vertex 1.627177 6.4280081 1.333202
		endloop
	endfacet
	facet normal 0.1351862888830509 0.9908200703378837 -0.0005054835900544846
		outer loop
			vertex 2.360374 6.3676481 1.685966
			vertex 2.341537 6.3700151 1.287866
			vertex 1.702919 6.457346 1.677218
		endloop
	endfacet
	facet normal 0.07413710303674866 0.9921272207090226 -0.1009319963218261
		outer loop
			vertex 2.341537 6.3700151 1.287866
			vertex 1.627177 6.4280081 1.333202
			vertex 1.702919 6.457346 1.677218
		endloop
	endfacet
	facet normal -0.3912348144483713 0.7885131050472852 -0.4745338798571055
		outer loop
			vertex 1.72594 6.3939691 1.073132
			vertex 1.4765331 6.1533442 0.878922
			vertex 1.101465 6.1332841 1.1548181
		endloop
	endfacet
	facet normal -0.5301143155163841 0.5007726466534835 -0.6842554850699124
		outer loop
			vertex 1.4765331 6.1533442 0.878922
			vertex 1.189329 6.0486369 1.024798
			vertex 1.101465 6.1332841 1.1548181
		endloop
	endfacet
	facet normal -0.3873322323543758 0.8837046505372007 -0.26275431946649325
		outer loop
			vertex 1.627177 6.4280081 1.333202
			vertex 1.72594 6.3939691 1.073132
			vertex 1.1502481 6.2489481 1.434033
		endloop
	endfacet
	facet normal -0.4007320405530956 0.8690869710208862 -0.29000287666830754
		outer loop
			vertex 1.72594 6.3939691 1.073132
			vertex 1.101465 6.1332841 1.1548181
			vertex 1.1502481 6.2489481 1.434033
		endloop
	endfacet
	facet normal -0.29485038785061635 0.9553999260030595 -0.01655989666906318
		outer loop
			vertex 1.702919 6.457346 1.677218
			vertex 1.627177 6.4280081 1.333202
			vertex 1.3148431 6.3372722 1.659454
		endloop
	endfacet
	facet normal -0.36733777299628634 0.9252919019844907 -0.0943284509151539
		outer loop
			vertex 1.627177 6.4280081 1.333202
			vertex 1.1502481 6.2489481 1.434033
			vertex 1.3148431 6.3372722 1.659454
		endloop
	endfacet
	facet normal 0.19728389505427538 -0.9802733744227379 0.011965623680881115
		outer loop
			vertex 2.605963 5.2254672 1.886137
			vertex 2.6723909 5.240293 2.0054941
			vertex 1.923954 5.0875602 1.8328871
		endloop
	endfacet
	facet normal 0.2073721515671111 -0.9776682152530158 -0.034083010993894
		outer loop
			vertex 2.6723909 5.240293 2.0054941
			vertex 1.984382 5.0899892 2.1308751
			vertex 1.923954 5.0875602 1.8328871
		endloop
	endfacet
	facet normal 0.26892934286137654 -0.6076093327910345 0.7473204849683851
		outer loop
			vertex 2.6723909 5.240293 2.0054941
			vertex 2.6619821 5.4144411 2.150831
			vertex 1.984382 5.0899892 2.1308751
		endloop
	endfacet
	facet normal 0.23745084406245826 -0.5453466411995438 0.8038744538710023
		outer loop
			vertex 2.6619821 5.4144411 2.150831
			vertex 2.1423521 5.2646031 2.2026711
			vertex 1.984382 5.0899892 2.1308751
		endloop
	endfacet
	facet normal 0.1877744279271747 -0.3312836311964657 0.9246577312270235
		outer loop
			vertex 2.6619821 5.4144411 2.150831
			vertex 2.5830519 5.5398951 2.211807
			vertex 2.1423521 5.2646031 2.2026711
		endloop
	endfacet
	facet normal 0.2028135066709745 -0.3549592921351738 0.9126174348754901
		outer loop
			vertex 2.5830519 5.5398951 2.211807
			vertex 2.256819 5.5936952 2.305232
			vertex 2.1423521 5.2646031 2.2026711
		endloop
	endfacet
	facet normal -0.22594177601766363 -0.972656997240489 0.05374643773404275
		outer loop
			vertex 1.923954 5.0875602 1.8328871
			vertex 1.984382 5.0899892 2.1308751
			vertex 1.3983541 5.1938629 1.547121
		endloop
	endfacet
	facet normal -0.0760406541603155 -0.9920582709085751 -0.10019084806887076
		outer loop
			vertex 1.984382 5.0899892 2.1308751
			vertex 1.378173 5.1378741 2.1168211
			vertex 1.3983541 5.1938629 1.547121
		endloop
	endfacet
	facet normal -0.04875548147055778 -0.3417806722673445 0.9385141848107872
		outer loop
			vertex 1.984382 5.0899892 2.1308751
			vertex 2.1423521 5.2646031 2.2026711
			vertex 1.378173 5.1378741 2.1168211
		endloop
	endfacet
	facet normal -0.07652112053592482 -0.20025578755553786 0.9767508063280204
		outer loop
			vertex 2.1423521 5.2646031 2.2026711
			vertex 1.458414 5.3914938 2.1751051
			vertex 1.378173 5.1378741 2.1168211
		endloop
	endfacet
	facet normal -0.0884243378942506 -0.2682060314255431 0.959294877071135
		outer loop
			vertex 2.1423521 5.2646031 2.2026711
			vertex 2.256819 5.5936952 2.305232
			vertex 1.458414 5.3914938 2.1751051
		endloop
	endfacet
	facet normal -0.10703918110774399 -0.20363820586688444 0.9731773193098471
		outer loop
			vertex 2.256819 5.5936952 2.305232
			vertex 1.556559 5.6458731 2.2391291
			vertex 1.458414 5.3914938 2.1751051
		endloop
	endfacet
	facet normal -0.05428481443865329 -0.9935490105467185 -0.0995666739576941
		outer loop
			vertex 1.3983541 5.1938629 1.547121
			vertex 1.378173 5.1378741 2.1168211
			vertex 1.140756 5.1852479 1.773533
		endloop
	endfacet
	facet normal -0.3883405901443742 -0.9103616151033324 0.14294514959512056
		outer loop
			vertex 1.378173 5.1378741 2.1168211
			vertex 1.063611 5.2409272 1.918552
			vertex 1.140756 5.1852479 1.773533
		endloop
	endfacet
	facet normal -0.5385044402828458 -0.023194865329652915 0.8423033693497839
		outer loop
			vertex 1.378173 5.1378741 2.1168211
			vertex 1.458414 5.3914938 2.1751051
			vertex 1.063611 5.2409272 1.918552
		endloop
	endfacet
	facet normal -0.47049560314788724 -0.22164353838864262 0.8541124219381592
		outer loop
			vertex 1.458414 5.3914938 2.1751051
			vertex 1.136263 5.6028752 2.0524991
			vertex 1.063611 5.2409272 1.918552
		endloop
	endfacet
	facet normal -0.39809781815644274 -0.07648483317607609 0.9141488923983379
		outer loop
			vertex 1.458414 5.3914938 2.1751051
			vertex 1.556559 5.6458731 2.2391291
			vertex 1.136263 5.6028752 2.0524991
		endloop
	endfacet
	facet normal -0.35197334361012594 -0.3417510355744368 0.8713902656512226
		outer loop
			vertex 1.556559 5.6458731 2.2391291
			vertex 1.283267 5.725843 2.160104
			vertex 1.136263 5.6028752 2.0524991
		endloop
	endfacet
endsolid exported
