solid exported
	facet normal 0.02685660930225979 -0.691724405142567 0.7216620191384244
		outer loop
			vertex -0.53447 1.808053 -0.214185
			vertex -0.588138 1.9080271 -0.116361
			vertex -0.58056 1.801502 -0.218749
		endloop
	endfacet
	facet normal -0.32643997351270354 -0.6669739791166408 0.6697631334093721
		outer loop
			vertex -0.588138 1.9080271 -0.116361
			vertex -0.625232 1.901406 -0.141034
			vertex -0.58056 1.801502 -0.218749
		endloop
	endfacet
	facet normal 0.5460057104511513 -0.4890007539041218 0.6802617340670679
		outer loop
			vertex -0.503133 1.8290581 -0.224238
			vertex -0.564532 1.936198 -0.09794
			vertex -0.53447 1.808053 -0.214185
		endloop
	endfacet
	facet normal 0.17690770490996474 -0.6381932500556863 0.7492750092768671
		outer loop
			vertex -0.564532 1.936198 -0.09794
			vertex -0.588138 1.9080271 -0.116361
			vertex -0.53447 1.808053 -0.214185
		endloop
	endfacet
	facet normal 0.8968470712308545 -0.033695218681473536 0.44105551018284106
		outer loop
			vertex -0.492264 1.8559721 -0.244283
			vertex -0.562282 1.9658411 -0.093514
			vertex -0.503133 1.8290581 -0.224238
		endloop
	endfacet
	facet normal 0.8373306982937421 -0.14236664351824724 0.5278342926603599
		outer loop
			vertex -0.562282 1.9658411 -0.093514
			vertex -0.564532 1.936198 -0.09794
			vertex -0.503133 1.8290581 -0.224238
		endloop
	endfacet
	facet normal 0.5427067673636342 0.7641253442057123 -0.34868585144828584
		outer loop
			vertex -0.523437 1.869861 -0.262365
			vertex -0.588199 1.987336 -0.105723
			vertex -0.492264 1.8559721 -0.244283
		endloop
	endfacet
	facet normal 0.6794674879190263 0.7061848010324063 -0.19906521457007134
		outer loop
			vertex -0.588199 1.987336 -0.105723
			vertex -0.562282 1.9658411 -0.093514
			vertex -0.492264 1.8559721 -0.244283
		endloop
	endfacet
	facet normal 0.2869841795663207 0.7948440723686943 -0.5346615577157159
		outer loop
			vertex -0.567139 1.875813 -0.276974
			vertex -0.625137 1.996689 -0.128407
			vertex -0.523437 1.869861 -0.262365
		endloop
	endfacet
	facet normal 0.4515967639847161 0.7933365543329713 -0.4082615268643635
		outer loop
			vertex -0.625137 1.996689 -0.128407
			vertex -0.588199 1.987336 -0.105723
			vertex -0.523437 1.869861 -0.262365
		endloop
	endfacet
	facet normal -0.003183676508557773 0.7361080348803533 -0.6768565765274602
		outer loop
			vertex -0.605695 1.870954 -0.282077
			vertex -0.654803 1.992614 -0.149536
			vertex -0.567139 1.875813 -0.276974
		endloop
	endfacet
	facet normal 0.27519851117865585 0.795526583200903 -0.5398177793160839
		outer loop
			vertex -0.654803 1.992614 -0.149536
			vertex -0.625137 1.996689 -0.128407
			vertex -0.567139 1.875813 -0.276974
		endloop
	endfacet
	facet normal -0.4019746849993452 0.5242138410315181 -0.7507437655356582
		outer loop
			vertex -0.644105 1.852667 -0.27428
			vertex -0.685311 1.969947 -0.170325
			vertex -0.605695 1.870954 -0.282077
		endloop
	endfacet
	facet normal -0.06776841286879642 0.7223711549647746 -0.6881768353352953
		outer loop
			vertex -0.685311 1.969947 -0.170325
			vertex -0.654803 1.992614 -0.149536
			vertex -0.605695 1.870954 -0.282077
		endloop
	endfacet
	facet normal -0.851559479750527 0.11156326200695214 -0.5122500278354118
		outer loop
			vertex -0.657647 1.82947 -0.25682
			vertex -0.691714 1.94129 -0.175834
			vertex -0.644105 1.852667 -0.27428
		endloop
	endfacet
	facet normal -0.7388060845346578 0.2826810659537707 -0.6117654651954524
		outer loop
			vertex -0.691714 1.94129 -0.175834
			vertex -0.685311 1.969947 -0.170325
			vertex -0.644105 1.852667 -0.27428
		endloop
	endfacet
	facet normal -0.6602110012240272 -0.5751949056662035 0.482982664656212
		outer loop
			vertex -0.624048 1.809509 -0.234664
			vertex -0.662338 1.913464 -0.163202
			vertex -0.657647 1.82947 -0.25682
		endloop
	endfacet
	facet normal -0.7082426856375112 -0.5427462373961869 0.4514629774779405
		outer loop
			vertex -0.662338 1.913464 -0.163202
			vertex -0.691714 1.94129 -0.175834
			vertex -0.657647 1.82947 -0.25682
		endloop
	endfacet
	facet normal -0.3683821108815551 -0.6149724455507372 0.6972112388622228
		outer loop
			vertex -0.624048 1.809509 -0.234664
			vertex -0.58056 1.801502 -0.218749
			vertex -0.662338 1.913464 -0.163202
		endloop
	endfacet
	facet normal -0.5328970630222406 -0.6550098654935121 0.5357077527238535
		outer loop
			vertex -0.58056 1.801502 -0.218749
			vertex -0.625232 1.901406 -0.141034
			vertex -0.662338 1.913464 -0.163202
		endloop
	endfacet
	facet normal -0.004083589015594904 -0.8800274828458299 0.47490520500072886
		outer loop
			vertex -0.402366 1.691332 -0.42934
			vertex -0.53447 1.808053 -0.214185
			vertex -0.459671 1.6859111 -0.439878
		endloop
	endfacet
	facet normal 0.07428830865290412 -0.8665261229965944 0.4935724114676407
		outer loop
			vertex -0.53447 1.808053 -0.214185
			vertex -0.58056 1.801502 -0.218749
			vertex -0.459671 1.6859111 -0.439878
		endloop
	endfacet
	facet normal 0.4236269272854199 -0.6418873279795725 0.6391563851343101
		outer loop
			vertex -0.36297 1.713169 -0.433521
			vertex -0.503133 1.8290581 -0.224238
			vertex -0.402366 1.691332 -0.42934
		endloop
	endfacet
	facet normal 0.560652900226158 -0.5332268905948027 0.63351196406587
		outer loop
			vertex -0.503133 1.8290581 -0.224238
			vertex -0.53447 1.808053 -0.214185
			vertex -0.402366 1.691332 -0.42934
		endloop
	endfacet
	facet normal 0.8117518169220765 -0.037355746663343 0.582806602497717
		outer loop
			vertex -0.350353 1.743036 -0.44918
			vertex -0.492264 1.8559721 -0.244283
			vertex -0.36297 1.713169 -0.433521
		endloop
	endfacet
	facet normal 0.8437761383158692 0.05672842235155786 0.5336887805699712
		outer loop
			vertex -0.492264 1.8559721 -0.244283
			vertex -0.503133 1.8290581 -0.224238
			vertex -0.36297 1.713169 -0.433521
		endloop
	endfacet
	facet normal 0.4673019979264564 0.869932852208247 -0.15762511025457351
		outer loop
			vertex -0.385649 1.757905 -0.471758
			vertex -0.523437 1.869861 -0.262365
			vertex -0.350353 1.743036 -0.44918
		endloop
	endfacet
	facet normal 0.4737414651533464 0.867763310501755 -0.15018608837504066
		outer loop
			vertex -0.523437 1.869861 -0.262365
			vertex -0.492264 1.8559721 -0.244283
			vertex -0.350353 1.743036 -0.44918
		endloop
	endfacet
	facet normal 0.270819703199699 0.9143193662951805 -0.30112586201853686
		outer loop
			vertex -0.43902 1.7670389 -0.492024
			vertex -0.567139 1.875813 -0.276974
			vertex -0.385649 1.757905 -0.471758
		endloop
	endfacet
	facet normal 0.23567937109661694 0.9129780767956222 -0.3330559492488763
		outer loop
			vertex -0.567139 1.875813 -0.276974
			vertex -0.523437 1.869861 -0.262365
			vertex -0.385649 1.757905 -0.471758
		endloop
	endfacet
	facet normal 0.010818183579568206 0.8995625871043024 -0.43665789674097655
		outer loop
			vertex -0.492908 1.762861 -0.501966
			vertex -0.605695 1.870954 -0.282077
			vertex -0.43902 1.7670389 -0.492024
		endloop
	endfacet
	facet normal -0.04816033393010558 0.8794598217998462 -0.47353036235866003
		outer loop
			vertex -0.605695 1.870954 -0.282077
			vertex -0.567139 1.875813 -0.276974
			vertex -0.43902 1.7670389 -0.492024
		endloop
	endfacet
	facet normal -0.3709991033200736 0.7530512220498169 -0.5433907639121031
		outer loop
			vertex -0.535674 1.7436889 -0.499337
			vertex -0.644105 1.852667 -0.27428
			vertex -0.492908 1.762861 -0.501966
		endloop
	endfacet
	facet normal -0.44488678488896927 0.6920874585785287 -0.5684106775118404
		outer loop
			vertex -0.644105 1.852667 -0.27428
			vertex -0.605695 1.870954 -0.282077
			vertex -0.492908 1.762861 -0.501966
		endloop
	endfacet
	facet normal -0.8768943369240139 0.08874349251901001 -0.47242027306850715
		outer loop
			vertex -0.546396 1.718105 -0.484241
			vertex -0.657647 1.82947 -0.25682
			vertex -0.535674 1.7436889 -0.499337
		endloop
	endfacet
	facet normal -0.863812234752417 0.14000125136427588 -0.4839711486323046
		outer loop
			vertex -0.657647 1.82947 -0.25682
			vertex -0.644105 1.852667 -0.27428
			vertex -0.535674 1.7436889 -0.499337
		endloop
	endfacet
	facet normal -0.597361503736703 -0.7950279785717737 0.10530786837413682
		outer loop
			vertex -0.513029 1.696189 -0.460422
			vertex -0.624048 1.809509 -0.234664
			vertex -0.546396 1.718105 -0.484241
		endloop
	endfacet
	facet normal -0.5654775406915584 -0.8155774647497016 0.12275402219836296
		outer loop
			vertex -0.624048 1.809509 -0.234664
			vertex -0.657647 1.82947 -0.25682
			vertex -0.546396 1.718105 -0.484241
		endloop
	endfacet
	facet normal -0.2934445801696333 -0.9044284641678133 0.30967633356799823
		outer loop
			vertex -0.513029 1.696189 -0.460422
			vertex -0.459671 1.6859111 -0.439878
			vertex -0.624048 1.809509 -0.234664
		endloop
	endfacet
	facet normal -0.28304361350653584 -0.9047781599056569 0.3182181550617384
		outer loop
			vertex -0.459671 1.6859111 -0.439878
			vertex -0.58056 1.801502 -0.218749
			vertex -0.624048 1.809509 -0.234664
		endloop
	endfacet
	facet normal 0.009290722734757992 -0.9476286373828737 0.3192391706588398
		outer loop
			vertex -0.335188 1.633329 -0.603471
			vertex -0.402366 1.691332 -0.42934
			vertex -0.398263 1.6301759 -0.610995
		endloop
	endfacet
	facet normal 0.03082955911560681 -0.9470717449286011 0.3195381796321566
		outer loop
			vertex -0.402366 1.691332 -0.42934
			vertex -0.459671 1.6859111 -0.439878
			vertex -0.398263 1.6301759 -0.610995
		endloop
	endfacet
	facet normal 0.4352578579531662 -0.7853951591246496 0.4401193487153094
		outer loop
			vertex -0.292449 1.656142 -0.605028
			vertex -0.36297 1.713169 -0.433521
			vertex -0.335188 1.633329 -0.603471
		endloop
	endfacet
	facet normal 0.4710964295399108 -0.7662367366674488 0.4369775937687959
		outer loop
			vertex -0.36297 1.713169 -0.433521
			vertex -0.402366 1.691332 -0.42934
			vertex -0.335188 1.633329 -0.603471
		endloop
	endfacet
	facet normal 0.8742975753725216 -0.20581885669133626 0.4395933893133533
		outer loop
			vertex -0.280214 1.689638 -0.613679
			vertex -0.350353 1.743036 -0.44918
			vertex -0.292449 1.656142 -0.605028
		endloop
	endfacet
	facet normal 0.8938198262949355 -0.15744715712745697 0.41987678053754435
		outer loop
			vertex -0.350353 1.743036 -0.44918
			vertex -0.36297 1.713169 -0.433521
			vertex -0.292449 1.656142 -0.605028
		endloop
	endfacet
	facet normal 0.4813010305281008 0.8742894189946755 -0.06298674341908028
		outer loop
			vertex -0.318871 1.709685 -0.630806
			vertex -0.385649 1.757905 -0.471758
			vertex -0.280214 1.689638 -0.613679
		endloop
	endfacet
	facet normal 0.44071151037723255 0.8918801731375574 -0.10160276268457948
		outer loop
			vertex -0.385649 1.757905 -0.471758
			vertex -0.350353 1.743036 -0.44918
			vertex -0.280214 1.689638 -0.613679
		endloop
	endfacet
	facet normal 0.2676311825874587 0.9499918525588472 -0.16090068420814194
		outer loop
			vertex -0.378076 1.7239881 -0.644835
			vertex -0.43902 1.7670389 -0.492024
			vertex -0.318871 1.709685 -0.630806
		endloop
	endfacet
	facet normal 0.2353276594187512 0.9531308482282786 -0.1901643469952617
		outer loop
			vertex -0.43902 1.7670389 -0.492024
			vertex -0.385649 1.757905 -0.471758
			vertex -0.318871 1.709685 -0.630806
		endloop
	endfacet
	facet normal -0.00952317362238237 0.9629111362190608 -0.2696506126628969
		outer loop
			vertex -0.439536 1.721392 -0.651935
			vertex -0.492908 1.762861 -0.501966
			vertex -0.378076 1.7239881 -0.644835
		endloop
	endfacet
	facet normal -0.022846103509242887 0.9598650509238137 -0.27953021226599034
		outer loop
			vertex -0.492908 1.762861 -0.501966
			vertex -0.43902 1.7670389 -0.492024
			vertex -0.378076 1.7239881 -0.644835
		endloop
	endfacet
	facet normal -0.39051063978075856 0.8433030418543555 -0.369244390366616
		outer loop
			vertex -0.484005 1.701424 -0.650509
			vertex -0.535674 1.7436889 -0.499337
			vertex -0.439536 1.721392 -0.651935
		endloop
	endfacet
	facet normal -0.3984977153616219 0.8376930984659698 -0.3734566154643011
		outer loop
			vertex -0.535674 1.7436889 -0.499337
			vertex -0.492908 1.762861 -0.501966
			vertex -0.439536 1.721392 -0.651935
		endloop
	endfacet
	facet normal -0.9238582708638166 0.14192974321556753 -0.3554459780997416
		outer loop
			vertex -0.484005 1.701424 -0.650509
			vertex -0.492319 1.6722521 -0.640548
			vertex -0.535674 1.7436889 -0.499337
		endloop
	endfacet
	facet normal -0.9154109822463972 0.16773466475212687 -0.36590684036128396
		outer loop
			vertex -0.492319 1.6722521 -0.640548
			vertex -0.546396 1.718105 -0.484241
			vertex -0.535674 1.7436889 -0.499337
		endloop
	endfacet
	facet normal -0.6241512698535313 -0.7806488165480965 0.03197839211531684
		outer loop
			vertex -0.457486 1.64504 -0.624976
			vertex -0.513029 1.696189 -0.460422
			vertex -0.492319 1.6722521 -0.640548
		endloop
	endfacet
	facet normal -0.5699780390782118 -0.820507438922053 0.043503765838488556
		outer loop
			vertex -0.513029 1.696189 -0.460422
			vertex -0.546396 1.718105 -0.484241
			vertex -0.492319 1.6722521 -0.640548
		endloop
	endfacet
	facet normal -0.28328062328953796 -0.9371778269371751 0.20359226204845152
		outer loop
			vertex -0.398263 1.6301759 -0.610995
			vertex -0.459671 1.6859111 -0.439878
			vertex -0.457486 1.64504 -0.624976
		endloop
	endfacet
	facet normal -0.26072397939092556 -0.9433489692936118 0.20522117021214117
		outer loop
			vertex -0.459671 1.6859111 -0.439878
			vertex -0.513029 1.696189 -0.460422
			vertex -0.457486 1.64504 -0.624976
		endloop
	endfacet
	facet normal -0.4984441608482386 -0.8511757892465002 -0.164478552756562
		outer loop
			vertex -0.446389 1.687695 -0.867349
			vertex -0.469531 1.678053 -0.747321
			vertex -0.490212 1.717304 -0.887772
		endloop
	endfacet
	facet normal -0.4906175077840278 -0.8552665208286913 -0.1667742168483344
		outer loop
			vertex -0.469531 1.678053 -0.747321
			vertex -0.510966 1.7061009 -0.769265
			vertex -0.490212 1.717304 -0.887772
		endloop
	endfacet
	facet normal -0.15743012866525138 -0.9784318191994469 -0.13374202692685466
		outer loop
			vertex -0.367948 1.671216 -0.839126
			vertex -0.393985 1.660012 -0.726511
			vertex -0.446389 1.687695 -0.867349
		endloop
	endfacet
	facet normal -0.2001529614072919 -0.972785483966516 -0.1167355739435184
		outer loop
			vertex -0.393985 1.660012 -0.726511
			vertex -0.469531 1.678053 -0.747321
			vertex -0.446389 1.687695 -0.867349
		endloop
	endfacet
	facet normal 0.07507770791108179 -0.9884356195120177 -0.13175114365618384
		outer loop
			vertex -0.284853 1.674163 -0.813884
			vertex -0.312323 1.658836 -0.71455
			vertex -0.367948 1.671216 -0.839126
		endloop
	endfacet
	facet normal 0.00016492452809347533 -0.9950911102971188 -0.09896289712587969
		outer loop
			vertex -0.312323 1.658836 -0.71455
			vertex -0.393985 1.660012 -0.726511
			vertex -0.367948 1.671216 -0.839126
		endloop
	endfacet
	facet normal 0.41327350684407027 -0.9062546299441041 -0.08892442997106721
		outer loop
			vertex -0.229441 1.698119 -0.800501
			vertex -0.255747 1.677834 -0.716027
			vertex -0.284853 1.674163 -0.813884
		endloop
	endfacet
	facet normal 0.3164063568727037 -0.9468125845231283 -0.05859135703478067
		outer loop
			vertex -0.255747 1.677834 -0.716027
			vertex -0.312323 1.658836 -0.71455
			vertex -0.284853 1.674163 -0.813884
		endloop
	endfacet
	facet normal 0.9187485398630209 -0.35690240825140196 0.16888395863407762
		outer loop
			vertex -0.215579 1.733564 -0.801006
			vertex -0.238379 1.709242 -0.728371
			vertex -0.229441 1.698119 -0.800501
		endloop
	endfacet
	facet normal 0.8891202616138962 -0.4227434344074381 0.17536575792622947
		outer loop
			vertex -0.238379 1.709242 -0.728371
			vertex -0.255747 1.677834 -0.716027
			vertex -0.229441 1.698119 -0.800501
		endloop
	endfacet
	facet normal 0.2203295297666522 0.8989440189960337 0.3786219077444734
		outer loop
			vertex -0.265129 1.7564501 -0.826509
			vertex -0.286419 1.730303 -0.75204
			vertex -0.215579 1.733564 -0.801006
		endloop
	endfacet
	facet normal 0.2140838125079891 0.904058805522357 0.3699267459640267
		outer loop
			vertex -0.286419 1.730303 -0.75204
			vertex -0.238379 1.709242 -0.728371
			vertex -0.215579 1.733564 -0.801006
		endloop
	endfacet
	facet normal 0.10242098858723639 0.9563400128285643 0.2737219774878791
		outer loop
			vertex -0.343569 1.772929 -0.854733
			vertex -0.370612 1.7529269 -0.77473
			vertex -0.265129 1.7564501 -0.826509
		endloop
	endfacet
	facet normal 0.1485468579058407 0.91902113668048 0.36514925898982803
		outer loop
			vertex -0.370612 1.7529269 -0.77473
			vertex -0.286419 1.730303 -0.75204
			vertex -0.265129 1.7564501 -0.826509
		endloop
	endfacet
	facet normal -0.09351529068222102 0.9765565635354392 0.19388699962729175
		outer loop
			vertex -0.426667 1.7699831 -0.879975
			vertex -0.442951 1.749494 -0.784631
			vertex -0.343569 1.772929 -0.854733
		endloop
	endfacet
	facet normal -0.07596195379719352 0.9730757404681512 0.21760832908616468
		outer loop
			vertex -0.442951 1.749494 -0.784631
			vertex -0.370612 1.7529269 -0.77473
			vertex -0.343569 1.772929 -0.854733
		endloop
	endfacet
	facet normal -0.36780623905187987 0.9271612757850995 0.07134801468196676
		outer loop
			vertex -0.482677 1.748735 -0.892595
			vertex -0.500213 1.733372 -0.783354
			vertex -0.426667 1.7699831 -0.879975
		endloop
	endfacet
	facet normal -0.2642587839422307 0.9512085787546269 0.1592781680362265
		outer loop
			vertex -0.500213 1.733372 -0.783354
			vertex -0.442951 1.749494 -0.784631
			vertex -0.426667 1.7699831 -0.879975
		endloop
	endfacet
	facet normal -0.9664711564439086 0.20874969587759998 -0.14952280171593751
		outer loop
			vertex -0.490212 1.717304 -0.887772
			vertex -0.510966 1.7061009 -0.769265
			vertex -0.482677 1.748735 -0.892595
		endloop
	endfacet
	facet normal -0.9425681250550089 0.31647964420515257 -0.10679870988951827
		outer loop
			vertex -0.510966 1.7061009 -0.769265
			vertex -0.500213 1.733372 -0.783354
			vertex -0.482677 1.748735 -0.892595
		endloop
	endfacet
	facet normal -0.48250217629741726 -0.856437294676642 -0.1835941452095105
		outer loop
			vertex -0.469531 1.678053 -0.747321
			vertex -0.457486 1.64504 -0.624976
			vertex -0.510966 1.7061009 -0.769265
		endloop
	endfacet
	facet normal -0.5738368083621245 -0.8086624128005118 -0.12952381824369366
		outer loop
			vertex -0.457486 1.64504 -0.624976
			vertex -0.492319 1.6722521 -0.640548
			vertex -0.510966 1.7061009 -0.769265
		endloop
	endfacet
	facet normal -0.15842604903977833 -0.9545612371221052 -0.2524163853032569
		outer loop
			vertex -0.393985 1.660012 -0.726511
			vertex -0.398263 1.6301759 -0.610995
			vertex -0.469531 1.678053 -0.747321
		endloop
	endfacet
	facet normal -0.18283871645555747 -0.9535733458493972 -0.23930707856323447
		outer loop
			vertex -0.398263 1.6301759 -0.610995
			vertex -0.457486 1.64504 -0.624976
			vertex -0.469531 1.678053 -0.747321
		endloop
	endfacet
	facet normal 0.018208540402600264 -0.9752835180112683 -0.2202056051783677
		outer loop
			vertex -0.312323 1.658836 -0.71455
			vertex -0.335188 1.633329 -0.603471
			vertex -0.393985 1.660012 -0.726511
		endloop
	endfacet
	facet normal 0.07770845681286581 -0.9659908070848571 -0.24662351138386956
		outer loop
			vertex -0.335188 1.633329 -0.603471
			vertex -0.398263 1.6301759 -0.610995
			vertex -0.393985 1.660012 -0.726511
		endloop
	endfacet
	facet normal 0.3154062179879796 -0.9455368496748641 -0.08049213353771084
		outer loop
			vertex -0.255747 1.677834 -0.716027
			vertex -0.292449 1.656142 -0.605028
			vertex -0.312323 1.658836 -0.71455
		endloop
	endfacet
	facet normal 0.4652273927308079 -0.8788170892740822 -0.10603771335107494
		outer loop
			vertex -0.292449 1.656142 -0.605028
			vertex -0.335188 1.633329 -0.603471
			vertex -0.312323 1.658836 -0.71455
		endloop
	endfacet
	facet normal 0.88500614145068 -0.388625064535403 0.256387770397562
		outer loop
			vertex -0.238379 1.709242 -0.728371
			vertex -0.280214 1.689638 -0.613679
			vertex -0.255747 1.677834 -0.716027
		endloop
	endfacet
	facet normal 0.927903988427186 -0.27349672416833437 0.25336481628298524
		outer loop
			vertex -0.280214 1.689638 -0.613679
			vertex -0.292449 1.656142 -0.605028
			vertex -0.255747 1.677834 -0.716027
		endloop
	endfacet
	facet normal 0.2905576309980187 0.9274239849476127 0.23550162464983085
		outer loop
			vertex -0.286419 1.730303 -0.75204
			vertex -0.318871 1.709685 -0.630806
			vertex -0.238379 1.709242 -0.728371
		endloop
	endfacet
	facet normal 0.3421694697120726 0.8975048540775012 0.278217704153209
		outer loop
			vertex -0.318871 1.709685 -0.630806
			vertex -0.280214 1.689638 -0.613679
			vertex -0.238379 1.709242 -0.728371
		endloop
	endfacet
	facet normal 0.1961730083121436 0.9546517901288681 0.22395559920107233
		outer loop
			vertex -0.370612 1.7529269 -0.77473
			vertex -0.378076 1.7239881 -0.644835
			vertex -0.286419 1.730303 -0.75204
		endloop
	endfacet
	facet normal 0.18175364080403023 0.9602292741582081 0.2119560216273186
		outer loop
			vertex -0.378076 1.7239881 -0.644835
			vertex -0.318871 1.709685 -0.630806
			vertex -0.286419 1.730303 -0.75204
		endloop
	endfacet
	facet normal -0.07480697230745323 0.9751692452406961 0.20844390140007296
		outer loop
			vertex -0.442951 1.749494 -0.784631
			vertex -0.439536 1.721392 -0.651935
			vertex -0.370612 1.7529269 -0.77473
		endloop
	endfacet
	facet normal -0.06582384743789652 0.9747496678284495 0.21337831702588725
		outer loop
			vertex -0.439536 1.721392 -0.651935
			vertex -0.378076 1.7239881 -0.644835
			vertex -0.370612 1.7529269 -0.77473
		endloop
	endfacet
	facet normal -0.25673396451879965 0.9321024112452028 0.25548535459657734
		outer loop
			vertex -0.500213 1.733372 -0.783354
			vertex -0.484005 1.701424 -0.650509
			vertex -0.442951 1.749494 -0.784631
		endloop
	endfacet
	facet normal -0.396010885402381 0.8962034072730788 0.1999870781699318
		outer loop
			vertex -0.484005 1.701424 -0.650509
			vertex -0.439536 1.721392 -0.651935
			vertex -0.442951 1.749494 -0.784631
		endloop
	endfacet
	facet normal -0.8658054299152158 0.4521360378365418 0.21436874963203428
		outer loop
			vertex -0.500213 1.733372 -0.783354
			vertex -0.510966 1.7061009 -0.769265
			vertex -0.484005 1.701424 -0.650509
		endloop
	endfacet
	facet normal -0.9154104945421947 0.3363791290327921 0.22107172599216537
		outer loop
			vertex -0.510966 1.7061009 -0.769265
			vertex -0.492319 1.6722521 -0.640548
			vertex -0.484005 1.701424 -0.650509
		endloop
	endfacet
	facet normal -0.5655373961368692 0.2865017880336506 0.7733590233677055
		outer loop
			vertex -0.625232 1.901406 -0.141034
			vertex -0.588138 1.9080271 -0.116361
			vertex -0.616701 1.93872 -0.148619
		endloop
	endfacet
	facet normal -0.6898081128968945 0.11011773066372899 0.715568901486849
		outer loop
			vertex -0.588138 1.9080271 -0.116361
			vertex -0.564532 1.936198 -0.09794
			vertex -0.616701 1.93872 -0.148619
		endloop
	endfacet
	facet normal -0.6971168440947932 -0.053833213571096605 0.7149336268465237
		outer loop
			vertex -0.564532 1.936198 -0.09794
			vertex -0.562282 1.9658411 -0.093514
			vertex -0.616701 1.93872 -0.148619
		endloop
	endfacet
	facet normal -0.5996975759610249 -0.30220537263249597 0.7409687781131706
		outer loop
			vertex -0.562282 1.9658411 -0.093514
			vertex -0.588199 1.987336 -0.105723
			vertex -0.616701 1.93872 -0.148619
		endloop
	endfacet
	facet normal -0.5530679368938881 -0.3449120763574449 0.7583874450191896
		outer loop
			vertex -0.588199 1.987336 -0.105723
			vertex -0.625137 1.996689 -0.128407
			vertex -0.616701 1.93872 -0.148619
		endloop
	endfacet
	facet normal -0.5115857983863954 -0.3483165195754185 0.7854651953334543
		outer loop
			vertex -0.625137 1.996689 -0.128407
			vertex -0.654803 1.992614 -0.149536
			vertex -0.616701 1.93872 -0.148619
		endloop
	endfacet
	facet normal -0.39911579457654234 -0.26724344327377875 0.8770903742184781
		outer loop
			vertex -0.654803 1.992614 -0.149536
			vertex -0.685311 1.969947 -0.170325
			vertex -0.616701 1.93872 -0.148619
		endloop
	endfacet
	facet normal -0.34235408682212415 -0.10303883544988655 0.9339039980775973
		outer loop
			vertex -0.685311 1.969947 -0.170325
			vertex -0.691714 1.94129 -0.175834
			vertex -0.616701 1.93872 -0.148619
		endloop
	endfacet
	facet normal -0.33814414790897634 0.06909011711788506 0.9385547884655161
		outer loop
			vertex -0.691714 1.94129 -0.175834
			vertex -0.662338 1.913464 -0.163202
			vertex -0.616701 1.93872 -0.148619
		endloop
	endfacet
	facet normal -0.42653383253679805 0.2728108877714647 0.862347441124989
		outer loop
			vertex -0.662338 1.913464 -0.163202
			vertex -0.625232 1.901406 -0.141034
			vertex -0.616701 1.93872 -0.148619
		endloop
	endfacet
	facet normal -0.28304682091042466 -0.47733364826697117 0.8318876639334459
		outer loop
			vertex 0.760908 1.7753479 -0.399292
			vertex 0.805168 1.762219 -0.391766
			vertex 0.856759 1.897001 -0.296875
		endloop
	endfacet
	facet normal -0.18736922423877592 -0.5165174964511723 0.8355252537583604
		outer loop
			vertex 0.805168 1.762219 -0.391766
			vertex 0.89797 1.8789279 -0.298806
			vertex 0.856759 1.897001 -0.296875
		endloop
	endfacet
	facet normal -0.6949553883206034 -0.15008936351147376 0.703214185867208
		outer loop
			vertex 0.736498 1.799132 -0.418339
			vertex 0.760908 1.7753479 -0.399292
			vertex 0.830592 1.931703 -0.297055
		endloop
	endfacet
	facet normal -0.453231214156502 -0.3374789393133063 0.8250390487935639
		outer loop
			vertex 0.760908 1.7753479 -0.399292
			vertex 0.856759 1.897001 -0.296875
			vertex 0.830592 1.931703 -0.297055
		endloop
	endfacet
	facet normal -0.8828691913636701 0.2918722412555689 0.3679029569401561
		outer loop
			vertex 0.734997 1.824899 -0.442383
			vertex 0.736498 1.799132 -0.418339
			vertex 0.834308 1.962507 -0.313233
		endloop
	endfacet
	facet normal -0.8839113400892096 0.2965443021960713 0.3616105912397242
		outer loop
			vertex 0.736498 1.799132 -0.418339
			vertex 0.830592 1.931703 -0.297055
			vertex 0.834308 1.962507 -0.313233
		endloop
	endfacet
	facet normal -0.32405102605870134 0.7591579787800936 -0.5645087207163638
		outer loop
			vertex 0.771323 1.832415 -0.453128
			vertex 0.734997 1.824899 -0.442383
			vertex 0.869436 1.971998 -0.321736
		endloop
	endfacet
	facet normal -0.33936652710377646 0.7622396272342845 -0.551199701519568
		outer loop
			vertex 0.734997 1.824899 -0.442383
			vertex 0.834308 1.962507 -0.313233
			vertex 0.869436 1.971998 -0.321736
		endloop
	endfacet
	facet normal -0.03358822010118194 0.691539243241094 -0.7215575559357477
		outer loop
			vertex 0.817611 1.830812 -0.456819
			vertex 0.771323 1.832415 -0.453128
			vertex 0.913097 1.968958 -0.328865
		endloop
	endfacet
	facet normal -0.06552228769270088 0.7079788477226541 -0.7031875859205835
		outer loop
			vertex 0.771323 1.832415 -0.453128
			vertex 0.869436 1.971998 -0.321736
			vertex 0.913097 1.968958 -0.328865
		endloop
	endfacet
	facet normal 0.258466185808543 0.5377090386175267 -0.8025361179302766
		outer loop
			vertex 0.855035 1.820299 -0.45181
			vertex 0.817611 1.830812 -0.456819
			vertex 0.9468 1.9549249 -0.332055
		endloop
	endfacet
	facet normal 0.17623904294289505 0.6005596931198124 -0.7799152869013461
		outer loop
			vertex 0.817611 1.830812 -0.456819
			vertex 0.913097 1.968958 -0.328865
			vertex 0.9468 1.9549249 -0.332055
		endloop
	endfacet
	facet normal 0.5865122059390129 0.19652553133642478 -0.7857360548030675
		outer loop
			vertex 0.887185 1.797992 -0.433391
			vertex 0.855035 1.820299 -0.45181
			vertex 0.980173 1.921739 -0.333029
		endloop
	endfacet
	facet normal 0.4090014853683047 0.43485357432655997 -0.8022594055926896
		outer loop
			vertex 0.855035 1.820299 -0.45181
			vertex 0.9468 1.9549249 -0.332055
			vertex 0.980173 1.921739 -0.333029
		endloop
	endfacet
	facet normal 0.8564041597370005 -0.24197402541074017 -0.45609262898196984
		outer loop
			vertex 0.892443 1.775247 -0.411451
			vertex 0.887185 1.797992 -0.433391
			vertex 0.979395 1.900131 -0.314437
		endloop
	endfacet
	facet normal 0.8617287445319786 -0.34839035676789404 -0.368846485896883
		outer loop
			vertex 0.887185 1.797992 -0.433391
			vertex 0.980173 1.921739 -0.333029
			vertex 0.979395 1.900131 -0.314437
		endloop
	endfacet
	facet normal 0.42043402389020046 -0.7381464566833656 0.5276125851809136
		outer loop
			vertex 0.851878 1.762527 -0.396922
			vertex 0.892443 1.775247 -0.411451
			vertex 0.94216 1.878516 -0.306592
		endloop
	endfacet
	facet normal 0.5157644061928355 -0.7199098470664589 0.4644533231674628
		outer loop
			vertex 0.892443 1.775247 -0.411451
			vertex 0.979395 1.900131 -0.314437
			vertex 0.94216 1.878516 -0.306592
		endloop
	endfacet
	facet normal 0.08730347620116505 -0.6534998967720262 0.7518749816040855
		outer loop
			vertex 0.851878 1.762527 -0.396922
			vertex 0.94216 1.878516 -0.306592
			vertex 0.805168 1.762219 -0.391766
		endloop
	endfacet
	facet normal 0.12177954754211376 -0.6758358468220523 0.7269220384269262
		outer loop
			vertex 0.94216 1.878516 -0.306592
			vertex 0.89797 1.8789279 -0.298806
			vertex 0.805168 1.762219 -0.391766
		endloop
	endfacet
	facet normal -0.21808247086280255 -0.6384871708450407 0.7380881848185018
		outer loop
			vertex 0.613149 1.692157 -0.514915
			vertex 0.669747 1.6779799 -0.510456
			vertex 0.760908 1.7753479 -0.399292
		endloop
	endfacet
	facet normal -0.3009786615258446 -0.5812997894324062 0.755977777525207
		outer loop
			vertex 0.669747 1.6779799 -0.510456
			vertex 0.805168 1.762219 -0.391766
			vertex 0.760908 1.7753479 -0.399292
		endloop
	endfacet
	facet normal -0.5169199356152607 -0.16269182466047086 0.8404315262721654
		outer loop
			vertex 0.57976 1.7184891 -0.530354
			vertex 0.613149 1.692157 -0.514915
			vertex 0.736498 1.799132 -0.418339
		endloop
	endfacet
	facet normal -0.615863417712615 -0.0011354945624793638 0.7878521189762936
		outer loop
			vertex 0.613149 1.692157 -0.514915
			vertex 0.760908 1.7753479 -0.399292
			vertex 0.736498 1.799132 -0.418339
		endloop
	endfacet
	facet normal -0.6398954272035371 0.382511366007952 0.6664974847054814
		outer loop
			vertex 0.576014 1.747876 -0.550816
			vertex 0.57976 1.7184891 -0.530354
			vertex 0.734997 1.824899 -0.442383
		endloop
	endfacet
	facet normal -0.6593900426696084 0.49201753829444406 0.5684395426418253
		outer loop
			vertex 0.57976 1.7184891 -0.530354
			vertex 0.736498 1.799132 -0.418339
			vertex 0.734997 1.824899 -0.442383
		endloop
	endfacet
	facet normal -0.2605591191277974 0.9242856554199089 -0.2789354273381852
		outer loop
			vertex 0.617506 1.755307 -0.564951
			vertex 0.576014 1.747876 -0.550816
			vertex 0.771323 1.832415 -0.453128
		endloop
	endfacet
	facet normal -0.2694633601310391 0.9264100098861073 -0.26297146447801617
		outer loop
			vertex 0.576014 1.747876 -0.550816
			vertex 0.734997 1.824899 -0.442383
			vertex 0.771323 1.832415 -0.453128
		endloop
	endfacet
	facet normal -0.05523399837021967 0.8637377206321358 -0.5009055353869044
		outer loop
			vertex 0.674896 1.754925 -0.571938
			vertex 0.617506 1.755307 -0.564951
			vertex 0.817611 1.830812 -0.456819
		endloop
	endfacet
	facet normal -0.015276264269321506 0.8328527115032133 -0.553283830137588
		outer loop
			vertex 0.617506 1.755307 -0.564951
			vertex 0.771323 1.832415 -0.453128
			vertex 0.817611 1.830812 -0.456819
		endloop
	endfacet
	facet normal 0.21332130330636215 0.6875769220706248 -0.6940691592280708
		outer loop
			vertex 0.728271 1.742496 -0.567846
			vertex 0.674896 1.754925 -0.571938
			vertex 0.855035 1.820299 -0.45181
		endloop
	endfacet
	facet normal 0.2716283782640146 0.6137317663382339 -0.7413173025830524
		outer loop
			vertex 0.674896 1.754925 -0.571938
			vertex 0.817611 1.830812 -0.456819
			vertex 0.855035 1.820299 -0.45181
		endloop
	endfacet
	facet normal 0.5297871055637804 0.3522147584881325 -0.7715376767737909
		outer loop
			vertex 0.765675 1.718168 -0.553268
			vertex 0.728271 1.742496 -0.567846
			vertex 0.887185 1.797992 -0.433391
		endloop
	endfacet
	facet normal 0.5896139379259395 0.20463147535445703 -0.7813330682223328
		outer loop
			vertex 0.728271 1.742496 -0.567846
			vertex 0.855035 1.820299 -0.45181
			vertex 0.887185 1.797992 -0.433391
		endloop
	endfacet
	facet normal 0.7653173316792732 -0.3365816640092453 -0.5486366423089923
		outer loop
			vertex 0.768407 1.6931911 -0.534134
			vertex 0.765675 1.718168 -0.553268
			vertex 0.892443 1.775247 -0.411451
		endloop
	endfacet
	facet normal 0.7642594351541626 -0.34742281392681423 -0.5433276213676373
		outer loop
			vertex 0.765675 1.718168 -0.553268
			vertex 0.887185 1.797992 -0.433391
			vertex 0.892443 1.775247 -0.411451
		endloop
	endfacet
	facet normal 0.39858102440138327 -0.8930477911363989 0.20880327998751094
		outer loop
			vertex 0.72737 1.678694 -0.517803
			vertex 0.768407 1.6931911 -0.534134
			vertex 0.851878 1.762527 -0.396922
		endloop
	endfacet
	facet normal 0.3659103207210811 -0.9010790265851563 0.23273638529061846
		outer loop
			vertex 0.768407 1.6931911 -0.534134
			vertex 0.892443 1.775247 -0.411451
			vertex 0.851878 1.762527 -0.396922
		endloop
	endfacet
	facet normal 0.07613451567957523 -0.854351663274153 0.5140882910385384
		outer loop
			vertex 0.72737 1.678694 -0.517803
			vertex 0.851878 1.762527 -0.396922
			vertex 0.669747 1.6779799 -0.510456
		endloop
	endfacet
	facet normal 0.06387760508248312 -0.8467722130402954 0.5281064956916994
		outer loop
			vertex 0.851878 1.762527 -0.396922
			vertex 0.805168 1.762219 -0.391766
			vertex 0.669747 1.6779799 -0.510456
		endloop
	endfacet
	facet normal -0.21303633584115644 -0.9674350947805321 0.1366925638005119
		outer loop
			vertex 0.572261 1.68258 -0.64642
			vertex 0.634044 1.670195 -0.637785
			vertex 0.613149 1.692157 -0.514915
		endloop
	endfacet
	facet normal -0.2504976681331082 -0.9594972112566775 0.12890314135246744
		outer loop
			vertex 0.634044 1.670195 -0.637785
			vertex 0.669747 1.6779799 -0.510456
			vertex 0.613149 1.692157 -0.514915
		endloop
	endfacet
	facet normal -0.642467461195075 -0.7193751734293944 0.26407370402784086
		outer loop
			vertex 0.535205 1.710606 -0.660227
			vertex 0.572261 1.68258 -0.64642
			vertex 0.57976 1.7184891 -0.530354
		endloop
	endfacet
	facet normal -0.6690872491629278 -0.6966775895024392 0.25877130693463096
		outer loop
			vertex 0.572261 1.68258 -0.64642
			vertex 0.613149 1.692157 -0.514915
			vertex 0.57976 1.7184891 -0.530354
		endloop
	endfacet
	facet normal -0.9387379291435685 0.017464114003494256 0.34418905431363966
		outer loop
			vertex 0.530748 1.744288 -0.674092
			vertex 0.535205 1.710606 -0.660227
			vertex 0.576014 1.747876 -0.550816
		endloop
	endfacet
	facet normal -0.9429307908313749 0.10078649435023986 0.3173698256903247
		outer loop
			vertex 0.535205 1.710606 -0.660227
			vertex 0.57976 1.7184891 -0.530354
			vertex 0.576014 1.747876 -0.550816
		endloop
	endfacet
	facet normal -0.2553015903689027 0.9610426627323917 0.1059155246568855
		outer loop
			vertex 0.574998 1.756971 -0.682512
			vertex 0.530748 1.744288 -0.674092
			vertex 0.617506 1.755307 -0.564951
		endloop
	endfacet
	facet normal -0.16558834350387508 0.9856719371832665 0.03211436975918205
		outer loop
			vertex 0.530748 1.744288 -0.674092
			vertex 0.576014 1.747876 -0.550816
			vertex 0.617506 1.755307 -0.564951
		endloop
	endfacet
	facet normal -0.07360283321584933 0.993668730775059 0.08488272157797201
		outer loop
			vertex 0.637329 1.761579 -0.682407
			vertex 0.574998 1.756971 -0.682512
			vertex 0.674896 1.754925 -0.571938
		endloop
	endfacet
	facet normal 0.00802536082599248 0.999904497794363 0.011251172126288832
		outer loop
			vertex 0.574998 1.756971 -0.682512
			vertex 0.617506 1.755307 -0.564951
			vertex 0.674896 1.754925 -0.571938
		endloop
	endfacet
	facet normal 0.18663738619374207 0.9823070721907646 0.01546938908865178
		outer loop
			vertex 0.697548 1.750002 -0.673806
			vertex 0.637329 1.761579 -0.682407
			vertex 0.728271 1.742496 -0.567846
		endloop
	endfacet
	facet normal 0.22813089709749615 0.9734461281519529 -0.018945431519599223
		outer loop
			vertex 0.637329 1.761579 -0.682407
			vertex 0.674896 1.754925 -0.571938
			vertex 0.728271 1.742496 -0.567846
		endloop
	endfacet
	facet normal 0.567901433174671 0.8163225261279686 -0.1053826149524048
		outer loop
			vertex 0.736743 1.724529 -0.659907
			vertex 0.697548 1.750002 -0.673806
			vertex 0.765675 1.718168 -0.553268
		endloop
	endfacet
	facet normal 0.5712811588345367 0.8136167648973708 -0.10800739529590242
		outer loop
			vertex 0.697548 1.750002 -0.673806
			vertex 0.728271 1.742496 -0.567846
			vertex 0.765675 1.718168 -0.553268
		endloop
	endfacet
	facet normal 0.9595770438418714 -0.09238434957471388 -0.26585151661285017
		outer loop
			vertex 0.736743 1.724529 -0.659907
			vertex 0.765675 1.718168 -0.553268
			vertex 0.73781 1.6957819 -0.646066
		endloop
	endfacet
	facet normal 0.9594181268850459 -0.09769934144430936 -0.26452163708426235
		outer loop
			vertex 0.765675 1.718168 -0.553268
			vertex 0.768407 1.6931911 -0.534134
			vertex 0.73781 1.6957819 -0.646066
		endloop
	endfacet
	facet normal 0.4273439869790412 -0.9000723331139449 -0.08512879627762275
		outer loop
			vertex 0.696472 1.675361 -0.63767
			vertex 0.73781 1.6957819 -0.646066
			vertex 0.72737 1.678694 -0.517803
		endloop
	endfacet
	facet normal 0.2947988227655177 -0.9500380093958546 -0.10257404544633733
		outer loop
			vertex 0.73781 1.6957819 -0.646066
			vertex 0.768407 1.6931911 -0.534134
			vertex 0.72737 1.678694 -0.517803
		endloop
	endfacet
	facet normal 0.08234134668919364 -0.9958870696678099 0.037800093834181765
		outer loop
			vertex 0.634044 1.670195 -0.637785
			vertex 0.696472 1.675361 -0.63767
			vertex 0.669747 1.6779799 -0.510456
		endloop
	endfacet
	facet normal 0.015424536588449689 -0.9995972966393158 0.023818652825120603
		outer loop
			vertex 0.696472 1.675361 -0.63767
			vertex 0.72737 1.678694 -0.517803
			vertex 0.669747 1.6779799 -0.510456
		endloop
	endfacet
	facet normal 0.6120859453731541 -0.7809492339597379 -0.1243747942886775
		outer loop
			vertex 0.686233 1.678961 -0.897423
			vertex 0.723918 1.711023 -0.913281
			vertex 0.6938 1.660762 -0.745912
		endloop
	endfacet
	facet normal 0.1817782185917996 -0.9503229770432667 -0.2526715626049251
		outer loop
			vertex 0.723918 1.711023 -0.913281
			vertex 0.73707 1.674615 -0.766885
			vertex 0.6938 1.660762 -0.745912
		endloop
	endfacet
	facet normal 0.2879793922183627 -0.9576003865876173 0.008328821332499247
		outer loop
			vertex 0.616753 1.658251 -0.876183
			vertex 0.686233 1.678961 -0.897423
			vertex 0.623954 1.661653 -0.734024
		endloop
	endfacet
	facet normal -0.03267492481058356 -0.9925248960468297 -0.11758690410012758
		outer loop
			vertex 0.686233 1.678961 -0.897423
			vertex 0.6938 1.660762 -0.745912
			vertex 0.623954 1.661653 -0.734024
		endloop
	endfacet
	facet normal 0.05845448065423817 -0.9855931012402699 0.1587114125670568
		outer loop
			vertex 0.542014 1.656799 -0.857673
			vertex 0.616753 1.658251 -0.876183
			vertex 0.553448 1.677122 -0.735679
		endloop
	endfacet
	facet normal -0.2149436885766255 -0.9760258622167138 0.03424510220739923
		outer loop
			vertex 0.616753 1.658251 -0.876183
			vertex 0.623954 1.661653 -0.734024
			vertex 0.553448 1.677122 -0.735679
		endloop
	endfacet
	facet normal -0.29172958401376736 -0.9043217328657801 0.311602396136145
		outer loop
			vertex 0.490851 1.677865 -0.844436
			vertex 0.542014 1.656799 -0.857673
			vertex 0.509805 1.703962 -0.750953
		endloop
	endfacet
	facet normal -0.5612573905643449 -0.8062576780125369 0.1869189615387773
		outer loop
			vertex 0.542014 1.656799 -0.857673
			vertex 0.553448 1.677122 -0.735679
			vertex 0.509805 1.703962 -0.750953
		endloop
	endfacet
	facet normal -0.8529052879772748 -0.3314547561788677 0.40334887423520743
		outer loop
			vertex 0.476228 1.7126091 -0.846806
			vertex 0.490851 1.677865 -0.844436
			vertex 0.503034 1.733209 -0.773195
		endloop
	endfacet
	facet normal -0.9746414279374531 -0.062161669228478295 0.2149651456091702
		outer loop
			vertex 0.490851 1.677865 -0.844436
			vertex 0.509805 1.703962 -0.750953
			vertex 0.503034 1.733209 -0.773195
		endloop
	endfacet
	facet normal -0.45022715298102567 0.8707743134826169 0.19760467023194947
		outer loop
			vertex 0.51974 1.738391 -0.861279
			vertex 0.476228 1.7126091 -0.846806
			vertex 0.550661 1.738893 -0.79304
		endloop
	endfacet
	facet normal -0.19675843640393864 0.9604313158451753 -0.1971238322673914
		outer loop
			vertex 0.476228 1.7126091 -0.846806
			vertex 0.503034 1.733209 -0.773195
			vertex 0.550661 1.738893 -0.79304
		endloop
	endfacet
	facet normal -0.15828239135728844 0.9431470412968126 0.2922675881436164
		outer loop
			vertex 0.589222 1.759101 -0.890481
			vertex 0.51974 1.738391 -0.861279
			vertex 0.620468 1.737818 -0.804879
		endloop
	endfacet
	facet normal 0.013139721296652045 0.999825091354565 -0.013309185628068565
		outer loop
			vertex 0.51974 1.738391 -0.861279
			vertex 0.550661 1.738893 -0.79304
			vertex 0.620468 1.737818 -0.804879
		endloop
	endfacet
	facet normal 0.061603467394608 0.9444452798178232 0.3228438108974605
		outer loop
			vertex 0.663961 1.760553 -0.90899
			vertex 0.589222 1.759101 -0.890481
			vertex 0.690418 1.722666 -0.803204
		endloop
	endfacet
	facet normal 0.20502347297688894 0.9647445413702012 0.16502528722864035
		outer loop
			vertex 0.589222 1.759101 -0.890481
			vertex 0.620468 1.737818 -0.804879
			vertex 0.690418 1.722666 -0.803204
		endloop
	endfacet
	facet normal 0.3627024634002429 0.8979782128194199 0.24916270255605277
		outer loop
			vertex 0.71541 1.742189 -0.9177
			vertex 0.663961 1.760553 -0.90899
			vertex 0.735248 1.698385 -0.788709
		endloop
	endfacet
	facet normal 0.41056207828087243 0.8861939443033631 0.21470694669185447
		outer loop
			vertex 0.663961 1.760553 -0.90899
			vertex 0.690418 1.722666 -0.803204
			vertex 0.735248 1.698385 -0.788709
		endloop
	endfacet
	facet normal 0.9652535524470071 0.2603908275945852 -0.02195897067351176
		outer loop
			vertex 0.723918 1.711023 -0.913281
			vertex 0.71541 1.742189 -0.9177
			vertex 0.73707 1.674615 -0.766885
		endloop
	endfacet
	facet normal 0.9790464099809907 -0.09183084405305725 -0.18175594401239645
		outer loop
			vertex 0.71541 1.742189 -0.9177
			vertex 0.735248 1.698385 -0.788709
			vertex 0.73707 1.674615 -0.766885
		endloop
	endfacet
	facet normal 0.3535856309531257 -0.9281251550165636 0.116451269675173
		outer loop
			vertex 0.6938 1.660762 -0.745912
			vertex 0.73707 1.674615 -0.766885
			vertex 0.696472 1.675361 -0.63767
		endloop
	endfacet
	facet normal 0.46224103001985045 -0.8739279863950388 0.15027676055099412
		outer loop
			vertex 0.73707 1.674615 -0.766885
			vertex 0.73781 1.6957819 -0.646066
			vertex 0.696472 1.675361 -0.63767
		endloop
	endfacet
	facet normal 0.002300073068145758 -0.9961026861959608 0.08817113029258779
		outer loop
			vertex 0.623954 1.661653 -0.734024
			vertex 0.6938 1.660762 -0.745912
			vertex 0.634044 1.670195 -0.637785
		endloop
	endfacet
	facet normal 0.08151599125713045 -0.9879932517957718 0.1312420571896994
		outer loop
			vertex 0.6938 1.660762 -0.745912
			vertex 0.696472 1.675361 -0.63767
			vertex 0.634044 1.670195 -0.637785
		endloop
	endfacet
	facet normal -0.2154688248551477 -0.9708728786940307 0.10478090919584436
		outer loop
			vertex 0.553448 1.677122 -0.735679
			vertex 0.623954 1.661653 -0.734024
			vertex 0.572261 1.68258 -0.64642
		endloop
	endfacet
	facet normal -0.20991827724331819 -0.9717072954035136 0.10825547994806632
		outer loop
			vertex 0.623954 1.661653 -0.734024
			vertex 0.634044 1.670195 -0.637785
			vertex 0.572261 1.68258 -0.64642
		endloop
	endfacet
	facet normal -0.5652935697246133 -0.7959578322783892 0.21655093918681445
		outer loop
			vertex 0.509805 1.703962 -0.750953
			vertex 0.553448 1.677122 -0.735679
			vertex 0.535205 1.710606 -0.660227
		endloop
	endfacet
	facet normal -0.635127987375198 -0.7511889688413664 0.17979870061759304
		outer loop
			vertex 0.553448 1.677122 -0.735679
			vertex 0.572261 1.68258 -0.64642
			vertex 0.535205 1.710606 -0.660227
		endloop
	endfacet
	facet normal -0.9624312154888273 -0.01671283369628033 0.27101076849922284
		outer loop
			vertex 0.503034 1.733209 -0.773195
			vertex 0.509805 1.703962 -0.750953
			vertex 0.530748 1.744288 -0.674092
		endloop
	endfacet
	facet normal -0.9625463794464625 -0.01595954937555149 0.27064692903899
		outer loop
			vertex 0.509805 1.703962 -0.750953
			vertex 0.535205 1.710606 -0.660227
			vertex 0.530748 1.744288 -0.674092
		endloop
	endfacet
	facet normal -0.16797605096606716 0.978088683126432 -0.12299013879920469
		outer loop
			vertex 0.550661 1.738893 -0.79304
			vertex 0.503034 1.733209 -0.773195
			vertex 0.574998 1.756971 -0.682512
		endloop
	endfacet
	facet normal -0.2804769929804255 0.9594279230200925 -0.028822160536816736
		outer loop
			vertex 0.503034 1.733209 -0.773195
			vertex 0.530748 1.744288 -0.674092
			vertex 0.574998 1.756971 -0.682512
		endloop
	endfacet
	facet normal -0.016796547744883636 0.9819862433256764 -0.18820439395237143
		outer loop
			vertex 0.620468 1.737818 -0.804879
			vertex 0.550661 1.738893 -0.79304
			vertex 0.637329 1.761579 -0.682407
		endloop
	endfacet
	facet normal -0.07269988297917493 0.9867016174957537 -0.14537759471829848
		outer loop
			vertex 0.550661 1.738893 -0.79304
			vertex 0.574998 1.756971 -0.682512
			vertex 0.637329 1.761579 -0.682407
		endloop
	endfacet
	facet normal 0.21170947116357233 0.953803596919888 -0.21316143723085634
		outer loop
			vertex 0.690418 1.722666 -0.803204
			vertex 0.620468 1.737818 -0.804879
			vertex 0.697548 1.750002 -0.673806
		endloop
	endfacet
	facet normal 0.2138393451335983 0.9530629112348866 -0.21434509955050676
		outer loop
			vertex 0.620468 1.737818 -0.804879
			vertex 0.637329 1.761579 -0.682407
			vertex 0.697548 1.750002 -0.673806
		endloop
	endfacet
	facet normal 0.5122984218930153 0.8404659826219424 -0.1765425132404628
		outer loop
			vertex 0.735248 1.698385 -0.788709
			vertex 0.690418 1.722666 -0.803204
			vertex 0.736743 1.724529 -0.659907
		endloop
	endfacet
	facet normal 0.5826191820638931 0.7881084200384382 -0.19859508290921268
		outer loop
			vertex 0.690418 1.722666 -0.803204
			vertex 0.697548 1.750002 -0.673806
			vertex 0.736743 1.724529 -0.659907
		endloop
	endfacet
	facet normal 0.9981955127273899 0.05552731432176732 -0.02285685313237181
		outer loop
			vertex 0.735248 1.698385 -0.788709
			vertex 0.736743 1.724529 -0.659907
			vertex 0.73707 1.674615 -0.766885
		endloop
	endfacet
	facet normal 0.9994362344313545 0.031492132992116166 -0.011638679705261524
		outer loop
			vertex 0.736743 1.724529 -0.659907
			vertex 0.73781 1.6957819 -0.646066
			vertex 0.73707 1.674615 -0.766885
		endloop
	endfacet
	facet normal 0.2650281014396227 0.5173914626320316 0.8136744925600139
		outer loop
			vertex 0.856759 1.897001 -0.296875
			vertex 0.89797 1.8789279 -0.298806
			vertex 0.905386 1.9148149 -0.324041
		endloop
	endfacet
	facet normal 0.3823291564724743 0.292840706384324 0.8763953085197208
		outer loop
			vertex 0.830592 1.931703 -0.297055
			vertex 0.856759 1.897001 -0.296875
			vertex 0.905386 1.9148149 -0.324041
		endloop
	endfacet
	facet normal 0.38921621084648517 0.3910644913877653 0.8340139715795729
		outer loop
			vertex 0.834308 1.962507 -0.313233
			vertex 0.830592 1.931703 -0.297055
			vertex 0.905386 1.9148149 -0.324041
		endloop
	endfacet
	facet normal 0.21042039078767186 0.0930598783046735 0.9731716797105652
		outer loop
			vertex 0.869436 1.971998 -0.321736
			vertex 0.834308 1.962507 -0.313233
			vertex 0.905386 1.9148149 -0.324041
		endloop
	endfacet
	facet normal 0.16516469537998685 0.06416482897528875 0.9841765584094188
		outer loop
			vertex 0.913097 1.968958 -0.328865
			vertex 0.869436 1.971998 -0.321736
			vertex 0.905386 1.9148149 -0.324041
		endloop
	endfacet
	facet normal 0.12311350862090593 0.07066131618910577 0.9898737507326242
		outer loop
			vertex 0.9468 1.9549249 -0.332055
			vertex 0.913097 1.968958 -0.328865
			vertex 0.905386 1.9148149 -0.324041
		endloop
	endfacet
	facet normal 0.1113421008308389 0.08290418986360204 0.9903180458244893
		outer loop
			vertex 0.980173 1.921739 -0.333029
			vertex 0.9468 1.9549249 -0.332055
			vertex 0.905386 1.9148149 -0.324041
		endloop
	endfacet
	facet normal 0.030825459410224982 0.6512752448217349 0.7582152376037677
		outer loop
			vertex 0.979395 1.900131 -0.314437
			vertex 0.980173 1.921739 -0.333029
			vertex 0.905386 1.9148149 -0.324041
		endloop
	endfacet
	facet normal -0.03941160964365413 0.40019573411202986 0.9155818365519436
		outer loop
			vertex 0.94216 1.878516 -0.306592
			vertex 0.979395 1.900131 -0.314437
			vertex 0.905386 1.9148149 -0.324041
		endloop
	endfacet
	facet normal 0.15012503530970975 0.5477416257242547 0.8230683964423667
		outer loop
			vertex 0.89797 1.8789279 -0.298806
			vertex 0.94216 1.878516 -0.306592
			vertex 0.905386 1.9148149 -0.324041
		endloop
	endfacet
endsolid exported
