solid exported
	facet normal -0.5381394646488475 -0.7786069704392625 -0.32276477839263296
		outer loop
			vertex -2.327682 1.680846 -0.719706
			vertex -2.413846 1.719268 -0.668732
			vertex -2.37779 1.7316771 -0.758782
		endloop
	endfacet
	facet normal -0.55056090597477 -0.7683703084546224 -0.3263276848469791
		outer loop
			vertex -2.413846 1.719268 -0.668732
			vertex -2.462625 1.770061 -0.706032
			vertex -2.37779 1.7316771 -0.758782
		endloop
	endfacet
	facet normal -0.2990804580325029 -0.9348547829716267 0.19130450694675513
		outer loop
			vertex -2.286509 1.675379 -0.682053
			vertex -2.3715031 1.712297 -0.634522
			vertex -2.327682 1.680846 -0.719706
		endloop
	endfacet
	facet normal -0.30529691749238225 -0.9335874481707302 0.1876386654922529
		outer loop
			vertex -2.3715031 1.712297 -0.634522
			vertex -2.413846 1.719268 -0.668732
			vertex -2.327682 1.680846 -0.719706
		endloop
	endfacet
	facet normal 0.2338798315062006 -0.5195827429451072 0.8217870756152533
		outer loop
			vertex -2.286509 1.675379 -0.682053
			vertex -2.269994 1.717362 -0.660209
			vertex -2.3715031 1.712297 -0.634522
		endloop
	endfacet
	facet normal 0.23592252312102333 -0.4988812737815426 0.8339412675688352
		outer loop
			vertex -2.269994 1.717362 -0.660209
			vertex -2.3517721 1.751809 -0.616467
			vertex -2.3715031 1.712297 -0.634522
		endloop
	endfacet
	facet normal 0.5031832836714951 0.12595224039640607 0.8549518209657768
		outer loop
			vertex -2.284447 1.7907619 -0.662516
			vertex -2.36219 1.822711 -0.621467
			vertex -2.269994 1.717362 -0.660209
		endloop
	endfacet
	facet normal 0.5109382983054809 0.13494263218220884 0.8489596818132396
		outer loop
			vertex -2.36219 1.822711 -0.621467
			vertex -2.3517721 1.751809 -0.616467
			vertex -2.269994 1.717362 -0.660209
		endloop
	endfacet
	facet normal 0.5623117064817685 0.5092942832202847 0.6514789926257777
		outer loop
			vertex -2.3243489 1.867539 -0.688096
			vertex -2.3987761 1.8979239 -0.647609
			vertex -2.284447 1.7907619 -0.662516
		endloop
	endfacet
	facet normal 0.556053204741724 0.5009887361070584 0.6631855847274658
		outer loop
			vertex -2.3987761 1.8979239 -0.647609
			vertex -2.36219 1.822711 -0.621467
			vertex -2.284447 1.7907619 -0.662516
		endloop
	endfacet
	facet normal 0.5227675388191049 0.7799194309000486 0.3441508123796312
		outer loop
			vertex -2.3744559 1.9183691 -0.727175
			vertex -2.447556 1.948716 -0.684908
			vertex -2.3243489 1.867539 -0.688096
		endloop
	endfacet
	facet normal 0.5172542871085521 0.7704316237168073 0.3726702505498762
		outer loop
			vertex -2.447556 1.948716 -0.684908
			vertex -2.3987761 1.8979239 -0.647609
			vertex -2.3243489 1.867539 -0.688096
		endloop
	endfacet
	facet normal 0.29096805448456375 0.939305478094302 -0.18177681395464837
		outer loop
			vertex -2.4156301 1.9238369 -0.764828
			vertex -2.4899001 1.955689 -0.71912
			vertex -2.3744559 1.9183691 -0.727175
		endloop
	endfacet
	facet normal 0.29235714633270643 0.941069918676807 -0.1700432508211504
		outer loop
			vertex -2.4899001 1.955689 -0.71912
			vertex -2.447556 1.948716 -0.684908
			vertex -2.3744559 1.9183691 -0.727175
		endloop
	endfacet
	facet normal -0.2790726092091714 0.5273029940807061 -0.8025397380956959
		outer loop
			vertex -2.4321461 1.881853 -0.78667
			vertex -2.50963 1.916178 -0.737173
			vertex -2.4156301 1.9238369 -0.764828
		endloop
	endfacet
	facet normal -0.2806386381286496 0.5112854676498926 -0.8122986675843605
		outer loop
			vertex -2.50963 1.916178 -0.737173
			vertex -2.4899001 1.955689 -0.71912
			vertex -2.4156301 1.9238369 -0.764828
		endloop
	endfacet
	facet normal -0.5776951693283728 -0.13908378944962557 -0.8043158526642349
		outer loop
			vertex -2.417691 1.808454 -0.78436
			vertex -2.499212 1.845274 -0.732175
			vertex -2.4321461 1.881853 -0.78667
		endloop
	endfacet
	facet normal -0.5766684081450808 -0.1414493192209793 -0.8046400668245028
		outer loop
			vertex -2.499212 1.845274 -0.732175
			vertex -2.50963 1.916178 -0.737173
			vertex -2.4321461 1.881853 -0.78667
		endloop
	endfacet
	facet normal -0.6083595650360524 -0.5168260089178928 -0.6023201110166815
		outer loop
			vertex -2.37779 1.7316771 -0.758782
			vertex -2.462625 1.770061 -0.706032
			vertex -2.417691 1.808454 -0.78436
		endloop
	endfacet
	facet normal -0.6152710450249174 -0.5086366794150817 -0.602270926998428
		outer loop
			vertex -2.462625 1.770061 -0.706032
			vertex -2.499212 1.845274 -0.732175
			vertex -2.417691 1.808454 -0.78436
		endloop
	endfacet
	facet normal -0.31144351675450055 0.3497503736893422 0.8835596255917054
		outer loop
			vertex -2.462625 1.770061 -0.706032
			vertex -2.413846 1.719268 -0.668732
			vertex -2.396934 1.819551 -0.702467
		endloop
	endfacet
	facet normal -0.5538785820533335 0.34787284070121216 0.7564410109486781
		outer loop
			vertex -2.413846 1.719268 -0.668732
			vertex -2.3715031 1.712297 -0.634522
			vertex -2.396934 1.819551 -0.702467
		endloop
	endfacet
	facet normal -0.81853549364244 0.1561339513888889 0.5528307470385664
		outer loop
			vertex -2.3715031 1.712297 -0.634522
			vertex -2.3517721 1.751809 -0.616467
			vertex -2.396934 1.819551 -0.702467
		endloop
	endfacet
	facet normal -0.9123222043095562 -0.1061623611647158 0.3954715521952055
		outer loop
			vertex -2.3517721 1.751809 -0.616467
			vertex -2.36219 1.822711 -0.621467
			vertex -2.396934 1.819551 -0.702467
		endloop
	endfacet
	facet normal -0.8750163009016663 -0.29123449845524796 0.38668972066229645
		outer loop
			vertex -2.36219 1.822711 -0.621467
			vertex -2.3987761 1.8979239 -0.647609
			vertex -2.396934 1.819551 -0.702467
		endloop
	endfacet
	facet normal -0.7766778956923581 -0.3733598517311442 0.5073202809450736
		outer loop
			vertex -2.3987761 1.8979239 -0.647609
			vertex -2.447556 1.948716 -0.684908
			vertex -2.396934 1.819551 -0.702467
		endloop
	endfacet
	facet normal -0.6242281329580426 -0.3402482534748523 0.7032569687042063
		outer loop
			vertex -2.447556 1.948716 -0.684908
			vertex -2.4899001 1.955689 -0.71912
			vertex -2.396934 1.819551 -0.702467
		endloop
	endfacet
	facet normal -0.43219805923548243 -0.18723432178315394 0.882127057934108
		outer loop
			vertex -2.4899001 1.955689 -0.71912
			vertex -2.50963 1.916178 -0.737173
			vertex -2.396934 1.819551 -0.702467
		endloop
	endfacet
	facet normal -0.2723788795503965 0.027775284496884864 0.9617891034660291
		outer loop
			vertex -2.50963 1.916178 -0.737173
			vertex -2.499212 1.845274 -0.732175
			vertex -2.396934 1.819551 -0.702467
		endloop
	endfacet
	facet normal -0.21970810979479083 0.22322126214546859 0.9496844816130167
		outer loop
			vertex -2.499212 1.845274 -0.732175
			vertex -2.462625 1.770061 -0.706032
			vertex -2.396934 1.819551 -0.702467
		endloop
	endfacet
	facet normal 0.3667573370956306 0.07932496611955729 0.926928587020949
		outer loop
			vertex -2.135052 1.804772 -0.722826
			vertex -2.284447 1.7907619 -0.662516
			vertex -2.1152141 1.728044 -0.724109
		endloop
	endfacet
	facet normal 0.373538056491917 0.10252930473203875 0.9219311590479011
		outer loop
			vertex -2.284447 1.7907619 -0.662516
			vertex -2.269994 1.717362 -0.660209
			vertex -2.1152141 1.728044 -0.724109
		endloop
	endfacet
	facet normal 0.30018152654987335 0.4358181976926071 0.8485007658677483
		outer loop
			vertex -2.1793771 1.8836401 -0.747654
			vertex -2.3243489 1.867539 -0.688096
			vertex -2.135052 1.804772 -0.722826
		endloop
	endfacet
	facet normal 0.3007748145094014 0.4384846844709881 0.8469153986327166
		outer loop
			vertex -2.3243489 1.867539 -0.688096
			vertex -2.284447 1.7907619 -0.662516
			vertex -2.135052 1.804772 -0.722826
		endloop
	endfacet
	facet normal 0.1987761699131119 0.7328543910331379 0.650701525907326
		outer loop
			vertex -2.2312541 1.934518 -0.789108
			vertex -2.3744559 1.9183691 -0.727175
			vertex -2.1793771 1.8836401 -0.747654
		endloop
	endfacet
	facet normal 0.1975192006442724 0.7124181239194014 0.6733844237046238
		outer loop
			vertex -2.3744559 1.9183691 -0.727175
			vertex -2.3243489 1.867539 -0.688096
			vertex -2.1793771 1.8836401 -0.747654
		endloop
	endfacet
	facet normal -0.041631118553746516 0.9918759537420951 0.12020375350284675
		outer loop
			vertex -2.270869 1.937975 -0.831354
			vertex -2.4156301 1.9238369 -0.764828
			vertex -2.2312541 1.934518 -0.789108
		endloop
	endfacet
	facet normal -0.03335437172633343 0.9832370925016672 0.17925486273908947
		outer loop
			vertex -2.4156301 1.9238369 -0.764828
			vertex -2.3744559 1.9183691 -0.727175
			vertex -2.2312541 1.934518 -0.789108
		endloop
	endfacet
	facet normal -0.394693797255455 0.5456364643119072 -0.7392547972257405
		outer loop
			vertex -2.2830911 1.8926899 -0.858253
			vertex -2.4321461 1.881853 -0.78667
			vertex -2.270869 1.937975 -0.831354
		endloop
	endfacet
	facet normal -0.3941610567885261 0.5414130342717228 -0.7426365111089266
		outer loop
			vertex -2.4321461 1.881853 -0.78667
			vertex -2.4156301 1.9238369 -0.764828
			vertex -2.270869 1.937975 -0.831354
		endloop
	endfacet
	facet normal -0.4318229330159188 -0.09664939045739379 -0.8967652144489903
		outer loop
			vertex -2.2632539 1.815963 -0.859536
			vertex -2.417691 1.808454 -0.78436
			vertex -2.2830911 1.8926899 -0.858253
		endloop
	endfacet
	facet normal -0.42358970975437316 -0.11171244407154439 -0.8989394237821412
		outer loop
			vertex -2.417691 1.808454 -0.78436
			vertex -2.4321461 1.881853 -0.78667
			vertex -2.2830911 1.8926899 -0.858253
		endloop
	endfacet
	facet normal -0.36966217084637026 -0.4616115413511057 -0.8063898959787417
		outer loop
			vertex -2.21893 1.737096 -0.834708
			vertex -2.37779 1.7316771 -0.758782
			vertex -2.2632539 1.815963 -0.859536
		endloop
	endfacet
	facet normal -0.3701585256633027 -0.4610493370025429 -0.806483834139461
		outer loop
			vertex -2.37779 1.7316771 -0.758782
			vertex -2.417691 1.808454 -0.78436
			vertex -2.2632539 1.815963 -0.859536
		endloop
	endfacet
	facet normal -0.25299114792388433 -0.752937460037366 -0.6075200904864263
		outer loop
			vertex -2.167053 1.686218 -0.793255
			vertex -2.327682 1.680846 -0.719706
			vertex -2.21893 1.737096 -0.834708
		endloop
	endfacet
	facet normal -0.2694856186317601 -0.7396867094566348 -0.616636905483181
		outer loop
			vertex -2.327682 1.680846 -0.719706
			vertex -2.37779 1.7316771 -0.758782
			vertex -2.21893 1.737096 -0.834708
		endloop
	endfacet
	facet normal -0.0028385355956141176 -0.9968697509825672 -0.07901039356709372
		outer loop
			vertex -2.167053 1.686218 -0.793255
			vertex -2.1274371 1.682757 -0.751011
			vertex -2.327682 1.680846 -0.719706
		endloop
	endfacet
	facet normal -0.011136219635600865 -0.9912214327539839 -0.13174238445301986
		outer loop
			vertex -2.1274371 1.682757 -0.751011
			vertex -2.286509 1.675379 -0.682053
			vertex -2.327682 1.680846 -0.719706
		endloop
	endfacet
	facet normal 0.3515360687027942 -0.5464355377357575 0.7601516924275167
		outer loop
			vertex -2.1152141 1.728044 -0.724109
			vertex -2.269994 1.717362 -0.660209
			vertex -2.1274371 1.682757 -0.751011
		endloop
	endfacet
	facet normal 0.3562115975388606 -0.5377282906983846 0.7641737912028955
		outer loop
			vertex -2.269994 1.717362 -0.660209
			vertex -2.286509 1.675379 -0.682053
			vertex -2.1274371 1.682757 -0.751011
		endloop
	endfacet
	facet normal 0.37660614199799874 -0.5292220154331043 0.7603235312617298
		outer loop
			vertex -1.9199229 1.6297539 -0.889256
			vertex -2.1152141 1.728044 -0.724109
			vertex -1.948101 1.559211 -0.9244
		endloop
	endfacet
	facet normal 0.356358977046999 -0.5464115382313013 0.7579199894221816
		outer loop
			vertex -2.1152141 1.728044 -0.724109
			vertex -2.1274371 1.682757 -0.751011
			vertex -1.948101 1.559211 -0.9244
		endloop
	endfacet
	facet normal 0.6904986650044502 0.1833805797529499 0.699702191361828
		outer loop
			vertex -1.951236 1.7135791 -0.880324
			vertex -2.135052 1.804772 -0.722826
			vertex -1.9199229 1.6297539 -0.889256
		endloop
	endfacet
	facet normal 0.6839590674263268 0.1649538317061353 0.710626644230832
		outer loop
			vertex -2.135052 1.804772 -0.722826
			vertex -2.1152141 1.728044 -0.724109
			vertex -1.9199229 1.6297539 -0.889256
		endloop
	endfacet
	facet normal 0.6869859293578772 0.5691096597149025 0.45184569056646096
		outer loop
			vertex -2.004981 1.7968971 -0.903551
			vertex -2.1793771 1.8836401 -0.747654
			vertex -1.951236 1.7135791 -0.880324
		endloop
	endfacet
	facet normal 0.6860207023167564 0.5393026091334994 0.48839358285569695
		outer loop
			vertex -2.1793771 1.8836401 -0.747654
			vertex -2.135052 1.804772 -0.722826
			vertex -1.951236 1.7135791 -0.880324
		endloop
	endfacet
	facet normal 0.576713680831711 0.7962419229036697 0.18275702599956636
		outer loop
			vertex -2.060632 1.84788 -0.950061
			vertex -2.2312541 1.934518 -0.789108
			vertex -2.004981 1.7968971 -0.903551
		endloop
	endfacet
	facet normal 0.586270979405129 0.7789894668537521 0.22239997580543447
		outer loop
			vertex -2.2312541 1.934518 -0.789108
			vertex -2.1793771 1.8836401 -0.747654
			vertex -2.004981 1.7968971 -0.903551
		endloop
	endfacet
	facet normal 0.281758093320038 0.9359236250230986 -0.21132757740597707
		outer loop
			vertex -2.0969291 1.847059 -1.0020911
			vertex -2.270869 1.937975 -0.831354
			vertex -2.060632 1.84788 -0.950061
		endloop
	endfacet
	facet normal 0.29069840044584716 0.9365337002391307 -0.1959568021137002
		outer loop
			vertex -2.270869 1.937975 -0.831354
			vertex -2.2312541 1.934518 -0.789108
			vertex -2.060632 1.84788 -0.950061
		endloop
	endfacet
	facet normal -0.42466430411348294 0.5453920227854613 -0.7226394469538694
		outer loop
			vertex -2.1000061 1.7947429 -1.039767
			vertex -2.2830911 1.8926899 -0.858253
			vertex -2.0969291 1.847059 -1.0020911
		endloop
	endfacet
	facet normal -0.42528750074377075 0.5442967947307198 -0.7230985693230088
		outer loop
			vertex -2.2830911 1.8926899 -0.858253
			vertex -2.270869 1.937975 -0.831354
			vertex -2.0969291 1.847059 -1.0020911
		endloop
	endfacet
	facet normal -0.7371336511863804 -0.20680200997708736 -0.6433248860086733
		outer loop
			vertex -2.0686941 1.710919 -1.048699
			vertex -2.2632539 1.815963 -0.859536
			vertex -2.1000061 1.7947429 -1.039767
		endloop
	endfacet
	facet normal -0.7394832665189183 -0.18034306466572367 -0.648568329141568
		outer loop
			vertex -2.2632539 1.815963 -0.859536
			vertex -2.2830911 1.8926899 -0.858253
			vertex -2.1000061 1.7947429 -1.039767
		endloop
	endfacet
	facet normal -0.7028516105405075 -0.5715025539167732 -0.42353800824391263
		outer loop
			vertex -2.014945 1.627604 -1.025473
			vertex -2.21893 1.737096 -0.834708
			vertex -2.0686941 1.710919 -1.048699
		endloop
	endfacet
	facet normal -0.7178850619863465 -0.5412772489918417 -0.43778987825289367
		outer loop
			vertex -2.21893 1.737096 -0.834708
			vertex -2.2632539 1.815963 -0.859536
			vertex -2.0686941 1.710919 -1.048699
		endloop
	endfacet
	facet normal -0.579289854824003 -0.7952900676959974 -0.1787091836534478
		outer loop
			vertex -1.959298 1.576619 -0.978961
			vertex -2.167053 1.686218 -0.793255
			vertex -2.014945 1.627604 -1.025473
		endloop
	endfacet
	facet normal -0.6009865271417544 -0.7742888854132193 -0.1982218860763062
		outer loop
			vertex -2.167053 1.686218 -0.793255
			vertex -2.21893 1.737096 -0.834708
			vertex -2.014945 1.627604 -1.025473
		endloop
	endfacet
	facet normal -0.5601066810777836 -0.8155836312986822 -0.14527162892211745
		outer loop
			vertex -1.959298 1.576619 -0.978961
			vertex -1.948101 1.559211 -0.9244
			vertex -2.167053 1.686218 -0.793255
		endloop
	endfacet
	facet normal -0.3603494530490289 -0.8944888545755623 0.264646860414713
		outer loop
			vertex -1.948101 1.559211 -0.9244
			vertex -2.1274371 1.682757 -0.751011
			vertex -2.167053 1.686218 -0.793255
		endloop
	endfacet
	facet normal 0.33987249912965867 -0.5202990237626728 0.7834383257200083
		outer loop
			vertex -1.571252 1.565195 -1.083392
			vertex -1.9199229 1.6297539 -0.889256
			vertex -1.569779 1.493127 -1.131893
		endloop
	endfacet
	facet normal 0.33726975493700806 -0.5242667405239316 0.7819165538503089
		outer loop
			vertex -1.9199229 1.6297539 -0.889256
			vertex -1.948101 1.559211 -0.9244
			vertex -1.569779 1.493127 -1.131893
		endloop
	endfacet
	facet normal 0.4937099281030811 0.07912605879697954 0.8660193841431654
		outer loop
			vertex -1.610818 1.654124 -1.068961
			vertex -1.951236 1.7135791 -0.880324
			vertex -1.571252 1.565195 -1.083392
		endloop
	endfacet
	facet normal 0.4975386577440004 0.09397036860757135 0.8623368563815742
		outer loop
			vertex -1.951236 1.7135791 -0.880324
			vertex -1.9199229 1.6297539 -0.889256
			vertex -1.571252 1.565195 -1.083392
		endloop
	endfacet
	facet normal 0.483702574098478 0.5183323615408425 0.7052399469613161
		outer loop
			vertex -1.67134 1.740639 -1.091037
			vertex -2.004981 1.7968971 -0.903551
			vertex -1.610818 1.654124 -1.068961
		endloop
	endfacet
	facet normal 0.4833348358571041 0.5101156560258849 0.7114558692738907
		outer loop
			vertex -2.004981 1.7968971 -0.903551
			vertex -1.951236 1.7135791 -0.880324
			vertex -1.610818 1.654124 -1.068961
		endloop
	endfacet
	facet normal 0.3768542923769192 0.8315236661504168 0.4081044412265835
		outer loop
			vertex -1.7297 1.7917 -1.141184
			vertex -2.060632 1.84788 -0.950061
			vertex -1.67134 1.740639 -1.091037
		endloop
	endfacet
	facet normal 0.38228030835212007 0.8148338177374199 0.4357839089705689
		outer loop
			vertex -2.060632 1.84788 -0.950061
			vertex -2.004981 1.7968971 -0.903551
			vertex -1.67134 1.740639 -1.091037
		endloop
	endfacet
	facet normal 0.1019411936768642 0.9870681639533352 -0.12371108576650632
		outer loop
			vertex -1.76361 1.787799 -1.2002521
			vertex -2.0969291 1.847059 -1.0020911
			vertex -1.7297 1.7917 -1.141184
		endloop
	endfacet
	facet normal 0.11325926669666063 0.9890499179399604 -0.09461817124787482
		outer loop
			vertex -2.0969291 1.847059 -1.0020911
			vertex -2.060632 1.84788 -0.950061
			vertex -1.7297 1.7917 -1.141184
		endloop
	endfacet
	facet normal -0.3442229270193561 0.5698362055499145 -0.7461884985435668
		outer loop
			vertex -1.760112 1.7304291 -1.245677
			vertex -2.1000061 1.7947429 -1.039767
			vertex -1.76361 1.787799 -1.2002521
		endloop
	endfacet
	facet normal -0.346838467369871 0.5614610011240624 -0.7513086062127099
		outer loop
			vertex -2.1000061 1.7947429 -1.039767
			vertex -2.0969291 1.847059 -1.0020911
			vertex -1.76361 1.787799 -1.2002521
		endloop
	endfacet
	facet normal -0.5308934380555752 -0.09965634854253418 -0.8415585360654958
		outer loop
			vertex -1.720547 1.641504 -1.260106
			vertex -2.0686941 1.710919 -1.048699
			vertex -1.760112 1.7304291 -1.245677
		endloop
	endfacet
	facet normal -0.5300108468444702 -0.10836461353130167 -0.8410384133685093
		outer loop
			vertex -2.0686941 1.710919 -1.048699
			vertex -2.1000061 1.7947429 -1.039767
			vertex -1.760112 1.7304291 -1.245677
		endloop
	endfacet
	facet normal -0.5127307032318018 -0.530829985803463 -0.6747790394902005
		outer loop
			vertex -1.660025 1.554987 -1.2380331
			vertex -2.014945 1.627604 -1.025473
			vertex -1.720547 1.641504 -1.260106
		endloop
	endfacet
	facet normal -0.5162828145726691 -0.5222818055100923 -0.6787295271387869
		outer loop
			vertex -2.014945 1.627604 -1.025473
			vertex -2.0686941 1.710919 -1.048699
			vertex -1.720547 1.641504 -1.260106
		endloop
	endfacet
	facet normal -0.3955987645869875 -0.8326938191890826 -0.3874566052367011
		outer loop
			vertex -1.6016639 1.503926 -1.187884
			vertex -1.959298 1.576619 -0.978961
			vertex -1.660025 1.554987 -1.2380331
		endloop
	endfacet
	facet normal -0.40991490602067776 -0.8171333798460886 -0.4052934854686999
		outer loop
			vertex -1.959298 1.576619 -0.978961
			vertex -2.014945 1.627604 -1.025473
			vertex -1.660025 1.554987 -1.2380331
		endloop
	endfacet
	facet normal -0.23030860493804026 -0.9714923205846435 -0.05621936976308122
		outer loop
			vertex -1.6016639 1.503926 -1.187884
			vertex -1.569779 1.493127 -1.131893
			vertex -1.959298 1.576619 -0.978961
		endloop
	endfacet
	facet normal -0.2913620170183627 -0.9270482253476379 -0.23598678547492147
		outer loop
			vertex -1.569779 1.493127 -1.131893
			vertex -1.948101 1.559211 -0.9244
			vertex -1.959298 1.576619 -0.978961
		endloop
	endfacet
	facet normal 0.6649671136297843 0.05685487345084759 0.7447054861861578
		outer loop
			vertex -1.2138211 1.557186 -1.40194
			vertex -1.571252 1.565195 -1.083392
			vertex -1.194868 1.441911 -1.410063
		endloop
	endfacet
	facet normal 0.4779490531239636 -0.48368248559098753 0.7332229918315648
		outer loop
			vertex -1.571252 1.565195 -1.083392
			vertex -1.569779 1.493127 -1.131893
			vertex -1.194868 1.441911 -1.410063
		endloop
	endfacet
	facet normal 0.6407682216063355 0.4226658845355887 0.640913126897244
		outer loop
			vertex -1.238162 1.652003 -1.440134
			vertex -1.610818 1.654124 -1.068961
			vertex -1.2138211 1.557186 -1.40194
		endloop
	endfacet
	facet normal 0.6574073004020135 0.17349644448515486 0.7332902734450707
		outer loop
			vertex -1.610818 1.654124 -1.068961
			vertex -1.571252 1.565195 -1.083392
			vertex -1.2138211 1.557186 -1.40194
		endloop
	endfacet
	facet normal 0.5052616421102102 0.7434340527157405 0.43819685333733693
		outer loop
			vertex -1.287692 1.7261291 -1.5087841
			vertex -1.67134 1.740639 -1.091037
			vertex -1.238162 1.652003 -1.440134
		endloop
	endfacet
	facet normal 0.5864245475005297 0.5596557734123699 0.5855695222388211
		outer loop
			vertex -1.67134 1.740639 -1.091037
			vertex -1.610818 1.654124 -1.068961
			vertex -1.238162 1.652003 -1.440134
		endloop
	endfacet
	facet normal 0.2544776074621757 0.9575844840939549 0.13517804231028507
		outer loop
			vertex -1.343495 1.751247 -1.581665
			vertex -1.7297 1.7917 -1.141184
			vertex -1.287692 1.7261291 -1.5087841
		endloop
	endfacet
	facet normal 0.4213676746010997 0.8332240418804997 0.3580320919046018
		outer loop
			vertex -1.7297 1.7917 -1.141184
			vertex -1.67134 1.740639 -1.091037
			vertex -1.287692 1.7261291 -1.5087841
		endloop
	endfacet
	facet normal -0.2679251939530773 0.8853520276538962 -0.37995773129960225
		outer loop
			vertex -1.384256 1.7177629 -1.630945
			vertex -1.76361 1.787799 -1.2002521
			vertex -1.343495 1.751247 -1.581665
		endloop
	endfacet
	facet normal 0.017725392538263603 0.9969489763949244 -0.07601676739033884
		outer loop
			vertex -1.76361 1.787799 -1.2002521
			vertex -1.7297 1.7917 -1.141184
			vertex -1.343495 1.751247 -1.581665
		endloop
	endfacet
	facet normal -0.70521590130665 0.15009733955743498 -0.6929223053142606
		outer loop
			vertex -1.394402 1.6384701 -1.637795
			vertex -1.760112 1.7304291 -1.245677
			vertex -1.384256 1.7177629 -1.630945
		endloop
	endfacet
	facet normal -0.6283486344320964 0.45900194164878166 -0.6280885376839542
		outer loop
			vertex -1.760112 1.7304291 -1.245677
			vertex -1.76361 1.787799 -1.2002521
			vertex -1.384256 1.7177629 -1.630945
		endloop
	endfacet
	facet normal -0.6899933489658331 -0.41577193366793835 -0.5924887151304553
		outer loop
			vertex -1.370062 1.543649 -1.599601
			vertex -1.720547 1.641504 -1.260106
			vertex -1.394402 1.6384701 -1.637795
		endloop
	endfacet
	facet normal -0.7382932537552093 -0.2253319998627931 -0.63572679768701
		outer loop
			vertex -1.720547 1.641504 -1.260106
			vertex -1.760112 1.7304291 -1.245677
			vertex -1.394402 1.6384701 -1.637795
		endloop
	endfacet
	facet normal -0.5379117780752687 -0.7375487349322144 -0.4082557808626757
		outer loop
			vertex -1.320531 1.4695261 -1.530953
			vertex -1.660025 1.554987 -1.2380331
			vertex -1.370062 1.543649 -1.599601
		endloop
	endfacet
	facet normal -0.64504527540287 -0.5785831822340067 -0.49915738391453834
		outer loop
			vertex -1.660025 1.554987 -1.2380331
			vertex -1.720547 1.641504 -1.260106
			vertex -1.370062 1.543649 -1.599601
		endloop
	endfacet
	facet normal -0.268152630677359 -0.95536990303621 -0.12394561320754548
		outer loop
			vertex -1.264729 1.4444081 -1.45807
			vertex -1.6016639 1.503926 -1.187884
			vertex -1.320531 1.4695261 -1.530953
		endloop
	endfacet
	facet normal -0.4685043110697313 -0.8307401721113145 -0.3006234803696152
		outer loop
			vertex -1.6016639 1.503926 -1.187884
			vertex -1.660025 1.554987 -1.2380331
			vertex -1.320531 1.4695261 -1.530953
		endloop
	endfacet
	facet normal -0.08373870445975956 -0.9940151680147963 0.07015465153443227
		outer loop
			vertex -1.194868 1.441911 -1.410063
			vertex -1.569779 1.493127 -1.131893
			vertex -1.264729 1.4444081 -1.45807
		endloop
	endfacet
	facet normal -0.22135813565392654 -0.9732416920367702 -0.06165374815226081
		outer loop
			vertex -1.569779 1.493127 -1.131893
			vertex -1.6016639 1.503926 -1.187884
			vertex -1.264729 1.4444081 -1.45807
		endloop
	endfacet
	facet normal 0.08909881838233373 0.9597261249922512 -0.266434167422705
		outer loop
			vertex 2.1686201 1.879856 -1.116595
			vertex 2.133131 1.9024841 -1.046954
			vertex 2.2293739 1.89821 -1.030165
		endloop
	endfacet
	facet normal 0.08655738834452555 0.9641791257887389 -0.2507317927910986
		outer loop
			vertex 2.133131 1.9024841 -1.046954
			vertex 2.195127 1.919184 -0.961333
			vertex 2.2293739 1.89821 -1.030165
		endloop
	endfacet
	facet normal 0.5319860919121481 0.6679513049210525 -0.5204150769014122
		outer loop
			vertex 2.1923649 1.8382519 -1.145721
			vertex 2.1686201 1.879856 -1.116595
			vertex 2.250073 1.85805 -1.061319
		endloop
	endfacet
	facet normal 0.5301025856633916 0.6731804002069748 -0.5155767619377
		outer loop
			vertex 2.1686201 1.879856 -1.116595
			vertex 2.2293739 1.89821 -1.030165
			vertex 2.250073 1.85805 -1.061319
		endloop
	endfacet
	facet normal 0.8295604211096125 -0.2069668286026279 -0.5186465459121586
		outer loop
			vertex 2.1923649 1.8382519 -1.145721
			vertex 2.250073 1.85805 -1.061319
			vertex 2.195291 1.793564 -1.123208
		endloop
	endfacet
	facet normal 0.8340596597129147 -0.225224336254994 -0.5036054828911957
		outer loop
			vertex 2.250073 1.85805 -1.061319
			vertex 2.2493131 1.814044 -1.042897
			vertex 2.195291 1.793564 -1.123208
		endloop
	endfacet
	facet normal 0.5942387329273191 -0.7807011109659393 -0.19335486449914557
		outer loop
			vertex 2.176285 1.762861 -1.057651
			vertex 2.195291 1.793564 -1.123208
			vertex 2.2273829 1.783002 -0.981934
		endloop
	endfacet
	facet normal 0.5839348523427065 -0.788860094587757 -0.19162421398794255
		outer loop
			vertex 2.195291 1.793564 -1.123208
			vertex 2.2493131 1.814044 -1.042897
			vertex 2.2273829 1.783002 -0.981934
		endloop
	endfacet
	facet normal 0.280951015396741 -0.9580862986454244 0.056010457018764594
		outer loop
			vertex 2.1426001 1.7578681 -0.974092
			vertex 2.176285 1.762861 -1.057651
			vertex 2.1926639 1.77678 -0.901717
		endloop
	endfacet
	facet normal 0.295816177224991 -0.9537140229271813 0.05405878063778966
		outer loop
			vertex 2.176285 1.762861 -1.057651
			vertex 2.2273829 1.783002 -0.981934
			vertex 2.1926639 1.77678 -0.901717
		endloop
	endfacet
	facet normal -0.0654224321729461 -0.9583392593781307 0.2780391506661471
		outer loop
			vertex 2.1071119 1.780496 -0.904449
			vertex 2.1426001 1.7578681 -0.974092
			vertex 2.1584151 1.797756 -0.832886
		endloop
	endfacet
	facet normal -0.03509225067710257 -0.9607139492106609 0.27531298867738047
		outer loop
			vertex 2.1426001 1.7578681 -0.974092
			vertex 2.1926639 1.77678 -0.901717
			vertex 2.1584151 1.797756 -0.832886
		endloop
	endfacet
	facet normal -0.5222136589975253 -0.6686307385911568 0.5293636082764478
		outer loop
			vertex 2.0833671 1.822099 -0.875325
			vertex 2.1071119 1.780496 -0.904449
			vertex 2.137718 1.837916 -0.80173
		endloop
	endfacet
	facet normal -0.5124199363315792 -0.6754603640614303 0.530263241637529
		outer loop
			vertex 2.1071119 1.780496 -0.904449
			vertex 2.1584151 1.797756 -0.832886
			vertex 2.137718 1.837916 -0.80173
		endloop
	endfacet
	facet normal -0.8009286339393649 0.2267890262180189 0.5541480496429686
		outer loop
			vertex 2.0804441 1.866788 -0.897839
			vertex 2.0833671 1.822099 -0.875325
			vertex 2.138478 1.8819211 -0.820154
		endloop
	endfacet
	facet normal -0.8047321398898507 0.24103274210583694 0.5425029034588137
		outer loop
			vertex 2.0833671 1.822099 -0.875325
			vertex 2.137718 1.837916 -0.80173
			vertex 2.138478 1.8819211 -0.820154
		endloop
	endfacet
	facet normal -0.522383165424982 0.8203295304097756 0.23275585925654643
		outer loop
			vertex 2.0994511 1.8974921 -0.963395
			vertex 2.0804441 1.866788 -0.897839
			vertex 2.1604071 1.912963 -0.881115
		endloop
	endfacet
	facet normal -0.5222976200602679 0.821097130110362 0.23022749402255932
		outer loop
			vertex 2.0804441 1.866788 -0.897839
			vertex 2.138478 1.8819211 -0.820154
			vertex 2.1604071 1.912963 -0.881115
		endloop
	endfacet
	facet normal -0.2203806362183985 0.9749343699096031 -0.030583484905078288
		outer loop
			vertex 2.133131 1.9024841 -1.046954
			vertex 2.0994511 1.8974921 -0.963395
			vertex 2.195127 1.919184 -0.961333
		endloop
	endfacet
	facet normal -0.22065975238627614 0.9751481851615921 -0.019881917736492193
		outer loop
			vertex 2.0994511 1.8974921 -0.963395
			vertex 2.1604071 1.912963 -0.881115
			vertex 2.195127 1.919184 -0.961333
		endloop
	endfacet
	facet normal 0.7959234964635312 -0.34131537339876933 0.5000096035666978
		outer loop
			vertex 2.195127 1.919184 -0.961333
			vertex 2.1647429 1.842768 -0.96513
			vertex 2.2293739 1.89821 -1.030165
		endloop
	endfacet
	facet normal 0.75210071538835 -0.11567360686504138 0.6488174863450925
		outer loop
			vertex 2.2293739 1.89821 -1.030165
			vertex 2.1647429 1.842768 -0.96513
			vertex 2.250073 1.85805 -1.061319
		endloop
	endfacet
	facet normal 0.6998989159885074 0.2654899295054044 0.6630660636236239
		outer loop
			vertex 2.250073 1.85805 -1.061319
			vertex 2.1647429 1.842768 -0.96513
			vertex 2.2493131 1.814044 -1.042897
		endloop
	endfacet
	facet normal 0.6598189709298542 0.5465626055733024 0.5156629168264779
		outer loop
			vertex 2.2493131 1.814044 -1.042897
			vertex 2.1647429 1.842768 -0.96513
			vertex 2.2273829 1.783002 -0.981934
		endloop
	endfacet
	facet normal 0.6941912283672 0.6293706817715907 0.34927221960012955
		outer loop
			vertex 2.2273829 1.783002 -0.981934
			vertex 2.1647429 1.842768 -0.96513
			vertex 2.1926639 1.77678 -0.901717
		endloop
	endfacet
	facet normal 0.7987776067068272 0.5568495008107668 0.22775637964832837
		outer loop
			vertex 2.1926639 1.77678 -0.901717
			vertex 2.1647429 1.842768 -0.96513
			vertex 2.1584151 1.797756 -0.832886
		endloop
	endfacet
	facet normal 0.9227911473330764 0.3491292904442029 0.16298845651650362
		outer loop
			vertex 2.1584151 1.797756 -0.832886
			vertex 2.1647429 1.842768 -0.96513
			vertex 2.137718 1.837916 -0.80173
		endloop
	endfacet
	facet normal 0.9850216611227178 0.051840998884828814 0.164453148202352
		outer loop
			vertex 2.137718 1.837916 -0.80173
			vertex 2.1647429 1.842768 -0.96513
			vertex 2.138478 1.8819211 -0.820154
		endloop
	endfacet
	facet normal 0.9484860548794187 -0.2173276623880043 0.23052741889034006
		outer loop
			vertex 2.138478 1.8819211 -0.820154
			vertex 2.1647429 1.842768 -0.96513
			vertex 2.1604071 1.912963 -0.881115
		endloop
	endfacet
	facet normal 0.8655920087299652 -0.36139478692340304 0.3466183526696357
		outer loop
			vertex 2.1604071 1.912963 -0.881115
			vertex 2.1647429 1.842768 -0.96513
			vertex 2.195127 1.919184 -0.961333
		endloop
	endfacet
	facet normal 0.7134829739829676 -0.6866659721131039 -0.13939830909443032
		outer loop
			vertex 2.073267 1.673455 -1.144521
			vertex 2.088377 1.7037081 -1.216208
			vertex 2.176285 1.762861 -1.057651
		endloop
	endfacet
	facet normal 0.7002435546490516 -0.7026820487420585 -0.12608291933534826
		outer loop
			vertex 2.088377 1.7037081 -1.216208
			vertex 2.195291 1.793564 -1.123208
			vertex 2.176285 1.762861 -1.057651
		endloop
	endfacet
	facet normal 0.5588793328927029 -0.8107455232608392 0.17419985010876385
		outer loop
			vertex 2.040972 1.670104 -1.056506
			vertex 2.073267 1.673455 -1.144521
			vertex 2.1426001 1.7578681 -0.974092
		endloop
	endfacet
	facet normal 0.5564886709045556 -0.812040550543121 0.17581383173262127
		outer loop
			vertex 2.073267 1.673455 -1.144521
			vertex 2.176285 1.762861 -1.057651
			vertex 2.1426001 1.7578681 -0.974092
		endloop
	endfacet
	facet normal 0.322923750048738 -0.8271088911312718 0.4600121018691337
		outer loop
			vertex 2.0038249 1.694937 -0.985779
			vertex 2.040972 1.670104 -1.056506
			vertex 2.1071119 1.780496 -0.904449
		endloop
	endfacet
	facet normal 0.3498338763481281 -0.8238604295316753 0.44594870961930827
		outer loop
			vertex 2.040972 1.670104 -1.056506
			vertex 2.1426001 1.7578681 -0.974092
			vertex 2.1071119 1.780496 -0.904449
		endloop
	endfacet
	facet normal -0.16422910716675707 -0.5863090290935296 0.7932657327545496
		outer loop
			vertex 1.976019 1.738466 -0.959363
			vertex 2.0038249 1.694937 -0.985779
			vertex 2.0833671 1.822099 -0.875325
		endloop
	endfacet
	facet normal -0.11040165199554786 -0.6115002220701653 0.7835042780003135
		outer loop
			vertex 2.0038249 1.694937 -0.985779
			vertex 2.1071119 1.780496 -0.904449
			vertex 2.0833671 1.822099 -0.875325
		endloop
	endfacet
	facet normal -0.7144577643654751 0.27241676796666 0.6444681586149049
		outer loop
			vertex 1.968171 1.784065 -0.987338
			vertex 1.976019 1.738466 -0.959363
			vertex 2.0804441 1.866788 -0.897839
		endloop
	endfacet
	facet normal -0.7165178425016212 0.27590693971616626 0.6406852128723448
		outer loop
			vertex 1.976019 1.738466 -0.959363
			vertex 2.0833671 1.822099 -0.875325
			vertex 2.0804441 1.866788 -0.897839
		endloop
	endfacet
	facet normal -0.6618468645464858 0.7303927536435033 0.16877545234733202
		outer loop
			vertex 1.983278 1.81432 -1.059028
			vertex 1.968171 1.784065 -0.987338
			vertex 2.0994511 1.8974921 -0.963395
		endloop
	endfacet
	facet normal -0.6619114262708902 0.7340331447015193 0.15188352857250384
		outer loop
			vertex 1.968171 1.784065 -0.987338
			vertex 2.0804441 1.866788 -0.897839
			vertex 2.0994511 1.8974921 -0.963395
		endloop
	endfacet
	facet normal -0.4925995757239131 0.8575587094753758 -0.14811724342408203
		outer loop
			vertex 2.015573 1.817669 -1.147043
			vertex 1.983278 1.81432 -1.059028
			vertex 2.133131 1.9024841 -1.046954
		endloop
	endfacet
	facet normal -0.4927031135043482 0.8576304097279599 -0.14735576762710512
		outer loop
			vertex 1.983278 1.81432 -1.059028
			vertex 2.0994511 1.8974921 -0.963395
			vertex 2.133131 1.9024841 -1.046954
		endloop
	endfacet
	facet normal -0.2617963545816788 0.8593699891950902 -0.43925606472600287
		outer loop
			vertex 2.052721 1.792836 -1.217767
			vertex 2.015573 1.817669 -1.147043
			vertex 2.1686201 1.879856 -1.116595
		endloop
	endfacet
	facet normal -0.2690502432837082 0.8672563414943799 -0.4189014260261731
		outer loop
			vertex 2.015573 1.817669 -1.147043
			vertex 2.133131 1.9024841 -1.046954
			vertex 2.1686201 1.879856 -1.116595
		endloop
	endfacet
	facet normal 0.21636975574372652 0.6038020136968272 -0.7672074406932307
		outer loop
			vertex 2.052721 1.792836 -1.217767
			vertex 2.1686201 1.879856 -1.116595
			vertex 2.0805261 1.749306 -1.244184
		endloop
	endfacet
	facet normal 0.16905459843188117 0.6281789239292251 -0.7594812586760493
		outer loop
			vertex 2.1686201 1.879856 -1.116595
			vertex 2.1923649 1.8382519 -1.145721
			vertex 2.0805261 1.749306 -1.244184
		endloop
	endfacet
	facet normal 0.7464659093727918 -0.24986316130451686 -0.616730935471186
		outer loop
			vertex 2.088377 1.7037081 -1.216208
			vertex 2.0805261 1.749306 -1.244184
			vertex 2.195291 1.793564 -1.123208
		endloop
	endfacet
	facet normal 0.7462401901879258 -0.2598814634810545 -0.6128516977925687
		outer loop
			vertex 2.0805261 1.749306 -1.244184
			vertex 2.1923649 1.8382519 -1.145721
			vertex 2.195291 1.793564 -1.123208
		endloop
	endfacet
	facet normal 0.6931253390868237 -0.34259421199964046 -0.6341975009570134
		outer loop
			vertex 1.870065 1.702318 -1.454054
			vertex 1.872703 1.77707 -1.491552
			vertex 2.088377 1.7037081 -1.216208
		endloop
	endfacet
	facet normal 0.7230100517664021 -0.2665489530918859 -0.6373445854876029
		outer loop
			vertex 1.872703 1.77707 -1.491552
			vertex 2.0805261 1.749306 -1.244184
			vertex 2.088377 1.7037081 -1.216208
		endloop
	endfacet
	facet normal 0.35867668678214265 -0.8778709562834462 -0.3173225779439157
		outer loop
			vertex 1.873354 1.673027 -1.369303
			vertex 1.870065 1.702318 -1.454054
			vertex 2.073267 1.673455 -1.144521
		endloop
	endfacet
	facet normal 0.33762087830269283 -0.8906052905292895 -0.30468731351232564
		outer loop
			vertex 1.870065 1.702318 -1.454054
			vertex 2.088377 1.7037081 -1.216208
			vertex 2.073267 1.673455 -1.144521
		endloop
	endfacet
	facet normal -0.015313768697192389 -0.9998820903924789 -0.001137453584053651
		outer loop
			vertex 1.856513 1.673174 -1.27179
			vertex 1.873354 1.673027 -1.369303
			vertex 2.040972 1.670104 -1.056506
		endloop
	endfacet
	facet normal 0.03179440863203158 -0.9991463900828629 -0.026374358079828415
		outer loop
			vertex 1.873354 1.673027 -1.369303
			vertex 2.073267 1.673455 -1.144521
			vertex 2.040972 1.670104 -1.056506
		endloop
	endfacet
	facet normal -0.3059738583298927 -0.9243528764023876 0.22792928268511514
		outer loop
			vertex 1.8217 1.702705 -1.1987621
			vertex 1.856513 1.673174 -1.27179
			vertex 2.0038249 1.694937 -0.985779
		endloop
	endfacet
	facet normal -0.2503732546114572 -0.9470504901656107 0.20101891068340624
		outer loop
			vertex 1.856513 1.673174 -1.27179
			vertex 2.040972 1.670104 -1.056506
			vertex 2.0038249 1.694937 -0.985779
		endloop
	endfacet
	facet normal -0.5898296349324538 -0.6512329552079809 0.4774899368641485
		outer loop
			vertex 1.785825 1.750339 -1.178111
			vertex 1.8217 1.702705 -1.1987621
			vertex 1.976019 1.738466 -0.959363
		endloop
	endfacet
	facet normal -0.5826983657023367 -0.6599962067427498 0.4742020895072137
		outer loop
			vertex 1.8217 1.702705 -1.1987621
			vertex 2.0038249 1.694937 -0.985779
			vertex 1.976019 1.738466 -0.959363
		endloop
	endfacet
	facet normal -0.7211299136422955 0.25485594696123165 0.6442205320763607
		outer loop
			vertex 1.7672369 1.797881 -1.217726
			vertex 1.785825 1.750339 -1.178111
			vertex 1.968171 1.784065 -0.987338
		endloop
	endfacet
	facet normal -0.7195637771243525 0.26894012916382 0.6402336898163694
		outer loop
			vertex 1.785825 1.750339 -1.178111
			vertex 1.976019 1.738466 -0.959363
			vertex 1.968171 1.784065 -0.987338
		endloop
	endfacet
	facet normal -0.2908567722178196 0.9078840560092316 0.30190872610651387
		outer loop
			vertex 1.770699 1.827173 -1.302476
			vertex 1.7672369 1.797881 -1.217726
			vertex 1.983278 1.81432 -1.059028
		endloop
	endfacet
	facet normal -0.30081123126233295 0.8997010761385861 0.3163077247578841
		outer loop
			vertex 1.7672369 1.797881 -1.217726
			vertex 1.968171 1.784065 -0.987338
			vertex 1.983278 1.81432 -1.059028
		endloop
	endfacet
	facet normal 0.035161827369355046 0.9993653110998206 0.005711467973012239
		outer loop
			vertex 1.790742 1.8270251 -1.399989
			vertex 1.770699 1.827173 -1.302476
			vertex 2.015573 1.817669 -1.147043
		endloop
	endfacet
	facet normal 0.011878665026496324 0.9990312835284709 0.042372064484094675
		outer loop
			vertex 1.770699 1.827173 -1.302476
			vertex 1.983278 1.81432 -1.059028
			vertex 2.015573 1.817669 -1.147043
		endloop
	endfacet
	facet normal 0.29567720143909315 0.9213907954636101 -0.252218148799966
		outer loop
			vertex 1.8204679 1.797495 -1.473019
			vertex 1.790742 1.8270251 -1.399989
			vertex 2.052721 1.792836 -1.217767
		endloop
	endfacet
	facet normal 0.2595528953527072 0.9456872774770618 -0.19572395799198786
		outer loop
			vertex 1.790742 1.8270251 -1.399989
			vertex 2.015573 1.817669 -1.147043
			vertex 2.052721 1.792836 -1.217767
		endloop
	endfacet
	facet normal 0.27955194195192606 0.9303225904304657 -0.2373827910478248
		outer loop
			vertex 1.8204679 1.797495 -1.473019
			vertex 2.052721 1.792836 -1.217767
			vertex 1.872703 1.77707 -1.491552
		endloop
	endfacet
	facet normal 0.6115318962751715 0.6576191141658444 -0.4399611806987332
		outer loop
			vertex 2.052721 1.792836 -1.217767
			vertex 2.0805261 1.749306 -1.244184
			vertex 1.872703 1.77707 -1.491552
		endloop
	endfacet
	facet normal 0.6407880758131853 -0.4689822226829971 -0.6078209577687754
		outer loop
			vertex 1.571322 1.613575 -1.700528
			vertex 1.5616241 1.662515 -1.748513
			vertex 1.870065 1.702318 -1.454054
		endloop
	endfacet
	facet normal 0.6697522501936686 -0.35170927496578935 -0.6540126216393354
		outer loop
			vertex 1.5616241 1.662515 -1.748513
			vertex 1.872703 1.77707 -1.491552
			vertex 1.870065 1.702318 -1.454054
		endloop
	endfacet
	facet normal 0.4357341049682228 -0.8670136796771316 -0.2417086449017958
		outer loop
			vertex 1.566637 1.584975 -1.606385
			vertex 1.571322 1.613575 -1.700528
			vertex 1.873354 1.673027 -1.369303
		endloop
	endfacet
	facet normal 0.49143418586762844 -0.817075589508177 -0.3014629695177938
		outer loop
			vertex 1.571322 1.613575 -1.700528
			vertex 1.870065 1.702318 -1.454054
			vertex 1.873354 1.673027 -1.369303
		endloop
	endfacet
	facet normal 0.2439760995968895 -0.9687824791257171 0.04400194273572857
		outer loop
			vertex 1.558393 1.587638 -1.502044
			vertex 1.566637 1.584975 -1.606385
			vertex 1.856513 1.673174 -1.27179
		endloop
	endfacet
	facet normal 0.24434676597783664 -0.9687045159338193 0.04366026529462628
		outer loop
			vertex 1.566637 1.584975 -1.606385
			vertex 1.873354 1.673027 -1.369303
			vertex 1.856513 1.673174 -1.27179
		endloop
	endfacet
	facet normal -0.051528799042152226 -0.9180688130993566 0.3930578039978498
		outer loop
			vertex 1.541783 1.620546 -1.427358
			vertex 1.558393 1.587638 -1.502044
			vertex 1.8217 1.702705 -1.1987621
		endloop
	endfacet
	facet normal -0.017264913626530987 -0.9297652555431312 0.367747865177059
		outer loop
			vertex 1.558393 1.587638 -1.502044
			vertex 1.856513 1.673174 -1.27179
			vertex 1.8217 1.702705 -1.1987621
		endloop
	endfacet
	facet normal -0.48421597308075764 -0.48631351962152736 0.7273472705982869
		outer loop
			vertex 1.5157681 1.671131 -1.4108551
			vertex 1.541783 1.620546 -1.427358
			vertex 1.785825 1.750339 -1.178111
		endloop
	endfacet
	facet normal -0.39373491895971124 -0.598872494090738 0.6973697365195372
		outer loop
			vertex 1.541783 1.620546 -1.427358
			vertex 1.8217 1.702705 -1.1987621
			vertex 1.785825 1.750339 -1.178111
		endloop
	endfacet
	facet normal -0.6739476710210257 0.3298301373485441 0.661064760233047
		outer loop
			vertex 1.4926521 1.72007 -1.4588391
			vertex 1.5157681 1.671131 -1.4108551
			vertex 1.7672369 1.797881 -1.217726
		endloop
	endfacet
	facet normal -0.6716697119424518 0.3013390477124019 0.6767972934216911
		outer loop
			vertex 1.5157681 1.671131 -1.4108551
			vertex 1.785825 1.750339 -1.178111
			vertex 1.7672369 1.797881 -1.217726
		endloop
	endfacet
	facet normal -0.48048351397007016 0.8288211508800682 0.2866898893522628
		outer loop
			vertex 1.485813 1.748669 -1.552981
			vertex 1.4926521 1.72007 -1.4588391
			vertex 1.770699 1.827173 -1.302476
		endloop
	endfacet
	facet normal -0.4746079296550623 0.8377149464048831 0.27014992444640723
		outer loop
			vertex 1.4926521 1.72007 -1.4588391
			vertex 1.7672369 1.797881 -1.217726
			vertex 1.770699 1.827173 -1.302476
		endloop
	endfacet
	facet normal -0.2220019585504724 0.9734322589586759 -0.05607822766781818
		outer loop
			vertex 1.500507 1.746009 -1.657325
			vertex 1.485813 1.748669 -1.552981
			vertex 1.790742 1.8270251 -1.399989
		endloop
	endfacet
	facet normal -0.22597128565549887 0.9729544881096047 -0.047922250850497505
		outer loop
			vertex 1.485813 1.748669 -1.552981
			vertex 1.770699 1.827173 -1.302476
			vertex 1.790742 1.8270251 -1.399989
		endloop
	endfacet
	facet normal 0.06856885613511321 0.9236474937244719 -0.37705917215315665
		outer loop
			vertex 1.533087 1.713101 -1.732012
			vertex 1.500507 1.746009 -1.657325
			vertex 1.8204679 1.797495 -1.473019
		endloop
	endfacet
	facet normal 0.054433974874409714 0.9332074673645592 -0.3551911671683255
		outer loop
			vertex 1.500507 1.746009 -1.657325
			vertex 1.790742 1.8270251 -1.399989
			vertex 1.8204679 1.797495 -1.473019
		endloop
	endfacet
	facet normal 0.48979942300413887 0.5075421702222802 -0.7088705598844338
		outer loop
			vertex 1.533087 1.713101 -1.732012
			vertex 1.8204679 1.797495 -1.473019
			vertex 1.5616241 1.662515 -1.748513
		endloop
	endfacet
	facet normal 0.13573888508056944 0.8333399828095986 -0.5358352621169885
		outer loop
			vertex 1.8204679 1.797495 -1.473019
			vertex 1.872703 1.77707 -1.491552
			vertex 1.5616241 1.662515 -1.748513
		endloop
	endfacet
	facet normal 0.9657101890258377 -0.038533307650016856 -0.2567469863761401
		outer loop
			vertex 1.552762 1.5589499 -1.76214
			vertex 1.5403301 1.6089391 -1.816403
			vertex 1.571322 1.613575 -1.700528
		endloop
	endfacet
	facet normal 0.9649240117633845 -0.05949993001235665 -0.2556978878500577
		outer loop
			vertex 1.5403301 1.6089391 -1.816403
			vertex 1.5616241 1.662515 -1.748513
			vertex 1.571322 1.613575 -1.700528
		endloop
	endfacet
	facet normal 0.9321126743911236 -0.36146019199629426 -0.0226382826519479
		outer loop
			vertex 1.54433 1.5308681 -1.6609451
			vertex 1.552762 1.5589499 -1.76214
			vertex 1.566637 1.584975 -1.606385
		endloop
	endfacet
	facet normal 0.9584726244591394 -0.2826199754605249 -0.038159895611780806
		outer loop
			vertex 1.552762 1.5589499 -1.76214
			vertex 1.571322 1.613575 -1.700528
			vertex 1.566637 1.584975 -1.606385
		endloop
	endfacet
	facet normal 0.8230527182995934 -0.5540186204617019 0.12509033168619807
		outer loop
			vertex 1.530756 1.535419 -1.551477
			vertex 1.54433 1.5308681 -1.6609451
			vertex 1.558393 1.587638 -1.502044
		endloop
	endfacet
	facet normal 0.8896666453600832 -0.4492314368228794 0.08175803510228974
		outer loop
			vertex 1.54433 1.5308681 -1.6609451
			vertex 1.566637 1.584975 -1.606385
			vertex 1.558393 1.587638 -1.502044
		endloop
	endfacet
	facet normal 0.45169077818570774 -0.7539671165469576 0.4769790646012216
		outer loop
			vertex 1.509737 1.5708621 -1.475547
			vertex 1.530756 1.535419 -1.551477
			vertex 1.541783 1.620546 -1.427358
		endloop
	endfacet
	facet normal 0.55713070134735 -0.7070914550977847 0.4354618878201716
		outer loop
			vertex 1.530756 1.535419 -1.551477
			vertex 1.558393 1.587638 -1.502044
			vertex 1.541783 1.620546 -1.427358
		endloop
	endfacet
	facet normal -0.4657412210836032 -0.4598014158687606 0.7560871463982427
		outer loop
			vertex 1.479347 1.6236629 -1.462157
			vertex 1.509737 1.5708621 -1.475547
			vertex 1.5157681 1.671131 -1.4108551
		endloop
	endfacet
	facet normal -0.4280452142834202 -0.4716436930737485 0.7709277017417498
		outer loop
			vertex 1.509737 1.5708621 -1.475547
			vertex 1.541783 1.620546 -1.427358
			vertex 1.5157681 1.671131 -1.4108551
		endloop
	endfacet
	facet normal -0.8478736220462535 0.0990891021792861 0.5208566701766141
		outer loop
			vertex 1.451854 1.67365 -1.516421
			vertex 1.479347 1.6236629 -1.462157
			vertex 1.4926521 1.72007 -1.4588391
		endloop
	endfacet
	facet normal -0.8526684884312002 0.10002855364686117 0.512787224189302
		outer loop
			vertex 1.479347 1.6236629 -1.462157
			vertex 1.5157681 1.671131 -1.4108551
			vertex 1.4926521 1.72007 -1.4588391
		endloop
	endfacet
	facet normal -0.8504687705807521 0.4846460551552832 0.2045020085213992
		outer loop
			vertex 1.443523 1.701731 -1.6176161
			vertex 1.451854 1.67365 -1.516421
			vertex 1.485813 1.748669 -1.552981
		endloop
	endfacet
	facet normal -0.8484767703917576 0.486084995777103 0.20930491390778788
		outer loop
			vertex 1.451854 1.67365 -1.516421
			vertex 1.4926521 1.72007 -1.4588391
			vertex 1.485813 1.748669 -1.552981
		endloop
	endfacet
	facet normal -0.6725041598809586 0.7227855893434004 -0.15911991321113636
		outer loop
			vertex 1.464535 1.697183 -1.72708
			vertex 1.443523 1.701731 -1.6176161
			vertex 1.500507 1.746009 -1.657325
		endloop
	endfacet
	facet normal -0.6570393926789851 0.7455600458695828 -0.11153230236561919
		outer loop
			vertex 1.443523 1.701731 -1.6176161
			vertex 1.485813 1.748669 -1.552981
			vertex 1.500507 1.746009 -1.657325
		endloop
	endfacet
	facet normal -0.2292389423436661 0.8293699694616848 -0.5095046232059933
		outer loop
			vertex 1.505062 1.661737 -1.803013
			vertex 1.464535 1.697183 -1.72708
			vertex 1.533087 1.713101 -1.732012
		endloop
	endfacet
	facet normal -0.23132315670296513 0.8490356026908475 -0.4750033079214976
		outer loop
			vertex 1.464535 1.697183 -1.72708
			vertex 1.500507 1.746009 -1.657325
			vertex 1.533087 1.713101 -1.732012
		endloop
	endfacet
	facet normal 0.5794402692381976 0.5415279181995518 -0.6090948105144426
		outer loop
			vertex 1.5403301 1.6089391 -1.816403
			vertex 1.505062 1.661737 -1.803013
			vertex 1.5616241 1.662515 -1.748513
		endloop
	endfacet
	facet normal 0.5845456325152931 0.5301200837807367 -0.6142304944233887
		outer loop
			vertex 1.505062 1.661737 -1.803013
			vertex 1.533087 1.713101 -1.732012
			vertex 1.5616241 1.662515 -1.748513
		endloop
	endfacet
endsolid exported
