solid exported
	facet normal 0.9877098865625685 0.09366851316674174 0.12512149946228315
		outer loop
			vertex -0.134325 6.9671688 0.767741
			vertex -0.129448 7.6711249 0.202246
			vertex -0.197232 7.2581911 1.046464
		endloop
	endfacet
	facet normal 0.9855314983122113 0.10698533728835644 0.13146027323790485
		outer loop
			vertex -0.129448 7.6711249 0.202246
			vertex -0.146603 7.764533 0.254836
			vertex -0.197232 7.2581911 1.046464
		endloop
	endfacet
	facet normal -0.22015257674669236 -0.7605648212829552 0.610797835276631
		outer loop
			vertex 0.392123 7.2903099 1.1036
			vertex 0.39715 6.9725471 0.709734
			vertex 0.65947 7.2543421 1.155174
		endloop
	endfacet
	facet normal -0.551897782144316 -0.5185653547819526 0.6530687642844764
		outer loop
			vertex 0.39715 6.9725471 0.709734
			vertex 0.701055 6.7841392 0.816955
			vertex 0.65947 7.2543421 1.155174
		endloop
	endfacet
	facet normal 0.5599035246499322 -0.5824422081062237 0.5892954414391217
		outer loop
			vertex 0.958011 6.963923 0.855084
			vertex 1.60163 6.875216 0.155891
			vertex 1.041451 7.248086 1.056664
		endloop
	endfacet
	facet normal 0.5707611888389366 -0.5701055950779595 0.5909410087106577
		outer loop
			vertex 1.60163 6.875216 0.155891
			vertex 1.677856 7.184536 0.380682
			vertex 1.041451 7.248086 1.056664
		endloop
	endfacet
	facet normal 0.9932857422479934 0.05756665313804649 0.10034697152050336
		outer loop
			vertex -0.197232 7.2581911 1.046464
			vertex -0.146603 7.764533 0.254836
			vertex -0.244978 7.7214689 1.253307
		endloop
	endfacet
	facet normal 0.9887479177956233 -0.11768889663173945 0.09234109954090353
		outer loop
			vertex -0.146603 7.764533 0.254836
			vertex -0.133842 7.874114 0.257858
			vertex -0.244978 7.7214689 1.253307
		endloop
	endfacet
	facet normal -0.28202337159997154 -0.2015045835523297 0.9380078468108818
		outer loop
			vertex 0.445949 7.7172379 1.2114969
			vertex 0.392123 7.2903099 1.1036
			vertex 0.611266 7.6701689 1.25109
		endloop
	endfacet
	facet normal -0.21516818718853023 -0.24311190205506564 0.945832572023807
		outer loop
			vertex 0.392123 7.2903099 1.1036
			vertex 0.65947 7.2543421 1.155174
			vertex 0.611266 7.6701689 1.25109
		endloop
	endfacet
	facet normal 0.45146484947753646 -0.28291230666053246 0.8462506227036068
		outer loop
			vertex 0.969024 7.628655 1.222532
			vertex 1.041451 7.248086 1.056664
			vertex 1.548682 7.4596539 0.856792
		endloop
	endfacet
	facet normal 0.49587233066328656 -0.686815385763037 0.5314087481042543
		outer loop
			vertex 1.041451 7.248086 1.056664
			vertex 1.677856 7.184536 0.380682
			vertex 1.548682 7.4596539 0.856792
		endloop
	endfacet
	facet normal 0.9803261967456096 0.1467919030576077 0.13195713383904037
		outer loop
			vertex -0.244978 7.7214689 1.253307
			vertex -0.133842 7.874114 0.257858
			vertex -0.296478 8.1386814 1.171791
		endloop
	endfacet
	facet normal 0.9657784945922749 -0.14625412846270594 0.21419997500161753
		outer loop
			vertex -0.133842 7.874114 0.257858
			vertex -0.098218 7.9429789 0.144258
			vertex -0.296478 8.1386814 1.171791
		endloop
	endfacet
	facet normal -0.12850352212611937 0.1499060495149766 0.9803137360661613
		outer loop
			vertex 0.460145 8.1257668 1.150887
			vertex 0.445949 7.7172379 1.2114969
			vertex 0.605267 8.1454258 1.166904
		endloop
	endfacet
	facet normal -0.18373119450739026 0.16920415936348046 0.9683040847889601
		outer loop
			vertex 0.445949 7.7172379 1.2114969
			vertex 0.611266 7.6701689 1.25109
			vertex 0.605267 8.1454258 1.166904
		endloop
	endfacet
	facet normal 0.4430839193123501 0.13902408531482208 0.8856347690494001
		outer loop
			vertex 0.933548 8.1449013 1.159242
			vertex 0.969024 7.628655 1.222532
			vertex 1.516313 7.887176 0.908141
		endloop
	endfacet
	facet normal 0.5193458802068623 -0.06303943150747944 0.8522358164190081
		outer loop
			vertex 0.969024 7.628655 1.222532
			vertex 1.548682 7.4596539 0.856792
			vertex 1.516313 7.887176 0.908141
		endloop
	endfacet
	facet normal 0.968653150327586 0.1987350679934403 0.14904847235072854
		outer loop
			vertex -0.296478 8.1386814 1.171791
			vertex -0.098218 7.9429789 0.144258
			vertex -0.295609 8.3696346 0.8582
		endloop
	endfacet
	facet normal -0.18933641203476553 0.6964950945028305 0.6921317117509462
		outer loop
			vertex 0.609064 8.4400501 0.871461
			vertex 0.451507 8.3513517 0.917618
			vertex 0.605267 8.1454258 1.166904
		endloop
	endfacet
	facet normal -0.17145631533239225 0.7050221643295546 0.6881471352383224
		outer loop
			vertex 0.451507 8.3513517 0.917618
			vertex 0.460145 8.1257668 1.150887
			vertex 0.605267 8.1454258 1.166904
		endloop
	endfacet
	facet normal 0.3211732799840566 0.6527463911646318 0.6861267179215748
		outer loop
			vertex 1.040772 8.5744877 0.700364
			vertex 0.933548 8.1449013 1.159242
			vertex 1.364406 8.4349766 0.681596
		endloop
	endfacet
	facet normal 0.5131514201758659 0.4456534266704997 0.7335316239047459
		outer loop
			vertex 0.933548 8.1449013 1.159242
			vertex 1.516313 7.887176 0.908141
			vertex 1.364406 8.4349766 0.681596
		endloop
	endfacet
	facet normal -0.12804007353752614 0.9573062443401469 0.2591727109783511
		outer loop
			vertex -1.17398 8.4559641 0.789933
			vertex -0.862316 8.4949398 0.799941
			vertex -1.51344 8.573843 0.186819
		endloop
	endfacet
	facet normal -0.12073978276009571 0.9602193844322799 0.2517948343781866
		outer loop
			vertex -0.862316 8.4949398 0.799941
			vertex -1.029631 8.5891705 0.360362
			vertex -1.51344 8.573843 0.186819
		endloop
	endfacet
	facet normal 0.1955305002891359 0.9715222184538183 0.13383722392238953
		outer loop
			vertex -0.862316 8.4949398 0.799941
			vertex -0.524515 8.4232244 0.827009
			vertex -1.029631 8.5891705 0.360362
		endloop
	endfacet
	facet normal 0.18444984649865834 0.9719403703963252 0.14598003466390796
		outer loop
			vertex -0.524515 8.4232244 0.827009
			vertex -0.570865 8.4962397 0.399435
			vertex -1.029631 8.5891705 0.360362
		endloop
	endfacet
	facet normal 0.88114144326191 0.4713197845976146 -0.038044942018304745
		outer loop
			vertex -0.295609 8.3696346 0.8582
			vertex -0.098218 7.9429789 0.144258
			vertex -0.372216 8.478056 0.427119
		endloop
	endfacet
	facet normal 0.8864414227411791 0.462552743945223 -0.016326760773012684
		outer loop
			vertex -0.098218 7.9429789 0.144258
			vertex -0.120921 7.9768429 -0.128974
			vertex -0.372216 8.478056 0.427119
		endloop
	endfacet
	facet normal -0.43047821040308454 0.8765980173849931 0.2150916694920039
		outer loop
			vertex 0.451507 8.3513517 0.917618
			vertex 0.609064 8.4400501 0.871461
			vertex 0.534696 8.4963198 0.493298
		endloop
	endfacet
	facet normal -0.4392147202816413 0.8719978775857674 0.21612526685660066
		outer loop
			vertex 0.609064 8.4400501 0.871461
			vertex 0.68522 8.6055851 0.358345
			vertex 0.534696 8.4963198 0.493298
		endloop
	endfacet
	facet normal 0.3924604528627919 0.8704429530137597 0.29715965151315205
		outer loop
			vertex 1.040772 8.5744877 0.700364
			vertex 1.364406 8.4349766 0.681596
			vertex 1.135125 8.7501383 0.061234
		endloop
	endfacet
	facet normal 0.3515682286637264 0.8806861877435261 0.31747695871043063
		outer loop
			vertex 1.364406 8.4349766 0.681596
			vertex 1.68612 8.5523958 -0.000387
			vertex 1.135125 8.7501383 0.061234
		endloop
	endfacet
	facet normal -0.031688753860496924 0.9994977831321209 0.00006627778438687769
		outer loop
			vertex -1.51344 8.573843 0.186819
			vertex -1.029631 8.5891705 0.360362
			vertex -1.89408 8.561841 -0.809516
		endloop
	endfacet
	facet normal -0.18483644991983597 0.9761611428831176 0.11377569998096183
		outer loop
			vertex -1.029631 8.5891705 0.360362
			vertex -1.376851 8.6446867 -0.680033
			vertex -1.89408 8.561841 -0.809516
		endloop
	endfacet
	facet normal 0.19968906790705687 0.9797540319694709 -0.014363599756885776
		outer loop
			vertex -1.029631 8.5891705 0.360362
			vertex -0.570865 8.4962397 0.399435
			vertex -1.376851 8.6446867 -0.680033
		endloop
	endfacet
	facet normal 0.166223040532286 0.9860212874057286 0.011485711947980136
		outer loop
			vertex -0.570865 8.4962397 0.399435
			vertex -0.777192 8.5431976 -0.645793
			vertex -1.376851 8.6446867 -0.680033
		endloop
	endfacet
	facet normal 0.8854291674460213 0.46440775248855876 -0.01845613351629208
		outer loop
			vertex -0.372216 8.478056 0.427119
			vertex -0.120921 7.9768429 -0.128974
			vertex -0.390715 8.47118 -0.633386
		endloop
	endfacet
	facet normal -0.5915124702543143 0.8062657662545424 -0.006965034071325277
		outer loop
			vertex 0.534696 8.4963198 0.493298
			vertex 0.68522 8.6055851 0.358345
			vertex 0.488306 8.4516649 -0.736194
		endloop
	endfacet
	facet normal -0.4516887978453958 0.8910875276721419 -0.04404824546030182
		outer loop
			vertex 0.68522 8.6055851 0.358345
			vertex 0.833256 8.6252317 -0.76223
			vertex 0.488306 8.4516649 -0.736194
		endloop
	endfacet
	facet normal 0.34711466417841325 0.9303222559975127 0.11837191350994578
		outer loop
			vertex 1.135125 8.7501383 0.061234
			vertex 1.68612 8.5523958 -0.000387
			vertex 1.360588 8.7818956 -0.849506
		endloop
	endfacet
	facet normal 0.4376515167190629 0.8960610872960443 0.07440213536811162
		outer loop
			vertex 1.68612 8.5523958 -0.000387
			vertex 1.8966171 8.5037479 -0.652692
			vertex 1.360588 8.7818956 -0.849506
		endloop
	endfacet
	facet normal -0.09791022326475857 0.9685823989110143 -0.22860823410373904
		outer loop
			vertex -1.89408 8.561841 -0.809516
			vertex -1.376851 8.6446867 -0.680033
			vertex -2.090174 8.4036026 -1.3959661
		endloop
	endfacet
	facet normal -0.3219588653870706 0.9467515982087674 0.0019749146348716036
		outer loop
			vertex -1.376851 8.6446867 -0.680033
			vertex -1.412972 8.6337032 -1.303265
			vertex -2.090174 8.4036026 -1.3959661
		endloop
	endfacet
	facet normal 0.16831551034180306 0.9853600164354142 -0.027120600818915985
		outer loop
			vertex -1.376851 8.6446867 -0.680033
			vertex -0.777192 8.5431976 -0.645793
			vertex -1.412972 8.6337032 -1.303265
		endloop
	endfacet
	facet normal 0.24526310478294805 0.9638083598353844 -0.10449619583341212
		outer loop
			vertex -0.777192 8.5431976 -0.645793
			vertex -0.815131 8.4890633 -1.234141
			vertex -1.412972 8.6337032 -1.303265
		endloop
	endfacet
	facet normal 0.8815328010826984 0.4720390139326671 -0.008893252541516058
		outer loop
			vertex -0.390715 8.47118 -0.633386
			vertex -0.120921 7.9768429 -0.128974
			vertex -0.332762 8.3519754 -1.216047
		endloop
	endfacet
	facet normal 0.942798281086449 0.3256380692789084 -0.07135298884239072
		outer loop
			vertex -0.120921 7.9768429 -0.128974
			vertex -0.132467 7.984695 -0.245698
			vertex -0.332762 8.3519754 -1.216047
		endloop
	endfacet
	facet normal -0.453164624473291 0.8862811792882473 -0.09564253429000658
		outer loop
			vertex 0.488306 8.4516649 -0.736194
			vertex 0.833256 8.6252317 -0.76223
			vertex 0.479246 8.386672 -1.29553
		endloop
	endfacet
	facet normal -0.42842895504978606 0.8960429197571784 -0.11642901883971783
		outer loop
			vertex 0.833256 8.6252317 -0.76223
			vertex 0.906553 8.5866623 -1.328776
			vertex 0.479246 8.386672 -1.29553
		endloop
	endfacet
	facet normal 0.4674046230262918 0.8837155262768385 -0.024078766390757098
		outer loop
			vertex 1.360588 8.7818956 -0.849506
			vertex 1.8966171 8.5037479 -0.652692
			vertex 1.484851 8.7001781 -1.436493
		endloop
	endfacet
	facet normal 0.3926091043162007 0.9193881885152592 0.02415471023756649
		outer loop
			vertex 1.8966171 8.5037479 -0.652692
			vertex 2.174741 8.4054108 -1.430346
			vertex 1.484851 8.7001781 -1.436493
		endloop
	endfacet
	facet normal -0.33915657482159267 0.7860875320800899 -0.5167583668055307
		outer loop
			vertex -1.9600821 8.166234 -2.3075171
			vertex -1.379572 8.4001646 -2.3326621
			vertex -1.957267 7.9306741 -2.667696
		endloop
	endfacet
	facet normal -0.05539408511524218 0.6242491525691666 -0.7792589369721229
		outer loop
			vertex -1.379572 8.4001646 -2.3326621
			vertex -1.080085 7.987114 -2.6848381
			vertex -1.957267 7.9306741 -2.667696
		endloop
	endfacet
	facet normal 0.20921059384095245 0.7178491429313651 -0.6640207341773454
		outer loop
			vertex -1.379572 8.4001646 -2.3326621
			vertex -0.724329 8.3197689 -2.21313
			vertex -1.080085 7.987114 -2.6848381
		endloop
	endfacet
	facet normal 0.451293758075 0.5326373626573673 -0.7159828097265658
		outer loop
			vertex -0.724329 8.3197689 -2.21313
			vertex -0.607458 7.9329739 -2.427211
			vertex -1.080085 7.987114 -2.6848381
		endloop
	endfacet
	facet normal 0.9773512225418347 0.20198658647037054 -0.06313482938939997
		outer loop
			vertex -0.297284 8.1231041 -2.0945201
			vertex -0.138431 7.8929052 -0.371888
			vertex -0.248283 7.866353 -2.157387
		endloop
	endfacet
	facet normal -0.29243102459416936 -0.04278692499936281 -0.9553289354478401
		outer loop
			vertex 0.34251 8.1041164 -2.1397159
			vertex 0.802683 8.3402042 -2.291151
			vertex 0.286514 7.8380108 -2.110657
		endloop
	endfacet
	facet normal -0.649962661051183 0.4472091759269326 -0.6144530024387697
		outer loop
			vertex 0.802683 8.3402042 -2.291151
			vertex 0.665035 7.9113989 -2.4576399
			vertex 0.286514 7.8380108 -2.110657
		endloop
	endfacet
	facet normal 0.21812867321359689 0.5199348865609411 -0.8258859459144084
		outer loop
			vertex 1.4009711 8.4684734 -2.324048
			vertex 1.942777 8.1166878 -2.402415
			vertex 1.183526 7.9338622 -2.7180419
		endloop
	endfacet
	facet normal 0.10180275231794973 0.7348482225018176 -0.6705477533378287
		outer loop
			vertex 1.942777 8.1166878 -2.402415
			vertex 2.017633 7.9662061 -2.5559621
			vertex 1.183526 7.9338622 -2.7180419
		endloop
	endfacet
	facet normal -0.01531126211209442 -0.06507780476689681 -0.9977627195777844
		outer loop
			vertex -1.957267 7.9306741 -2.667696
			vertex -1.080085 7.987114 -2.6848381
			vertex -2.12234 7.6545038 -2.64715
		endloop
	endfacet
	facet normal -0.09749538801440352 0.1949216640965019 -0.9759611642794868
		outer loop
			vertex -1.080085 7.987114 -2.6848381
			vertex -1.477001 7.4015942 -2.7621291
			vertex -2.12234 7.6545038 -2.64715
		endloop
	endfacet
	facet normal 0.4526737161211063 -0.19191512270735037 -0.8707784404826127
		outer loop
			vertex -1.080085 7.987114 -2.6848381
			vertex -0.607458 7.9329739 -2.427211
			vertex -1.477001 7.4015942 -2.7621291
		endloop
	endfacet
	facet normal 0.29135302748147357 0.121302463930048 -0.9488936324066463
		outer loop
			vertex -0.607458 7.9329739 -2.427211
			vertex -0.554777 7.3744488 -2.482435
			vertex -1.477001 7.4015942 -2.7621291
		endloop
	endfacet
	facet normal 0.9921056644036144 0.10863143648766256 -0.06265430284417611
		outer loop
			vertex -0.248283 7.866353 -2.157387
			vertex -0.138431 7.8929052 -0.371888
			vertex -0.195763 7.3457789 -2.228337
		endloop
	endfacet
	facet normal 0.996195375500697 0.07031236015671777 -0.051487336697651494
		outer loop
			vertex -0.138431 7.8929052 -0.371888
			vertex -0.126965 7.744061 -0.353305
			vertex -0.195763 7.3457789 -2.228337
		endloop
	endfacet
	facet normal -0.6837268845245213 0.14750373880185447 -0.7146748872164644
		outer loop
			vertex 0.286514 7.8380108 -2.110657
			vertex 0.665035 7.9113989 -2.4576399
			vertex 0.268541 7.2957549 -2.20538
		endloop
	endfacet
	facet normal -0.613354206292809 0.07277243897652663 -0.7864482117395438
		outer loop
			vertex 0.665035 7.9113989 -2.4576399
			vertex 0.600641 7.376852 -2.456882
			vertex 0.268541 7.2957549 -2.20538
		endloop
	endfacet
	facet normal 0.1924508733903091 -0.05268487267269549 -0.979891302912098
		outer loop
			vertex 1.183526 7.9338622 -2.7180419
			vertex 2.017633 7.9662061 -2.5559621
			vertex 1.091289 7.4117451 -2.7080851
		endloop
	endfacet
	facet normal 0.040059313090502174 0.20157761794472465 -0.9786530107134234
		outer loop
			vertex 2.017633 7.9662061 -2.5559621
			vertex 2.045779 7.6510992 -2.619714
			vertex 1.091289 7.4117451 -2.7080851
		endloop
	endfacet
	facet normal -0.24727924318829295 -0.19994663970109317 -0.9480898254703857
		outer loop
			vertex -2.12234 7.6545038 -2.64715
			vertex -1.477001 7.4015942 -2.7621291
			vertex -2.20578 7.3756089 -2.56657
		endloop
	endfacet
	facet normal -0.23857391537857442 -0.2881985803900942 -0.9273748245246208
		outer loop
			vertex -1.477001 7.4015942 -2.7621291
			vertex -1.414027 6.9370308 -2.6339581
			vertex -2.20578 7.3756089 -2.56657
		endloop
	endfacet
	facet normal 0.277140056224049 -0.2204492637491332 -0.9351981134222825
		outer loop
			vertex -1.477001 7.4015942 -2.7621291
			vertex -0.554777 7.3744488 -2.482435
			vertex -1.414027 6.9370308 -2.6339581
		endloop
	endfacet
	facet normal 0.25350548717624827 -0.1679813837412161 -0.9526369836868184
		outer loop
			vertex -0.554777 7.3744488 -2.482435
			vertex -0.5325 7.0059309 -2.411525
			vertex -1.414027 6.9370308 -2.6339581
		endloop
	endfacet
	facet normal 0.9989074744230672 0.021871882541715966 -0.041297436915757255
		outer loop
			vertex -0.195763 7.3457789 -2.228337
			vertex -0.126965 7.744061 -0.353305
			vertex -0.184249 6.944201 -2.162518
		endloop
	endfacet
	facet normal -0.5982809825681171 -0.03287787949639589 -0.8006115855626553
		outer loop
			vertex 0.268541 7.2957549 -2.20538
			vertex 0.600641 7.376852 -2.456882
			vertex 0.264916 6.936552 -2.1879201
		endloop
	endfacet
	facet normal -0.3767362927087663 -0.2564732922183558 -0.8901074183123814
		outer loop
			vertex 0.600641 7.376852 -2.456882
			vertex 0.564416 7.0786862 -2.3556371
			vertex 0.264916 6.936552 -2.1879201
		endloop
	endfacet
	facet normal 0.13440305149773252 -0.17592414037427573 -0.9751853754962028
		outer loop
			vertex 1.091289 7.4117451 -2.7080851
			vertex 2.045779 7.6510992 -2.619714
			vertex 1.172714 6.9832282 -2.6195581
		endloop
	endfacet
	facet normal 0.17281945032989376 -0.22613957736967624 -0.9586419191412078
		outer loop
			vertex 2.045779 7.6510992 -2.619714
			vertex 2.0194819 7.3789001 -2.5602441
			vertex 1.172714 6.9832282 -2.6195581
		endloop
	endfacet
	facet normal -0.22620026908697868 -0.26429903076025063 -0.9375390448424913
		outer loop
			vertex -2.20578 7.3756089 -2.56657
			vertex -1.414027 6.9370308 -2.6339581
			vertex -1.9700249 6.7037191 -2.4340401
		endloop
	endfacet
	facet normal -0.05517037893358015 -0.5706137190509021 -0.8193632972736962
		outer loop
			vertex -1.414027 6.9370308 -2.6339581
			vertex -1.4644099 6.6331348 -2.4189291
			vertex -1.9700249 6.7037191 -2.4340401
		endloop
	endfacet
	facet normal 0.2409182383531344 -0.5868912776603358 -0.7729922578105431
		outer loop
			vertex -1.414027 6.9370308 -2.6339581
			vertex -0.5325 7.0059309 -2.411525
			vertex -1.4644099 6.6331348 -2.4189291
		endloop
	endfacet
	facet normal 0.2315312213983193 -0.5630214851459081 -0.7933474023288275
		outer loop
			vertex -0.5325 7.0059309 -2.411525
			vertex -0.542957 6.824955 -2.2861421
			vertex -1.4644099 6.6331348 -2.4189291
		endloop
	endfacet
	facet normal 0.9988954072589935 0.022171315706375656 -0.04142943539004299
		outer loop
			vertex -0.184249 6.944201 -2.162518
			vertex -0.126965 7.744061 -0.353305
			vertex -0.168892 6.6810322 -1.933086
		endloop
	endfacet
	facet normal 0.9890530518632897 -0.1332418607821823 0.0634087307491217
		outer loop
			vertex -0.126965 7.744061 -0.353305
			vertex -0.142707 7.6773949 -0.247847
			vertex -0.168892 6.6810322 -1.933086
		endloop
	endfacet
	facet normal -0.06682851761969263 -0.6991507554007719 -0.711844203780072
		outer loop
			vertex 0.264916 6.936552 -2.1879201
			vertex 0.564416 7.0786862 -2.3556371
			vertex 0.261655 6.7007289 -1.955996
		endloop
	endfacet
	facet normal -0.6196109945245869 -0.279287269474649 -0.7335399352275561
		outer loop
			vertex 0.564416 7.0786862 -2.3556371
			vertex 0.56421 6.7974148 -2.2483721
			vertex 0.261655 6.7007289 -1.955996
		endloop
	endfacet
	facet normal 0.28538946611285926 -0.4870141457665026 -0.8254514367636302
		outer loop
			vertex 1.172714 6.9832282 -2.6195581
			vertex 2.0194819 7.3789001 -2.5602441
			vertex 1.395866 6.7432761 -2.400835
		endloop
	endfacet
	facet normal 0.28289860831425223 -0.4850716268735749 -0.8274502367007233
		outer loop
			vertex 2.0194819 7.3789001 -2.5602441
			vertex 1.9187911 6.9184699 -2.324754
			vertex 1.395866 6.7432761 -2.400835
		endloop
	endfacet
	facet normal -0.06396031277685635 -0.995047420080632 0.07609014509360132
		outer loop
			vertex -2.136687 6.4930649 -1.473889
			vertex -1.5843771 6.4683442 -1.332903
			vertex -2.1048269 6.53687 -0.874259
		endloop
	endfacet
	facet normal -0.07574251067770355 -0.9951518927375452 0.06273581478804136
		outer loop
			vertex -1.5843771 6.4683442 -1.332903
			vertex -1.649224 6.4964051 -0.966076
			vertex -2.1048269 6.53687 -0.874259
		endloop
	endfacet
	facet normal 0.050132872977409294 -0.995120184420251 0.08498537289697002
		outer loop
			vertex -1.5843771 6.4683442 -1.332903
			vertex -0.511983 6.528265 -1.263877
			vertex -1.649224 6.4964051 -0.966076
		endloop
	endfacet
	facet normal 0.01031568274272178 -0.9976766341731697 -0.06734181698207432
		outer loop
			vertex -0.511983 6.528265 -1.263877
			vertex -0.505122 6.4938521 -0.752995
			vertex -1.649224 6.4964051 -0.966076
		endloop
	endfacet
	facet normal 0.9996253161475578 -0.014726804450906123 -0.023072679678795536
		outer loop
			vertex -0.176862 6.5365772 -1.221837
			vertex -0.134331 7.6247869 -0.07376
			vertex -0.164589 6.4818668 -0.655188
		endloop
	endfacet
	facet normal -0.10444422886004612 -0.9933130455304368 -0.04919955931590066
		outer loop
			vertex 0.32572 6.5067492 -1.193523
			vertex 0.610912 6.4786429 -1.231497
			vertex 0.344276 6.4725752 -0.54296
		endloop
	endfacet
	facet normal -0.014435993149305973 -0.9997920856099028 -0.01440096016221868
		outer loop
			vertex 0.610912 6.4786429 -1.231497
			vertex 0.707219 6.4690371 -0.661152
			vertex 0.344276 6.4725752 -0.54296
		endloop
	endfacet
	facet normal 0.19181869675749944 -0.9814289494689366 -0.0016747293973081057
		outer loop
			vertex 1.6026061 6.5291481 -1.406317
			vertex 2.15449 6.637157 -1.490755
			vertex 1.627555 6.5332799 -0.970069
		endloop
	endfacet
	facet normal 0.18574797744858265 -0.9825644860875666 -0.008044846377467317
		outer loop
			vertex 2.15449 6.637157 -1.490755
			vertex 2.1141291 6.62602 -1.062423
			vertex 1.627555 6.5332799 -0.970069
		endloop
	endfacet
	facet normal -0.06824959633493913 -0.9927580040300293 0.09886120591228087
		outer loop
			vertex -2.1048269 6.53687 -0.874259
			vertex -1.649224 6.4964051 -0.966076
			vertex -1.799136 6.6251912 0.223693
		endloop
	endfacet
	facet normal -0.17816529934029615 -0.9804361916647987 0.08367795519017521
		outer loop
			vertex -1.649224 6.4964051 -0.966076
			vertex -1.12029 6.4961681 0.157342
			vertex -1.799136 6.6251912 0.223693
		endloop
	endfacet
	facet normal -0.002402847556404606 -0.9999966896254239 0.0009203596114346683
		outer loop
			vertex -1.649224 6.4964051 -0.966076
			vertex -0.505122 6.4938521 -0.752995
			vertex -1.12029 6.4961681 0.157342
		endloop
	endfacet
	facet normal -0.1274039618190612 -0.9883231400994102 -0.08357990940919414
		outer loop
			vertex -0.505122 6.4938521 -0.752995
			vertex -0.437602 6.399261 0.262611
			vertex -1.12029 6.4961681 0.157342
		endloop
	endfacet
	facet normal 0.9993933969656768 -0.009399012721729189 -0.03353351549214599
		outer loop
			vertex -0.164589 6.4818668 -0.655188
			vertex -0.134331 7.6247869 -0.07376
			vertex -0.133205 6.4430308 0.291029
		endloop
	endfacet
	facet normal 0.9998629861126451 -0.0040051946719778225 -0.016061364124631352
		outer loop
			vertex -0.134331 7.6247869 -0.07376
			vertex -0.131779 7.6151018 0.087524
			vertex -0.133205 6.4430308 0.291029
		endloop
	endfacet
	facet normal -0.02535287859728372 -0.9985273402699999 -0.047962300613624
		outer loop
			vertex 0.344276 6.4725752 -0.54296
			vertex 0.707219 6.4690371 -0.661152
			vertex 0.434599 6.4308419 0.278141
		endloop
	endfacet
	facet normal -0.17786013221398075 -0.9797959298507499 -0.09146425103137289
		outer loop
			vertex 0.707219 6.4690371 -0.661152
			vertex 0.718622 6.3912592 0.149857
			vertex 0.434599 6.4308419 0.278141
		endloop
	endfacet
	facet normal 0.19387770758911377 -0.9803264079185996 0.037034692349275936
		outer loop
			vertex 1.627555 6.5332799 -0.970069
			vertex 2.1141291 6.62602 -1.062423
			vertex 1.1835819 6.480535 -0.04204
		endloop
	endfacet
	facet normal 0.294261295450475 -0.9463660768036543 0.1334224069452674
		outer loop
			vertex 2.1141291 6.62602 -1.062423
			vertex 1.928702 6.6407142 -0.54924
			vertex 1.1835819 6.480535 -0.04204
		endloop
	endfacet
	facet normal -0.0912636957242107 -0.7911721711313162 0.6047458420445055
		outer loop
			vertex -1.799136 6.6251912 0.223693
			vertex -1.12029 6.4961681 0.157342
			vertex -1.279935 6.905159 0.668321
		endloop
	endfacet
	facet normal -0.32490694104384876 -0.7852830692918085 0.5270350849280965
		outer loop
			vertex -1.12029 6.4961681 0.157342
			vertex -0.824436 6.8661709 0.891035
			vertex -1.279935 6.905159 0.668321
		endloop
	endfacet
	facet normal 0.9999949766366848 -0.0006790803081474997 0.00309605415509765
		outer loop
			vertex -0.133205 6.4430308 0.291029
			vertex -0.131779 7.6151018 0.087524
			vertex -0.134325 6.9671688 0.767741
		endloop
	endfacet
	facet normal 0.9997866563563801 -0.016695721025800234 -0.012161195301391302
		outer loop
			vertex -0.131779 7.6151018 0.087524
			vertex -0.129448 7.6711249 0.202246
			vertex -0.134325 6.9671688 0.767741
		endloop
	endfacet
	facet normal 0.26258025557280934 -0.5900997316229681 0.7634356005072197
		outer loop
			vertex 0.434599 6.4308419 0.278141
			vertex 0.718622 6.3912592 0.149857
			vertex 0.39715 6.9725471 0.709734
		endloop
	endfacet
	facet normal -0.5807157371500709 -0.7080853261700433 0.40172677716193317
		outer loop
			vertex 0.718622 6.3912592 0.149857
			vertex 0.701055 6.7841392 0.816955
			vertex 0.39715 6.9725471 0.709734
		endloop
	endfacet
	facet normal 0.4957680730289354 -0.7063530970818578 0.5052517392429678
		outer loop
			vertex 1.1835819 6.480535 -0.04204
			vertex 1.928702 6.6407142 -0.54924
			vertex 0.958011 6.963923 0.855084
		endloop
	endfacet
	facet normal 0.3682473346385224 -0.8175624681692063 0.4427025086586927
		outer loop
			vertex 1.928702 6.6407142 -0.54924
			vertex 1.60163 6.875216 0.155891
			vertex 0.958011 6.963923 0.855084
		endloop
	endfacet
	facet normal 0.914925335212812 -0.39642169569354313 0.0759043488159922
		outer loop
			vertex 2.1141291 6.62602 -1.062423
			vertex 2.15449 6.637157 -1.490755
			vertex 2.3057001 7.0710521 -1.047309
		endloop
	endfacet
	facet normal 0.9042724551488076 -0.4155068417707035 0.09821095305964372
		outer loop
			vertex 2.15449 6.637157 -1.490755
			vertex 2.3924251 7.1294088 -1.598932
			vertex 2.3057001 7.0710521 -1.047309
		endloop
	endfacet
	facet normal 0.8682812088683604 -0.3752355199399172 0.32447811467265203
		outer loop
			vertex 1.928702 6.6407142 -0.54924
			vertex 2.1141291 6.62602 -1.062423
			vertex 2.1041601 7.136611 -0.445285
		endloop
	endfacet
	facet normal 0.8627719339207153 -0.38261782044633863 0.3304968888138022
		outer loop
			vertex 2.1141291 6.62602 -1.062423
			vertex 2.3057001 7.0710521 -1.047309
			vertex 2.1041601 7.136611 -0.445285
		endloop
	endfacet
	facet normal 0.688401583780705 -0.5297208213900214 0.4954786683946124
		outer loop
			vertex 1.60163 6.875216 0.155891
			vertex 1.928702 6.6407142 -0.54924
			vertex 1.677856 7.184536 0.380682
		endloop
	endfacet
	facet normal 0.8127437955864001 -0.38012398456587065 0.44153513913795994
		outer loop
			vertex 1.928702 6.6407142 -0.54924
			vertex 2.1041601 7.136611 -0.445285
			vertex 1.677856 7.184536 0.380682
		endloop
	endfacet
	facet normal 0.9876787967252005 -0.041508177922745325 0.15088958103525177
		outer loop
			vertex 2.3057001 7.0710521 -1.047309
			vertex 2.3924251 7.1294088 -1.598932
			vertex 2.3436191 7.5133209 -1.173852
		endloop
	endfacet
	facet normal 0.9854395968982519 -0.05344046587274318 0.1614091616740358
		outer loop
			vertex 2.3924251 7.1294088 -1.598932
			vertex 2.4344561 7.5905771 -1.702854
			vertex 2.3436191 7.5133209 -1.173852
		endloop
	endfacet
	facet normal 0.9353858108157619 -0.13308139761445215 0.32763199864104214
		outer loop
			vertex 2.1041601 7.136611 -0.445285
			vertex 2.3057001 7.0710521 -1.047309
			vertex 2.157284 7.4016562 -0.489294
		endloop
	endfacet
	facet normal 0.9651909206048819 -0.00795335840691423 0.26142538299092577
		outer loop
			vertex 2.3057001 7.0710521 -1.047309
			vertex 2.3436191 7.5133209 -1.173852
			vertex 2.157284 7.4016562 -0.489294
		endloop
	endfacet
	facet normal 0.8118695931547958 -0.3823588762625587 0.44121361431159406
		outer loop
			vertex 1.677856 7.184536 0.380682
			vertex 2.1041601 7.136611 -0.445285
			vertex 1.548682 7.4596539 0.856792
		endloop
	endfacet
	facet normal 0.9035853604531092 -0.11246941745832761 0.4133813330466302
		outer loop
			vertex 2.1041601 7.136611 -0.445285
			vertex 2.157284 7.4016562 -0.489294
			vertex 1.548682 7.4596539 0.856792
		endloop
	endfacet
	facet normal 0.9655219613134141 0.17629469320547864 0.19153987409697362
		outer loop
			vertex 2.3436191 7.5133209 -1.173852
			vertex 2.4344561 7.5905771 -1.702854
			vertex 2.23401 7.9719081 -1.043417
		endloop
	endfacet
	facet normal 0.9611739715097168 0.22213336924766308 0.16371121757203935
		outer loop
			vertex 2.4344561 7.5905771 -1.702854
			vertex 2.327698 7.999578 -1.631018
			vertex 2.23401 7.9719081 -1.043417
		endloop
	endfacet
	facet normal 0.9528172607130849 0.119812253972377 0.27889835332119134
		outer loop
			vertex 2.157284 7.4016562 -0.489294
			vertex 2.3436191 7.5133209 -1.173852
			vertex 2.076328 7.917593 -0.434361
		endloop
	endfacet
	facet normal 0.9531615994776093 0.15373212375545214 0.260479172693181
		outer loop
			vertex 2.3436191 7.5133209 -1.173852
			vertex 2.23401 7.9719081 -1.043417
			vertex 2.076328 7.917593 -0.434361
		endloop
	endfacet
	facet normal 0.9113364388703261 0.019612088613196438 0.4111949187032603
		outer loop
			vertex 1.548682 7.4596539 0.856792
			vertex 2.157284 7.4016562 -0.489294
			vertex 1.516313 7.887176 0.908141
		endloop
	endfacet
	facet normal 0.9171878523087037 0.1029321376103903 0.38493040750803653
		outer loop
			vertex 2.157284 7.4016562 -0.489294
			vertex 2.076328 7.917593 -0.434361
			vertex 1.516313 7.887176 0.908141
		endloop
	endfacet
	facet normal 0.8826984861012473 0.44131020708041424 0.16151991753715111
		outer loop
			vertex 2.23401 7.9719081 -1.043417
			vertex 2.327698 7.999578 -1.631018
			vertex 1.8966171 8.5037479 -0.652692
		endloop
	endfacet
	facet normal 0.9305351010555309 0.1985716820120415 0.30769093715363394
		outer loop
			vertex 2.327698 7.999578 -1.631018
			vertex 2.174741 8.4054108 -1.430346
			vertex 1.8966171 8.5037479 -0.652692
		endloop
	endfacet
	facet normal 0.8917106065564626 0.36787496009724296 0.26366685018818276
		outer loop
			vertex 2.076328 7.917593 -0.434361
			vertex 2.23401 7.9719081 -1.043417
			vertex 1.68612 8.5523958 -0.000387
		endloop
	endfacet
	facet normal 0.8903151836176939 0.374238628387376 0.2593922181610845
		outer loop
			vertex 2.23401 7.9719081 -1.043417
			vertex 1.8966171 8.5037479 -0.652692
			vertex 1.68612 8.5523958 -0.000387
		endloop
	endfacet
	facet normal 0.8485322126317529 0.38529215996485916 0.36268862071462254
		outer loop
			vertex 1.516313 7.887176 0.908141
			vertex 2.076328 7.917593 -0.434361
			vertex 1.364406 8.4349766 0.681596
		endloop
	endfacet
	facet normal 0.8653652778565377 0.22622984231718565 0.4471722199839997
		outer loop
			vertex 2.076328 7.917593 -0.434361
			vertex 1.68612 8.5523958 -0.000387
			vertex 1.364406 8.4349766 0.681596
		endloop
	endfacet
	facet normal -0.9064944650577258 -0.41486137523908323 0.07847180483743496
		outer loop
			vertex -2.136687 6.4930649 -1.473889
			vertex -2.1048269 6.53687 -0.874259
			vertex -2.493901 7.2203908 -1.7551759
		endloop
	endfacet
	facet normal -0.5791500300558546 -0.7478596065415677 -0.324486134664941
		outer loop
			vertex -2.1048269 6.53687 -0.874259
			vertex -2.3785441 6.8085322 -1.0118361
			vertex -2.493901 7.2203908 -1.7551759
		endloop
	endfacet
	facet normal -0.7427611842500876 -0.618456614829037 0.2565487063807097
		outer loop
			vertex -2.1048269 6.53687 -0.874259
			vertex -1.799136 6.6251912 0.223693
			vertex -2.3785441 6.8085322 -1.0118361
		endloop
	endfacet
	facet normal -0.8979867650218066 -0.20138944504488854 0.39123146763799926
		outer loop
			vertex -1.799136 6.6251912 0.223693
			vertex -1.9305919 7.0697351 0.150797
			vertex -2.3785441 6.8085322 -1.0118361
		endloop
	endfacet
	facet normal -0.6305715151244259 -0.05957205320750736 0.773841543722181
		outer loop
			vertex -1.799136 6.6251912 0.223693
			vertex -1.279935 6.905159 0.668321
			vertex -1.9305919 7.0697351 0.150797
		endloop
	endfacet
	facet normal -0.6378958692193359 -0.32184895898256843 0.6996442722089169
		outer loop
			vertex -1.279935 6.905159 0.668321
			vertex -1.1700619 7.228168 0.917087
			vertex -1.9305919 7.0697351 0.150797
		endloop
	endfacet
	facet normal -0.9876408105533818 -0.13599274522939733 0.07792048879743739
		outer loop
			vertex -2.493901 7.2203908 -1.7551759
			vertex -2.3785441 6.8085322 -1.0118361
			vertex -2.5414181 7.5513272 -1.779879
		endloop
	endfacet
	facet normal -0.9636395083373146 0.05832659981257905 0.2607621631405178
		outer loop
			vertex -2.3785441 6.8085322 -1.0118361
			vertex -2.362458 7.221415 -1.0447429
			vertex -2.5414181 7.5513272 -1.779879
		endloop
	endfacet
	facet normal -0.9359615959986597 0.06405970926315917 0.3462257131767681
		outer loop
			vertex -2.3785441 6.8085322 -1.0118361
			vertex -1.9305919 7.0697351 0.150797
			vertex -2.362458 7.221415 -1.0447429
		endloop
	endfacet
	facet normal -0.9400715540885695 0.009864374896273332 0.3408345160065331
		outer loop
			vertex -1.9305919 7.0697351 0.150797
			vertex -1.952742 7.4653831 0.078253
			vertex -2.362458 7.221415 -1.0447429
		endloop
	endfacet
	facet normal -0.7160102067402256 0.08691683218922565 0.6926578145996832
		outer loop
			vertex -1.9305919 7.0697351 0.150797
			vertex -1.1700619 7.228168 0.917087
			vertex -1.952742 7.4653831 0.078253
		endloop
	endfacet
	facet normal -0.7440027173367407 -0.1670127486257299 0.6469673085960563
		outer loop
			vertex -1.1700619 7.228168 0.917087
			vertex -1.096674 7.6297379 1.1051461
			vertex -1.952742 7.4653831 0.078253
		endloop
	endfacet
	facet normal -0.9145917457682058 0.23583787986403512 0.3284850574895342
		outer loop
			vertex -2.5414181 7.5513272 -1.779879
			vertex -2.362458 7.221415 -1.0447429
			vertex -2.374212 8.0016127 -1.637617
		endloop
	endfacet
	facet normal -0.9880818565473093 0.08341935922964233 0.1293655876488746
		outer loop
			vertex -2.362458 7.221415 -1.0447429
			vertex -2.301755 8.0107384 -1.090082
			vertex -2.374212 8.0016127 -1.637617
		endloop
	endfacet
	facet normal -0.9417336396308487 0.09102387612401704 0.32380921228864795
		outer loop
			vertex -2.362458 7.221415 -1.0447429
			vertex -1.952742 7.4653831 0.078253
			vertex -2.301755 8.0107384 -1.090082
		endloop
	endfacet
	facet normal -0.9417984590557644 0.09074572807061287 0.32369874166749857
		outer loop
			vertex -1.952742 7.4653831 0.078253
			vertex -1.858562 8.0199518 0.196801
			vertex -2.301755 8.0107384 -1.090082
		endloop
	endfacet
	facet normal -0.7675605992429776 -0.0066601472994085335 0.6409417827913169
		outer loop
			vertex -1.952742 7.4653831 0.078253
			vertex -1.096674 7.6297379 1.1051461
			vertex -1.858562 8.0199518 0.196801
		endloop
	endfacet
	facet normal -0.7788668456648808 -0.06982447702676137 0.6232904452436104
		outer loop
			vertex -1.096674 7.6297379 1.1051461
			vertex -1.2309721 8.122817 0.992564
			vertex -1.858562 8.0199518 0.196801
		endloop
	endfacet
	facet normal -0.8403675637635788 0.5322682196365592 0.10233718844581824
		outer loop
			vertex -2.374212 8.0016127 -1.637617
			vertex -2.301755 8.0107384 -1.090082
			vertex -2.090174 8.4036026 -1.3959661
		endloop
	endfacet
	facet normal -0.8275265149166974 0.5463371255292588 0.12928887182682022
		outer loop
			vertex -2.301755 8.0107384 -1.090082
			vertex -1.89408 8.561841 -0.809516
			vertex -2.090174 8.4036026 -1.3959661
		endloop
	endfacet
	facet normal -0.8342818136247506 0.47260309817914237 0.28393690680584815
		outer loop
			vertex -2.301755 8.0107384 -1.090082
			vertex -1.858562 8.0199518 0.196801
			vertex -1.89408 8.561841 -0.809516
		endloop
	endfacet
	facet normal -0.8066335068703434 0.5080456170261161 0.30204641466934296
		outer loop
			vertex -1.858562 8.0199518 0.196801
			vertex -1.51344 8.573843 0.186819
			vertex -1.89408 8.561841 -0.809516
		endloop
	endfacet
	facet normal -0.7248335371311903 0.46086225501323863 0.5120764838908346
		outer loop
			vertex -1.858562 8.0199518 0.196801
			vertex -1.2309721 8.122817 0.992564
			vertex -1.51344 8.573843 0.186819
		endloop
	endfacet
	facet normal -0.7458776961650059 0.4346093848402586 0.5047585016345493
		outer loop
			vertex -1.2309721 8.122817 0.992564
			vertex -1.17398 8.4559641 0.789933
			vertex -1.51344 8.573843 0.186819
		endloop
	endfacet
	facet normal -0.24596946658764834 0.8581418487305901 -0.45065684169202713
		outer loop
			vertex -2.0895259 8.2962561 -1.989278
			vertex -1.413045 8.5791597 -1.819797
			vertex -1.9600821 8.166234 -2.3075171
		endloop
	endfacet
	facet normal -0.3652866318782539 0.8712297853278149 -0.3279090388029748
		outer loop
			vertex -1.413045 8.5791597 -1.819797
			vertex -1.379572 8.4001646 -2.3326621
			vertex -1.9600821 8.166234 -2.3075171
		endloop
	endfacet
	facet normal -0.501985106066323 0.7220190250918834 -0.4761296889429902
		outer loop
			vertex -1.957267 7.9306741 -2.667696
			vertex -2.3654361 7.986567 -2.1526041
			vertex -1.9600821 8.166234 -2.3075171
		endloop
	endfacet
	facet normal -0.5031143748896242 0.7089157634061731 -0.4942816668395315
		outer loop
			vertex -2.3654361 7.986567 -2.1526041
			vertex -2.0895259 8.2962561 -1.989278
			vertex -1.9600821 8.166234 -2.3075171
		endloop
	endfacet
	facet normal -0.6213270867267171 0.3181076891764458 -0.716072726324996
		outer loop
			vertex -2.12234 7.6545038 -2.64715
			vertex -2.460175 7.6990519 -2.3342249
			vertex -1.957267 7.9306741 -2.667696
		endloop
	endfacet
	facet normal -0.6220066967020558 0.5543067138988432 -0.5530386389615675
		outer loop
			vertex -2.460175 7.6990519 -2.3342249
			vertex -2.3654361 7.986567 -2.1526041
			vertex -1.957267 7.9306741 -2.667696
		endloop
	endfacet
	facet normal -0.65110148197816 -0.02438193208562955 -0.7585989596312506
		outer loop
			vertex -2.20578 7.3756089 -2.56657
			vertex -2.4776299 7.342546 -2.33218
			vertex -2.12234 7.6545038 -2.64715
		endloop
	endfacet
	facet normal -0.6772012305248014 0.028939243100146447 -0.7352285451371469
		outer loop
			vertex -2.4776299 7.342546 -2.33218
			vertex -2.460175 7.6990519 -2.3342249
			vertex -2.12234 7.6545038 -2.64715
		endloop
	endfacet
	facet normal -0.8137754638064817 -0.37338856439591356 -0.4453655515247047
		outer loop
			vertex -1.9700249 6.7037191 -2.4340401
			vertex -2.0729721 6.5880718 -2.148977
			vertex -2.20578 7.3756089 -2.56657
		endloop
	endfacet
	facet normal -0.5460344170255845 -0.46248291341232 -0.6985384529323942
		outer loop
			vertex -2.0729721 6.5880718 -2.148977
			vertex -2.4776299 7.342546 -2.33218
			vertex -2.20578 7.3756089 -2.56657
		endloop
	endfacet
	facet normal -0.11420179757071541 -0.9055362858217814 -0.40860981937749663
		outer loop
			vertex -1.9700249 6.7037191 -2.4340401
			vertex -1.4644099 6.6331348 -2.4189291
			vertex -2.0729721 6.5880718 -2.148977
		endloop
	endfacet
	facet normal -0.050766907316550446 -0.9601807907715356 -0.27472817502917574
		outer loop
			vertex -1.4644099 6.6331348 -2.4189291
			vertex -1.4829 6.49405 -1.929408
			vertex -2.0729721 6.5880718 -2.148977
		endloop
	endfacet
	facet normal 0.23237267140091433 -0.9378682090928625 -0.25769393465688994
		outer loop
			vertex -1.4644099 6.6331348 -2.4189291
			vertex -0.542957 6.824955 -2.2861421
			vertex -1.4829 6.49405 -1.929408
		endloop
	endfacet
	facet normal 0.17143782598735285 -0.9054846113455891 -0.3882095960136194
		outer loop
			vertex -0.542957 6.824955 -2.2861421
			vertex -0.532266 6.6321769 -1.831773
			vertex -1.4829 6.49405 -1.929408
		endloop
	endfacet
	facet normal 0.9998949903056312 -0.011610908832535132 -0.008671514157525654
		outer loop
			vertex -0.168892 6.6810322 -1.933086
			vertex -0.142707 7.6773949 -0.247847
			vertex -0.167696 6.6087322 -1.69837
		endloop
	endfacet
	facet normal -0.22295800295421167 -0.8330886687537966 -0.5062143803890767
		outer loop
			vertex 0.261655 6.7007289 -1.955996
			vertex 0.56421 6.7974148 -2.2483721
			vertex 0.287965 6.5362091 -1.69683
		endloop
	endfacet
	facet normal 0.025334603735719847 -0.9083291973606457 -0.41748799632530703
		outer loop
			vertex 0.56421 6.7974148 -2.2483721
			vertex 0.557852 6.5806861 -1.777221
			vertex 0.287965 6.5362091 -1.69683
		endloop
	endfacet
	facet normal 0.34285799842204906 -0.8465221372416585 -0.407245213695436
		outer loop
			vertex 1.395866 6.7432761 -2.400835
			vertex 1.9187911 6.9184699 -2.324754
			vertex 1.4883209 6.6475129 -2.123939
		endloop
	endfacet
	facet normal 0.2348509010589091 -0.7913964470150959 -0.5643905721428212
		outer loop
			vertex 1.9187911 6.9184699 -2.324754
			vertex 2.0123689 6.765728 -2.0716381
			vertex 1.4883209 6.6475129 -2.123939
		endloop
	endfacet
	facet normal 0.639254331038528 -0.4837534321931935 -0.5977763102447182
		outer loop
			vertex 2.3212979 7.3773642 -2.236243
			vertex 2.0123689 6.765728 -2.0716381
			vertex 2.0194819 7.3789001 -2.5602441
		endloop
	endfacet
	facet normal 0.7304113450962847 -0.43080688260306677 -0.5300044309781415
		outer loop
			vertex 2.0123689 6.765728 -2.0716381
			vertex 1.9187911 6.9184699 -2.324754
			vertex 2.0194819 7.3789001 -2.5602441
		endloop
	endfacet
	facet normal 0.6297957465901058 -0.342653620339027 -0.6970981380304851
		outer loop
			vertex 2.3895531 7.6518192 -2.309484
			vertex 2.3212979 7.3773642 -2.236243
			vertex 2.045779 7.6510992 -2.619714
		endloop
	endfacet
	facet normal 0.7141647863106958 -0.21456408683449538 -0.6662814049894213
		outer loop
			vertex 2.3212979 7.3773642 -2.236243
			vertex 2.0194819 7.3789001 -2.5602441
			vertex 2.045779 7.6510992 -2.619714
		endloop
	endfacet
	facet normal 0.7190485551733617 0.4116691849118795 -0.5599086153088645
		outer loop
			vertex 2.3127921 7.9773622 -2.168709
			vertex 2.3895531 7.6518192 -2.309484
			vertex 2.017633 7.9662061 -2.5559621
		endloop
	endfacet
	facet normal 0.6554111218141572 0.20557864908374218 -0.7267555850787882
		outer loop
			vertex 2.3895531 7.6518192 -2.309484
			vertex 2.045779 7.6510992 -2.619714
			vertex 2.017633 7.9662061 -2.5559621
		endloop
	endfacet
	facet normal 0.5904992267752577 0.48016554635213393 -0.6486537684112993
		outer loop
			vertex 2.202651 8.2926254 -2.0356021
			vertex 2.3127921 7.9773622 -2.168709
			vertex 1.942777 8.1166878 -2.402415
		endloop
	endfacet
	facet normal 0.5450537289187347 0.716077322518543 -0.43606157909916493
		outer loop
			vertex 2.3127921 7.9773622 -2.168709
			vertex 2.017633 7.9662061 -2.5559621
			vertex 1.942777 8.1166878 -2.402415
		endloop
	endfacet
	facet normal 0.3358743786647357 0.8434243293685607 -0.4193134893916144
		outer loop
			vertex 1.542033 8.6106625 -1.925051
			vertex 2.202651 8.2926254 -2.0356021
			vertex 1.4009711 8.4684734 -2.324048
		endloop
	endfacet
	facet normal 0.37165598701037755 0.7065608504769784 -0.6021989637093301
		outer loop
			vertex 2.202651 8.2926254 -2.0356021
			vertex 1.942777 8.1166878 -2.402415
			vertex 1.4009711 8.4684734 -2.324048
		endloop
	endfacet
	facet normal -0.4658191030778774 0.8518206771344967 -0.2396123895249362
		outer loop
			vertex 0.401418 8.2559195 -1.714577
			vertex 0.92879 8.5327253 -1.7557729
			vertex 0.34251 8.1041164 -2.1397159
		endloop
	endfacet
	facet normal -0.4965673102465569 0.8474442147699599 -0.1877743572680414
		outer loop
			vertex 0.92879 8.5327253 -1.7557729
			vertex 0.802683 8.3402042 -2.291151
			vertex 0.34251 8.1041164 -2.1397159
		endloop
	endfacet
	facet normal 0.9226410370830502 0.3819085614671349 -0.053659736939511954
		outer loop
			vertex -0.32177 8.2481537 -1.625533
			vertex -0.132467 7.984695 -0.245698
			vertex -0.297284 8.1231041 -2.0945201
		endloop
	endfacet
	facet normal 0.9950414406607888 0.05195003068917957 -0.08481583389376807
		outer loop
			vertex -0.132467 7.984695 -0.245698
			vertex -0.138431 7.8929052 -0.371888
			vertex -0.297284 8.1231041 -2.0945201
		endloop
	endfacet
	facet normal 0.25702276767836474 0.9175274344875969 -0.3034513204083351
		outer loop
			vertex -1.413045 8.5791597 -1.819797
			vertex -0.812394 8.4620848 -1.6650389
			vertex -1.379572 8.4001646 -2.3326621
		endloop
	endfacet
	facet normal 0.15886347859010738 0.9615213908601188 -0.2241406033914282
		outer loop
			vertex -0.812394 8.4620848 -1.6650389
			vertex -0.724329 8.3197689 -2.21313
			vertex -1.379572 8.4001646 -2.3326621
		endloop
	endfacet
	facet normal -0.7377506451024454 0.6743014838556254 -0.032272194239431576
		outer loop
			vertex -2.3654361 7.986567 -2.1526041
			vertex -2.374212 8.0016127 -1.637617
			vertex -2.0895259 8.2962561 -1.989278
		endloop
	endfacet
	facet normal -0.7783478153798095 0.6176534171839579 -0.11260077501712784
		outer loop
			vertex -2.374212 8.0016127 -1.637617
			vertex -2.090174 8.4036026 -1.3959661
			vertex -2.0895259 8.2962561 -1.989278
		endloop
	endfacet
	facet normal -0.9394553981819254 0.3393995603865958 -0.04723868368430684
		outer loop
			vertex -2.460175 7.6990519 -2.3342249
			vertex -2.5414181 7.5513272 -1.779879
			vertex -2.3654361 7.986567 -2.1526041
		endloop
	endfacet
	facet normal -0.9343897098232989 0.355280224944927 -0.026302698329516063
		outer loop
			vertex -2.5414181 7.5513272 -1.779879
			vertex -2.374212 8.0016127 -1.637617
			vertex -2.3654361 7.986567 -2.1526041
		endloop
	endfacet
	facet normal -0.9986497456740806 0.04879265053592084 -0.017831509155813625
		outer loop
			vertex -2.4776299 7.342546 -2.33218
			vertex -2.493901 7.2203908 -1.7551759
			vertex -2.460175 7.6990519 -2.3342249
		endloop
	endfacet
	facet normal -0.9710955533970564 -0.15310276694022368 -0.1831200942761672
		outer loop
			vertex -2.493901 7.2203908 -1.7551759
			vertex -2.5414181 7.5513272 -1.779879
			vertex -2.460175 7.6990519 -2.3342249
		endloop
	endfacet
	facet normal -0.8555358924026522 -0.49539767746706365 -0.1504642082723897
		outer loop
			vertex -2.0729721 6.5880718 -2.148977
			vertex -2.136687 6.4930649 -1.473889
			vertex -2.4776299 7.342546 -2.33218
		endloop
	endfacet
	facet normal -0.8704787561589656 -0.4759859778513673 -0.12531593659554136
		outer loop
			vertex -2.136687 6.4930649 -1.473889
			vertex -2.493901 7.2203908 -1.7551759
			vertex -2.4776299 7.342546 -2.33218
		endloop
	endfacet
	facet normal -0.10166270231455284 -0.9837423342132127 -0.1480395718544284
		outer loop
			vertex -2.0729721 6.5880718 -2.148977
			vertex -1.4829 6.49405 -1.929408
			vertex -2.136687 6.4930649 -1.473889
		endloop
	endfacet
	facet normal -0.0322983402032127 -0.9983000945344354 -0.04851534265214643
		outer loop
			vertex -1.4829 6.49405 -1.929408
			vertex -1.5843771 6.4683442 -1.332903
			vertex -2.136687 6.4930649 -1.473889
		endloop
	endfacet
	facet normal 0.14556354398244403 -0.9891875962670256 -0.017864883283560024
		outer loop
			vertex -1.4829 6.49405 -1.929408
			vertex -0.532266 6.6321769 -1.831773
			vertex -1.5843771 6.4683442 -1.332903
		endloop
	endfacet
	facet normal 0.0665252755946772 -0.981066225175709 -0.18188856348472698
		outer loop
			vertex -0.532266 6.6321769 -1.831773
			vertex -0.511983 6.528265 -1.263877
			vertex -1.5843771 6.4683442 -1.332903
		endloop
	endfacet
	facet normal 0.9990738390982945 -0.04101579643799067 0.013006478076422226
		outer loop
			vertex -0.167696 6.6087322 -1.69837
			vertex -0.142707 7.6773949 -0.247847
			vertex -0.176862 6.5365772 -1.221837
		endloop
	endfacet
	facet normal 0.9989302072064034 0.008844947064326905 -0.04538951467025521
		outer loop
			vertex -0.142707 7.6773949 -0.247847
			vertex -0.134331 7.6247869 -0.07376
			vertex -0.176862 6.5365772 -1.221837
		endloop
	endfacet
	facet normal 0.14233339300076756 -0.9874474125483513 -0.06847490553812507
		outer loop
			vertex 0.287965 6.5362091 -1.69683
			vertex 0.557852 6.5806861 -1.777221
			vertex 0.32572 6.5067492 -1.193523
		endloop
	endfacet
	facet normal -0.11918925945136381 -0.9779859098637961 -0.1712818745206819
		outer loop
			vertex 0.557852 6.5806861 -1.777221
			vertex 0.610912 6.4786429 -1.231497
			vertex 0.32572 6.5067492 -1.193523
		endloop
	endfacet
	facet normal 0.23427609582301565 -0.9525310366274852 -0.1944205112309233
		outer loop
			vertex 1.4883209 6.6475129 -2.123939
			vertex 2.0123689 6.765728 -2.0716381
			vertex 1.6026061 6.5291481 -1.406317
		endloop
	endfacet
	facet normal 0.14931075663725038 -0.9570885788456951 -0.24837018781556608
		outer loop
			vertex 2.0123689 6.765728 -2.0716381
			vertex 2.15449 6.637157 -1.490755
			vertex 1.6026061 6.5291481 -1.406317
		endloop
	endfacet
	facet normal 0.8404215395858584 -0.46674617603705704 -0.2753899833961287
		outer loop
			vertex 2.3924251 7.1294088 -1.598932
			vertex 2.15449 6.637157 -1.490755
			vertex 2.3212979 7.3773642 -2.236243
		endloop
	endfacet
	facet normal 0.8131880521954539 -0.49368097314814025 -0.30822765696489546
		outer loop
			vertex 2.15449 6.637157 -1.490755
			vertex 2.0123689 6.765728 -2.0716381
			vertex 2.3212979 7.3773642 -2.236243
		endloop
	endfacet
	facet normal 0.9904268407188508 -0.10927416053616433 -0.08434352982175317
		outer loop
			vertex 2.4344561 7.5905771 -1.702854
			vertex 2.3924251 7.1294088 -1.598932
			vertex 2.3895531 7.6518192 -2.309484
		endloop
	endfacet
	facet normal 0.9322549509748698 -0.28968822800682276 -0.21675201714657807
		outer loop
			vertex 2.3924251 7.1294088 -1.598932
			vertex 2.3212979 7.3773642 -2.236243
			vertex 2.3895531 7.6518192 -2.309484
		endloop
	endfacet
	facet normal 0.9652762562542747 0.25853413241672385 -0.03744130723230256
		outer loop
			vertex 2.327698 7.999578 -1.631018
			vertex 2.4344561 7.5905771 -1.702854
			vertex 2.3127921 7.9773622 -2.168709
		endloop
	endfacet
	facet normal 0.9675693037353791 0.24827862243074164 -0.046555000944337795
		outer loop
			vertex 2.4344561 7.5905771 -1.702854
			vertex 2.3895531 7.6518192 -2.309484
			vertex 2.3127921 7.9773622 -2.168709
		endloop
	endfacet
	facet normal 0.9313587901275326 0.3632609947466471 -0.024743761796765237
		outer loop
			vertex 2.174741 8.4054108 -1.430346
			vertex 2.327698 7.999578 -1.631018
			vertex 2.202651 8.2926254 -2.0356021
		endloop
	endfacet
	facet normal 0.9378699210924614 0.34464590426454045 -0.040239430707919986
		outer loop
			vertex 2.327698 7.999578 -1.631018
			vertex 2.3127921 7.9773622 -2.168709
			vertex 2.202651 8.2926254 -2.0356021
		endloop
	endfacet
	facet normal 0.39091349055529323 0.9123839584461636 -0.1214172774854796
		outer loop
			vertex 1.484851 8.7001781 -1.436493
			vertex 2.174741 8.4054108 -1.430346
			vertex 1.542033 8.6106625 -1.925051
		endloop
	endfacet
	facet normal 0.4085862201871339 0.9004825708958113 -0.14895784701069423
		outer loop
			vertex 2.174741 8.4054108 -1.430346
			vertex 2.202651 8.2926254 -2.0356021
			vertex 1.542033 8.6106625 -1.925051
		endloop
	endfacet
	facet normal -0.42814655356595654 0.8822508772214096 -0.19576495680189213
		outer loop
			vertex 0.479246 8.386672 -1.29553
			vertex 0.906553 8.5866623 -1.328776
			vertex 0.401418 8.2559195 -1.714577
		endloop
	endfacet
	facet normal -0.4687426056937763 0.8730062345990828 -0.13468661388029815
		outer loop
			vertex 0.906553 8.5866623 -1.328776
			vertex 0.92879 8.5327253 -1.7557729
			vertex 0.401418 8.2559195 -1.714577
		endloop
	endfacet
	facet normal 0.9363174733438119 0.3455518974280682 -0.06247779841609446
		outer loop
			vertex -0.332762 8.3519754 -1.216047
			vertex -0.132467 7.984695 -0.245698
			vertex -0.32177 8.2481537 -1.625533
		endloop
	endfacet
	facet normal 0.24503896336376044 0.9641491578941338 -0.10184452742119307
		outer loop
			vertex -1.412972 8.6337032 -1.303265
			vertex -0.815131 8.4890633 -1.234141
			vertex -1.413045 8.5791597 -1.819797
		endloop
	endfacet
	facet normal 0.20580367825494672 0.9767615323202735 -0.05984776517202546
		outer loop
			vertex -0.815131 8.4890633 -1.234141
			vertex -0.812394 8.4620848 -1.6650389
			vertex -1.413045 8.5791597 -1.819797
		endloop
	endfacet
	facet normal -0.2960261480472551 0.9398629722656897 -0.17037051692181956
		outer loop
			vertex -2.090174 8.4036026 -1.3959661
			vertex -1.412972 8.6337032 -1.303265
			vertex -2.0895259 8.2962561 -1.989278
		endloop
	endfacet
	facet normal -0.3630167503397457 0.9266361265548573 -0.09779738205177883
		outer loop
			vertex -1.412972 8.6337032 -1.303265
			vertex -1.413045 8.5791597 -1.819797
			vertex -2.0895259 8.2962561 -1.989278
		endloop
	endfacet
	facet normal 0.031032456674553947 0.8399698820233678 0.5417449436094366
		outer loop
			vertex -0.06475 7.9415741 0.144519
			vertex -0.098218 7.9429789 0.144258
			vertex -0.097419 7.870213 0.257035
		endloop
	endfacet
	facet normal 0.10173919614546993 0.8362425524952143 0.5388390570142095
		outer loop
			vertex -0.098218 7.9429789 0.144258
			vertex -0.133842 7.874114 0.257858
			vertex -0.097419 7.870213 0.257035
		endloop
	endfacet
	facet normal -0.0008756720539499977 0.9917641447109417 0.12807464411126998
		outer loop
			vertex -0.087896 7.9769139 -0.129298
			vertex -0.120921 7.9768429 -0.128974
			vertex -0.06475 7.9415741 0.144519
		endloop
	endfacet
	facet normal 0.04070586166400796 0.9919916964391209 0.11956381987050108
		outer loop
			vertex -0.120921 7.9768429 -0.128974
			vertex -0.098218 7.9429789 0.144258
			vertex -0.06475 7.9415741 0.144519
		endloop
	endfacet
	facet normal 0.025471310979275574 0.9975868397282619 0.06458877238325965
		outer loop
			vertex -0.132467 7.984695 -0.245698
			vertex -0.120921 7.9768429 -0.128974
			vertex -0.0993 7.9839902 -0.247892
		endloop
	endfacet
	facet normal -0.001560230481397343 0.9982144409585888 0.059711770553026254
		outer loop
			vertex -0.120921 7.9768429 -0.128974
			vertex -0.087896 7.9769139 -0.129298
			vertex -0.0993 7.9839902 -0.247892
		endloop
	endfacet
	facet normal 0.03413840328035027 0.8002851207141309 -0.5986470537679419
		outer loop
			vertex -0.104868 7.8910441 -0.372462
			vertex -0.138431 7.8929052 -0.371888
			vertex -0.0993 7.9839902 -0.247892
		endloop
	endfacet
	facet normal -0.021667394592434386 0.8089865890588973 -0.5874276319125844
		outer loop
			vertex -0.138431 7.8929052 -0.371888
			vertex -0.132467 7.984695 -0.245698
			vertex -0.0993 7.9839902 -0.247892
		endloop
	endfacet
	facet normal -0.036684350975240844 -0.12372978971439544 -0.9916376341843612
		outer loop
			vertex -0.094204 7.738884 -0.353871
			vertex -0.126965 7.744061 -0.353305
			vertex -0.104868 7.8910441 -0.372462
		endloop
	endfacet
	facet normal -0.023929968678962493 -0.12566631095575134 -0.9917839154220017
		outer loop
			vertex -0.126965 7.744061 -0.353305
			vertex -0.138431 7.8929052 -0.371888
			vertex -0.104868 7.8910441 -0.372462
		endloop
	endfacet
	facet normal -0.07390206778232591 -0.8476395361649288 -0.5254005149479787
		outer loop
			vertex -0.106936 7.674583 -0.248342
			vertex -0.142707 7.6773949 -0.247847
			vertex -0.094204 7.738884 -0.353871
		endloop
	endfacet
	facet normal -0.14013710331859291 -0.8273452680913512 -0.5439314291712919
		outer loop
			vertex -0.142707 7.6773949 -0.247847
			vertex -0.126965 7.744061 -0.353305
			vertex -0.094204 7.738884 -0.353871
		endloop
	endfacet
	facet normal -0.07899842994967793 -0.9541193536928388 -0.2888174284461474
		outer loop
			vertex -0.106936 7.674583 -0.248342
			vertex -0.099564 7.6197338 -0.069162
			vertex -0.142707 7.6773949 -0.247847
		endloop
	endfacet
	facet normal -0.10113817659420384 -0.9536750236999426 -0.28332846381208093
		outer loop
			vertex -0.099564 7.6197338 -0.069162
			vertex -0.134331 7.6247869 -0.07376
			vertex -0.142707 7.6773949 -0.247847
		endloop
	endfacet
	facet normal -0.10182476063527271 -0.9935295572056388 -0.05030643179889588
		outer loop
			vertex -0.094274 7.6110311 0.092005
			vertex -0.131779 7.6151018 0.087524
			vertex -0.099564 7.6197338 -0.069162
		endloop
	endfacet
	facet normal -0.1361777653509235 -0.9890296274076683 -0.05723645983005687
		outer loop
			vertex -0.131779 7.6151018 0.087524
			vertex -0.134331 7.6247869 -0.07376
			vertex -0.099564 7.6197338 -0.069162
		endloop
	endfacet
	facet normal -0.23246594410161725 -0.8832211521940473 0.40728366177636377
		outer loop
			vertex -0.092648 7.6647191 0.209359
			vertex -0.129448 7.6711249 0.202246
			vertex -0.094274 7.6110311 0.092005
		endloop
	endfacet
	facet normal -0.14845719483741432 -0.8874295788224784 0.4363819473030073
		outer loop
			vertex -0.129448 7.6711249 0.202246
			vertex -0.131779 7.6151018 0.087524
			vertex -0.094274 7.6110311 0.092005
		endloop
	endfacet
	facet normal -0.19914898648798587 -0.49341704570057127 0.8466872505198884
		outer loop
			vertex -0.109333 7.7610989 0.261601
			vertex -0.146603 7.764533 0.254836
			vertex -0.092648 7.6647191 0.209359
		endloop
	endfacet
	facet normal -0.24795074621606972 -0.509459228267949 0.8239974042334844
		outer loop
			vertex -0.146603 7.764533 0.254836
			vertex -0.129448 7.6711249 0.202246
			vertex -0.092648 7.6647191 0.209359
		endloop
	endfacet
	facet normal 0.02673463695335943 0.038880380950713 0.9988861672703749
		outer loop
			vertex -0.097419 7.870213 0.257035
			vertex -0.133842 7.874114 0.257858
			vertex -0.109333 7.7610989 0.261601
		endloop
	endfacet
	facet normal -0.17915065703091027 -0.006268487662518823 0.9838016813097131
		outer loop
			vertex -0.133842 7.874114 0.257858
			vertex -0.146603 7.764533 0.254836
			vertex -0.109333 7.7610989 0.261601
		endloop
	endfacet
	facet normal -0.983065088695627 0.12142816810323458 0.13725243669586265
		outer loop
			vertex 0.324666 7.8249688 0.247502
			vertex 0.445949 7.7172379 1.2114969
			vertex 0.32311 7.9253311 0.147566
		endloop
	endfacet
	facet normal -0.9907755133588982 0.052936068192687945 0.12474636192174546
		outer loop
			vertex 0.445949 7.7172379 1.2114969
			vertex 0.460145 8.1257668 1.150887
			vertex 0.32311 7.9253311 0.147566
		endloop
	endfacet
	facet normal -0.989387238834901 0.08441210721466164 0.11826871008948785
		outer loop
			vertex 0.32311 7.9253311 0.147566
			vertex 0.460145 8.1257668 1.150887
			vertex 0.451507 8.3513517 0.917618
		endloop
	endfacet
	facet normal -0.9531783255673766 0.26505347247099964 0.14559442434254563
		outer loop
			vertex 0.294822 7.9777389 -0.133038
			vertex 0.32311 7.9253311 0.147566
			vertex 0.534696 8.4963198 0.493298
		endloop
	endfacet
	facet normal -0.925424276284822 0.375171702559194 -0.05325506982015128
		outer loop
			vertex 0.32311 7.9253311 0.147566
			vertex 0.451507 8.3513517 0.917618
			vertex 0.534696 8.4963198 0.493298
		endloop
	endfacet
	facet normal -0.9164372643279344 0.3996751889820307 0.020062000481255175
		outer loop
			vertex 0.294822 7.9777389 -0.133038
			vertex 0.534696 8.4963198 0.493298
			vertex 0.488306 8.4516649 -0.736194
		endloop
	endfacet
	facet normal -0.8471804679848741 0.5287923057141511 0.051613487408251696
		outer loop
			vertex 0.285068 7.9758039 -0.273315
			vertex 0.294822 7.9777389 -0.133038
			vertex 0.479246 8.386672 -1.29553
		endloop
	endfacet
	facet normal -0.9364489144900277 0.34987696327587803 -0.025486096588120837
		outer loop
			vertex 0.294822 7.9777389 -0.133038
			vertex 0.488306 8.4516649 -0.736194
			vertex 0.479246 8.386672 -1.29553
		endloop
	endfacet
	facet normal -0.8848011348238682 0.46557888570154404 0.019059197341539602
		outer loop
			vertex 0.285068 7.9758039 -0.273315
			vertex 0.479246 8.386672 -1.29553
			vertex 0.401418 8.2559195 -1.714577
		endloop
	endfacet
	facet normal -0.9988984058669323 0.03753460967461064 -0.028162525332009226
		outer loop
			vertex 0.284054 7.869472 -0.379067
			vertex 0.285068 7.9758039 -0.273315
			vertex 0.34251 8.1041164 -2.1397159
		endloop
	endfacet
	facet normal -0.9292132644839869 0.36953012060848645 -0.0031935982981536664
		outer loop
			vertex 0.285068 7.9758039 -0.273315
			vertex 0.401418 8.2559195 -1.714577
			vertex 0.34251 8.1041164 -2.1397159
		endloop
	endfacet
	facet normal -0.9786689489972299 0.20537978107195617 -0.005121893740893747
		outer loop
			vertex 0.284054 7.869472 -0.379067
			vertex 0.34251 8.1041164 -2.1397159
			vertex 0.286514 7.8380108 -2.110657
		endloop
	endfacet
	facet normal -0.9999260633060612 -0.006221558879214043 0.010447972356178187
		outer loop
			vertex 0.285435 7.6788611 -0.360403
			vertex 0.284054 7.869472 -0.379067
			vertex 0.268541 7.2957549 -2.20538
		endloop
	endfacet
	facet normal -0.9994373128881529 0.03348050399923996 -0.0020281663801048505
		outer loop
			vertex 0.284054 7.869472 -0.379067
			vertex 0.286514 7.8380108 -2.110657
			vertex 0.268541 7.2957549 -2.20538
		endloop
	endfacet
	facet normal -0.9999211657084522 0.01043076409189294 0.006990102195928224
		outer loop
			vertex 0.285435 7.6788611 -0.360403
			vertex 0.268541 7.2957549 -2.20538
			vertex 0.264916 6.936552 -2.1879201
		endloop
	endfacet
	facet normal -0.9713504608120221 -0.19588758077772994 0.13455979331628343
		outer loop
			vertex 0.307599 7.641994 -0.254077
			vertex 0.285435 7.6788611 -0.360403
			vertex 0.261655 6.7007289 -1.955996
		endloop
	endfacet
	facet normal -0.9998340947974229 0.017768314530663416 0.004008725403102741
		outer loop
			vertex 0.285435 7.6788611 -0.360403
			vertex 0.264916 6.936552 -2.1879201
			vertex 0.261655 6.7007289 -1.955996
		endloop
	endfacet
	facet normal -0.9961514143400992 -0.062495050019360246 0.061455092801960425
		outer loop
			vertex 0.307599 7.641994 -0.254077
			vertex 0.261655 6.7007289 -1.955996
			vertex 0.287965 6.5362091 -1.69683
		endloop
	endfacet
	facet normal -0.9998351256058746 -0.0009538749498650553 -0.01813316649857415
		outer loop
			vertex 0.303356 7.5611548 -0.015872
			vertex 0.307599 7.641994 -0.254077
			vertex 0.32572 6.5067492 -1.193523
		endloop
	endfacet
	facet normal -0.9947749001307657 -0.0740439551679574 0.07028791341981042
		outer loop
			vertex 0.307599 7.641994 -0.254077
			vertex 0.287965 6.5362091 -1.69683
			vertex 0.32572 6.5067492 -1.193523
		endloop
	endfacet
	facet normal -0.9984123339141909 -0.05004650685979045 0.025848764750969946
		outer loop
			vertex 0.303356 7.5611548 -0.015872
			vertex 0.32572 6.5067492 -1.193523
			vertex 0.344276 6.4725752 -0.54296
		endloop
	endfacet
	facet normal -0.972573570520159 -0.054083958284062345 0.22622019225081783
		outer loop
			vertex 0.340378 7.5638642 0.143942
			vertex 0.303356 7.5611548 -0.015872
			vertex 0.434599 6.4308419 0.278141
		endloop
	endfacet
	facet normal -0.9906372308762609 -0.08784077102912043 0.10450777840344477
		outer loop
			vertex 0.303356 7.5611548 -0.015872
			vertex 0.344276 6.4725752 -0.54296
			vertex 0.434599 6.4308419 0.278141
		endloop
	endfacet
	facet normal -0.9928455024352277 -0.11719710792787463 -0.022861456372739706
		outer loop
			vertex 0.333832 7.590476 0.291804
			vertex 0.340378 7.5638642 0.143942
			vertex 0.39715 6.9725471 0.709734
		endloop
	endfacet
	facet normal -0.9965916516232521 -0.08106631372899235 0.015275231364242147
		outer loop
			vertex 0.340378 7.5638642 0.143942
			vertex 0.434599 6.4308419 0.278141
			vertex 0.39715 6.9725471 0.709734
		endloop
	endfacet
	facet normal -0.9945196108117138 -0.09852428081563264 0.03498156372548314
		outer loop
			vertex 0.322569 7.721283 0.340012
			vertex 0.333832 7.590476 0.291804
			vertex 0.392123 7.2903099 1.1036
		endloop
	endfacet
	facet normal -0.9964133342763416 -0.0716212649751874 0.0450650827099833
		outer loop
			vertex 0.333832 7.590476 0.291804
			vertex 0.39715 6.9725471 0.709734
			vertex 0.392123 7.2903099 1.1036
		endloop
	endfacet
	facet normal -0.9796909050070466 0.14416031190301795 0.1393683433154703
		outer loop
			vertex 0.324666 7.8249688 0.247502
			vertex 0.322569 7.721283 0.340012
			vertex 0.445949 7.7172379 1.2114969
		endloop
	endfacet
	facet normal -0.9861450567393657 0.08894215355106466 0.1400257847334272
		outer loop
			vertex 0.322569 7.721283 0.340012
			vertex 0.392123 7.2903099 1.1036
			vertex 0.445949 7.7172379 1.2114969
		endloop
	endfacet
	facet normal -0.07083190645678997 0.7148327723622645 0.6956988921829441
		outer loop
			vertex -0.751386 8.1191397 1.197371
			vertex -0.474479 8.1218891 1.222739
			vertex -0.862316 8.4949398 0.799941
		endloop
	endfacet
	facet normal 0.1218136094161643 0.7970382868149303 0.5915161991967143
		outer loop
			vertex -0.474479 8.1218891 1.222739
			vertex -0.524515 8.4232244 0.827009
			vertex -0.862316 8.4949398 0.799941
		endloop
	endfacet
	facet normal -0.07679039596505949 0.20178150283502655 0.9764156185770319
		outer loop
			vertex -0.725123 7.641448 1.298154
			vertex -0.400061 7.6610389 1.31967
			vertex -0.751386 8.1191397 1.197371
		endloop
	endfacet
	facet normal -0.09143243610932283 0.19080456210625282 0.9773605929781268
		outer loop
			vertex -0.400061 7.6610389 1.31967
			vertex -0.474479 8.1218891 1.222739
			vertex -0.751386 8.1191397 1.197371
		endloop
	endfacet
	facet normal 0.027473886535570254 -0.37745462926568524 0.9256204343058416
		outer loop
			vertex -0.743479 7.2150402 1.1248159
			vertex -0.381013 7.218617 1.1155159
			vertex -0.725123 7.641448 1.298154
		endloop
	endfacet
	facet normal -0.03471566097500264 -0.41996876241828124 0.9068743360995094
		outer loop
			vertex -0.381013 7.218617 1.1155159
			vertex -0.400061 7.6610389 1.31967
			vertex -0.725123 7.641448 1.298154
		endloop
	endfacet
	facet normal 0.027337549512659678 -0.5608412459910107 0.8274719059774136
		outer loop
			vertex -0.824436 6.8661709 0.891035
			vertex -0.312054 6.9036431 0.899505
			vertex -0.743479 7.2150402 1.1248159
		endloop
	endfacet
	facet normal 0.026761666595069105 -0.561385591268967 0.8271215334620705
		outer loop
			vertex -0.312054 6.9036431 0.899505
			vertex -0.381013 7.218617 1.1155159
			vertex -0.743479 7.2150402 1.1248159
		endloop
	endfacet
	facet normal -0.1970597868755537 -0.8411339696097727 0.503647779271454
		outer loop
			vertex -1.12029 6.4961681 0.157342
			vertex -0.437602 6.399261 0.262611
			vertex -0.824436 6.8661709 0.891035
		endloop
	endfacet
	facet normal 0.04744306901839993 -0.7875892338918028 0.6143715112697191
		outer loop
			vertex -0.437602 6.399261 0.262611
			vertex -0.312054 6.9036431 0.899505
			vertex -0.824436 6.8661709 0.891035
		endloop
	endfacet
	facet normal -0.32930726139347255 0.5311575864016106 0.7806589178389925
		outer loop
			vertex -1.2309721 8.122817 0.992564
			vertex -0.751386 8.1191397 1.197371
			vertex -1.17398 8.4559641 0.789933
		endloop
	endfacet
	facet normal -0.11079863211754758 0.7065055803885214 0.6989803487944128
		outer loop
			vertex -0.751386 8.1191397 1.197371
			vertex -0.862316 8.4949398 0.799941
			vertex -1.17398 8.4559641 0.789933
		endloop
	endfacet
	facet normal -0.4615302373548691 0.07610046313713223 0.883854376872951
		outer loop
			vertex -1.096674 7.6297379 1.1051461
			vertex -0.725123 7.641448 1.298154
			vertex -1.2309721 8.122817 0.992564
		endloop
	endfacet
	facet normal -0.3859110050138354 0.17008245152737803 0.9067219286482756
		outer loop
			vertex -0.725123 7.641448 1.298154
			vertex -0.751386 8.1191397 1.197371
			vertex -1.2309721 8.122817 0.992564
		endloop
	endfacet
	facet normal -0.4227512861732811 -0.3198354152658326 0.8479308091941048
		outer loop
			vertex -1.1700619 7.228168 0.917087
			vertex -0.743479 7.2150402 1.1248159
			vertex -1.096674 7.6297379 1.1051461
		endloop
	endfacet
	facet normal -0.4279629507706236 -0.32448243980824804 0.8435394827889133
		outer loop
			vertex -0.743479 7.2150402 1.1248159
			vertex -0.725123 7.641448 1.298154
			vertex -1.096674 7.6297379 1.1051461
		endloop
	endfacet
	facet normal -0.42166517937152476 -0.4588788546035436 0.782066923800847
		outer loop
			vertex -1.279935 6.905159 0.668321
			vertex -0.824436 6.8661709 0.891035
			vertex -1.1700619 7.228168 0.917087
		endloop
	endfacet
	facet normal -0.4035117390398494 -0.44288342013947524 0.8006450853047172
		outer loop
			vertex -0.824436 6.8661709 0.891035
			vertex -0.743479 7.2150402 1.1248159
			vertex -1.1700619 7.228168 0.917087
		endloop
	endfacet
	facet normal -0.11405166094112813 0.9503129834170329 0.2896505691097261
		outer loop
			vertex 0.68522 8.6055851 0.358345
			vertex 0.609064 8.4400501 0.871461
			vertex 1.135125 8.7501383 0.061234
		endloop
	endfacet
	facet normal -0.20456585926973625 0.9511557837368374 0.23120442098973212
		outer loop
			vertex 0.609064 8.4400501 0.871461
			vertex 1.040772 8.5744877 0.700364
			vertex 1.135125 8.7501383 0.061234
		endloop
	endfacet
	facet normal -0.28795224152375143 0.9574088703144151 -0.02125468524167603
		outer loop
			vertex 0.833256 8.6252317 -0.76223
			vertex 0.68522 8.6055851 0.358345
			vertex 1.360588 8.7818956 -0.849506
		endloop
	endfacet
	facet normal -0.33542738094257263 0.9407257083196793 -0.05023558320995464
		outer loop
			vertex 0.68522 8.6055851 0.358345
			vertex 1.135125 8.7501383 0.061234
			vertex 1.360588 8.7818956 -0.849506
		endloop
	endfacet
	facet normal -0.20847465324141046 0.9735721215651764 -0.09325043199339801
		outer loop
			vertex 0.906553 8.5866623 -1.328776
			vertex 0.833256 8.6252317 -0.76223
			vertex 1.484851 8.7001781 -1.436493
		endloop
	endfacet
	facet normal -0.3088335743922035 0.9309167095429993 -0.19497667353242631
		outer loop
			vertex 0.833256 8.6252317 -0.76223
			vertex 1.360588 8.7818956 -0.849506
			vertex 1.484851 8.7001781 -1.436493
		endloop
	endfacet
	facet normal -0.16072893775461589 0.9781419270351644 -0.13192641564223598
		outer loop
			vertex 0.92879 8.5327253 -1.7557729
			vertex 0.906553 8.5866623 -1.328776
			vertex 1.542033 8.6106625 -1.925051
		endloop
	endfacet
	facet normal -0.2246024745417111 0.9534967774302697 -0.20099160146590894
		outer loop
			vertex 0.906553 8.5866623 -1.328776
			vertex 1.484851 8.7001781 -1.436493
			vertex 1.542033 8.6106625 -1.925051
		endloop
	endfacet
	facet normal -0.2158928462862104 0.9339047304536607 -0.2849776015035464
		outer loop
			vertex 0.802683 8.3402042 -2.291151
			vertex 0.92879 8.5327253 -1.7557729
			vertex 1.4009711 8.4684734 -2.324048
		endloop
	endfacet
	facet normal -0.19386417539324127 0.9437719181652178 -0.26778955913523583
		outer loop
			vertex 0.92879 8.5327253 -1.7557729
			vertex 1.542033 8.6106625 -1.925051
			vertex 1.4009711 8.4684734 -2.324048
		endloop
	endfacet
	facet normal -0.4177592980109018 0.4422495003632493 -0.7936577022582816
		outer loop
			vertex 0.665035 7.9113989 -2.4576399
			vertex 0.802683 8.3402042 -2.291151
			vertex 1.183526 7.9338622 -2.7180419
		endloop
	endfacet
	facet normal -0.17656276870018212 0.629476629447786 -0.7566933075480321
		outer loop
			vertex 0.802683 8.3402042 -2.291151
			vertex 1.4009711 8.4684734 -2.324048
			vertex 1.183526 7.9338622 -2.7180419
		endloop
	endfacet
	facet normal 0.06772255768131887 0.9846599457644444 0.1608056167808269
		outer loop
			vertex -0.570865 8.4962397 0.399435
			vertex -0.524515 8.4232244 0.827009
			vertex -0.372216 8.478056 0.427119
		endloop
	endfacet
	facet normal 0.19632412666322308 0.9586101750834685 0.2062119528940181
		outer loop
			vertex -0.524515 8.4232244 0.827009
			vertex -0.295609 8.3696346 0.8582
			vertex -0.372216 8.478056 0.427119
		endloop
	endfacet
	facet normal 0.18293453784725483 0.9830920950249837 0.008055281621389819
		outer loop
			vertex -0.777192 8.5431976 -0.645793
			vertex -0.570865 8.4962397 0.399435
			vertex -0.390715 8.47118 -0.633386
		endloop
	endfacet
	facet normal 0.09226736210143993 0.9957016042557392 -0.008065306775901199
		outer loop
			vertex -0.570865 8.4962397 0.399435
			vertex -0.372216 8.478056 0.427119
			vertex -0.390715 8.47118 -0.633386
		endloop
	endfacet
	facet normal 0.27550671236756996 0.9554726089106895 -0.10567944484058181
		outer loop
			vertex -0.815131 8.4890633 -1.234141
			vertex -0.777192 8.5431976 -0.645793
			vertex -0.332762 8.3519754 -1.216047
		endloop
	endfacet
	facet normal 0.18578188794469688 0.966116465777819 -0.17917607168559307
		outer loop
			vertex -0.777192 8.5431976 -0.645793
			vertex -0.390715 8.47118 -0.633386
			vertex -0.332762 8.3519754 -1.216047
		endloop
	endfacet
	facet normal 0.4027910481235546 0.9136592467358775 -0.05464569887518568
		outer loop
			vertex -0.812394 8.4620848 -1.6650389
			vertex -0.815131 8.4890633 -1.234141
			vertex -0.32177 8.2481537 -1.625533
		endloop
	endfacet
	facet normal 0.27403254540461086 0.9339506288884117 -0.22943928795655413
		outer loop
			vertex -0.815131 8.4890633 -1.234141
			vertex -0.332762 8.3519754 -1.216047
			vertex -0.32177 8.2481537 -1.625533
		endloop
	endfacet
	facet normal 0.44865820192294664 0.8799140432155623 -0.15638764145324968
		outer loop
			vertex -0.724329 8.3197689 -2.21313
			vertex -0.812394 8.4620848 -1.6650389
			vertex -0.297284 8.1231041 -2.0945201
		endloop
	endfacet
	facet normal 0.40482542803960403 0.888567022415127 -0.21578929419428333
		outer loop
			vertex -0.812394 8.4620848 -1.6650389
			vertex -0.32177 8.2481537 -1.625533
			vertex -0.297284 8.1231041 -2.0945201
		endloop
	endfacet
	facet normal 0.5718980895004421 0.5227166925041604 -0.6322181859162671
		outer loop
			vertex -0.607458 7.9329739 -2.427211
			vertex -0.724329 8.3197689 -2.21313
			vertex -0.248283 7.866353 -2.157387
		endloop
	endfacet
	facet normal 0.3769615816437335 0.2875308511144679 -0.880469179257312
		outer loop
			vertex -0.724329 8.3197689 -2.21313
			vertex -0.297284 8.1231041 -2.0945201
			vertex -0.248283 7.866353 -2.157387
		endloop
	endfacet
	facet normal -0.45809860019554466 0.05392668781519302 -0.8872641009531298
		outer loop
			vertex 0.600641 7.376852 -2.456882
			vertex 0.665035 7.9113989 -2.4576399
			vertex 1.091289 7.4117451 -2.7080851
		endloop
	endfacet
	facet normal -0.45009124831355823 0.06252551320907554 -0.8907909004864637
		outer loop
			vertex 0.665035 7.9113989 -2.4576399
			vertex 1.183526 7.9338622 -2.7180419
			vertex 1.091289 7.4117451 -2.7080851
		endloop
	endfacet
	facet normal -0.4180238252695333 -0.24614197392430268 -0.874454235611947
		outer loop
			vertex 0.564416 7.0786862 -2.3556371
			vertex 0.600641 7.376852 -2.456882
			vertex 1.172714 6.9832282 -2.6195581
		endloop
	endfacet
	facet normal -0.4253537545984999 -0.2599164436508983 -0.8669011626297595
		outer loop
			vertex 0.600641 7.376852 -2.456882
			vertex 1.091289 7.4117451 -2.7080851
			vertex 1.172714 6.9832282 -2.6195581
		endloop
	endfacet
	facet normal -0.190910747649984 -0.3496501505664543 -0.9172229056453943
		outer loop
			vertex 0.56421 6.7974148 -2.2483721
			vertex 0.564416 7.0786862 -2.3556371
			vertex 1.395866 6.7432761 -2.400835
		endloop
	endfacet
	facet normal -0.3452933240469602 -0.7870668388106489 -0.5111734652866998
		outer loop
			vertex 0.564416 7.0786862 -2.3556371
			vertex 1.172714 6.9832282 -2.6195581
			vertex 1.395866 6.7432761 -2.400835
		endloop
	endfacet
	facet normal -0.0905117073791119 -0.9042977538399068 -0.4171968399058377
		outer loop
			vertex 0.557852 6.5806861 -1.777221
			vertex 0.56421 6.7974148 -2.2483721
			vertex 1.4883209 6.6475129 -2.123939
		endloop
	endfacet
	facet normal -0.11503789120989114 -0.9500398761771922 -0.2901560222694108
		outer loop
			vertex 0.56421 6.7974148 -2.2483721
			vertex 1.395866 6.7432761 -2.400835
			vertex 1.4883209 6.6475129 -2.123939
		endloop
	endfacet
	facet normal 0.0173537123657387 -0.9825092204537857 -0.18540356088927099
		outer loop
			vertex 0.610912 6.4786429 -1.231497
			vertex 0.557852 6.5806861 -1.777221
			vertex 1.6026061 6.5291481 -1.406317
		endloop
	endfacet
	facet normal 0.00964576517343021 -0.9863750524836338 -0.16422915408698935
		outer loop
			vertex 0.557852 6.5806861 -1.777221
			vertex 1.4883209 6.6475129 -2.123939
			vertex 1.6026061 6.5291481 -1.406317
		endloop
	endfacet
	facet normal 0.060575854868778686 -0.9977974474828012 -0.02703367536469502
		outer loop
			vertex 0.707219 6.4690371 -0.661152
			vertex 0.610912 6.4786429 -1.231497
			vertex 1.627555 6.5332799 -0.970069
		endloop
	endfacet
	facet normal 0.05200130087461513 -0.998625965523922 0.006484264704850511
		outer loop
			vertex 0.610912 6.4786429 -1.231497
			vertex 1.6026061 6.5291481 -1.406317
			vertex 1.627555 6.5332799 -0.970069
		endloop
	endfacet
	facet normal 0.1491376580647128 -0.9840988834020051 -0.09647459061276115
		outer loop
			vertex 0.718622 6.3912592 0.149857
			vertex 0.707219 6.4690371 -0.661152
			vertex 1.1835819 6.480535 -0.04204
		endloop
	endfacet
	facet normal 0.060296872611544816 -0.9977915149097685 -0.02786359501816433
		outer loop
			vertex 0.707219 6.4690371 -0.661152
			vertex 1.627555 6.5332799 -0.970069
			vertex 1.1835819 6.480535 -0.04204
		endloop
	endfacet
	facet normal 0.46262569511964297 -0.7585353204414235 0.4589135363637624
		outer loop
			vertex 0.701055 6.7841392 0.816955
			vertex 0.718622 6.3912592 0.149857
			vertex 0.958011 6.963923 0.855084
		endloop
	endfacet
	facet normal 0.3607295799037423 -0.7801768226698513 0.5110756260586538
		outer loop
			vertex 0.718622 6.3912592 0.149857
			vertex 1.1835819 6.480535 -0.04204
			vertex 0.958011 6.963923 0.855084
		endloop
	endfacet
	facet normal 0.19814343022655487 -0.560746197086257 0.8039296508472337
		outer loop
			vertex 0.65947 7.2543421 1.155174
			vertex 0.701055 6.7841392 0.816955
			vertex 1.041451 7.248086 1.056664
		endloop
	endfacet
	facet normal 0.31820085157303285 -0.6088947155042546 0.7266329496308228
		outer loop
			vertex 0.701055 6.7841392 0.816955
			vertex 0.958011 6.963923 0.855084
			vertex 1.041451 7.248086 1.056664
		endloop
	endfacet
	facet normal 0.05240495279656428 -0.21868069968656512 0.9743882555259912
		outer loop
			vertex 0.611266 7.6701689 1.25109
			vertex 0.65947 7.2543421 1.155174
			vertex 0.969024 7.628655 1.222532
		endloop
	endfacet
	facet normal 0.2283135046838498 -0.35214962743115275 0.9076693139459315
		outer loop
			vertex 0.65947 7.2543421 1.155174
			vertex 1.041451 7.248086 1.056664
			vertex 0.969024 7.628655 1.222532
		endloop
	endfacet
	facet normal 0.023253648402612924 0.17465993778770564 0.9843541913193455
		outer loop
			vertex 0.605267 8.1454258 1.166904
			vertex 0.611266 7.6701689 1.25109
			vertex 0.933548 8.1449013 1.159242
		endloop
	endfacet
	facet normal 0.09361352560537156 0.12748639475241658 0.9874126427065656
		outer loop
			vertex 0.611266 7.6701689 1.25109
			vertex 0.969024 7.628655 1.222532
			vertex 0.933548 8.1449013 1.159242
		endloop
	endfacet
	facet normal 0.05951693835010801 0.7064494040702645 0.7052566720976114
		outer loop
			vertex 0.609064 8.4400501 0.871461
			vertex 0.605267 8.1454258 1.166904
			vertex 1.040772 8.5744877 0.700364
		endloop
	endfacet
	facet normal 0.01716138677677037 0.7279113050722147 0.685456503909594
		outer loop
			vertex 0.605267 8.1454258 1.166904
			vertex 0.933548 8.1449013 1.159242
			vertex 1.040772 8.5744877 0.700364
		endloop
	endfacet
	facet normal 0.5796025523516507 0.13414282780337639 -0.8037826715327756
		outer loop
			vertex -0.554777 7.3744488 -2.482435
			vertex -0.607458 7.9329739 -2.427211
			vertex -0.195763 7.3457789 -2.228337
		endloop
	endfacet
	facet normal 0.611811432214014 0.167099168887278 -0.7731524035851004
		outer loop
			vertex -0.607458 7.9329739 -2.427211
			vertex -0.248283 7.866353 -2.157387
			vertex -0.195763 7.3457789 -2.228337
		endloop
	endfacet
	facet normal 0.562645111990922 -0.12328209737149418 -0.817454587374986
		outer loop
			vertex -0.5325 7.0059309 -2.411525
			vertex -0.554777 7.3744488 -2.482435
			vertex -0.184249 6.944201 -2.162518
		endloop
	endfacet
	facet normal 0.5674618053894426 -0.11730913644125358 -0.8150004085468681
		outer loop
			vertex -0.554777 7.3744488 -2.482435
			vertex -0.195763 7.3457789 -2.228337
			vertex -0.184249 6.944201 -2.162518
		endloop
	endfacet
	facet normal 0.47162786871575474 -0.5204278142530717 -0.7118441146784914
		outer loop
			vertex -0.542957 6.824955 -2.2861421
			vertex -0.5325 7.0059309 -2.411525
			vertex -0.168892 6.6810322 -1.933086
		endloop
	endfacet
	facet normal 0.39806017523369147 -0.589525783610514 -0.7028566335685624
		outer loop
			vertex -0.5325 7.0059309 -2.411525
			vertex -0.184249 6.944201 -2.162518
			vertex -0.168892 6.6810322 -1.933086
		endloop
	endfacet
	facet normal 0.08408197928792237 -0.9165977697304072 -0.3908692227385896
		outer loop
			vertex -0.532266 6.6321769 -1.831773
			vertex -0.542957 6.824955 -2.2861421
			vertex -0.167696 6.6087322 -1.69837
		endloop
	endfacet
	facet normal -0.08993603788907524 -0.9519437107296711 -0.2927706964350076
		outer loop
			vertex -0.542957 6.824955 -2.2861421
			vertex -0.168892 6.6810322 -1.933086
			vertex -0.167696 6.6087322 -1.69837
		endloop
	endfacet
	facet normal 0.047122239315881866 -0.982276617359281 -0.1814170376537602
		outer loop
			vertex -0.511983 6.528265 -1.263877
			vertex -0.532266 6.6321769 -1.831773
			vertex -0.176862 6.5365772 -1.221837
		endloop
	endfacet
	facet normal -0.008739256343181716 -0.988667280532897 -0.14986872189437714
		outer loop
			vertex -0.532266 6.6321769 -1.831773
			vertex -0.167696 6.6087322 -1.69837
			vertex -0.176862 6.5365772 -1.221837
		endloop
	endfacet
	facet normal -0.015872431331980966 -0.9976276021161048 -0.06698681526750404
		outer loop
			vertex -0.505122 6.4938521 -0.752995
			vertex -0.511983 6.528265 -1.263877
			vertex -0.164589 6.4818668 -0.655188
		endloop
	endfacet
	facet normal 0.03681702859381829 -0.9946198782297722 -0.09682873662149641
		outer loop
			vertex -0.511983 6.528265 -1.263877
			vertex -0.176862 6.5365772 -1.221837
			vertex -0.164589 6.4818668 -0.655188
		endloop
	endfacet
	facet normal 0.15087933120896285 -0.9833157790129485 -0.10161449777514171
		outer loop
			vertex -0.437602 6.399261 0.262611
			vertex -0.505122 6.4938521 -0.752995
			vertex -0.133205 6.4430308 0.291029
		endloop
	endfacet
	facet normal -0.023606740810338814 -0.9989121137222359 -0.04021580345198296
		outer loop
			vertex -0.505122 6.4938521 -0.752995
			vertex -0.164589 6.4818668 -0.655188
			vertex -0.133205 6.4430308 0.291029
		endloop
	endfacet
	facet normal 0.5720517974043408 -0.6941398696707639 0.43695146460438616
		outer loop
			vertex -0.312054 6.9036431 0.899505
			vertex -0.437602 6.399261 0.262611
			vertex -0.134325 6.9671688 0.767741
		endloop
	endfacet
	facet normal 0.02766665915413656 -0.6725551166265424 0.739529695868061
		outer loop
			vertex -0.437602 6.399261 0.262611
			vertex -0.133205 6.4430308 0.291029
			vertex -0.134325 6.9671688 0.767741
		endloop
	endfacet
	facet normal 0.39739505607018516 -0.4582407617497251 0.795042498035172
		outer loop
			vertex -0.381013 7.218617 1.1155159
			vertex -0.312054 6.9036431 0.899505
			vertex -0.197232 7.2581911 1.046464
		endloop
	endfacet
	facet normal 0.6287337600252154 -0.462678085402056 0.6249982786322237
		outer loop
			vertex -0.312054 6.9036431 0.899505
			vertex -0.134325 6.9671688 0.767741
			vertex -0.197232 7.2581911 1.046464
		endloop
	endfacet
	facet normal 0.4805354569751998 -0.3503021343978207 0.8039739356633194
		outer loop
			vertex -0.400061 7.6610389 1.31967
			vertex -0.381013 7.218617 1.1155159
			vertex -0.244978 7.7214689 1.253307
		endloop
	endfacet
	facet normal 0.3940743326842028 -0.3405286534408887 0.8536660099273223
		outer loop
			vertex -0.381013 7.218617 1.1155159
			vertex -0.197232 7.2581911 1.046464
			vertex -0.244978 7.7214689 1.253307
		endloop
	endfacet
	facet normal 0.2465352462271942 0.23743684810323934 0.9395978477681269
		outer loop
			vertex -0.474479 8.1218891 1.222739
			vertex -0.400061 7.6610389 1.31967
			vertex -0.296478 8.1386814 1.171791
		endloop
	endfacet
	facet normal 0.31046881499566115 0.21905251827734865 0.9250000590008316
		outer loop
			vertex -0.400061 7.6610389 1.31967
			vertex -0.244978 7.7214689 1.253307
			vertex -0.296478 8.1386814 1.171791
		endloop
	endfacet
	facet normal 0.10578495373916413 0.7975370833165993 0.5939226753519812
		outer loop
			vertex -0.524515 8.4232244 0.827009
			vertex -0.474479 8.1218891 1.222739
			vertex -0.295609 8.3696346 0.8582
		endloop
	endfacet
	facet normal 0.09342192301073932 0.801550355893701 0.5905839239834225
		outer loop
			vertex -0.474479 8.1218891 1.222739
			vertex -0.296478 8.1386814 1.171791
			vertex -0.295609 8.3696346 0.8582
		endloop
	endfacet
	facet normal -0.1119534636830789 -0.9930945274812395 0.035066814172025736
		outer loop
			vertex 0.304483 7.5677609 0.139652
			vertex -0.094274 7.6110311 0.092005
			vertex 0.270082 7.5659919 -0.020274
		endloop
	endfacet
	facet normal -0.13736465955597982 -0.9893121599474681 -0.04891217113505512
		outer loop
			vertex -0.094274 7.6110311 0.092005
			vertex -0.099564 7.6197338 -0.069162
			vertex 0.270082 7.5659919 -0.020274
		endloop
	endfacet
	facet normal -0.20279539330872598 -0.9620165875926139 0.18275150792653447
		outer loop
			vertex 0.298612 7.5966091 0.284996
			vertex -0.092648 7.6647191 0.209359
			vertex 0.304483 7.5677609 0.139652
		endloop
	endfacet
	facet normal -0.14689392713870247 -0.8987198894072044 0.41318849760572024
		outer loop
			vertex -0.092648 7.6647191 0.209359
			vertex -0.094274 7.6110311 0.092005
			vertex 0.304483 7.5677609 0.139652
		endloop
	endfacet
	facet normal -0.1987479755228776 -0.3634569364477868 0.9101638850083799
		outer loop
			vertex 0.286901 7.7245712 0.333538
			vertex -0.109333 7.7610989 0.261601
			vertex 0.298612 7.5966091 0.284996
		endloop
	endfacet
	facet normal -0.24716973979869813 -0.49447721644676956 0.833306307514169
		outer loop
			vertex -0.109333 7.7610989 0.261601
			vertex -0.092648 7.6647191 0.209359
			vertex 0.298612 7.5966091 0.284996
		endloop
	endfacet
	facet normal 0.08493739002049376 0.629732023749859 0.7721549184201404
		outer loop
			vertex 0.289809 7.8287058 0.248291
			vertex -0.097419 7.870213 0.257035
			vertex 0.286901 7.7245712 0.333538
		endloop
	endfacet
	facet normal -0.17295021227926669 0.06002306823741659 0.983099921346718
		outer loop
			vertex -0.097419 7.870213 0.257035
			vertex -0.109333 7.7610989 0.261601
			vertex 0.286901 7.7245712 0.333538
		endloop
	endfacet
	facet normal 0.024569373825943916 0.7173479406243519 0.6962817518446123
		outer loop
			vertex 0.29108 7.9266739 0.147314
			vertex -0.06475 7.9415741 0.144519
			vertex 0.289809 7.8287058 0.248291
		endloop
	endfacet
	facet normal 0.10110611714469916 0.8266104441255163 0.55361785261906
		outer loop
			vertex -0.06475 7.9415741 0.144519
			vertex -0.097419 7.870213 0.257035
			vertex 0.289809 7.8287058 0.248291
		endloop
	endfacet
	facet normal -0.0003738866739161407 0.9838128691532764 0.17919848966203303
		outer loop
			vertex 0.263216 7.9776721 -0.132728
			vertex -0.087896 7.9769139 -0.129298
			vertex 0.29108 7.9266739 0.147314
		endloop
	endfacet
	facet normal 0.040535736418689024 0.9913880367510378 0.12452555825981039
		outer loop
			vertex -0.087896 7.9769139 -0.129298
			vertex -0.06475 7.9415741 0.144519
			vertex 0.29108 7.9266739 0.147314
		endloop
	endfacet
	facet normal 0.025033373224497855 0.9980520015698835 0.057144836926465686
		outer loop
			vertex -0.0993 7.9839902 -0.247892
			vertex -0.087896 7.9769139 -0.129298
			vertex 0.253326 7.976481 -0.271216
		endloop
	endfacet
	facet normal -0.0022417957508115882 0.9999618669368012 -0.008440321325555744
		outer loop
			vertex -0.087896 7.9769139 -0.129298
			vertex 0.263216 7.9776721 -0.132728
			vertex 0.253326 7.976481 -0.271216
		endloop
	endfacet
	facet normal 0.027682818854703646 0.7135429487892708 -0.7000643697356478
		outer loop
			vertex 0.251936 7.8712559 -0.378522
			vertex -0.104868 7.8910441 -0.372462
			vertex 0.253326 7.976481 -0.271216
		endloop
	endfacet
	facet normal -0.022428834946166543 0.8017628919336105 -0.5972212424899265
		outer loop
			vertex -0.104868 7.8910441 -0.372462
			vertex -0.0993 7.9839902 -0.247892
			vertex 0.253326 7.976481 -0.271216
		endloop
	endfacet
	facet normal -0.032823994006159984 -0.09937110382815592 -0.9945089085279515
		outer loop
			vertex 0.254083 7.6838169 -0.359864
			vertex -0.094204 7.738884 -0.353871
			vertex 0.251936 7.8712559 -0.378522
		endloop
	endfacet
	facet normal -0.023665411175736378 -0.12287868690736636 -0.9921394945358264
		outer loop
			vertex -0.094204 7.738884 -0.353871
			vertex -0.104868 7.8910441 -0.372462
			vertex 0.251936 7.8712559 -0.378522
		endloop
	endfacet
	facet normal -0.07848698120605523 -0.9400393786322659 -0.3319122781727484
		outer loop
			vertex 0.273366 7.6446872 -0.253601
			vertex -0.106936 7.674583 -0.248342
			vertex 0.254083 7.6838169 -0.359864
		endloop
	endfacet
	facet normal -0.14152209676691832 -0.8376876463258558 -0.5274949320322835
		outer loop
			vertex -0.106936 7.674583 -0.248342
			vertex -0.094204 7.738884 -0.353871
			vertex 0.254083 7.6838169 -0.359864
		endloop
	endfacet
	facet normal -0.07865041528683378 -0.9442859027918037 -0.3195907476193217
		outer loop
			vertex 0.273366 7.6446872 -0.253601
			vertex 0.270082 7.5659919 -0.020274
			vertex -0.106936 7.674583 -0.248342
		endloop
	endfacet
	facet normal -0.10046751199919117 -0.952514023328929 -0.28744271497887885
		outer loop
			vertex 0.270082 7.5659919 -0.020274
			vertex -0.099564 7.6197338 -0.069162
			vertex -0.106936 7.674583 -0.248342
		endloop
	endfacet
	facet normal -0.11290040621780803 -0.9926761416038452 0.04298344060631529
		outer loop
			vertex 0.340378 7.5638642 0.143942
			vertex 0.304483 7.5677609 0.139652
			vertex 0.303356 7.5611548 -0.015872
		endloop
	endfacet
	facet normal -0.1493004807117556 -0.9878546033247426 0.04304241105415035
		outer loop
			vertex 0.304483 7.5677609 0.139652
			vertex 0.270082 7.5659919 -0.020274
			vertex 0.303356 7.5611548 -0.015872
		endloop
	endfacet
	facet normal -0.2000678862937492 -0.9657948771141911 0.1649639239771414
		outer loop
			vertex 0.333832 7.590476 0.291804
			vertex 0.298612 7.5966091 0.284996
			vertex 0.340378 7.5638642 0.143942
		endloop
	endfacet
	facet normal -0.1281886952263361 -0.973749619820942 0.1880939560824334
		outer loop
			vertex 0.298612 7.5966091 0.284996
			vertex 0.304483 7.5677609 0.139652
			vertex 0.340378 7.5638642 0.143942
		endloop
	endfacet
	facet normal -0.19851886582975223 -0.35392735590467356 0.9139615345582086
		outer loop
			vertex 0.322569 7.721283 0.340012
			vertex 0.286901 7.7245712 0.333538
			vertex 0.333832 7.590476 0.291804
		endloop
	endfacet
	facet normal -0.23742513578236354 -0.363462154939639 0.9008465834010585
		outer loop
			vertex 0.286901 7.7245712 0.333538
			vertex 0.298612 7.5966091 0.284996
			vertex 0.333832 7.590476 0.291804
		endloop
	endfacet
	facet normal 0.08783723037648578 0.6621860988029904 0.74417349557201
		outer loop
			vertex 0.324666 7.8249688 0.247502
			vertex 0.289809 7.8287058 0.248291
			vertex 0.322569 7.721283 0.340012
		endloop
	endfacet
	facet normal -0.08145132458166839 0.6326985391163373 0.7701027466020003
		outer loop
			vertex 0.289809 7.8287058 0.248291
			vertex 0.286901 7.7245712 0.333538
			vertex 0.322569 7.721283 0.340012
		endloop
	endfacet
	facet normal 0.0240083187491407 0.705583724638045 0.708219745669904
		outer loop
			vertex 0.32311 7.9253311 0.147566
			vertex 0.29108 7.9266739 0.147314
			vertex 0.324666 7.8249688 0.247502
		endloop
	endfacet
	facet normal 0.09226385511022146 0.7140771625993585 0.6939605081661704
		outer loop
			vertex 0.29108 7.9266739 0.147314
			vertex 0.289809 7.8287058 0.248291
			vertex 0.324666 7.8249688 0.247502
		endloop
	endfacet
	facet normal -0.00027659212938063255 0.982997236180212 0.18362014366310295
		outer loop
			vertex 0.294822 7.9777389 -0.133038
			vertex 0.263216 7.9776721 -0.132728
			vertex 0.32311 7.9253311 0.147566
		endloop
	endfacet
	facet normal 0.03986282242485534 0.9837291409655912 0.17517971515967484
		outer loop
			vertex 0.263216 7.9776721 -0.132728
			vertex 0.29108 7.9266739 0.147314
			vertex 0.32311 7.9253311 0.147566
		endloop
	endfacet
	facet normal 0.020659570655710592 0.9997358148631348 -0.010073858261142658
		outer loop
			vertex 0.253326 7.976481 -0.271216
			vertex 0.263216 7.9776721 -0.132728
			vertex 0.285068 7.9758039 -0.273315
		endloop
	endfacet
	facet normal -0.002247071982780767 0.9999044927402513 -0.013636570879993207
		outer loop
			vertex 0.263216 7.9776721 -0.132728
			vertex 0.294822 7.9777389 -0.133038
			vertex 0.285068 7.9758039 -0.273315
		endloop
	endfacet
	facet normal 0.027115813746154606 0.7047814047383617 -0.7089061321359166
		outer loop
			vertex 0.284054 7.869472 -0.379067
			vertex 0.251936 7.8712559 -0.378522
			vertex 0.285068 7.9758039 -0.273315
		endloop
	endfacet
	facet normal -0.031035432950712823 0.713852867618705 -0.6996076652625481
		outer loop
			vertex 0.251936 7.8712559 -0.378522
			vertex 0.253326 7.976481 -0.271216
			vertex 0.285068 7.9758039 -0.273315
		endloop
	endfacet
	facet normal -0.0325333570019668 -0.0976325833288707 -0.9946906349989999
		outer loop
			vertex 0.285435 7.6788611 -0.360403
			vertex 0.254083 7.6838169 -0.359864
			vertex 0.284054 7.869472 -0.379067
		endloop
	endfacet
	facet normal -0.022394856975763242 -0.09928135275767253 -0.9948073599323851
		outer loop
			vertex 0.254083 7.6838169 -0.359864
			vertex 0.251936 7.8712559 -0.378522
			vertex 0.284054 7.869472 -0.379067
		endloop
	endfacet
	facet normal -0.07882751516421513 -0.9468476002660793 -0.31187472600934224
		outer loop
			vertex 0.307599 7.641994 -0.254077
			vertex 0.273366 7.6446872 -0.253601
			vertex 0.285435 7.6788611 -0.360403
		endloop
	endfacet
	facet normal -0.1533994058513079 -0.9359956414363368 -0.3168292623743053
		outer loop
			vertex 0.273366 7.6446872 -0.253601
			vertex 0.254083 7.6838169 -0.359864
			vertex 0.285435 7.6788611 -0.360403
		endloop
	endfacet
	facet normal -0.09444576553534936 -0.9422088885300364 -0.32143803095999
		outer loop
			vertex 0.303356 7.5611548 -0.015872
			vertex 0.270082 7.5659919 -0.020274
			vertex 0.307599 7.641994 -0.254077
		endloop
	endfacet
	facet normal -0.07873274219620259 -0.9442793930196625 -0.31958971076160186
		outer loop
			vertex 0.270082 7.5659919 -0.020274
			vertex 0.273366 7.6446872 -0.253601
			vertex 0.307599 7.641994 -0.254077
		endloop
	endfacet
endsolid exported
