solid exported
	facet normal -0.4526909918448822 -0.22063670199047206 0.8639388355880666
		outer loop
			vertex 0.142909 4.486207 1.631254
			vertex 0.130332 4.629004 1.661132
			vertex 0.06166 4.5482321 1.604521
		endloop
	endfacet
	facet normal -0.5926001932869358 -0.05919903630088546 0.8033184206884172
		outer loop
			vertex 0.130332 4.629004 1.661132
			vertex 0.044047 4.64151 1.598402
			vertex 0.06166 4.5482321 1.604521
		endloop
	endfacet
	facet normal -0.619391293463509 0.3562933444448753 0.6995780716159469
		outer loop
			vertex 0.04892 4.7722712 1.5361201
			vertex 0.044047 4.64151 1.598402
			vertex 0.126851 4.7802811 1.6010391
		endloop
	endfacet
	facet normal -0.5315198909314085 0.30211724461439043 0.7913354383893546
		outer loop
			vertex 0.044047 4.64151 1.598402
			vertex 0.130332 4.629004 1.661132
			vertex 0.126851 4.7802811 1.6010391
		endloop
	endfacet
	facet normal 0.0727430361937668 -0.2105710666203383 0.9748683380783714
		outer loop
			vertex 0.23546 4.486207 1.624348
			vertex 0.250201 4.6300821 1.654325
			vertex 0.142909 4.486207 1.631254
		endloop
	endfacet
	facet normal 0.05734407273002876 -0.19962085269696583 0.9781938317589564
		outer loop
			vertex 0.250201 4.6300821 1.654325
			vertex 0.130332 4.629004 1.661132
			vertex 0.142909 4.486207 1.631254
		endloop
	endfacet
	facet normal 0.16122853448705743 0.3675484199835293 0.915922223027025
		outer loop
			vertex 0.126851 4.7802811 1.6010391
			vertex 0.130332 4.629004 1.661132
			vertex 0.228348 4.78196 1.582499
		endloop
	endfacet
	facet normal 0.04723757239234185 0.432590728389006 0.9003520830577044
		outer loop
			vertex 0.130332 4.629004 1.661132
			vertex 0.250201 4.6300821 1.654325
			vertex 0.228348 4.78196 1.582499
		endloop
	endfacet
	facet normal 0.18336104695260722 0.2475672583976689 0.9513617498249053
		outer loop
			vertex 0.299045 4.5570149 1.593667
			vertex 0.333492 4.663569 1.5592999
			vertex 0.23546 4.486207 1.624348
		endloop
	endfacet
	facet normal 0.7707132843395912 -0.2046880343186042 0.6034101772006059
		outer loop
			vertex 0.333492 4.663569 1.5592999
			vertex 0.250201 4.6300821 1.654325
			vertex 0.23546 4.486207 1.624348
		endloop
	endfacet
	facet normal 0.5815237872547364 0.4146741966480603 0.6999109911204382
		outer loop
			vertex 0.228348 4.78196 1.582499
			vertex 0.250201 4.6300821 1.654325
			vertex 0.30394 4.7793779 1.5212229
		endloop
	endfacet
	facet normal 0.6234722189010392 0.3831730169251435 0.6815136325555772
		outer loop
			vertex 0.250201 4.6300821 1.654325
			vertex 0.333492 4.663569 1.5592999
			vertex 0.30394 4.7793779 1.5212229
		endloop
	endfacet
	facet normal -0.225222147127661 0.8946567713747128 0.3858292962912244
		outer loop
			vertex 0.0597 4.8415909 1.381675
			vertex 0.04892 4.7722712 1.5361201
			vertex 0.127129 4.8494349 1.4028471
		endloop
	endfacet
	facet normal -0.34792568817232583 0.885336553809866 0.3084264936705076
		outer loop
			vertex 0.04892 4.7722712 1.5361201
			vertex 0.126851 4.7802811 1.6010391
			vertex 0.127129 4.8494349 1.4028471
		endloop
	endfacet
	facet normal 0.11299608496937515 0.9380785664697183 0.3274759348589024
		outer loop
			vertex 0.127129 4.8494349 1.4028471
			vertex 0.126851 4.7802811 1.6010391
			vertex 0.196547 4.8438621 1.394858
		endloop
	endfacet
	facet normal 0.040324593126946244 0.9508987415521268 0.3068639934950464
		outer loop
			vertex 0.126851 4.7802811 1.6010391
			vertex 0.228348 4.78196 1.582499
			vertex 0.196547 4.8438621 1.394858
		endloop
	endfacet
	facet normal 0.4450867699500667 0.8701237986034317 0.21161838842442507
		outer loop
			vertex 0.196547 4.8438621 1.394858
			vertex 0.228348 4.78196 1.582499
			vertex 0.2601 4.8226471 1.348421
		endloop
	endfacet
	facet normal 0.18935861218566605 0.9627476238183575 0.19302934705175012
		outer loop
			vertex 0.228348 4.78196 1.582499
			vertex 0.30394 4.7793779 1.5212229
			vertex 0.2601 4.8226471 1.348421
		endloop
	endfacet
	facet normal -0.46707643726602593 0.6006508483047539 0.6488899445835602
		outer loop
			vertex 0.084412 4.8950801 1.222445
			vertex 0.128863 4.9015341 1.248467
			vertex 0.114806 5.0083332 1.1394891
		endloop
	endfacet
	facet normal -0.13372772489798967 0.6991177293120139 0.7023897039074686
		outer loop
			vertex 0.128863 4.9015341 1.248467
			vertex 0.13939 5.0044608 1.148024
			vertex 0.114806 5.0083332 1.1394891
		endloop
	endfacet
	facet normal -0.22382444057544104 0.6035057685106289 0.7652995538842853
		outer loop
			vertex 0.165924 5.010354 1.151137
			vertex 0.13939 5.0044608 1.148024
			vertex 0.17993 4.896102 1.245331
		endloop
	endfacet
	facet normal 0.11713894359254982 0.6874483144133183 0.7167239935318956
		outer loop
			vertex 0.13939 5.0044608 1.148024
			vertex 0.128863 4.9015341 1.248467
			vertex 0.17993 4.896102 1.245331
		endloop
	endfacet
	facet normal 0.7195599438521557 0.49213364585626024 0.48993669164465276
		outer loop
			vertex 0.165924 5.010354 1.151137
			vertex 0.17993 4.896102 1.245331
			vertex 0.186969 4.9917421 1.138924
		endloop
	endfacet
	facet normal 0.6314600732346987 0.5554656487425588 0.5410324287669247
		outer loop
			vertex 0.17993 4.896102 1.245331
			vertex 0.221814 4.8876209 1.2051539
			vertex 0.186969 4.9917421 1.138924
		endloop
	endfacet
	facet normal -0.8813032729473673 -0.026697459464130727 0.471796340331736
		outer loop
			vertex 0.091718 5.2374091 1.053215
			vertex 0.108631 5.2410841 1.085016
			vertex 0.055934 5.5072012 1.0016381
		endloop
	endfacet
	facet normal -0.8232221056116829 0.014797387679858696 0.5675265651492619
		outer loop
			vertex 0.108631 5.2410841 1.085016
			vertex 0.090472 5.5100002 1.051664
			vertex 0.055934 5.5072012 1.0016381
		endloop
	endfacet
	facet normal -0.12752165280285505 0.9909656222264124 0.041537496696932526
		outer loop
			vertex 0.0268785 5.8935642 0.901784
			vertex 0.0789854 5.8969932 0.979948
			vertex 0.0766747 5.8992662 0.9186268
		endloop
	endfacet
	facet normal 0.5818000905103304 0.10066151139786378 0.8070786298777022
		outer loop
			vertex 0.2303623 5.8983235 0.9524692
			vertex 0.1502617 5.8925848 1.0109272
			vertex 0.2299831 5.8899045 0.9537926
		endloop
	endfacet
	facet normal 0.5788432143780136 0.1561415475575959 0.800350142309507
		outer loop
			vertex 0.1502617 5.8925848 1.0109272
			vertex 0.1511532 5.8842535 1.0119078
			vertex 0.2299831 5.8899045 0.9537926
		endloop
	endfacet
	facet normal -0.9808301484003569 -0.08683116588720595 0.17444932966223367
		outer loop
			vertex 0.08399 5.229104 1.005631
			vertex 0.091718 5.2374091 1.053215
			vertex 0.046637 5.5082269 0.934548
		endloop
	endfacet
	facet normal -0.9852875686843501 -0.10488865621564847 0.13493248976194638
		outer loop
			vertex 0.091718 5.2374091 1.053215
			vertex 0.055934 5.5072012 1.0016381
			vertex 0.046637 5.5082269 0.934548
		endloop
	endfacet
	facet normal -0.1068994522497595 0.9941719057297467 0.013954532109152012
		outer loop
			vertex 0.0182555 5.8939009 0.8117393
			vertex 0.0268785 5.8935642 0.901784
			vertex 0.0552005 5.8978572 0.8128972
		endloop
	endfacet
	facet normal -0.11729136694222704 0.9930410937120121 0.010588741194053262
		outer loop
			vertex 0.0268785 5.8935642 0.901784
			vertex 0.0766747 5.8992662 0.9186268
			vertex 0.0552005 5.8978572 0.8128972
		endloop
	endfacet
	facet normal 0.9488544693610125 0.04120352129369472 0.31301352336062327
		outer loop
			vertex 0.265295 5.8897958 0.8476984
			vertex 0.2303623 5.8983235 0.9524692
			vertex 0.264766 5.8815532 0.850387
		endloop
	endfacet
	facet normal 0.9479686466276576 0.007333532958900541 0.3182792238039863
		outer loop
			vertex 0.2303623 5.8983235 0.9524692
			vertex 0.2299831 5.8899045 0.9537926
			vertex 0.264766 5.8815532 0.850387
		endloop
	endfacet
	facet normal -0.9711726973217095 -0.17199692157133883 -0.1650474202974952
		outer loop
			vertex 0.046637 5.5082269 0.934548
			vertex 0.056809 5.5116439 0.871133
			vertex 0.08399 5.229104 1.005631
		endloop
	endfacet
	facet normal -0.9943651880663373 -0.10440503200667048 -0.018370140268482313
		outer loop
			vertex 0.056809 5.5116439 0.871133
			vertex 0.084513 5.2279558 0.983847
			vertex 0.08399 5.229104 1.005631
		endloop
	endfacet
	facet normal -0.9985880230285001 -0.027101713118607762 0.04568870112039368
		outer loop
			vertex 0.082496 5.2153058 0.932259
			vertex 0.084513 5.2279558 0.983847
			vertex 0.067769 5.525589 0.794435
		endloop
	endfacet
	facet normal -0.9723443587315914 -0.16185363505746694 -0.16837413358807404
		outer loop
			vertex 0.084513 5.2279558 0.983847
			vertex 0.056809 5.5116439 0.871133
			vertex 0.067769 5.525589 0.794435
		endloop
	endfacet
	facet normal -0.09737714418473399 0.9719671231598764 -0.21400374596426838
		outer loop
			vertex 0.0552005 5.8978572 0.8128972
			vertex 0.1091449 5.8743563 0.6816142
			vertex 0.0182555 5.8939009 0.8117393
		endloop
	endfacet
	facet normal 0.02785124450578038 0.9911982526500323 -0.12942307415218668
		outer loop
			vertex 0.1091449 5.8743563 0.6816142
			vertex 0.0424504 5.8820434 0.7261342
			vertex 0.0182555 5.8939009 0.8117393
		endloop
	endfacet
	facet normal -0.06750028427513877 0.961300512456212 -0.2671049164171258
		outer loop
			vertex 0.1166661 5.8629584 0.6386929
			vertex 0.0424504 5.8820434 0.7261342
			vertex 0.1091449 5.8743563 0.6816142
		endloop
	endfacet
	facet normal 0.9942107298334948 -0.09338037532442182 -0.05315195375731627
		outer loop
			vertex 0.2575176 5.8778706 0.7231725
			vertex 0.265295 5.8897958 0.8476984
			vertex 0.2569767 5.8699961 0.7268893
		endloop
	endfacet
	facet normal 0.9951208472337645 -0.08184029211158166 -0.05510595238126046
		outer loop
			vertex 0.265295 5.8897958 0.8476984
			vertex 0.264766 5.8815532 0.850387
			vertex 0.2569767 5.8699961 0.7268893
		endloop
	endfacet
	facet normal 0.8502882888767309 -0.2742361933114458 -0.44922637509069835
		outer loop
			vertex 0.203846 5.8561392 0.63485
			vertex 0.2575176 5.8778706 0.7231725
			vertex 0.2033103 5.8487606 0.6383404
		endloop
	endfacet
	facet normal 0.850616715127101 -0.2710766320190671 -0.4505204362951581
		outer loop
			vertex 0.2575176 5.8778706 0.7231725
			vertex 0.2569767 5.8699961 0.7268893
			vertex 0.2033103 5.8487606 0.6383404
		endloop
	endfacet
	facet normal -0.2967151027814429 0.11814057169982323 -0.9476301773898069
		outer loop
			vertex 0.09237 4.9121451 1.0263079
			vertex 0.115206 4.9054341 1.018321
			vertex 0.071269 4.8685908 1.027485
		endloop
	endfacet
	facet normal -0.49050317882069877 0.3912669647388453 -0.7786634663773826
		outer loop
			vertex 0.115206 4.9054341 1.018321
			vertex 0.108222 4.865448 1.002628
			vertex 0.071269 4.8685908 1.027485
		endloop
	endfacet
	facet normal -0.17652619713939924 0.5323762702002887 -0.8278973418553361
		outer loop
			vertex 0.158898 4.8678899 0.993393
			vertex 0.108222 4.865448 1.002628
			vertex 0.172738 4.9147139 1.020552
		endloop
	endfacet
	facet normal -0.023449634887626154 0.36877916504494074 -0.9292212018956485
		outer loop
			vertex 0.108222 4.865448 1.002628
			vertex 0.115206 4.9054341 1.018321
			vertex 0.172738 4.9147139 1.020552
		endloop
	endfacet
	facet normal 0.2437709448042766 0.43167692200048347 -0.8684646000162697
		outer loop
			vertex 0.196536 4.8733549 1.0066741
			vertex 0.158898 4.8678899 0.993393
			vertex 0.172738 4.9147139 1.020552
		endloop
	endfacet
	facet normal -0.429201218804438 0.5929995488914668 -0.6812766316198597
		outer loop
			vertex 0.021289 4.715239 0.96171
			vertex 0.045611 4.7999148 1.0200911
			vertex 0.096624 4.7125239 0.911886
		endloop
	endfacet
	facet normal -0.6933659242072905 0.36473437630020134 -0.6214599986266801
		outer loop
			vertex 0.045611 4.7999148 1.0200911
			vertex 0.100068 4.801753 0.960412
			vertex 0.096624 4.7125239 0.911886
		endloop
	endfacet
	facet normal -0.13703995894127213 0.4773254185202162 -0.8679749388593402
		outer loop
			vertex 0.096624 4.7125239 0.911886
			vertex 0.100068 4.801753 0.960412
			vertex 0.193528 4.718184 0.899699
		endloop
	endfacet
	facet normal -0.08319663114092878 0.5231522102161463 -0.848168665722073
		outer loop
			vertex 0.100068 4.801753 0.960412
			vertex 0.17842 4.803915 0.95406
			vertex 0.193528 4.718184 0.899699
		endloop
	endfacet
	facet normal 0.4365458897456983 0.5353973995066376 -0.7230334091504118
		outer loop
			vertex 0.193528 4.718184 0.899699
			vertex 0.17842 4.803915 0.95406
			vertex 0.281646 4.7124972 0.948691
		endloop
	endfacet
	facet normal 0.39317607159427187 0.489667204407207 -0.7782278622959515
		outer loop
			vertex 0.17842 4.803915 0.95406
			vertex 0.242293 4.793839 0.97999
			vertex 0.281646 4.7124972 0.948691
		endloop
	endfacet
	facet normal -0.5230187082841364 0.2773586107754275 -0.8059302896736905
		outer loop
			vertex 0.021289 4.715239 0.96171
			vertex 0.096624 4.7125239 0.911886
			vertex 0.013099 4.6393819 0.940919
		endloop
	endfacet
	facet normal -0.4778047436418189 0.20672659631332724 -0.8537954915142633
		outer loop
			vertex 0.096624 4.7125239 0.911886
			vertex 0.092062 4.6318512 0.894906
			vertex 0.013099 4.6393819 0.940919
		endloop
	endfacet
	facet normal -0.37357697784510197 -0.2583423511377424 -0.890898126180959
		outer loop
			vertex 0.030593 4.5764751 0.951825
			vertex 0.013099 4.6393819 0.940919
			vertex 0.094892 4.548924 0.932852
		endloop
	endfacet
	facet normal -0.49305605849980416 -0.3758544183378808 -0.7846204046496185
		outer loop
			vertex 0.013099 4.6393819 0.940919
			vertex 0.092062 4.6318512 0.894906
			vertex 0.094892 4.548924 0.932852
		endloop
	endfacet
	facet normal -0.13410539623070802 0.21136286629827922 -0.9681639744650595
		outer loop
			vertex 0.096624 4.7125239 0.911886
			vertex 0.193528 4.718184 0.899699
			vertex 0.092062 4.6318512 0.894906
		endloop
	endfacet
	facet normal -0.08099129639268375 0.1498941922457649 -0.9853791864250139
		outer loop
			vertex 0.193528 4.718184 0.899699
			vertex 0.197344 4.6207838 0.884569
			vertex 0.092062 4.6318512 0.894906
		endloop
	endfacet
	facet normal -0.0771384011716521 -0.4170257955499462 -0.9056153448957321
		outer loop
			vertex 0.094892 4.548924 0.932852
			vertex 0.092062 4.6318512 0.894906
			vertex 0.21512 4.5500798 0.922079
		endloop
	endfacet
	facet normal -0.13608747531583099 -0.49077689092241034 -0.8605917977756329
		outer loop
			vertex 0.092062 4.6318512 0.894906
			vertex 0.197344 4.6207838 0.884569
			vertex 0.21512 4.5500798 0.922079
		endloop
	endfacet
	facet normal 0.48774021815084767 0.15262904484563422 -0.8595428170066185
		outer loop
			vertex 0.193528 4.718184 0.899699
			vertex 0.281646 4.7124972 0.948691
			vertex 0.197344 4.6207838 0.884569
		endloop
	endfacet
	facet normal 0.379171538238149 0.27021744915148216 -0.8849923585908425
		outer loop
			vertex 0.281646 4.7124972 0.948691
			vertex 0.293767 4.6199288 0.92562
			vertex 0.197344 4.6207838 0.884569
		endloop
	endfacet
	facet normal 0.419847468276787 -0.3407245936645729 -0.8412103510143489
		outer loop
			vertex 0.21512 4.5500798 0.922079
			vertex 0.197344 4.6207838 0.884569
			vertex 0.27319 4.578649 0.93949
		endloop
	endfacet
	facet normal 0.3465553802244888 -0.4494015764771236 -0.8233696566532774
		outer loop
			vertex 0.197344 4.6207838 0.884569
			vertex 0.293767 4.6199288 0.92562
			vertex 0.27319 4.578649 0.93949
		endloop
	endfacet
	facet normal -0.45514176308465876 -0.8145752846788518 -0.3596012807076136
		outer loop
			vertex 0.030593 4.5764751 0.951825
			vertex 0.094892 4.548924 0.932852
			vertex 0.00549 4.5397539 1.066779
		endloop
	endfacet
	facet normal -0.5643460020835541 -0.7076284870334889 -0.4251770387391641
		outer loop
			vertex 0.094892 4.548924 0.932852
			vertex 0.095089 4.4796772 1.047839
			vertex 0.00549 4.5397539 1.066779
		endloop
	endfacet
	facet normal -0.03795887302187264 -0.856066329254142 -0.5154702356841259
		outer loop
			vertex 0.094892 4.548924 0.932852
			vertex 0.21512 4.5500798 0.922079
			vertex 0.095089 4.4796772 1.047839
		endloop
	endfacet
	facet normal -0.0101531378669336 -0.8683673729688359 -0.49581752626813996
		outer loop
			vertex 0.21512 4.5500798 0.922079
			vertex 0.213721 4.482605 1.040282
			vertex 0.095089 4.4796772 1.047839
		endloop
	endfacet
	facet normal 0.4989909919055084 -0.7551465649181831 -0.42516074076686017
		outer loop
			vertex 0.21512 4.5500798 0.922079
			vertex 0.27319 4.578649 0.93949
			vertex 0.213721 4.482605 1.040282
		endloop
	endfacet
	facet normal 0.49351089557538746 -0.7562969561623138 -0.429490290982227
		outer loop
			vertex 0.27319 4.578649 0.93949
			vertex 0.306132 4.5264821 1.069204
			vertex 0.213721 4.482605 1.040282
		endloop
	endfacet
	facet normal -0.5436979319573133 -0.8356070536259192 0.07844367862327063
		outer loop
			vertex 0.095089 4.4796772 1.047839
			vertex 0.108674 4.4754071 1.096511
			vertex 0.00549 4.5397539 1.066779
		endloop
	endfacet
	facet normal -0.5487006131148934 -0.8286299861123484 0.11090528969706256
		outer loop
			vertex 0.108674 4.4754071 1.096511
			vertex 0.040404 4.5234718 1.1178631
			vertex 0.00549 4.5397539 1.066779
		endloop
	endfacet
	facet normal 0.015713714844287897 -0.9904399652416843 -0.13704654106486475
		outer loop
			vertex 0.213721 4.482605 1.040282
			vertex 0.203009 4.4752588 1.092145
			vertex 0.095089 4.4796772 1.047839
		endloop
	endfacet
	facet normal -0.005540013787310961 -0.9962917621568637 -0.08586054335728294
		outer loop
			vertex 0.203009 4.4752588 1.092145
			vertex 0.108674 4.4754071 1.096511
			vertex 0.095089 4.4796772 1.047839
		endloop
	endfacet
	facet normal 0.42570272863973496 -0.8998071512906535 -0.09552108309103019
		outer loop
			vertex 0.276801 4.507925 1.113294
			vertex 0.203009 4.4752588 1.092145
			vertex 0.306132 4.5264821 1.069204
		endloop
	endfacet
	facet normal 0.43798907649800933 -0.8982281382152625 -0.03676656887397292
		outer loop
			vertex 0.203009 4.4752588 1.092145
			vertex 0.213721 4.482605 1.040282
			vertex 0.306132 4.5264821 1.069204
		endloop
	endfacet
	facet normal -0.3054323199511667 -0.9519724829028142 0.021435711443740457
		outer loop
			vertex -0.042772 4.4848442 1.186156
			vertex 0.103111 4.4366531 1.124613
			vertex -0.017397 4.4822311 1.431669
		endloop
	endfacet
	facet normal -0.5523853181193527 -0.8282897743095816 -0.09384300773293776
		outer loop
			vertex 0.103111 4.4366531 1.124613
			vertex 0.115844 4.3960128 1.408368
			vertex -0.017397 4.4822311 1.431669
		endloop
	endfacet
	facet normal -0.09876026838408013 -0.9856717272127173 -0.1367393709295281
		outer loop
			vertex 0.115844 4.3960128 1.408368
			vertex 0.103111 4.4366531 1.124613
			vertex 0.253676 4.3835778 1.398455
		endloop
	endfacet
	facet normal -0.058847746859660356 -0.9855770275159702 -0.15866589275053988
		outer loop
			vertex 0.103111 4.4366531 1.124613
			vertex 0.238125 4.4294229 1.119449
			vertex 0.253676 4.3835778 1.398455
		endloop
	endfacet
	facet normal 0.7422184304238627 -0.6534433028470871 -0.14874021481572447
		outer loop
			vertex 0.253676 4.3835778 1.398455
			vertex 0.238125 4.4294229 1.119449
			vertex 0.350966 4.4822311 1.450533
		endloop
	endfacet
	facet normal 0.3805407554150679 -0.924593278314807 0.01777647780657657
		outer loop
			vertex 0.238125 4.4294229 1.119449
			vertex 0.369103 4.4842391 1.166715
			vertex 0.350966 4.4822311 1.450533
		endloop
	endfacet
	facet normal -0.41424057473072745 -0.7709202773142875 0.483825043039753
		outer loop
			vertex -0.017397 4.4822311 1.431669
			vertex 0.115844 4.3960128 1.408368
			vertex 0.06166 4.5482321 1.604521
		endloop
	endfacet
	facet normal -0.638297866618501 -0.6835114217121103 0.3541016377530046
		outer loop
			vertex 0.115844 4.3960128 1.408368
			vertex 0.142909 4.486207 1.631254
			vertex 0.06166 4.5482321 1.604521
		endloop
	endfacet
	facet normal 0.027763413155842232 -0.9277884236463385 0.37207235027314295
		outer loop
			vertex 0.142909 4.486207 1.631254
			vertex 0.115844 4.3960128 1.408368
			vertex 0.23546 4.486207 1.624348
		endloop
	endfacet
	facet normal -0.052714104387552835 -0.910769702502244 0.40953604505903085
		outer loop
			vertex 0.115844 4.3960128 1.408368
			vertex 0.253676 4.3835778 1.398455
			vertex 0.23546 4.486207 1.624348
		endloop
	endfacet
	facet normal 0.7699938467465762 -0.5552403442352277 0.31435272562196126
		outer loop
			vertex 0.23546 4.486207 1.624348
			vertex 0.253676 4.3835778 1.398455
			vertex 0.299045 4.5570149 1.593667
		endloop
	endfacet
	facet normal 0.4421857587308041 -0.7190757802158698 0.5360986635709899
		outer loop
			vertex 0.253676 4.3835778 1.398455
			vertex 0.350966 4.4822311 1.450533
			vertex 0.299045 4.5570149 1.593667
		endloop
	endfacet
	facet normal 0.8520900282816576 -0.37353898780965333 -0.36662134183528344
		outer loop
			vertex 0.306132 4.5264821 1.069204
			vertex 0.27319 4.578649 0.93949
			vertex 0.344125 4.5974178 1.085232
		endloop
	endfacet
	facet normal 0.7989311715116497 -0.5069660217225163 -0.32356519591245986
		outer loop
			vertex 0.27319 4.578649 0.93949
			vertex 0.293767 4.6199288 0.92562
			vertex 0.344125 4.5974178 1.085232
		endloop
	endfacet
	facet normal 0.9435101074088081 0.1910209928117453 -0.27073909492837295
		outer loop
			vertex 0.293767 4.6199288 0.92562
			vertex 0.281646 4.7124972 0.948691
			vertex 0.344125 4.5974178 1.085232
		endloop
	endfacet
	facet normal 0.936246614372115 0.11399126527776603 -0.3323375821617626
		outer loop
			vertex 0.281646 4.7124972 0.948691
			vertex 0.332247 4.6913199 1.0839781
			vertex 0.344125 4.5974178 1.085232
		endloop
	endfacet
	facet normal 0.7396308268381273 -0.49834746330723806 0.45232294415161983
		outer loop
			vertex 0.344125 4.5974178 1.085232
			vertex 0.309038 4.5837898 1.127591
			vertex 0.306132 4.5264821 1.069204
		endloop
	endfacet
	facet normal 0.8267438696193432 -0.4215197865418932 0.372579714424325
		outer loop
			vertex 0.309038 4.5837898 1.127591
			vertex 0.276801 4.507925 1.113294
			vertex 0.306132 4.5264821 1.069204
		endloop
	endfacet
	facet normal 0.971342023959426 -0.12857039606466678 0.19991079447138627
		outer loop
			vertex 0.319874 4.6655712 1.127537
			vertex 0.309038 4.5837898 1.127591
			vertex 0.332247 4.6913199 1.0839781
		endloop
	endfacet
	facet normal 0.7493606102499702 0.10352250513225766 0.6540196990434876
		outer loop
			vertex 0.309038 4.5837898 1.127591
			vertex 0.344125 4.5974178 1.085232
			vertex 0.332247 4.6913199 1.0839781
		endloop
	endfacet
	facet normal 0.9206278214989682 -0.3863902886842673 0.056097763703672004
		outer loop
			vertex 0.350966 4.4822311 1.450533
			vertex 0.369103 4.4842391 1.166715
			vertex 0.404858 4.6022801 1.392978
		endloop
	endfacet
	facet normal 0.9213333381180203 -0.3848381853339479 0.05517654557128072
		outer loop
			vertex 0.369103 4.4842391 1.166715
			vertex 0.402268 4.5658889 1.182409
			vertex 0.404858 4.6022801 1.392978
		endloop
	endfacet
	facet normal 0.9363213777377968 0.3448948441127266 -0.06595319625046353
		outer loop
			vertex 0.34591 4.7563982 1.362051
			vertex 0.404858 4.6022801 1.392978
			vertex 0.353956 4.6990299 1.176277
		endloop
	endfacet
	facet normal 0.9387571900383535 0.33742309440838425 -0.06986124470094658
		outer loop
			vertex 0.404858 4.6022801 1.392978
			vertex 0.402268 4.5658889 1.182409
			vertex 0.353956 4.6990299 1.176277
		endloop
	endfacet
	facet normal 0.8986893373525154 -0.15865131035742866 0.40888535881193827
		outer loop
			vertex 0.299045 4.5570149 1.593667
			vertex 0.350966 4.4822311 1.450533
			vertex 0.333492 4.663569 1.5592999
		endloop
	endfacet
	facet normal 0.8777356131110858 -0.18141622321907105 0.44347305152560834
		outer loop
			vertex 0.350966 4.4822311 1.450533
			vertex 0.404858 4.6022801 1.392978
			vertex 0.333492 4.663569 1.5592999
		endloop
	endfacet
	facet normal 0.9311205501258842 0.3039003161227588 0.20164106475060647
		outer loop
			vertex 0.30394 4.7793779 1.5212229
			vertex 0.333492 4.663569 1.5592999
			vertex 0.34591 4.7563982 1.362051
		endloop
	endfacet
	facet normal 0.8900359898925689 0.3883456294333518 0.23879616578992463
		outer loop
			vertex 0.333492 4.663569 1.5592999
			vertex 0.404858 4.6022801 1.392978
			vertex 0.34591 4.7563982 1.362051
		endloop
	endfacet
	facet normal 0.8363333018793203 0.4951564680301076 -0.23530125442840916
		outer loop
			vertex 0.281646 4.7124972 0.948691
			vertex 0.242293 4.793839 0.97999
			vertex 0.332247 4.6913199 1.0839781
		endloop
	endfacet
	facet normal 0.8458681615326321 0.44700694053665896 -0.29101863929559724
		outer loop
			vertex 0.242293 4.793839 0.97999
			vertex 0.279731 4.784801 1.074924
			vertex 0.332247 4.6913199 1.0839781
		endloop
	endfacet
	facet normal 0.7953263186679235 0.44798023318123853 0.40837453093087456
		outer loop
			vertex 0.283753 4.7388468 1.117502
			vertex 0.319874 4.6655712 1.127537
			vertex 0.279731 4.784801 1.074924
		endloop
	endfacet
	facet normal 0.7416857824977611 0.46361427310443776 0.4847308591523007
		outer loop
			vertex 0.319874 4.6655712 1.127537
			vertex 0.332247 4.6913199 1.0839781
			vertex 0.279731 4.784801 1.074924
		endloop
	endfacet
	facet normal 0.759491243073962 0.6485063964287711 -0.05111267440603904
		outer loop
			vertex 0.298095 4.8021808 1.23244
			vertex 0.34591 4.7563982 1.362051
			vertex 0.300895 4.7913709 1.136892
		endloop
	endfacet
	facet normal 0.8808967040646543 0.46164913314992245 -0.10440821150634758
		outer loop
			vertex 0.34591 4.7563982 1.362051
			vertex 0.353956 4.6990299 1.176277
			vertex 0.300895 4.7913709 1.136892
		endloop
	endfacet
	facet normal 0.5910938685928351 0.8049508123386779 0.05159678504770456
		outer loop
			vertex 0.2601 4.8226471 1.348421
			vertex 0.30394 4.7793779 1.5212229
			vertex 0.298095 4.8021808 1.23244
		endloop
	endfacet
	facet normal 0.6174995816534017 0.7850128697195833 0.04948798876998878
		outer loop
			vertex 0.30394 4.7793779 1.5212229
			vertex 0.34591 4.7563982 1.362051
			vertex 0.298095 4.8021808 1.23244
		endloop
	endfacet
	facet normal 0.8052270357935929 0.5377221411283685 -0.24992862934723398
		outer loop
			vertex 0.20929 4.876976 1.0555561
			vertex 0.196536 4.8733549 1.0066741
			vertex 0.17017 4.943924 1.073557
		endloop
	endfacet
	facet normal 0.795754282677841 0.5458826747392148 -0.2622731915759516
		outer loop
			vertex 0.196536 4.8733549 1.0066741
			vertex 0.172738 4.9147139 1.020552
			vertex 0.17017 4.943924 1.073557
		endloop
	endfacet
	facet normal 0.8709001881254406 0.47567455531610414 0.12355800155351658
		outer loop
			vertex 0.207816 4.8720689 1.084837
			vertex 0.20929 4.876976 1.0555561
			vertex 0.17017 4.943924 1.073557
		endloop
	endfacet
	facet normal 0.9146932808566034 0.38366468608948406 0.12703389549108918
		outer loop
			vertex 0.237459 4.8734889 1.145166
			vertex 0.243904 4.870872 1.106663
			vertex 0.19665 4.9821649 1.110786
		endloop
	endfacet
	facet normal 0.6151644907023159 0.2883768592023233 -0.7337652461486329
		outer loop
			vertex 0.243904 4.870872 1.106663
			vertex 0.17017 4.943924 1.073557
			vertex 0.19665 4.9821649 1.110786
		endloop
	endfacet
	facet normal 0.8970086738976146 0.40813725520494987 0.16970391824060077
		outer loop
			vertex 0.186969 4.9917421 1.138924
			vertex 0.221814 4.8876209 1.2051539
			vertex 0.19665 4.9821649 1.110786
		endloop
	endfacet
	facet normal 0.9100645293413175 0.3879144964259133 0.1459619672976362
		outer loop
			vertex 0.221814 4.8876209 1.2051539
			vertex 0.237459 4.8734889 1.145166
			vertex 0.19665 4.9821649 1.110786
		endloop
	endfacet
	facet normal -0.7427869045817951 -0.5882604412524035 0.3197143531956656
		outer loop
			vertex -0.025599 4.5879211 1.083176
			vertex 0.00549 4.5397539 1.066779
			vertex 0.003281 4.5837898 1.142671
		endloop
	endfacet
	facet normal -0.7424962576792873 -0.5885358316881788 0.31988260682843844
		outer loop
			vertex 0.00549 4.5397539 1.066779
			vertex 0.040404 4.5234718 1.1178631
			vertex 0.003281 4.5837898 1.142671
		endloop
	endfacet
	facet normal -0.9954620805079402 -0.026693971965710203 0.09133826214406215
		outer loop
			vertex -0.025435 4.6721859 1.1095901
			vertex -0.025599 4.5879211 1.083176
			vertex -0.019027 4.6640439 1.177049
		endloop
	endfacet
	facet normal -0.8369583080774853 -0.3949333616863532 0.3788514621420774
		outer loop
			vertex -0.025599 4.5879211 1.083176
			vertex 0.003281 4.5837898 1.142671
			vertex -0.019027 4.6640439 1.177049
		endloop
	endfacet
	facet normal -0.9569073324849534 0.08855490945811538 -0.2765617201410854
		outer loop
			vertex -0.025435 4.6721859 1.1095901
			vertex 0.021289 4.715239 0.96171
			vertex -0.025599 4.5879211 1.083176
		endloop
	endfacet
	facet normal -0.9656082897746706 0.16034863058907314 -0.20466789534913585
		outer loop
			vertex 0.021289 4.715239 0.96171
			vertex 0.013099 4.6393819 0.940919
			vertex -0.025599 4.5879211 1.083176
		endloop
	endfacet
	facet normal -0.8844100290715606 -0.30690631164602034 -0.3516069060036751
		outer loop
			vertex 0.013099 4.6393819 0.940919
			vertex 0.030593 4.5764751 0.951825
			vertex -0.025599 4.5879211 1.083176
		endloop
	endfacet
	facet normal -0.8415732918995186 -0.4334841545759193 -0.32225127167011813
		outer loop
			vertex 0.030593 4.5764751 0.951825
			vertex 0.00549 4.5397539 1.066779
			vertex -0.025599 4.5879211 1.083176
		endloop
	endfacet
	facet normal -0.9415439991776844 -0.3235481254561257 0.09386963367521954
		outer loop
			vertex -0.042772 4.4848442 1.186156
			vertex -0.017397 4.4822311 1.431669
			vertex -0.062913 4.5521789 1.216223
		endloop
	endfacet
	facet normal -0.9592465086441533 -0.2560467513939186 0.11952487922864949
		outer loop
			vertex -0.017397 4.4822311 1.431669
			vertex -0.050919 4.608696 1.433552
			vertex -0.062913 4.5521789 1.216223
		endloop
	endfacet
	facet normal -0.9815415618452497 0.19076108123498853 0.013651822458783136
		outer loop
			vertex -0.038971 4.6758852 1.209024
			vertex -0.062913 4.5521789 1.216223
			vertex -0.021803 4.750011 1.40759
		endloop
	endfacet
	facet normal -0.979371565855722 0.20206206305645494 0.0015028861169268948
		outer loop
			vertex -0.062913 4.5521789 1.216223
			vertex -0.050919 4.608696 1.433552
			vertex -0.021803 4.750011 1.40759
		endloop
	endfacet
	facet normal -0.8480799213659904 -0.23189401131503992 0.4764300730349377
		outer loop
			vertex -0.017397 4.4822311 1.431669
			vertex 0.06166 4.5482321 1.604521
			vertex -0.050919 4.608696 1.433552
		endloop
	endfacet
	facet normal -0.848444967943096 -0.12649107404076632 0.5139466359069317
		outer loop
			vertex 0.06166 4.5482321 1.604521
			vertex 0.044047 4.64151 1.598402
			vertex -0.050919 4.608696 1.433552
		endloop
	endfacet
	facet normal -0.864742086826445 0.2573946119269928 0.43124139066420575
		outer loop
			vertex -0.021803 4.750011 1.40759
			vertex -0.050919 4.608696 1.433552
			vertex 0.04892 4.7722712 1.5361201
		endloop
	endfacet
	facet normal -0.8604010358734643 0.24492488586481995 0.4469025148194789
		outer loop
			vertex -0.050919 4.608696 1.433552
			vertex 0.044047 4.64151 1.598402
			vertex 0.04892 4.7722712 1.5361201
		endloop
	endfacet
	facet normal -0.8378771255071497 0.3776223416693595 0.39416150195576644
		outer loop
			vertex 0.009229 4.760601 1.0985709
			vertex -0.025435 4.6721859 1.1095901
			vertex 0.030717 4.7501321 1.154278
		endloop
	endfacet
	facet normal -0.8401046105938673 0.5232473215496499 0.1429562301896775
		outer loop
			vertex -0.025435 4.6721859 1.1095901
			vertex -0.019027 4.6640439 1.177049
			vertex 0.030717 4.7501321 1.154278
		endloop
	endfacet
	facet normal -0.8908955727490798 0.4018567925702714 -0.21169836258512492
		outer loop
			vertex 0.045611 4.7999148 1.0200911
			vertex 0.021289 4.715239 0.96171
			vertex 0.009229 4.760601 1.0985709
		endloop
	endfacet
	facet normal -0.9214412258373091 0.3372109121302866 -0.19296338530326762
		outer loop
			vertex 0.021289 4.715239 0.96171
			vertex -0.025435 4.6721859 1.1095901
			vertex 0.009229 4.760601 1.0985709
		endloop
	endfacet
	facet normal -0.9530826337605925 0.29795815351843613 0.053426884392190815
		outer loop
			vertex -0.007713 4.779798 1.187121
			vertex -0.038971 4.6758852 1.209024
			vertex 0.006979 4.8068171 1.298528
		endloop
	endfacet
	facet normal -0.9296347648103205 0.36426264222568566 -0.05560513946410345
		outer loop
			vertex -0.038971 4.6758852 1.209024
			vertex -0.021803 4.750011 1.40759
			vertex 0.006979 4.8068171 1.298528
		endloop
	endfacet
	facet normal -0.7126154612140253 0.6814219700402633 0.16686312709873513
		outer loop
			vertex 0.006979 4.8068171 1.298528
			vertex -0.021803 4.750011 1.40759
			vertex 0.0597 4.8415909 1.381675
		endloop
	endfacet
	facet normal -0.6841881141802938 0.6820120642958213 0.25835279864821664
		outer loop
			vertex -0.021803 4.750011 1.40759
			vertex 0.04892 4.7722712 1.5361201
			vertex 0.0597 4.8415909 1.381675
		endloop
	endfacet
	facet normal -0.5013078764745573 0.33844911238659997 0.7963307172960821
		outer loop
			vertex 0.050059 4.8608112 1.081666
			vertex 0.082729 4.8383141 1.111794
			vertex 0.100978 4.9812379 1.062538
		endloop
	endfacet
	facet normal -0.7799325604878062 0.36410066454471074 -0.5090539334579731
		outer loop
			vertex 0.09237 4.9121451 1.0263079
			vertex 0.071269 4.8685908 1.027485
			vertex 0.100978 4.9812379 1.062538
		endloop
	endfacet
	facet normal -0.8941518716396931 0.32999562183788517 -0.3026471873503227
		outer loop
			vertex 0.071269 4.8685908 1.027485
			vertex 0.050059 4.8608112 1.081666
			vertex 0.100978 4.9812379 1.062538
		endloop
	endfacet
	facet normal -0.7882881072701531 0.5577977768496701 0.25973736750418736
		outer loop
			vertex 0.037016 4.8555679 1.138299
			vertex 0.055712 4.873807 1.155871
			vertex 0.100978 4.9812379 1.062538
		endloop
	endfacet
	facet normal -0.9498393608918493 0.17508805445715733 -0.25913193876280666
		outer loop
			vertex 0.055712 4.873807 1.155871
			vertex 0.096671 5.00383 1.09359
			vertex 0.100978 4.9812379 1.062538
		endloop
	endfacet
	facet normal -0.8815839198284606 0.39872585183733245 0.2526410247297147
		outer loop
			vertex 0.055712 4.873807 1.155871
			vertex 0.084412 4.8950801 1.222445
			vertex 0.096671 5.00383 1.09359
		endloop
	endfacet
	facet normal -0.8484424171890088 0.44151526411740455 0.29190706785860876
		outer loop
			vertex 0.084412 4.8950801 1.222445
			vertex 0.114806 5.0083332 1.1394891
			vertex 0.096671 5.00383 1.09359
		endloop
	endfacet
	facet normal -0.695403013169586 0.04201529804732596 0.7173906634495985
		outer loop
			vertex 0.108631 5.2410841 1.085016
			vertex 0.129188 5.2472811 1.10458
			vertex 0.090472 5.5100002 1.051664
		endloop
	endfacet
	facet normal -0.6527751348570214 0.055969317032996145 0.7554813424984482
		outer loop
			vertex 0.129188 5.2472811 1.10458
			vertex 0.120157 5.5129871 1.0770921
			vertex 0.090472 5.5100002 1.051664
		endloop
	endfacet
	facet normal -0.5190295532751248 -0.32447470866774003 -0.7907746115436495
		outer loop
			vertex 0.116671 5.2037029 0.914589
			vertex 0.082496 5.2153058 0.932259
			vertex 0.122117 5.5192709 0.781529
		endloop
	endfacet
	facet normal -0.2555353826869604 -0.4025692124432366 -0.8789992590371513
		outer loop
			vertex 0.082496 5.2153058 0.932259
			vertex 0.067769 5.525589 0.794435
			vertex 0.122117 5.5192709 0.781529
		endloop
	endfacet
	facet normal -0.06894964448344328 -0.4225007905129241 -0.9037361498477093
		outer loop
			vertex 0.2033103 5.8487606 0.6383404
			vertex 0.1167849 5.8554702 0.641805
			vertex 0.203846 5.8561392 0.63485
		endloop
	endfacet
	facet normal -0.07060434116205262 -0.38377357341791735 -0.9207241016477821
		outer loop
			vertex 0.1167849 5.8554702 0.641805
			vertex 0.1166661 5.8629584 0.6386929
			vertex 0.203846 5.8561392 0.63485
		endloop
	endfacet
	facet normal 0.6339930489072643 0.1569689119641877 0.7572407639674784
		outer loop
			vertex 0.1502617 5.8925848 1.0109272
			vertex 0.1512546 5.8655286 1.0157044
			vertex 0.1511532 5.8842535 1.0119078
		endloop
	endfacet
	facet normal -0.37244908144996547 0.14809456811848348 0.9161602919909142
		outer loop
			vertex 0.1512546 5.8655286 1.0157044
			vertex 0.1502617 5.8925848 1.0109272
			vertex 0.0818839 5.8699589 0.9867868
		endloop
	endfacet
	facet normal -0.3817013893174786 0.1880020633460839 0.9049636863270932
		outer loop
			vertex 0.1502617 5.8925848 1.0109272
			vertex 0.0789854 5.8969932 0.979948
			vertex 0.0818839 5.8699589 0.9867868
		endloop
	endfacet
	facet normal -0.7031316857937916 -0.146578554337346 -0.6957877261357479
		outer loop
			vertex 0.003281 4.5837898 1.142671
			vertex 0.040404 4.5234718 1.1178631
			vertex -0.062913 4.5521789 1.216223
		endloop
	endfacet
	facet normal -0.6645210061231851 0.1298337248264428 -0.7359042303987127
		outer loop
			vertex 0.040404 4.5234718 1.1178631
			vertex -0.042772 4.4848442 1.186156
			vertex -0.062913 4.5521789 1.216223
		endloop
	endfacet
	facet normal -0.8502357326360035 -0.010893924372364886 -0.5262893893673783
		outer loop
			vertex -0.019027 4.6640439 1.177049
			vertex 0.003281 4.5837898 1.142671
			vertex -0.038971 4.6758852 1.209024
		endloop
	endfacet
	facet normal -0.7618808277826945 0.11031091336556072 -0.63825473492142
		outer loop
			vertex 0.003281 4.5837898 1.142671
			vertex -0.062913 4.5521789 1.216223
			vertex -0.038971 4.6758852 1.209024
		endloop
	endfacet
	facet normal -0.585994088048524 0.1269130783573887 -0.8003149375802193
		outer loop
			vertex 0.030717 4.7501321 1.154278
			vertex -0.019027 4.6640439 1.177049
			vertex -0.007713 4.779798 1.187121
		endloop
	endfacet
	facet normal -0.8193226009489691 0.12869576124512055 -0.5587019568712424
		outer loop
			vertex -0.019027 4.6640439 1.177049
			vertex -0.038971 4.6758852 1.209024
			vertex -0.007713 4.779798 1.187121
		endloop
	endfacet
	facet normal -0.5483656124034235 -0.20902818656754596 -0.8096927641727456
		outer loop
			vertex 0.082729 4.8383141 1.111794
			vertex 0.037016 4.8555679 1.138299
			vertex 0.100978 4.9812379 1.062538
		endloop
	endfacet
	facet normal 0.5159283439265142 0.13757206106437397 -0.8455127863892686
		outer loop
			vertex 0.243904 4.870872 1.106663
			vertex 0.207816 4.8720689 1.084837
			vertex 0.17017 4.943924 1.073557
		endloop
	endfacet
	facet normal 0.6607314011278158 0.06056008827669506 -0.7481754415052609
		outer loop
			vertex 0.300895 4.7913709 1.136892
			vertex 0.353956 4.6990299 1.176277
			vertex 0.283753 4.7388468 1.117502
		endloop
	endfacet
	facet normal 0.7016142793148122 0.2547231811537807 -0.6654723916470576
		outer loop
			vertex 0.353956 4.6990299 1.176277
			vertex 0.319874 4.6655712 1.127537
			vertex 0.283753 4.7388468 1.117502
		endloop
	endfacet
	facet normal 0.7165128319529368 0.22965962424849015 -0.6586849160538178
		outer loop
			vertex 0.353956 4.6990299 1.176277
			vertex 0.402268 4.5658889 1.182409
			vertex 0.319874 4.6655712 1.127537
		endloop
	endfacet
	facet normal 0.4962510734228473 -0.06632463243128676 -0.8656419093710324
		outer loop
			vertex 0.402268 4.5658889 1.182409
			vertex 0.309038 4.5837898 1.127591
			vertex 0.319874 4.6655712 1.127537
		endloop
	endfacet
	facet normal 0.4917195898040845 -0.04506814769948884 -0.8695865149976972
		outer loop
			vertex 0.276801 4.507925 1.113294
			vertex 0.309038 4.5837898 1.127591
			vertex 0.369103 4.4842391 1.166715
		endloop
	endfacet
	facet normal 0.5011620295979148 -0.03738973396441811 -0.8645453301495354
		outer loop
			vertex 0.309038 4.5837898 1.127591
			vertex 0.402268 4.5658889 1.182409
			vertex 0.369103 4.4842391 1.166715
		endloop
	endfacet
	facet normal 0.4268201940619372 -0.2777611938307641 -0.8606237512075989
		outer loop
			vertex 0.369103 4.4842391 1.166715
			vertex 0.238125 4.4294229 1.119449
			vertex 0.276801 4.507925 1.113294
		endloop
	endfacet
	facet normal 0.36788253446390445 -0.25143763125673807 -0.8952326839567548
		outer loop
			vertex 0.238125 4.4294229 1.119449
			vertex 0.203009 4.4752588 1.092145
			vertex 0.276801 4.507925 1.113294
		endloop
	endfacet
	facet normal -0.03847766891963964 -0.5829803246173075 -0.8115746485096794
		outer loop
			vertex 0.108674 4.4754071 1.096511
			vertex 0.203009 4.4752588 1.092145
			vertex 0.103111 4.4366531 1.124613
		endloop
	endfacet
	facet normal -0.061168089936504064 -0.544985342538745 -0.8362113615536724
		outer loop
			vertex 0.203009 4.4752588 1.092145
			vertex 0.238125 4.4294229 1.119449
			vertex 0.103111 4.4366531 1.124613
		endloop
	endfacet
	facet normal -0.4936583490758155 -0.3469182081233159 -0.7974642256930703
		outer loop
			vertex 0.040404 4.5234718 1.1178631
			vertex 0.108674 4.4754071 1.096511
			vertex -0.042772 4.4848442 1.186156
		endloop
	endfacet
	facet normal -0.47049215400313843 -0.47274900456986574 -0.7450808759454831
		outer loop
			vertex 0.108674 4.4754071 1.096511
			vertex 0.103111 4.4366531 1.124613
			vertex -0.042772 4.4848442 1.186156
		endloop
	endfacet
	facet normal -0.9932677310218339 -0.03986275693798769 -0.10876660847907761
		outer loop
			vertex 0.096671 5.00383 1.09359
			vertex 0.091718 5.2374091 1.053215
			vertex 0.100978 4.9812379 1.062538
		endloop
	endfacet
	facet normal -0.9858032190268013 -0.02961968826289822 0.16527155660792045
		outer loop
			vertex 0.091718 5.2374091 1.053215
			vertex 0.08399 5.229104 1.005631
			vertex 0.100978 4.9812379 1.062538
		endloop
	endfacet
	facet normal -0.9303608968116314 0.05997111738907065 0.36170715608481346
		outer loop
			vertex 0.114806 5.0083332 1.1394891
			vertex 0.108631 5.2410841 1.085016
			vertex 0.096671 5.00383 1.09359
		endloop
	endfacet
	facet normal -0.8841593974612091 0.06130791230095043 0.463145225356292
		outer loop
			vertex 0.108631 5.2410841 1.085016
			vertex 0.091718 5.2374091 1.053215
			vertex 0.096671 5.00383 1.09359
		endloop
	endfacet
	facet normal -0.2908212677976368 0.21071107219218893 0.9332865767020297
		outer loop
			vertex 0.114806 5.0083332 1.1394891
			vertex 0.13939 5.0044608 1.148024
			vertex 0.108631 5.2410841 1.085016
		endloop
	endfacet
	facet normal -0.7013223891100301 0.09688862404512026 0.7062290712393842
		outer loop
			vertex 0.13939 5.0044608 1.148024
			vertex 0.129188 5.2472811 1.10458
			vertex 0.108631 5.2410841 1.085016
		endloop
	endfacet
	facet normal 0.022335839272735667 0.19610131961155192 0.9803292216039419
		outer loop
			vertex 0.169648 5.2361889 1.105877
			vertex 0.129188 5.2472811 1.10458
			vertex 0.165924 5.010354 1.151137
		endloop
	endfacet
	facet normal -0.15157271934657418 0.167908530658844 0.9740803026865255
		outer loop
			vertex 0.129188 5.2472811 1.10458
			vertex 0.13939 5.0044608 1.148024
			vertex 0.165924 5.010354 1.151137
		endloop
	endfacet
	facet normal 0.04012978868434456 0.136656262455687 0.9898053677323599
		outer loop
			vertex 0.182195 5.2288532 1.1063811
			vertex 0.169648 5.2361889 1.105877
			vertex 0.186969 4.9917421 1.138924
		endloop
	endfacet
	facet normal 0.5916142589001726 0.14903592777456592 0.792326233882467
		outer loop
			vertex 0.169648 5.2361889 1.105877
			vertex 0.165924 5.010354 1.151137
			vertex 0.186969 4.9917421 1.138924
		endloop
	endfacet
	facet normal 0.929717262764068 0.060963137693069915 0.3631932091340707
		outer loop
			vertex 0.19741 5.2181659 1.069227
			vertex 0.182195 5.2288532 1.1063811
			vertex 0.19665 4.9821649 1.110786
		endloop
	endfacet
	facet normal 0.9500473366072983 0.061134222915803546 0.30605990425709106
		outer loop
			vertex 0.182195 5.2288532 1.1063811
			vertex 0.186969 4.9917421 1.138924
			vertex 0.19665 4.9821649 1.110786
		endloop
	endfacet
	facet normal 0.9810947352603567 -0.09478651797480839 0.16872651378672476
		outer loop
			vertex 0.204784 5.2084069 1.020867
			vertex 0.19741 5.2181659 1.069227
			vertex 0.17017 4.943924 1.073557
		endloop
	endfacet
	facet normal 0.8539641046377219 -0.09290635077507005 -0.5119704268568194
		outer loop
			vertex 0.19741 5.2181659 1.069227
			vertex 0.19665 4.9821649 1.110786
			vertex 0.17017 4.943924 1.073557
		endloop
	endfacet
	facet normal 0.9912289069762955 -0.1317609541276812 -0.01021297909240074
		outer loop
			vertex 0.17017 4.943924 1.073557
			vertex 0.205541 5.2187109 0.961403
			vertex 0.204784 5.2084069 1.020867
		endloop
	endfacet
	facet normal 0.8329949391973267 -0.19092461046908718 -0.5192949300627435
		outer loop
			vertex 0.175654 5.2209048 0.912655
			vertex 0.205541 5.2187109 0.961403
			vertex 0.172738 4.9147139 1.020552
		endloop
	endfacet
	facet normal 0.9914071837116156 -0.08817798498281064 0.09662525057858398
		outer loop
			vertex 0.205541 5.2187109 0.961403
			vertex 0.17017 4.943924 1.073557
			vertex 0.172738 4.9147139 1.020552
		endloop
	endfacet
	facet normal 0.08992905670185518 -0.33176849028443445 -0.9390646589107173
		outer loop
			vertex 0.172738 4.9147139 1.020552
			vertex 0.115206 4.9054341 1.018321
			vertex 0.175654 5.2209048 0.912655
		endloop
	endfacet
	facet normal 0.06477923795464688 -0.3280759011914795 -0.942427638276496
		outer loop
			vertex 0.115206 4.9054341 1.018321
			vertex 0.116671 5.2037029 0.914589
			vertex 0.175654 5.2209048 0.912655
		endloop
	endfacet
	facet normal -0.38990473789191493 -0.28440763786844686 -0.875834796574975
		outer loop
			vertex 0.09237 4.9121451 1.0263079
			vertex 0.082496 5.2153058 0.932259
			vertex 0.115206 4.9054341 1.018321
		endloop
	endfacet
	facet normal -0.5141529363283217 -0.2794845790697506 -0.8108853976531881
		outer loop
			vertex 0.082496 5.2153058 0.932259
			vertex 0.116671 5.2037029 0.914589
			vertex 0.115206 4.9054341 1.018321
		endloop
	endfacet
	facet normal -0.9824122677396284 0.0253917840313358 0.1849902524415456
		outer loop
			vertex 0.09237 4.9121451 1.0263079
			vertex 0.100978 4.9812379 1.062538
			vertex 0.082496 5.2153058 0.932259
		endloop
	endfacet
	facet normal -0.9974204737655112 -0.05019957887194496 0.05130692735355378
		outer loop
			vertex 0.100978 4.9812379 1.062538
			vertex 0.084513 5.2279558 0.983847
			vertex 0.082496 5.2153058 0.932259
		endloop
	endfacet
	facet normal -0.9971328623624678 -0.0729539090038026 -0.020094326510163255
		outer loop
			vertex 0.08399 5.229104 1.005631
			vertex 0.084513 5.2279558 0.983847
			vertex 0.100978 4.9812379 1.062538
		endloop
	endfacet
	facet normal -0.027234802792322488 0.10194903576823433 0.9944167434344571
		outer loop
			vertex 0.120157 5.5129871 1.0770921
			vertex 0.129188 5.2472811 1.10458
			vertex 0.164366 5.508265 1.078787
		endloop
	endfacet
	facet normal -0.004761547682767674 0.09898517150987628 0.9950775163196209
		outer loop
			vertex 0.129188 5.2472811 1.10458
			vertex 0.169648 5.2361889 1.105877
			vertex 0.164366 5.508265 1.078787
		endloop
	endfacet
	facet normal 0.6394535697574363 0.11586371911900258 0.7600491633548349
		outer loop
			vertex 0.191181 5.5101981 1.055932
			vertex 0.164366 5.508265 1.078787
			vertex 0.182195 5.2288532 1.1063811
		endloop
	endfacet
	facet normal 0.01814978409155254 0.09941039594482025 0.9948809770598311
		outer loop
			vertex 0.164366 5.508265 1.078787
			vertex 0.169648 5.2361889 1.105877
			vertex 0.182195 5.2288532 1.1063811
		endloop
	endfacet
	facet normal 0.889600508378315 0.03968980895466312 0.4550117081550604
		outer loop
			vertex 0.212959 5.5119119 1.013204
			vertex 0.191181 5.5101981 1.055932
			vertex 0.19741 5.2181659 1.069227
		endloop
	endfacet
	facet normal 0.9284410470867934 0.036632980972811584 0.3696691044561666
		outer loop
			vertex 0.191181 5.5101981 1.055932
			vertex 0.182195 5.2288532 1.1063811
			vertex 0.19741 5.2181659 1.069227
		endloop
	endfacet
	facet normal 0.8321099308178594 -0.008411741170894107 0.5545469372783256
		outer loop
			vertex 0.241017 5.5114932 0.971096
			vertex 0.212959 5.5119119 1.013204
			vertex 0.204784 5.2084069 1.020867
		endloop
	endfacet
	facet normal 0.9876269346411699 -0.022684187376414457 0.1551723738761458
		outer loop
			vertex 0.212959 5.5119119 1.013204
			vertex 0.19741 5.2181659 1.069227
			vertex 0.204784 5.2084069 1.020867
		endloop
	endfacet
	facet normal 0.9927381276526506 -0.120018499932534 -0.008159018240813337
		outer loop
			vertex 0.204784 5.2084069 1.020867
			vertex 0.205541 5.2187109 0.961403
			vertex 0.241017 5.5114932 0.971096
		endloop
	endfacet
	facet normal 0.9867465011701513 -0.11579925660398693 -0.11367442367757458
		outer loop
			vertex 0.205541 5.2187109 0.961403
			vertex 0.232691 5.5164618 0.893761
			vertex 0.241017 5.5114932 0.971096
		endloop
	endfacet
	facet normal 0.8614992357010256 -0.19619178458605738 -0.46832451414322424
		outer loop
			vertex 0.179262 5.5174942 0.795044
			vertex 0.232691 5.5164618 0.893761
			vertex 0.175654 5.2209048 0.912655
		endloop
	endfacet
	facet normal 0.8324501370088727 -0.1938312325024785 -0.51909172859956
		outer loop
			vertex 0.232691 5.5164618 0.893761
			vertex 0.205541 5.2187109 0.961403
			vertex 0.175654 5.2209048 0.912655
		endloop
	endfacet
	facet normal 0.07704266374919518 -0.36833431743764256 -0.9264956872863329
		outer loop
			vertex 0.175654 5.2209048 0.912655
			vertex 0.116671 5.2037029 0.914589
			vertex 0.179262 5.5174942 0.795044
		endloop
	endfacet
	facet normal 0.20124543195667335 -0.38352419613260846 -0.9013375988481832
		outer loop
			vertex 0.116671 5.2037029 0.914589
			vertex 0.122117 5.5192709 0.781529
			vertex 0.179262 5.5174942 0.795044
		endloop
	endfacet
	facet normal -0.7119660270936569 0.6971524684831674 0.08415944363112605
		outer loop
			vertex 0.055712 4.873807 1.155871
			vertex 0.006979 4.8068171 1.298528
			vertex 0.084412 4.8950801 1.222445
		endloop
	endfacet
	facet normal -0.6845664309035069 0.7164478348503026 0.13442954146447075
		outer loop
			vertex 0.006979 4.8068171 1.298528
			vertex 0.0597 4.8415909 1.381675
			vertex 0.084412 4.8950801 1.222445
		endloop
	endfacet
	facet normal -0.19838417796151964 0.9379847832755143 0.28430312041572564
		outer loop
			vertex 0.0597 4.8415909 1.381675
			vertex 0.127129 4.8494349 1.4028471
			vertex 0.084412 4.8950801 1.222445
		endloop
	endfacet
	facet normal -0.3073726917849116 0.9026713045130353 0.3011752718163176
		outer loop
			vertex 0.127129 4.8494349 1.4028471
			vertex 0.128863 4.9015341 1.248467
			vertex 0.084412 4.8950801 1.222445
		endloop
	endfacet
	facet normal 0.11951244482261952 0.94133870813094 0.31559184417043096
		outer loop
			vertex 0.17993 4.896102 1.245331
			vertex 0.128863 4.9015341 1.248467
			vertex 0.196547 4.8438621 1.394858
		endloop
	endfacet
	facet normal 0.1122501866340227 0.9411289888547221 0.31886693453212644
		outer loop
			vertex 0.128863 4.9015341 1.248467
			vertex 0.127129 4.8494349 1.4028471
			vertex 0.196547 4.8438621 1.394858
		endloop
	endfacet
	facet normal 0.4353586656601971 0.8579459045414053 0.2727483402611333
		outer loop
			vertex 0.221814 4.8876209 1.2051539
			vertex 0.17993 4.896102 1.245331
			vertex 0.2601 4.8226471 1.348421
		endloop
	endfacet
	facet normal 0.46376050710476957 0.8511709465749809 0.2458337075272185
		outer loop
			vertex 0.17993 4.896102 1.245331
			vertex 0.196547 4.8438621 1.394858
			vertex 0.2601 4.8226471 1.348421
		endloop
	endfacet
	facet normal 0.7399713827297113 0.6717407832235975 0.03473719757301759
		outer loop
			vertex 0.237459 4.8734889 1.145166
			vertex 0.221814 4.8876209 1.2051539
			vertex 0.298095 4.8021808 1.23244
		endloop
	endfacet
	facet normal 0.722167803781302 0.6818788181473638 0.11625377647046739
		outer loop
			vertex 0.221814 4.8876209 1.2051539
			vertex 0.2601 4.8226471 1.348421
			vertex 0.298095 4.8021808 1.23244
		endloop
	endfacet
	facet normal 0.7144230611147884 0.6959702821931095 0.07228454918873733
		outer loop
			vertex 0.237459 4.8734889 1.145166
			vertex 0.298095 4.8021808 1.23244
			vertex 0.243904 4.870872 1.106663
		endloop
	endfacet
	facet normal 0.8193321499142913 0.5718734328068414 -0.04068912590047515
		outer loop
			vertex 0.298095 4.8021808 1.23244
			vertex 0.300895 4.7913709 1.136892
			vertex 0.243904 4.870872 1.106663
		endloop
	endfacet
	facet normal 0.5180811666975624 0.04664880915947363 -0.8540584250022335
		outer loop
			vertex 0.243904 4.870872 1.106663
			vertex 0.300895 4.7913709 1.136892
			vertex 0.207816 4.8720689 1.084837
		endloop
	endfacet
	facet normal 0.5613160526492682 0.11914436143103428 -0.8189804089094167
		outer loop
			vertex 0.300895 4.7913709 1.136892
			vertex 0.283753 4.7388468 1.117502
			vertex 0.207816 4.8720689 1.084837
		endloop
	endfacet
	facet normal 0.8475936311436186 0.5147441092812458 0.12893230163551977
		outer loop
			vertex 0.207816 4.8720689 1.084837
			vertex 0.283753 4.7388468 1.117502
			vertex 0.20929 4.876976 1.0555561
		endloop
	endfacet
	facet normal 0.5956040453170481 0.5733759714383923 0.5625796091035007
		outer loop
			vertex 0.283753 4.7388468 1.117502
			vertex 0.279731 4.784801 1.074924
			vertex 0.20929 4.876976 1.0555561
		endloop
	endfacet
	facet normal 0.7941320834782477 0.5547117592917904 -0.2482923641473988
		outer loop
			vertex 0.20929 4.876976 1.0555561
			vertex 0.279731 4.784801 1.074924
			vertex 0.196536 4.8733549 1.0066741
		endloop
	endfacet
	facet normal 0.7958844812081728 0.5458745958085814 -0.2618946700924163
		outer loop
			vertex 0.279731 4.784801 1.074924
			vertex 0.242293 4.793839 0.97999
			vertex 0.196536 4.8733549 1.0066741
		endloop
	endfacet
	facet normal 0.38521549287648676 0.5657785282917808 -0.7290429897968377
		outer loop
			vertex 0.17842 4.803915 0.95406
			vertex 0.158898 4.8678899 0.993393
			vertex 0.242293 4.793839 0.97999
		endloop
	endfacet
	facet normal 0.24376183964583506 0.43170813524068796 -0.8684516402768125
		outer loop
			vertex 0.158898 4.8678899 0.993393
			vertex 0.196536 4.8733549 1.0066741
			vertex 0.242293 4.793839 0.97999
		endloop
	endfacet
	facet normal -0.08234350701825896 0.5578838498988579 -0.8258239260725998
		outer loop
			vertex 0.100068 4.801753 0.960412
			vertex 0.108222 4.865448 1.002628
			vertex 0.17842 4.803915 0.95406
		endloop
	endfacet
	facet normal -0.1798787488942622 0.4747895561385911 -0.8615210462188111
		outer loop
			vertex 0.108222 4.865448 1.002628
			vertex 0.158898 4.8678899 0.993393
			vertex 0.17842 4.803915 0.95406
		endloop
	endfacet
	facet normal -0.5191162954097648 0.28085711096869426 -0.8072407045351221
		outer loop
			vertex 0.071269 4.8685908 1.027485
			vertex 0.108222 4.865448 1.002628
			vertex 0.045611 4.7999148 1.0200911
		endloop
	endfacet
	facet normal -0.6581651524764642 0.47265715474226117 -0.5860152268811647
		outer loop
			vertex 0.108222 4.865448 1.002628
			vertex 0.100068 4.801753 0.960412
			vertex 0.045611 4.7999148 1.0200911
		endloop
	endfacet
	facet normal -0.8984422302513733 0.31434724527940155 -0.30657359358919084
		outer loop
			vertex 0.050059 4.8608112 1.081666
			vertex 0.071269 4.8685908 1.027485
			vertex 0.009229 4.760601 1.0985709
		endloop
	endfacet
	facet normal -0.9015694466471686 0.36229353787081575 -0.23646548435102777
		outer loop
			vertex 0.071269 4.8685908 1.027485
			vertex 0.045611 4.7999148 1.0200911
			vertex 0.009229 4.760601 1.0985709
		endloop
	endfacet
	facet normal -0.5012318422085417 0.33856031855903945 0.7963313073422602
		outer loop
			vertex 0.050059 4.8608112 1.081666
			vertex 0.009229 4.760601 1.0985709
			vertex 0.082729 4.8383141 1.111794
		endloop
	endfacet
	facet normal -0.7026355766521274 0.5992645931376955 0.3836472257611735
		outer loop
			vertex 0.009229 4.760601 1.0985709
			vertex 0.030717 4.7501321 1.154278
			vertex 0.082729 4.8383141 1.111794
		endloop
	endfacet
	facet normal -0.5262853272611464 -0.09659010271598971 -0.8448041822617492
		outer loop
			vertex 0.082729 4.8383141 1.111794
			vertex 0.030717 4.7501321 1.154278
			vertex 0.037016 4.8555679 1.138299
		endloop
	endfacet
	facet normal -0.6788517664414331 -0.07021459447903552 -0.7309105211457082
		outer loop
			vertex 0.030717 4.7501321 1.154278
			vertex -0.007713 4.779798 1.187121
			vertex 0.037016 4.8555679 1.138299
		endloop
	endfacet
	facet normal -0.7767008672780435 0.5938273355050921 0.2100115672444216
		outer loop
			vertex 0.037016 4.8555679 1.138299
			vertex -0.007713 4.779798 1.187121
			vertex 0.055712 4.873807 1.155871
		endloop
	endfacet
	facet normal -0.8324783192193783 0.5535175356459932 -0.024457836414240455
		outer loop
			vertex -0.007713 4.779798 1.187121
			vertex 0.006979 4.8068171 1.298528
			vertex 0.055712 4.873807 1.155871
		endloop
	endfacet
	facet normal -0.6527655863633418 0.11926172286556999 0.7481134477596688
		outer loop
			vertex 0.0792357 5.8885612 0.9815106
			vertex 0.0818839 5.8699589 0.9867868
			vertex 0.0789854 5.8969932 0.979948
		endloop
	endfacet
	facet normal -0.8308985016906612 0.07982699497242028 0.550668076759392
		outer loop
			vertex 0.0275116 5.8851461 0.9039596
			vertex 0.0792357 5.8885612 0.9815106
			vertex 0.0268785 5.8935642 0.901784
		endloop
	endfacet
	facet normal -0.8311309863159303 0.07737667834307851 0.5506669894174704
		outer loop
			vertex 0.0792357 5.8885612 0.9815106
			vertex 0.0789854 5.8969932 0.979948
			vertex 0.0268785 5.8935642 0.901784
		endloop
	endfacet
	facet normal -0.9944881136433906 -0.0426945702332108 0.09576306957597051
		outer loop
			vertex 0.0188739 5.885498 0.814415
			vertex 0.0275116 5.8851461 0.9039596
			vertex 0.0182555 5.8939009 0.8117393
		endloop
	endfacet
	facet normal -0.9942080044879029 -0.0502138403942017 0.09502112420429472
		outer loop
			vertex 0.0275116 5.8851461 0.9039596
			vertex 0.0268785 5.8935642 0.901784
			vertex 0.0182555 5.8939009 0.8117393
		endloop
	endfacet
	facet normal -0.956671039169371 -0.14989209452814495 -0.2496254851023062
		outer loop
			vertex 0.0182555 5.8939009 0.8117393
			vertex 0.0424504 5.8820434 0.7261342
			vertex 0.0188739 5.885498 0.814415
		endloop
	endfacet
	facet normal -0.958561582463213 -0.135309613361403 -0.2507010194586543
		outer loop
			vertex 0.0424504 5.8820434 0.7261342
			vertex 0.0427633 5.8739734 0.7292934
			vertex 0.0188739 5.885498 0.814415
		endloop
	endfacet
	facet normal -0.7736666312422973 -0.16967495083307502 -0.6104509437800787
		outer loop
			vertex 0.1156007 5.855608 0.6420862
			vertex 0.0427633 5.8739734 0.7292934
			vertex 0.1166661 5.8629584 0.6386929
		endloop
	endfacet
	facet normal -0.7633495348663314 -0.260935544006669 -0.5909400388307592
		outer loop
			vertex 0.0427633 5.8739734 0.7292934
			vertex 0.0424504 5.8820434 0.7261342
			vertex 0.1166661 5.8629584 0.6386929
		endloop
	endfacet
	facet normal -0.25525119787502326 -0.37451403513462767 -0.8913955707039074
		outer loop
			vertex 0.1167849 5.8554702 0.641805
			vertex 0.1156007 5.855608 0.6420862
			vertex 0.1166661 5.8629584 0.6386929
		endloop
	endfacet
	facet normal -0.01535167129777297 0.996925944478459 0.07683090142708175
		outer loop
			vertex 0.1757975 5.8969946 0.9588098
			vertex 0.1502617 5.8925848 1.0109272
			vertex 0.2303623 5.8983235 0.9524692
		endloop
	endfacet
	facet normal -0.09422965878882754 0.9856913561123157 -0.13976166101619367
		outer loop
			vertex 0.2257803 5.8855729 0.8445572
			vertex 0.1757975 5.8969946 0.9588098
			vertex 0.265295 5.8897958 0.8476984
		endloop
	endfacet
	facet normal -0.035002615935777324 0.9950819931661291 -0.0926641449222747
		outer loop
			vertex 0.1757975 5.8969946 0.9588098
			vertex 0.2303623 5.8983235 0.9524692
			vertex 0.265295 5.8897958 0.8476984
		endloop
	endfacet
	facet normal -0.09886736084031611 0.9911358467089921 -0.08874107464370785
		outer loop
			vertex 0.265295 5.8897958 0.8476984
			vertex 0.2575176 5.8778706 0.7231725
			vertex 0.2257803 5.8855729 0.8445572
		endloop
	endfacet
	facet normal -0.08395863458680358 0.9928414933039995 -0.08495126162808996
		outer loop
			vertex 0.2575176 5.8778706 0.7231725
			vertex 0.2086679 5.871172 0.6931636
			vertex 0.2257803 5.8855729 0.8445572
		endloop
	endfacet
	facet normal 0.02165130121096523 0.9676798353091459 -0.2512507860523755
		outer loop
			vertex 0.203846 5.8561392 0.63485
			vertex 0.2086679 5.871172 0.6931636
			vertex 0.2575176 5.8778706 0.7231725
		endloop
	endfacet
	facet normal 0.008007273540964923 0.9992928083262093 0.036739172526860375
		outer loop
			vertex 0.0766747 5.8992662 0.9186268
			vertex 0.0789854 5.8969932 0.979948
			vertex 0.1757975 5.8969946 0.9588098
		endloop
	endfacet
	facet normal 0.02057506464296821 0.9953312951495881 0.09429888446202064
		outer loop
			vertex 0.0789854 5.8969932 0.979948
			vertex 0.1502617 5.8925848 1.0109272
			vertex 0.1757975 5.8969946 0.9588098
		endloop
	endfacet
	facet normal 0.09218064415966092 0.9856837267209652 -0.14117478429160066
		outer loop
			vertex 0.099744 5.6293979 0.893329
			vertex 0.09522 5.641223 0.972938
			vertex 0.191767 5.6232328 0.910371
		endloop
	endfacet
	facet normal 0.05944129858543488 0.9799728060378053 -0.19005270702851673
		outer loop
			vertex 0.09522 5.641223 0.972938
			vertex 0.176417 5.6404691 0.994446
			vertex 0.191767 5.6232328 0.910371
		endloop
	endfacet
	facet normal 0.10787491222062219 0.9665095608847737 -0.23285676290740476
		outer loop
			vertex 0.191767 5.6232328 0.910371
			vertex 0.206431 5.6011319 0.825431
			vertex 0.099744 5.6293979 0.893329
		endloop
	endfacet
	facet normal 0.1272392605159611 0.9706358260370762 -0.20414765194994144
		outer loop
			vertex 0.206431 5.6011319 0.825431
			vertex 0.094948 5.6089568 0.793151
			vertex 0.099744 5.6293979 0.893329
		endloop
	endfacet
	facet normal 0.0648352790161553 0.9672286213166459 -0.24548967534460137
		outer loop
			vertex 0.1166661 5.8629584 0.6386929
			vertex 0.1091449 5.8743563 0.6816142
			vertex 0.203846 5.8561392 0.63485
		endloop
	endfacet
	facet normal 0.06034615953943877 0.9653587260190928 -0.2538520654389776
		outer loop
			vertex 0.1091449 5.8743563 0.6816142
			vertex 0.2086679 5.871172 0.6931636
			vertex 0.203846 5.8561392 0.63485
		endloop
	endfacet
	facet normal 0.9746142230051239 0.10199688670998844 -0.19930818201365544
		outer loop
			vertex 0.0552005 5.8978572 0.8128972
			vertex 0.0766747 5.8992662 0.9186268
			vertex 0.099744 5.6293979 0.893329
		endloop
	endfacet
	facet normal 0.9957222852314167 0.08094059838522155 0.04456175744478424
		outer loop
			vertex 0.0766747 5.8992662 0.9186268
			vertex 0.09522 5.641223 0.972938
			vertex 0.099744 5.6293979 0.893329
		endloop
	endfacet
	facet normal 0.36718855672416134 -0.16622984013520506 -0.9151722264467227
		outer loop
			vertex 0.0766747 5.8992662 0.9186268
			vertex 0.1757975 5.8969946 0.9588098
			vertex 0.09522 5.641223 0.972938
		endloop
	endfacet
	facet normal 0.25264693778216135 -0.13253491381467083 -0.958438324280407
		outer loop
			vertex 0.1757975 5.8969946 0.9588098
			vertex 0.176417 5.6404691 0.994446
			vertex 0.09522 5.641223 0.972938
		endloop
	endfacet
	facet normal -0.9167535088666482 -0.05713492208941445 -0.3953461833109373
		outer loop
			vertex 0.1757975 5.8969946 0.9588098
			vertex 0.2257803 5.8855729 0.8445572
			vertex 0.176417 5.6404691 0.994446
		endloop
	endfacet
	facet normal -0.9777965895529147 0.07797816491915724 -0.19450767402477878
		outer loop
			vertex 0.2257803 5.8855729 0.8445572
			vertex 0.191767 5.6232328 0.910371
			vertex 0.176417 5.6404691 0.994446
		endloop
	endfacet
	facet normal -0.9836641127269947 0.15180628645236166 0.09674587705198638
		outer loop
			vertex 0.2257803 5.8855729 0.8445572
			vertex 0.2086679 5.871172 0.6931636
			vertex 0.191767 5.6232328 0.910371
		endloop
	endfacet
	facet normal -0.9859932104105428 -0.06670657606166201 -0.1528647171012365
		outer loop
			vertex 0.2086679 5.871172 0.6931636
			vertex 0.206431 5.6011319 0.825431
			vertex 0.191767 5.6232328 0.910371
		endloop
	endfacet
	facet normal -0.08972658878813639 0.4387002045181652 0.8941427569578388
		outer loop
			vertex 0.2086679 5.871172 0.6931636
			vertex 0.1091449 5.8743563 0.6816142
			vertex 0.206431 5.6011319 0.825431
		endloop
	endfacet
	facet normal -0.23121291022799065 0.38742368955708295 0.8924368184436813
		outer loop
			vertex 0.1091449 5.8743563 0.6816142
			vertex 0.094948 5.6089568 0.793151
			vertex 0.206431 5.6011319 0.825431
		endloop
	endfacet
	facet normal 0.9263967475877757 0.10269423649213634 0.3622747021944649
		outer loop
			vertex 0.1091449 5.8743563 0.6816142
			vertex 0.0552005 5.8978572 0.8128972
			vertex 0.094948 5.6089568 0.793151
		endloop
	endfacet
	facet normal 0.9870857731872867 0.14100170173543325 -0.0760276034014496
		outer loop
			vertex 0.0552005 5.8978572 0.8128972
			vertex 0.099744 5.6293979 0.893329
			vertex 0.094948 5.6089568 0.793151
		endloop
	endfacet
	facet normal 0.5857654222372903 0.10003237125843324 0.8042837775384905
		outer loop
			vertex 0.2299831 5.8899045 0.9537926
			vertex 0.1511532 5.8842535 1.0119078
			vertex 0.212959 5.5119119 1.013204
		endloop
	endfacet
	facet normal 0.8788030831059839 0.14745433501673216 0.4538307616371882
		outer loop
			vertex 0.1511532 5.8842535 1.0119078
			vertex 0.191181 5.5101981 1.055932
			vertex 0.212959 5.5119119 1.013204
		endloop
	endfacet
	facet normal 0.9479980043215847 0.042068136765314595 0.3154838437565187
		outer loop
			vertex 0.264766 5.8815532 0.850387
			vertex 0.2299831 5.8899045 0.9537926
			vertex 0.241017 5.5114932 0.971096
		endloop
	endfacet
	facet normal 0.8313830166632915 0.04955082083214627 0.5534862200260329
		outer loop
			vertex 0.2299831 5.8899045 0.9537926
			vertex 0.212959 5.5119119 1.013204
			vertex 0.241017 5.5114932 0.971096
		endloop
	endfacet
	facet normal 0.9941344065992866 -0.09374639106291473 -0.05392954457589573
		outer loop
			vertex 0.2569767 5.8699961 0.7268893
			vertex 0.264766 5.8815532 0.850387
			vertex 0.232691 5.5164618 0.893761
		endloop
	endfacet
	facet normal 0.988538903916398 -0.10025697233582583 -0.112868839552023
		outer loop
			vertex 0.264766 5.8815532 0.850387
			vertex 0.241017 5.5114932 0.971096
			vertex 0.232691 5.5164618 0.893761
		endloop
	endfacet
	facet normal 0.8501398672497021 -0.2743265617841477 -0.4494520481790548
		outer loop
			vertex 0.2033103 5.8487606 0.6383404
			vertex 0.2569767 5.8699961 0.7268893
			vertex 0.179262 5.5174942 0.795044
		endloop
	endfacet
	facet normal 0.8443224328141021 -0.27505491786171876 -0.4598526085681796
		outer loop
			vertex 0.2569767 5.8699961 0.7268893
			vertex 0.232691 5.5164618 0.893761
			vertex 0.179262 5.5174942 0.795044
		endloop
	endfacet
	facet normal 0.19497696198690373 -0.43093731625422066 -0.8810658396249211
		outer loop
			vertex 0.179262 5.5174942 0.795044
			vertex 0.122117 5.5192709 0.781529
			vertex 0.2033103 5.8487606 0.6383404
		endloop
	endfacet
	facet normal -0.06664159472921663 -0.383822880928341 -0.9209988566376267
		outer loop
			vertex 0.122117 5.5192709 0.781529
			vertex 0.1167849 5.8554702 0.641805
			vertex 0.2033103 5.8487606 0.6383404
		endloop
	endfacet
	facet normal -0.25521978196334066 -0.374514320101635 -0.8914044463280376
		outer loop
			vertex 0.122117 5.5192709 0.781529
			vertex 0.067769 5.525589 0.794435
			vertex 0.1167849 5.8554702 0.641805
		endloop
	endfacet
	facet normal -0.2552510878029543 -0.3745069531424096 -0.8913985776426826
		outer loop
			vertex 0.067769 5.525589 0.794435
			vertex 0.1156007 5.855608 0.6420862
			vertex 0.1167849 5.8554702 0.641805
		endloop
	endfacet
	facet normal -0.9883964667345996 0.0852044436515166 -0.12574826968430003
		outer loop
			vertex 0.067769 5.525589 0.794435
			vertex 0.056809 5.5116439 0.871133
			vertex 0.1156007 5.855608 0.6420862
		endloop
	endfacet
	facet normal -0.767426147071337 -0.2592914755929724 -0.5863659603661027
		outer loop
			vertex 0.056809 5.5116439 0.871133
			vertex 0.0427633 5.8739734 0.7292934
			vertex 0.1156007 5.855608 0.6420862
		endloop
	endfacet
	facet normal -0.9570605303779168 -0.1495126829413952 -0.2483567974354774
		outer loop
			vertex 0.0188739 5.885498 0.814415
			vertex 0.0427633 5.8739734 0.7292934
			vertex 0.046637 5.5082269 0.934548
		endloop
	endfacet
	facet normal -0.981374981841849 -0.10181363248999054 -0.16290220764036212
		outer loop
			vertex 0.0427633 5.8739734 0.7292934
			vertex 0.056809 5.5116439 0.871133
			vertex 0.046637 5.5082269 0.934548
		endloop
	endfacet
	facet normal -0.9901697028855301 -0.029316483156829328 0.13676440802671025
		outer loop
			vertex 0.046637 5.5082269 0.934548
			vertex 0.055934 5.5072012 1.0016381
			vertex 0.0188739 5.885498 0.814415
		endloop
	endfacet
	facet normal -0.9941520342630249 -0.050028921772519074 0.0957018273439379
		outer loop
			vertex 0.055934 5.5072012 1.0016381
			vertex 0.0275116 5.8851461 0.9039596
			vertex 0.0188739 5.885498 0.814415
		endloop
	endfacet
	facet normal -0.8222224718450009 0.08366776132008742 0.5629830481540115
		outer loop
			vertex 0.055934 5.5072012 1.0016381
			vertex 0.090472 5.5100002 1.051664
			vertex 0.0275116 5.8851461 0.9039596
		endloop
	endfacet
	facet normal -0.8310079292839678 0.07741514472107872 0.5508472717868232
		outer loop
			vertex 0.090472 5.5100002 1.051664
			vertex 0.0792357 5.8885612 0.9815106
			vertex 0.0275116 5.8851461 0.9039596
		endloop
	endfacet
	facet normal -0.6528038917882261 0.11925510218379858 0.7480810781387789
		outer loop
			vertex 0.090472 5.5100002 1.051664
			vertex 0.120157 5.5129871 1.0770921
			vertex 0.0792357 5.8885612 0.9815106
		endloop
	endfacet
	facet normal -0.6526641526481721 0.11929955193083523 0.7481959106792456
		outer loop
			vertex 0.120157 5.5129871 1.0770921
			vertex 0.0818839 5.8699589 0.9867868
			vertex 0.0792357 5.8885612 0.9815106
		endloop
	endfacet
	facet normal -0.3724485727687266 0.14809910062088477 0.9161597661095056
		outer loop
			vertex 0.1512546 5.8655286 1.0157044
			vertex 0.0818839 5.8699589 0.9867868
			vertex 0.164366 5.508265 1.078787
		endloop
	endfacet
	facet normal -0.011101220312358428 0.2441161648320414 0.9696824536802098
		outer loop
			vertex 0.0818839 5.8699589 0.9867868
			vertex 0.120157 5.5129871 1.0770921
			vertex 0.164366 5.508265 1.078787
		endloop
	endfacet
	facet normal 0.6340056798106494 0.15696691987928096 0.7572306016210965
		outer loop
			vertex 0.1511532 5.8842535 1.0119078
			vertex 0.1512546 5.8655286 1.0157044
			vertex 0.191181 5.5101981 1.055932
		endloop
	endfacet
	facet normal 0.6340536613507887 0.15696774355093743 0.7571902548317606
		outer loop
			vertex 0.1512546 5.8655286 1.0157044
			vertex 0.164366 5.508265 1.078787
			vertex 0.191181 5.5101981 1.055932
		endloop
	endfacet
endsolid exported
