solid exported
	facet normal 0.4181402993267854 -0.713634771206946 0.5620356780519511
		outer loop
			vertex 0.638654 6.5788832 8.3267202
			vertex 0.600589 6.660912 8.4591942
			vertex 0.569271 6.547184 8.3380899
		endloop
	endfacet
	facet normal 0.5296149497432192 -0.6823773220224141 0.5038543394652925
		outer loop
			vertex 0.600589 6.660912 8.4591942
			vertex 0.554293 6.6332169 8.4703493
			vertex 0.569271 6.547184 8.3380899
		endloop
	endfacet
	facet normal -0.028375881974846775 -0.8517613228969667 0.5231610250572563
		outer loop
			vertex 0.484128 6.5511112 8.3398657
			vertex 0.569271 6.547184 8.3380899
			vertex 0.496043 6.6319289 8.4720917
		endloop
	endfacet
	facet normal 0.03486741221831916 -0.835938233628268 0.5477148282853487
		outer loop
			vertex 0.569271 6.547184 8.3380899
			vertex 0.554293 6.6332169 8.4703493
			vertex 0.496043 6.6319289 8.4720917
		endloop
	endfacet
	facet normal -0.4689932738647593 -0.7327672919345461 0.49304908978774786
		outer loop
			vertex 0.415752 6.5891571 8.3313694
			vertex 0.484128 6.5511112 8.3398657
			vertex 0.448087 6.6575422 8.4637604
		endloop
	endfacet
	facet normal -0.4754436137115539 -0.730926551701078 0.48959140739934387
		outer loop
			vertex 0.484128 6.5511112 8.3398657
			vertex 0.496043 6.6319289 8.4720917
			vertex 0.448087 6.6575422 8.4637604
		endloop
	endfacet
	facet normal -0.8816479231229243 -0.2897085256912559 0.3725129659419027
		outer loop
			vertex 0.390254 6.646791 8.3158445
			vertex 0.415752 6.5891571 8.3313694
			vertex 0.428744 6.7002721 8.448534
		endloop
	endfacet
	facet normal -0.8914452782764234 -0.27528554051446114 0.3599210844370346
		outer loop
			vertex 0.415752 6.5891571 8.3313694
			vertex 0.448087 6.6575422 8.4637604
			vertex 0.428744 6.7002721 8.448534
		endloop
	endfacet
	facet normal -0.8910491102574456 0.45159180277148225 0.04578566128186471
		outer loop
			vertex 0.417381 6.7020011 8.2992249
			vertex 0.390254 6.646791 8.3158445
			vertex 0.4454 6.7438011 8.4322309
		endloop
	endfacet
	facet normal -0.9143459605029809 0.3902873332255636 0.10792248160397108
		outer loop
			vertex 0.390254 6.646791 8.3158445
			vertex 0.428744 6.7002721 8.448534
			vertex 0.4454 6.7438011 8.4322309
		endloop
	endfacet
	facet normal -0.4353431526715762 0.8701850434281144 -0.23076899621912678
		outer loop
			vertex 0.486763 6.7336979 8.287859
			vertex 0.417381 6.7020011 8.2992249
			vertex 0.491697 6.7714958 8.4210796
		endloop
	endfacet
	facet normal -0.5338234772282164 0.8323423584279311 -0.14912643470091289
		outer loop
			vertex 0.417381 6.7020011 8.2992249
			vertex 0.4454 6.7438011 8.4322309
			vertex 0.491697 6.7714958 8.4210796
		endloop
	endfacet
	facet normal 0.03762998748528904 0.9527826814390475 -0.30131237278226036
		outer loop
			vertex 0.571904 6.729774 8.2860842
			vertex 0.486763 6.7336979 8.287859
			vertex 0.549946 6.7727818 8.4193373
		endloop
	endfacet
	facet normal -0.029367091011450457 0.9618982018465655 -0.27182609008310715
		outer loop
			vertex 0.486763 6.7336979 8.287859
			vertex 0.491697 6.7714958 8.4210796
			vertex 0.549946 6.7727818 8.4193373
		endloop
	endfacet
	facet normal 0.49526340535575 0.8465809127278796 -0.19497414577388567
		outer loop
			vertex 0.640282 6.6917281 8.2945786
			vertex 0.571904 6.729774 8.2860842
			vertex 0.597904 6.7471709 8.4276657
		endloop
	endfacet
	facet normal 0.48812527934746885 0.8508951915150563 -0.194193420893992
		outer loop
			vertex 0.571904 6.729774 8.2860842
			vertex 0.549946 6.7727818 8.4193373
			vertex 0.597904 6.7471709 8.4276657
		endloop
	endfacet
	facet normal 0.8990616789673466 0.4254935200422875 0.10316667007536669
		outer loop
			vertex 0.665778 6.6340919 8.3101006
			vertex 0.640282 6.6917281 8.2945786
			vertex 0.617246 6.704442 8.442893
		endloop
	endfacet
	facet normal 0.8923622490110029 0.4398983535893427 0.10089130314061023
		outer loop
			vertex 0.640282 6.6917281 8.2945786
			vertex 0.597904 6.7471709 8.4276657
			vertex 0.617246 6.704442 8.442893
		endloop
	endfacet
	facet normal 0.8559106217237568 -0.29203731777780184 0.42676833603912023
		outer loop
			vertex 0.638654 6.5788832 8.3267202
			vertex 0.665778 6.6340919 8.3101006
			vertex 0.600589 6.660912 8.4591942
		endloop
	endfacet
	facet normal 0.8884530967888312 -0.18222370251225298 0.42124294302582904
		outer loop
			vertex 0.665778 6.6340919 8.3101006
			vertex 0.617246 6.704442 8.442893
			vertex 0.600589 6.660912 8.4591942
		endloop
	endfacet
	facet normal 0.02048272605413287 0.34373035886665665 0.9388449809882307
		outer loop
			vertex 0.496043 6.6319289 8.4720917
			vertex 0.554293 6.6332169 8.4703493
			vertex 0.448087 6.6575422 8.4637604
		endloop
	endfacet
	facet normal -0.16451438790497222 -0.4857492520339223 0.858476953866985
		outer loop
			vertex 0.554293 6.6332169 8.4703493
			vertex 0.523694 6.698081 8.5011873
			vertex 0.448087 6.6575422 8.4637604
		endloop
	endfacet
	facet normal 0.020447824830899384 0.3437965881108338 0.9388214912660631
		outer loop
			vertex 0.428744 6.7002721 8.448534
			vertex 0.448087 6.6575422 8.4637604
			vertex 0.4454 6.7438011 8.4322309
		endloop
	endfacet
	facet normal -0.5406158740694443 0.2739066875206516 0.7954304515390362
		outer loop
			vertex 0.448087 6.6575422 8.4637604
			vertex 0.523694 6.698081 8.5011873
			vertex 0.4454 6.7438011 8.4322309
		endloop
	endfacet
	facet normal 0.020492110954049656 0.3437652048051147 0.9388320176442347
		outer loop
			vertex 0.491697 6.7714958 8.4210796
			vertex 0.4454 6.7438011 8.4322309
			vertex 0.549946 6.7727818 8.4193373
		endloop
	endfacet
	facet normal -0.1290367518015995 0.7527122755520752 0.6455801630453877
		outer loop
			vertex 0.4454 6.7438011 8.4322309
			vertex 0.523694 6.698081 8.5011873
			vertex 0.549946 6.7727818 8.4193373
		endloop
	endfacet
	facet normal 0.0206153857024198 0.34388671047813396 0.9387848189169171
		outer loop
			vertex 0.597904 6.7471709 8.4276657
			vertex 0.549946 6.7727818 8.4193373
			vertex 0.617246 6.704442 8.442893
		endloop
	endfacet
	facet normal 0.3857782311251414 0.616492168778331 0.6863763998164177
		outer loop
			vertex 0.549946 6.7727818 8.4193373
			vertex 0.523694 6.698081 8.5011873
			vertex 0.617246 6.704442 8.442893
		endloop
	endfacet
	facet normal 0.020613289107926983 0.3436963199207703 0.938854585111599
		outer loop
			vertex 0.600589 6.660912 8.4591942
			vertex 0.617246 6.704442 8.442893
			vertex 0.554293 6.6332169 8.4703493
		endloop
	endfacet
	facet normal 0.5302927910094614 -0.1468215599060569 0.8350047816331041
		outer loop
			vertex 0.617246 6.704442 8.442893
			vertex 0.523694 6.698081 8.5011873
			vertex 0.554293 6.6332169 8.4703493
		endloop
	endfacet
	facet normal 0.047830154879917736 -0.9753347048926934 0.21548663465757179
		outer loop
			vertex 0.534386 5.7350421 5.945385
			vertex 0.602501 5.7390099 5.948225
			vertex 0.538092 5.8717279 6.5632291
		endloop
	endfacet
	facet normal 0.028136458775793825 -0.9764994274313851 0.21367547335558953
		outer loop
			vertex 0.602501 5.7390099 5.948225
			vertex 0.624363 5.8741951 6.5631442
			vertex 0.538092 5.8717279 6.5632291
		endloop
	endfacet
	facet normal 0.5072072652395773 -0.8453293791466392 0.1678065280009897
		outer loop
			vertex 0.602501 5.7390099 5.948225
			vertex 0.656021 5.770391 5.94454
			vertex 0.624363 5.8741951 6.5631442
		endloop
	endfacet
	facet normal 0.486654944416087 -0.8571433574854875 0.16873716186389198
		outer loop
			vertex 0.656021 5.770391 5.94454
			vertex 0.693196 5.9116111 6.554687
			vertex 0.624363 5.8741951 6.5631442
		endloop
	endfacet
	facet normal 0.9315332065324031 -0.36263931620643675 0.027177407322763934
		outer loop
			vertex 0.656021 5.770391 5.94454
			vertex 0.674501 5.8172021 5.935739
			vertex 0.693196 5.9116111 6.554687
		endloop
	endfacet
	facet normal 0.9201240380760581 -0.39033816762925183 0.03174695964100052
		outer loop
			vertex 0.674501 5.8172021 5.935739
			vertex 0.718302 5.969686 6.5410862
			vertex 0.693196 5.9116111 6.554687
		endloop
	endfacet
	facet normal 0.885880952644753 0.43062080645967393 -0.17257073559918856
		outer loop
			vertex 0.674501 5.8172021 5.935739
			vertex 0.650884 5.861558 5.9251852
			vertex 0.718302 5.969686 6.5410862
		endloop
	endfacet
	facet normal 0.8974720438638275 0.40711369881122345 -0.16971260036640912
		outer loop
			vertex 0.650884 5.861558 5.9251852
			vertex 0.690087 6.026237 6.5275369
			vertex 0.718302 5.969686 6.5410862
		endloop
	endfacet
	facet normal 0.4206564005011455 0.8677697423955812 -0.2646202314641239
		outer loop
			vertex 0.650884 5.861558 5.9251852
			vertex 0.594188 5.886517 5.9169059
			vertex 0.690087 6.026237 6.5275369
		endloop
	endfacet
	facet normal 0.4371818115276264 0.8593561917896577 -0.265290405597715
		outer loop
			vertex 0.594188 5.886517 5.9169059
			vertex 0.619333 6.0596628 6.5192151
			vertex 0.690087 6.026237 6.5275369
		endloop
	endfacet
	facet normal -0.04454944384401669 0.9606150948425323 -0.27428814523026984
		outer loop
			vertex 0.594188 5.886517 5.9169059
			vertex 0.526073 5.8825469 5.9140649
			vertex 0.619333 6.0596628 6.5192151
		endloop
	endfacet
	facet normal -0.02771182847310633 0.9605126077014261 -0.27685300252893
		outer loop
			vertex 0.526073 5.8825469 5.9140649
			vertex 0.533063 6.057198 6.519299
			vertex 0.619333 6.0596628 6.5192151
		endloop
	endfacet
	facet normal -0.5037296650386437 0.8315272355974286 -0.23413432260084033
		outer loop
			vertex 0.526073 5.8825469 5.9140649
			vertex 0.472555 5.8511639 5.9177499
			vertex 0.533063 6.057198 6.519299
		endloop
	endfacet
	facet normal -0.48624936514733863 0.840509016844699 -0.23896892579699056
		outer loop
			vertex 0.472555 5.8511639 5.9177499
			vertex 0.464229 6.0197811 6.5277572
			vertex 0.533063 6.057198 6.519299
		endloop
	endfacet
	facet normal -0.9314191948566938 0.34732976915953107 -0.10872127164495121
		outer loop
			vertex 0.472555 5.8511639 5.9177499
			vertex 0.454073 5.8043561 5.9265499
			vertex 0.464229 6.0197811 6.5277572
		endloop
	endfacet
	facet normal -0.9212830466598744 0.3707819081940049 -0.1172958843826682
		outer loop
			vertex 0.454073 5.8043561 5.9265499
			vertex 0.439124 5.9617052 6.541358
			vertex 0.464229 6.0197811 6.5277572
		endloop
	endfacet
	facet normal -0.8878704268390021 -0.4504520463480863 0.09369663326689026
		outer loop
			vertex 0.454073 5.8043561 5.9265499
			vertex 0.47769 5.7600012 5.9371061
			vertex 0.439124 5.9617052 6.541358
		endloop
	endfacet
	facet normal -0.8995780958567328 -0.42829860265148484 0.08555440620774966
		outer loop
			vertex 0.47769 5.7600012 5.9371061
			vertex 0.467337 5.9051542 6.5549059
			vertex 0.439124 5.9617052 6.541358
		endloop
	endfacet
	facet normal -0.41912706537255834 -0.8853985940241674 0.2010020715619987
		outer loop
			vertex 0.47769 5.7600012 5.9371061
			vertex 0.534386 5.7350421 5.945385
			vertex 0.467337 5.9051542 6.5549059
		endloop
	endfacet
	facet normal -0.4376314418376416 -0.8773697605450361 0.19672575936123138
		outer loop
			vertex 0.534386 5.7350421 5.945385
			vertex 0.538092 5.8717279 6.5632291
			vertex 0.467337 5.9051542 6.5549059
		endloop
	endfacet
	facet normal 0.43844639888247144 -0.7707792610315307 0.4622381270197
		outer loop
			vertex 0.679793 6.4568062 8.084136
			vertex 0.638654 6.5788832 8.3267202
			vertex 0.590318 6.412735 8.0955172
		endloop
	endfacet
	facet normal 0.4297216648349414 -0.7734390454535778 0.46597353330349645
		outer loop
			vertex 0.638654 6.5788832 8.3267202
			vertex 0.569271 6.547184 8.3380899
			vertex 0.590318 6.412735 8.0955172
		endloop
	endfacet
	facet normal 0.8785937933383674 -0.34986697869269906 0.32506313775594536
		outer loop
			vertex 0.679793 6.4568062 8.084136
			vertex 0.712837 6.5245538 8.0677404
			vertex 0.638654 6.5788832 8.3267202
		endloop
	endfacet
	facet normal 0.8840917862714796 -0.3368473727306861 0.32390671640418145
		outer loop
			vertex 0.712837 6.5245538 8.0677404
			vertex 0.665778 6.6340919 8.3101006
			vertex 0.638654 6.5788832 8.3267202
		endloop
	endfacet
	facet normal 0.879815617378958 0.47335642171044784 -0.04310658234613085
		outer loop
			vertex 0.712837 6.5245538 8.0677404
			vertex 0.67683 6.5900998 8.0525942
			vertex 0.665778 6.6340919 8.3101006
		endloop
	endfacet
	facet normal 0.9169719144588862 0.3979235080460788 -0.02862498625165854
		outer loop
			vertex 0.67683 6.5900998 8.0525942
			vertex 0.640282 6.6917281 8.2945786
			vertex 0.665778 6.6340919 8.3101006
		endloop
	endfacet
	facet normal 0.39131757328485234 0.8680770494239997 -0.3054714276356747
		outer loop
			vertex 0.67683 6.5900998 8.0525942
			vertex 0.585525 6.628406 8.044487
			vertex 0.640282 6.6917281 8.2945786
		endloop
	endfacet
	facet normal 0.49115332298387593 0.8127698287402053 -0.3133266966147534
		outer loop
			vertex 0.585525 6.628406 8.044487
			vertex 0.571904 6.729774 8.2860842
			vertex 0.640282 6.6917281 8.2945786
		endloop
	endfacet
	facet normal -0.03639431743256833 0.9207775667060252 -0.38838656813740213
		outer loop
			vertex 0.585525 6.628406 8.044487
			vertex 0.473798 6.6248431 8.0465097
			vertex 0.571904 6.729774 8.2860842
		endloop
	endfacet
	facet normal 0.03336056452608852 0.91039092512666 -0.41240203222283595
		outer loop
			vertex 0.473798 6.6248431 8.0465097
			vertex 0.486763 6.7336979 8.287859
			vertex 0.571904 6.729774 8.2860842
		endloop
	endfacet
	facet normal -0.4495782868515952 0.8230567286733715 -0.34706913630726804
		outer loop
			vertex 0.473798 6.6248431 8.0465097
			vertex 0.384324 6.580771 8.0578957
			vertex 0.486763 6.7336979 8.287859
		endloop
	endfacet
	facet normal -0.4359454047840792 0.8267434451813834 -0.35559370058714823
		outer loop
			vertex 0.384324 6.580771 8.0578957
			vertex 0.417381 6.7020011 8.2992249
			vertex 0.486763 6.7336979 8.287859
		endloop
	endfacet
	facet normal -0.903513495205605 0.41962865372921526 -0.08703537758152091
		outer loop
			vertex 0.384324 6.580771 8.0578957
			vertex 0.35128 6.5130239 8.0742922
			vertex 0.417381 6.7020011 8.2992249
		endloop
	endfacet
	facet normal -0.9041858473468091 0.4184273211664584 -0.08582849386535005
		outer loop
			vertex 0.35128 6.5130239 8.0742922
			vertex 0.390254 6.646791 8.3158445
			vertex 0.417381 6.7020011 8.2992249
		endloop
	endfacet
	facet normal -0.8523500518947321 -0.38694858809087307 0.3518098622971331
		outer loop
			vertex 0.35128 6.5130239 8.0742922
			vertex 0.387287 6.4474778 8.0894356
			vertex 0.390254 6.646791 8.3158445
		endloop
	endfacet
	facet normal -0.901031505292158 -0.3196482339908356 0.29320169334007623
		outer loop
			vertex 0.387287 6.4474778 8.0894356
			vertex 0.415752 6.5891571 8.3313694
			vertex 0.390254 6.646791 8.3158445
		endloop
	endfacet
	facet normal -0.3722374731477551 -0.7811479817163194 0.5012455428680589
		outer loop
			vertex 0.387287 6.4474778 8.0894356
			vertex 0.47859 6.4091711 8.0975418
			vertex 0.415752 6.5891571 8.3313694
		endloop
	endfacet
	facet normal -0.47585446000523934 -0.7541304073694435 0.45260342638331774
		outer loop
			vertex 0.47859 6.4091711 8.0975418
			vertex 0.484128 6.5511112 8.3398657
			vertex 0.415752 6.5891571 8.3313694
		endloop
	endfacet
	facet normal 0.03665823555001833 -0.8626568395058335 0.5044594641992219
		outer loop
			vertex 0.47859 6.4091711 8.0975418
			vertex 0.590318 6.412735 8.0955172
			vertex 0.484128 6.5511112 8.3398657
		endloop
	endfacet
	facet normal -0.03031096657530695 -0.8753478146789782 0.4825426910046489
		outer loop
			vertex 0.590318 6.412735 8.0955172
			vertex 0.569271 6.547184 8.3380899
			vertex 0.484128 6.5511112 8.3398657
		endloop
	endfacet
	facet normal 0.36963032973849563 -0.8527029922759203 0.3691490570231802
		outer loop
			vertex 0.666762 5.9813628 7.0939932
			vertex 0.78956 6.0291762 7.08148
			vertex 0.626923 6.197124 7.6322742
		endloop
	endfacet
	facet normal 0.3685898487343451 -0.8532182109226704 0.36899892677338564
		outer loop
			vertex 0.78956 6.0291762 7.08148
			vertex 0.742759 6.2420349 7.6204119
			vertex 0.626923 6.197124 7.6322742
		endloop
	endfacet
	facet normal 0.8467968798463119 -0.46549492415189153 0.25738982083869527
		outer loop
			vertex 0.78956 6.0291762 7.08148
			vertex 0.835097 6.1022048 7.0637398
			vertex 0.742759 6.2420349 7.6204119
		endloop
	endfacet
	facet normal 0.8433366160881619 -0.47125728007330664 0.25826329189971486
		outer loop
			vertex 0.835097 6.1022048 7.0637398
			vertex 0.785873 6.3101048 7.6038351
			vertex 0.742759 6.2420349 7.6204119
		endloop
	endfacet
	facet normal 0.8267633484014216 0.5461416086569075 -0.13487664376649763
		outer loop
			vertex 0.835097 6.1022048 7.0637398
			vertex 0.78598 6.1725621 7.047554
			vertex 0.785873 6.3101048 7.6038351
		endloop
	endfacet
	facet normal 0.8236172752096778 0.5506032276451769 -0.13598040183386564
		outer loop
			vertex 0.78598 6.1725621 7.047554
			vertex 0.739798 6.37533 7.58887
			vertex 0.785873 6.3101048 7.6038351
		endloop
	endfacet
	facet normal 0.3139105819870044 0.8976090137461286 -0.30944822662003213
		outer loop
			vertex 0.78598 6.1725621 7.047554
			vertex 0.66097 6.213366 7.0391002
			vertex 0.739798 6.37533 7.58887
		endloop
	endfacet
	facet normal 0.3066821329539259 0.900198379825396 -0.3091746210259871
		outer loop
			vertex 0.66097 6.213366 7.0391002
			vertex 0.62213 6.412797 7.5812402
			vertex 0.739798 6.37533 7.58887
		endloop
	endfacet
	facet normal -0.03218269353984024 0.9372787580800942 -0.3470919242626614
		outer loop
			vertex 0.66097 6.213366 7.0391002
			vertex 0.507818 6.2090349 7.041605
			vertex 0.62213 6.412797 7.5812402
		endloop
	endfacet
	facet normal -0.036168946770813254 0.9374252795212414 -0.346302833664428
		outer loop
			vertex 0.507818 6.2090349 7.041605
			vertex 0.477818 6.408195 7.5838552
			vertex 0.62213 6.412797 7.5812402
		endloop
	endfacet
	facet normal -0.37115782528470037 0.8648047113244005 -0.3381636881763801
		outer loop
			vertex 0.507818 6.2090349 7.041605
			vertex 0.385017 6.1612248 7.0541201
			vertex 0.477818 6.408195 7.5838552
		endloop
	endfacet
	facet normal -0.37010791882648625 0.8651243576157436 -0.33849663850897277
		outer loop
			vertex 0.385017 6.1612248 7.0541201
			vertex 0.361981 6.3632808 7.5957189
			vertex 0.477818 6.408195 7.5838552
		endloop
	endfacet
	facet normal -0.8513395003783322 0.47863569554520385 -0.21477645598512562
		outer loop
			vertex 0.385017 6.1612248 7.0541201
			vertex 0.339482 6.0881929 7.0718598
			vertex 0.361981 6.3632808 7.5957189
		endloop
	endfacet
	facet normal -0.8476283096619527 0.48387797526697907 -0.21768866233947462
		outer loop
			vertex 0.339482 6.0881929 7.0718598
			vertex 0.318866 6.2952132 7.612298
			vertex 0.361981 6.3632808 7.5957189
		endloop
	endfacet
	facet normal -0.8257967731536211 -0.5364567973754694 0.17399366080039094
		outer loop
			vertex 0.339482 6.0881929 7.0718598
			vertex 0.388597 6.017838 7.088048
			vertex 0.318866 6.2952132 7.612298
		endloop
	endfacet
	facet normal -0.8225506079054526 -0.5405750598461068 0.17660436604667723
		outer loop
			vertex 0.388597 6.017838 7.088048
			vertex 0.364943 6.2299891 7.6272588
			vertex 0.318866 6.2952132 7.612298
		endloop
	endfacet
	facet normal -0.3127309653690027 -0.8884831885649154 0.33585259703758824
		outer loop
			vertex 0.388597 6.017838 7.088048
			vertex 0.513607 5.9770322 7.0965018
			vertex 0.364943 6.2299891 7.6272588
		endloop
	endfacet
	facet normal -0.3053407314026591 -0.8899934691794698 0.33864238152419945
		outer loop
			vertex 0.513607 5.9770322 7.0965018
			vertex 0.482609 6.192523 7.6348882
			vertex 0.364943 6.2299891 7.6272588
		endloop
	endfacet
	facet normal 0.03232892471186427 -0.92726684006672 0.3730027452173171
		outer loop
			vertex 0.513607 5.9770322 7.0965018
			vertex 0.666762 5.9813628 7.0939932
			vertex 0.482609 6.192523 7.6348882
		endloop
	endfacet
	facet normal 0.03632051062914005 -0.9266659137378929 0.37412712388164876
		outer loop
			vertex 0.666762 5.9813628 7.0939932
			vertex 0.626923 6.197124 7.6322742
			vertex 0.482609 6.192523 7.6348882
		endloop
	endfacet
	facet normal 0.05495791591458544 -0.2083976036343571 -0.9764988818620238
		outer loop
			vertex 0.656021 5.770391 5.94454
			vertex 0.602501 5.7390099 5.948225
			vertex 0.565503 5.8061409 5.9318161
		endloop
	endfacet
	facet normal 0.052912649288473695 -0.20949502739296 -0.9763770199277009
		outer loop
			vertex 0.602501 5.7390099 5.948225
			vertex 0.534386 5.7350421 5.945385
			vertex 0.565503 5.8061409 5.9318161
		endloop
	endfacet
	facet normal 0.050777811774733 -0.20861815419707005 -0.9766780839001034
		outer loop
			vertex 0.534386 5.7350421 5.945385
			vertex 0.47769 5.7600012 5.9371061
			vertex 0.565503 5.8061409 5.9318161
		endloop
	endfacet
	facet normal 0.04948828729811357 -0.20622966141944632 -0.9772513679556145
		outer loop
			vertex 0.47769 5.7600012 5.9371061
			vertex 0.454073 5.8043561 5.9265499
			vertex 0.565503 5.8061409 5.9318161
		endloop
	endfacet
	facet normal 0.049470853047364524 -0.20337226094759522 -0.9778508874955473
		outer loop
			vertex 0.454073 5.8043561 5.9265499
			vertex 0.472555 5.8511639 5.9177499
			vertex 0.565503 5.8061409 5.9318161
		endloop
	endfacet
	facet normal 0.0506027838960914 -0.20116026595975856 -0.978250430953631
		outer loop
			vertex 0.472555 5.8511639 5.9177499
			vertex 0.526073 5.8825469 5.9140649
			vertex 0.565503 5.8061409 5.9318161
		endloop
	endfacet
	facet normal 0.05247532983457734 -0.20021600584800248 -0.9783454864009058
		outer loop
			vertex 0.526073 5.8825469 5.9140649
			vertex 0.594188 5.886517 5.9169059
			vertex 0.565503 5.8061409 5.9318161
		endloop
	endfacet
	facet normal 0.054408378628003025 -0.20086173459959333 -0.9781075052920893
		outer loop
			vertex 0.594188 5.886517 5.9169059
			vertex 0.650884 5.861558 5.9251852
			vertex 0.565503 5.8061409 5.9318161
		endloop
	endfacet
	facet normal 0.055776026282486464 -0.2029090702236592 -0.9776077659844492
		outer loop
			vertex 0.650884 5.861558 5.9251852
			vertex 0.674501 5.8172021 5.935739
			vertex 0.565503 5.8061409 5.9318161
		endloop
	endfacet
	facet normal 0.056048073080981975 -0.20581053717544287 -0.9769854841764358
		outer loop
			vertex 0.674501 5.8172021 5.935739
			vertex 0.656021 5.770391 5.94454
			vertex 0.565503 5.8061409 5.9318161
		endloop
	endfacet
	facet normal -0.43574858383626264 -0.8914769201670493 0.1240647915170318
		outer loop
			vertex 0.467337 5.9051542 6.5549059
			vertex 0.538092 5.8717279 6.5632291
			vertex 0.388597 6.017838 7.088048
		endloop
	endfacet
	facet normal -0.3161591660569727 -0.9333874199977316 0.1697978383494267
		outer loop
			vertex 0.538092 5.8717279 6.5632291
			vertex 0.513607 5.9770322 7.0965018
			vertex 0.388597 6.017838 7.088048
		endloop
	endfacet
	facet normal 0.028230024042769707 -0.9804173270517447 0.19489723076343948
		outer loop
			vertex 0.538092 5.8717279 6.5632291
			vertex 0.624363 5.8741951 6.5631442
			vertex 0.513607 5.9770322 7.0965018
		endloop
	endfacet
	facet normal 0.030917851500811777 -0.9802322329820106 0.1954196916425649
		outer loop
			vertex 0.624363 5.8741951 6.5631442
			vertex 0.666762 5.9813628 7.0939932
			vertex 0.513607 5.9770322 7.0965018
		endloop
	endfacet
	facet normal 0.4859746073145981 -0.8634067803433736 0.13548952986305615
		outer loop
			vertex 0.624363 5.8741951 6.5631442
			vertex 0.693196 5.9116111 6.554687
			vertex 0.666762 5.9813628 7.0939932
		endloop
	endfacet
	facet normal 0.37150210584840215 -0.9182723437121108 0.13697477185113222
		outer loop
			vertex 0.693196 5.9116111 6.554687
			vertex 0.78956 6.0291762 7.08148
			vertex 0.666762 5.9813628 7.0939932
		endloop
	endfacet
	facet normal 0.9088501677689942 -0.4103856663448401 -0.07466577130769306
		outer loop
			vertex 0.693196 5.9116111 6.554687
			vertex 0.718302 5.969686 6.5410862
			vertex 0.78956 6.0291762 7.08148
		endloop
	endfacet
	facet normal 0.841709473710011 -0.5374376839879055 -0.051825647092269965
		outer loop
			vertex 0.718302 5.969686 6.5410862
			vertex 0.835097 6.1022048 7.0637398
			vertex 0.78956 6.0291762 7.08148
		endloop
	endfacet
	facet normal 0.8821099991069293 0.3703818203522406 -0.29103136708632293
		outer loop
			vertex 0.718302 5.969686 6.5410862
			vertex 0.690087 6.026237 6.5275369
			vertex 0.835097 6.1022048 7.0637398
		endloop
	endfacet
	facet normal 0.8145504556328161 0.5016178833821534 -0.2913538300753569
		outer loop
			vertex 0.690087 6.026237 6.5275369
			vertex 0.78598 6.1725621 7.047554
			vertex 0.835097 6.1022048 7.0637398
		endloop
	endfacet
	facet normal 0.4353331815473616 0.842484740555928 -0.3173396964992916
		outer loop
			vertex 0.690087 6.026237 6.5275369
			vertex 0.619333 6.0596628 6.5192151
			vertex 0.78598 6.1725621 7.047554
		endloop
	endfacet
	facet normal 0.3145518956452344 0.903146097935931 -0.29220580201134155
		outer loop
			vertex 0.619333 6.0596628 6.5192151
			vertex 0.66097 6.213366 7.0391002
			vertex 0.78598 6.1725621 7.047554
		endloop
	endfacet
	facet normal -0.027678727053129654 0.9592003003299433 -0.28136928033398545
		outer loop
			vertex 0.619333 6.0596628 6.5192151
			vertex 0.533063 6.057198 6.519299
			vertex 0.66097 6.213366 7.0391002
		endloop
	endfacet
	facet normal -0.031716548385098284 0.9593528192319186 -0.280421519841658
		outer loop
			vertex 0.533063 6.057198 6.519299
			vertex 0.507818 6.2090349 7.041605
			vertex 0.66097 6.213366 7.0391002
		endloop
	endfacet
	facet normal -0.4854187977842414 0.832959347933573 -0.2656074461452071
		outer loop
			vertex 0.533063 6.057198 6.519299
			vertex 0.464229 6.0197811 6.5277572
			vertex 0.507818 6.2090349 7.041605
		endloop
	endfacet
	facet normal -0.3726707515947736 0.8805879936506369 -0.29271367638723755
		outer loop
			vertex 0.464229 6.0197811 6.5277572
			vertex 0.385017 6.1612248 7.0541201
			vertex 0.507818 6.2090349 7.041605
		endloop
	endfacet
	facet normal -0.9119378916333625 0.34063555416572333 -0.22877215967313105
		outer loop
			vertex 0.464229 6.0197811 6.5277572
			vertex 0.439124 5.9617052 6.541358
			vertex 0.385017 6.1612248 7.0541201
		endloop
	endfacet
	facet normal -0.8452935367481218 0.4617293960867117 -0.26885832983423136
		outer loop
			vertex 0.439124 5.9617052 6.541358
			vertex 0.339482 6.0881929 7.0718598
			vertex 0.385017 6.1612248 7.0541201
		endloop
	endfacet
	facet normal -0.8877205330357808 -0.45673524876187516 -0.057837425297960765
		outer loop
			vertex 0.439124 5.9617052 6.541358
			vertex 0.467337 5.9051542 6.5549059
			vertex 0.339482 6.0881929 7.0718598
		endloop
	endfacet
	facet normal -0.8199499381545531 -0.5724352249865886 -0.00011006770042297903
		outer loop
			vertex 0.467337 5.9051542 6.5549059
			vertex 0.388597 6.017838 7.088048
			vertex 0.339482 6.0881929 7.0718598
		endloop
	endfacet
	facet normal -0.3001209549034353 -0.8574404473240101 0.41799915277504085
		outer loop
			vertex 0.364943 6.2299891 7.6272588
			vertex 0.482609 6.192523 7.6348882
			vertex 0.387287 6.4474778 8.0894356
		endloop
	endfacet
	facet normal -0.3856082130075423 -0.8368682517979094 0.38853292678206947
		outer loop
			vertex 0.482609 6.192523 7.6348882
			vertex 0.47859 6.4091711 8.0975418
			vertex 0.387287 6.4474778 8.0894356
		endloop
	endfacet
	facet normal 0.03653091528119441 -0.9048985511256658 0.42405672309184
		outer loop
			vertex 0.482609 6.192523 7.6348882
			vertex 0.626923 6.197124 7.6322742
			vertex 0.47859 6.4091711 8.0975418
		endloop
	endfacet
	facet normal 0.036548691370970166 -0.9048957712327766 0.42406112338212304
		outer loop
			vertex 0.626923 6.197124 7.6322742
			vertex 0.590318 6.412735 8.0955172
			vertex 0.47859 6.4091711 8.0975418
		endloop
	endfacet
	facet normal 0.3641664662993995 -0.8252581805758622 0.43166158065737786
		outer loop
			vertex 0.742759 6.2420349 7.6204119
			vertex 0.679793 6.4568062 8.084136
			vertex 0.626923 6.197124 7.6322742
		endloop
	endfacet
	facet normal 0.4447898666993086 -0.7980312028565666 0.406581078936186
		outer loop
			vertex 0.679793 6.4568062 8.084136
			vertex 0.590318 6.412735 8.0955172
			vertex 0.626923 6.197124 7.6322742
		endloop
	endfacet
	facet normal 0.8334092501895607 -0.4495962230285597 0.32139112921318747
		outer loop
			vertex 0.742759 6.2420349 7.6204119
			vertex 0.785873 6.3101048 7.6038351
			vertex 0.679793 6.4568062 8.084136
		endloop
	endfacet
	facet normal 0.8831439034091388 -0.35715010803969544 0.30413918885685154
		outer loop
			vertex 0.785873 6.3101048 7.6038351
			vertex 0.712837 6.5245538 8.0677404
			vertex 0.679793 6.4568062 8.084136
		endloop
	endfacet
	facet normal 0.8236533786129181 0.5529345151282121 -0.12593067092433846
		outer loop
			vertex 0.785873 6.3101048 7.6038351
			vertex 0.739798 6.37533 7.58887
			vertex 0.712837 6.5245538 8.0677404
		endloop
	endfacet
	facet normal 0.8815914610439305 0.46246167865251453 -0.09447587836229099
		outer loop
			vertex 0.739798 6.37533 7.58887
			vertex 0.67683 6.5900998 8.0525942
			vertex 0.712837 6.5245538 8.0677404
		endloop
	endfacet
	facet normal 0.3038088531563262 0.8795790777016154 -0.36611586528504014
		outer loop
			vertex 0.739798 6.37533 7.58887
			vertex 0.62213 6.412797 7.5812402
			vertex 0.67683 6.5900998 8.0525942
		endloop
	endfacet
	facet normal 0.3876610559513782 0.8470563031697603 -0.3636131528960984
		outer loop
			vertex 0.62213 6.412797 7.5812402
			vertex 0.585525 6.628406 8.044487
			vertex 0.67683 6.5900998 8.0525942
		endloop
	endfacet
	facet normal -0.03654061142718558 0.9048991259794604 -0.42405466100272526
		outer loop
			vertex 0.62213 6.412797 7.5812402
			vertex 0.477818 6.408195 7.5838552
			vertex 0.585525 6.628406 8.044487
		endloop
	endfacet
	facet normal -0.036533711235422615 0.904898735890538 -0.4240560879495459
		outer loop
			vertex 0.477818 6.408195 7.5838552
			vertex 0.473798 6.6248431 8.0465097
			vertex 0.585525 6.628406 8.044487
		endloop
	endfacet
	facet normal -0.3668570478520557 0.8412543698809375 -0.3971233959331802
		outer loop
			vertex 0.477818 6.408195 7.5838552
			vertex 0.361981 6.3632808 7.5957189
			vertex 0.473798 6.6248431 8.0465097
		endloop
	endfacet
	facet normal -0.44851932766914926 0.8168645821132248 -0.36271568369206364
		outer loop
			vertex 0.361981 6.3632808 7.5957189
			vertex 0.384324 6.580771 8.0578957
			vertex 0.473798 6.6248431 8.0465097
		endloop
	endfacet
	facet normal -0.8496396694939253 0.4918083770759477 -0.190360059519259
		outer loop
			vertex 0.361981 6.3632808 7.5957189
			vertex 0.318866 6.2952132 7.612298
			vertex 0.384324 6.580771 8.0578957
		endloop
	endfacet
	facet normal -0.9032061258499599 0.40919011452505794 -0.12954591619220002
		outer loop
			vertex 0.318866 6.2952132 7.612298
			vertex 0.35128 6.5130239 8.0742922
			vertex 0.384324 6.580771 8.0578957
		endloop
	endfacet
	facet normal -0.8109728685067411 -0.5052188426783267 0.2950879996691165
		outer loop
			vertex 0.318866 6.2952132 7.612298
			vertex 0.364943 6.2299891 7.6272588
			vertex 0.35128 6.5130239 8.0742922
		endloop
	endfacet
	facet normal -0.8729689755023311 -0.4237367874317267 0.24160360673518555
		outer loop
			vertex 0.364943 6.2299891 7.6272588
			vertex 0.387287 6.4474778 8.0894356
			vertex 0.35128 6.5130239 8.0742922
		endloop
	endfacet
	facet normal -0.8054831114933934 -0.39139557535178965 0.4449791688314897
		outer loop
			vertex -0.709956 6.3566232 8.1452007
			vertex -0.635654 6.5431261 8.4437437
			vertex -0.743629 6.4135308 8.1343021
		endloop
	endfacet
	facet normal -0.8752118709309114 -0.25392394275395846 0.4117363383014651
		outer loop
			vertex -0.635654 6.5431261 8.4437437
			vertex -0.653826 6.5894399 8.4336786
			vertex -0.743629 6.4135308 8.1343021
		endloop
	endfacet
	facet normal -0.3681321374310246 -0.7446204582219493 0.5567935906489941
		outer loop
			vertex -0.709956 6.3566232 8.1452007
			vertex -0.62654 6.3200378 8.1514254
			vertex -0.635654 6.5431261 8.4437437
		endloop
	endfacet
	facet normal -0.49428478779327634 -0.6984111466148633 0.5175948404304935
		outer loop
			vertex -0.62654 6.3200378 8.1514254
			vertex -0.586526 6.5141411 8.4515486
			vertex -0.635654 6.5431261 8.4437437
		endloop
	endfacet
	facet normal -0.014545792908689148 -0.8402138197525243 0.5420601046060578
		outer loop
			vertex -0.525243 6.3177519 8.1506004
			vertex -0.525206 6.5135598 8.4541111
			vertex -0.62654 6.3200378 8.1514254
		endloop
	endfacet
	facet normal -0.030742617588561026 -0.8374192356481228 0.5456958083312692
		outer loop
			vertex -0.525206 6.5135598 8.4541111
			vertex -0.586526 6.5141411 8.4515486
			vertex -0.62654 6.3200378 8.1514254
		endloop
	endfacet
	facet normal 0.36493866064049973 -0.7742776848203619 0.5170240233868623
		outer loop
			vertex -0.444757 6.350636 8.1430359
			vertex -0.475116 6.5416059 8.4504547
			vertex -0.525243 6.3177519 8.1506004
		endloop
	endfacet
	facet normal 0.4543848542746525 -0.7485722207004244 0.4828809735343049
		outer loop
			vertex -0.475116 6.5416059 8.4504547
			vertex -0.525206 6.5135598 8.4541111
			vertex -0.525243 6.3177519 8.1506004
		endloop
	endfacet
	facet normal 0.8624755656112237 -0.3812455765684072 0.3328478767704889
		outer loop
			vertex -0.415823 6.4061341 8.1316299
			vertex -0.455392 6.587564 8.4419718
			vertex -0.444757 6.350636 8.1430359
		endloop
	endfacet
	facet normal 0.8968134639437805 -0.33063090995756556 0.2939537587270997
		outer loop
			vertex -0.455392 6.587564 8.4419718
			vertex -0.475116 6.5416059 8.4504547
			vertex -0.444757 6.350636 8.1430359
		endloop
	endfacet
	facet normal 0.8602355867490127 0.47210241680316434 -0.1926500540856227
		outer loop
			vertex -0.449496 6.4630432 8.1207304
			vertex -0.473564 6.6338792 8.4319057
			vertex -0.415823 6.4061341 8.1316299
		endloop
	endfacet
	facet normal 0.9336897706154303 0.3479953208686166 -0.08439590571617704
		outer loop
			vertex -0.473564 6.6338792 8.4319057
			vertex -0.455392 6.587564 8.4419718
			vertex -0.415823 6.4061341 8.1316299
		endloop
	endfacet
	facet normal 0.38803145731092303 0.8099220335300839 -0.43983847914848817
		outer loop
			vertex -0.532912 6.4996262 8.1145039
			vertex -0.522693 6.6628609 8.4241009
			vertex -0.449496 6.4630432 8.1207304
		endloop
	endfacet
	facet normal 0.5138286950233969 0.76816103726811 -0.3819799641260449
		outer loop
			vertex -0.522693 6.6628609 8.4241009
			vertex -0.473564 6.6338792 8.4319057
			vertex -0.449496 6.4630432 8.1207304
		endloop
	endfacet
	facet normal 0.1099398086674197 0.8844114296801681 -0.453574317528288
		outer loop
			vertex -0.640295 6.5317678 8.1511478
			vertex -0.584014 6.6634421 8.4215374
			vertex -0.532912 6.4996262 8.1145039
		endloop
	endfacet
	facet normal 0.02789704335039553 0.8838533103704088 -0.4669315589244059
		outer loop
			vertex -0.584014 6.6634421 8.4215374
			vertex -0.522693 6.6628609 8.4241009
			vertex -0.532912 6.4996262 8.1145039
		endloop
	endfacet
	facet normal -0.38399036868469527 0.8664889497929704 -0.3189800881623607
		outer loop
			vertex -0.720782 6.4988842 8.1587124
			vertex -0.634102 6.635397 8.4251947
			vertex -0.640295 6.5317678 8.1511478
		endloop
	endfacet
	facet normal -0.48260654515465384 0.8227746569816999 -0.3002212291003674
		outer loop
			vertex -0.634102 6.635397 8.4251947
			vertex -0.584014 6.6634421 8.4215374
			vertex -0.640295 6.5317678 8.1511478
		endloop
	endfacet
	facet normal -0.9634950815396592 0.21064546147146793 0.16524441718363062
		outer loop
			vertex -0.743629 6.4135308 8.1343021
			vertex -0.653826 6.5894399 8.4336786
			vertex -0.720782 6.4988842 8.1587124
		endloop
	endfacet
	facet normal -0.9094481445409293 0.4064883459625057 0.08758594058253515
		outer loop
			vertex -0.653826 6.5894399 8.4336786
			vertex -0.634102 6.635397 8.4251947
			vertex -0.720782 6.4988842 8.1587124
		endloop
	endfacet
	facet normal -0.03906526889966149 0.19754425502276257 0.9795152740377757
		outer loop
			vertex -0.635654 6.5431261 8.4437437
			vertex -0.586526 6.5141411 8.4515486
			vertex -0.653826 6.5894399 8.4336786
		endloop
	endfacet
	facet normal -0.48412704880431734 -0.23250946981052106 0.8435403648103942
		outer loop
			vertex -0.586526 6.5141411 8.4515486
			vertex -0.553659 6.5824661 8.4892445
			vertex -0.653826 6.5894399 8.4336786
		endloop
	endfacet
	facet normal -0.039061668135529304 0.19746619598965603 0.9795311569949395
		outer loop
			vertex -0.525206 6.5135598 8.4541111
			vertex -0.475116 6.5416059 8.4504547
			vertex -0.586526 6.5141411 8.4515486
		endloop
	endfacet
	facet normal 0.13855189208346733 -0.5286763932542902 0.8374393377527274
		outer loop
			vertex -0.475116 6.5416059 8.4504547
			vertex -0.553659 6.5824661 8.4892445
			vertex -0.586526 6.5141411 8.4515486
		endloop
	endfacet
	facet normal -0.039059917683913176 0.19756085110388655 0.9795121402727146
		outer loop
			vertex -0.455392 6.587564 8.4419718
			vertex -0.473564 6.6338792 8.4319057
			vertex -0.475116 6.5416059 8.4504547
		endloop
	endfacet
	facet normal 0.5034722105946248 0.16213207407949257 0.8486630212950508
		outer loop
			vertex -0.473564 6.6338792 8.4319057
			vertex -0.553659 6.5824661 8.4892445
			vertex -0.475116 6.5416059 8.4504547
		endloop
	endfacet
	facet normal -0.03907591204622379 0.19754388451042806 0.9795149242305022
		outer loop
			vertex -0.522693 6.6628609 8.4241009
			vertex -0.584014 6.6634421 8.4215374
			vertex -0.473564 6.6338792 8.4319057
		endloop
	endfacet
	facet normal 0.1072418795485516 0.6611069758463246 0.7425878707319566
		outer loop
			vertex -0.584014 6.6634421 8.4215374
			vertex -0.553659 6.5824661 8.4892445
			vertex -0.473564 6.6338792 8.4319057
		endloop
	endfacet
	facet normal -0.03912586579978546 0.19761236320778092 0.9794991171679807
		outer loop
			vertex -0.634102 6.635397 8.4251947
			vertex -0.653826 6.5894399 8.4336786
			vertex -0.584014 6.6634421 8.4215374
		endloop
	endfacet
	facet normal -0.39381045595561603 0.49824293765498984 0.7724424249463232
		outer loop
			vertex -0.653826 6.5894399 8.4336786
			vertex -0.553659 6.5824661 8.4892445
			vertex -0.584014 6.6634421 8.4215374
		endloop
	endfacet
	facet normal 0.09100343451428153 -0.09391477236743039 -0.9914123211044832
		outer loop
			vertex -0.64298 5.8695321 5.9150252
			vertex -0.724448 5.793272 5.9147711
			vertex -0.756383 5.8378282 5.907619
		endloop
	endfacet
	facet normal 0.045495407816842165 -0.04527720068665952 -0.9979379454482925
		outer loop
			vertex -0.64298 5.8695321 5.9150252
			vertex -0.663821 5.7747788 5.9183741
			vertex -0.724448 5.793272 5.9147711
		endloop
	endfacet
	facet normal -0.0458498187755843 -0.025210272744750892 -0.9986301799296782
		outer loop
			vertex -0.64298 5.8695321 5.9150252
			vertex -0.597662 5.7894139 5.9149671
			vertex -0.663821 5.7747788 5.9183741
		endloop
	endfacet
	facet normal -0.11415072007288743 -0.06384918080319532 -0.9914095496905415
		outer loop
			vertex -0.64298 5.8695321 5.9150252
			vertex -0.55124 5.8315859 5.9069061
			vertex -0.597662 5.7894139 5.9149671
		endloop
	endfacet
	facet normal -0.1307624327002559 -0.10520708461281723 -0.9858157310276515
		outer loop
			vertex -0.64298 5.8695321 5.9150252
			vertex -0.542288 5.8851881 5.8999982
			vertex -0.55124 5.8315859 5.9069061
		endloop
	endfacet
	facet normal -0.11397203141468419 -0.20086243902380344 -0.9729669350212367
		outer loop
			vertex -0.64298 5.8695321 5.9150252
			vertex -0.574223 5.9297438 5.8945408
			vertex -0.542288 5.8851881 5.8999982
		endloop
	endfacet
	facet normal -0.05150278027719219 -0.2684387919020297 -0.9619189563710127
		outer loop
			vertex -0.64298 5.8695321 5.9150252
			vertex -0.63485 5.9482379 5.8926258
			vertex -0.574223 5.9297438 5.8945408
		endloop
	endfacet
	facet normal 0.026888689668595245 -0.2761965202885017 -0.9607249765403361
		outer loop
			vertex -0.64298 5.8695321 5.9150252
			vertex -0.701006 5.9336019 5.8949819
			vertex -0.63485 5.9482379 5.8926258
		endloop
	endfacet
	facet normal 0.08561655482274932 -0.22602046590012642 -0.970352799003833
		outer loop
			vertex -0.64298 5.8695321 5.9150252
			vertex -0.74743 5.891428 5.9007092
			vertex -0.701006 5.9336019 5.8949819
		endloop
	endfacet
	facet normal 0.10461115525270226 -0.14432377714287087 -0.9839853421407813
		outer loop
			vertex -0.64298 5.8695321 5.9150252
			vertex -0.756383 5.8378282 5.907619
			vertex -0.74743 5.891428 5.9007092
		endloop
	endfacet
	facet normal -0.2961593526310452 -0.9231680541263062 0.24505179389225043
		outer loop
			vertex -0.724448 5.793272 5.9147711
			vertex -0.663821 5.7747788 5.9183741
			vertex -0.684964 5.9463639 6.5392232
		endloop
	endfacet
	facet normal -0.4969119581847437 -0.840641570163174 0.21540718726773528
		outer loop
			vertex -0.663821 5.7747788 5.9183741
			vertex -0.632353 5.9149451 6.5379748
			vertex -0.684964 5.9463639 6.5392232
		endloop
	endfacet
	facet normal -0.8111866722524385 -0.5491287681824656 0.20108152255844725
		outer loop
			vertex -0.756383 5.8378282 5.907619
			vertex -0.724448 5.793272 5.9147711
			vertex -0.704459 5.9945378 6.5450411
		endloop
	endfacet
	facet normal -0.9096327441732425 -0.3864994773795142 0.15227089253438814
		outer loop
			vertex -0.724448 5.793272 5.9147711
			vertex -0.684964 5.9463639 6.5392232
			vertex -0.704459 5.9945378 6.5450411
		endloop
	endfacet
	facet normal -0.9834987595408239 0.17164696906825053 0.057162120248849035
		outer loop
			vertex -0.74743 5.891428 5.9007092
			vertex -0.756383 5.8378282 5.907619
			vertex -0.683391 6.04106 6.5532112
		endloop
	endfacet
	facet normal -0.9086956937715778 0.4164938399661027 -0.028372828397629384
		outer loop
			vertex -0.756383 5.8378282 5.907619
			vertex -0.704459 5.9945378 6.5450411
			vertex -0.683391 6.04106 6.5532112
		endloop
	endfacet
	facet normal -0.675588807049694 0.7333521127521688 -0.07598975267167023
		outer loop
			vertex -0.701006 5.9336019 5.8949819
			vertex -0.74743 5.891428 5.9007092
			vertex -0.629808 6.0681639 6.5606079
		endloop
	endfacet
	facet normal -0.4275117058490195 0.8893770132802321 -0.1619946592045417
		outer loop
			vertex -0.74743 5.891428 5.9007092
			vertex -0.683391 6.04106 6.5532112
			vertex -0.629808 6.0681639 6.5606079
		endloop
	endfacet
	facet normal -0.21864986501459566 0.9649073506263025 -0.1454167845760219
		outer loop
			vertex -0.63485 5.9482379 5.8926258
			vertex -0.701006 5.9336019 5.8949819
			vertex -0.564177 6.0654941 6.5644102
		endloop
	endfacet
	facet normal 0.05154638890147568 0.9777834561398034 -0.20318091123557588
		outer loop
			vertex -0.701006 5.9336019 5.8949819
			vertex -0.629808 6.0681639 6.5606079
			vertex -0.564177 6.0654941 6.5644102
		endloop
	endfacet
	facet normal 0.2923443488770255 0.940327944369284 -0.17412104616589288
		outer loop
			vertex -0.574223 5.9297438 5.8945408
			vertex -0.63485 5.9482379 5.8926258
			vertex -0.511566 6.0340729 6.5631618
		endloop
	endfacet
	facet normal 0.498926363123326 0.8433256079997806 -0.19968576081516537
		outer loop
			vertex -0.63485 5.9482379 5.8926258
			vertex -0.564177 6.0654941 6.5644102
			vertex -0.511566 6.0340729 6.5631618
		endloop
	endfacet
	facet normal 0.8123002130030644 0.5640251392141564 -0.14847224080489932
		outer loop
			vertex -0.542288 5.8851881 5.8999982
			vertex -0.574223 5.9297438 5.8945408
			vertex -0.492069 5.9859009 6.557343
		endloop
	endfacet
	facet normal 0.9108319517701972 0.38623754173414976 -0.1456218286853115
		outer loop
			vertex -0.574223 5.9297438 5.8945408
			vertex -0.511566 6.0340729 6.5631618
			vertex -0.492069 5.9859009 6.557343
		endloop
	endfacet
	facet normal 0.9852506740941374 -0.16843445320605327 -0.030181851669932716
		outer loop
			vertex -0.55124 5.8315859 5.9069061
			vertex -0.542288 5.8851881 5.8999982
			vertex -0.513137 5.9393792 6.5491762
		endloop
	endfacet
	facet normal 0.9113557549346661 -0.41156719053350954 -0.006567771602210449
		outer loop
			vertex -0.542288 5.8851881 5.8999982
			vertex -0.492069 5.9859009 6.557343
			vertex -0.513137 5.9393792 6.5491762
		endloop
	endfacet
	facet normal 0.6787063784019879 -0.7262972915727126 0.10885722838011153
		outer loop
			vertex -0.597662 5.7894139 5.9149671
			vertex -0.55124 5.8315859 5.9069061
			vertex -0.56672 5.9122748 6.541779
		endloop
	endfacet
	facet normal 0.4342124187319331 -0.8922371268406539 0.12398582542411639
		outer loop
			vertex -0.55124 5.8315859 5.9069061
			vertex -0.513137 5.9393792 6.5491762
			vertex -0.56672 5.9122748 6.541779
		endloop
	endfacet
	facet normal 0.221452916289169 -0.9534974433346334 0.2044534945197569
		outer loop
			vertex -0.663821 5.7747788 5.9183741
			vertex -0.597662 5.7894139 5.9149671
			vertex -0.632353 5.9149451 6.5379748
		endloop
	endfacet
	facet normal -0.0511290049551762 -0.979563630885074 0.19452742197321263
		outer loop
			vertex -0.597662 5.7894139 5.9149671
			vertex -0.56672 5.9122748 6.541779
			vertex -0.632353 5.9149451 6.5379748
		endloop
	endfacet
	facet normal -0.818818604720872 -0.45318883727817194 0.35235773062247855
		outer loop
			vertex -0.781592 6.1811218 7.7530079
			vertex -0.709956 6.3566232 8.1452007
			vertex -0.822851 6.2456641 7.7401409
		endloop
	endfacet
	facet normal -0.8341876478132619 -0.42668863296607706 0.3493819954338204
		outer loop
			vertex -0.709956 6.3566232 8.1452007
			vertex -0.743629 6.4135308 8.1343021
			vertex -0.822851 6.2456641 7.7401409
		endloop
	endfacet
	facet normal -0.9056043209124073 0.42412130509892076 0.0013901460231844566
		outer loop
			vertex -0.822851 6.2456641 7.7401409
			vertex -0.743629 6.4135308 8.1343021
			vertex -0.786839 6.3225312 7.7485199
		endloop
	endfacet
	facet normal -0.9682771595279008 0.24467309350152497 0.05073873917407082
		outer loop
			vertex -0.743629 6.4135308 8.1343021
			vertex -0.720782 6.4988842 8.1587124
			vertex -0.786839 6.3225312 7.7485199
		endloop
	endfacet
	facet normal -0.29455086994123125 0.8942348806044568 -0.33702190333448173
		outer loop
			vertex -0.786839 6.3225312 7.7485199
			vertex -0.720782 6.4988842 8.1587124
			vertex -0.681306 6.354775 7.7418399
		endloop
	endfacet
	facet normal -0.3832228998259887 0.8611587942245817 -0.3339846406328067
		outer loop
			vertex -0.720782 6.4988842 8.1587124
			vertex -0.640295 6.5317678 8.1511478
			vertex -0.681306 6.354775 7.7418399
		endloop
	endfacet
	facet normal 0.10899981600874777 0.9083674216649467 -0.40371731120653725
		outer loop
			vertex -0.681306 6.354775 7.7418399
			vertex -0.640295 6.5317678 8.1511478
			vertex -0.546561 6.33008 7.7226558
		endloop
	endfacet
	facet normal 0.1360215893412637 0.9075076597155066 -0.3974015284202626
		outer loop
			vertex -0.640295 6.5317678 8.1511478
			vertex -0.532912 6.4996262 8.1145039
			vertex -0.546561 6.33008 7.7226558
		endloop
	endfacet
	facet normal 0.38395543217529554 0.8424781681036743 -0.37790046622326245
		outer loop
			vertex -0.546561 6.33008 7.7226558
			vertex -0.532912 6.4996262 8.1145039
			vertex -0.440073 6.2854681 7.7313938
		endloop
	endfacet
	facet normal 0.3958462561630743 0.8390954694875236 -0.37312804044615866
		outer loop
			vertex -0.532912 6.4996262 8.1145039
			vertex -0.449496 6.4630432 8.1207304
			vertex -0.440073 6.2854681 7.7313938
		endloop
	endfacet
	facet normal 0.8425554037085974 0.497453782436512 -0.20649485712978455
		outer loop
			vertex -0.440073 6.2854681 7.7313938
			vertex -0.449496 6.4630432 8.1207304
			vertex -0.398813 6.2209249 7.7442589
		endloop
	endfacet
	facet normal 0.8606064737179601 0.47313155660375966 -0.18842247090100853
		outer loop
			vertex -0.449496 6.4630432 8.1207304
			vertex -0.415823 6.4061341 8.1316299
			vertex -0.398813 6.2209249 7.7442589
		endloop
	endfacet
	facet normal 0.825984646729257 -0.49358219761139394 0.2722608630865835
		outer loop
			vertex -0.398813 6.2209249 7.7442589
			vertex -0.415823 6.4061341 8.1316299
			vertex -0.438537 6.1611099 7.7563348
		endloop
	endfacet
	facet normal 0.8830606371129573 -0.41560281595260123 0.21789495302536555
		outer loop
			vertex -0.415823 6.4061341 8.1316299
			vertex -0.444757 6.350636 8.1430359
			vertex -0.438537 6.1611099 7.7563348
		endloop
	endfacet
	facet normal 0.2890127124291681 -0.8577861459437413 0.4250583252699775
		outer loop
			vertex -0.438537 6.1611099 7.7563348
			vertex -0.444757 6.350636 8.1430359
			vertex -0.544071 6.1288638 7.7630172
		endloop
	endfacet
	facet normal 0.3794136140618862 -0.8388395679871837 0.3903760861574047
		outer loop
			vertex -0.444757 6.350636 8.1430359
			vertex -0.525243 6.3177519 8.1506004
			vertex -0.544071 6.1288638 7.7630172
		endloop
	endfacet
	facet normal -0.05658403691397482 -0.8964045624889483 0.4396101763102345
		outer loop
			vertex -0.544071 6.1288638 7.7630172
			vertex -0.525243 6.3177519 8.1506004
			vertex -0.675107 6.1365099 7.7617421
		endloop
	endfacet
	facet normal -0.016910478469473675 -0.9037432958698216 0.4277406818251984
		outer loop
			vertex -0.525243 6.3177519 8.1506004
			vertex -0.62654 6.3200378 8.1514254
			vertex -0.675107 6.1365099 7.7617421
		endloop
	endfacet
	facet normal -0.37807853709843803 -0.8173174839217245 0.4347973668979229
		outer loop
			vertex -0.781592 6.1811218 7.7530079
			vertex -0.675107 6.1365099 7.7617421
			vertex -0.709956 6.3566232 8.1452007
		endloop
	endfacet
	facet normal -0.38911867793244087 -0.8137466057733743 0.4317442716196962
		outer loop
			vertex -0.675107 6.1365099 7.7617421
			vertex -0.62654 6.3200378 8.1514254
			vertex -0.709956 6.3566232 8.1452007
		endloop
	endfacet
	facet normal -0.9184944004963745 -0.34931374433565765 -0.18533198395044623
		outer loop
			vertex -0.704459 5.9945378 6.5450411
			vertex -0.684964 5.9463639 6.5392232
			vertex -0.885449 6.124578 7.1969171
		endloop
	endfacet
	facet normal -0.839203312399827 -0.5322450364902954 -0.1115931072629596
		outer loop
			vertex -0.684964 5.9463639 6.5392232
			vertex -0.840128 6.0498729 7.2124009
			vertex -0.885449 6.124578 7.1969171
		endloop
	endfacet
	facet normal -0.8447189237239027 0.4368432420183209 -0.309221476947599
		outer loop
			vertex -0.683391 6.04106 6.5532112
			vertex -0.704459 5.9945378 6.5450411
			vertex -0.837181 6.1901479 7.183948
		endloop
	endfacet
	facet normal -0.7914934248664609 0.5187106781689287 -0.3232296254161891
		outer loop
			vertex -0.704459 5.9945378 6.5450411
			vertex -0.885449 6.124578 7.1969171
			vertex -0.837181 6.1901479 7.183948
		endloop
	endfacet
	facet normal -0.404255242844377 0.8733485604119655 -0.2717351480011027
		outer loop
			vertex -0.629808 6.0681639 6.5606079
			vertex -0.683391 6.04106 6.5532112
			vertex -0.713763 6.2215371 7.178443
		endloop
	endfacet
	facet normal -0.2483448126290753 0.9273932251455763 -0.27976179151970687
		outer loop
			vertex -0.683391 6.04106 6.5532112
			vertex -0.837181 6.1901479 7.183948
			vertex -0.713763 6.2215371 7.178443
		endloop
	endfacet
	facet normal 0.052499018037118234 0.9734857441536056 -0.2226417728882864
		outer loop
			vertex -0.564177 6.0654941 6.5644102
			vertex -0.629808 6.0681639 6.5606079
			vertex -0.562336 6.2067571 7.182507
		endloop
	endfacet
	facet normal 0.10063934474787653 0.9687267977273093 -0.22680413059226018
		outer loop
			vertex -0.629808 6.0681639 6.5606079
			vertex -0.713763 6.2215371 7.178443
			vertex -0.562336 6.2067571 7.182507
		endloop
	endfacet
	facet normal 0.49736117495080223 0.8412006433558131 -0.21216347298562957
		outer loop
			vertex -0.511566 6.0340729 6.5631618
			vertex -0.564177 6.0654941 6.5644102
			vertex -0.440737 6.1514511 7.194591
		endloop
	endfacet
	facet normal 0.4220353262389152 0.8835178444292648 -0.20318071262173926
		outer loop
			vertex -0.564177 6.0654941 6.5644102
			vertex -0.562336 6.2067571 7.182507
			vertex -0.440737 6.1514511 7.194591
		endloop
	endfacet
	facet normal 0.9024063409038026 0.38789909027172725 -0.18760887948862326
		outer loop
			vertex -0.492069 5.9859009 6.557343
			vertex -0.511566 6.0340729 6.5631618
			vertex -0.395418 6.0767479 7.210073
		endloop
	endfacet
	facet normal 0.8567074742769495 0.48126767631543654 -0.1855632702124808
		outer loop
			vertex -0.511566 6.0340729 6.5631618
			vertex -0.440737 6.1514511 7.194591
			vertex -0.395418 6.0767479 7.210073
		endloop
	endfacet
	facet normal 0.9130913102801207 -0.40455314929801683 -0.051000083176294043
		outer loop
			vertex -0.513137 5.9393792 6.5491762
			vertex -0.492069 5.9859009 6.557343
			vertex -0.443688 6.0111771 7.223042
		endloop
	endfacet
	facet normal 0.8014392780169645 -0.597017004020892 -0.03557780996021565
		outer loop
			vertex -0.492069 5.9859009 6.557343
			vertex -0.395418 6.0767479 7.210073
			vertex -0.443688 6.0111771 7.223042
		endloop
	endfacet
	facet normal 0.43991036477442824 -0.893709259317805 0.08810579307656241
		outer loop
			vertex -0.56672 5.9122748 6.541779
			vertex -0.513137 5.9393792 6.5491762
			vertex -0.567105 5.9797902 7.22855
		endloop
	endfacet
	facet normal 0.24896952732598043 -0.9654292943272946 0.07720396439160378
		outer loop
			vertex -0.513137 5.9393792 6.5491762
			vertex -0.443688 6.0111771 7.223042
			vertex -0.567105 5.9797902 7.22855
		endloop
	endfacet
	facet normal -0.04673179470885345 -0.9929102503387411 0.10929489528586513
		outer loop
			vertex -0.632353 5.9149451 6.5379748
			vertex -0.56672 5.9122748 6.541779
			vertex -0.718533 5.9945688 7.224483
		endloop
	endfacet
	facet normal -0.09926075637185537 -0.9902930356838177 0.09729853914944644
		outer loop
			vertex -0.56672 5.9122748 6.541779
			vertex -0.567105 5.9797902 7.22855
			vertex -0.718533 5.9945688 7.224483
		endloop
	endfacet
	facet normal -0.5124282351273945 -0.8586173786632286 0.013910460154496694
		outer loop
			vertex -0.684964 5.9463639 6.5392232
			vertex -0.632353 5.9149451 6.5379748
			vertex -0.840128 6.0498729 7.2124009
		endloop
	endfacet
	facet normal -0.41777383487509034 -0.9070181839163011 0.05275449685984972
		outer loop
			vertex -0.632353 5.9149451 6.5379748
			vertex -0.718533 5.9945688 7.224483
			vertex -0.840128 6.0498729 7.2124009
		endloop
	endfacet
	facet normal -0.10070546228998456 -0.9572052035934262 0.27132380669345624
		outer loop
			vertex -0.567105 5.9797902 7.22855
			vertex -0.544071 6.1288638 7.7630172
			vertex -0.718533 5.9945688 7.224483
		endloop
	endfacet
	facet normal -0.05877336531769048 -0.963972622502918 0.2594272048072063
		outer loop
			vertex -0.544071 6.1288638 7.7630172
			vertex -0.675107 6.1365099 7.7617421
			vertex -0.718533 5.9945688 7.224483
		endloop
	endfacet
	facet normal 0.24887867351975745 -0.9330099049210938 0.2599075281444874
		outer loop
			vertex -0.443688 6.0111771 7.223042
			vertex -0.438537 6.1611099 7.7563348
			vertex -0.567105 5.9797902 7.22855
		endloop
	endfacet
	facet normal 0.29747158792088874 -0.9228694661052496 0.24458659593370394
		outer loop
			vertex -0.438537 6.1611099 7.7563348
			vertex -0.544071 6.1288638 7.7630172
			vertex -0.567105 5.9797902 7.22855
		endloop
	endfacet
	facet normal 0.809880741050638 -0.565014426279358 0.1576448012827481
		outer loop
			vertex -0.395418 6.0767479 7.210073
			vertex -0.398813 6.2209249 7.7442589
			vertex -0.443688 6.0111771 7.223042
		endloop
	endfacet
	facet normal 0.8376091849540955 -0.5279361099892139 0.14033644234479054
		outer loop
			vertex -0.398813 6.2209249 7.7442589
			vertex -0.438537 6.1611099 7.7563348
			vertex -0.443688 6.0111771 7.223042
		endloop
	endfacet
	facet normal 0.8595476749752992 0.4955857491192846 -0.12479006256283082
		outer loop
			vertex -0.440737 6.1514511 7.194591
			vertex -0.440073 6.2854681 7.7313938
			vertex -0.395418 6.0767479 7.210073
		endloop
	endfacet
	facet normal 0.8468726750952483 0.5147534328875163 -0.13354989894243768
		outer loop
			vertex -0.440073 6.2854681 7.7313938
			vertex -0.398813 6.2209249 7.7442589
			vertex -0.395418 6.0767479 7.210073
		endloop
	endfacet
	facet normal 0.4219674018403644 0.88111523951342 -0.2134934342814816
		outer loop
			vertex -0.562336 6.2067571 7.182507
			vertex -0.546561 6.33008 7.7226558
			vertex -0.440737 6.1514511 7.194591
		endloop
	endfacet
	facet normal 0.39217449451212216 0.8923829011574906 -0.2232754432890057
		outer loop
			vertex -0.546561 6.33008 7.7226558
			vertex -0.440073 6.2854681 7.7313938
			vertex -0.440737 6.1514511 7.194591
		endloop
	endfacet
	facet normal 0.10066647159627178 0.9668991739279669 -0.23446161509674124
		outer loop
			vertex -0.713763 6.2215371 7.178443
			vertex -0.681306 6.354775 7.7418399
			vertex -0.562336 6.2067571 7.182507
		endloop
	endfacet
	facet normal 0.1446961931246137 0.9637280073107801 -0.2242573067260859
		outer loop
			vertex -0.681306 6.354775 7.7418399
			vertex -0.546561 6.33008 7.7226558
			vertex -0.562336 6.2067571 7.182507
		endloop
	endfacet
	facet normal -0.24987594412384528 0.9474238612560766 -0.19987506015219472
		outer loop
			vertex -0.837181 6.1901479 7.183948
			vertex -0.786839 6.3225312 7.7485199
			vertex -0.713763 6.2215371 7.178443
		endloop
	endfacet
	facet normal -0.2978433344434333 0.9326908387184513 -0.20341373478280514
		outer loop
			vertex -0.786839 6.3225312 7.7485199
			vertex -0.681306 6.354775 7.7418399
			vertex -0.713763 6.2215371 7.178443
		endloop
	endfacet
	facet normal -0.8083099588621645 0.5875412247540215 -0.03781956661293981
		outer loop
			vertex -0.885449 6.124578 7.1969171
			vertex -0.822851 6.2456641 7.7401409
			vertex -0.837181 6.1901479 7.183948
		endloop
	endfacet
	facet normal -0.9045741768140652 0.4258835306477783 -0.01920356644322949
		outer loop
			vertex -0.822851 6.2456641 7.7401409
			vertex -0.786839 6.3225312 7.7485199
			vertex -0.837181 6.1901479 7.183948
		endloop
	endfacet
	facet normal -0.8547943344884285 -0.4754651037350942 0.20798937678800164
		outer loop
			vertex -0.840128 6.0498729 7.2124009
			vertex -0.781592 6.1811218 7.7530079
			vertex -0.885449 6.124578 7.1969171
		endloop
	endfacet
	facet normal -0.8424317414616028 -0.49708659517197895 0.2078789981655211
		outer loop
			vertex -0.781592 6.1811218 7.7530079
			vertex -0.822851 6.2456641 7.7401409
			vertex -0.885449 6.124578 7.1969171
		endloop
	endfacet
	facet normal -0.4211551530935575 -0.869877324593678 0.256791310562658
		outer loop
			vertex -0.840128 6.0498729 7.2124009
			vertex -0.718533 5.9945688 7.224483
			vertex -0.781592 6.1811218 7.7530079
		endloop
	endfacet
	facet normal -0.3910226662334949 -0.8815536700881644 0.26450784722903203
		outer loop
			vertex -0.718533 5.9945688 7.224483
			vertex -0.675107 6.1365099 7.7617421
			vertex -0.781592 6.1811218 7.7530079
		endloop
	endfacet
endsolid exported
