solid exported
	facet normal -0.35992418813744625 -0.7827386076988543 -0.5077153245779169
		outer loop
			vertex -0.580367 5.9991741 -0.099357
			vertex -0.623153 6.0531321 -0.152212
			vertex -0.484715 5.9634862 -0.112146
		endloop
	endfacet
	facet normal -0.35995658622477794 -0.7827621503615881 -0.5076560567891477
		outer loop
			vertex -0.623153 6.0531321 -0.152212
			vertex -0.45748 5.9913158 -0.174368
			vertex -0.484715 5.9634862 -0.112146
		endloop
	endfacet
	facet normal -0.12213344195395809 -0.8850000578004292 -0.44928645656164207
		outer loop
			vertex -0.484715 5.9634862 -0.112146
			vertex -0.45748 5.9913158 -0.174368
			vertex -0.396568 5.933177 -0.076405
		endloop
	endfacet
	facet normal -0.12210912739501574 -0.8849967379470752 -0.44929960475151076
		outer loop
			vertex -0.45748 5.9913158 -0.174368
			vertex -0.304805 5.9388199 -0.112459
			vertex -0.396568 5.933177 -0.076405
		endloop
	endfacet
	facet normal 0.014287716928236724 -0.992789121689019 -0.11901941438658252
		outer loop
			vertex -0.396568 5.933177 -0.076405
			vertex -0.304805 5.9388199 -0.112459
			vertex -0.367563 5.9260011 -0.013066
		endloop
	endfacet
	facet normal 0.014304903232729215 -0.9927901590441964 -0.11900869652467283
		outer loop
			vertex -0.304805 5.9388199 -0.112459
			vertex -0.254566 5.926393 -0.002753
			vertex -0.367563 5.9260011 -0.013066
		endloop
	endfacet
	facet normal -0.02684119058330616 -0.9436166354160529 0.3299502930051111
		outer loop
			vertex -0.367563 5.9260011 -0.013066
			vertex -0.254566 5.926393 -0.002753
			vertex -0.414689 5.9461641 0.040764
		endloop
	endfacet
	facet normal -0.026839242842063935 -0.9436145207506332 0.3299564990604331
		outer loop
			vertex -0.254566 5.926393 -0.002753
			vertex -0.336192 5.9613161 0.090481
			vertex -0.414689 5.9461641 0.040764
		endloop
	endfacet
	facet normal -0.21561262224723593 -0.7856617843842307 0.5798678795086495
		outer loop
			vertex -0.414689 5.9461641 0.040764
			vertex -0.336192 5.9613161 0.090481
			vertex -0.510339 5.9818521 0.053552
		endloop
	endfacet
	facet normal -0.21560801146804243 -0.7856911477685757 0.5798298075374312
		outer loop
			vertex -0.336192 5.9613161 0.090481
			vertex -0.501865 6.0231299 0.112636
			vertex -0.510339 5.9818521 0.053552
		endloop
	endfacet
	facet normal -0.46234094067750703 -0.694383919822425 0.5514270817301975
		outer loop
			vertex -0.510339 5.9818521 0.053552
			vertex -0.501865 6.0231299 0.112636
			vertex -0.598487 6.0121608 0.017811
		endloop
	endfacet
	facet normal -0.46234752198418233 -0.6943750289981292 0.5514327592906805
		outer loop
			vertex -0.501865 6.0231299 0.112636
			vertex -0.65454 6.0756259 0.05073
			vertex -0.598487 6.0121608 0.017811
		endloop
	endfacet
	facet normal -0.6689354404774944 -0.7080944868994049 0.22611407319282292
		outer loop
			vertex -0.598487 6.0121608 0.017811
			vertex -0.65454 6.0756259 0.05073
			vertex -0.627493 6.0193381 -0.045524
		endloop
	endfacet
	facet normal -0.668927362052902 -0.7081003068069524 0.22611974658761175
		outer loop
			vertex -0.65454 6.0756259 0.05073
			vertex -0.704779 6.0880532 -0.058975
			vertex -0.627493 6.0193381 -0.045524
		endloop
	endfacet
	facet normal -0.6157839434478719 -0.7435920211175149 -0.2605399031284023
		outer loop
			vertex -0.627493 6.0193381 -0.045524
			vertex -0.704779 6.0880532 -0.058975
			vertex -0.580367 5.9991741 -0.099357
		endloop
	endfacet
	facet normal -0.6157869998891198 -0.7435665268609808 -0.26060543144657516
		outer loop
			vertex -0.704779 6.0880532 -0.058975
			vertex -0.623153 6.0531321 -0.152212
			vertex -0.580367 5.9991741 -0.099357
		endloop
	endfacet
	facet normal -0.24801867026496813 -0.3395153039484746 -0.9073125688453633
		outer loop
			vertex -0.623153 6.0531321 -0.152212
			vertex -0.620959 6.1074328 -0.173131
			vertex -0.45748 5.9913158 -0.174368
		endloop
	endfacet
	facet normal -0.24796262595318755 -0.33943592059930516 -0.9073575876892758
		outer loop
			vertex -0.620959 6.1074328 -0.173131
			vertex -0.429655 6.036056 -0.198709
			vertex -0.45748 5.9913158 -0.174368
		endloop
	endfacet
	facet normal 0.14878952208751334 -0.5423850023348226 -0.8268495554568702
		outer loop
			vertex -0.45748 5.9913158 -0.174368
			vertex -0.429655 6.036056 -0.198709
			vertex -0.304805 5.9388199 -0.112459
		endloop
	endfacet
	facet normal 0.14879189721645156 -0.5423828347791273 -0.8268505498938047
		outer loop
			vertex -0.429655 6.036056 -0.198709
			vertex -0.253364 5.9754391 -0.127223
			vertex -0.304805 5.9388199 -0.112459
		endloop
	endfacet
	facet normal 0.48842719587711314 -0.813449478883855 -0.315814533597181
		outer loop
			vertex -0.304805 5.9388199 -0.112459
			vertex -0.253364 5.9754391 -0.127223
			vertex -0.254566 5.926393 -0.002753
		endloop
	endfacet
	facet normal 0.48840988458252343 -0.8134584375979269 -0.31581823085886923
		outer loop
			vertex -0.253364 5.9754391 -0.127223
			vertex -0.195353 5.9610891 -0.000548
			vertex -0.254566 5.926393 -0.002753
		endloop
	endfacet
	facet normal 0.38730024550973857 -0.6991664219255262 0.6009699112933636
		outer loop
			vertex -0.254566 5.926393 -0.002753
			vertex -0.195353 5.9610891 -0.000548
			vertex -0.336192 5.9613161 0.090481
		endloop
	endfacet
	facet normal 0.38726299191778396 -0.6992364445756809 0.6009124475895362
		outer loop
			vertex -0.195353 5.9610891 -0.000548
			vertex -0.289603 6.0014138 0.107115
			vertex -0.336192 5.9613161 0.090481
		endloop
	endfacet
	facet normal -0.01364402287454519 -0.36957270146799814 0.9291016408173247
		outer loop
			vertex -0.336192 5.9613161 0.090481
			vertex -0.289603 6.0014138 0.107115
			vertex -0.501865 6.0231299 0.112636
		endloop
	endfacet
	facet normal -0.013638614036504222 -0.36952470673247023 0.9291208098635212
		outer loop
			vertex -0.289603 6.0014138 0.107115
			vertex -0.480908 6.0727921 0.132695
			vertex -0.501865 6.0231299 0.112636
		endloop
	endfacet
	facet normal -0.42227736964505674 -0.18059293875623708 0.888295003676728
		outer loop
			vertex -0.501865 6.0231299 0.112636
			vertex -0.480908 6.0727921 0.132695
			vertex -0.65454 6.0756259 0.05073
		endloop
	endfacet
	facet normal -0.4222807395536709 -0.18054112654396492 0.8883039337007581
		outer loop
			vertex -0.480908 6.0727921 0.132695
			vertex -0.657201 6.133409 0.061209
			vertex -0.65454 6.0756259 0.05073
		endloop
	endfacet
	facet normal -0.9080416084021078 -0.11486872633981053 0.4028220613615681
		outer loop
			vertex -0.65454 6.0756259 0.05073
			vertex -0.657201 6.133409 0.061209
			vertex -0.704779 6.0880532 -0.058975
		endloop
	endfacet
	facet normal -0.9080414341378776 -0.114869423367124 0.40282225542307276
		outer loop
			vertex -0.657201 6.133409 0.061209
			vertex -0.715212 6.1477599 -0.065467
			vertex -0.704779 6.0880532 -0.058975
		endloop
	endfacet
	facet normal -0.7731152618874706 -0.20051975798558028 -0.601734674498713
		outer loop
			vertex -0.704779 6.0880532 -0.058975
			vertex -0.715212 6.1477599 -0.065467
			vertex -0.623153 6.0531321 -0.152212
		endloop
	endfacet
	facet normal -0.7731294723090077 -0.20056376498465872 -0.6017017493928151
		outer loop
			vertex -0.715212 6.1477599 -0.065467
			vertex -0.620959 6.1074328 -0.173131
			vertex -0.623153 6.0531321 -0.152212
		endloop
	endfacet
	facet normal 0.013637614382781696 0.369506209251073 -0.9291281810379282
		outer loop
			vertex -0.620959 6.1074328 -0.173131
			vertex -0.574373 6.1475348 -0.156499
			vertex -0.429655 6.036056 -0.198709
		endloop
	endfacet
	facet normal 0.013624785300491528 0.3694917964725078 -0.9291341009590783
		outer loop
			vertex -0.574373 6.1475348 -0.156499
			vertex -0.408698 6.0857191 -0.178652
			vertex -0.429655 6.036056 -0.198709
		endloop
	endfacet
	facet normal 0.4222870051946027 0.18055138837384554 -0.8882988694127955
		outer loop
			vertex -0.429655 6.036056 -0.198709
			vertex -0.408698 6.0857191 -0.178652
			vertex -0.253364 5.9754391 -0.127223
		endloop
	endfacet
	facet normal 0.42229164787729595 0.18055974963022312 -0.8882949628060204
		outer loop
			vertex -0.408698 6.0857191 -0.178652
			vertex -0.256025 6.0332208 -0.116743
			vertex -0.253364 5.9754391 -0.127223
		endloop
	endfacet
	facet normal 0.9080393681027208 0.11487877403609624 -0.402824246106879
		outer loop
			vertex -0.253364 5.9754391 -0.127223
			vertex -0.256025 6.0332208 -0.116743
			vertex -0.195353 5.9610891 -0.000548
		endloop
	endfacet
	facet normal 0.908043614850077 0.11491391262468148 -0.4028046501907497
		outer loop
			vertex -0.256025 6.0332208 -0.116743
			vertex -0.205787 6.0207958 -0.007036
			vertex -0.195353 5.9610891 -0.000548
		endloop
	endfacet
	facet normal 0.7731334541663837 0.2004939669317163 0.6017198943634325
		outer loop
			vertex -0.195353 5.9610891 -0.000548
			vertex -0.205787 6.0207958 -0.007036
			vertex -0.289603 6.0014138 0.107115
		endloop
	endfacet
	facet normal 0.7731285098749479 0.20051381370488633 0.6017196338263071
		outer loop
			vertex -0.205787 6.0207958 -0.007036
			vertex -0.287409 6.0557179 0.0862
			vertex -0.289603 6.0014138 0.107115
		endloop
	endfacet
	facet normal 0.2479755507194969 0.3394438000399453 0.9073511078186899
		outer loop
			vertex -0.289603 6.0014138 0.107115
			vertex -0.287409 6.0557179 0.0862
			vertex -0.480908 6.0727921 0.132695
		endloop
	endfacet
	facet normal 0.24797551793004674 0.33946490376493954 0.9073432215094712
		outer loop
			vertex -0.287409 6.0557179 0.0862
			vertex -0.453085 6.1175332 0.108352
			vertex -0.480908 6.0727921 0.132695
		endloop
	endfacet
	facet normal -0.1487825058942906 0.5423965902330904 0.8268432166035665
		outer loop
			vertex -0.480908 6.0727921 0.132695
			vertex -0.453085 6.1175332 0.108352
			vertex -0.657201 6.133409 0.061209
		endloop
	endfacet
	facet normal -0.1487794647118929 0.5424104050201204 0.8268347013798779
		outer loop
			vertex -0.453085 6.1175332 0.108352
			vertex -0.605759 6.1700311 0.046441
			vertex -0.657201 6.133409 0.061209
		endloop
	endfacet
	facet normal -0.4884298245011489 0.8134423514100811 0.31582882621796127
		outer loop
			vertex -0.657201 6.133409 0.061209
			vertex -0.605759 6.1700311 0.046441
			vertex -0.715212 6.1477599 -0.065467
		endloop
	endfacet
	facet normal -0.4884217043311531 0.813450977097946 0.3158191675573997
		outer loop
			vertex -0.605759 6.1700311 0.046441
			vertex -0.655998 6.182457 -0.06326
			vertex -0.715212 6.1477599 -0.065467
		endloop
	endfacet
	facet normal -0.3872985929571806 0.6991877441857163 -0.6009461691981051
		outer loop
			vertex -0.715212 6.1477599 -0.065467
			vertex -0.655998 6.182457 -0.06326
			vertex -0.620959 6.1074328 -0.173131
		endloop
	endfacet
	facet normal -0.3873165028411517 0.6991783987849604 -0.6009454994418372
		outer loop
			vertex -0.655998 6.182457 -0.06326
			vertex -0.574373 6.1475348 -0.156499
			vertex -0.620959 6.1074328 -0.173131
		endloop
	endfacet
	facet normal 0.21562255543657696 0.7856918937247795 -0.5798233883883693
		outer loop
			vertex -0.574373 6.1475348 -0.156499
			vertex -0.495877 6.1626849 -0.106779
			vertex -0.408698 6.0857191 -0.178652
		endloop
	endfacet
	facet normal 0.21562968158408305 0.7856943643828315 -0.579817390388565
		outer loop
			vertex -0.495877 6.1626849 -0.106779
			vertex -0.400225 6.1269951 -0.119569
			vertex -0.408698 6.0857191 -0.178652
		endloop
	endfacet
	facet normal 0.46236721935025443 0.6943807757254071 -0.5514090067937735
		outer loop
			vertex -0.408698 6.0857191 -0.178652
			vertex -0.400225 6.1269951 -0.119569
			vertex -0.256025 6.0332208 -0.116743
		endloop
	endfacet
	facet normal 0.4623397601280837 0.6943361640691693 -0.5514882024761886
		outer loop
			vertex -0.400225 6.1269951 -0.119569
			vertex -0.312077 6.0966892 -0.083826
			vertex -0.256025 6.0332208 -0.116743
		endloop
	endfacet
	facet normal 0.6689534384865133 0.7080692582734582 -0.22613982980701436
		outer loop
			vertex -0.256025 6.0332208 -0.116743
			vertex -0.312077 6.0966892 -0.083826
			vertex -0.205787 6.0207958 -0.007036
		endloop
	endfacet
	facet normal 0.6689373085758167 0.7081019406686951 -0.22608520255994283
		outer loop
			vertex -0.312077 6.0966892 -0.083826
			vertex -0.283072 6.0895109 -0.020489
			vertex -0.205787 6.0207958 -0.007036
		endloop
	endfacet
	facet normal 0.6157793969335198 0.7435892059872385 0.2605586825485939
		outer loop
			vertex -0.205787 6.0207958 -0.007036
			vertex -0.283072 6.0895109 -0.020489
			vertex -0.287409 6.0557179 0.0862
		endloop
	endfacet
	facet normal 0.6157882457391589 0.743582496664511 0.26055691712879536
		outer loop
			vertex -0.283072 6.0895109 -0.020489
			vertex -0.330198 6.1096749 0.033342
			vertex -0.287409 6.0557179 0.0862
		endloop
	endfacet
	facet normal 0.35993541050579975 0.7827640431963038 0.5076681523820422
		outer loop
			vertex -0.287409 6.0557179 0.0862
			vertex -0.330198 6.1096749 0.033342
			vertex -0.453085 6.1175332 0.108352
		endloop
	endfacet
	facet normal 0.3599405264875908 0.7827556870406411 0.507677409185567
		outer loop
			vertex -0.330198 6.1096749 0.033342
			vertex -0.425851 6.1453638 0.046133
			vertex -0.453085 6.1175332 0.108352
		endloop
	endfacet
	facet normal 0.12211110184817574 0.8849925802985571 0.449307257477471
		outer loop
			vertex -0.453085 6.1175332 0.108352
			vertex -0.425851 6.1453638 0.046133
			vertex -0.605759 6.1700311 0.046441
		endloop
	endfacet
	facet normal 0.12211012653792219 0.884985284246526 0.4493218931500985
		outer loop
			vertex -0.425851 6.1453638 0.046133
			vertex -0.513997 6.175674 0.010389
			vertex -0.605759 6.1700311 0.046441
		endloop
	endfacet
	facet normal -0.014297511719486787 0.9927910932129886 0.11900179156462369
		outer loop
			vertex -0.605759 6.1700311 0.046441
			vertex -0.513997 6.175674 0.010389
			vertex -0.655998 6.182457 -0.06326
		endloop
	endfacet
	facet normal -0.0142951620956164 0.9927916637624276 0.11899731385409978
		outer loop
			vertex -0.513997 6.175674 0.010389
			vertex -0.543003 6.182848 -0.052948
			vertex -0.655998 6.182457 -0.06326
		endloop
	endfacet
	facet normal 0.026844301284210052 0.9436239600823793 -0.32992909154394245
		outer loop
			vertex -0.655998 6.182457 -0.06326
			vertex -0.543003 6.182848 -0.052948
			vertex -0.574373 6.1475348 -0.156499
		endloop
	endfacet
	facet normal 0.026858547844700584 0.9436222496168672 -0.3299328241258767
		outer loop
			vertex -0.543003 6.182848 -0.052948
			vertex -0.495877 6.1626849 -0.106779
			vertex -0.574373 6.1475348 -0.156499
		endloop
	endfacet
	facet normal -0.36124116118712407 -0.9244365864249272 -0.12215490634111537
		outer loop
			vertex -0.484715 5.9634862 -0.112146
			vertex -0.504063 5.9600229 -0.02872
			vertex -0.580367 5.9991741 -0.099357
		endloop
	endfacet
	facet normal -0.2847864319395526 -0.9527567726790073 -0.10559933852738508
		outer loop
			vertex -0.396568 5.933177 -0.076405
			vertex -0.504063 5.9600229 -0.02872
			vertex -0.484715 5.9634862 -0.112146
		endloop
	endfacet
	facet normal -0.24193828315783625 -0.9702912558289177 0.0008637155668750138
		outer loop
			vertex -0.367563 5.9260011 -0.013066
			vertex -0.504063 5.9600229 -0.02872
			vertex -0.396568 5.933177 -0.076405
		endloop
	endfacet
	facet normal -0.25425915598426707 -0.957517349730709 0.13606177480412152
		outer loop
			vertex -0.414689 5.9461641 0.040764
			vertex -0.504063 5.9600229 -0.02872
			vertex -0.367563 5.9260011 -0.013066
		endloop
	endfacet
	facet normal -0.31487382253814694 -0.9230701344710454 0.22089817275799717
		outer loop
			vertex -0.510339 5.9818521 0.053552
			vertex -0.504063 5.9600229 -0.02872
			vertex -0.414689 5.9461641 0.040764
		endloop
	endfacet
	facet normal -0.3923519525612647 -0.8960320026234067 0.20781384842221395
		outer loop
			vertex -0.598487 6.0121608 0.017811
			vertex -0.504063 5.9600229 -0.02872
			vertex -0.510339 5.9818521 0.053552
		endloop
	endfacet
	facet normal -0.4420928767089866 -0.8912109229400034 0.10147403212448121
		outer loop
			vertex -0.627493 6.0193381 -0.045524
			vertex -0.504063 5.9600229 -0.02872
			vertex -0.598487 6.0121608 0.017811
		endloop
	endfacet
	facet normal -0.4287210144437542 -0.9026708367314157 -0.03719747691610422
		outer loop
			vertex -0.580367 5.9991741 -0.099357
			vertex -0.504063 5.9600229 -0.02872
			vertex -0.627493 6.0193381 -0.045524
		endloop
	endfacet
	facet normal 0.31487601587414865 0.9230654205139097 -0.22091474391425772
		outer loop
			vertex -0.495877 6.1626849 -0.106779
			vertex -0.406501 6.1488271 -0.037292
			vertex -0.400225 6.1269951 -0.119569
		endloop
	endfacet
	facet normal 0.3923368523379759 0.8960340763548341 -0.2078334148025022
		outer loop
			vertex -0.400225 6.1269951 -0.119569
			vertex -0.406501 6.1488271 -0.037292
			vertex -0.312077 6.0966892 -0.083826
		endloop
	endfacet
	facet normal 0.4420995485000103 0.8912100151871782 -0.10145293512834852
		outer loop
			vertex -0.312077 6.0966892 -0.083826
			vertex -0.406501 6.1488271 -0.037292
			vertex -0.283072 6.0895109 -0.020489
		endloop
	endfacet
	facet normal 0.428728805500786 0.9026667349646853 0.03720721599453587
		outer loop
			vertex -0.283072 6.0895109 -0.020489
			vertex -0.406501 6.1488271 -0.037292
			vertex -0.330198 6.1096749 0.033342
		endloop
	endfacet
	facet normal 0.3612494010918294 0.9244318022477256 0.12216674344442781
		outer loop
			vertex -0.330198 6.1096749 0.033342
			vertex -0.406501 6.1488271 -0.037292
			vertex -0.425851 6.1453638 0.046133
		endloop
	endfacet
	facet normal 0.28479215974068517 0.9527540288934422 0.10560864632003426
		outer loop
			vertex -0.425851 6.1453638 0.046133
			vertex -0.406501 6.1488271 -0.037292
			vertex -0.513997 6.175674 0.010389
		endloop
	endfacet
	facet normal 0.24193216581882224 0.9702927539898092 -0.000893698542997711
		outer loop
			vertex -0.513997 6.175674 0.010389
			vertex -0.406501 6.1488271 -0.037292
			vertex -0.543003 6.182848 -0.052948
		endloop
	endfacet
	facet normal 0.25425204678645397 0.9575184034087342 -0.13606764434827112
		outer loop
			vertex -0.543003 6.182848 -0.052948
			vertex -0.406501 6.1488271 -0.037292
			vertex -0.495877 6.1626849 -0.106779
		endloop
	endfacet
	facet normal 0.7660767518307887 -0.6191832653802458 0.17244852616779385
		outer loop
			vertex 0.898113 6.1291642 -0.061332
			vertex 0.912092 6.1289048 -0.124363
			vertex 0.959363 6.2102442 -0.042305
		endloop
	endfacet
	facet normal 0.7660751585174427 -0.6191846098726371 0.17245077674323547
		outer loop
			vertex 0.912092 6.1289048 -0.124363
			vertex 0.983575 6.209794 -0.151478
			vertex 0.959363 6.2102442 -0.042305
		endloop
	endfacet
	facet normal 0.6434387873180167 -0.6838975051855634 -0.3439051168210243
		outer loop
			vertex 0.912092 6.1289048 -0.124363
			vertex 0.852486 6.0944762 -0.167419
			vertex 0.983575 6.209794 -0.151478
		endloop
	endfacet
	facet normal 0.6434359222518816 -0.6838919916895759 -0.34392144111517053
		outer loop
			vertex 0.852486 6.0944762 -0.167419
			vertex 0.880334 6.1501632 -0.226053
			vertex 0.983575 6.209794 -0.151478
		endloop
	endfacet
	facet normal 0.36050829228491077 -0.7558151879318576 -0.5466051343386267
		outer loop
			vertex 0.852486 6.0944762 -0.167419
			vertex 0.754209 6.046051 -0.165277
			vertex 0.880334 6.1501632 -0.226053
		endloop
	endfacet
	facet normal 0.360537989951456 -0.7558287678965998 -0.5465667675789224
		outer loop
			vertex 0.754209 6.046051 -0.165277
			vertex 0.710116 6.0662861 -0.222345
			vertex 0.880334 6.1501632 -0.226053
		endloop
	endfacet
	facet normal 0.13794870967560352 -0.895108230789733 -0.4239709997998806
		outer loop
			vertex 0.754209 6.046051 -0.165277
			vertex 0.674832 6.011991 -0.119195
			vertex 0.710116 6.0662861 -0.222345
		endloop
	endfacet
	facet normal 0.13791272419419068 -0.8951080024129328 -0.42398318896115017
		outer loop
			vertex 0.674832 6.011991 -0.119195
			vertex 0.572631 6.0072961 -0.142527
			vertex 0.710116 6.0662861 -0.222345
		endloop
	endfacet
	facet normal 0.04277345948010275 -0.9989914329312264 0.013658261021058413
		outer loop
			vertex 0.674832 6.011991 -0.119195
			vertex 0.660852 6.0122542 -0.056163
			vertex 0.572631 6.0072961 -0.142527
		endloop
	endfacet
	facet normal 0.04281535946215585 -0.9989902232411341 0.013615390657467644
		outer loop
			vertex 0.660852 6.0122542 -0.056163
			vertex 0.548416 6.0077462 -0.033355
			vertex 0.572631 6.0072961 -0.142527
		endloop
	endfacet
	facet normal 0.13530634259823113 -0.8567412360055849 0.4976812716792876
		outer loop
			vertex 0.660852 6.0122542 -0.056163
			vertex 0.720459 6.0466781 -0.013109
			vertex 0.548416 6.0077462 -0.033355
		endloop
	endfacet
	facet normal 0.13529101382185418 -0.8567066360731477 0.49774499624535284
		outer loop
			vertex 0.720459 6.0466781 -0.013109
			vertex 0.651659 6.0673771 0.041218
			vertex 0.548416 6.0077462 -0.033355
		endloop
	endfacet
	facet normal 0.3373079728554269 -0.6545818325110424 0.6765692543965091
		outer loop
			vertex 0.720459 6.0466781 -0.013109
			vertex 0.818735 6.0951071 -0.01525
			vertex 0.651659 6.0673771 0.041218
		endloop
	endfacet
	facet normal 0.33730198106220705 -0.6546253083253035 0.6765301761721438
		outer loop
			vertex 0.818735 6.0951071 -0.01525
			vertex 0.821878 6.1512551 0.037513
			vertex 0.651659 6.0673771 0.041218
		endloop
	endfacet
	facet normal 0.5811342672165556 -0.5743333168503885 0.5765624030599883
		outer loop
			vertex 0.818735 6.0951071 -0.01525
			vertex 0.898113 6.1291642 -0.061332
			vertex 0.821878 6.1512551 0.037513
		endloop
	endfacet
	facet normal 0.5811460681971689 -0.5743161012519628 0.5765676571415683
		outer loop
			vertex 0.898113 6.1291642 -0.061332
			vertex 0.959363 6.2102442 -0.042305
			vertex 0.821878 6.1512551 0.037513
		endloop
	endfacet
	facet normal 0.9753276134569479 -0.043256520752832546 0.2164830705638077
		outer loop
			vertex 0.959363 6.2102442 -0.042305
			vertex 0.983575 6.209794 -0.151478
			vertex 0.961305 6.2781138 -0.037493
		endloop
	endfacet
	facet normal 0.975324518271511 -0.0432747248370693 0.21649337691652568
		outer loop
			vertex 0.983575 6.209794 -0.151478
			vertex 0.989264 6.2775941 -0.163555
			vertex 0.961305 6.2781138 -0.037493
		endloop
	endfacet
	facet normal 0.6437223178238279 -0.18622882499025675 -0.7422535970126833
		outer loop
			vertex 0.983575 6.209794 -0.151478
			vertex 0.880334 6.1501632 -0.226053
			vertex 0.989264 6.2775941 -0.163555
		endloop
	endfacet
	facet normal 0.6437148806750573 -0.18621796844111357 -0.7422627706056403
		outer loop
			vertex 0.880334 6.1501632 -0.226053
			vertex 0.87005 6.2087388 -0.249667
			vertex 0.989264 6.2775941 -0.163555
		endloop
	endfacet
	facet normal 0.15070074974210448 -0.3467542012256099 -0.9257703861971157
		outer loop
			vertex 0.880334 6.1501632 -0.226053
			vertex 0.710116 6.0662861 -0.222345
			vertex 0.87005 6.2087388 -0.249667
		endloop
	endfacet
	facet normal 0.1507109180502564 -0.3467645559828791 -0.9257648523758317
		outer loop
			vertex 0.710116 6.0662861 -0.222345
			vertex 0.6735 6.1118851 -0.245386
			vertex 0.87005 6.2087388 -0.249667
		endloop
	endfacet
	facet normal -0.21419913475533525 -0.5720669816216887 -0.7917437080320351
		outer loop
			vertex 0.710116 6.0662861 -0.222345
			vertex 0.572631 6.0072961 -0.142527
			vertex 0.6735 6.1118851 -0.245386
		endloop
	endfacet
	facet normal -0.21421820930892546 -0.572053260289822 -0.7917484614397824
		outer loop
			vertex 0.572631 6.0072961 -0.142527
			vertex 0.514746 6.0437679 -0.153217
			vertex 0.6735 6.1118851 -0.245386
		endloop
	endfacet
	facet normal -0.5150828831080485 -0.8499560834004423 -0.11074420896679321
		outer loop
			vertex 0.572631 6.0072961 -0.142527
			vertex 0.548416 6.0077462 -0.033355
			vertex 0.514746 6.0437679 -0.153217
		endloop
	endfacet
	facet normal -0.5151095482710134 -0.8499414714985079 -0.1107323272896567
		outer loop
			vertex 0.548416 6.0077462 -0.033355
			vertex 0.486785 6.0442901 -0.027155
			vertex 0.514746 6.0437679 -0.153217
		endloop
	endfacet
	facet normal -0.2504719795313226 -0.5567875683156959 0.7919920398834545
		outer loop
			vertex 0.548416 6.0077462 -0.033355
			vertex 0.651659 6.0673771 0.041218
			vertex 0.486785 6.0442901 -0.027155
		endloop
	endfacet
	facet normal -0.2504687110281355 -0.5567961350368109 0.7919870509067519
		outer loop
			vertex 0.651659 6.0673771 0.041218
			vertex 0.605998 6.1131449 0.058954
			vertex 0.486785 6.0442901 -0.027155
		endloop
	endfacet
	facet normal 0.13719842661918594 -0.2359311855519583 0.9620358971562691
		outer loop
			vertex 0.651659 6.0673771 0.041218
			vertex 0.821878 6.1512551 0.037513
			vertex 0.605998 6.1131449 0.058954
		endloop
	endfacet
	facet normal 0.13719096997397506 -0.23588149261733843 0.9620491459370548
		outer loop
			vertex 0.821878 6.1512551 0.037513
			vertex 0.80255 6.2099972 0.054672
			vertex 0.605998 6.1131449 0.058954
		endloop
	endfacet
	facet normal 0.5245708659005596 -0.07512021325014362 0.8480462016951612
		outer loop
			vertex 0.821878 6.1512551 0.037513
			vertex 0.959363 6.2102442 -0.042305
			vertex 0.80255 6.2099972 0.054672
		endloop
	endfacet
	facet normal 0.5245702252672103 -0.07513685819887937 0.8480451233885553
		outer loop
			vertex 0.959363 6.2102442 -0.042305
			vertex 0.961305 6.2781138 -0.037493
			vertex 0.80255 6.2099972 0.054672
		endloop
	endfacet
	facet normal 0.5151087158747297 0.8499408683790687 0.11074082846412944
		outer loop
			vertex 0.961305 6.2781138 -0.037493
			vertex 0.989264 6.2775941 -0.163555
			vertex 0.90342 6.3145881 -0.048184
		endloop
	endfacet
	facet normal 0.5150833509934938 0.8499594763330117 0.11071598855190717
		outer loop
			vertex 0.989264 6.2775941 -0.163555
			vertex 0.927634 6.3141351 -0.157357
			vertex 0.90342 6.3145881 -0.048184
		endloop
	endfacet
	facet normal 0.25048144233759473 0.5567960007179206 -0.7919831189040635
		outer loop
			vertex 0.989264 6.2775941 -0.163555
			vertex 0.87005 6.2087388 -0.249667
			vertex 0.927634 6.3141351 -0.157357
		endloop
	endfacet
	facet normal 0.2504851945283512 0.5567940886571419 -0.7919832764386867
		outer loop
			vertex 0.87005 6.2087388 -0.249667
			vertex 0.824391 6.2545071 -0.231931
			vertex 0.927634 6.3141351 -0.157357
		endloop
	endfacet
	facet normal -0.1372096000873757 0.2359235634909989 -0.9620361728300924
		outer loop
			vertex 0.87005 6.2087388 -0.249667
			vertex 0.6735 6.1118851 -0.245386
			vertex 0.824391 6.2545071 -0.231931
		endloop
	endfacet
	facet normal -0.13718194577299034 0.235895331004864 -0.9620470396836331
		outer loop
			vertex 0.6735 6.1118851 -0.245386
			vertex 0.654173 6.170629 -0.228226
			vertex 0.824391 6.2545071 -0.231931
		endloop
	endfacet
	facet normal -0.5245873864856232 0.07513253808394935 -0.8480348905919187
		outer loop
			vertex 0.6735 6.1118851 -0.245386
			vertex 0.514746 6.0437679 -0.153217
			vertex 0.654173 6.170629 -0.228226
		endloop
	endfacet
	facet normal -0.5245909038506349 0.07513797517679127 -0.8480322330451278
		outer loop
			vertex 0.514746 6.0437679 -0.153217
			vertex 0.516688 6.1116362 -0.148405
			vertex 0.654173 6.170629 -0.228226
		endloop
	endfacet
	facet normal -0.9753217407363827 0.04325902169279099 -0.21650902773125935
		outer loop
			vertex 0.514746 6.0437679 -0.153217
			vertex 0.486785 6.0442901 -0.027155
			vertex 0.516688 6.1116362 -0.148405
		endloop
	endfacet
	facet normal -0.9753225846838272 0.04327029831891561 -0.21650297247162864
		outer loop
			vertex 0.486785 6.0442901 -0.027155
			vertex 0.492474 6.1120892 -0.039233
			vertex 0.516688 6.1116362 -0.148405
		endloop
	endfacet
	facet normal -0.6437122418121275 0.18624261446371726 0.7422588755272141
		outer loop
			vertex 0.486785 6.0442901 -0.027155
			vertex 0.605998 6.1131449 0.058954
			vertex 0.492474 6.1120892 -0.039233
		endloop
	endfacet
	facet normal -0.6437121644355588 0.18624326638477642 0.742258779054864
		outer loop
			vertex 0.605998 6.1131449 0.058954
			vertex 0.595716 6.1717191 0.03534
			vertex 0.492474 6.1120892 -0.039233
		endloop
	endfacet
	facet normal -0.15070263653558297 0.3467654770178736 0.9257658555432852
		outer loop
			vertex 0.605998 6.1131449 0.058954
			vertex 0.80255 6.2099972 0.054672
			vertex 0.595716 6.1717191 0.03534
		endloop
	endfacet
	facet normal -0.15070037985946805 0.34675020949862384 0.9257719415292691
		outer loop
			vertex 0.80255 6.2099972 0.054672
			vertex 0.765936 6.2555952 0.031633
			vertex 0.595716 6.1717191 0.03534
		endloop
	endfacet
	facet normal 0.21420608427282756 0.5720472418576618 0.7917560903103584
		outer loop
			vertex 0.80255 6.2099972 0.054672
			vertex 0.961305 6.2781138 -0.037493
			vertex 0.765936 6.2555952 0.031633
		endloop
	endfacet
	facet normal 0.21421168421590164 0.5720306980865535 0.7917665279563144
		outer loop
			vertex 0.961305 6.2781138 -0.037493
			vertex 0.90342 6.3145881 -0.048184
			vertex 0.765936 6.2555952 0.031633
		endloop
	endfacet
	facet normal -0.04281945689530111 0.9989896802784873 -0.013642316822192599
		outer loop
			vertex 0.90342 6.3145881 -0.048184
			vertex 0.927634 6.3141351 -0.157357
			vertex 0.801217 6.3098888 -0.071514
		endloop
	endfacet
	facet normal -0.04278633031324231 0.998991766036215 -0.013593429669167139
		outer loop
			vertex 0.927634 6.3141351 -0.157357
			vertex 0.815198 6.3096299 -0.134547
			vertex 0.801217 6.3098888 -0.071514
		endloop
	endfacet
	facet normal -0.13529897268909283 0.8567260125075549 -0.49770948100491447
		outer loop
			vertex 0.927634 6.3141351 -0.157357
			vertex 0.824391 6.2545071 -0.231931
			vertex 0.815198 6.3096299 -0.134547
		endloop
	endfacet
	facet normal -0.1353341372168659 0.8567203815817378 -0.49770961321458124
		outer loop
			vertex 0.824391 6.2545071 -0.231931
			vertex 0.755592 6.2752008 -0.177603
			vertex 0.815198 6.3096299 -0.134547
		endloop
	endfacet
	facet normal -0.33731083942359125 0.6546392753237915 -0.6765122443909596
		outer loop
			vertex 0.824391 6.2545071 -0.231931
			vertex 0.654173 6.170629 -0.228226
			vertex 0.755592 6.2752008 -0.177603
		endloop
	endfacet
	facet normal -0.33729625684302594 0.6546320409735419 -0.6765265154083014
		outer loop
			vertex 0.654173 6.170629 -0.228226
			vertex 0.657316 6.2267761 -0.175463
			vertex 0.755592 6.2752008 -0.177603
		endloop
	endfacet
	facet normal -0.5811629284815942 0.574324878286182 -0.5765419193261319
		outer loop
			vertex 0.654173 6.170629 -0.228226
			vertex 0.516688 6.1116362 -0.148405
			vertex 0.657316 6.2267761 -0.175463
		endloop
	endfacet
	facet normal -0.5811625958395434 0.5743242449480823 -0.5765428855357237
		outer loop
			vertex 0.516688 6.1116362 -0.148405
			vertex 0.577938 6.192718 -0.129376
			vertex 0.657316 6.2267761 -0.175463
		endloop
	endfacet
	facet normal -0.7660729561122105 0.619178705206375 -0.17248175825998585
		outer loop
			vertex 0.516688 6.1116362 -0.148405
			vertex 0.492474 6.1120892 -0.039233
			vertex 0.577938 6.192718 -0.129376
		endloop
	endfacet
	facet normal -0.766063558892344 0.6191974943876085 -0.17245604275091103
		outer loop
			vertex 0.492474 6.1120892 -0.039233
			vertex 0.563959 6.1929779 -0.066347
			vertex 0.577938 6.192718 -0.129376
		endloop
	endfacet
	facet normal -0.6434232800710342 0.6839046489885576 0.3439199234625254
		outer loop
			vertex 0.492474 6.1120892 -0.039233
			vertex 0.595716 6.1717191 0.03534
			vertex 0.563959 6.1929779 -0.066347
		endloop
	endfacet
	facet normal -0.6434507502069585 0.6838773586728801 0.3439227970820011
		outer loop
			vertex 0.595716 6.1717191 0.03534
			vertex 0.623564 6.227406 -0.02329
			vertex 0.563959 6.1929779 -0.066347
		endloop
	endfacet
	facet normal -0.36051669980489487 0.7557990875123651 0.5466218514450953
		outer loop
			vertex 0.595716 6.1717191 0.03534
			vertex 0.765936 6.2555952 0.031633
			vertex 0.623564 6.227406 -0.02329
		endloop
	endfacet
	facet normal -0.3605073588625843 0.755834020509616 0.5465797084105789
		outer loop
			vertex 0.765936 6.2555952 0.031633
			vertex 0.721841 6.2758298 -0.025432
			vertex 0.623564 6.227406 -0.02329
		endloop
	endfacet
	facet normal -0.137936576561046 0.8951058146526132 0.42398004837692593
		outer loop
			vertex 0.765936 6.2555952 0.031633
			vertex 0.90342 6.3145881 -0.048184
			vertex 0.721841 6.2758298 -0.025432
		endloop
	endfacet
	facet normal -0.13793804914094843 0.8951087698456823 0.42397333022790307
		outer loop
			vertex 0.90342 6.3145881 -0.048184
			vertex 0.801217 6.3098888 -0.071514
			vertex 0.721841 6.2758298 -0.025432
		endloop
	endfacet
	facet normal 0.5444485070047749 -0.8295539233863142 0.12416163422992106
		outer loop
			vertex 0.912092 6.1289048 -0.124363
			vertex 0.898113 6.1291642 -0.061332
			vertex 0.793967 6.0565991 -0.089477
		endloop
	endfacet
	facet normal 0.5155987211211096 -0.8563379908421199 -0.029037978902774243
		outer loop
			vertex 0.852486 6.0944762 -0.167419
			vertex 0.912092 6.1289048 -0.124363
			vertex 0.793967 6.0565991 -0.089477
		endloop
	endfacet
	facet normal 0.4376915703163161 -0.8929359432620879 -0.10531614550809748
		outer loop
			vertex 0.754209 6.046051 -0.165277
			vertex 0.852486 6.0944762 -0.167419
			vertex 0.793967 6.0565991 -0.089477
		endloop
	endfacet
	facet normal 0.3633578534581033 -0.9296360379843498 -0.06122015363489576
		outer loop
			vertex 0.674832 6.011991 -0.119195
			vertex 0.754209 6.046051 -0.165277
			vertex 0.793967 6.0565991 -0.089477
		endloop
	endfacet
	facet normal 0.3325458861841509 -0.9398824105918401 0.07768067869212808
		outer loop
			vertex 0.660852 6.0122542 -0.056163
			vertex 0.674832 6.011991 -0.119195
			vertex 0.793967 6.0565991 -0.089477
		endloop
	endfacet
	facet normal 0.35854217853925724 -0.9053685588932076 0.22749786543165673
		outer loop
			vertex 0.720459 6.0466781 -0.013109
			vertex 0.660852 6.0122542 -0.056163
			vertex 0.793967 6.0565991 -0.089477
		endloop
	endfacet
	facet normal 0.42690742159243866 -0.8530475534925591 0.3000998581633383
		outer loop
			vertex 0.818735 6.0951071 -0.01525
			vertex 0.720459 6.0466781 -0.013109
			vertex 0.793967 6.0565991 -0.089477
		endloop
	endfacet
	facet normal 0.5039906651945821 -0.8238831959305367 0.25924870078750134
		outer loop
			vertex 0.898113 6.1291642 -0.061332
			vertex 0.818735 6.0951071 -0.01525
			vertex 0.793967 6.0565991 -0.089477
		endloop
	endfacet
	facet normal -0.3325602661060014 0.9398820224835653 -0.07762379287118461
		outer loop
			vertex 0.801217 6.3098888 -0.071514
			vertex 0.815198 6.3096299 -0.134547
			vertex 0.682084 6.2652812 -0.101234
		endloop
	endfacet
	facet normal -0.3585726515053583 0.9053449254547375 -0.2275438848788794
		outer loop
			vertex 0.815198 6.3096299 -0.134547
			vertex 0.755592 6.2752008 -0.177603
			vertex 0.682084 6.2652812 -0.101234
		endloop
	endfacet
	facet normal -0.42687746095751045 0.8530695788820668 -0.3000798675560267
		outer loop
			vertex 0.755592 6.2752008 -0.177603
			vertex 0.657316 6.2267761 -0.175463
			vertex 0.682084 6.2652812 -0.101234
		endloop
	endfacet
	facet normal -0.5039984060866118 0.8238904196967368 -0.2592106922834965
		outer loop
			vertex 0.657316 6.2267761 -0.175463
			vertex 0.577938 6.192718 -0.129376
			vertex 0.682084 6.2652812 -0.101234
		endloop
	endfacet
	facet normal -0.5444384405335366 0.8295592862503515 -0.12416994429095278
		outer loop
			vertex 0.577938 6.192718 -0.129376
			vertex 0.563959 6.1929779 -0.066347
			vertex 0.682084 6.2652812 -0.101234
		endloop
	endfacet
	facet normal -0.5155902309515029 0.8563437488661001 0.029018916680841965
		outer loop
			vertex 0.563959 6.1929779 -0.066347
			vertex 0.623564 6.227406 -0.02329
			vertex 0.682084 6.2652812 -0.101234
		endloop
	endfacet
	facet normal -0.4376826168515678 0.892942699887271 0.10529606651720226
		outer loop
			vertex 0.623564 6.227406 -0.02329
			vertex 0.721841 6.2758298 -0.025432
			vertex 0.682084 6.2652812 -0.101234
		endloop
	endfacet
	facet normal -0.36335822854304645 0.9296367103607946 0.06120771601374737
		outer loop
			vertex 0.721841 6.2758298 -0.025432
			vertex 0.801217 6.3098888 -0.071514
			vertex 0.682084 6.2652812 -0.101234
		endloop
	endfacet
endsolid exported
