solid exported
	facet normal 0.22597576726737803 -0.9483358329993073 -0.22269732925526942
		outer loop
			vertex 0.60856 5.658947 0.505056
			vertex 0.489271 5.6264482 0.522404
			vertex 0.632498 5.6948199 0.376585
		endloop
	endfacet
	facet normal 0.2259761077116158 -0.9483358306588712 -0.22269699376519997
		outer loop
			vertex 0.489271 5.6264482 0.522404
			vertex 0.417545 5.6362591 0.407843
			vertex 0.632498 5.6948199 0.376585
		endloop
	endfacet
	facet normal -0.3879029384155329 -0.9067730797179683 0.16520863254499304
		outer loop
			vertex 0.489271 5.6264482 0.522404
			vertex 0.425801 5.6712189 0.61911
			vertex 0.417545 5.6362591 0.407843
		endloop
	endfacet
	facet normal -0.38792934261577644 -0.906761932067326 0.16520781970361356
		outer loop
			vertex 0.425801 5.6712189 0.61911
			vertex 0.303181 5.7169342 0.582096
			vertex 0.417545 5.6362591 0.407843
		endloop
	endfacet
	facet normal -0.4140905747833744 -0.4891933351648457 0.767605938425355
		outer loop
			vertex 0.425801 5.6712189 0.61911
			vertex 0.481625 5.7484879 0.698468
			vertex 0.303181 5.7169342 0.582096
		endloop
	endfacet
	facet normal -0.4140842172436336 -0.48920784135559336 0.7676001231018191
		outer loop
			vertex 0.481625 5.7484879 0.698468
			vertex 0.403771 5.8561692 0.725097
			vertex 0.303181 5.7169342 0.582096
		endloop
	endfacet
	facet normal 0.1738409839251794 -0.11614189157260756 0.9779010038495014
		outer loop
			vertex 0.481625 5.7484879 0.698468
			vertex 0.600914 5.7809882 0.681122
			vertex 0.403771 5.8561692 0.725097
		endloop
	endfacet
	facet normal 0.1738458175705618 -0.1161295698859158 0.9779016078887157
		outer loop
			vertex 0.600914 5.7809882 0.681122
			vertex 0.618721 5.9147239 0.693838
			vertex 0.403771 5.8561692 0.725097
		endloop
	endfacet
	facet normal 0.7891211654427295 -0.1614227175168136 0.5926470218602263
		outer loop
			vertex 0.600914 5.7809882 0.681122
			vertex 0.664382 5.7362151 0.584418
			vertex 0.618721 5.9147239 0.693838
		endloop
	endfacet
	facet normal 0.7891127953093242 -0.16143040624107285 0.5926560724568232
		outer loop
			vertex 0.664382 5.7362151 0.584418
			vertex 0.733088 5.8340511 0.519586
			vertex 0.618721 5.9147239 0.693838
		endloop
	endfacet
	facet normal 0.8152772877568291 -0.5789888277540155 -0.009740708593306465
		outer loop
			vertex 0.664382 5.7362151 0.584418
			vertex 0.60856 5.658947 0.505056
			vertex 0.733088 5.8340511 0.519586
		endloop
	endfacet
	facet normal 0.8152778820125268 -0.5789876703165439 -0.009759750129461665
		outer loop
			vertex 0.60856 5.658947 0.505056
			vertex 0.632498 5.6948199 0.376585
			vertex 0.733088 5.8340511 0.519586
		endloop
	endfacet
	facet normal 0.13245322740425855 -0.7991571771408441 -0.5863479758423947
		outer loop
			vertex 0.632498 5.6948199 0.376585
			vertex 0.417545 5.6362591 0.407843
			vertex 0.62179 5.7786131 0.259961
		endloop
	endfacet
	facet normal 0.1324367332604807 -0.7991489833395069 -0.586362868973407
		outer loop
			vertex 0.417545 5.6362591 0.407843
			vertex 0.353748 5.7055931 0.298939
			vertex 0.62179 5.7786131 0.259961
		endloop
	endfacet
	facet normal -0.6602808774272659 -0.7458402835294405 -0.08804223059761462
		outer loop
			vertex 0.417545 5.6362591 0.407843
			vertex 0.303181 5.7169342 0.582096
			vertex 0.353748 5.7055931 0.298939
		endloop
	endfacet
	facet normal -0.6602566416342481 -0.7458623536178404 -0.08803701854061065
		outer loop
			vertex 0.303181 5.7169342 0.582096
			vertex 0.211135 5.80619 0.516231
			vertex 0.353748 5.7055931 0.298939
		endloop
	endfacet
	facet normal -0.6940274806753942 -0.20684752335504844 0.6895940531568178
		outer loop
			vertex 0.303181 5.7169342 0.582096
			vertex 0.403771 5.8561692 0.725097
			vertex 0.211135 5.80619 0.516231
		endloop
	endfacet
	facet normal -0.6940279103025728 -0.206845986695907 0.689594081695051
		outer loop
			vertex 0.403771 5.8561692 0.725097
			vertex 0.336568 5.9798121 0.694549
			vertex 0.211135 5.80619 0.516231
		endloop
	endfacet
	facet normal 0.06531671746942545 0.27265810205233576 0.9598912885344035
		outer loop
			vertex 0.403771 5.8561692 0.725097
			vertex 0.618721 5.9147239 0.693838
			vertex 0.336568 5.9798121 0.694549
		endloop
	endfacet
	facet normal 0.06530777182027117 0.2726191959003913 0.9599029476809078
		outer loop
			vertex 0.618721 5.9147239 0.693838
			vertex 0.604611 6.0528331 0.655574
			vertex 0.336568 5.9798121 0.694549
		endloop
	endfacet
	facet normal 0.8591561053121636 0.21626566528382332 0.4637671276882179
		outer loop
			vertex 0.618721 5.9147239 0.693838
			vertex 0.733088 5.8340511 0.519586
			vertex 0.604611 6.0528331 0.655574
		endloop
	endfacet
	facet normal 0.8591697625117576 0.21629910646136358 0.4637262292878268
		outer loop
			vertex 0.733088 5.8340511 0.519586
			vertex 0.74722 5.9522319 0.438279
			vertex 0.604611 6.0528331 0.655574
		endloop
	endfacet
	facet normal 0.8929292088528558 -0.32272653988138655 -0.3138869357485287
		outer loop
			vertex 0.733088 5.8340511 0.519586
			vertex 0.632498 5.6948199 0.376585
			vertex 0.74722 5.9522319 0.438279
		endloop
	endfacet
	facet normal 0.8929338043198644 -0.32273341567267216 -0.31386679262245065
		outer loop
			vertex 0.632498 5.6948199 0.376585
			vertex 0.62179 5.7786131 0.259961
			vertex 0.74722 5.9522319 0.438279
		endloop
	endfacet
	facet normal -0.05635695591669326 -0.30123836484048677 -0.9518819995503821
		outer loop
			vertex 0.62179 5.7786131 0.259961
			vertex 0.353748 5.7055931 0.298939
			vertex 0.601798 5.9154892 0.217828
		endloop
	endfacet
	facet normal 0.12140556407496554 -0.4793558854193099 -0.8691827334487894
		outer loop
			vertex 0.353748 5.7055931 0.298939
			vertex 0.315714 5.8229771 0.228889
			vertex 0.601798 5.9154892 0.217828
		endloop
	endfacet
	facet normal -0.8242734807894513 -0.46221631746198705 -0.32700046596162835
		outer loop
			vertex 0.353748 5.7055931 0.298939
			vertex 0.211135 5.80619 0.516231
			vertex 0.315714 5.8229771 0.228889
		endloop
	endfacet
	facet normal -0.7907595954640292 -0.5228346635263744 -0.3183444310755698
		outer loop
			vertex 0.211135 5.80619 0.516231
			vertex 0.1679 5.921308 0.434561
			vertex 0.315714 5.8229771 0.228889
		endloop
	endfacet
	facet normal -0.8436005323532587 0.06160469989749753 0.5334257237552741
		outer loop
			vertex 0.211135 5.80619 0.516231
			vertex 0.336568 5.9798121 0.694549
			vertex 0.1679 5.921308 0.434561
		endloop
	endfacet
	facet normal -0.8114746260826967 0.3847372037869109 0.43987068013926145
		outer loop
			vertex 0.336568 5.9798121 0.694549
			vertex 0.349834 6.1215611 0.59504
			vertex 0.1679 5.921308 0.434561
		endloop
	endfacet
	facet normal -0.038389423198041915 0.5765457794427911 0.8161624938657904
		outer loop
			vertex 0.336568 5.9798121 0.694549
			vertex 0.604611 6.0528331 0.655574
			vertex 0.349834 6.1215611 0.59504
		endloop
	endfacet
	facet normal -0.3347683052313755 -0.6038542084173774 0.7233880540824097
		outer loop
			vertex 0.604611 6.0528331 0.655574
			vertex 0.616764 6.140626 0.734484
			vertex 0.349834 6.1215611 0.59504
		endloop
	endfacet
	facet normal 0.49518102827598576 -0.6176832833171358 0.6109526256151948
		outer loop
			vertex 0.604611 6.0528331 0.655574
			vertex 0.74722 5.9522319 0.438279
			vertex 0.616764 6.140626 0.734484
		endloop
	endfacet
	facet normal 0.4906800170931027 -0.6210859712607313 0.6111344673053768
		outer loop
			vertex 0.74722 5.9522319 0.438279
			vertex 0.847823 6.2018671 0.611205
			vertex 0.616764 6.140626 0.734484
		endloop
	endfacet
	facet normal 0.710702496166695 0.18395178851316368 -0.6790167166169307
		outer loop
			vertex 0.74722 5.9522319 0.438279
			vertex 0.62179 5.7786131 0.259961
			vertex 0.847823 6.2018671 0.611205
		endloop
	endfacet
	facet normal 0.857873923309402 -0.03255760119777222 -0.5128277823109639
		outer loop
			vertex 0.62179 5.7786131 0.259961
			vertex 0.601798 5.9154892 0.217828
			vertex 0.847823 6.2018671 0.611205
		endloop
	endfacet
	facet normal 0.06259660574505492 -0.3071117405906578 -0.9496125756015318
		outer loop
			vertex 0.601798 5.9154892 0.217828
			vertex 0.315714 5.8229771 0.228889
			vertex 0.483141 6.00914 0.179719
		endloop
	endfacet
	facet normal 0.027318204527815765 -0.2781655962891227 -0.9601445811660312
		outer loop
			vertex 0.315714 5.8229771 0.228889
			vertex 0.287268 5.9554729 0.189694
			vertex 0.483141 6.00914 0.179719
		endloop
	endfacet
	facet normal -0.8358247013490524 -0.31289232339234657 -0.4511047135387824
		outer loop
			vertex 0.315714 5.8229771 0.228889
			vertex 0.1679 5.921308 0.434561
			vertex 0.287268 5.9554729 0.189694
		endloop
	endfacet
	facet normal -0.8970828803893687 -0.026793759587495258 -0.44104920378511203
		outer loop
			vertex 0.1679 5.921308 0.434561
			vertex 0.189573 6.1141419 0.378764
			vertex 0.287268 5.9554729 0.189694
		endloop
	endfacet
	facet normal -0.781472393756953 0.25287746934092453 0.5703980042878024
		outer loop
			vertex 0.1679 5.921308 0.434561
			vertex 0.349834 6.1215611 0.59504
			vertex 0.189573 6.1141419 0.378764
		endloop
	endfacet
	facet normal 0.7863310261217102 0.14829433906197673 -0.5997435338213741
		outer loop
			vertex 0.847823 6.2018671 0.611205
			vertex 0.601798 5.9154892 0.217828
			vertex 0.61194 6.1566038 0.290744
		endloop
	endfacet
	facet normal 0.46263932057592994 0.23873855169710057 -0.8537966754389554
		outer loop
			vertex 0.601798 5.9154892 0.217828
			vertex 0.483141 6.00914 0.179719
			vertex 0.61194 6.1566038 0.290744
		endloop
	endfacet
	facet normal -0.034184700557799874 -0.060650491479377226 -0.9975735181584782
		outer loop
			vertex 0.483141 6.00914 0.179719
			vertex 0.287268 5.9554729 0.189694
			vertex 0.433498 6.125051 0.174373
		endloop
	endfacet
	facet normal -0.1558193342517301 0.04521492766530273 -0.9867501940154707
		outer loop
			vertex 0.287268 5.9554729 0.189694
			vertex 0.314209 6.0925531 0.191721
			vertex 0.433498 6.125051 0.174373
		endloop
	endfacet
	facet normal -0.8113382519622405 0.16773665470005764 -0.5599952281697494
		outer loop
			vertex 0.287268 5.9554729 0.189694
			vertex 0.189573 6.1141419 0.378764
			vertex 0.314209 6.0925531 0.191721
		endloop
	endfacet
	facet normal -0.830656891713094 0.023932224589139007 -0.5562700575042273
		outer loop
			vertex 0.189573 6.1141419 0.378764
			vertex 0.25074 6.1373239 0.288423
			vertex 0.314209 6.0925531 0.191721
		endloop
	endfacet
	facet normal 0.38115242435533925 0.3200996770737663 -0.867328672502713
		outer loop
			vertex 0.61194 6.1566038 0.290744
			vertex 0.483141 6.00914 0.179719
			vertex 0.489321 6.2023211 0.253731
		endloop
	endfacet
	facet normal 0.6603388554032511 0.2501558618757216 -0.7080781318568871
		outer loop
			vertex 0.483141 6.00914 0.179719
			vertex 0.433498 6.125051 0.174373
			vertex 0.489321 6.2023211 0.253731
		endloop
	endfacet
	facet normal 0.29050128890622867 -0.9124123814507058 0.2882926418056344
		outer loop
			vertex 0.489271 5.6264482 0.522404
			vertex 0.60856 5.658947 0.505056
			vertex 0.554714 5.6781011 0.619935
		endloop
	endfacet
	facet normal 0.04493948564504813 -0.8949821115038491 0.44383269676542597
		outer loop
			vertex 0.425801 5.6712189 0.61911
			vertex 0.489271 5.6264482 0.522404
			vertex 0.554714 5.6781011 0.619935
		endloop
	endfacet
	facet normal 0.03448730778778247 -0.728065180042176 0.6846398463511343
		outer loop
			vertex 0.481625 5.7484879 0.698468
			vertex 0.425801 5.6712189 0.61911
			vertex 0.554714 5.6781011 0.619935
		endloop
	endfacet
	facet normal 0.26959935014176895 -0.5787654114514907 0.7696406881854172
		outer loop
			vertex 0.600914 5.7809882 0.681122
			vertex 0.481625 5.7484879 0.698468
			vertex 0.554714 5.6781011 0.619935
		endloop
	endfacet
	facet normal 0.5154494624242846 -0.5970255226759605 0.6147132477505362
		outer loop
			vertex 0.664382 5.7362151 0.584418
			vertex 0.600914 5.7809882 0.681122
			vertex 0.554714 5.6781011 0.619935
		endloop
	endfacet
	facet normal 0.5259119198043902 -0.7639562671209605 0.3738816317155315
		outer loop
			vertex 0.60856 5.658947 0.505056
			vertex 0.664382 5.7362151 0.584418
			vertex 0.554714 5.6781011 0.619935
		endloop
	endfacet
	facet normal -0.2695972685928241 0.5787442730086677 -0.7696573128522575
		outer loop
			vertex 0.433498 6.125051 0.174373
			vertex 0.314209 6.0925531 0.191721
			vertex 0.360409 6.1954389 0.252903
		endloop
	endfacet
	facet normal -0.5154608137552052 0.5970110108912214 -0.6147178233608194
		outer loop
			vertex 0.314209 6.0925531 0.191721
			vertex 0.25074 6.1373239 0.288423
			vertex 0.360409 6.1954389 0.252903
		endloop
	endfacet
	facet normal -0.034471011555077764 0.7280547882785754 -0.6846517177565602
		outer loop
			vertex 0.489321 6.2023211 0.253731
			vertex 0.433498 6.125051 0.174373
			vertex 0.360409 6.1954389 0.252903
		endloop
	endfacet
	facet normal -0.2161026502771439 -0.12652417428900226 0.9681380469043042
		outer loop
			vertex -0.20302 5.748919 0.69017
			vertex -0.132411 5.8605361 0.720518
			vertex -0.322847 5.775074 0.666841
		endloop
	endfacet
	facet normal -0.21611252892206803 -0.12650255134269145 0.968138667416346
		outer loop
			vertex -0.132411 5.8605361 0.720518
			vertex -0.348334 5.9076591 0.678476
			vertex -0.322847 5.775074 0.666841
		endloop
	endfacet
	facet normal -0.8080811118913229 -0.2038388140303617 0.5526795224170866
		outer loop
			vertex -0.322847 5.775074 0.666841
			vertex -0.348334 5.9076591 0.678476
			vertex -0.378939 5.727129 0.567145
		endloop
	endfacet
	facet normal -0.8080940020853997 -0.20382756445796102 0.5526648240667554
		outer loop
			vertex -0.348334 5.9076591 0.678476
			vertex -0.449407 5.8212719 0.498829
			vertex -0.378939 5.727129 0.567145
		endloop
	endfacet
	facet normal -0.7819397726364902 -0.6213690173082753 -0.049706501572155413
		outer loop
			vertex -0.378939 5.727129 0.567145
			vertex -0.449407 5.8212719 0.498829
			vertex -0.315205 5.6530342 0.490778
		endloop
	endfacet
	facet normal -0.7819394550488808 -0.6213677921969991 -0.04972680824350564
		outer loop
			vertex -0.449407 5.8212719 0.498829
			vertex -0.334557 5.6877551 0.361223
			vertex -0.315205 5.6530342 0.490778
		endloop
	endfacet
	facet normal -0.1639808492064408 -0.9586887052313208 -0.23243546965863093
		outer loop
			vertex -0.315205 5.6530342 0.490778
			vertex -0.334557 5.6877551 0.361223
			vertex -0.195377 5.6268811 0.51411
		endloop
	endfacet
	facet normal -0.16396142000688507 -0.9586878248626334 -0.23245280641342814
		outer loop
			vertex -0.334557 5.6877551 0.361223
			vertex -0.118632 5.6406322 0.403265
			vertex -0.195377 5.6268811 0.51411
		endloop
	endfacet
	facet normal 0.4266767180043969 -0.885153941774389 0.18560570485375177
		outer loop
			vertex -0.195377 5.6268811 0.51411
			vertex -0.118632 5.6406322 0.403265
			vertex -0.139284 5.6748252 0.613807
		endloop
	endfacet
	facet normal 0.42669001757331604 -0.8851474773626049 0.18560595955383624
		outer loop
			vertex -0.118632 5.6406322 0.403265
			vertex -0.017563 5.7270231 0.582912
			vertex -0.139284 5.6748252 0.613807
		endloop
	endfacet
	facet normal 0.40052622691237133 -0.46759259527256963 0.7879948644512873
		outer loop
			vertex -0.139284 5.6748252 0.613807
			vertex -0.017563 5.7270231 0.582912
			vertex -0.20302 5.748919 0.69017
		endloop
	endfacet
	facet normal 0.4005178819313408 -0.46761600515715057 0.7879852143118553
		outer loop
			vertex -0.017563 5.7270231 0.582912
			vertex -0.132411 5.8605361 0.720518
			vertex -0.20302 5.748919 0.69017
		endloop
	endfacet
	facet normal -0.12782444047416552 0.26658664278870164 0.9552970607638841
		outer loop
			vertex -0.132411 5.8605361 0.720518
			vertex -0.087222 5.9845681 0.691952
			vertex -0.348334 5.9076591 0.678476
		endloop
	endfacet
	facet normal -0.12808872452518788 0.2675366542016537 0.9549960299959868
		outer loop
			vertex -0.087222 5.9845681 0.691952
			vertex -0.339666 6.0463719 0.640779
			vertex -0.348334 5.9076591 0.678476
		endloop
	endfacet
	facet normal -0.8915273768445717 0.16983041452167594 0.41992447730518484
		outer loop
			vertex -0.348334 5.9076591 0.678476
			vertex -0.339666 6.0463719 0.640779
			vertex -0.449407 5.8212719 0.498829
		endloop
	endfacet
	facet normal -0.8915315037206476 0.16984053222995166 0.41991162342265276
		outer loop
			vertex -0.339666 6.0463719 0.640779
			vertex -0.465701 5.9386449 0.416761
			vertex -0.449407 5.8212719 0.498829
		endloop
	endfacet
	facet normal -0.8577611803823286 -0.3691830574014268 -0.35770047184320225
		outer loop
			vertex -0.449407 5.8212719 0.498829
			vertex -0.465701 5.9386449 0.416761
			vertex -0.334557 5.6877551 0.361223
		endloop
	endfacet
	facet normal -0.8052100842199547 -0.3088374413438008 -0.5062174978156206
		outer loop
			vertex -0.465701 5.9386449 0.416761
			vertex -0.30825 5.785677 0.259637
			vertex -0.334557 5.6877551 0.361223
		endloop
	endfacet
	facet normal -0.020858667524894015 -0.7171107961785437 -0.6966469852035974
		outer loop
			vertex -0.334557 5.6877551 0.361223
			vertex -0.30825 5.785677 0.259637
			vertex -0.118632 5.6406322 0.403265
		endloop
	endfacet
	facet normal -0.12889727596097011 -0.777734261087336 -0.6152356551605062
		outer loop
			vertex -0.30825 5.785677 0.259637
			vertex -0.053236 5.7133861 0.297594
			vertex -0.118632 5.6406322 0.403265
		endloop
	endfacet
	facet normal 0.7024427019137219 -0.7096960503383337 -0.05390516359607265
		outer loop
			vertex -0.118632 5.6406322 0.403265
			vertex -0.053236 5.7133861 0.297594
			vertex -0.017563 5.7270231 0.582912
		endloop
	endfacet
	facet normal 0.7024334843686117 -0.7097052946503888 -0.05390356929718438
		outer loop
			vertex -0.053236 5.7133861 0.297594
			vertex 0.072798 5.8211141 0.521612
			vertex -0.017563 5.7270231 0.582912
		endloop
	endfacet
	facet normal 0.6686782813209209 -0.17068433924842719 0.7236962155663296
		outer loop
			vertex -0.017563 5.7270231 0.582912
			vertex 0.072798 5.8211141 0.521612
			vertex -0.132411 5.8605361 0.720518
		endloop
	endfacet
	facet normal 0.6853163848257245 -0.08305466587224607 0.7234938667094899
		outer loop
			vertex 0.072798 5.8211141 0.521612
			vertex -0.087222 5.9845681 0.691952
			vertex -0.132411 5.8605361 0.720518
		endloop
	endfacet
	facet normal 0.0807558809714595 0.8103658336625976 0.5803324076086451
		outer loop
			vertex -0.087222 5.9845681 0.691952
			vertex -0.030254 6.099227 0.523917
			vertex -0.339666 6.0463719 0.640779
		endloop
	endfacet
	facet normal 0.23421517231418948 0.48799246874060803 0.8408368471411569
		outer loop
			vertex -0.030254 6.099227 0.523917
			vertex -0.298561 6.1637311 0.561218
			vertex -0.339666 6.0463719 0.640779
		endloop
	endfacet
	facet normal -0.847327787557822 0.4675357204873483 0.2518848357895777
		outer loop
			vertex -0.339666 6.0463719 0.640779
			vertex -0.298561 6.1637311 0.561218
			vertex -0.465701 5.9386449 0.416761
		endloop
	endfacet
	facet normal -0.8473280867748728 0.46753118047245035 0.2518922560311666
		outer loop
			vertex -0.298561 6.1637311 0.561218
			vertex -0.424597 6.0560031 0.337203
			vertex -0.465701 5.9386449 0.416761
		endloop
	endfacet
	facet normal -0.7683409051914056 -0.1523162191942614 -0.6216526544462088
		outer loop
			vertex -0.465701 5.9386449 0.416761
			vertex -0.424597 6.0560031 0.337203
			vertex -0.30825 5.785677 0.259637
		endloop
	endfacet
	facet normal -0.698916655722085 -0.09750972305657843 -0.7085247788635807
		outer loop
			vertex -0.424597 6.0560031 0.337203
			vertex -0.263965 5.9124179 0.19851
			vertex -0.30825 5.785677 0.259637
		endloop
	endfacet
	facet normal 0.00991860937738377 -0.4372014245963279 -0.8993089210715974
		outer loop
			vertex -0.30825 5.785677 0.259637
			vertex -0.263965 5.9124179 0.19851
			vertex -0.053236 5.7133861 0.297594
		endloop
	endfacet
	facet normal -0.10737899530046346 -0.5318640573174275 -0.8399942713507677
		outer loop
			vertex -0.263965 5.9124179 0.19851
			vertex -0.012131 5.8307428 0.218032
			vertex -0.053236 5.7133861 0.297594
		endloop
	endfacet
	facet normal 0.8473272413112873 -0.46754154782260626 -0.251875856706127
		outer loop
			vertex -0.053236 5.7133861 0.297594
			vertex -0.012131 5.8307428 0.218032
			vertex 0.072798 5.8211141 0.521612
		endloop
	endfacet
	facet normal 0.8446368174798121 -0.47269823233321523 -0.2512867439930495
		outer loop
			vertex -0.012131 5.8307428 0.218032
			vertex 0.105595 5.9282188 0.430375
			vertex 0.072798 5.8211141 0.521612
		endloop
	endfacet
	facet normal 0.8073039211764017 0.21944854394681745 0.547816315394885
		outer loop
			vertex 0.072798 5.8211141 0.521612
			vertex 0.105595 5.9282188 0.430375
			vertex -0.087222 5.9845681 0.691952
		endloop
	endfacet
	facet normal 0.7885273881128845 0.34966448993580485 0.5059242064517232
		outer loop
			vertex 0.105595 5.9282188 0.430375
			vertex -0.030254 6.099227 0.523917
			vertex -0.087222 5.9845681 0.691952
		endloop
	endfacet
	facet normal -0.6122896165509171 0.07524652406385171 -0.7870447166967321
		outer loop
			vertex -0.424597 6.0560031 0.337203
			vertex -0.334235 6.1500978 0.275901
			vertex -0.263965 5.9124179 0.19851
		endloop
	endfacet
	facet normal -0.6227187422369685 0.06965417664006088 -0.7793392481733504
		outer loop
			vertex -0.334235 6.1500978 0.275901
			vertex -0.196213 6.0358982 0.15541
			vertex -0.263965 5.9124179 0.19851
		endloop
	endfacet
	facet normal -0.02873381916205505 -0.3153195346623205 -0.9485504513185896
		outer loop
			vertex -0.263965 5.9124179 0.19851
			vertex -0.196213 6.0358982 0.15541
			vertex -0.012131 5.8307428 0.218032
		endloop
	endfacet
	facet normal 0.03364847995461755 -0.26403809170190584 -0.9639251350219892
		outer loop
			vertex -0.196213 6.0358982 0.15541
			vertex -0.003463 5.9694571 0.180338
			vertex -0.012131 5.8307428 0.218032
		endloop
	endfacet
	facet normal 0.8928587168147765 -0.1692009344733712 -0.4173420127200337
		outer loop
			vertex -0.012131 5.8307428 0.218032
			vertex -0.003463 5.9694571 0.180338
			vertex 0.105595 5.9282188 0.430375
		endloop
	endfacet
	facet normal 0.9185217922401734 0.07223171450330847 -0.3887162160237367
		outer loop
			vertex -0.003463 5.9694571 0.180338
			vertex 0.068497 6.1134462 0.377133
			vertex 0.105595 5.9282188 0.430375
		endloop
	endfacet
	facet normal 0.7736131416922394 0.3132662804555335 0.5508057230372777
		outer loop
			vertex 0.105595 5.9282188 0.430375
			vertex 0.068497 6.1134462 0.377133
			vertex -0.030254 6.099227 0.523917
		endloop
	endfacet
	facet normal 0.7740980939257001 0.31174931721976035 0.5509850308253497
		outer loop
			vertex 0.068497 6.1134462 0.377133
			vertex 0.010037 6.1551771 0.435654
			vertex -0.030254 6.099227 0.523917
		endloop
	endfacet
	facet normal -0.38506133038473744 0.40801655449242075 -0.8277984435250344
		outer loop
			vertex -0.334235 6.1500978 0.275901
			vertex -0.212514 6.2022939 0.245008
			vertex -0.196213 6.0358982 0.15541
		endloop
	endfacet
	facet normal -0.5037932003412422 0.3707607448129648 -0.780210792924364
		outer loop
			vertex -0.212514 6.2022939 0.245008
			vertex -0.148778 6.1281981 0.168642
			vertex -0.196213 6.0358982 0.15541
		endloop
	endfacet
	facet normal 0.14981187653171318 0.06444775426846998 -0.986611822663705
		outer loop
			vertex -0.196213 6.0358982 0.15541
			vertex -0.148778 6.1281981 0.168642
			vertex -0.003463 5.9694571 0.180338
		endloop
	endfacet
	facet normal 0.21609856679007222 0.1264887829027943 -0.9681435829622829
		outer loop
			vertex -0.148778 6.1281981 0.168642
			vertex -0.028948 6.1020432 0.191972
			vertex -0.003463 5.9694571 0.180338
		endloop
	endfacet
	facet normal 0.8606097118172441 0.2062783277149982 -0.4656180574687196
		outer loop
			vertex -0.003463 5.9694571 0.180338
			vertex -0.028948 6.1020432 0.191972
			vertex 0.068497 6.1134462 0.377133
		endloop
	endfacet
	facet normal 0.8125091431472963 0.3701013805705308 -0.45039300660848797
		outer loop
			vertex -0.028948 6.1020432 0.191972
			vertex 0.002772 6.14432 0.283935
			vertex 0.068497 6.1134462 0.377133
		endloop
	endfacet
	facet normal -0.2766713445393343 -0.5932449875077122 0.7559850209546295
		outer loop
			vertex -0.322847 5.775074 0.666841
			vertex -0.268257 5.6748619 0.60818
			vertex -0.20302 5.748919 0.69017
		endloop
	endfacet
	facet normal -0.513176001931656 -0.6243131917299821 0.5889681058201399
		outer loop
			vertex -0.378939 5.727129 0.567145
			vertex -0.268257 5.6748619 0.60818
			vertex -0.322847 5.775074 0.666841
		endloop
	endfacet
	facet normal -0.5027207106302011 -0.7912444511629924 0.34814380018498214
		outer loop
			vertex -0.315205 5.6530342 0.490778
			vertex -0.268257 5.6748619 0.60818
			vertex -0.378939 5.727129 0.567145
		endloop
	endfacet
	facet normal -0.2557745703264033 -0.9269117925495758 0.27461590996676843
		outer loop
			vertex -0.195377 5.6268811 0.51411
			vertex -0.268257 5.6748619 0.60818
			vertex -0.315205 5.6530342 0.490778
		endloop
	endfacet
	facet normal -0.01954879966236483 -0.8966947117224289 0.44221763691737925
		outer loop
			vertex -0.139284 5.6748252 0.613807
			vertex -0.268257 5.6748619 0.60818
			vertex -0.195377 5.6268811 0.51411
		endloop
	endfacet
	facet normal -0.030008037372867735 -0.7297679130726414 0.6830360976863743
		outer loop
			vertex -0.20302 5.748919 0.69017
			vertex -0.268257 5.6748619 0.60818
			vertex -0.139284 5.6748252 0.613807
		endloop
	endfacet
	facet normal 0.02999137512371934 0.7297652376511665 -0.6830396879641217
		outer loop
			vertex -0.212514 6.2022939 0.245008
			vertex -0.083537 6.2022572 0.250632
			vertex -0.148778 6.1281981 0.168642
		endloop
	endfacet
	facet normal 0.27666937560229815 0.5932297731072428 -0.7559976804878198
		outer loop
			vertex -0.148778 6.1281981 0.168642
			vertex -0.083537 6.2022572 0.250632
			vertex -0.028948 6.1020432 0.191972
		endloop
	endfacet
	facet normal 0.6078030685107924 0.620872270849348 -0.49506873583295363
		outer loop
			vertex -0.028948 6.1020432 0.191972
			vertex -0.083537 6.2022572 0.250632
			vertex 0.002772 6.14432 0.283935
		endloop
	endfacet
	facet normal -0.29344763472566104 -0.9339543013354369 0.20400453105495256
		outer loop
			vertex -0.072675 6.0068712 1.05998
			vertex 0.117689 5.9451818 1.051386
			vertex 0.129965 5.9621191 1.146585
		endloop
	endfacet
	facet normal 0.08915744256315597 -0.9825377753732237 0.16331096227820768
		outer loop
			vertex 0.117689 5.9451818 1.051386
			vertex 0.189045 5.951395 1.049811
			vertex 0.129965 5.9621191 1.146585
		endloop
	endfacet
	facet normal 0.3144067560665869 -0.9032508449572689 0.292038187269517
		outer loop
			vertex 0.189045 5.951395 1.049811
			vertex 0.179978 5.9749842 1.132532
			vertex 0.129965 5.9621191 1.146585
		endloop
	endfacet
	facet normal 0.5174537719548044 -0.8062748935016163 0.28663982626059287
		outer loop
			vertex 0.189045 5.951395 1.049811
			vertex 0.31955 6.0443249 1.075616
			vertex 0.179978 5.9749842 1.132532
		endloop
	endfacet
	facet normal -0.047682513453182945 -0.9285116453640543 -0.3682288722168912
		outer loop
			vertex -0.072675 6.0068712 1.05998
			vertex 0.129965 5.9621191 1.146585
			vertex 0.029237 5.8709912 1.389413
		endloop
	endfacet
	facet normal -0.4619380860020009 -0.7501684898882585 -0.47313892407999814
		outer loop
			vertex 0.129965 5.9621191 1.146585
			vertex 0.0841 5.8360882 1.391188
			vertex 0.029237 5.8709912 1.389413
		endloop
	endfacet
	facet normal 0.10587786302869465 -0.8918874898820605 -0.4396891896696516
		outer loop
			vertex 0.129965 5.9621191 1.146585
			vertex 0.179978 5.9749842 1.132532
			vertex 0.0841 5.8360882 1.391188
		endloop
	endfacet
	facet normal -0.12843856349474447 -0.853088767542708 -0.5057104805121899
		outer loop
			vertex 0.179978 5.9749842 1.132532
			vertex 0.155066 5.8252692 1.391415
			vertex 0.0841 5.8360882 1.391188
		endloop
	endfacet
	facet normal 0.41650674671752447 -0.8038004116225673 -0.4247670281627043
		outer loop
			vertex 0.179978 5.9749842 1.132532
			vertex 0.284393 5.9826422 1.220425
			vertex 0.155066 5.8252692 1.391415
		endloop
	endfacet
	facet normal -0.32256944078318806 -0.22301609482365864 0.9198982429173491
		outer loop
			vertex -0.100965 6.2401562 1.319815
			vertex 0.093529 6.2287312 1.385246
			vertex -0.143639 6.5939531 1.390624
		endloop
	endfacet
	facet normal -0.14556201960455944 -0.10900490692738282 0.9833257998824168
		outer loop
			vertex 0.093529 6.2287312 1.385246
			vertex 0.093696 6.5582061 1.4217941
			vertex -0.143639 6.5939531 1.390624
		endloop
	endfacet
	facet normal 0.05910217925581576 -0.11008893695818663 0.9921629696610482
		outer loop
			vertex 0.093529 6.2287312 1.385246
			vertex 0.28325 6.2174792 1.372696
			vertex 0.093696 6.5582061 1.4217941
		endloop
	endfacet
	facet normal 0.11434615897376703 -0.07908530582228944 0.9902880744161978
		outer loop
			vertex 0.28325 6.2174792 1.372696
			vertex 0.349341 6.5478582 1.391449
			vertex 0.093696 6.5582061 1.4217941
		endloop
	endfacet
	facet normal 0.22235594400597689 -0.09953335126692353 0.969871613230734
		outer loop
			vertex 0.28325 6.2174792 1.372696
			vertex 0.810175 6.2895331 1.259286
			vertex 0.349341 6.5478582 1.391449
		endloop
	endfacet
	facet normal 0.37468514406149783 0.20591378732677218 0.9039969883845629
		outer loop
			vertex 0.810175 6.2895331 1.259286
			vertex 0.891556 6.5654621 1.162704
			vertex 0.349341 6.5478582 1.391449
		endloop
	endfacet
	facet normal -0.7836550773115069 0.6211388408080302 0.00844157826196721
		outer loop
			vertex -0.244914 7.2040482 1.4951741
			vertex -0.037385 7.463275 1.686527
			vertex -0.055002 7.4479928 1.17557
		endloop
	endfacet
	facet normal 0.008856528785776214 0.9995046527998753 -0.030199518692645075
		outer loop
			vertex -0.037385 7.463275 1.686527
			vertex 0.006306 7.4628248 1.68444
			vertex -0.055002 7.4479928 1.17557
		endloop
	endfacet
	facet normal -0.04144951999995733 0.998849428869045 -0.024119613175916193
		outer loop
			vertex 0.006306 7.4628248 1.68444
			vertex -0.009157 7.4499021 1.175854
			vertex -0.055002 7.4479928 1.17557
		endloop
	endfacet
	facet normal 0.7954832938341285 0.6026383463083954 -0.06350868278816939
		outer loop
			vertex 0.331232 7.4594922 1.668914
			vertex 0.551581 7.1469302 1.462991
			vertex 0.29984 7.448009 1.166746
		endloop
	endfacet
	facet normal -0.9971332541232316 0.06156484507769885 0.04398912788603588
		outer loop
			vertex -0.083909 6.7753701 0.736222
			vertex -0.056524 7.1315279 0.858518
			vertex -0.094282 6.8115702 0.450426
		endloop
	endfacet
	facet normal -0.03434095619359522 0.7880367343847008 -0.6146696706264319
		outer loop
			vertex -0.056524 7.1315279 0.858518
			vertex -0.008997 7.1305461 0.854604
			vertex -0.094282 6.8115702 0.450426
		endloop
	endfacet
	facet normal -0.08151029452204937 0.7906689018354376 -0.6067938361233347
		outer loop
			vertex -0.008997 7.1305461 0.854604
			vertex -0.03472 6.8150129 0.446911
			vertex -0.094282 6.8115702 0.450426
		endloop
	endfacet
	facet normal 0.9497402244507409 0.22791356755420059 -0.2145901017870429
		outer loop
			vertex 0.33536 7.2712402 1.079528
			vertex 0.369633 6.8145251 0.746143
			vertex 0.296843 6.8218498 0.431766
		endloop
	endfacet
	facet normal -0.9980841731821435 -0.0433293645930241 0.04416502470600168
		outer loop
			vertex -0.084633 6.637073 0.497288
			vertex -0.094282 6.8115702 0.450426
			vertex -0.087761 6.4471979 0.240316
		endloop
	endfacet
	facet normal -0.880807330633837 0.2245892564167718 -0.416819040116759
		outer loop
			vertex -0.094282 6.8115702 0.450426
			vertex -0.055499 6.4474149 0.172258
			vertex -0.087761 6.4471979 0.240316
		endloop
	endfacet
	facet normal -0.08163834261931979 0.5995002879711211 -0.796200091520287
		outer loop
			vertex -0.094282 6.8115702 0.450426
			vertex -0.03472 6.8150129 0.446911
			vertex -0.055499 6.4474149 0.172258
		endloop
	endfacet
	facet normal -0.44258028463502486 0.5526497148910475 -0.7061876409873118
		outer loop
			vertex -0.03472 6.8150129 0.446911
			vertex -0.014334 6.4481111 0.147004
			vertex -0.055499 6.4474149 0.172258
		endloop
	endfacet
	facet normal 0.8253948660372582 0.3067840188525321 -0.4739270839443829
		outer loop
			vertex 0.296843 6.8218498 0.431766
			vertex 0.365258 6.679193 0.458573
			vertex 0.274017 6.4459772 0.148701
		endloop
	endfacet
	facet normal 0.39630101693224384 0.6737153135283046 -0.6237412767293243
		outer loop
			vertex 0.365258 6.679193 0.458573
			vertex 0.349319 6.4485612 0.199336
			vertex 0.274017 6.4459772 0.148701
		endloop
	endfacet
	facet normal -0.6471029245127363 -0.4366248325638977 -0.6249932485040236
		outer loop
			vertex -0.017967 6.2083621 0.500124
			vertex 0.031927 6.2205062 0.439981
			vertex 0.010506 6.1247969 0.529023
		endloop
	endfacet
	facet normal -0.4821727835650776 -0.536455641052477 -0.6926216513884624
		outer loop
			vertex 0.031927 6.2205062 0.439981
			vertex 0.058802 6.1337371 0.488477
			vertex 0.010506 6.1247969 0.529023
		endloop
	endfacet
	facet normal -0.6158254930471345 -0.363652670908141 -0.6989389794929375
		outer loop
			vertex 0.177206 6.1325569 0.476623
			vertex 0.154676 6.205802 0.458365
			vertex 0.203504 6.2107902 0.412748
		endloop
	endfacet
	facet normal 0.3366674979864002 -0.6608403204813692 -0.6707794470805278
		outer loop
			vertex 0.203504 6.2107902 0.412748
			vertex 0.277238 6.2109551 0.449593
			vertex 0.177206 6.1325569 0.476623
		endloop
	endfacet
	facet normal 0.3118877193445313 -0.6400501141063005 -0.7021836668241286
		outer loop
			vertex 0.277238 6.2109551 0.449593
			vertex 0.25081 6.1325641 0.509309
			vertex 0.177206 6.1325569 0.476623
		endloop
	endfacet
	facet normal 0.1399099142735183 -0.9644220313757601 0.2243108585981276
		outer loop
			vertex 0.042893 5.8872561 0.710733
			vertex 0.127416 5.8817391 0.634293
			vertex 0.093464 5.888639 0.685136
		endloop
	endfacet
	facet normal -0.09036579688104185 -0.5171065221732299 -0.8511373963585205
		outer loop
			vertex 0.058802 6.1337371 0.488477
			vertex 0.177206 6.1325569 0.476623
			vertex 0.127416 5.8817391 0.634293
		endloop
	endfacet
	facet normal -0.09780326466368079 -0.5156636006194498 -0.8511906792354522
		outer loop
			vertex 0.177206 6.1325569 0.476623
			vertex 0.216198 5.8812122 0.624411
			vertex 0.127416 5.8817391 0.634293
		endloop
	endfacet
	facet normal 0.36672332337883107 -0.4286186526244238 -0.8257118472641706
		outer loop
			vertex 0.177206 6.1325569 0.476623
			vertex 0.25081 6.1325641 0.509309
			vertex 0.216198 5.8812122 0.624411
		endloop
	endfacet
	facet normal 0.8284790538567817 -0.3234394613650905 -0.45717542820282026
		outer loop
			vertex 0.25081 6.1325641 0.509309
			vertex 0.270758 5.889317 0.717549
			vertex 0.216198 5.8812122 0.624411
		endloop
	endfacet
	facet normal 0.7410952648959855 -0.40052466107185775 -0.5388485911849659
		outer loop
			vertex 0.270758 5.889317 0.717549
			vertex 0.25081 6.1325641 0.509309
			vertex 0.406766 6.016273 0.810239
		endloop
	endfacet
	facet normal 0.7567886484460695 -0.6531849009954366 -0.024908365959119435
		outer loop
			vertex 0.284654 5.90026 0.852786
			vertex 0.270758 5.889317 0.717549
			vertex 0.40593 6.0391879 0.894326
		endloop
	endfacet
	facet normal 0.5817337137131371 -0.7832757204886956 0.21923738737367945
		outer loop
			vertex 0.270758 5.889317 0.717549
			vertex 0.406766 6.016273 0.810239
			vertex 0.40593 6.0391879 0.894326
		endloop
	endfacet
	facet normal 0.5702225270377216 -0.7277018035900841 0.38117758946513874
		outer loop
			vertex 0.215495 5.911891 0.978449
			vertex 0.284654 5.90026 0.852786
			vertex 0.31955 6.0443249 1.075616
		endloop
	endfacet
	facet normal 0.6587684793666543 -0.6746357672037473 0.33300251080488463
		outer loop
			vertex 0.284654 5.90026 0.852786
			vertex 0.40593 6.0391879 0.894326
			vertex 0.31955 6.0443249 1.075616
		endloop
	endfacet
	facet normal 0.3287324004682324 -0.8110921441870554 -0.4838021729182692
		outer loop
			vertex 0.406766 6.016273 0.810239
			vertex 0.25081 6.1325641 0.509309
			vertex 0.349834 6.1215611 0.59504
		endloop
	endfacet
	facet normal 0.46708695420541735 -0.6300522772308766 -0.6203740042645993
		outer loop
			vertex 0.25081 6.1325641 0.509309
			vertex 0.277238 6.2109551 0.449593
			vertex 0.349834 6.1215611 0.59504
		endloop
	endfacet
	facet normal 0.8538424734489195 -0.5000014898685311 0.14474647029852056
		outer loop
			vertex 0.40593 6.0391879 0.894326
			vertex 0.406766 6.016273 0.810239
			vertex 0.423912 6.0767002 0.917832
		endloop
	endfacet
	facet normal 0.9728957524885002 0.09738829836330491 -0.20973643968498848
		outer loop
			vertex 0.406766 6.016273 0.810239
			vertex 0.349834 6.1215611 0.59504
			vertex 0.423912 6.0767002 0.917832
		endloop
	endfacet
	facet normal 0.2633039458430305 -0.9525912225358425 0.1524499749136079
		outer loop
			vertex 0.31955 6.0443249 1.075616
			vertex 0.40593 6.0391879 0.894326
			vertex 0.37609 6.0704889 1.14145
		endloop
	endfacet
	facet normal 0.8444572748048595 -0.5091031032256916 0.1664510177653502
		outer loop
			vertex 0.40593 6.0391879 0.894326
			vertex 0.423912 6.0767002 0.917832
			vertex 0.37609 6.0704889 1.14145
		endloop
	endfacet
	facet normal 0.963368296038888 -0.25258272927320774 0.09013041140495864
		outer loop
			vertex 0.810175 6.2895331 1.259286
			vertex 0.847823 6.2018671 0.611205
			vertex 0.891556 6.5654621 1.162704
		endloop
	endfacet
	facet normal 0.9971845732654548 -0.06602637556423899 -0.03554496548377909
		outer loop
			vertex 0.847823 6.2018671 0.611205
			vertex 0.871563 6.5079889 0.708576
			vertex 0.891556 6.5654621 1.162704
		endloop
	endfacet
	facet normal -0.9718898517443951 -0.2115509919671321 -0.10332615290418988
		outer loop
			vertex 0.042893 5.8872561 0.710733
			vertex 0.026272 5.8999281 0.841126
			vertex 0.010506 6.1247969 0.529023
		endloop
	endfacet
	facet normal -0.35514582777084897 -0.7668698296839098 -0.534585919509231
		outer loop
			vertex 0.026272 5.8999281 0.841126
			vertex -0.118068 6.0102859 0.778707
			vertex 0.010506 6.1247969 0.529023
		endloop
	endfacet
	facet normal -0.02193831609760212 -0.9957282252054471 0.08968841517170581
		outer loop
			vertex 0.026272 5.8999281 0.841126
			vertex 0.102695 5.9078989 0.948312
			vertex 0.067271 5.9099631 0.962564
		endloop
	endfacet
	facet normal -0.7041926534813916 -0.4342093990612215 -0.5617605402213025
		outer loop
			vertex 0.010506 6.1247969 0.529023
			vertex -0.118068 6.0102859 0.778707
			vertex -0.017967 6.2083621 0.500124
		endloop
	endfacet
	facet normal -0.7283990826874407 -0.40703825338950334 -0.5511393985351778
		outer loop
			vertex -0.118068 6.0102859 0.778707
			vertex -0.187637 6.1243882 0.786382
			vertex -0.017967 6.2083621 0.500124
		endloop
	endfacet
	facet normal -0.8539620576746001 -0.5203079159954209 -0.005336347502277963
		outer loop
			vertex -0.118068 6.0102859 0.778707
			vertex -0.119289 6.010385 0.964438
			vertex -0.187637 6.1243882 0.786382
		endloop
	endfacet
	facet normal -0.7758791055904878 -0.622759749448923 -0.1009054407572718
		outer loop
			vertex -0.119289 6.010385 0.964438
			vertex -0.178874 6.0759292 1.018077
			vertex -0.187637 6.1243882 0.786382
		endloop
	endfacet
	facet normal -0.5967776477860443 -0.7579824154293163 0.26328520088089946
		outer loop
			vertex -0.119289 6.010385 0.964438
			vertex -0.072675 6.0068712 1.05998
			vertex -0.178874 6.0759292 1.018077
		endloop
	endfacet
	facet normal -0.5150071445345249 -0.8515476968454807 -0.09815376241159951
		outer loop
			vertex -0.072675 6.0068712 1.05998
			vertex -0.120482 6.0271358 1.135012
			vertex -0.178874 6.0759292 1.018077
		endloop
	endfacet
	facet normal -0.4370475062285044 0.14387981120529 -0.887855887645611
		outer loop
			vertex -0.276524 6.3509078 0.395927
			vertex -0.616003 6.3785672 0.567518
			vertex -0.110917 6.4126291 0.324409
		endloop
	endfacet
	facet normal -0.43158455356915 0.2804412350866718 -0.8573724317842157
		outer loop
			vertex -0.616003 6.3785672 0.567518
			vertex -0.638997 6.5501671 0.635222
			vertex -0.110917 6.4126291 0.324409
		endloop
	endfacet
	facet normal -0.9876873076912537 -0.1499469608365494 0.04460595432770743
		outer loop
			vertex -0.616003 6.3785672 0.567518
			vertex -0.575497 6.2838082 1.1458811
			vertex -0.638997 6.5501671 0.635222
		endloop
	endfacet
	facet normal -0.9872491832397255 -0.153323296709255 0.042790383016520724
		outer loop
			vertex -0.575497 6.2838082 1.1458811
			vertex -0.62857 6.6146178 1.1067261
			vertex -0.638997 6.5501671 0.635222
		endloop
	endfacet
	facet normal -0.33898551612392974 0.05676558331516017 0.9390774666709252
		outer loop
			vertex -0.575497 6.2838082 1.1458811
			vertex -0.100965 6.2401562 1.319815
			vertex -0.62857 6.6146178 1.1067261
		endloop
	endfacet
	facet normal -0.4991767218668846 -0.22754452447101112 0.8360897617657403
		outer loop
			vertex -0.100965 6.2401562 1.319815
			vertex -0.143639 6.5939531 1.390624
			vertex -0.62857 6.6146178 1.1067261
		endloop
	endfacet
	facet normal -0.1561618014954034 -0.19195983452925833 0.9688988149859664
		outer loop
			vertex -0.143639 6.5939531 1.390624
			vertex 0.093696 6.5582061 1.4217941
			vertex -0.244914 7.2040482 1.4951741
		endloop
	endfacet
	facet normal -0.40536491036516764 -0.31023126085114405 0.8599045611202146
		outer loop
			vertex 0.093696 6.5582061 1.4217941
			vertex -0.037385 7.463275 1.686527
			vertex -0.244914 7.2040482 1.4951741
		endloop
	endfacet
	facet normal -0.3114404625937246 -0.2104972783162711 0.9266583696707484
		outer loop
			vertex -0.480578 6.8419828 1.333724
			vertex -0.143639 6.5939531 1.390624
			vertex -0.244914 7.2040482 1.4951741
		endloop
	endfacet
	facet normal -0.6209496769830214 0.6187501296491945 -0.4812169736343331
		outer loop
			vertex -0.083909 6.7753701 0.736222
			vertex -0.480578 6.8419828 1.333724
			vertex -0.244914 7.2040482 1.4951741
		endloop
	endfacet
	facet normal -0.4610084910660706 -0.7688975406791341 -0.4430211542382194
		outer loop
			vertex -0.110917 6.4126291 0.324409
			vertex -0.638997 6.5501671 0.635222
			vertex -0.087761 6.4471979 0.240316
		endloop
	endfacet
	facet normal -0.26395254416251807 0.7772770445038089 -0.5711124674856594
		outer loop
			vertex -0.638997 6.5501671 0.635222
			vertex -0.084633 6.637073 0.497288
			vertex -0.087761 6.4471979 0.240316
		endloop
	endfacet
	facet normal -0.8266346192557484 -0.40263740854837743 -0.39313906379975916
		outer loop
			vertex -0.087761 6.4471979 0.240316
			vertex -0.055499 6.4474149 0.172258
			vertex -0.110917 6.4126291 0.324409
		endloop
	endfacet
	facet normal -0.9305580686959571 -0.08015501528567247 -0.35726300439508707
		outer loop
			vertex -0.055499 6.4474149 0.172258
			vertex -0.059864 6.406322 0.192847
			vertex -0.110917 6.4126291 0.324409
		endloop
	endfacet
	facet normal -0.48557442913893967 -0.3498250698841287 -0.8011491086227066
		outer loop
			vertex -0.055499 6.4474149 0.172258
			vertex -0.014334 6.4481111 0.147004
			vertex -0.059864 6.406322 0.192847
		endloop
	endfacet
	facet normal -0.19040866259513844 -0.6239670339741845 -0.7578982001048622
		outer loop
			vertex -0.014334 6.4481111 0.147004
			vertex -0.01571 6.3981609 0.188473
			vertex -0.059864 6.406322 0.192847
		endloop
	endfacet
	facet normal 0.5017299005382209 -0.47669634413737405 -0.7218224867597084
		outer loop
			vertex 0.274017 6.4459772 0.148701
			vertex 0.349319 6.4485612 0.199336
			vertex 0.276042 6.4019809 0.179164
		endloop
	endfacet
	facet normal 0.5471545917118983 -0.614729232109683 -0.5680931472552944
		outer loop
			vertex 0.349319 6.4485612 0.199336
			vertex 0.387822 6.391346 0.298332
			vertex 0.276042 6.4019809 0.179164
		endloop
	endfacet
	facet normal 0.46020681047366674 0.8005852897154181 -0.38376149557366357
		outer loop
			vertex 0.365258 6.679193 0.458573
			vertex 0.369633 6.8145251 0.746143
			vertex 0.871563 6.5079889 0.708576
		endloop
	endfacet
	facet normal 0.7331763286346745 0.5266034920389575 -0.4302804124081822
		outer loop
			vertex 0.720376 6.8638072 1.404106
			vertex 0.369633 6.8145251 0.746143
			vertex 0.551581 7.1469302 1.462991
		endloop
	endfacet
	facet normal 0.2073767856124764 -0.28107013012491255 0.9370135808730854
		outer loop
			vertex 0.349341 6.5478582 1.391449
			vertex 0.720376 6.8638072 1.404106
			vertex 0.331232 7.4594922 1.668914
		endloop
	endfacet
	facet normal 0.8586475010775425 0.4688243103984425 0.2071913001858825
		outer loop
			vertex 0.720376 6.8638072 1.404106
			vertex 0.551581 7.1469302 1.462991
			vertex 0.331232 7.4594922 1.668914
		endloop
	endfacet
	facet normal 0.042673693151611194 -0.2901363420893431 0.9560333984290602
		outer loop
			vertex 0.232833 7.4604988 1.673617
			vertex 0.349341 6.5478582 1.391449
			vertex 0.282137 7.4599938 1.671263
		endloop
	endfacet
	facet normal 0.04277806783442814 -0.2901279978783505 0.9560312660993118
		outer loop
			vertex 0.349341 6.5478582 1.391449
			vertex 0.331232 7.4594922 1.668914
			vertex 0.282137 7.4599938 1.671263
		endloop
	endfacet
	facet normal -0.1265127905066284 -0.8180750803246264 0.5610237756014286
		outer loop
			vertex 0.0841 5.8360882 1.391188
			vertex 0.155066 5.8252692 1.391415
			vertex 0.076907 5.942337 1.5444961
		endloop
	endfacet
	facet normal 0.1513420939480686 -0.7463921093096318 0.6480697414319949
		outer loop
			vertex 0.155066 5.8252692 1.391415
			vertex 0.170182 5.94276 1.523201
			vertex 0.076907 5.942337 1.5444961
		endloop
	endfacet
	facet normal -0.5102134682532324 -0.7840086037266724 0.3535713875521629
		outer loop
			vertex 0.029237 5.8709912 1.389413
			vertex 0.0841 5.8360882 1.391188
			vertex 0.018098 5.9297032 1.503527
		endloop
	endfacet
	facet normal -0.20972676333561438 -0.8082101487557375 0.5502826911588227
		outer loop
			vertex 0.0841 5.8360882 1.391188
			vertex 0.076907 5.942337 1.5444961
			vertex 0.018098 5.9297032 1.503527
		endloop
	endfacet
	facet normal -0.7956072207124816 -0.5862626929199446 0.15266042460446527
		outer loop
			vertex -0.178874 6.0759292 1.018077
			vertex -0.120482 6.0271358 1.135012
			vertex -0.233896 6.16151 1.05998
		endloop
	endfacet
	facet normal -0.8024434884671695 -0.4772722739061215 0.3581837857540736
		outer loop
			vertex -0.120482 6.0271358 1.135012
			vertex -0.120269 6.0849242 1.212491
			vertex -0.233896 6.16151 1.05998
		endloop
	endfacet
	facet normal -0.7360926125502713 -0.6675864141818771 -0.11178571173767993
		outer loop
			vertex -0.187637 6.1243882 0.786382
			vertex -0.178874 6.0759292 1.018077
			vertex -0.252198 6.2123852 0.685987
		endloop
	endfacet
	facet normal -0.8475091875465198 -0.5298974152712098 -0.030608925383441742
		outer loop
			vertex -0.178874 6.0759292 1.018077
			vertex -0.233896 6.16151 1.05998
			vertex -0.252198 6.2123852 0.685987
		endloop
	endfacet
	facet normal -0.40113425298142397 -0.7593010259247516 -0.5123995151389733
		outer loop
			vertex 0.154676 6.205802 0.458365
			vertex 0.17004 6.3121271 0.288779
			vertex 0.203504 6.2107902 0.412748
		endloop
	endfacet
	facet normal 0.06205878436713411 -0.7644734031447273 -0.6416612214924576
		outer loop
			vertex 0.17004 6.3121271 0.288779
			vertex 0.199702 6.3158998 0.287153
			vertex 0.203504 6.2107902 0.412748
		endloop
	endfacet
	facet normal 0.1590988309871084 -0.9722297411224515 -0.1716301035818204
		outer loop
			vertex 0.423912 6.0767002 0.917832
			vertex 0.349834 6.1215611 0.59504
			vertex 0.616764 6.140626 0.734484
		endloop
	endfacet
	facet normal 0.7500438961311556 -0.6458628963650194 0.14246147891758199
		outer loop
			vertex 0.37609 6.0704889 1.14145
			vertex 0.423912 6.0767002 0.917832
			vertex 0.410858 6.1316352 1.235613
		endloop
	endfacet
	facet normal 0.45186649726476286 -0.8757469152345371 0.16995296145365227
		outer loop
			vertex 0.423912 6.0767002 0.917832
			vertex 0.616764 6.140626 0.734484
			vertex 0.410858 6.1316352 1.235613
		endloop
	endfacet
	facet normal 0.8672290291874044 -0.4169093542519135 0.27221388882995007
		outer loop
			vertex 0.155066 5.8252692 1.391415
			vertex 0.284393 5.9826422 1.220425
			vertex 0.170182 5.94276 1.523201
		endloop
	endfacet
	facet normal 0.8817609180800898 -0.37745094080619207 0.2828930374383188
		outer loop
			vertex 0.284393 5.9826422 1.220425
			vertex 0.29778 6.088552 1.320009
			vertex 0.170182 5.94276 1.523201
		endloop
	endfacet
	facet normal -0.37146017703110784 -0.9107187873560745 -0.18057859019468292
		outer loop
			vertex -0.233896 6.16151 1.05998
			vertex -0.120269 6.0849242 1.212491
			vertex -0.575497 6.2838082 1.1458811
		endloop
	endfacet
	facet normal -0.33741902446981603 -0.5065921028787387 0.7934184540497752
		outer loop
			vertex -0.120269 6.0849242 1.212491
			vertex -0.100965 6.2401562 1.319815
			vertex -0.575497 6.2838082 1.1458811
		endloop
	endfacet
	facet normal -0.3844070385364708 -0.9170649682982209 -0.10593900435535233
		outer loop
			vertex -0.252198 6.2123852 0.685987
			vertex -0.233896 6.16151 1.05998
			vertex -0.616003 6.3785672 0.567518
		endloop
	endfacet
	facet normal -0.3623001447803412 -0.923514513700828 -0.12593469766536647
		outer loop
			vertex -0.233896 6.16151 1.05998
			vertex -0.575497 6.2838082 1.1458811
			vertex -0.616003 6.3785672 0.567518
		endloop
	endfacet
	facet normal -0.8874272670474412 0.29002368470060247 -0.3582723935965412
		outer loop
			vertex -0.059864 6.406322 0.192847
			vertex -0.113151 6.3452182 0.275373
			vertex -0.110917 6.4126291 0.324409
		endloop
	endfacet
	facet normal -0.4946299139397655 0.5219099694925249 -0.6949469274557964
		outer loop
			vertex -0.113151 6.3452182 0.275373
			vertex -0.276524 6.3509078 0.395927
			vertex -0.110917 6.4126291 0.324409
		endloop
	endfacet
	facet normal 0.3578757352788861 -0.9246112369040868 0.13045696106107763
		outer loop
			vertex 0.410858 6.1316352 1.235613
			vertex 0.616764 6.140626 0.734484
			vertex 0.810175 6.2895331 1.259286
		endloop
	endfacet
	facet normal 0.32518239108814884 -0.9344234864088719 0.14528991903667351
		outer loop
			vertex 0.616764 6.140626 0.734484
			vertex 0.847823 6.2018671 0.611205
			vertex 0.810175 6.2895331 1.259286
		endloop
	endfacet
	facet normal 0.8727665801225583 -0.09713168624080769 0.47837634990579514
		outer loop
			vertex 0.170182 5.94276 1.523201
			vertex 0.29778 6.088552 1.320009
			vertex 0.28325 6.2174792 1.372696
		endloop
	endfacet
	facet normal 0.19467759044883942 0.46802195033797606 0.8620070126042313
		outer loop
			vertex 0.076907 5.942337 1.5444961
			vertex 0.170182 5.94276 1.523201
			vertex 0.093529 6.2287312 1.385246
		endloop
	endfacet
	facet normal 0.08552695349829421 0.45140558317238405 0.8882106392664414
		outer loop
			vertex 0.170182 5.94276 1.523201
			vertex 0.28325 6.2174792 1.372696
			vertex 0.093529 6.2287312 1.385246
		endloop
	endfacet
	facet normal -0.5890822288634476 0.2321089950821288 0.7740203757261414
		outer loop
			vertex 0.018098 5.9297032 1.503527
			vertex 0.076907 5.942337 1.5444961
			vertex -0.100965 6.2401562 1.319815
		endloop
	endfacet
	facet normal -0.2539766654330954 0.4812571224183495 0.8389799971018949
		outer loop
			vertex 0.076907 5.942337 1.5444961
			vertex 0.093529 6.2287312 1.385246
			vertex -0.100965 6.2401562 1.319815
		endloop
	endfacet
	facet normal -0.5781207721166622 -0.80170079488807 -0.1518295370574224
		outer loop
			vertex -0.120482 6.0271358 1.135012
			vertex -0.072675 6.0068712 1.05998
			vertex 0.029237 5.8709912 1.389413
		endloop
	endfacet
	facet normal -0.907584422314716 -0.335363950045279 0.2526292488642024
		outer loop
			vertex -0.120269 6.0849242 1.212491
			vertex -0.120482 6.0271358 1.135012
			vertex 0.018098 5.9297032 1.503527
		endloop
	endfacet
	facet normal -0.8403209671546987 -0.5110168304624972 0.18089353538547312
		outer loop
			vertex -0.120482 6.0271358 1.135012
			vertex 0.029237 5.8709912 1.389413
			vertex 0.018098 5.9297032 1.503527
		endloop
	endfacet
	facet normal -0.9209844583781508 -0.13749808031006275 0.3645297043273042
		outer loop
			vertex -0.100965 6.2401562 1.319815
			vertex -0.120269 6.0849242 1.212491
			vertex 0.018098 5.9297032 1.503527
		endloop
	endfacet
	facet normal 0.3215956454294364 -0.8967791181804751 -0.30391356342926495
		outer loop
			vertex 0.179978 5.9749842 1.132532
			vertex 0.31955 6.0443249 1.075616
			vertex 0.284393 5.9826422 1.220425
		endloop
	endfacet
	facet normal 0.5875248582949455 -0.7860528676177204 -0.19218592611183327
		outer loop
			vertex 0.31955 6.0443249 1.075616
			vertex 0.37609 6.0704889 1.14145
			vertex 0.284393 5.9826422 1.220425
		endloop
	endfacet
	facet normal 0.6178220331583486 -0.5786759989038309 0.5323814644000466
		outer loop
			vertex 0.29778 6.088552 1.320009
			vertex 0.284393 5.9826422 1.220425
			vertex 0.410858 6.1316352 1.235613
		endloop
	endfacet
	facet normal 0.746906096046532 -0.648807833320961 0.14553239883231803
		outer loop
			vertex 0.284393 5.9826422 1.220425
			vertex 0.37609 6.0704889 1.14145
			vertex 0.410858 6.1316352 1.235613
		endloop
	endfacet
	facet normal 0.24226416006184825 -0.3434992032286385 0.9073678273615491
		outer loop
			vertex 0.28325 6.2174792 1.372696
			vertex 0.29778 6.088552 1.320009
			vertex 0.810175 6.2895331 1.259286
		endloop
	endfacet
	facet normal 0.3668116963107179 -0.9301463164735053 0.016643599383053084
		outer loop
			vertex 0.29778 6.088552 1.320009
			vertex 0.410858 6.1316352 1.235613
			vertex 0.810175 6.2895331 1.259286
		endloop
	endfacet
	facet normal -0.024295472033157642 0.9994771050023401 -0.021336508965321948
		outer loop
			vertex 0.29984 7.448009 1.166746
			vertex 0.260578 7.4469762 1.1630729
			vertex 0.331232 7.4594922 1.668914
		endloop
	endfacet
	facet normal 0.0089697167439744 0.9996220527984981 -0.025986453017863752
		outer loop
			vertex 0.260578 7.4469762 1.1630729
			vertex 0.282137 7.4599938 1.671263
			vertex 0.331232 7.4594922 1.668914
		endloop
	endfacet
	facet normal -0.04340849803662219 0.7962030584584464 -0.6034702909005717
		outer loop
			vertex 0.247443 6.8203321 0.433317
			vertex 0.259997 7.1359439 0.848824
			vertex 0.296843 6.8218498 0.431766
		endloop
	endfacet
	facet normal 0.31018347734879936 0.7723708402375132 -0.5542828659904658
		outer loop
			vertex 0.259997 7.1359439 0.848824
			vertex 0.33536 7.2712402 1.079528
			vertex 0.296843 6.8218498 0.431766
		endloop
	endfacet
	facet normal 0.23929487572405278 0.5983502672909167 -0.7646665417586276
		outer loop
			vertex 0.238511 6.4616389 0.149845
			vertex 0.247443 6.8203321 0.433317
			vertex 0.274017 6.4459772 0.148701
		endloop
	endfacet
	facet normal -0.04353279944250527 0.6026926419056522 -0.7967850869371765
		outer loop
			vertex 0.247443 6.8203321 0.433317
			vertex 0.296843 6.8218498 0.431766
			vertex 0.274017 6.4459772 0.148701
		endloop
	endfacet
	facet normal 0.19858637822789219 0.9795101675014434 -0.0335154015882685
		outer loop
			vertex 0.260578 7.4469762 1.1630729
			vertex 0.232892 7.4563599 1.273272
			vertex 0.282137 7.4599938 1.671263
		endloop
	endfacet
	facet normal 0.009748061636310031 0.9998990676236871 -0.010335853115066239
		outer loop
			vertex 0.232892 7.4563599 1.273272
			vertex 0.232833 7.4604988 1.673617
			vertex 0.282137 7.4599938 1.671263
		endloop
	endfacet
	facet normal -0.9998798986286367 -0.010336583361122578 -0.011547439664537133
		outer loop
			vertex 0.215909 5.8880219 0.704617
			vertex 0.212771 5.906744 0.959574
			vertex 0.213806 6.288918 0.527855
		endloop
	endfacet
	facet normal -0.9854388889381445 0.12847816897294234 0.11137125421631726
		outer loop
			vertex 0.212771 5.906744 0.959574
			vertex 0.286655 6.5051961 0.922941
			vertex 0.213806 6.288918 0.527855
		endloop
	endfacet
	facet normal 0.0058863641871350824 0.5897730495481811 0.8075475841975477
		outer loop
			vertex 0.173997 6.365078 0.356516
			vertex 0.215909 5.8880219 0.704617
			vertex 0.211348 6.3655829 0.355875
		endloop
	endfacet
	facet normal -0.9998884736075938 0.0013141866500344028 0.014876601094509107
		outer loop
			vertex 0.215909 5.8880219 0.704617
			vertex 0.213806 6.288918 0.527855
			vertex 0.211348 6.3655829 0.355875
		endloop
	endfacet
	facet normal 0.8589168422679849 0.35480126568770154 -0.3692938124783557
		outer loop
			vertex 0.29984 7.448009 1.166746
			vertex 0.551581 7.1469302 1.462991
			vertex 0.33536 7.2712402 1.079528
		endloop
	endfacet
	facet normal 0.8621937541386143 0.33929091633753033 -0.3761696484502726
		outer loop
			vertex 0.33536 7.2712402 1.079528
			vertex 0.551581 7.1469302 1.462991
			vertex 0.369633 6.8145251 0.746143
		endloop
	endfacet
	facet normal 0.6612554250658943 0.5325538773095848 -0.5283253075364185
		outer loop
			vertex 0.259997 7.1359439 0.848824
			vertex 0.260578 7.4469762 1.1630729
			vertex 0.33536 7.2712402 1.079528
		endloop
	endfacet
	facet normal 0.07123400299043203 0.45282424210021666 -0.8887496399911077
		outer loop
			vertex 0.260578 7.4469762 1.1630729
			vertex 0.29984 7.448009 1.166746
			vertex 0.33536 7.2712402 1.079528
		endloop
	endfacet
	facet normal -0.60507080592929 0.02599111978219159 -0.7957473100831364
		outer loop
			vertex 0.212771 5.906744 0.959574
			vertex 0.200889 6.0361938 0.972837
			vertex 0.286655 6.5051961 0.922941
		endloop
	endfacet
	facet normal -0.9067894270147505 0.27531127602520206 -0.3192751733969235
		outer loop
			vertex 0.175219 5.9525399 1.3576159
			vertex 0.192762 6.026166 1.371279
			vertex 0.197226 5.9525008 1.295079
		endloop
	endfacet
	facet normal -0.9266640875456227 0.2031077461454099 0.3162924474421896
		outer loop
			vertex 0.200889 6.0361938 0.972837
			vertex 0.250288 6.0131941 1.132334
			vertex 0.286655 6.5051961 0.922941
		endloop
	endfacet
	facet normal -0.9953016473785203 0.03517791329997085 -0.09020612585331111
		outer loop
			vertex 0.286655 6.5051961 0.922941
			vertex 0.250288 6.0131941 1.132334
			vertex 0.261709 6.3626781 1.142608
		endloop
	endfacet
	facet normal -0.983459980758615 0.09798125371586296 -0.1523356168679301
		outer loop
			vertex 0.192762 6.026166 1.371279
			vertex 0.261709 6.3626781 1.142608
			vertex 0.197226 5.9525008 1.295079
		endloop
	endfacet
	facet normal -0.9542746266131795 0.03989458035075152 -0.29625725216594206
		outer loop
			vertex 0.250288 6.0131941 1.132334
			vertex 0.197226 5.9525008 1.295079
			vertex 0.261709 6.3626781 1.142608
		endloop
	endfacet
	facet normal -0.025094714355933873 0.7075991161997949 -0.7061683553265916
		outer loop
			vertex -0.055002 7.4479928 1.17557
			vertex -0.009157 7.4499021 1.175854
			vertex -0.056524 7.1315279 0.858518
		endloop
	endfacet
	facet normal -0.04337000304077494 0.7085161999305695 -0.7043605875346722
		outer loop
			vertex -0.009157 7.4499021 1.175854
			vertex -0.008997 7.1305461 0.854604
			vertex -0.056524 7.1315279 0.858518
		endloop
	endfacet
	facet normal -0.9025377316379347 0.30692842258853004 -0.3020274596409544
		outer loop
			vertex -0.244914 7.2040482 1.4951741
			vertex -0.055002 7.4479928 1.17557
			vertex -0.056524 7.1315279 0.858518
		endloop
	endfacet
	facet normal -0.02430263186661974 -0.45320802215942346 -0.8910734373409969
		outer loop
			vertex 0.216721 6.4011431 0.181208
			vertex 0.238511 6.4616389 0.149845
			vertex 0.276042 6.4019809 0.179164
		endloop
	endfacet
	facet normal -0.270736122698603 -0.5563928797537968 -0.7855755312033366
		outer loop
			vertex 0.238511 6.4616389 0.149845
			vertex 0.274017 6.4459772 0.148701
			vertex 0.276042 6.4019809 0.179164
		endloop
	endfacet
	facet normal 0.40332175801784104 -0.6070981992601167 -0.684662936023648
		outer loop
			vertex 0.195939 6.3789439 0.18865
			vertex 0.220984 6.4292822 0.158768
			vertex 0.216721 6.4011431 0.181208
		endloop
	endfacet
	facet normal 0.6870014521374095 -0.5138304572195049 -0.5138163738094432
		outer loop
			vertex 0.220984 6.4292822 0.158768
			vertex 0.238511 6.4616389 0.149845
			vertex 0.216721 6.4011431 0.181208
		endloop
	endfacet
	facet normal 0.566299283539689 -0.6842007019523816 -0.4595372900106185
		outer loop
			vertex 0.216721 6.4011431 0.181208
			vertex 0.199702 6.3158998 0.287153
			vertex 0.195939 6.3789439 0.18865
		endloop
	endfacet
	facet normal 0.07706137111853648 -0.8384191142389089 -0.5395506778423825
		outer loop
			vertex 0.199702 6.3158998 0.287153
			vertex 0.17004 6.3121271 0.288779
			vertex 0.195939 6.3789439 0.18865
		endloop
	endfacet
	facet normal 0.9982873670981204 -0.006224391725395797 -0.05816863106478968
		outer loop
			vertex -0.03472 6.8150129 0.446911
			vertex -0.008997 7.1305461 0.854604
			vertex -0.032239 6.284452 0.546263
		endloop
	endfacet
	facet normal 0.9990284317367327 -0.011988217438652674 -0.04240843340997141
		outer loop
			vertex -0.008997 7.1305461 0.854604
			vertex -0.012789 6.4847479 0.947832
			vertex -0.032239 6.284452 0.546263
		endloop
	endfacet
	facet normal -0.9977395723988661 -0.03546118238982465 0.0570810845450888
		outer loop
			vertex 0.259997 7.1359439 0.848824
			vertex 0.247443 6.8203321 0.433317
			vertex 0.286655 6.5051961 0.922941
		endloop
	endfacet
	facet normal -0.9871099961834506 0.08644255523265434 0.13469053448389623
		outer loop
			vertex 0.247443 6.8203321 0.433317
			vertex 0.213806 6.288918 0.527855
			vertex 0.286655 6.5051961 0.922941
		endloop
	endfacet
	facet normal 0.9971032780412673 0.07296237538342981 -0.02148359136101127
		outer loop
			vertex -0.014334 6.4481111 0.147004
			vertex -0.03472 6.8150129 0.446911
			vertex -0.003133 6.3564162 0.355455
		endloop
	endfacet
	facet normal 0.9858820278720052 0.03526181933727612 0.16368638066744676
		outer loop
			vertex -0.03472 6.8150129 0.446911
			vertex -0.032239 6.284452 0.546263
			vertex -0.003133 6.3564162 0.355455
		endloop
	endfacet
	facet normal -0.9976404410026063 0.05610948284441511 -0.03956357429577912
		outer loop
			vertex 0.247443 6.8203321 0.433317
			vertex 0.238511 6.4616389 0.149845
			vertex 0.213806 6.288918 0.527855
		endloop
	endfacet
	facet normal -0.1266643460834357 0.905327927526699 0.4053856029405434
		outer loop
			vertex 0.238511 6.4616389 0.149845
			vertex 0.211348 6.3655829 0.355875
			vertex 0.213806 6.288918 0.527855
		endloop
	endfacet
	facet normal -0.8589326230749952 0.49807643283047215 0.1189731737677897
		outer loop
			vertex 0.238511 6.4616389 0.149845
			vertex 0.220984 6.4292822 0.158768
			vertex 0.211348 6.3655829 0.355875
		endloop
	endfacet
	facet normal -0.007592348283034798 0.9516254268392007 0.3071667352443268
		outer loop
			vertex 0.220984 6.4292822 0.158768
			vertex 0.173997 6.365078 0.356516
			vertex 0.211348 6.3655829 0.355875
		endloop
	endfacet
	facet normal 0.999971629065585 -0.0050872322230669535 0.005555279671533897
		outer loop
			vertex -0.008997 7.1305461 0.854604
			vertex -0.009157 7.4499021 1.175854
			vertex -0.009697 7.3572531 1.188213
		endloop
	endfacet
	facet normal -0.43293666298965444 0.03752440786164839 -0.9006429729110283
		outer loop
			vertex 0.261709 6.3626781 1.142608
			vertex 0.204696 6.3423729 1.169168
			vertex 0.273356 7.3350682 1.177523
		endloop
	endfacet
	facet normal -0.15864271129141203 0.01928086921895482 -0.9871477793300613
		outer loop
			vertex 0.204696 6.3423729 1.169168
			vertex 0.213861 7.2348561 1.185127
			vertex 0.273356 7.3350682 1.177523
		endloop
	endfacet
	facet normal -0.9993604356161478 0.010745400574170992 0.03410654030540016
		outer loop
			vertex 0.273356 7.3350682 1.177523
			vertex 0.259997 7.1359439 0.848824
			vertex 0.261709 6.3626781 1.142608
		endloop
	endfacet
	facet normal -0.9868076203179277 -0.059403652643406496 -0.15060520088991056
		outer loop
			vertex 0.259997 7.1359439 0.848824
			vertex 0.286655 6.5051961 0.922941
			vertex 0.261709 6.3626781 1.142608
		endloop
	endfacet
	facet normal -0.09426349941079538 -0.42775617494158164 -0.8989655429871483
		outer loop
			vertex 0.058802 6.1337371 0.488477
			vertex 0.054344 6.2064991 0.454322
			vertex 0.177206 6.1325569 0.476623
		endloop
	endfacet
	facet normal 0.03757538138599894 -0.23080337467758744 -0.9722745975037782
		outer loop
			vertex 0.054344 6.2064991 0.454322
			vertex 0.154676 6.205802 0.458365
			vertex 0.177206 6.1325569 0.476623
		endloop
	endfacet
	facet normal 0.3123677004177668 -0.3879091736346452 -0.8671521739267009
		outer loop
			vertex 0.031927 6.2205062 0.439981
			vertex 0.054344 6.2064991 0.454322
			vertex 0.058802 6.1337371 0.488477
		endloop
	endfacet
	facet normal 0.07996175522075105 -0.8594889168982591 -0.504861287316699
		outer loop
			vertex 0.011127 6.305779 0.291516
			vertex 0.0454 6.3092918 0.290964
			vertex 0.031927 6.2205062 0.439981
		endloop
	endfacet
	facet normal -0.19241254806482563 -0.8352775374386309 -0.5150619834521454
		outer loop
			vertex 0.0454 6.3092918 0.290964
			vertex 0.054344 6.2064991 0.454322
			vertex 0.031927 6.2205062 0.439981
		endloop
	endfacet
	facet normal -0.2872511951136736 -0.8018270681540666 -0.5239848315373455
		outer loop
			vertex 0.016201 6.3823891 0.195114
			vertex 0.0454 6.3092918 0.290964
			vertex -0.01571 6.3981609 0.188473
		endloop
	endfacet
	facet normal 0.06441778787424637 -0.7346312142989158 -0.6754016046642835
		outer loop
			vertex 0.0454 6.3092918 0.290964
			vertex 0.011127 6.305779 0.291516
			vertex -0.01571 6.3981609 0.188473
		endloop
	endfacet
	facet normal 0.23897636269016378 -0.6241444196427602 -0.7438642628223118
		outer loop
			vertex -0.014334 6.4481111 0.147004
			vertex -0.00961 6.4241862 0.168596
			vertex -0.01571 6.3981609 0.188473
		endloop
	endfacet
	facet normal -0.1217899812106687 -0.5842691275681823 -0.8023694828739564
		outer loop
			vertex -0.01571 6.3981609 0.188473
			vertex -0.00961 6.4241862 0.168596
			vertex 0.016201 6.3823891 0.195114
		endloop
	endfacet
	facet normal 0.09559529918197987 0.44922046994291687 -0.888291904814275
		outer loop
			vertex 0.102695 5.9078989 0.948312
			vertex 0.072612 5.9898119 0.986499
			vertex 0.212771 5.906744 0.959574
		endloop
	endfacet
	facet normal -0.13707669777418113 0.08850161413134489 -0.986598927236125
		outer loop
			vertex 0.072612 5.9898119 0.986499
			vertex 0.200889 6.0361938 0.972837
			vertex 0.212771 5.906744 0.959574
		endloop
	endfacet
	facet normal -0.04881833789689328 0.3729165506229383 -0.9265797408515225
		outer loop
			vertex 0.213861 7.2348561 1.185127
			vertex 0.022931 7.2318659 1.193983
			vertex 0.232892 7.4563599 1.273272
		endloop
	endfacet
	facet normal -0.035124294587531954 0.3618702929965008 -0.9315665166676801
		outer loop
			vertex 0.022931 7.2318659 1.193983
			vertex 0.033961 7.459239 1.281891
			vertex 0.232892 7.4563599 1.273272
		endloop
	endfacet
	facet normal 0.00976217441203422 0.9998989299741969 -0.01033584961215939
		outer loop
			vertex 0.232833 7.4604988 1.673617
			vertex 0.232892 7.4563599 1.273272
			vertex 0.042788 7.4624481 1.6826971
		endloop
	endfacet
	facet normal 0.014110599134167082 0.9998658560757332 -0.008316300019608827
		outer loop
			vertex 0.232892 7.4563599 1.273272
			vertex 0.033961 7.459239 1.281891
			vertex 0.042788 7.4624481 1.6826971
		endloop
	endfacet
	facet normal 0.1026801033570067 -0.27041728415487015 0.9572519463573311
		outer loop
			vertex 0.093696 6.5582061 1.4217941
			vertex 0.349341 6.5478582 1.391449
			vertex 0.042788 7.4624481 1.6826971
		endloop
	endfacet
	facet normal 0.04270210665293476 -0.29013266735542165 0.9560332449348348
		outer loop
			vertex 0.349341 6.5478582 1.391449
			vertex 0.232833 7.4604988 1.673617
			vertex 0.042788 7.4624481 1.6826971
		endloop
	endfacet
	facet normal -0.006904478243346828 0.939982732284835 0.34115215254563996
		outer loop
			vertex 0.041792 6.3570271 0.354681
			vertex -0.00961 6.4241862 0.168596
			vertex -0.003133 6.3564162 0.355455
		endloop
	endfacet
	facet normal 0.9694413711042552 0.23947430973198963 0.05324925323315844
		outer loop
			vertex -0.00961 6.4241862 0.168596
			vertex -0.014334 6.4481111 0.147004
			vertex -0.003133 6.3564162 0.355455
		endloop
	endfacet
	facet normal -0.006663264460019503 0.9359789967449016 0.3519927819702326
		outer loop
			vertex -0.003133 6.3564162 0.355455
			vertex -0.032239 6.284452 0.546263
			vertex 0.041792 6.3570271 0.354681
		endloop
	endfacet
	facet normal 0.7869736322998404 0.4112889799293145 0.4599063785744873
		outer loop
			vertex -0.032239 6.284452 0.546263
			vertex 0.093464 5.888639 0.685136
			vertex 0.041792 6.3570271 0.354681
		endloop
	endfacet
	facet normal 0.9550129509510046 0.24431096815850809 -0.1681142895571542
		outer loop
			vertex -0.032239 6.284452 0.546263
			vertex -0.012789 6.4847479 0.947832
			vertex 0.093464 5.888639 0.685136
		endloop
	endfacet
	facet normal 0.9793877375215848 0.1960309166220658 -0.04869845295965823
		outer loop
			vertex -0.012789 6.4847479 0.947832
			vertex 0.102695 5.9078989 0.948312
			vertex 0.093464 5.888639 0.685136
		endloop
	endfacet
	facet normal 0.9252306650364235 0.1855046990718984 0.3309625705400869
		outer loop
			vertex 0.102695 5.9078989 0.948312
			vertex -0.012789 6.4847479 0.947832
			vertex 0.072612 5.9898119 0.986499
		endloop
	endfacet
	facet normal 0.9760782542895124 0.15664220773982213 -0.15077950874549428
		outer loop
			vertex -0.012789 6.4847479 0.947832
			vertex 0.044934 6.3495059 1.181004
			vertex 0.072612 5.9898119 0.986499
		endloop
	endfacet
	facet normal 0.9821294100618516 0.15106590576814427 0.11225379283574244
		outer loop
			vertex 0.087226 5.925735 1.370623
			vertex 0.094655 5.9346581 1.293617
			vertex 0.072618 6.0078549 1.387918
		endloop
	endfacet
	facet normal 0.9822744627666453 0.1487072864370067 0.11411845931767747
		outer loop
			vertex 0.072618 6.0078549 1.387918
			vertex 0.094655 5.9346581 1.293617
			vertex 0.044934 6.3495059 1.181004
		endloop
	endfacet
	facet normal 0.9727631132919783 0.1616799219192032 0.16610697838049487
		outer loop
			vertex 0.094655 5.9346581 1.293617
			vertex 0.108521 6.0104761 1.138617
			vertex 0.044934 6.3495059 1.181004
		endloop
	endfacet
	facet normal 0.945102109680381 0.2086968817900293 -0.25145101671858866
		outer loop
			vertex 0.044934 6.3495059 1.181004
			vertex 0.108521 6.0104761 1.138617
			vertex 0.072612 5.9898119 0.986499
		endloop
	endfacet
	facet normal 0.9266212701026729 -0.05501726130499406 -0.3719490862360163
		outer loop
			vertex -0.009157 7.4499021 1.175854
			vertex 0.033961 7.459239 1.281891
			vertex -0.009697 7.3572531 1.188213
		endloop
	endfacet
	facet normal 0.800407051791553 0.1819968726111055 -0.5711617019742584
		outer loop
			vertex 0.033961 7.459239 1.281891
			vertex 0.022931 7.2318659 1.193983
			vertex -0.009697 7.3572531 1.188213
		endloop
	endfacet
	facet normal 0.009931853651896192 0.9999168530097841 -0.008224679327930376
		outer loop
			vertex 0.042788 7.4624481 1.6826971
			vertex 0.033961 7.459239 1.281891
			vertex 0.006306 7.4628248 1.68444
		endloop
	endfacet
	facet normal -0.16421164904491445 0.9862210088899677 -0.020066288695325306
		outer loop
			vertex 0.033961 7.459239 1.281891
			vertex -0.009157 7.4499021 1.175854
			vertex 0.006306 7.4628248 1.68444
		endloop
	endfacet
	facet normal 0.04305273655450137 -0.2747280471612268 0.9605576307427616
		outer loop
			vertex 0.093696 6.5582061 1.4217941
			vertex 0.042788 7.4624481 1.6826971
			vertex -0.037385 7.463275 1.686527
		endloop
	endfacet
	facet normal 0.04220978348930852 -0.30865549935648207 0.9502368740976044
		outer loop
			vertex 0.042788 7.4624481 1.6826971
			vertex 0.006306 7.4628248 1.68444
			vertex -0.037385 7.463275 1.686527
		endloop
	endfacet
	facet normal -0.2095916051347616 0.22645845482467294 -0.9512034100524744
		outer loop
			vertex 0.175219 5.9525399 1.3576159
			vertex 0.087226 5.925735 1.370623
			vertex 0.192762 6.026166 1.371279
		endloop
	endfacet
	facet normal -0.1612906218022391 0.17583236096823734 -0.9711170455485696
		outer loop
			vertex 0.087226 5.925735 1.370623
			vertex 0.072618 6.0078549 1.387918
			vertex 0.192762 6.026166 1.371279
		endloop
	endfacet
	facet normal -0.3093503332897025 0.9229863909648623 0.22890717198726698
		outer loop
			vertex 0.200889 6.0361938 0.972837
			vertex 0.072612 5.9898119 0.986499
			vertex 0.250288 6.0131941 1.132334
		endloop
	endfacet
	facet normal -0.02471646786409562 0.9913580163894193 -0.12883469857441016
		outer loop
			vertex 0.072612 5.9898119 0.986499
			vertex 0.108521 6.0104761 1.138617
			vertex 0.250288 6.0131941 1.132334
		endloop
	endfacet
	facet normal -0.002514484634357277 0.9372289365468889 0.3487056034339157
		outer loop
			vertex 0.250288 6.0131941 1.132334
			vertex 0.108521 6.0104761 1.138617
			vertex 0.197226 5.9525008 1.295079
		endloop
	endfacet
	facet normal -0.1612098017347188 0.8921587503693579 0.4219764969332278
		outer loop
			vertex 0.108521 6.0104761 1.138617
			vertex 0.094655 5.9346581 1.293617
			vertex 0.197226 5.9525008 1.295079
		endloop
	endfacet
	facet normal -0.03849218955025854 0.01826061348741046 -0.9990920384722773
		outer loop
			vertex 0.204696 6.3423729 1.169168
			vertex 0.074158 6.3487601 1.174314
			vertex 0.213861 7.2348561 1.185127
		endloop
	endfacet
	facet normal -0.04663017877755831 0.019539132544556095 -0.9987211065790987
		outer loop
			vertex 0.074158 6.3487601 1.174314
			vertex 0.022931 7.2318659 1.193983
			vertex 0.213861 7.2348561 1.185127
		endloop
	endfacet
	facet normal 0.2498607153279319 0.02047033630502996 -0.9680653842935266
		outer loop
			vertex -0.009697 7.3572531 1.188213
			vertex 0.022931 7.2318659 1.193983
			vertex 0.044934 6.3495059 1.181004
		endloop
	endfacet
	facet normal -0.22292752341211342 0.008779632237135165 -0.9747954848906115
		outer loop
			vertex 0.022931 7.2318659 1.193983
			vertex 0.074158 6.3487601 1.174314
			vertex 0.044934 6.3495059 1.181004
		endloop
	endfacet
	facet normal 0.9999717705998387 -0.005071241155708749 0.005544413094692147
		outer loop
			vertex -0.008997 7.1305461 0.854604
			vertex -0.009697 7.3572531 1.188213
			vertex -0.012789 6.4847479 0.947832
		endloop
	endfacet
	facet normal 0.9761661882452455 0.054421857278155766 -0.2100900625378173
		outer loop
			vertex -0.009697 7.3572531 1.188213
			vertex 0.044934 6.3495059 1.181004
			vertex -0.012789 6.4847479 0.947832
		endloop
	endfacet
	facet normal 0.07447135533709986 -0.11933754089722948 -0.9900568511791925
		outer loop
			vertex 0.273356 7.3350682 1.177523
			vertex 0.213861 7.2348561 1.185127
			vertex 0.260578 7.4469762 1.1630729
		endloop
	endfacet
	facet normal -0.9497383079677307 0.18274290420733572 -0.2541695838224172
		outer loop
			vertex 0.213861 7.2348561 1.185127
			vertex 0.232892 7.4563599 1.273272
			vertex 0.260578 7.4469762 1.1630729
		endloop
	endfacet
	facet normal -0.9898660208272906 -0.10000826818593214 0.1008147167133694
		outer loop
			vertex 0.260578 7.4469762 1.1630729
			vertex 0.259997 7.1359439 0.848824
			vertex 0.273356 7.3350682 1.177523
		endloop
	endfacet
	facet normal -0.1702294603271752 0.983544270383972 -0.060519410370384226
		outer loop
			vertex 0.197226 5.9525008 1.295079
			vertex 0.094655 5.9346581 1.293617
			vertex 0.175219 5.9525399 1.3576159
		endloop
	endfacet
	facet normal -0.27900251810527 0.956615397946992 0.08393196829359277
		outer loop
			vertex 0.094655 5.9346581 1.293617
			vertex 0.087226 5.925735 1.370623
			vertex 0.175219 5.9525399 1.3576159
		endloop
	endfacet
	facet normal -0.20015959185354507 -0.5222864676178384 -0.8289469123727425
		outer loop
			vertex 0.192762 6.026166 1.371279
			vertex 0.204696 6.3423729 1.169168
			vertex 0.261709 6.3626781 1.142608
		endloop
	endfacet
	facet normal -0.03643830937456093 -0.5304898997432018 -0.8469077375253882
		outer loop
			vertex 0.072618 6.0078549 1.387918
			vertex 0.074158 6.3487601 1.174314
			vertex 0.192762 6.026166 1.371279
		endloop
	endfacet
	facet normal -0.05942448982091777 -0.5360144797940837 -0.8421147234555405
		outer loop
			vertex 0.074158 6.3487601 1.174314
			vertex 0.204696 6.3423729 1.169168
			vertex 0.192762 6.026166 1.371279
		endloop
	endfacet
	facet normal -0.20328175912207042 -0.5192148247966861 -0.8301159510090039
		outer loop
			vertex 0.044934 6.3495059 1.181004
			vertex 0.074158 6.3487601 1.174314
			vertex 0.072618 6.0078549 1.387918
		endloop
	endfacet
	facet normal -0.027712786534492363 0.6089516338778619 0.792723097342304
		outer loop
			vertex 0.154676 6.205802 0.458365
			vertex 0.054344 6.2064991 0.454322
			vertex 0.215909 5.8880219 0.704617
		endloop
	endfacet
	facet normal -0.12598924303698406 0.5726959733132481 0.810028414803925
		outer loop
			vertex 0.054344 6.2064991 0.454322
			vertex 0.093464 5.888639 0.685136
			vertex 0.215909 5.8880219 0.704617
		endloop
	endfacet
	facet normal 0.9967440403189544 0.08053661245472099 -0.0038951435101947087
		outer loop
			vertex 0.0454 6.3092918 0.290964
			vertex 0.041792 6.3570271 0.354681
			vertex 0.054344 6.2064991 0.454322
		endloop
	endfacet
	facet normal 0.8197319460652515 -0.2670413643264871 -0.5066837735103858
		outer loop
			vertex 0.054344 6.2064991 0.454322
			vertex 0.041792 6.3570271 0.354681
			vertex 0.093464 5.888639 0.685136
		endloop
	endfacet
	facet normal 0.9657971651786976 0.23078575777637078 -0.1182107006170678
		outer loop
			vertex 0.0454 6.3092918 0.290964
			vertex 0.016201 6.3823891 0.195114
			vertex 0.041792 6.3570271 0.354681
		endloop
	endfacet
	facet normal 0.8658627745196671 0.49668004675346755 -0.059921505806157856
		outer loop
			vertex 0.016201 6.3823891 0.195114
			vertex -0.00961 6.4241862 0.168596
			vertex 0.041792 6.3570271 0.354681
		endloop
	endfacet
	facet normal -0.9941619025873217 0.10516517213062027 -0.024132923873705678
		outer loop
			vertex 0.17004 6.3121271 0.288779
			vertex 0.154676 6.205802 0.458365
			vertex 0.173997 6.365078 0.356516
		endloop
	endfacet
	facet normal -0.33437454166749386 0.5361715334063648 0.7750572576586332
		outer loop
			vertex 0.173997 6.365078 0.356516
			vertex 0.154676 6.205802 0.458365
			vertex 0.215909 5.8880219 0.704617
		endloop
	endfacet
	facet normal -0.8641119267462278 0.4922330947687903 0.10496265273544203
		outer loop
			vertex 0.195939 6.3789439 0.18865
			vertex 0.17004 6.3121271 0.288779
			vertex 0.220984 6.4292822 0.158768
		endloop
	endfacet
	facet normal -0.955937481412116 0.2557722830794057 -0.14409743522980828
		outer loop
			vertex 0.17004 6.3121271 0.288779
			vertex 0.173997 6.365078 0.356516
			vertex 0.220984 6.4292822 0.158768
		endloop
	endfacet
	facet normal -0.9984322743222747 -0.04707883600074453 0.030275019281006017
		outer loop
			vertex -0.083909 6.7753701 0.736222
			vertex -0.094282 6.8115702 0.450426
			vertex -0.084633 6.637073 0.497288
		endloop
	endfacet
	facet normal -0.3546198165022529 0.9274162674377351 -0.11892793042749852
		outer loop
			vertex -0.638997 6.5501671 0.635222
			vertex -0.62857 6.6146178 1.1067261
			vertex -0.083909 6.7753701 0.736222
		endloop
	endfacet
	facet normal -0.5082026291571218 0.7512474923561078 -0.4211380924903956
		outer loop
			vertex -0.62857 6.6146178 1.1067261
			vertex -0.480578 6.8419828 1.333724
			vertex -0.083909 6.7753701 0.736222
		endloop
	endfacet
	facet normal -0.4640047221557844 -0.45612655343137165 0.7593735477826121
		outer loop
			vertex -0.62857 6.6146178 1.1067261
			vertex -0.143639 6.5939531 1.390624
			vertex -0.480578 6.8419828 1.333724
		endloop
	endfacet
	facet normal -0.2518403421565669 0.8379135349160701 -0.4842286134326627
		outer loop
			vertex -0.638997 6.5501671 0.635222
			vertex -0.083909 6.7753701 0.736222
			vertex -0.084633 6.637073 0.497288
		endloop
	endfacet
	facet normal 0.3587984181079987 -0.45402644725716257 0.8155511512800634
		outer loop
			vertex 0.349341 6.5478582 1.391449
			vertex 0.891556 6.5654621 1.162704
			vertex 0.720376 6.8638072 1.404106
		endloop
	endfacet
	facet normal 0.8226055839935649 0.5584744180414334 -0.10689423546612968
		outer loop
			vertex 0.891556 6.5654621 1.162704
			vertex 0.871563 6.5079889 0.708576
			vertex 0.720376 6.8638072 1.404106
		endloop
	endfacet
	facet normal 0.4772024579381676 0.8200866584795451 -0.3158095735116741
		outer loop
			vertex 0.871563 6.5079889 0.708576
			vertex 0.369633 6.8145251 0.746143
			vertex 0.720376 6.8638072 1.404106
		endloop
	endfacet
	facet normal 0.8977296566289841 0.3931933712172684 -0.19869684557034595
		outer loop
			vertex 0.296843 6.8218498 0.431766
			vertex 0.369633 6.8145251 0.746143
			vertex 0.365258 6.679193 0.458573
		endloop
	endfacet
	facet normal 0.6496088473823376 0.5477430270394178 -0.5272437024112158
		outer loop
			vertex 0.365258 6.679193 0.458573
			vertex 0.562753 6.4335241 0.446683
			vertex 0.349319 6.4485612 0.199336
		endloop
	endfacet
	facet normal 0.6104212461475944 -0.559427399771531 -0.5607378056065792
		outer loop
			vertex 0.562753 6.4335241 0.446683
			vertex 0.387822 6.391346 0.298332
			vertex 0.349319 6.4485612 0.199336
		endloop
	endfacet
	facet normal -0.027022115994730367 -0.9952732175846454 0.0932792989139328
		outer loop
			vertex 0.026272 5.8999281 0.841126
			vertex 0.042893 5.8872561 0.710733
			vertex 0.102695 5.9078989 0.948312
		endloop
	endfacet
	facet normal 0.06298062381388207 -0.9955112868374585 0.0706450196633986
		outer loop
			vertex 0.042893 5.8872561 0.710733
			vertex 0.093464 5.888639 0.685136
			vertex 0.102695 5.9078989 0.948312
		endloop
	endfacet
	facet normal 0.004631436263315498 -0.996769647540564 0.08017991980538981
		outer loop
			vertex 0.270758 5.889317 0.717549
			vertex 0.284654 5.90026 0.852786
			vertex 0.215909 5.8880219 0.704617
		endloop
	endfacet
	facet normal 0.019183853941112914 -0.997113891741544 0.07345656297431065
		outer loop
			vertex 0.284654 5.90026 0.852786
			vertex 0.212771 5.906744 0.959574
			vertex 0.215909 5.8880219 0.704617
		endloop
	endfacet
	facet normal 0.009807670638999847 -0.9899754124640735 0.14089887264710377
		outer loop
			vertex 0.127416 5.8817391 0.634293
			vertex 0.216198 5.8812122 0.624411
			vertex 0.093464 5.888639 0.685136
		endloop
	endfacet
	facet normal -0.018467695701698816 -0.9962508174455861 0.08451776709349954
		outer loop
			vertex 0.216198 5.8812122 0.624411
			vertex 0.215909 5.8880219 0.704617
			vertex 0.093464 5.888639 0.685136
		endloop
	endfacet
	facet normal -0.019141111562950834 -0.977596928277986 0.2096136056404287
		outer loop
			vertex 0.185267 5.9162621 1.001453
			vertex 0.123395 5.9164319 0.996595
			vertex 0.212771 5.906744 0.959574
		endloop
	endfacet
	facet normal -0.029348569821466643 -0.982083864065882 0.1861449580054769
		outer loop
			vertex 0.123395 5.9164319 0.996595
			vertex 0.102695 5.9078989 0.948312
			vertex 0.212771 5.906744 0.959574
		endloop
	endfacet
	facet normal 0.0035782661456847786 -0.9964076754557419 0.08461052123864644
		outer loop
			vertex 0.216198 5.8812122 0.624411
			vertex 0.270758 5.889317 0.717549
			vertex 0.215909 5.8880219 0.704617
		endloop
	endfacet
	facet normal -0.4590422997730239 -0.5784193542087835 -0.6743227844999656
		outer loop
			vertex 0.010506 6.1247969 0.529023
			vertex 0.058802 6.1337371 0.488477
			vertex 0.042893 5.8872561 0.710733
		endloop
	endfacet
	facet normal -0.5919868921980129 -0.5183090561589792 -0.6171768318475076
		outer loop
			vertex 0.058802 6.1337371 0.488477
			vertex 0.127416 5.8817391 0.634293
			vertex 0.042893 5.8872561 0.710733
		endloop
	endfacet
	facet normal 0.01078469308676943 -0.9854649051054998 0.16953645979680246
		outer loop
			vertex 0.102695 5.9078989 0.948312
			vertex 0.123395 5.9164319 0.996595
			vertex 0.067271 5.9099631 0.962564
		endloop
	endfacet
	facet normal -0.0386396808674745 -0.8864888570326006 0.46113390833844936
		outer loop
			vertex 0.123395 5.9164319 0.996595
			vertex 0.185267 5.9162621 1.001453
			vertex 0.117689 5.9451818 1.051386
		endloop
	endfacet
	facet normal 0.08330251004642648 -0.8092984379041238 0.5814608587221588
		outer loop
			vertex 0.185267 5.9162621 1.001453
			vertex 0.189045 5.951395 1.049811
			vertex 0.117689 5.9451818 1.051386
		endloop
	endfacet
	facet normal 0.3015250425700944 -0.7824210750943703 0.5448852264021042
		outer loop
			vertex 0.185267 5.9162621 1.001453
			vertex 0.215495 5.911891 0.978449
			vertex 0.189045 5.951395 1.049811
		endloop
	endfacet
	facet normal 0.40782747707877054 -0.7263552705865992 0.5532492836241482
		outer loop
			vertex 0.215495 5.911891 0.978449
			vertex 0.31955 6.0443249 1.075616
			vertex 0.189045 5.951395 1.049811
		endloop
	endfacet
	facet normal 0.054723145911917334 -0.9653040742031964 0.25533002492502294
		outer loop
			vertex 0.185267 5.9162621 1.001453
			vertex 0.212771 5.906744 0.959574
			vertex 0.215495 5.911891 0.978449
		endloop
	endfacet
	facet normal 0.24473751473808428 -0.9438207759446983 0.22204930032534234
		outer loop
			vertex 0.212771 5.906744 0.959574
			vertex 0.284654 5.90026 0.852786
			vertex 0.215495 5.911891 0.978449
		endloop
	endfacet
	facet normal -0.21636930665123108 -0.8297106881148477 0.5145527156349012
		outer loop
			vertex 0.067271 5.9099631 0.962564
			vertex 0.123395 5.9164319 0.996595
			vertex -0.072675 6.0068712 1.05998
		endloop
	endfacet
	facet normal -0.26125253867789794 -0.8656749437276801 0.42702927632239907
		outer loop
			vertex 0.123395 5.9164319 0.996595
			vertex 0.117689 5.9451818 1.051386
			vertex -0.072675 6.0068712 1.05998
		endloop
	endfacet
	facet normal -0.4634297005027154 -0.8645681324541604 0.19430609109518196
		outer loop
			vertex 0.067271 5.9099631 0.962564
			vertex -0.072675 6.0068712 1.05998
			vertex -0.119289 6.010385 0.964438
		endloop
	endfacet
	facet normal -0.6565328590200539 -0.7005843422616009 0.2795463904342785
		outer loop
			vertex 0.026272 5.8999281 0.841126
			vertex 0.067271 5.9099631 0.962564
			vertex -0.118068 6.0102859 0.778707
		endloop
	endfacet
	facet normal -0.4739962493560231 -0.8805228861236147 -0.00264624431273689
		outer loop
			vertex 0.067271 5.9099631 0.962564
			vertex -0.119289 6.010385 0.964438
			vertex -0.118068 6.0102859 0.778707
		endloop
	endfacet
	facet normal -0.7983471542655809 -0.09407356643456456 0.5948041571595903
		outer loop
			vertex 0.189573 6.1141419 0.378764
			vertex 0.349834 6.1215611 0.59504
			vertex 0.203504 6.2107902 0.412748
		endloop
	endfacet
	facet normal -0.3036145120986261 0.7366451634370049 0.6042947387061894
		outer loop
			vertex 0.349834 6.1215611 0.59504
			vertex 0.277238 6.2109551 0.449593
			vertex 0.203504 6.2107902 0.412748
		endloop
	endfacet
	facet normal 0.49102036898699675 0.49203520833659525 -0.7188882743493853
		outer loop
			vertex 0.562753 6.4335241 0.446683
			vertex 0.61194 6.1566038 0.290744
			vertex 0.387822 6.391346 0.298332
		endloop
	endfacet
	facet normal 0.5130241106587387 0.4478646694829794 -0.7322728314717896
		outer loop
			vertex 0.365258 6.679193 0.458573
			vertex 0.871563 6.5079889 0.708576
			vertex 0.562753 6.4335241 0.446683
		endloop
	endfacet
	facet normal 0.7897533478151049 0.12947576730740773 -0.5996045991276185
		outer loop
			vertex 0.847823 6.2018671 0.611205
			vertex 0.61194 6.1566038 0.290744
			vertex 0.871563 6.5079889 0.708576
		endloop
	endfacet
	facet normal 0.49102148798780726 0.4920350411394846 -0.7188876244762497
		outer loop
			vertex 0.61194 6.1566038 0.290744
			vertex 0.562753 6.4335241 0.446683
			vertex 0.871563 6.5079889 0.708576
		endloop
	endfacet
	facet normal -0.7785127152389348 -0.22666566142733505 -0.585269707178673
		outer loop
			vertex 0.25074 6.1373239 0.288423
			vertex 0.189573 6.1141419 0.378764
			vertex 0.199702 6.3158998 0.287153
		endloop
	endfacet
	facet normal -0.9880995640976492 0.10191678673792484 0.11520512146190448
		outer loop
			vertex 0.189573 6.1141419 0.378764
			vertex 0.203504 6.2107902 0.412748
			vertex 0.199702 6.3158998 0.287153
		endloop
	endfacet
	facet normal -0.09327062323596938 -0.385150527618815 -0.9181283471912424
		outer loop
			vertex 0.360409 6.1954389 0.252903
			vertex 0.25074 6.1373239 0.288423
			vertex 0.216721 6.4011431 0.181208
		endloop
	endfacet
	facet normal -0.8988901400822776 -0.25941924608678946 -0.3531262816934269
		outer loop
			vertex 0.25074 6.1373239 0.288423
			vertex 0.199702 6.3158998 0.287153
			vertex 0.216721 6.4011431 0.181208
		endloop
	endfacet
	facet normal 0.023555665501849416 -0.3275900425566086 -0.9445262805451866
		outer loop
			vertex 0.489321 6.2023211 0.253731
			vertex 0.360409 6.1954389 0.252903
			vertex 0.276042 6.4019809 0.179164
		endloop
	endfacet
	facet normal -0.027427329328907787 -0.3460228306549067 -0.9378251128389822
		outer loop
			vertex 0.360409 6.1954389 0.252903
			vertex 0.216721 6.4011431 0.181208
			vertex 0.276042 6.4019809 0.179164
		endloop
	endfacet
	facet normal 0.3999373712749419 0.4083605270690883 -0.8205435875013258
		outer loop
			vertex 0.61194 6.1566038 0.290744
			vertex 0.489321 6.2023211 0.253731
			vertex 0.387822 6.391346 0.298332
		endloop
	endfacet
	facet normal 0.6577475116694742 0.48847470560566214 -0.5733765541736744
		outer loop
			vertex 0.489321 6.2023211 0.253731
			vertex 0.276042 6.4019809 0.179164
			vertex 0.387822 6.391346 0.298332
		endloop
	endfacet
	facet normal -0.8933057609756717 -0.1914894077061123 0.4066160647884419
		outer loop
			vertex -0.298561 6.1637311 0.561218
			vertex -0.187637 6.1243882 0.786382
			vertex -0.252198 6.2123852 0.685987
		endloop
	endfacet
	facet normal -0.44881488174332823 -0.6801659126330474 0.5796029099459183
		outer loop
			vertex -0.424597 6.0560031 0.337203
			vertex -0.298561 6.1637311 0.561218
			vertex -0.616003 6.3785672 0.567518
		endloop
	endfacet
	facet normal -0.4887430614855771 -0.7359081802460615 0.46858229810422397
		outer loop
			vertex -0.298561 6.1637311 0.561218
			vertex -0.252198 6.2123852 0.685987
			vertex -0.616003 6.3785672 0.567518
		endloop
	endfacet
	facet normal -0.24015308291359716 -0.9693905318043267 -0.05107341397655046
		outer loop
			vertex -0.298561 6.1637311 0.561218
			vertex -0.030254 6.099227 0.523917
			vertex -0.187637 6.1243882 0.786382
		endloop
	endfacet
	facet normal 0.8581757159059987 0.015251591066934864 0.5131294472149825
		outer loop
			vertex -0.030254 6.099227 0.523917
			vertex -0.017967 6.2083621 0.500124
			vertex -0.187637 6.1243882 0.786382
		endloop
	endfacet
	facet normal 0.9128975041946362 -0.013838969682078405 0.40795420055852216
		outer loop
			vertex -0.030254 6.099227 0.523917
			vertex 0.010037 6.1551771 0.435654
			vertex -0.017967 6.2083621 0.500124
		endloop
	endfacet
	facet normal 0.763950166311293 -0.29402332739416115 0.574395705364354
		outer loop
			vertex 0.010037 6.1551771 0.435654
			vertex 0.031927 6.2205062 0.439981
			vertex -0.017967 6.2083621 0.500124
		endloop
	endfacet
	facet normal 0.5907521342202927 -0.24878215976647106 0.7675411082776608
		outer loop
			vertex 0.010037 6.1551771 0.435654
			vertex 0.068497 6.1134462 0.377133
			vertex 0.031927 6.2205062 0.439981
		endloop
	endfacet
	facet normal 0.9525008342265537 0.3019033720312108 0.03995641067343005
		outer loop
			vertex 0.068497 6.1134462 0.377133
			vertex 0.011127 6.305779 0.291516
			vertex 0.031927 6.2205062 0.439981
		endloop
	endfacet
	facet normal 0.8147924767357372 -0.014950838576892273 -0.5795599125894502
		outer loop
			vertex 0.068497 6.1134462 0.377133
			vertex 0.002772 6.14432 0.283935
			vertex 0.011127 6.305779 0.291516
		endloop
	endfacet
	facet normal 0.9586468627348854 -0.03635368220822262 -0.2822668991547986
		outer loop
			vertex 0.002772 6.14432 0.283935
			vertex -0.01571 6.3981609 0.188473
			vertex 0.011127 6.305779 0.291516
		endloop
	endfacet
	facet normal 0.1305988796490995 -0.3406420156252458 -0.9310783800653787
		outer loop
			vertex 0.002772 6.14432 0.283935
			vertex -0.083537 6.2022572 0.250632
			vertex -0.01571 6.3981609 0.188473
		endloop
	endfacet
	facet normal -0.14179574832380576 -0.2544413108027644 -0.95663660034219
		outer loop
			vertex -0.083537 6.2022572 0.250632
			vertex -0.059864 6.406322 0.192847
			vertex -0.01571 6.3981609 0.188473
		endloop
	endfacet
	facet normal 0.04178377997898476 -0.2767034557785345 -0.9600465162120452
		outer loop
			vertex -0.083537 6.2022572 0.250632
			vertex -0.212514 6.2022939 0.245008
			vertex -0.059864 6.406322 0.192847
		endloop
	endfacet
	facet normal -0.8084180474125844 0.5814576039841127 -0.09147303092540053
		outer loop
			vertex -0.212514 6.2022939 0.245008
			vertex -0.113151 6.3452182 0.275373
			vertex -0.059864 6.406322 0.192847
		endloop
	endfacet
	facet normal -0.39489733384549425 0.44526956378137295 -0.8036112936561224
		outer loop
			vertex -0.212514 6.2022939 0.245008
			vertex -0.334235 6.1500978 0.275901
			vertex -0.113151 6.3452182 0.275373
		endloop
	endfacet
	facet normal -0.4845567022390497 0.5471871719015291 -0.682488828642362
		outer loop
			vertex -0.334235 6.1500978 0.275901
			vertex -0.276524 6.3509078 0.395927
			vertex -0.113151 6.3452182 0.275373
		endloop
	endfacet
	facet normal -0.775793133050765 0.4727484096321035 -0.41791620679461017
		outer loop
			vertex -0.334235 6.1500978 0.275901
			vertex -0.424597 6.0560031 0.337203
			vertex -0.276524 6.3509078 0.395927
		endloop
	endfacet
	facet normal -0.3957808790016656 0.3664063283938943 -0.8420830709197134
		outer loop
			vertex -0.424597 6.0560031 0.337203
			vertex -0.616003 6.3785672 0.567518
			vertex -0.276524 6.3509078 0.395927
		endloop
	endfacet
	facet normal -0.938630723810507 0.17436253690655557 -0.29760724124670423
		outer loop
			vertex -0.244914 7.2040482 1.4951741
			vertex -0.056524 7.1315279 0.858518
			vertex -0.083909 6.7753701 0.736222
		endloop
	endfacet
endsolid exported
