solid exported
	facet normal -0.1903561323102427 0.481487767965082 0.8555314559920569
		outer loop
			vertex 4.090271 9.9119453 -1.430789
			vertex 4.5146151 9.3388948 -1.013863
			vertex 4.2064471 9.9481668 -1.425325
		endloop
	endfacet
	facet normal -0.1903440885969635 0.48149349325230284 0.8555309134636143
		outer loop
			vertex 4.5146151 9.3388948 -1.013863
			vertex 4.6307912 9.3751183 -1.008402
			vertex 4.2064471 9.9481668 -1.425325
		endloop
	endfacet
	facet normal -0.2591462801263999 0.7304367548837328 0.6319061264235148
		outer loop
			vertex 4.7522621 8.6871481 -0.335986
			vertex 4.9149132 8.2444525 0.242441
			vertex 4.868392 8.7234888 -0.330368
		endloop
	endfacet
	facet normal -0.2575660275861495 0.7308254074244558 0.6321028122832305
		outer loop
			vertex 4.9149132 8.2444525 0.242441
			vertex 5.0310912 8.280674 0.247902
			vertex 4.868392 8.7234888 -0.330368
		endloop
	endfacet
	facet normal -0.1903389790842528 0.4814967644695057 0.8555302091957724
		outer loop
			vertex 4.6307912 9.3751183 -1.008402
			vertex 4.863143 9.4475622 -0.99748
			vertex 4.2064471 9.9481668 -1.425325
		endloop
	endfacet
	facet normal -0.19033623215882695 0.48149955023784025 0.8555292524796207
		outer loop
			vertex 4.863143 9.4475622 -0.99748
			vertex 4.4388032 10.0206089 -1.414402
			vertex 4.2064471 9.9481668 -1.425325
		endloop
	endfacet
	facet normal -0.25750205552517547 0.7305046875194886 0.6324994805629202
		outer loop
			vertex 5.2634439 8.3531179 0.258828
			vertex 5.1006551 8.7961597 -0.319137
			vertex 5.0310912 8.280674 0.247902
		endloop
	endfacet
	facet normal -0.2590597227882625 0.7302890249129506 0.6321123318845794
		outer loop
			vertex 5.1006551 8.7961597 -0.319137
			vertex 4.868392 8.7234888 -0.330368
			vertex 5.0310912 8.280674 0.247902
		endloop
	endfacet
	facet normal 0.46019567977706505 0.7193500982755513 0.5203415920580245
		outer loop
			vertex 4.4388032 10.0206089 -1.414402
			vertex 4.863143 9.4475622 -0.99748
			vertex 4.5689678 9.9785881 -1.471429
		endloop
	endfacet
	facet normal 0.47585634070795924 0.7175517105931423 0.5086062186337149
		outer loop
			vertex 4.863143 9.4475622 -0.99748
			vertex 4.9941621 9.4032698 -1.057574
			vertex 4.5689678 9.9785881 -1.471429
		endloop
	endfacet
	facet normal 0.425666567732203 0.7720644133630827 0.4719369817395165
		outer loop
			vertex 5.1006551 8.7961597 -0.319137
			vertex 5.2634439 8.3531179 0.258828
			vertex 5.2294412 8.7573214 -0.371759
		endloop
	endfacet
	facet normal 0.4999197225375673 0.7411344576884943 0.4481071151463044
		outer loop
			vertex 5.2634439 8.3531179 0.258828
			vertex 5.3963232 8.3038692 0.192038
			vertex 5.2294412 8.7573214 -0.371759
		endloop
	endfacet
	facet normal 0.21604774245164768 -0.44431837111696554 -0.8694277187147378
		outer loop
			vertex 4.7060809 9.6860819 -1.8267111
			vertex 5.1339941 9.1035128 -1.422657
			vertex 4.3633599 9.4054222 -1.768445
		endloop
	endfacet
	facet normal 0.23893507190215296 -0.40232257666677607 -0.8837683948407067
		outer loop
			vertex 5.1339941 9.1035128 -1.422657
			vertex 4.7610788 8.829854 -1.398899
			vertex 4.3633599 9.4054222 -1.768445
		endloop
	endfacet
	facet normal 0.3033927600130617 -0.5870475816664259 -0.7505517770488974
		outer loop
			vertex 5.3674712 8.4785624 -0.719313
			vertex 5.5620599 7.9683409 -0.241583
			vertex 4.9266491 8.2077913 -0.68572
		endloop
	endfacet
	facet normal 0.29949504750656203 -0.5924344842719405 -0.7478797352278522
		outer loop
			vertex 5.5620599 7.9683409 -0.241583
			vertex 5.1169128 7.694685 -0.203069
			vertex 4.9266491 8.2077913 -0.68572
		endloop
	endfacet
	facet normal -0.020460398311120016 0.5301168725648009 0.8476776943644708
		outer loop
			vertex 4.3633599 9.4054222 -1.768445
			vertex 4.7610788 8.829854 -1.398899
			vertex 4.6969461 9.6524734 -1.914893
		endloop
	endfacet
	facet normal -0.06256720086428372 0.5268271427514287 0.8476665069686157
		outer loop
			vertex 4.7610788 8.829854 -1.398899
			vertex 5.1229129 9.0598373 -1.5151269
			vertex 4.6969461 9.6524734 -1.914893
		endloop
	endfacet
	facet normal -0.1408009484443218 0.6501328689231675 0.746660796923818
		outer loop
			vertex 4.9266491 8.2077913 -0.68572
			vertex 5.1169128 7.694685 -0.203069
			vertex 5.3541389 8.4405727 -0.807794
		endloop
	endfacet
	facet normal -0.08488734551453422 0.6436494449765832 0.760598139987755
		outer loop
			vertex 5.1169128 7.694685 -0.203069
			vertex 5.552495 7.9209061 -0.345893
			vertex 5.3541389 8.4405727 -0.807794
		endloop
	endfacet
	facet normal 0.49887782890064525 -0.16389765287245112 -0.8510337662010128
		outer loop
			vertex 4.8014469 9.3619089 -2.3054941
			vertex 5.2381759 8.7561884 -1.932829
			vertex 4.6621981 9.2420197 -2.364033
		endloop
	endfacet
	facet normal 0.5218593111161596 -0.1296317524034803 -0.8431242305675779
		outer loop
			vertex 5.2381759 8.7561884 -1.932829
			vertex 5.1008372 8.6308823 -1.99857
			vertex 4.6621981 9.2420197 -2.364033
		endloop
	endfacet
	facet normal 0.6029072170500294 -0.2935482575625612 -0.7418438569611351
		outer loop
			vertex 5.4516931 8.1630869 -1.1745811
			vertex 5.6656852 7.5898619 -0.773841
			vertex 5.3134499 8.0393562 -1.237973
		endloop
	endfacet
	facet normal 0.6611168692112369 -0.22196799261789543 -0.7166970737330483
		outer loop
			vertex 5.6656852 7.5898619 -0.773841
			vertex 5.53233 7.45331 -0.854563
			vertex 5.3134499 8.0393562 -1.237973
		endloop
	endfacet
	facet normal 0.17069051363073606 -0.4125757385387747 -0.8947882478696624
		outer loop
			vertex 5.1008372 8.6308823 -1.99857
			vertex 4.8684831 8.5584402 -2.0094919
			vertex 4.6621981 9.2420197 -2.364033
		endloop
	endfacet
	facet normal 0.17070366541528936 -0.4125714855130946 -0.8947876999351878
		outer loop
			vertex 4.8684831 8.5584402 -2.0094919
			vertex 4.4298429 9.1695757 -2.374958
			vertex 4.6621981 9.2420197 -2.364033
		endloop
	endfacet
	facet normal 0.1916655990775682 -0.48619505774678146 -0.852571794016692
		outer loop
			vertex 5.53233 7.45331 -0.854563
			vertex 5.2999792 7.3808661 -0.865485
			vertex 5.3134499 8.0393562 -1.237973
		endloop
	endfacet
	facet normal 0.19331075701022493 -0.486061615550827 -0.8522763971343181
		outer loop
			vertex 5.2999792 7.3808661 -0.865485
			vertex 5.0811868 7.9666848 -1.249209
			vertex 5.3134499 8.0393562 -1.237973
		endloop
	endfacet
	facet normal 0.17070028770208068 -0.41257368792161525 -0.8947873288179624
		outer loop
			vertex 4.4298429 9.1695757 -2.374958
			vertex 4.8684831 8.5584402 -2.0094919
			vertex 4.3136692 9.1333532 -2.380419
		endloop
	endfacet
	facet normal 0.17070552791178414 -0.41256929326304576 -0.8947883554208728
		outer loop
			vertex 4.8684831 8.5584402 -2.0094919
			vertex 4.7523031 8.5222178 -2.014955
			vertex 4.3136692 9.1333532 -2.380419
		endloop
	endfacet
	facet normal 0.19331165565252087 -0.4860612740032691 -0.8522763880943788
		outer loop
			vertex 5.0811868 7.9666848 -1.249209
			vertex 5.2999792 7.3808661 -0.865485
			vertex 4.9650521 7.9303441 -1.254825
		endloop
	endfacet
	facet normal 0.19183662219122466 -0.48686959538158303 -0.8521482896064718
		outer loop
			vertex 5.2999792 7.3808661 -0.865485
			vertex 5.1838012 7.344646 -0.870945
			vertex 4.9650521 7.9303441 -1.254825
		endloop
	endfacet
	facet normal -0.5189360974530656 0.1325436776309527 0.8444746889518033
		outer loop
			vertex 4.3136692 9.1333532 -2.380419
			vertex 4.7523031 8.5222178 -2.014955
			vertex 4.4598131 9.2630634 -2.310971
		endloop
	endfacet
	facet normal -0.6178986084629957 0.06899923727491693 0.7832243707361086
		outer loop
			vertex 4.7523031 8.5222178 -2.014955
			vertex 4.883153 8.6662378 -1.924413
			vertex 4.4598131 9.2630634 -2.310971
		endloop
	endfacet
	facet normal -0.6334772448711175 0.24455142479413386 0.734098890383072
		outer loop
			vertex 4.9650521 7.9303441 -1.254825
			vertex 5.1838012 7.344646 -0.870945
			vertex 5.1007371 8.0616283 -1.181473
		endloop
	endfacet
	facet normal -0.6701798866538073 0.22823177016160195 0.7062359227719812
		outer loop
			vertex 5.1838012 7.344646 -0.870945
			vertex 5.316854 7.4820518 -0.78909
			vertex 5.1007371 8.0616283 -1.181473
		endloop
	endfacet
	facet normal -0.15762368641888802 -0.6048634288562771 -0.7805735108956412
		outer loop
			vertex 4.3552151 9.5355282 -1.948037
			vertex 4.7902799 8.9339161 -1.5697041
			vertex 4.159029 9.4138622 -1.814142
		endloop
	endfacet
	facet normal -0.12867375583360824 -0.5792074203446144 -0.8049607622595093
		outer loop
			vertex 4.7902799 8.9339161 -1.5697041
			vertex 4.5567832 8.9336042 -1.532155
			vertex 4.159029 9.4138622 -1.814142
		endloop
	endfacet
	facet normal 0.027846905313680604 -0.6476495274568732 -0.7614293397613068
		outer loop
			vertex 5.0168881 8.3079033 -0.856293
			vertex 5.213975 7.7771301 -0.397625
			vertex 4.6994019 8.2537584 -0.82185
		endloop
	endfacet
	facet normal 0.046889391402008124 -0.6353966868398573 -0.7707609456419557
		outer loop
			vertex 5.213975 7.7771301 -0.397625
			vertex 4.8267951 7.6918569 -0.350882
			vertex 4.6994019 8.2537584 -0.82185
		endloop
	endfacet
	facet normal -0.36113460362268646 0.23132327213781584 0.9033666707565312
		outer loop
			vertex 4.159029 9.4138622 -1.814142
			vertex 4.5567832 8.9336042 -1.532155
			vertex 4.3424211 9.6213102 -1.793949
		endloop
	endfacet
	facet normal -0.5905696149845009 0.11971804116018421 0.7980570909890012
		outer loop
			vertex 4.5567832 8.9336042 -1.532155
			vertex 4.770339 9.0387383 -1.3898931
			vertex 4.3424211 9.6213102 -1.793949
		endloop
	endfacet
	facet normal -0.5882815998134711 0.43694980185228555 0.6804407615525041
		outer loop
			vertex 4.6994019 8.2537584 -0.82185
			vertex 4.8267951 7.6918569 -0.350882
			vertex 4.9956889 8.4172134 -0.670656
		endloop
	endfacet
	facet normal -0.6310699055350397 0.4312136474729954 0.6448298725718524
		outer loop
			vertex 4.8267951 7.6918569 -0.350882
			vertex 5.1784339 7.9235101 -0.161659
			vertex 4.9956889 8.4172134 -0.670656
		endloop
	endfacet
	facet normal -0.8376140343187845 -0.533343185578714 0.11810070240671723
		outer loop
			vertex 4.3424211 9.6213102 -1.793949
			vertex 4.770339 9.0387383 -1.3898931
			vertex 4.2326341 9.8604841 -1.492489
		endloop
	endfacet
	facet normal -0.8313690770476883 -0.5192961449072444 0.19788120581133864
		outer loop
			vertex 4.770339 9.0387383 -1.3898931
			vertex 4.7074709 9.2580738 -1.078426
			vertex 4.2326341 9.8604841 -1.492489
		endloop
	endfacet
	facet normal -0.9464808603264427 -0.32154950121502945 0.027926677283248214
		outer loop
			vertex 4.9956889 8.4172134 -0.670656
			vertex 5.1784339 7.9235101 -0.161659
			vertex 4.9371762 8.6143541 -0.383857
		endloop
	endfacet
	facet normal -0.9451480734135549 -0.3264484669275595 0.011248011526128057
		outer loop
			vertex 5.1784339 7.9235101 -0.161659
			vertex 5.1012702 8.1587391 0.181426
			vertex 4.9371762 8.6143541 -0.383857
		endloop
	endfacet
	facet normal 0.1348214451832151 -0.5592163705171027 0.8179854698369574
		outer loop
			vertex 5.4085722 6.848259 -0.093119
			vertex 5.292491 6.8117862 -0.098921
			vertex 5.2693772 6.7272611 -0.152897
		endloop
	endfacet
	facet normal 0.13530667885921083 -0.5592731164506763 0.8178665440471562
		outer loop
			vertex 5.292491 6.8117862 -0.098921
			vertex 5.1532559 6.6909051 -0.158547
			vertex 5.2693772 6.7272611 -0.152897
		endloop
	endfacet
	facet normal 0.4955353657583872 -0.8470527136109456 0.19221446784005383
		outer loop
			vertex 4.8787651 6.9266 0.423938
			vertex 5.2023258 7.076602 0.250818
			vertex 4.998765 6.993906 0.411179
		endloop
	endfacet
	facet normal 0.3018262372665039 -0.9475095716280776 -0.10548238796463262
		outer loop
			vertex 5.2023258 7.076602 0.250818
			vertex 5.3184471 7.1129632 0.256467
			vertex 4.998765 6.993906 0.411179
		endloop
	endfacet
	facet normal 0.014967605323244771 -0.2000410676729261 0.9796731812370714
		outer loop
			vertex 5.169549 7.2174182 0.478878
			vertex 4.8787651 6.9266 0.423938
			vertex 5.2856731 7.253777 0.484528
		endloop
	endfacet
	facet normal 0.4323078552321329 -0.6528490366004216 0.622011297095555
		outer loop
			vertex 4.8787651 6.9266 0.423938
			vertex 4.998765 6.993906 0.411179
			vertex 5.2856731 7.253777 0.484528
		endloop
	endfacet
	facet normal 0.22848798777601068 -0.7053547800158629 0.671020024850856
		outer loop
			vertex 5.17132 7.484601 0.766101
			vertex 5.064043 7.4520841 0.768449
			vertex 5.2856731 7.253777 0.484528
		endloop
	endfacet
	facet normal 0.195216600353983 -0.7259647581807142 0.6594434386858743
		outer loop
			vertex 5.064043 7.4520841 0.768449
			vertex 5.169549 7.2174182 0.478878
			vertex 5.2856731 7.253777 0.484528
		endloop
	endfacet
	facet normal 0.13517664602084498 -0.5601860549164002 0.8172630288026954
		outer loop
			vertex 5.6407399 6.9212031 -0.081521
			vertex 5.4085722 6.848259 -0.093119
			vertex 5.5016222 6.799983 -0.1416
		endloop
	endfacet
	facet normal 0.1355130531083524 -0.5597687851103934 0.8174931924201493
		outer loop
			vertex 5.4085722 6.848259 -0.093119
			vertex 5.2693772 6.7272611 -0.152897
			vertex 5.5016222 6.799983 -0.1416
		endloop
	endfacet
	facet normal 0.4546492608611178 -0.8414843278945309 0.29188726506363544
		outer loop
			vertex 4.998765 6.993906 0.411179
			vertex 5.3184471 7.1129632 0.256467
			vertex 5.1168242 7.0533152 0.398559
		endloop
	endfacet
	facet normal 0.41650716016681155 -0.8819138469354789 0.220793460304518
		outer loop
			vertex 5.3184471 7.1129632 0.256467
			vertex 5.5364838 7.2304788 0.314552
			vertex 5.1168242 7.0533152 0.398559
		endloop
	endfacet
	facet normal 0.22237112264417688 -0.4843341702210883 0.8461509885181357
		outer loop
			vertex 5.2856731 7.253777 0.484528
			vertex 4.998765 6.993906 0.411179
			vertex 5.54006 7.286191 0.436228
		endloop
	endfacet
	facet normal 0.45733483086576504 -0.8647425177432462 0.20752163859234948
		outer loop
			vertex 4.998765 6.993906 0.411179
			vertex 5.1168242 7.0533152 0.398559
			vertex 5.54006 7.286191 0.436228
		endloop
	endfacet
	facet normal 0.1941214912617784 -0.7295506018090315 0.6557993336611307
		outer loop
			vertex 5.4010682 7.5640521 0.78648
			vertex 5.17132 7.484601 0.766101
			vertex 5.54006 7.286191 0.436228
		endloop
	endfacet
	facet normal 0.21765480696268574 -0.7096236407470579 0.6701198948687666
		outer loop
			vertex 5.17132 7.484601 0.766101
			vertex 5.2856731 7.253777 0.484528
			vertex 5.54006 7.286191 0.436228
		endloop
	endfacet
	facet normal -0.12989062677683663 0.5436483391395756 -0.8292013678391404
		outer loop
			vertex 4.2004132 9.312664 -2.4093921
			vertex 4.353147 9.4310942 -2.3556709
			vertex 4.3165321 9.349021 -2.4037449
		endloop
	endfacet
	facet normal -0.1724982200780292 0.5540114018464505 -0.814441975032011
		outer loop
			vertex 4.353147 9.4310942 -2.3556709
			vertex 4.4599581 9.4579163 -2.3600481
			vertex 4.3165321 9.349021 -2.4037449
		endloop
	endfacet
	facet normal -0.28263851274891905 0.8273447083948859 0.4854031361683403
		outer loop
			vertex 4.2629409 9.6620092 -2.0490301
			vertex 4.0763502 9.5101681 -1.898872
			vertex 4.379066 9.6983662 -2.0433819
		endloop
	endfacet
	facet normal -0.1842075635298808 0.7676392889630131 0.6138383301641767
		outer loop
			vertex 4.0763502 9.5101681 -1.898872
			vertex 4.1493592 9.5281372 -1.899434
			vertex 4.379066 9.6983662 -2.0433819
		endloop
	endfacet
	facet normal 0.02178554156866778 -0.11955941366650266 -0.9925879995155502
		outer loop
			vertex 4.0763502 9.5101681 -1.898872
			vertex 4.2577291 9.7285032 -1.92119
			vertex 4.1493592 9.5281372 -1.899434
		endloop
	endfacet
	facet normal 0.09770413425332314 -0.1595090262602002 -0.9823496183596406
		outer loop
			vertex 4.2577291 9.7285032 -1.92119
			vertex 4.373848 9.7648582 -1.915544
			vertex 4.1493592 9.5281372 -1.899434
		endloop
	endfacet
	facet normal -0.19085671152166583 0.7141870006644895 -0.6734319889558235
		outer loop
			vertex 4.2577291 9.7285032 -1.92119
			vertex 4.152235 9.9354076 -1.6718661
			vertex 4.373848 9.7648582 -1.915544
		endloop
	endfacet
	facet normal -0.19002239941577492 0.7147518477532261 -0.6730685580634567
		outer loop
			vertex 4.152235 9.9354076 -1.6718661
			vertex 4.2679911 9.972744 -1.664898
			vertex 4.373848 9.7648582 -1.915544
		endloop
	endfacet
	facet normal -0.10270651993745865 0.4839913194112138 -0.8690246104092386
		outer loop
			vertex 4.4599581 9.4579163 -2.3600481
			vertex 4.6913829 9.533062 -2.3455479
			vertex 4.3165321 9.349021 -2.4037449
		endloop
	endfacet
	facet normal -0.11845488042444163 0.5105693178042136 -0.85163807630975
		outer loop
			vertex 4.6913829 9.533062 -2.3455479
			vertex 4.5487809 9.4217339 -2.3924561
			vertex 4.3165321 9.349021 -2.4037449
		endloop
	endfacet
	facet normal -0.1551695382047247 0.7515574462348056 0.6411581859590892
		outer loop
			vertex 4.1493592 9.5281372 -1.899434
			vertex 4.2206292 9.5234642 -1.876708
			vertex 4.379066 9.6983662 -2.0433819
		endloop
	endfacet
	facet normal -0.3188000705873461 0.7891193825052336 0.5250305849644021
		outer loop
			vertex 4.2206292 9.5234642 -1.876708
			vertex 4.607018 9.7760963 -2.0217969
			vertex 4.379066 9.6983662 -2.0433819
		endloop
	endfacet
	facet normal -0.12686066221525502 0.05289642961597117 -0.9905091317681981
		outer loop
			vertex 4.373848 9.7648582 -1.915544
			vertex 4.6187901 9.7998047 -1.945049
			vertex 4.1493592 9.5281372 -1.899434
		endloop
	endfacet
	facet normal 0.22628164015768013 -0.5284018245384081 -0.8182836495690425
		outer loop
			vertex 4.6187901 9.7998047 -1.945049
			vertex 4.2206292 9.5234642 -1.876708
			vertex 4.1493592 9.5281372 -1.899434
		endloop
	endfacet
	facet normal -0.19002999727883244 0.7147490169676909 -0.6730694190630909
		outer loop
			vertex 4.2679911 9.972744 -1.664898
			vertex 4.4995079 10.0474272 -1.650955
			vertex 4.373848 9.7648582 -1.915544
		endloop
	endfacet
	facet normal -0.1832669769882995 0.7141191399162738 -0.6756086656865878
		outer loop
			vertex 4.4995079 10.0474272 -1.650955
			vertex 4.6187901 9.7998047 -1.945049
			vertex 4.373848 9.7648582 -1.915544
		endloop
	endfacet
	facet normal -0.22459681811681848 0.5976943763310433 0.7696217913975969
		outer loop
			vertex 5.039155 7.5326791 0.831154
			vertex 5.2713981 7.6053991 0.842454
			vertex 5.0310912 8.280674 0.247902
		endloop
	endfacet
	facet normal -0.22275155549821746 0.5983646489561252 0.7696372466316438
		outer loop
			vertex 5.2713981 7.6053991 0.842454
			vertex 5.2634439 8.3531179 0.258828
			vertex 5.0310912 8.280674 0.247902
		endloop
	endfacet
	facet normal 0.5293183049115027 0.5334759809309382 0.6597162343427566
		outer loop
			vertex 5.3963232 8.3038692 0.192038
			vertex 5.2634439 8.3531179 0.258828
			vertex 5.4010682 7.5640521 0.78648
		endloop
	endfacet
	facet normal 0.47269443417998824 0.5453356310276688 0.6922203561200113
		outer loop
			vertex 5.2634439 8.3531179 0.258828
			vertex 5.2713981 7.6053991 0.842454
			vertex 5.4010682 7.5640521 0.78648
		endloop
	endfacet
	facet normal 0.33663394037844785 -0.6442439604331124 -0.6867512720270259
		outer loop
			vertex 5.1169128 7.694685 -0.203069
			vertex 5.5620599 7.9683409 -0.241583
			vertex 5.1168242 7.0533152 0.398559
		endloop
	endfacet
	facet normal 0.41364881501562656 -0.6483967853236459 -0.6391214803291547
		outer loop
			vertex 5.5620599 7.9683409 -0.241583
			vertex 5.54006 7.286191 0.436228
			vertex 5.1168242 7.0533152 0.398559
		endloop
	endfacet
	facet normal -0.1223735386280162 0.6875276031950894 0.7157726677433787
		outer loop
			vertex 5.552495 7.9209061 -0.345893
			vertex 5.1169128 7.694685 -0.203069
			vertex 5.5364838 7.2304788 0.314552
		endloop
	endfacet
	facet normal -0.14139316707718214 0.677286284391204 0.7220050285693592
		outer loop
			vertex 5.1169128 7.694685 -0.203069
			vertex 5.1168242 7.0533152 0.398559
			vertex 5.5364838 7.2304788 0.314552
		endloop
	endfacet
	facet normal 0.7607824567006423 -0.49448231133928783 -0.4203537764182586
		outer loop
			vertex 5.53233 7.45331 -0.854563
			vertex 5.6656852 7.5898619 -0.773841
			vertex 5.5016222 6.799983 -0.1416
		endloop
	endfacet
	facet normal 0.6824335620253914 -0.537897541650874 -0.49492491158486124
		outer loop
			vertex 5.6656852 7.5898619 -0.773841
			vertex 5.6407399 6.9212031 -0.081521
			vertex 5.5016222 6.799983 -0.1416
		endloop
	endfacet
	facet normal 0.2563306189876078 -0.718109837247343 -0.647002994906534
		outer loop
			vertex 5.5016222 6.799983 -0.1416
			vertex 5.2693772 6.7272611 -0.152897
			vertex 5.53233 7.45331 -0.854563
		endloop
	endfacet
	facet normal 0.2543518809590161 -0.7181279869316808 -0.6477633171445126
		outer loop
			vertex 5.2693772 6.7272611 -0.152897
			vertex 5.2999792 7.3808661 -0.865485
			vertex 5.53233 7.45331 -0.854563
		endloop
	endfacet
	facet normal 0.2542907491763465 -0.7179756567002409 -0.6479561491869572
		outer loop
			vertex 5.1838012 7.344646 -0.870945
			vertex 5.2999792 7.3808661 -0.865485
			vertex 5.1532559 6.6909051 -0.158547
		endloop
	endfacet
	facet normal 0.2562330772858005 -0.717801797947293 -0.6473833400453571
		outer loop
			vertex 5.2999792 7.3808661 -0.865485
			vertex 5.2693772 6.7272611 -0.152897
			vertex 5.1532559 6.6909051 -0.158547
		endloop
	endfacet
	facet normal -0.6801864323065161 0.5377190261824581 0.4982014313382912
		outer loop
			vertex 5.292491 6.8117862 -0.098921
			vertex 5.316854 7.4820518 -0.78909
			vertex 5.1532559 6.6909051 -0.158547
		endloop
	endfacet
	facet normal -0.7642943835576234 0.49112277378412367 0.4179144844736314
		outer loop
			vertex 5.316854 7.4820518 -0.78909
			vertex 5.1838012 7.344646 -0.870945
			vertex 5.1532559 6.6909051 -0.158547
		endloop
	endfacet
	facet normal 0.0708684444295331 -0.7073143380027255 -0.7033378212778725
		outer loop
			vertex 4.8267951 7.6918569 -0.350882
			vertex 5.213975 7.7771301 -0.397625
			vertex 4.8787651 6.9266 0.423938
		endloop
	endfacet
	facet normal -0.07816239760901754 -0.6765200026093744 -0.7322645189201932
		outer loop
			vertex 5.213975 7.7771301 -0.397625
			vertex 5.2023258 7.076602 0.250818
			vertex 4.8787651 6.9266 0.423938
		endloop
	endfacet
	facet normal -0.6441565706592488 0.5183539615072043 0.5624690952099537
		outer loop
			vertex 5.1784339 7.9235101 -0.161659
			vertex 4.8267951 7.6918569 -0.350882
			vertex 5.169549 7.2174182 0.478878
		endloop
	endfacet
	facet normal -0.6347292818541391 0.5280804549543371 0.5641363060929061
		outer loop
			vertex 4.8267951 7.6918569 -0.350882
			vertex 4.8787651 6.9266 0.423938
			vertex 5.169549 7.2174182 0.478878
		endloop
	endfacet
	facet normal -0.9615807471603285 -0.14366802298619527 -0.23392726617866239
		outer loop
			vertex 5.064043 7.4520841 0.768449
			vertex 5.1012702 8.1587391 0.181426
			vertex 5.169549 7.2174182 0.478878
		endloop
	endfacet
	facet normal -0.9831062816750483 -0.11603927720245201 -0.14155184589892633
		outer loop
			vertex 5.1012702 8.1587391 0.181426
			vertex 5.1784339 7.9235101 -0.161659
			vertex 5.169549 7.2174182 0.478878
		endloop
	endfacet
	facet normal -0.2226299938199953 0.5979850522767164 0.7699673779487815
		outer loop
			vertex 5.0310912 8.280674 0.247902
			vertex 4.9149132 8.2444525 0.242441
			vertex 5.039155 7.5326791 0.831154
		endloop
	endfacet
	facet normal -0.22452792893769408 0.5975057068379518 0.7697883731409755
		outer loop
			vertex 4.9149132 8.2444525 0.242441
			vertex 4.9230332 7.4963212 0.825505
			vertex 5.039155 7.5326791 0.831154
		endloop
	endfacet
	facet normal 0.95712921162055 0.18805018535824913 0.22031976772262787
		outer loop
			vertex 5.5620599 7.9683409 -0.241583
			vertex 5.3963232 8.3038692 0.192038
			vertex 5.54006 7.286191 0.436228
		endloop
	endfacet
	facet normal 0.9548968434133828 0.18968657112290702 0.22845354708297277
		outer loop
			vertex 5.3963232 8.3038692 0.192038
			vertex 5.4010682 7.5640521 0.78648
			vertex 5.54006 7.286191 0.436228
		endloop
	endfacet
	facet normal 0.9175584265779543 0.39471471310510614 0.04782080168862421
		outer loop
			vertex 5.3674712 8.4785624 -0.719313
			vertex 5.2294412 8.7573214 -0.371759
			vertex 5.5620599 7.9683409 -0.241583
		endloop
	endfacet
	facet normal 0.9177894607571491 0.39444251972343686 0.04558074546700587
		outer loop
			vertex 5.2294412 8.7573214 -0.371759
			vertex 5.3963232 8.3038692 0.192038
			vertex 5.5620599 7.9683409 -0.241583
		endloop
	endfacet
	facet normal 0.8373116204179349 0.5341428333082535 -0.1166219702222675
		outer loop
			vertex 4.7060809 9.6860819 -1.8267111
			vertex 4.5689678 9.9785881 -1.471429
			vertex 5.1339941 9.1035128 -1.422657
		endloop
	endfacet
	facet normal 0.8372246804659047 0.5340211910466961 -0.11779729169990316
		outer loop
			vertex 4.5689678 9.9785881 -1.471429
			vertex 4.9941621 9.4032698 -1.057574
			vertex 5.1339941 9.1035128 -1.422657
		endloop
	endfacet
	facet normal 0.15553399112454036 -0.6166419961889404 0.7717265228958962
		outer loop
			vertex 5.039155 7.5326791 0.831154
			vertex 5.17132 7.484601 0.766101
			vertex 5.2713981 7.6053991 0.842454
		endloop
	endfacet
	facet normal 0.14188288123112114 -0.6102048574998384 0.77943523136766
		outer loop
			vertex 5.17132 7.484601 0.766101
			vertex 5.4010682 7.5640521 0.78648
			vertex 5.2713981 7.6053991 0.842454
		endloop
	endfacet
	facet normal 0.1425775284338766 -0.5799879702218742 0.802050872939864
		outer loop
			vertex 4.9230332 7.4963212 0.825505
			vertex 5.064043 7.4520841 0.768449
			vertex 5.039155 7.5326791 0.831154
		endloop
	endfacet
	facet normal 0.18910707710251504 -0.5659412049870455 0.8024643704785619
		outer loop
			vertex 5.064043 7.4520841 0.768449
			vertex 5.17132 7.484601 0.766101
			vertex 5.039155 7.5326791 0.831154
		endloop
	endfacet
	facet normal -0.4763199922741792 -0.5437149225943831 -0.6910089347527352
		outer loop
			vertex 4.9149132 8.2444525 0.242441
			vertex 5.1012702 8.1587391 0.181426
			vertex 4.9230332 7.4963212 0.825505
		endloop
	endfacet
	facet normal -0.4557046170478996 -0.5544588508927119 -0.6963538501853499
		outer loop
			vertex 5.1012702 8.1587391 0.181426
			vertex 5.064043 7.4520841 0.768449
			vertex 4.9230332 7.4963212 0.825505
		endloop
	endfacet
	facet normal -0.4262026184599059 -0.7607758638803246 -0.4894603282749951
		outer loop
			vertex 4.9371762 8.6143541 -0.383857
			vertex 5.1012702 8.1587391 0.181426
			vertex 4.7522621 8.6871481 -0.335986
		endloop
	endfacet
	facet normal -0.4900785652292386 -0.7532457726970122 -0.4386841754804158
		outer loop
			vertex 5.1012702 8.1587391 0.181426
			vertex 4.9149132 8.2444525 0.242441
			vertex 4.7522621 8.6871481 -0.335986
		endloop
	endfacet
	facet normal -0.47798035189983734 -0.7212976019282811 -0.5012629575883488
		outer loop
			vertex 4.2326341 9.8604841 -1.492489
			vertex 4.7074709 9.2580738 -1.078426
			vertex 4.090271 9.9119453 -1.430789
		endloop
	endfacet
	facet normal -0.47204243910303684 -0.7198301047548257 -0.5089406212656958
		outer loop
			vertex 4.7074709 9.2580738 -1.078426
			vertex 4.5146151 9.3388948 -1.013863
			vertex 4.090271 9.9119453 -1.430789
		endloop
	endfacet
	facet normal -0.13847579522903852 0.5792451853960217 -0.8033053400365355
		outer loop
			vertex 4.2679911 9.972744 -1.664898
			vertex 4.152235 9.9354076 -1.6718661
			vertex 4.1408262 10.0073242 -1.618042
		endloop
	endfacet
	facet normal -0.14206224217715926 0.5785710997504669 -0.8031648659404453
		outer loop
			vertex 4.152235 9.9354076 -1.6718661
			vertex 4.024703 9.9709721 -1.6236891
			vertex 4.1408262 10.0073242 -1.618042
		endloop
	endfacet
	facet normal -0.14075184586170109 0.5747283906530478 -0.8061489904874171
		outer loop
			vertex 4.1408262 10.0073242 -1.618042
			vertex 4.3730741 10.0800381 -1.606752
			vertex 4.2679911 9.972744 -1.664898
		endloop
	endfacet
	facet normal -0.13558512376007428 0.5714193385090299 -0.8093803888116317
		outer loop
			vertex 4.3730741 10.0800381 -1.606752
			vertex 4.4995079 10.0474272 -1.650955
			vertex 4.2679911 9.972744 -1.664898
		endloop
	endfacet
	facet normal -0.19849628241938438 0.7554926181835707 -0.6243637799679108
		outer loop
			vertex 4.379066 9.6983662 -2.0433819
			vertex 4.607018 9.7760963 -2.0217969
			vertex 4.4599581 9.4579163 -2.3600481
		endloop
	endfacet
	facet normal -0.20652210953754893 0.7559010284100298 -0.6212586043837302
		outer loop
			vertex 4.607018 9.7760963 -2.0217969
			vertex 4.6913829 9.533062 -2.3455479
			vertex 4.4599581 9.4579163 -2.3600481
		endloop
	endfacet
	facet normal 0.8481362819590494 0.507841703947739 -0.15086964888981746
		outer loop
			vertex 4.6969461 9.6524734 -1.914893
			vertex 5.1229129 9.0598373 -1.5151269
			vertex 4.8014469 9.3619089 -2.3054941
		endloop
	endfacet
	facet normal 0.8426756916369057 0.5186655953188194 -0.1445118644154785
		outer loop
			vertex 5.1229129 9.0598373 -1.5151269
			vertex 5.2381759 8.7561884 -1.932829
			vertex 4.8014469 9.3619089 -2.3054941
		endloop
	endfacet
	facet normal 0.937912488148732 0.3466362797656511 -0.012784917867712756
		outer loop
			vertex 5.3541389 8.4405727 -0.807794
			vertex 5.552495 7.9209061 -0.345893
			vertex 5.4516931 8.1630869 -1.1745811
		endloop
	endfacet
	facet normal 0.9400949452994253 0.3405905807420066 -0.014817224176399833
		outer loop
			vertex 5.552495 7.9209061 -0.345893
			vertex 5.6656852 7.5898619 -0.773841
			vertex 5.4516931 8.1630869 -1.1745811
		endloop
	endfacet
	facet normal 0.9791451519591324 0.1273588164716417 0.15828614361930166
		outer loop
			vertex 5.6407399 6.9212031 -0.081521
			vertex 5.6656852 7.5898619 -0.773841
			vertex 5.5364838 7.2304788 0.314552
		endloop
	endfacet
	facet normal 0.9787969509691493 0.12928169924192087 0.15887973758355203
		outer loop
			vertex 5.6656852 7.5898619 -0.773841
			vertex 5.552495 7.9209061 -0.345893
			vertex 5.5364838 7.2304788 0.314552
		endloop
	endfacet
	facet normal 0.23504025818107677 -0.7447850341878544 0.6245408952854645
		outer loop
			vertex 5.3184471 7.1129632 0.256467
			vertex 5.4085722 6.848259 -0.093119
			vertex 5.5364838 7.2304788 0.314552
		endloop
	endfacet
	facet normal 0.2024293211261057 -0.745300140012654 0.6352559100437731
		outer loop
			vertex 5.4085722 6.848259 -0.093119
			vertex 5.6407399 6.9212031 -0.081521
			vertex 5.5364838 7.2304788 0.314552
		endloop
	endfacet
	facet normal 0.2057294008153551 -0.7539355419416851 0.6239043293945418
		outer loop
			vertex 5.2023258 7.076602 0.250818
			vertex 5.292491 6.8117862 -0.098921
			vertex 5.3184471 7.1129632 0.256467
		endloop
	endfacet
	facet normal 0.20570374467480487 -0.7539387452559443 0.6239089178947961
		outer loop
			vertex 5.292491 6.8117862 -0.098921
			vertex 5.4085722 6.848259 -0.093119
			vertex 5.3184471 7.1129632 0.256467
		endloop
	endfacet
	facet normal -0.9786427168350507 -0.1306421300693786 -0.15871693871999448
		outer loop
			vertex 5.213975 7.7771301 -0.397625
			vertex 5.316854 7.4820518 -0.78909
			vertex 5.2023258 7.076602 0.250818
		endloop
	endfacet
	facet normal -0.9795080761603798 -0.1261019886761248 -0.15704208731584787
		outer loop
			vertex 5.316854 7.4820518 -0.78909
			vertex 5.292491 6.8117862 -0.098921
			vertex 5.2023258 7.076602 0.250818
		endloop
	endfacet
	facet normal -0.9402073854321275 -0.34026050111945433 0.015259874076188467
		outer loop
			vertex 5.1007371 8.0616283 -1.181473
			vertex 5.316854 7.4820518 -0.78909
			vertex 5.0168881 8.3079033 -0.856293
		endloop
	endfacet
	facet normal -0.9401282944984105 -0.3406818837579442 0.009728512869322404
		outer loop
			vertex 5.316854 7.4820518 -0.78909
			vertex 5.213975 7.7771301 -0.397625
			vertex 5.0168881 8.3079033 -0.856293
		endloop
	endfacet
	facet normal -0.8480509777761369 -0.5112503800596377 0.1394008177229045
		outer loop
			vertex 4.4598131 9.2630634 -2.310971
			vertex 4.883153 8.6662378 -1.924413
			vertex 4.3552151 9.5355282 -1.948037
		endloop
	endfacet
	facet normal -0.8452814017813735 -0.508933985986342 0.16274381619763695
		outer loop
			vertex 4.883153 8.6662378 -1.924413
			vertex 4.7902799 8.9339161 -1.5697041
			vertex 4.3552151 9.5355282 -1.948037
		endloop
	endfacet
	facet normal -0.21415092366247654 0.7508262193408394 -0.6248194701230507
		outer loop
			vertex 4.4599581 9.4579163 -2.3600481
			vertex 4.353147 9.4310942 -2.3556709
			vertex 4.379066 9.6983662 -2.0433819
		endloop
	endfacet
	facet normal -0.204950469476361 0.7519531188819678 -0.6265475337634812
		outer loop
			vertex 4.353147 9.4310942 -2.3556709
			vertex 4.2629409 9.6620092 -2.0490301
			vertex 4.379066 9.6983662 -2.0433819
		endloop
	endfacet
	facet normal 0.4771663635882053 0.7113545463591041 0.5160300096256436
		outer loop
			vertex 4.863143 9.4475622 -0.99748
			vertex 5.1006551 8.7961597 -0.319137
			vertex 4.9941621 9.4032698 -1.057574
		endloop
	endfacet
	facet normal 0.43639595619451516 0.7248743646006092 0.5330250697311882
		outer loop
			vertex 5.1006551 8.7961597 -0.319137
			vertex 5.2294412 8.7573214 -0.371759
			vertex 4.9941621 9.4032698 -1.057574
		endloop
	endfacet
	facet normal -0.23999975361875855 0.656548746583374 0.7150831151850363
		outer loop
			vertex 4.868392 8.7234888 -0.330368
			vertex 5.1006551 8.7961597 -0.319137
			vertex 4.6307912 9.3751183 -1.008402
		endloop
	endfacet
	facet normal -0.2385615742359456 0.657379806872525 0.7148007868030849
		outer loop
			vertex 5.1006551 8.7961597 -0.319137
			vertex 4.863143 9.4475622 -0.99748
			vertex 4.6307912 9.3751183 -1.008402
		endloop
	endfacet
	facet normal -0.23845713800808827 0.6569537611271804 0.7152272010164624
		outer loop
			vertex 4.5146151 9.3388948 -1.013863
			vertex 4.7522621 8.6871481 -0.335986
			vertex 4.6307912 9.3751183 -1.008402
		endloop
	endfacet
	facet normal -0.24004326659322742 0.6565328602411694 0.7150830955817665
		outer loop
			vertex 4.7522621 8.6871481 -0.335986
			vertex 4.868392 8.7234888 -0.330368
			vertex 4.6307912 9.3751183 -1.008402
		endloop
	endfacet
	facet normal -0.47207915280970403 -0.7189318806844925 -0.5101746998998782
		outer loop
			vertex 4.7074709 9.2580738 -1.078426
			vertex 4.9371762 8.6143541 -0.383857
			vertex 4.5146151 9.3388948 -1.013863
		endloop
	endfacet
	facet normal -0.42548465752568554 -0.7222603747741911 -0.5452547636117407
		outer loop
			vertex 4.9371762 8.6143541 -0.383857
			vertex 4.7522621 8.6871481 -0.335986
			vertex 4.5146151 9.3388948 -1.013863
		endloop
	endfacet
	facet normal -0.94968670113881 -0.31194872207885516 0.027985075905807105
		outer loop
			vertex 4.770339 9.0387383 -1.3898931
			vertex 4.9956889 8.4172134 -0.670656
			vertex 4.7074709 9.2580738 -1.078426
		endloop
	endfacet
	facet normal -0.9490276483779326 -0.31438975888379417 0.022485598129486282
		outer loop
			vertex 4.9956889 8.4172134 -0.670656
			vertex 4.9371762 8.6143541 -0.383857
			vertex 4.7074709 9.2580738 -1.078426
		endloop
	endfacet
	facet normal -0.6374227500075309 0.48868673607837226 0.5957159656698015
		outer loop
			vertex 4.5567832 8.9336042 -1.532155
			vertex 4.6994019 8.2537584 -0.82185
			vertex 4.770339 9.0387383 -1.3898931
		endloop
	endfacet
	facet normal -0.5968009695678336 0.5050953696879668 0.6234639285818147
		outer loop
			vertex 4.6994019 8.2537584 -0.82185
			vertex 4.9956889 8.4172134 -0.670656
			vertex 4.770339 9.0387383 -1.3898931
		endloop
	endfacet
	facet normal -0.10153638674100295 -0.7635301459470227 -0.6377398203011161
		outer loop
			vertex 4.7902799 8.9339161 -1.5697041
			vertex 5.0168881 8.3079033 -0.856293
			vertex 4.5567832 8.9336042 -1.532155
		endloop
	endfacet
	facet normal 0.0468050470206192 -0.7169238210167945 -0.6955785523088509
		outer loop
			vertex 5.0168881 8.3079033 -0.856293
			vertex 4.6994019 8.2537584 -0.82185
			vertex 4.5567832 8.9336042 -1.532155
		endloop
	endfacet
	facet normal -0.9427666444325992 -0.33341912993651796 0.004768431363951589
		outer loop
			vertex 4.883153 8.6662378 -1.924413
			vertex 5.1007371 8.0616283 -1.181473
			vertex 4.7902799 8.9339161 -1.5697041
		endloop
	endfacet
	facet normal -0.943231088074169 -0.3320347052174455 0.008250395238007247
		outer loop
			vertex 5.1007371 8.0616283 -1.181473
			vertex 5.0168881 8.3079033 -0.856293
			vertex 4.7902799 8.9339161 -1.5697041
		endloop
	endfacet
	facet normal -0.7712246156069772 0.3793150280995574 0.5112071025912123
		outer loop
			vertex 4.7523031 8.5222178 -2.014955
			vertex 4.9650521 7.9303441 -1.254825
			vertex 4.883153 8.6662378 -1.924413
		endloop
	endfacet
	facet normal -0.7133348097704395 0.4265641432787528 0.556054386583394
		outer loop
			vertex 4.9650521 7.9303441 -1.254825
			vertex 5.1007371 8.0616283 -1.181473
			vertex 4.883153 8.6662378 -1.924413
		endloop
	endfacet
	facet normal 0.2565191291302941 -0.7266379500654904 -0.637334469423126
		outer loop
			vertex 4.8684831 8.5584402 -2.0094919
			vertex 5.0811868 7.9666848 -1.249209
			vertex 4.7523031 8.5222178 -2.014955
		endloop
	endfacet
	facet normal 0.2579991345605455 -0.7259768124035972 -0.6374904818256675
		outer loop
			vertex 5.0811868 7.9666848 -1.249209
			vertex 4.9650521 7.9303441 -1.254825
			vertex 4.7523031 8.5222178 -2.014955
		endloop
	endfacet
	facet normal 0.25808024679678365 -0.7263491791703143 -0.6370333241926374
		outer loop
			vertex 5.3134499 8.0393562 -1.237973
			vertex 5.0811868 7.9666848 -1.249209
			vertex 5.1008372 8.6308823 -1.99857
		endloop
	endfacet
	facet normal 0.25650677267864275 -0.7266423442947515 -0.6373344326551132
		outer loop
			vertex 5.0811868 7.9666848 -1.249209
			vertex 4.8684831 8.5584402 -2.0094919
			vertex 5.1008372 8.6308823 -1.99857
		endloop
	endfacet
	facet normal 0.6893826684009886 -0.46351796575727183 -0.5566889903065924
		outer loop
			vertex 5.2381759 8.7561884 -1.932829
			vertex 5.4516931 8.1630869 -1.1745811
			vertex 5.1008372 8.6308823 -1.99857
		endloop
	endfacet
	facet normal 0.6804764705757861 -0.47397798017483367 -0.5588350805936455
		outer loop
			vertex 5.4516931 8.1630869 -1.1745811
			vertex 5.3134499 8.0393562 -1.237973
			vertex 5.1008372 8.6308823 -1.99857
		endloop
	endfacet
	facet normal 0.9359560083956044 0.3521094006354434 0.0023065845565303543
		outer loop
			vertex 5.1229129 9.0598373 -1.5151269
			vertex 5.3541389 8.4405727 -0.807794
			vertex 5.2381759 8.7561884 -1.932829
		endloop
	endfacet
	facet normal 0.9421217259402087 0.3352570808576462 -0.0030566724149578453
		outer loop
			vertex 5.3541389 8.4405727 -0.807794
			vertex 5.4516931 8.1630869 -1.1745811
			vertex 5.2381759 8.7561884 -1.932829
		endloop
	endfacet
	facet normal -0.2332961037054759 0.7053360132367389 0.6693833254773732
		outer loop
			vertex 4.7610788 8.829854 -1.398899
			vertex 4.9266491 8.2077913 -0.68572
			vertex 5.1229129 9.0598373 -1.5151269
		endloop
	endfacet
	facet normal -0.19043220483354129 0.7069305222604257 0.681164306213147
		outer loop
			vertex 4.9266491 8.2077913 -0.68572
			vertex 5.3541389 8.4405727 -0.807794
			vertex 5.1229129 9.0598373 -1.5151269
		endloop
	endfacet
	facet normal 0.4059465122330605 -0.6121001574241334 -0.6786315837677798
		outer loop
			vertex 5.1339941 9.1035128 -1.422657
			vertex 5.3674712 8.4785624 -0.719313
			vertex 4.7610788 8.829854 -1.398899
		endloop
	endfacet
	facet normal 0.35614298833830715 -0.6616691128754727 -0.6598152445374732
		outer loop
			vertex 5.3674712 8.4785624 -0.719313
			vertex 4.9266491 8.2077913 -0.68572
			vertex 4.7610788 8.829854 -1.398899
		endloop
	endfacet
	facet normal 0.9238535226437516 0.38049663100212916 0.04143648748097329
		outer loop
			vertex 4.9941621 9.4032698 -1.057574
			vertex 5.2294412 8.7573214 -0.371759
			vertex 5.1339941 9.1035128 -1.422657
		endloop
	endfacet
	facet normal 0.9172316504593488 0.39557139912496925 0.04700391036853549
		outer loop
			vertex 5.2294412 8.7573214 -0.371759
			vertex 5.3674712 8.4785624 -0.719313
			vertex 5.1339941 9.1035128 -1.422657
		endloop
	endfacet
	facet normal 0.30539159605396826 0.9342244117627088 0.18428434965083387
		outer loop
			vertex 4.3730741 10.0800381 -1.606752
			vertex 4.4388032 10.0206089 -1.414402
			vertex 4.4995079 10.0474272 -1.650955
		endloop
	endfacet
	facet normal 0.3791856225120886 0.9035057458693899 0.19973890672855216
		outer loop
			vertex 4.4388032 10.0206089 -1.414402
			vertex 4.5689678 9.9785881 -1.471429
			vertex 4.4995079 10.0474272 -1.650955
		endloop
	endfacet
	facet normal -0.2923116232570365 0.8817615441810808 0.3702033145613807
		outer loop
			vertex 4.2064471 9.9481668 -1.425325
			vertex 4.4388032 10.0206089 -1.414402
			vertex 4.1408262 10.0073242 -1.618042
		endloop
	endfacet
	facet normal -0.29373534059788525 0.8803719387584449 0.3723772269225679
		outer loop
			vertex 4.4388032 10.0206089 -1.414402
			vertex 4.3730741 10.0800381 -1.606752
			vertex 4.1408262 10.0073242 -1.618042
		endloop
	endfacet
	facet normal -0.2939168042835921 0.881468163285433 0.36963061192753793
		outer loop
			vertex 4.024703 9.9709721 -1.6236891
			vertex 4.090271 9.9119453 -1.430789
			vertex 4.1408262 10.0073242 -1.618042
		endloop
	endfacet
	facet normal -0.2923261521204873 0.8817554375665981 0.37020638717905335
		outer loop
			vertex 4.090271 9.9119453 -1.430789
			vertex 4.2064471 9.9481668 -1.425325
			vertex 4.1408262 10.0073242 -1.618042
		endloop
	endfacet
	facet normal -0.34059167120595557 -0.9120718201033368 -0.22830310658972905
		outer loop
			vertex 4.152235 9.9354076 -1.6718661
			vertex 4.2326341 9.8604841 -1.492489
			vertex 4.024703 9.9709721 -1.6236891
		endloop
	endfacet
	facet normal -0.39135259029212377 -0.9087377910544943 -0.14504749974075187
		outer loop
			vertex 4.2326341 9.8604841 -1.492489
			vertex 4.090271 9.9119453 -1.430789
			vertex 4.024703 9.9709721 -1.6236891
		endloop
	endfacet
	facet normal -0.8340382324212852 -0.5429862013142828 0.097704718626399
		outer loop
			vertex 4.2577291 9.7285032 -1.92119
			vertex 4.3424211 9.6213102 -1.793949
			vertex 4.152235 9.9354076 -1.6718661
		endloop
	endfacet
	facet normal -0.8224908618217086 -0.5517334876112948 0.13819891775285514
		outer loop
			vertex 4.3424211 9.6213102 -1.793949
			vertex 4.2326341 9.8604841 -1.492489
			vertex 4.152235 9.9354076 -1.6718661
		endloop
	endfacet
	facet normal -0.3827004718384042 0.4029068768258982 0.8313882350990203
		outer loop
			vertex 4.0763502 9.5101681 -1.898872
			vertex 4.159029 9.4138622 -1.814142
			vertex 4.2577291 9.7285032 -1.92119
		endloop
	endfacet
	facet normal -0.5528058903682458 0.4185622463123003 0.7205631780324141
		outer loop
			vertex 4.159029 9.4138622 -1.814142
			vertex 4.3424211 9.6213102 -1.793949
			vertex 4.2577291 9.7285032 -1.92119
		endloop
	endfacet
	facet normal -0.0731847854302946 -0.6543587715476883 -0.7526344300389947
		outer loop
			vertex 4.2629409 9.6620092 -2.0490301
			vertex 4.3552151 9.5355282 -1.948037
			vertex 4.0763502 9.5101681 -1.898872
		endloop
	endfacet
	facet normal -0.06441430258575474 -0.6897725478740647 -0.7211550664189444
		outer loop
			vertex 4.3552151 9.5355282 -1.948037
			vertex 4.159029 9.4138622 -1.814142
			vertex 4.0763502 9.5101681 -1.898872
		endloop
	endfacet
	facet normal -0.852380966082629 -0.5063594706990779 0.1305632991824032
		outer loop
			vertex 4.353147 9.4310942 -2.3556709
			vertex 4.4598131 9.2630634 -2.310971
			vertex 4.2629409 9.6620092 -2.0490301
		endloop
	endfacet
	facet normal -0.8493118293406389 -0.5095909004502841 0.13779162064627243
		outer loop
			vertex 4.4598131 9.2630634 -2.310971
			vertex 4.3552151 9.5355282 -1.948037
			vertex 4.2629409 9.6620092 -2.0490301
		endloop
	endfacet
	facet normal -0.30472010796313614 -0.03869801296131833 0.9516554626522039
		outer loop
			vertex 4.2004132 9.312664 -2.4093921
			vertex 4.3136692 9.1333532 -2.380419
			vertex 4.353147 9.4310942 -2.3556709
		endloop
	endfacet
	facet normal -0.41403535026313504 -0.020743433093148193 0.9100244165493547
		outer loop
			vertex 4.3136692 9.1333532 -2.380419
			vertex 4.4598131 9.2630634 -2.310971
			vertex 4.353147 9.4310942 -2.3556709
		endloop
	endfacet
	facet normal 0.0817871686801522 -0.10731013788931097 -0.9908558892924145
		outer loop
			vertex 4.3165321 9.349021 -2.4037449
			vertex 4.4298429 9.1695757 -2.374958
			vertex 4.2004132 9.312664 -2.4093921
		endloop
	endfacet
	facet normal 0.08061114025109851 -0.1091700934900806 -0.9907490775947183
		outer loop
			vertex 4.4298429 9.1695757 -2.374958
			vertex 4.3136692 9.1333532 -2.380419
			vertex 4.2004132 9.312664 -2.4093921
		endloop
	endfacet
	facet normal 0.07977621410344286 -0.10640579410988396 -0.9911173304120794
		outer loop
			vertex 4.6621981 9.2420197 -2.364033
			vertex 4.4298429 9.1695757 -2.374958
			vertex 4.5487809 9.4217339 -2.3924561
		endloop
	endfacet
	facet normal 0.08176358911678865 -0.10732507978267529 -0.9908562169883094
		outer loop
			vertex 4.4298429 9.1695757 -2.374958
			vertex 4.3165321 9.349021 -2.4037449
			vertex 4.5487809 9.4217339 -2.3924561
		endloop
	endfacet
	facet normal 0.3224072895480461 -0.014170264111516567 -0.9464949779377027
		outer loop
			vertex 4.6913829 9.533062 -2.3455479
			vertex 4.8014469 9.3619089 -2.3054941
			vertex 4.5487809 9.4217339 -2.3924561
		endloop
	endfacet
	facet normal 0.3385114186761117 0.06517112611376699 -0.9387026918822328
		outer loop
			vertex 4.8014469 9.3619089 -2.3054941
			vertex 4.6621981 9.2420197 -2.364033
			vertex 4.5487809 9.4217339 -2.3924561
		endloop
	endfacet
	facet normal 0.8563132825913179 0.4947250712024875 -0.14823854418259516
		outer loop
			vertex 4.607018 9.7760963 -2.0217969
			vertex 4.6969461 9.6524734 -1.914893
			vertex 4.6913829 9.533062 -2.3455479
		endloop
	endfacet
	facet normal 0.8471210347320197 0.5091607744570473 -0.15212251072360217
		outer loop
			vertex 4.6969461 9.6524734 -1.914893
			vertex 4.8014469 9.3619089 -2.3054941
			vertex 4.6913829 9.533062 -2.3455479
		endloop
	endfacet
	facet normal -0.09890713944717637 0.6050079838159506 0.7900523509776649
		outer loop
			vertex 4.2206292 9.5234642 -1.876708
			vertex 4.3633599 9.4054222 -1.768445
			vertex 4.607018 9.7760963 -2.0217969
		endloop
	endfacet
	facet normal -0.10318611063364809 0.6066071675735398 0.7882768364100954
		outer loop
			vertex 4.3633599 9.4054222 -1.768445
			vertex 4.6969461 9.6524734 -1.914893
			vertex 4.607018 9.7760963 -2.0217969
		endloop
	endfacet
	facet normal 0.27436755399871 -0.5842154079284514 -0.7638159480213531
		outer loop
			vertex 4.6187901 9.7998047 -1.945049
			vertex 4.7060809 9.6860819 -1.8267111
			vertex 4.2206292 9.5234642 -1.876708
		endloop
	endfacet
	facet normal 0.24644775532883942 -0.47618347742305916 -0.8441047326740087
		outer loop
			vertex 4.7060809 9.6860819 -1.8267111
			vertex 4.3633599 9.4054222 -1.768445
			vertex 4.2206292 9.5234642 -1.876708
		endloop
	endfacet
	facet normal 0.8340478671182483 0.5393865864996262 -0.1158717638589422
		outer loop
			vertex 4.4995079 10.0474272 -1.650955
			vertex 4.5689678 9.9785881 -1.471429
			vertex 4.6187901 9.7998047 -1.945049
		endloop
	endfacet
	facet normal 0.8409385721695153 0.529533934102432 -0.11142769167266565
		outer loop
			vertex 4.5689678 9.9785881 -1.471429
			vertex 4.7060809 9.6860819 -1.8267111
			vertex 4.6187901 9.7998047 -1.945049
		endloop
	endfacet
	facet normal 0.04720941514869483 0.4575973346736532 0.8879053724473612
		outer loop
			vertex -4.1991081 9.9533062 -1.248284
			vertex -4.317668 9.9802246 -1.2558531
			vertex -4.6219831 9.3320017 -0.9056
		endloop
	endfacet
	facet normal 0.04718811091823552 0.45760563631820106 0.8879022264854293
		outer loop
			vertex -4.317668 9.9802246 -1.2558531
			vertex -4.7405472 9.3589201 -0.913172
			vertex -4.6219831 9.3320017 -0.9056
		endloop
	endfacet
	facet normal 0.12158551372501095 0.7204551906208766 0.6827600465461211
		outer loop
			vertex -4.8847971 8.6354723 -0.283874
			vertex -5.0033412 8.6624994 -0.291283
			vertex -5.078577 8.1572018 0.25531
		endloop
	endfacet
	facet normal 0.12003890918831162 0.7207009423700262 0.682774349216369
		outer loop
			vertex -5.0033412 8.6624994 -0.291283
			vertex -5.1971402 8.1841202 0.247741
			vertex -5.078577 8.1572018 0.25531
		endloop
	endfacet
	facet normal 0.04722185600610934 0.45758698149774546 0.8879100465019644
		outer loop
			vertex -4.7405472 9.3589201 -0.913172
			vertex -4.317668 9.9802246 -1.2558531
			vertex -4.9776702 9.4127569 -0.928306
		endloop
	endfacet
	facet normal 0.047214324149398045 0.4575939113270668 0.8879068756978471
		outer loop
			vertex -4.317668 9.9802246 -1.2558531
			vertex -4.5547929 10.0340624 -1.27099
			vertex -4.9776702 9.4127569 -0.928306
		endloop
	endfacet
	facet normal 0.11993736815672384 0.7203573125652638 0.6831547188985737
		outer loop
			vertex -5.4342651 8.237957 0.232603
			vertex -5.1971402 8.1841202 0.247741
			vertex -5.2404308 8.7165594 -0.306093
		endloop
	endfacet
	facet normal 0.1215730334957078 0.7202772932045625 0.6829499384439245
		outer loop
			vertex -5.1971402 8.1841202 0.247741
			vertex -5.0033412 8.6624994 -0.291283
			vertex -5.2404308 8.7165594 -0.306093
		endloop
	endfacet
	facet normal -0.5759600226284711 0.6588939583102473 0.4838685813690172
		outer loop
			vertex -4.5547929 10.0340624 -1.27099
			vertex -4.6733832 9.984642 -1.344854
			vertex -4.9776702 9.4127569 -0.928306
		endloop
	endfacet
	facet normal -0.5899229584328562 0.6563999455667469 0.4702446326900485
		outer loop
			vertex -4.6733832 9.984642 -1.344854
			vertex -5.0965509 9.3611431 -1.005396
			vertex -4.9776702 9.4127569 -0.928306
		endloop
	endfacet
	facet normal -0.5403477236014255 0.7161219974008938 0.4418072231610885
		outer loop
			vertex -5.2404308 8.7165594 -0.306093
			vertex -5.3584371 8.6702242 -0.375315
			vertex -5.4342651 8.237957 0.232603
		endloop
	endfacet
	facet normal -0.6084313492842159 0.6806436667966916 0.4080876034110113
		outer loop
			vertex -5.3584371 8.6702242 -0.375315
			vertex -5.5537882 8.1815491 0.148484
			vertex -5.4342651 8.237957 0.232603
		endloop
	endfacet
	facet normal -0.0740180269223323 -0.42194672718775383 -0.9035940964316158
		outer loop
			vertex -4.7429042 9.6979561 -1.723757
			vertex -4.3878441 9.4422264 -1.633425
			vertex -5.167006 9.0674448 -1.39459
		endloop
	endfacet
	facet normal -0.09838198097535567 -0.3812530686803688 -0.9192209111204808
		outer loop
			vertex -4.3878441 9.4422264 -1.633425
			vertex -4.7785292 8.822485 -1.334569
			vertex -5.167006 9.0674448 -1.39459
		endloop
	endfacet
	facet normal -0.162977911388669 -0.5759307962675001 -0.8010879591593363
		outer loop
			vertex -5.4309068 8.3968267 -0.746203
			vertex -4.9766421 8.1595507 -0.668035
			vertex -5.6387949 7.8531661 -0.313052
		endloop
	endfacet
	facet normal -0.159003984145871 -0.5811071034681041 -0.7981430118247291
		outer loop
			vertex -4.9766421 8.1595507 -0.668035
			vertex -5.1806011 7.6131339 -0.229571
			vertex -5.6387949 7.8531661 -0.313052
		endloop
	endfacet
	facet normal -0.1239179489749208 0.4933072568145935 0.8609833286980125
		outer loop
			vertex -4.3878441 9.4422264 -1.633425
			vertex -4.7206202 9.6689548 -1.811226
			vertex -4.7785292 8.822485 -1.334569
		endloop
	endfacet
	facet normal -0.08198386849778348 0.49326680761946773 0.8660060633777555
		outer loop
			vertex -4.7206202 9.6689548 -1.811226
			vertex -5.1414642 9.0287504 -1.486414
			vertex -4.7785292 8.822485 -1.334569
		endloop
	endfacet
	facet normal -0.0025804562242281756 0.62643607517408 0.7794685272454365
		outer loop
			vertex -4.9766421 8.1595507 -0.668035
			vertex -5.4040771 8.3638134 -0.83361
			vertex -5.1806011 7.6131339 -0.229571
		endloop
	endfacet
	facet normal -0.05904411659649737 0.6150826832838511 0.7862487424598382
		outer loop
			vertex -5.4040771 8.3638134 -0.83361
			vertex -5.6130462 7.8111181 -0.416929
			vertex -5.1806011 7.6131339 -0.229571
		endloop
	endfacet
	facet normal -0.37892459556535757 -0.1651311687271264 -0.9105755586388445
		outer loop
			vertex -4.753828 9.3882294 -2.2211101
			vertex -4.5992932 9.2820148 -2.266156
			vertex -5.1810279 8.7353182 -1.924932
		endloop
	endfacet
	facet normal -0.4053879709461195 -0.13311755558807511 -0.9044005248817827
		outer loop
			vertex -4.5992932 9.2820148 -2.266156
			vertex -5.0270801 8.6238737 -1.9775341
			vertex -5.1810279 8.7353182 -1.924932
		endloop
	endfacet
	facet normal -0.4843009449992011 -0.3069658737943189 -0.8192829468496042
		outer loop
			vertex -5.43431 8.0956144 -1.218585
			vertex -5.27988 7.9857092 -1.268694
			vertex -5.6470938 7.4909949 -0.866266
		endloop
	endfacet
	facet normal -0.5507383394832757 -0.24120579855668406 -0.799066357798798
		outer loop
			vertex -5.27988 7.9857092 -1.268694
			vertex -5.4943981 7.3686829 -0.934587
			vertex -5.6470938 7.4909949 -0.866266
		endloop
	endfacet
	facet normal -0.028698371462022882 -0.3857499470454052 -0.9221569182248187
		outer loop
			vertex -5.0270801 8.6238737 -1.9775341
			vertex -4.5992932 9.2820148 -2.266156
			vertex -4.7899561 8.5700369 -1.962393
		endloop
	endfacet
	facet normal -0.02871317126703526 -0.38574641717825053 -0.9221579341034448
		outer loop
			vertex -4.5992932 9.2820148 -2.266156
			vertex -4.3621669 9.228178 -2.251019
			vertex -4.7899561 8.5700369 -1.962393
		endloop
	endfacet
	facet normal -0.04848940972164301 -0.46250738783979034 -0.8852884802924188
		outer loop
			vertex -5.4943981 7.3686829 -0.934587
			vertex -5.27988 7.9857092 -1.268694
			vertex -5.2572742 7.3148451 -0.919448
		endloop
	endfacet
	facet normal -0.05015980481754993 -0.46251354650393334 -0.8851921900248665
		outer loop
			vertex -5.27988 7.9857092 -1.268694
			vertex -5.042789 7.9316502 -1.253883
			vertex -5.2572742 7.3148451 -0.919448
		endloop
	endfacet
	facet normal -0.02869937716650501 -0.3857541525496566 -0.9221551276986704
		outer loop
			vertex -4.3621669 9.228178 -2.251019
			vertex -4.243607 9.2012587 -2.243448
			vertex -4.7899561 8.5700369 -1.962393
		endloop
	endfacet
	facet normal -0.028717456893336428 -0.38574074954229903 -0.9221601714518607
		outer loop
			vertex -4.243607 9.2012587 -2.243448
			vertex -4.6713939 8.5431204 -1.954826
			vertex -4.7899561 8.5700369 -1.962393
		endloop
	endfacet
	facet normal -0.05015719777115265 -0.46251431534883114 -0.8851919360280842
		outer loop
			vertex -5.042789 7.9316502 -1.253883
			vertex -4.9242411 7.9046202 -1.246477
			vertex -5.2572742 7.3148451 -0.919448
		endloop
	endfacet
	facet normal -0.04868054682439511 -0.46319614668848685 -0.8849178120333072
		outer loop
			vertex -4.9242411 7.9046202 -1.246477
			vertex -5.1387119 7.2879281 -0.911881
			vertex -5.2572742 7.3148451 -0.919448
		endloop
	endfacet
	facet normal 0.40211804203794316 0.13571434973752258 0.9054737409460822
		outer loop
			vertex -4.243607 9.2012587 -2.243448
			vertex -4.4070611 9.3162594 -2.1880951
			vertex -4.6713939 8.5431204 -1.954826
		endloop
	endfacet
	facet normal 0.5125247399363806 0.0826433243944746 0.8546861832779183
		outer loop
			vertex -4.4070611 9.3162594 -2.1880951
			vertex -4.82339 8.6726484 -1.876204
			vertex -4.6713939 8.5431204 -1.954826
		endloop
	endfacet
	facet normal 0.5194724314730234 0.26082865561003576 0.8137056011557047
		outer loop
			vertex -4.9242411 7.9046202 -1.246477
			vertex -5.077939 8.021822 -1.1859241
			vertex -5.1387119 7.2879281 -0.911881
		endloop
	endfacet
	facet normal 0.5604532380663497 0.2485828788687009 0.7899991900466055
		outer loop
			vertex -5.077939 8.021822 -1.1859241
			vertex -5.2913179 7.4110699 -0.842365
			vertex -5.1387119 7.2879281 -0.911881
		endloop
	endfacet
	facet normal 0.2982339793679353 -0.5569446439036724 -0.7751575047545999
		outer loop
			vertex -4.3689942 9.5801563 -1.806247
			vertex -4.1808972 9.4683018 -1.653512
			vertex -4.7955551 8.9312267 -1.5041111
		endloop
	endfacet
	facet normal 0.2704148065887916 -0.5325792007602488 -0.8020194681521897
		outer loop
			vertex -4.1808972 9.4683018 -1.653512
			vertex -4.568953 8.9472494 -1.4383481
			vertex -4.7955551 8.9312267 -1.5041111
		endloop
	endfacet
	facet normal 0.11591155996945958 -0.614650618264934 -0.7802365844613934
		outer loop
			vertex -5.0537701 8.2596474 -0.844928
			vertex -4.7393012 8.2286377 -0.773782
			vertex -5.2601891 7.6961341 -0.431672
		endloop
	endfacet
	facet normal 0.09718739377511097 -0.6035123613622321 -0.7914085166171668
		outer loop
			vertex -4.7393012 8.2286377 -0.773782
			vertex -4.875679 7.638948 -0.340844
			vertex -5.2601891 7.6961341 -0.431672
		endloop
	endfacet
	facet normal 0.23087763864575597 0.21948169368593523 0.9479046904146604
		outer loop
			vertex -4.1808972 9.4683018 -1.653512
			vertex -4.3816781 9.6599779 -1.64899
			vertex -4.568953 8.9472494 -1.4383481
		endloop
	endfacet
	facet normal 0.47957953886762983 0.13044382666851462 0.8677487389697469
		outer loop
			vertex -4.3816781 9.6599779 -1.64899
			vertex -4.8057799 9.0294666 -1.31982
			vertex -4.568953 8.9472494 -1.4383481
		endloop
	endfacet
	facet normal 0.46546838352979747 0.4513173901106457 0.7613486700046652
		outer loop
			vertex -4.7393012 8.2286377 -0.773782
			vertex -5.0638151 8.3622122 -0.654564
			vertex -4.875679 7.638948 -0.340844
		endloop
	endfacet
	facet normal 0.5125064524222706 0.4504185202634789 0.7310679125971793
		outer loop
			vertex -5.0638151 8.3622122 -0.654564
			vertex -5.265058 7.834568 -0.188398
			vertex -4.875679 7.638948 -0.340844
		endloop
	endfacet
	facet normal 0.8582321126613048 -0.47195184345566993 0.2017401751156879
		outer loop
			vertex -4.3816781 9.6599779 -1.64899
			vertex -4.3284392 9.8937511 -1.328586
			vertex -4.8057799 9.0294666 -1.31982
		endloop
	endfacet
	facet normal 0.8414020930837058 -0.4618569619855272 0.2805898508853417
		outer loop
			vertex -4.3284392 9.8937511 -1.328586
			vertex -4.7985482 9.2394381 -0.995888
			vertex -4.8057799 9.0294666 -1.31982
		endloop
	endfacet
	facet normal 0.9594427342027515 -0.2487563496252172 0.13262698935995415
		outer loop
			vertex -5.0638151 8.3622122 -0.654564
			vertex -5.0561399 8.5508003 -0.35637
			vertex -5.265058 7.834568 -0.188398
		endloop
	endfacet
	facet normal 0.9605104259436222 -0.2530266339501928 0.11574646502350049
		outer loop
			vertex -5.0561399 8.5508003 -0.35637
			vertex -5.2487321 8.060113 0.169174
			vertex -5.265058 7.834568 -0.188398
		endloop
	endfacet
	facet normal -0.18536289738879705 -0.6025305157038147 0.7762715851538853
		outer loop
			vertex -5.4133449 6.7428622 -0.184275
			vertex -5.258626 6.6355982 -0.230587
			vertex -5.294817 6.7157001 -0.177055
		endloop
	endfacet
	facet normal -0.1857832564718434 -0.6026113413585198 0.7761083383657226
		outer loop
			vertex -5.258626 6.6355982 -0.230587
			vertex -5.1400862 6.6085472 -0.223215
			vertex -5.294817 6.7157001 -0.177055
		endloop
	endfacet
	facet normal -0.44421530904212847 -0.8900999038277737 0.10195548253230165
		outer loop
			vertex -4.9570642 6.8394661 0.395951
			vertex -5.0797701 6.897831 0.370869
			vertex -5.2688341 6.9714322 0.189685
		endloop
	endfacet
	facet normal -0.20889085616202852 -0.9625118266801967 -0.17301905592346137
		outer loop
			vertex -5.0797701 6.897831 0.370869
			vertex -5.3873758 6.9984841 0.182313
			vertex -5.2688341 6.9714322 0.189685
		endloop
	endfacet
	facet normal -0.1152439842918195 -0.24243035866082124 0.9632997172656766
		outer loop
			vertex -5.2750411 7.1044478 0.424597
			vertex -5.39358 7.1314969 0.417223
			vertex -4.9570642 6.8394661 0.395951
		endloop
	endfacet
	facet normal -0.4486946400380968 -0.7102054675575273 0.5424770168887127
		outer loop
			vertex -5.39358 7.1314969 0.417223
			vertex -5.0797701 6.897831 0.370869
			vertex -4.9570642 6.8394661 0.395951
		endloop
	endfacet
	facet normal -0.24855932227530972 -0.7489337848255454 0.6142608967343783
		outer loop
			vertex -5.332778 7.358151 0.718173
			vertex -5.39358 7.1314969 0.417223
			vertex -5.2242532 7.3339062 0.732527
		endloop
	endfacet
	facet normal -0.21259146405239077 -0.7664038330111499 0.6061600730482656
		outer loop
			vertex -5.39358 7.1314969 0.417223
			vertex -5.2750411 7.1044478 0.424597
			vertex -5.2242532 7.3339062 0.732527
		endloop
	endfacet
	facet normal -0.18546604082456497 -0.6033822294256724 0.7755850906987358
		outer loop
			vertex -5.6504049 6.7971821 -0.198704
			vertex -5.4957099 6.6896982 -0.245331
			vertex -5.4133449 6.7428622 -0.184275
		endloop
	endfacet
	facet normal -0.18584656934238397 -0.6030155576921534 0.775779150174125
		outer loop
			vertex -5.4957099 6.6896982 -0.245331
			vertex -5.258626 6.6355982 -0.230587
			vertex -5.4133449 6.7428622 -0.184275
		endloop
	endfacet
	facet normal -0.4160817586834542 -0.8856868236221067 0.20599713724483418
		outer loop
			vertex -5.0797701 6.897831 0.370869
			vertex -5.1999269 6.948473 0.345907
			vertex -5.3873758 6.9984841 0.182313
		endloop
	endfacet
	facet normal -0.36661030663381927 -0.9199574188177774 0.13883526436748533
		outer loop
			vertex -5.1999269 6.948473 0.345907
			vertex -5.6196222 7.096302 0.217206
			vertex -5.3873758 6.9984841 0.182313
		endloop
	endfacet
	facet normal -0.2813732283479811 -0.5358042554465703 0.7960797109676779
		outer loop
			vertex -5.39358 7.1314969 0.417223
			vertex -5.6421962 7.1463041 0.339316
			vertex -5.0797701 6.897831 0.370869
		endloop
	endfacet
	facet normal -0.40681024780246117 -0.9054185738485869 0.12133683864717716
		outer loop
			vertex -5.6421962 7.1463041 0.339316
			vertex -5.1999269 6.948473 0.345907
			vertex -5.0797701 6.897831 0.370869
		endloop
	endfacet
	facet normal -0.21078068888525817 -0.7697336005667349 0.6025625986996092
		outer loop
			vertex -5.5690169 7.4187632 0.712963
			vertex -5.6421962 7.1463041 0.339316
			vertex -5.332778 7.358151 0.718173
		endloop
	endfacet
	facet normal -0.23738352559292114 -0.7523150465847339 0.6145495362127326
		outer loop
			vertex -5.6421962 7.1463041 0.339316
			vertex -5.39358 7.1314969 0.417223
			vertex -5.332778 7.358151 0.718173
		endloop
	endfacet
	facet normal 0.1830463836873767 0.5870577943864926 -0.7885792081135796
		outer loop
			vertex -4.1426921 9.3898144 -2.2523921
			vertex -4.2612352 9.4168673 -2.259769
			vertex -4.3098779 9.4937496 -2.213825
		endloop
	endfacet
	facet normal 0.22255249062493335 0.6000043915528637 -0.7684172818423054
		outer loop
			vertex -4.2612352 9.4168673 -2.259769
			vertex -4.4172339 9.5124474 -2.2303181
			vertex -4.3098779 9.4937496 -2.213825
		endloop
	endfacet
	facet normal 0.15442209104555404 0.8250441873646938 0.5435585586602889
		outer loop
			vertex -4.2759581 9.7175608 -1.890952
			vertex -4.3945022 9.744606 -1.898325
			vertex -4.096838 9.5742159 -1.724262
		endloop
	endfacet
	facet normal 0.04665185041158776 0.7525449193521411 0.6568864051039986
		outer loop
			vertex -4.3945022 9.744606 -1.898325
			vertex -4.1704769 9.5865278 -1.733137
			vertex -4.096838 9.5742159 -1.724262
		endloop
	endfacet
	facet normal 0.10638087211565328 -0.07825716532417057 -0.9912411039314999
		outer loop
			vertex -4.096838 9.5742159 -1.724262
			vertex -4.1704769 9.5865278 -1.733137
			vertex -4.2914472 9.7787218 -1.7612931
		endloop
	endfacet
	facet normal 0.033337208356320314 -0.12429714676018468 -0.9916848540974519
		outer loop
			vertex -4.1704769 9.5865278 -1.733137
			vertex -4.409987 9.805769 -1.7686681
			vertex -4.2914472 9.7787218 -1.7612931
		endloop
	endfacet
	facet normal 0.21088767880936263 0.7549392351594172 -0.6209614626877527
		outer loop
			vertex -4.2914472 9.7787218 -1.7612931
			vertex -4.409987 9.805769 -1.7686681
			vertex -4.233614 9.9822483 -1.494213
		endloop
	endfacet
	facet normal 0.20995212864033622 0.7554330941497238 -0.6206778100937446
		outer loop
			vertex -4.409987 9.805769 -1.7686681
			vertex -4.3520312 10.0102425 -1.5001971
			vertex -4.233614 9.9822483 -1.494213
		endloop
	endfacet
	facet normal 0.16574892340162578 0.5273027160114498 -0.8333541504535453
		outer loop
			vertex -4.4172339 9.5124474 -2.2303181
			vertex -4.2612352 9.4168673 -2.259769
			vertex -4.654088 9.5688963 -2.241709
		endloop
	endfacet
	facet normal 0.17706274932758068 0.5541630351256375 -0.8133585392069724
		outer loop
			vertex -4.2612352 9.4168673 -2.259769
			vertex -4.4983191 9.4709654 -2.2745221
			vertex -4.654088 9.5688963 -2.241709
		endloop
	endfacet
	facet normal 0.01592624658788157 0.7330933134702297 0.6799415772070875
		outer loop
			vertex -4.1704769 9.5865278 -1.733137
			vertex -4.3945022 9.744606 -1.898325
			vertex -4.2433252 9.5754204 -1.719455
		endloop
	endfacet
	facet normal 0.18864799145411484 0.7880726905480929 0.5859636249227578
		outer loop
			vertex -4.3945022 9.744606 -1.898325
			vertex -4.6289692 9.8035936 -1.902173
			vertex -4.2433252 9.5754204 -1.719455
		endloop
	endfacet
	facet normal 0.23922013379550364 0.10489859810127722 -0.9652823481775931
		outer loop
			vertex -4.409987 9.805769 -1.7686681
			vertex -4.1704769 9.5865278 -1.733137
			vertex -4.6516919 9.8230171 -1.826694
		endloop
	endfacet
	facet normal -0.08338261570090547 -0.5086709836108068 -0.8569137470196692
		outer loop
			vertex -4.1704769 9.5865278 -1.733137
			vertex -4.2433252 9.5754204 -1.719455
			vertex -4.6516919 9.8230171 -1.826694
		endloop
	endfacet
	facet normal 0.20998066304874097 0.7554251028420402 -0.6206778835609533
		outer loop
			vertex -4.3520312 10.0102425 -1.5001971
			vertex -4.409987 9.805769 -1.7686681
			vertex -4.5888681 10.0662422 -1.512164
		endloop
	endfacet
	facet normal 0.20364635065495842 0.7543873837115105 -0.6240415364074894
		outer loop
			vertex -4.409987 9.805769 -1.7686681
			vertex -4.6516919 9.8230171 -1.826694
			vertex -4.5888681 10.0662422 -1.512164
		endloop
	endfacet
	facet normal 0.08184629231692152 0.579657431398842 0.8107394443704278
		outer loop
			vertex -5.2136621 7.4134121 0.800445
			vertex -5.1971402 8.1841202 0.247741
			vertex -5.4507408 7.4675102 0.7857
		endloop
	endfacet
	facet normal 0.07997814071866861 0.5801786283429979 0.8105530557719355
		outer loop
			vertex -5.1971402 8.1841202 0.247741
			vertex -5.4342651 8.237957 0.232603
			vertex -5.4507408 7.4675102 0.7857
		endloop
	endfacet
	facet normal -0.64580878930572 0.4624603451208187 0.6075042689942297
		outer loop
			vertex -5.5537882 8.1815491 0.148484
			vertex -5.5690169 7.4187632 0.712963
			vertex -5.4342651 8.237957 0.232603
		endloop
	endfacet
	facet normal -0.5946142458523799 0.4772323624658197 0.6470573165065813
		outer loop
			vertex -5.5690169 7.4187632 0.712963
			vertex -5.4507408 7.4675102 0.7857
			vertex -5.4342651 8.237957 0.232603
		endloop
	endfacet
	facet normal -0.1988141829516326 -0.6381884795075553 -0.7437663512697449
		outer loop
			vertex -5.1806011 7.6131339 -0.229571
			vertex -5.1999269 6.948473 0.345907
			vertex -5.6387949 7.8531661 -0.313052
		endloop
	endfacet
	facet normal -0.2803560849973982 -0.6502848862995914 -0.7060665919410571
		outer loop
			vertex -5.1999269 6.948473 0.345907
			vertex -5.6421962 7.1463041 0.339316
			vertex -5.6387949 7.8531661 -0.313052
		endloop
	endfacet
	facet normal -0.02018251538013113 0.6635973420599474 0.7478176473472019
		outer loop
			vertex -5.6130462 7.8111181 -0.416929
			vertex -5.6196222 7.096302 0.217206
			vertex -5.1806011 7.6131339 -0.229571
		endloop
	endfacet
	facet normal -0.0012613147518283677 0.6545862159012473 0.7559863061175001
		outer loop
			vertex -5.6196222 7.096302 0.217206
			vertex -5.1999269 6.948473 0.345907
			vertex -5.1806011 7.6131339 -0.229571
		endloop
	endfacet
	facet normal -0.6624611815020047 -0.5330216414810203 -0.5263393512894954
		outer loop
			vertex -5.4943981 7.3686829 -0.934587
			vertex -5.4957099 6.6896982 -0.245331
			vertex -5.6470938 7.4909949 -0.866266
		endloop
	endfacet
	facet normal -0.5724937631775586 -0.5670579031015843 -0.5921961040507036
		outer loop
			vertex -5.4957099 6.6896982 -0.245331
			vertex -5.6504049 6.7971821 -0.198704
			vertex -5.6470938 7.4909949 -0.866266
		endloop
	endfacet
	facet normal -0.11805368662545551 -0.7073009537246221 -0.6969854287819645
		outer loop
			vertex -5.4957099 6.6896982 -0.245331
			vertex -5.4943981 7.3686829 -0.934587
			vertex -5.258626 6.6355982 -0.230587
		endloop
	endfacet
	facet normal -0.11602064151997267 -0.7071357428963598 -0.697494266542534
		outer loop
			vertex -5.4943981 7.3686829 -0.934587
			vertex -5.2572742 7.3148451 -0.919448
			vertex -5.258626 6.6355982 -0.230587
		endloop
	endfacet
	facet normal -0.1159748847706173 -0.706970158579108 -0.6976697076561895
		outer loop
			vertex -5.1387119 7.2879281 -0.911881
			vertex -5.1400862 6.6085472 -0.223215
			vertex -5.2572742 7.3148451 -0.919448
		endloop
	endfacet
	facet normal -0.11796467998563831 -0.7069707661226141 -0.6973354071921848
		outer loop
			vertex -5.1400862 6.6085472 -0.223215
			vertex -5.258626 6.6355982 -0.230587
			vertex -5.2572742 7.3148451 -0.919448
		endloop
	endfacet
	facet normal 0.569903222752675 0.5665642451490577 0.5951598716435722
		outer loop
			vertex -5.294817 6.7157001 -0.177055
			vertex -5.1400862 6.6085472 -0.223215
			vertex -5.2913179 7.4110699 -0.842365
		endloop
	endfacet
	facet normal 0.6665087072882977 0.53004633072329 0.5242299403846171
		outer loop
			vertex -5.1400862 6.6085472 -0.223215
			vertex -5.1387119 7.2879281 -0.911881
			vertex -5.2913179 7.4110699 -0.842365
		endloop
	endfacet
	facet normal 0.07128848093092317 -0.6798799745593447 -0.7298501028839732
		outer loop
			vertex -4.875679 7.638948 -0.340844
			vertex -4.9570642 6.8394661 0.395951
			vertex -5.2601891 7.6961341 -0.431672
		endloop
	endfacet
	facet normal 0.21970756817038678 -0.6365073231507897 -0.7393152318626144
		outer loop
			vertex -4.9570642 6.8394661 0.395951
			vertex -5.2688341 6.9714322 0.189685
			vertex -5.2601891 7.6961341 -0.431672
		endloop
	endfacet
	facet normal 0.5281672803330965 0.5417530766573764 0.6538676685062563
		outer loop
			vertex -5.265058 7.834568 -0.188398
			vertex -5.2750411 7.1044478 0.424597
			vertex -4.875679 7.638948 -0.340844
		endloop
	endfacet
	facet normal 0.5178509232611214 0.5506429255436601 0.6546928973391443
		outer loop
			vertex -5.2750411 7.1044478 0.424597
			vertex -4.9570642 6.8394661 0.395951
			vertex -4.875679 7.638948 -0.340844
		endloop
	endfacet
	facet normal 0.9910854003592356 -0.05918571093693471 -0.1193598794221209
		outer loop
			vertex -5.2242532 7.3339062 0.732527
			vertex -5.2750411 7.1044478 0.424597
			vertex -5.2487321 8.060113 0.169174
		endloop
	endfacet
	facet normal 0.9991300276493641 -0.033970929329364914 -0.024190159360378233
		outer loop
			vertex -5.2750411 7.1044478 0.424597
			vertex -5.265058 7.834568 -0.188398
			vertex -5.2487321 8.060113 0.169174
		endloop
	endfacet
	facet normal 0.07986795746573094 0.5797789944821207 0.8108498177391135
		outer loop
			vertex -5.1971402 8.1841202 0.247741
			vertex -5.2136621 7.4134121 0.800445
			vertex -5.078577 8.1572018 0.25531
		endloop
	endfacet
	facet normal 0.08177680123568098 0.5794599934447748 0.8108875820831402
		outer loop
			vertex -5.2136621 7.4134121 0.800445
			vertex -5.0951152 7.386363 0.807819
			vertex -5.078577 8.1572018 0.25531
		endloop
	endfacet
	facet normal -0.9886763815623429 0.10431635715847062 0.1078754382145395
		outer loop
			vertex -5.6387949 7.8531661 -0.313052
			vertex -5.6421962 7.1463041 0.339316
			vertex -5.5537882 8.1815491 0.148484
		endloop
	endfacet
	facet normal -0.9875673105876862 0.10577245161076028 0.11628841532523425
		outer loop
			vertex -5.6421962 7.1463041 0.339316
			vertex -5.5690169 7.4187632 0.712963
			vertex -5.5537882 8.1815491 0.148484
		endloop
	endfacet
	facet normal -0.9458088456347321 0.32060946622454467 -0.05152861036655122
		outer loop
			vertex -5.4309068 8.3968267 -0.746203
			vertex -5.6387949 7.8531661 -0.313052
			vertex -5.3584371 8.6702242 -0.375315
		endloop
	endfacet
	facet normal -0.9457484630076699 0.3204166822669547 -0.05378656378378954
		outer loop
			vertex -5.6387949 7.8531661 -0.313052
			vertex -5.5537882 8.1815491 0.148484
			vertex -5.3584371 8.6702242 -0.375315
		endloop
	endfacet
	facet normal -0.858172263125718 0.4727128489772018 -0.20020721568799782
		outer loop
			vertex -4.7429042 9.6979561 -1.723757
			vertex -5.167006 9.0674448 -1.39459
			vertex -4.6733832 9.984642 -1.344854
		endloop
	endfacet
	facet normal -0.85793656937236 0.4726487967124668 -0.2013652350825313
		outer loop
			vertex -5.167006 9.0674448 -1.39459
			vertex -5.0965509 9.3611431 -1.005396
			vertex -4.6733832 9.984642 -1.344854
		endloop
	endfacet
	facet normal -0.1955923161784032 -0.6592782483357615 0.7260136618021024
		outer loop
			vertex -5.2136621 7.4134121 0.800445
			vertex -5.4507408 7.4675102 0.7857
			vertex -5.332778 7.358151 0.718173
		endloop
	endfacet
	facet normal -0.18354676193648525 -0.6521590064203692 0.7355264893444886
		outer loop
			vertex -5.4507408 7.4675102 0.7857
			vertex -5.5690169 7.4187632 0.712963
			vertex -5.332778 7.358151 0.718173
		endloop
	endfacet
	facet normal -0.18937197105151035 -0.6230644583242878 0.7588998203670415
		outer loop
			vertex -5.0951152 7.386363 0.807819
			vertex -5.2136621 7.4134121 0.800445
			vertex -5.2242532 7.3339062 0.732527
		endloop
	endfacet
	facet normal -0.2366113544970998 -0.6126653726416927 0.7540929704544818
		outer loop
			vertex -5.2136621 7.4134121 0.800445
			vertex -5.332778 7.358151 0.718173
			vertex -5.2242532 7.3339062 0.732527
		endloop
	endfacet
	facet normal 0.5979402164473014 -0.4753895211521693 -0.6453466516018083
		outer loop
			vertex -5.078577 8.1572018 0.25531
			vertex -5.0951152 7.386363 0.807819
			vertex -5.2487321 8.060113 0.169174
		endloop
	endfacet
	facet normal 0.5790388425989538 -0.487455692963402 -0.6535296214856934
		outer loop
			vertex -5.0951152 7.386363 0.807819
			vertex -5.2242532 7.3339062 0.732527
			vertex -5.2487321 8.060113 0.169174
		endloop
	endfacet
	facet normal 0.5420380973986982 -0.7040883301048668 -0.4587530102119653
		outer loop
			vertex -5.0561399 8.5508003 -0.35637
			vertex -4.8847971 8.6354723 -0.283874
			vertex -5.2487321 8.060113 0.169174
		endloop
	endfacet
	facet normal 0.5985706497913027 -0.6938562374879894 -0.40034572422773373
		outer loop
			vertex -4.8847971 8.6354723 -0.283874
			vertex -5.078577 8.1572018 0.25531
			vertex -5.2487321 8.060113 0.169174
		endloop
	endfacet
	facet normal 0.5914362648526617 -0.660280172222889 -0.4628533663985219
		outer loop
			vertex -4.3284392 9.8937511 -1.328586
			vertex -4.1991081 9.9533062 -1.248284
			vertex -4.7985482 9.2394381 -0.995888
		endloop
	endfacet
	facet normal 0.5863663429073002 -0.6589484559551501 -0.4711278428408178
		outer loop
			vertex -4.1991081 9.9533062 -1.248284
			vertex -4.6219831 9.3320017 -0.9056
			vertex -4.7985482 9.2394381 -0.995888
		endloop
	endfacet
	facet normal 0.1855022485620594 0.6220866028643871 -0.7606557528311123
		outer loop
			vertex -4.3520312 10.0102425 -1.5001971
			vertex -4.2345982 10.0524549 -1.437036
			vertex -4.233614 9.9822483 -1.494213
		endloop
	endfacet
	facet normal 0.1891353683960782 0.6216796687331323 -0.7600935481278226
		outer loop
			vertex -4.2345982 10.0524549 -1.437036
			vertex -4.116056 10.0254087 -1.42966
			vertex -4.233614 9.9822483 -1.494213
		endloop
	endfacet
	facet normal 0.18848742764333262 0.617846978949945 -0.7633725173352953
		outer loop
			vertex -4.2345982 10.0524549 -1.437036
			vertex -4.3520312 10.0102425 -1.5001971
			vertex -4.4716821 10.1065559 -1.4517879
		endloop
	endfacet
	facet normal 0.18401783335782013 0.6142829950537014 -0.7673290291616418
		outer loop
			vertex -4.3520312 10.0102425 -1.5001971
			vertex -4.5888681 10.0662422 -1.512164
			vertex -4.4716821 10.1065559 -1.4517879
		endloop
	endfacet
	facet normal 0.2092550073178188 0.7945766173043176 -0.5699652104695935
		outer loop
			vertex -4.3945022 9.744606 -1.898325
			vertex -4.4172339 9.5124474 -2.2303181
			vertex -4.6289692 9.8035936 -1.902173
		endloop
	endfacet
	facet normal 0.21679696990078637 0.7954674779186158 -0.5658891812145146
		outer loop
			vertex -4.4172339 9.5124474 -2.2303181
			vertex -4.654088 9.5688963 -2.241709
			vertex -4.6289692 9.8035936 -1.902173
		endloop
	endfacet
	facet normal -0.8626604599408936 0.44715722118538526 -0.23636275171086155
		outer loop
			vertex -4.7206202 9.6689548 -1.811226
			vertex -4.753828 9.3882294 -2.2211101
			vertex -5.1414642 9.0287504 -1.486414
		endloop
	endfacet
	facet normal -0.8588977528365082 0.45808174228354165 -0.2290322413086678
		outer loop
			vertex -4.753828 9.3882294 -2.2211101
			vertex -5.1810279 8.7353182 -1.924932
			vertex -5.1414642 9.0287504 -1.486414
		endloop
	endfacet
	facet normal -0.9548113240598137 0.2737543428271646 -0.11573199743550842
		outer loop
			vertex -5.4040771 8.3638134 -0.83361
			vertex -5.43431 8.0956144 -1.218585
			vertex -5.6130462 7.8111181 -0.416929
		endloop
	endfacet
	facet normal -0.9562386374347273 0.2676411105818317 -0.11821972848683109
		outer loop
			vertex -5.43431 8.0956144 -1.218585
			vertex -5.6470938 7.4909949 -0.866266
			vertex -5.6130462 7.8111181 -0.416929
		endloop
	endfacet
	facet normal -0.998126815984791 0.04482466546281434 0.04163662544214891
		outer loop
			vertex -5.6504049 6.7971821 -0.198704
			vertex -5.6196222 7.096302 0.217206
			vertex -5.6470938 7.4909949 -0.866266
		endloop
	endfacet
	facet normal -0.9980102171654075 0.04673221029289858 0.042328559562033304
		outer loop
			vertex -5.6196222 7.096302 0.217206
			vertex -5.6130462 7.8111181 -0.416929
			vertex -5.6470938 7.4909949 -0.866266
		endloop
	endfacet
	facet normal -0.2463127868876908 -0.7867255011188228 0.5660326818346765
		outer loop
			vertex -5.3873758 6.9984841 0.182313
			vertex -5.6196222 7.096302 0.217206
			vertex -5.4133449 6.7428622 -0.184275
		endloop
	endfacet
	facet normal -0.2152598025609385 -0.7851908141456992 0.5806363774193278
		outer loop
			vertex -5.6196222 7.096302 0.217206
			vertex -5.6504049 6.7971821 -0.198704
			vertex -5.4133449 6.7428622 -0.184275
		endloop
	endfacet
	facet normal -0.21646084979161087 -0.793557359570142 0.5686927268565672
		outer loop
			vertex -5.2688341 6.9714322 0.189685
			vertex -5.3873758 6.9984841 0.182313
			vertex -5.294817 6.7157001 -0.177055
		endloop
	endfacet
	facet normal -0.21649353861555193 -0.7935555156403848 0.5686828565505027
		outer loop
			vertex -5.3873758 6.9984841 0.182313
			vertex -5.4133449 6.7428622 -0.184275
			vertex -5.294817 6.7157001 -0.177055
		endloop
	endfacet
	facet normal 0.9979480116703866 -0.048120577850712484 -0.04223950745967025
		outer loop
			vertex -5.2601891 7.6961341 -0.431672
			vertex -5.2688341 6.9714322 0.189685
			vertex -5.2913179 7.4110699 -0.842365
		endloop
	endfacet
	facet normal 0.9982350877162515 -0.04360034645244962 -0.04032021132576195
		outer loop
			vertex -5.2688341 6.9714322 0.189685
			vertex -5.294817 6.7157001 -0.177055
			vertex -5.2913179 7.4110699 -0.842365
		endloop
	endfacet
	facet normal 0.9562677946769192 -0.2673358059542046 0.11867380384296107
		outer loop
			vertex -5.077939 8.021822 -1.1859241
			vertex -5.0537701 8.2596474 -0.844928
			vertex -5.2913179 7.4110699 -0.842365
		endloop
	endfacet
	facet normal 0.9568828573145213 -0.2675246302421902 0.1131625803495876
		outer loop
			vertex -5.0537701 8.2596474 -0.844928
			vertex -5.2601891 7.6961341 -0.431672
			vertex -5.2913179 7.4110699 -0.842365
		endloop
	endfacet
	facet normal 0.8642205976620931 -0.4500569290165542 0.22488112241974287
		outer loop
			vertex -4.4070611 9.3162594 -2.1880951
			vertex -4.3689942 9.5801563 -1.806247
			vertex -4.82339 8.6726484 -1.876204
		endloop
	endfacet
	facet normal 0.858510325288667 -0.44896259734691113 0.2477753166807834
		outer loop
			vertex -4.3689942 9.5801563 -1.806247
			vertex -4.7955551 8.9312267 -1.5041111
			vertex -4.82339 8.6726484 -1.876204
		endloop
	endfacet
	facet normal 0.22515630543572812 0.7911561554939907 -0.5686620927637975
		outer loop
			vertex -4.4172339 9.5124474 -2.2303181
			vertex -4.3945022 9.744606 -1.898325
			vertex -4.3098779 9.4937496 -2.213825
		endloop
	endfacet
	facet normal 0.2161529291502825 0.7916462331339986 -0.5714666681307875
		outer loop
			vertex -4.3945022 9.744606 -1.898325
			vertex -4.2759581 9.7175608 -1.890952
			vertex -4.3098779 9.4937496 -2.213825
		endloop
	endfacet
	facet normal -0.5915987190652262 0.6498084482804245 0.4772420100365962
		outer loop
			vertex -4.9776702 9.4127569 -0.928306
			vertex -5.0965509 9.3611431 -1.005396
			vertex -5.2404308 8.7165594 -0.306093
		endloop
	endfacet
	facet normal -0.5543951252320781 0.6656754576853702 0.49952200167187977
		outer loop
			vertex -5.0965509 9.3611431 -1.005396
			vertex -5.3584371 8.6702242 -0.375315
			vertex -5.2404308 8.7165594 -0.306093
		endloop
	endfacet
	facet normal 0.09883530226353306 0.6417965391088931 0.7604793129430433
		outer loop
			vertex -5.0033412 8.6624994 -0.291283
			vertex -4.7405472 9.3589201 -0.913172
			vertex -5.2404308 8.7165594 -0.306093
		endloop
	endfacet
	facet normal 0.09737191509067221 0.6425290601609738 0.7600494174724634
		outer loop
			vertex -4.7405472 9.3589201 -0.913172
			vertex -4.9776702 9.4127569 -0.928306
			vertex -5.2404308 8.7165594 -0.306093
		endloop
	endfacet
	facet normal 0.09721353693365022 0.6420916976023029 0.7604392021108872
		outer loop
			vertex -4.6219831 9.3320017 -0.9056
			vertex -4.7405472 9.3589201 -0.913172
			vertex -4.8847971 8.6354723 -0.283874
		endloop
	endfacet
	facet normal 0.0987972231373476 0.6418072526770501 0.7604752192619341
		outer loop
			vertex -4.7405472 9.3589201 -0.913172
			vertex -5.0033412 8.6624994 -0.291283
			vertex -4.8847971 8.6354723 -0.283874
		endloop
	endfacet
	facet normal 0.586476121839045 -0.6580011747596947 -0.47231368022480086
		outer loop
			vertex -4.7985482 9.2394381 -0.995888
			vertex -4.6219831 9.3320017 -0.9056
			vertex -5.0561399 8.5508003 -0.35637
		endloop
	endfacet
	facet normal 0.5448363279306783 -0.6633924320489192 -0.5128975110752974
		outer loop
			vertex -4.6219831 9.3320017 -0.9056
			vertex -4.8847971 8.6354723 -0.283874
			vertex -5.0561399 8.5508003 -0.35637
		endloop
	endfacet
	facet normal 0.961826111627448 -0.2389410006515461 0.13340813018426623
		outer loop
			vertex -4.8057799 9.0294666 -1.31982
			vertex -4.7985482 9.2394381 -0.995888
			vertex -5.0638151 8.3622122 -0.654564
		endloop
	endfacet
	facet normal 0.9620285036468775 -0.2411931619808665 0.12777721543616916
		outer loop
			vertex -4.7985482 9.2394381 -0.995888
			vertex -5.0561399 8.5508003 -0.35637
			vertex -5.0638151 8.3622122 -0.654564
		endloop
	endfacet
	facet normal 0.5199841938859642 0.5102462360738429 0.685029354612808
		outer loop
			vertex -4.568953 8.9472494 -1.4383481
			vertex -4.8057799 9.0294666 -1.31982
			vertex -4.7393012 8.2286377 -0.773782
		endloop
	endfacet
	facet normal 0.4751331727600428 0.5222836968123039 0.7081442001365603
		outer loop
			vertex -4.8057799 9.0294666 -1.31982
			vertex -5.0638151 8.3622122 -0.654564
			vertex -4.7393012 8.2286377 -0.773782
		endloop
	endfacet
	facet normal 0.23865386180443454 -0.7254349213439485 -0.6455915962437315
		outer loop
			vertex -4.7955551 8.9312267 -1.5041111
			vertex -4.568953 8.9472494 -1.4383481
			vertex -5.0537701 8.2596474 -0.844928
		endloop
	endfacet
	facet normal 0.09495276682589036 -0.6879312361634348 -0.7195377588304568
		outer loop
			vertex -4.568953 8.9472494 -1.4383481
			vertex -4.7393012 8.2286377 -0.773782
			vertex -5.0537701 8.2596474 -0.844928
		endloop
	endfacet
	facet normal 0.9594944915710072 -0.25986580819981564 0.1088121425832214
		outer loop
			vertex -4.82339 8.6726484 -1.876204
			vertex -4.7955551 8.9312267 -1.5041111
			vertex -5.077939 8.021822 -1.1859241
		endloop
	endfacet
	facet normal 0.9594266646425417 -0.2586035293321547 0.11235964484565344
		outer loop
			vertex -4.7955551 8.9312267 -1.5041111
			vertex -5.0537701 8.2596474 -0.844928
			vertex -5.077939 8.021822 -1.1859241
		endloop
	endfacet
	facet normal 0.6713699575472503 0.41519559344509854 0.6139014573095393
		outer loop
			vertex -4.6713939 8.5431204 -1.954826
			vertex -4.82339 8.6726484 -1.876204
			vertex -4.9242411 7.9046202 -1.246477
		endloop
	endfacet
	facet normal 0.6048736130734498 0.45590397062187726 0.6529008207826645
		outer loop
			vertex -4.82339 8.6726484 -1.876204
			vertex -5.077939 8.021822 -1.1859241
			vertex -4.9242411 7.9046202 -1.246477
		endloop
	endfacet
	facet normal -0.1187093211733148 -0.7162245983698285 -0.6876993687335685
		outer loop
			vertex -4.7899561 8.5700369 -1.962393
			vertex -4.6713939 8.5431204 -1.954826
			vertex -5.042789 7.9316502 -1.253883
		endloop
	endfacet
	facet normal -0.12019897922163171 -0.715676828376381 -0.6880108158446363
		outer loop
			vertex -4.6713939 8.5431204 -1.954826
			vertex -4.9242411 7.9046202 -1.246477
			vertex -5.042789 7.9316502 -1.253883
		endloop
	endfacet
	facet normal -0.12031742102215791 -0.7160687050769046 -0.6875822334877929
		outer loop
			vertex -5.27988 7.9857092 -1.268694
			vertex -5.0270801 8.6238737 -1.9775341
			vertex -5.042789 7.9316502 -1.253883
		endloop
	endfacet
	facet normal -0.11870098321619268 -0.7162268710213814 -0.6876984410411519
		outer loop
			vertex -5.0270801 8.6238737 -1.9775341
			vertex -4.7899561 8.5700369 -1.962393
			vertex -5.042789 7.9316502 -1.253883
		endloop
	endfacet
	facet normal -0.5780670358572358 -0.49086508628619097 -0.651835845225222
		outer loop
			vertex -5.1810279 8.7353182 -1.924932
			vertex -5.0270801 8.6238737 -1.9775341
			vertex -5.43431 8.0956144 -1.218585
		endloop
	endfacet
	facet normal -0.5681536805269075 -0.5005005045937827 -0.6532232697976228
		outer loop
			vertex -5.0270801 8.6238737 -1.9775341
			vertex -5.27988 7.9857092 -1.268694
			vertex -5.43431 8.0956144 -1.218585
		endloop
	endfacet
	facet normal -0.9551177940598153 0.2787180224572711 -0.10033077009482318
		outer loop
			vertex -5.1414642 9.0287504 -1.486414
			vertex -5.1810279 8.7353182 -1.924932
			vertex -5.4040771 8.3638134 -0.83361
		endloop
	endfacet
	facet normal -0.9592105129566908 0.26167282480784526 -0.10696973679711942
		outer loop
			vertex -5.1810279 8.7353182 -1.924932
			vertex -5.43431 8.0956144 -1.218585
			vertex -5.4040771 8.3638134 -0.83361
		endloop
	endfacet
	facet normal 0.09365567067099967 0.6918452884459811 0.7159460260426497
		outer loop
			vertex -4.7785292 8.822485 -1.334569
			vertex -5.1414642 9.0287504 -1.486414
			vertex -4.9766421 8.1595507 -0.668035
		endloop
	endfacet
	facet normal 0.04970844217044028 0.6896347880349661 0.7224492576707068
		outer loop
			vertex -5.1414642 9.0287504 -1.486414
			vertex -5.4040771 8.3638134 -0.83361
			vertex -4.9766421 8.1595507 -0.668035
		endloop
	endfacet
	facet normal -0.2709905855731174 -0.6118389670109484 -0.7431131683517085
		outer loop
			vertex -5.167006 9.0674448 -1.39459
			vertex -4.7785292 8.822485 -1.334569
			vertex -5.4309068 8.3968267 -0.746203
		endloop
	endfacet
	facet normal -0.21990250198713068 -0.6582022362362647 -0.7200088234413385
		outer loop
			vertex -4.7785292 8.822485 -1.334569
			vertex -4.9766421 8.1595507 -0.668035
			vertex -5.4309068 8.3968267 -0.746203
		endloop
	endfacet
	facet normal -0.9501186350283878 0.3062382924320512 -0.05909896462794413
		outer loop
			vertex -5.0965509 9.3611431 -1.005396
			vertex -5.167006 9.0674448 -1.39459
			vertex -5.3584371 8.6702242 -0.375315
		endloop
	endfacet
	facet normal -0.9454590218937479 0.321520232186029 -0.05226832898380738
		outer loop
			vertex -5.167006 9.0674448 -1.39459
			vertex -5.4309068 8.3968267 -0.746203
			vertex -5.3584371 8.6702242 -0.375315
		endloop
	endfacet
	facet normal -0.40030061541414025 0.8992179225589344 0.17654049124168347
		outer loop
			vertex -4.4716821 10.1065559 -1.4517879
			vertex -4.5888681 10.0662422 -1.512164
			vertex -4.5547929 10.0340624 -1.27099
		endloop
	endfacet
	facet normal -0.4726068314148909 0.8623107858286106 0.18183204212575188
		outer loop
			vertex -4.5888681 10.0662422 -1.512164
			vertex -4.6733832 9.984642 -1.344854
			vertex -4.5547929 10.0340624 -1.27099
		endloop
	endfacet
	facet normal 0.1733264426467047 0.8849364814609145 0.4322561370981508
		outer loop
			vertex -4.317668 9.9802246 -1.2558531
			vertex -4.2345982 10.0524549 -1.437036
			vertex -4.5547929 10.0340624 -1.27099
		endloop
	endfacet
	facet normal 0.17458728656078604 0.8835709081942434 0.43453622353509513
		outer loop
			vertex -4.2345982 10.0524549 -1.437036
			vertex -4.4716821 10.1065559 -1.4517879
			vertex -4.5547929 10.0340624 -1.27099
		endloop
	endfacet
	facet normal 0.1750005634800514 0.8847971393668809 0.4318666749702377
		outer loop
			vertex -4.116056 10.0254087 -1.42966
			vertex -4.2345982 10.0524549 -1.437036
			vertex -4.1991081 9.9533062 -1.248284
		endloop
	endfacet
	facet normal 0.17332428474542733 0.8849372397218143 0.4322554500188775
		outer loop
			vertex -4.2345982 10.0524549 -1.437036
			vertex -4.317668 9.9802246 -1.2558531
			vertex -4.1991081 9.9533062 -1.248284
		endloop
	endfacet
	facet normal 0.43851739404127216 -0.8725837486720162 -0.21517457256084768
		outer loop
			vertex -4.233614 9.9822483 -1.494213
			vertex -4.116056 10.0254087 -1.42966
			vertex -4.3284392 9.8937511 -1.328586
		endloop
	endfacet
	facet normal 0.4785489034935649 -0.8689301452488113 -0.12629865257787365
		outer loop
			vertex -4.116056 10.0254087 -1.42966
			vertex -4.1991081 9.9533062 -1.248284
			vertex -4.3284392 9.8937511 -1.328586
		endloop
	endfacet
	facet normal 0.8579073201272283 -0.4809639224711242 0.18074494558163418
		outer loop
			vertex -4.2914472 9.7787218 -1.7612931
			vertex -4.233614 9.9822483 -1.494213
			vertex -4.3816781 9.6599779 -1.64899
		endloop
	endfacet
	facet normal 0.842363720203466 -0.4923039931020267 0.21922623305794622
		outer loop
			vertex -4.233614 9.9822483 -1.494213
			vertex -4.3284392 9.8937511 -1.328586
			vertex -4.3816781 9.6599779 -1.64899
		endloop
	endfacet
	facet normal 0.24686278024793687 0.39513780376400504 0.8848304265591331
		outer loop
			vertex -4.096838 9.5742159 -1.724262
			vertex -4.2914472 9.7787218 -1.7612931
			vertex -4.1808972 9.4683018 -1.653512
		endloop
	endfacet
	facet normal 0.4270427134846426 0.42854304369142954 0.7962319891610481
		outer loop
			vertex -4.2914472 9.7787218 -1.7612931
			vertex -4.3816781 9.6599779 -1.64899
			vertex -4.1808972 9.4683018 -1.653512
		endloop
	endfacet
	facet normal 0.21536009925386468 -0.6139576948933428 -0.7593918464999597
		outer loop
			vertex -4.2759581 9.7175608 -1.890952
			vertex -4.096838 9.5742159 -1.724262
			vertex -4.3689942 9.5801563 -1.806247
		endloop
	endfacet
	facet normal 0.20581613571098403 -0.6512582037625326 -0.7304125343345343
		outer loop
			vertex -4.096838 9.5742159 -1.724262
			vertex -4.1808972 9.4683018 -1.653512
			vertex -4.3689942 9.5801563 -1.806247
		endloop
	endfacet
	facet normal 0.8691622500469244 -0.44447471623052254 0.21679301124612912
		outer loop
			vertex -4.3098779 9.4937496 -2.213825
			vertex -4.2759581 9.7175608 -1.890952
			vertex -4.4070611 9.3162594 -2.1880951
		endloop
	endfacet
	facet normal 0.8655139317989976 -0.4482531493090448 0.22350558828889147
		outer loop
			vertex -4.2759581 9.7175608 -1.890952
			vertex -4.3689942 9.5801563 -1.806247
			vertex -4.4070611 9.3162594 -2.1880951
		endloop
	endfacet
	facet normal 0.1913030757095513 -0.05590215050172922 0.9799377953693529
		outer loop
			vertex -4.1426921 9.3898144 -2.2523921
			vertex -4.3098779 9.4937496 -2.213825
			vertex -4.243607 9.2012587 -2.243448
		endloop
	endfacet
	facet normal 0.3030126463645978 -0.02782092387855845 0.9525803547930571
		outer loop
			vertex -4.3098779 9.4937496 -2.213825
			vertex -4.4070611 9.3162594 -2.1880951
			vertex -4.243607 9.2012587 -2.243448
		endloop
	endfacet
	facet normal 0.04586429748427029 -0.07074068075356477 -0.9964397735451935
		outer loop
			vertex -4.2612352 9.4168673 -2.259769
			vertex -4.1426921 9.3898144 -2.2523921
			vertex -4.3621669 9.228178 -2.251019
		endloop
	endfacet
	facet normal 0.0471583282226757 -0.0724961697713416 -0.9962531793915277
		outer loop
			vertex -4.1426921 9.3898144 -2.2523921
			vertex -4.243607 9.2012587 -2.243448
			vertex -4.3621669 9.228178 -2.251019
		endloop
	endfacet
	facet normal 0.0477919250016366 -0.06965810948007978 -0.9964254511443892
		outer loop
			vertex -4.5992932 9.2820148 -2.266156
			vertex -4.4983191 9.4709654 -2.2745221
			vertex -4.3621669 9.228178 -2.251019
		endloop
	endfacet
	facet normal 0.04586412029908602 -0.07074058666347452 -0.9964397883804613
		outer loop
			vertex -4.4983191 9.4709654 -2.2745221
			vertex -4.2612352 9.4168673 -2.259769
			vertex -4.3621669 9.228178 -2.251019
		endloop
	endfacet
	facet normal -0.20513189732195664 0.001655164889927954 -0.9787329386151675
		outer loop
			vertex -4.654088 9.5688963 -2.241709
			vertex -4.4983191 9.4709654 -2.2745221
			vertex -4.753828 9.3882294 -2.2211101
		endloop
	endfacet
	facet normal -0.22846130900433403 0.07912533062402487 -0.9703322175119535
		outer loop
			vertex -4.4983191 9.4709654 -2.2745221
			vertex -4.5992932 9.2820148 -2.266156
			vertex -4.753828 9.3882294 -2.2211101
		endloop
	endfacet
	facet normal -0.8699947150037196 0.4333552582964293 -0.23518591788717222
		outer loop
			vertex -4.6289692 9.8035936 -1.902173
			vertex -4.654088 9.5688963 -2.241709
			vertex -4.7206202 9.6689548 -1.811226
		endloop
	endfacet
	facet normal -0.861617479705569 0.44859819336145246 -0.23743415840747156
		outer loop
			vertex -4.654088 9.5688963 -2.241709
			vertex -4.753828 9.3882294 -2.2211101
			vertex -4.7206202 9.6689548 -1.811226
		endloop
	endfacet
	facet normal -0.04553670566599632 0.5763979006493393 0.8158994230688749
		outer loop
			vertex -4.2433252 9.5754204 -1.719455
			vertex -4.6289692 9.8035936 -1.902173
			vertex -4.3878441 9.4422264 -1.633425
		endloop
	endfacet
	facet normal -0.04122548371616039 0.5783939250748474 0.8147152428480029
		outer loop
			vertex -4.6289692 9.8035936 -1.902173
			vertex -4.7206202 9.6689548 -1.811226
			vertex -4.3878441 9.4422264 -1.633425
		endloop
	endfacet
	facet normal -0.1328989397961219 -0.5702894322228097 -0.8106218818265717
		outer loop
			vertex -4.6516919 9.8230171 -1.826694
			vertex -4.2433252 9.5754204 -1.719455
			vertex -4.7429042 9.6979561 -1.723757
		endloop
	endfacet
	facet normal -0.10451013430699178 -0.4570980573784481 -0.8832547751175668
		outer loop
			vertex -4.2433252 9.5754204 -1.719455
			vertex -4.3878441 9.4422264 -1.633425
			vertex -4.7429042 9.6979561 -1.723757
		endloop
	endfacet
	facet normal -0.8554448052349347 0.4781744481193813 -0.19890546086593522
		outer loop
			vertex -4.5888681 10.0662422 -1.512164
			vertex -4.6516919 9.8230171 -1.826694
			vertex -4.6733832 9.984642 -1.344854
		endloop
	endfacet
	facet normal -0.861992482855754 0.4676365893703768 -0.19566547928087485
		outer loop
			vertex -4.6516919 9.8230171 -1.826694
			vertex -4.7429042 9.6979561 -1.723757
			vertex -4.6733832 9.984642 -1.344854
		endloop
	endfacet
endsolid exported
