solid exported
	facet normal 0.20762962224812304 0.9505269086524636 0.2310595938122738
		outer loop
			vertex 1.893732 5.1250882 0.810449
			vertex 1.7526881 5.11023 0.998314
			vertex 2.4338391 4.9908042 0.877524
		endloop
	endfacet
	facet normal 0.20989294810121897 0.9455548765162749 0.24873866975939046
		outer loop
			vertex 1.7526881 5.11023 0.998314
			vertex 2.1352601 4.959372 1.24896
			vertex 2.4338391 4.9908042 0.877524
		endloop
	endfacet
	facet normal 0.48259259034602675 0.8529251492209635 0.19905547359846493
		outer loop
			vertex 2.8878801 5.4942641 -1.405542
			vertex 2.5794179 5.8354559 -2.119662
			vertex 2.4276559 5.9138789 -2.08776
		endloop
	endfacet
	facet normal 0.45960115707393917 0.6381292019810484 0.6177037299509586
		outer loop
			vertex 2.4276559 5.9138789 -2.08776
			vertex 2.5794179 5.8354559 -2.119662
			vertex 2.225574 6.6202559 -2.667136
		endloop
	endfacet
	facet normal 0.31085240535508846 -0.4475709228246126 -0.8384813958144097
		outer loop
			vertex 2.1696711 6.5586939 -2.655
			vertex 2.074836 6.8107109 -2.824682
			vertex 2.225574 6.6202559 -2.667136
		endloop
	endfacet
	facet normal -0.27528999288484474 -0.7327131318031002 -0.6223719838655617
		outer loop
			vertex 2.074836 6.8107109 -2.824682
			vertex 2.122838 6.8049321 -2.8391111
			vertex 2.225574 6.6202559 -2.667136
		endloop
	endfacet
	facet normal 0.24476580284476154 0.9205264914935273 0.30450070643001254
		outer loop
			vertex 2.843138 5.288671 -0.460498
			vertex 2.5400729 5.2250528 -0.024564
			vertex 3.0040841 5.1527681 -0.179027
		endloop
	endfacet
	facet normal 0.35373110220480974 0.905376262745888 0.2348789692357732
		outer loop
			vertex 3.0040841 5.1527681 -0.179027
			vertex 3.0035191 5.3007112 -0.748445
			vertex 2.843138 5.288671 -0.460498
		endloop
	endfacet
	facet normal 0.3832375830915641 0.8889962053985501 0.2506286130774288
		outer loop
			vertex 2.843138 5.288671 -0.460498
			vertex 3.0035191 5.3007112 -0.748445
			vertex 2.7468071 5.6018682 -1.424129
		endloop
	endfacet
	facet normal 0.718395580090836 -0.6731075978981546 -0.17559599129173603
		outer loop
			vertex 3.0035191 5.3007112 -0.748445
			vertex 3.0040841 5.1527681 -0.179027
			vertex 2.8642571 5.1506391 -0.742924
		endloop
	endfacet
	facet normal 0.841622382439728 -0.4989003005550677 -0.20680970838560594
		outer loop
			vertex 3.0040841 5.1527681 -0.179027
			vertex 2.8802681 4.9990768 -0.312143
			vertex 2.8642571 5.1506391 -0.742924
		endloop
	endfacet
	facet normal -0.04626727906534529 -0.9428453508184504 -0.33000300502862506
		outer loop
			vertex 2.8802681 4.9990768 -0.312143
			vertex 2.450429 5.015471 -0.298718
			vertex 2.8642571 5.1506391 -0.742924
		endloop
	endfacet
	facet normal -0.005176497351479011 -0.9553228123711406 -0.2955190823592694
		outer loop
			vertex 2.450429 5.015471 -0.298718
			vertex 2.5570149 5.1717391 -0.805752
			vertex 2.8642571 5.1506391 -0.742924
		endloop
	endfacet
	facet normal -0.3336615323265276 -0.8788550769358595 -0.3410040111048227
		outer loop
			vertex 2.450429 5.015471 -0.298718
			vertex 1.932855 5.3193889 -0.575563
			vertex 2.5570149 5.1717391 -0.805752
		endloop
	endfacet
	facet normal -0.3321970647251367 -0.8816142184253623 -0.3352632995993461
		outer loop
			vertex 1.932855 5.3193889 -0.575563
			vertex 2.023041 5.4958491 -1.128947
			vertex 2.5570149 5.1717391 -0.805752
		endloop
	endfacet
	facet normal -0.7597521079600792 -0.5733614215616624 -0.3066486828848379
		outer loop
			vertex 1.932855 5.3193889 -0.575563
			vertex 1.700068 5.707128 -0.723792
			vertex 2.023041 5.4958491 -1.128947
		endloop
	endfacet
	facet normal -0.7317648727661896 -0.6327019965690981 -0.2533936749860965
		outer loop
			vertex 1.700068 5.707128 -0.723792
			vertex 1.751906 5.850564 -1.23164
			vertex 2.023041 5.4958491 -1.128947
		endloop
	endfacet
	facet normal -0.5822964810910743 0.8115505744733292 0.048129753593403726
		outer loop
			vertex 2.057529 6.379179 -1.307652
			vertex 1.8894221 6.2602072 -1.3354191
			vertex 1.961912 6.2857499 -0.889096
		endloop
	endfacet
	facet normal -0.7261194178456184 0.6830331211481663 0.07884381042374003
		outer loop
			vertex 1.8894221 6.2602072 -1.3354191
			vertex 1.7967891 6.085454 -0.674624
			vertex 1.961912 6.2857499 -0.889096
		endloop
	endfacet
	facet normal 0.7704554376651936 0.5617451443436722 0.30139809451693944
		outer loop
			vertex 1.961912 6.2857499 -0.889096
			vertex 2.043236 6.183207 -0.905863
			vertex 2.057529 6.379179 -1.307652
		endloop
	endfacet
	facet normal 0.9464879906357974 0.27552975471900787 0.16805903083944804
		outer loop
			vertex 2.115685 6.2753892 -1.465018
			vertex 2.057529 6.379179 -1.307652
			vertex 2.043236 6.183207 -0.905863
		endloop
	endfacet
	facet normal 0.6674141935162026 -0.5174679830019988 -0.5355232776088825
		outer loop
			vertex 2.8878801 5.4942641 -1.405542
			vertex 2.6905401 5.315402 -1.478652
			vertex 2.5794179 5.8354559 -2.119662
		endloop
	endfacet
	facet normal 0.4132917695011104 -0.6707670714240767 -0.61584206510745
		outer loop
			vertex 2.6905401 5.315402 -1.478652
			vertex 2.4460709 5.7365141 -2.1013851
			vertex 2.5794179 5.8354559 -2.119662
		endloop
	endfacet
	facet normal -0.2141884307482294 -0.828603217603076 -0.5172427127678461
		outer loop
			vertex 2.2445991 5.8164902 -2.146075
			vertex 2.4460709 5.7365141 -2.1013851
			vertex 2.4186201 5.3226199 -1.426975
		endloop
	endfacet
	facet normal -0.12174564195032768 -0.8437368837664996 -0.5227677014105782
		outer loop
			vertex 2.4460709 5.7365141 -2.1013851
			vertex 2.6905401 5.315402 -1.478652
			vertex 2.4186201 5.3226199 -1.426975
		endloop
	endfacet
	facet normal -0.5392243964818794 -0.7686606097498688 -0.34408998424498344
		outer loop
			vertex 2.0514441 5.7025719 -1.700345
			vertex 2.0067921 5.9347191 -2.148963
			vertex 2.4186201 5.3226199 -1.426975
		endloop
	endfacet
	facet normal -0.3921294037769121 -0.7998339694889107 -0.454422877884879
		outer loop
			vertex 2.0067921 5.9347191 -2.148963
			vertex 2.2445991 5.8164902 -2.146075
			vertex 2.4186201 5.3226199 -1.426975
		endloop
	endfacet
	facet normal -0.7576908802270353 -0.6073300061706063 -0.2388614527829726
		outer loop
			vertex 2.0067921 5.9347191 -2.148963
			vertex 2.0514441 5.7025719 -1.700345
			vertex 1.8266 6.1605401 -2.1515501
		endloop
	endfacet
	facet normal -0.7056006296032699 -0.6419781000900187 -0.2999864505411522
		outer loop
			vertex 2.0514441 5.7025719 -1.700345
			vertex 1.7861741 6.0343971 -1.786515
			vertex 1.8266 6.1605401 -2.1515501
		endloop
	endfacet
	facet normal -0.5077645568238482 0.8070800263869281 0.3013253820054932
		outer loop
			vertex 1.896059 6.366735 -1.811954
			vertex 2.1565361 6.5188642 -1.780491
			vertex 1.928658 6.5196381 -2.1665621
		endloop
	endfacet
	facet normal -0.4860782039383582 0.8249004003525169 0.28856075470222436
		outer loop
			vertex 2.1565361 6.5188642 -1.780491
			vertex 2.183306 6.6450958 -2.096252
			vertex 1.928658 6.5196381 -2.1665621
		endloop
	endfacet
	facet normal 0.9960507708894601 0.009566524610339815 0.0882685868097595
		outer loop
			vertex 2.1565361 6.5188642 -1.780491
			vertex 2.1592591 6.3445401 -1.792325
			vertex 2.183306 6.6450958 -2.096252
		endloop
	endfacet
	facet normal 0.9907598235319528 0.04872456869217221 0.1265736484450692
		outer loop
			vertex 2.1592591 6.3445401 -1.792325
			vertex 2.2124059 6.6645489 -2.331521
			vertex 2.183306 6.6450958 -2.096252
		endloop
	endfacet
	facet normal 0.934070436661383 0.3273790047132529 0.14260226726168648
		outer loop
			vertex 2.162724 6.8536081 -2.4401281
			vertex 2.183306 6.6450958 -2.096252
			vertex 2.2124059 6.6645489 -2.331521
		endloop
	endfacet
	facet normal 0.7543492627251656 0.4845144379002479 0.442948020982379
		outer loop
			vertex 1.385633 6.073534 0.274346
			vertex 1.091673 6.0162091 0.83767
			vertex 1.447523 5.9448581 0.309697
		endloop
	endfacet
	facet normal 0.7896054385812503 0.38145882921650826 0.48063750683408213
		outer loop
			vertex 1.091673 6.0162091 0.83767
			vertex 1.143543 5.9007812 0.844066
			vertex 1.447523 5.9448581 0.309697
		endloop
	endfacet
	facet normal 0.7772720954821916 0.4335464549450354 0.4559446907129366
		outer loop
			vertex 1.76035 6.043993 -0.31786
			vertex 1.614006 6.135819 -0.155695
			vertex 1.447523 5.9448581 0.309697
		endloop
	endfacet
	facet normal 0.7417403739292578 0.48424338984580295 0.464036159231078
		outer loop
			vertex 1.447523 5.9448581 0.309697
			vertex 1.614006 6.135819 -0.155695
			vertex 1.385633 6.073534 0.274346
		endloop
	endfacet
	facet normal 0.7775187471295382 0.4318623145821171 0.4571209239423306
		outer loop
			vertex 1.76035 6.043993 -0.31786
			vertex 1.961912 6.2857499 -0.889096
			vertex 1.614006 6.135819 -0.155695
		endloop
	endfacet
	facet normal 0.7278370021601792 0.5005932206634629 0.46867870200411826
		outer loop
			vertex 1.76035 6.043993 -0.31786
			vertex 2.043236 6.183207 -0.905863
			vertex 1.961912 6.2857499 -0.889096
		endloop
	endfacet
	facet normal 0.9491576771242238 0.25769968791532305 0.18080535059696878
		outer loop
			vertex 2.115685 6.2753892 -1.465018
			vertex 2.1592591 6.3445401 -1.792325
			vertex 2.057529 6.379179 -1.307652
		endloop
	endfacet
	facet normal 0.9786927846291413 0.0013489641879767685 0.20532562823592368
		outer loop
			vertex 2.1592591 6.3445401 -1.792325
			vertex 2.1565361 6.5188642 -1.780491
			vertex 2.057529 6.379179 -1.307652
		endloop
	endfacet
	facet normal -0.10336375343184093 0.44766934237323347 -0.8882049844352363
		outer loop
			vertex 2.143095 6.9976301 -2.771924
			vertex 2.129859 6.8815079 -2.8289111
			vertex 2.116292 7.106297 -2.714035
		endloop
	endfacet
	facet normal -0.6006978165420204 0.3347661668538179 -0.7260122221640977
		outer loop
			vertex 2.129859 6.8815079 -2.8289111
			vertex 2.0932209 6.9050102 -2.78776
			vertex 2.116292 7.106297 -2.714035
		endloop
	endfacet
	facet normal -0.7818013041398025 0.547056059266672 -0.29919289574607827
		outer loop
			vertex 0.981583 5.8488779 0.819384
			vertex 1.091673 6.0162091 0.83767
			vertex 1.28212 5.944067 0.208118
		endloop
	endfacet
	facet normal -0.6737588329855897 0.6829909049954267 -0.2820859065381049
		outer loop
			vertex 1.091673 6.0162091 0.83767
			vertex 1.385633 6.073534 0.274346
			vertex 1.28212 5.944067 0.208118
		endloop
	endfacet
	facet normal -0.7702808944474296 0.5456650396195594 -0.33002576897304936
		outer loop
			vertex 1.614006 6.135819 -0.155695
			vertex 1.55007 6.01192 -0.211323
			vertex 1.385633 6.073534 0.274346
		endloop
	endfacet
	facet normal -0.6588781657009599 0.6853896249485473 -0.31003326398215447
		outer loop
			vertex 1.55007 6.01192 -0.211323
			vertex 1.28212 5.944067 0.208118
			vertex 1.385633 6.073534 0.274346
		endloop
	endfacet
	facet normal -0.8712323173983806 0.3529630205419484 -0.3411324599778677
		outer loop
			vertex 1.961912 6.2857499 -0.889096
			vertex 1.7967891 6.085454 -0.674624
			vertex 1.614006 6.135819 -0.155695
		endloop
	endfacet
	facet normal -0.7729401598568953 0.5448408776712635 -0.3251337068019935
		outer loop
			vertex 1.7967891 6.085454 -0.674624
			vertex 1.55007 6.01192 -0.211323
			vertex 1.614006 6.135819 -0.155695
		endloop
	endfacet
	facet normal -0.5119668656371126 0.8470148801554482 0.1430234990655812
		outer loop
			vertex 2.1565361 6.5188642 -1.780491
			vertex 1.896059 6.366735 -1.811954
			vertex 2.057529 6.379179 -1.307652
		endloop
	endfacet
	facet normal -0.5878159359809558 0.7912126075577495 0.1686862028990503
		outer loop
			vertex 1.896059 6.366735 -1.811954
			vertex 1.8894221 6.2602072 -1.3354191
			vertex 2.057529 6.379179 -1.307652
		endloop
	endfacet
	facet normal -0.9798485875479995 0.1936527975922238 -0.04894220535382214
		outer loop
			vertex 1.928658 6.5196381 -2.1665621
			vertex 2.011673 6.8577499 -2.490737
			vertex 1.992617 6.747807 -2.5442441
		endloop
	endfacet
	facet normal -0.3649541604188946 -0.9302883368380451 -0.037041478588787716
		outer loop
			vertex 1.639021 4.956676 1.038447
			vertex 1.133303 5.1610742 0.88766
			vertex 1.846981 4.8864532 0.753134
		endloop
	endfacet
	facet normal -0.38481090051583455 -0.9002242793845545 -0.2037567609939655
		outer loop
			vertex 1.133303 5.1610742 0.88766
			vertex 1.4563611 5.157527 0.293211
			vertex 1.846981 4.8864532 0.753134
		endloop
	endfacet
	facet normal -0.47257851998977274 -0.8739217088014581 -0.11371186978418484
		outer loop
			vertex 1.4563611 5.157527 0.293211
			vertex 2.0019481 4.8340092 0.512155
			vertex 1.846981 4.8864532 0.753134
		endloop
	endfacet
	facet normal -0.7840377199002587 -0.43086282705706525 -0.44681324737970446
		outer loop
			vertex 1.5295 5.5958881 -0.25768
			vertex 1.691429 5.2030411 -0.162999
			vertex 1.278255 5.5700951 0.20806
		endloop
	endfacet
	facet normal -0.7840364434558632 -0.43071767626633356 -0.44695541017512125
		outer loop
			vertex 1.691429 5.2030411 -0.162999
			vertex 1.4563611 5.157527 0.293211
			vertex 1.278255 5.5700951 0.20806
		endloop
	endfacet
	facet normal -0.711112740833021 -0.5792608651760144 -0.3984664601951892
		outer loop
			vertex 1.700068 5.707128 -0.723792
			vertex 1.932855 5.3193889 -0.575563
			vertex 1.5295 5.5958881 -0.25768
		endloop
	endfacet
	facet normal -0.7219311337444337 -0.428519892276893 -0.5433103533464796
		outer loop
			vertex 1.932855 5.3193889 -0.575563
			vertex 1.691429 5.2030411 -0.162999
			vertex 1.5295 5.5958881 -0.25768
		endloop
	endfacet
	facet normal -0.7274925551504107 -0.632828188354819 -0.2651095362756395
		outer loop
			vertex 2.023041 5.4958491 -1.128947
			vertex 1.751906 5.850564 -1.23164
			vertex 2.0514441 5.7025719 -1.700345
		endloop
	endfacet
	facet normal -0.7209794998666109 -0.6432776758986063 -0.2576478070207067
		outer loop
			vertex 1.751906 5.850564 -1.23164
			vertex 1.7861741 6.0343971 -1.786515
			vertex 2.0514441 5.7025719 -1.700345
		endloop
	endfacet
	facet normal -0.3637054250163218 -0.8896373152002656 -0.276159032473972
		outer loop
			vertex 1.691429 5.2030411 -0.162999
			vertex 2.2173591 4.8997512 0.121382
			vertex 1.4563611 5.157527 0.293211
		endloop
	endfacet
	facet normal -0.3703905207808813 -0.8608208532524476 -0.34899616147086154
		outer loop
			vertex 2.2173591 4.8997512 0.121382
			vertex 2.0019481 4.8340092 0.512155
			vertex 1.4563611 5.157527 0.293211
		endloop
	endfacet
	facet normal -0.4666305108478011 -0.8776834479777448 -0.10921415426499276
		outer loop
			vertex 2.5570149 5.1717391 -0.805752
			vertex 2.023041 5.4958491 -1.128947
			vertex 2.4186201 5.3226199 -1.426975
		endloop
	endfacet
	facet normal -0.5655145381884603 -0.7661525621675659 -0.3052925786545867
		outer loop
			vertex 2.023041 5.4958491 -1.128947
			vertex 2.0514441 5.7025719 -1.700345
			vertex 2.4186201 5.3226199 -1.426975
		endloop
	endfacet
	facet normal 0.04894556255329771 -0.5614737858387622 -0.8260457128526418
		outer loop
			vertex 2.1696711 6.5586939 -2.655
			vertex 2.2445991 5.8164902 -2.146075
			vertex 2.0090561 6.1781349 -2.4058461
		endloop
	endfacet
	facet normal -0.33180943761959647 -0.6832927266475542 -0.6503949160449503
		outer loop
			vertex 2.2445991 5.8164902 -2.146075
			vertex 2.0067921 5.9347191 -2.148963
			vertex 2.0090561 6.1781349 -2.4058461
		endloop
	endfacet
	facet normal 0.4425051445801504 -0.8695814286019321 0.21912858337223723
		outer loop
			vertex 2.4338391 4.9908042 0.877524
			vertex 2.1310911 4.8410439 0.894586
			vertex 2.579438 5.0079179 0.651417
		endloop
	endfacet
	facet normal 0.5152910581319542 -0.7298456140985181 0.4492221109767506
		outer loop
			vertex 2.1310911 4.8410439 0.894586
			vertex 2.273088 4.8257751 0.706898
			vertex 2.579438 5.0079179 0.651417
		endloop
	endfacet
	facet normal -0.1255394771325247 -0.9831032988626568 0.13322065698176974
		outer loop
			vertex 2.0019481 4.8340092 0.512155
			vertex 2.273088 4.8257751 0.706898
			vertex 1.846981 4.8864532 0.753134
		endloop
	endfacet
	facet normal -0.14394491273757906 -0.9891771998763778 -0.028431133317180075
		outer loop
			vertex 2.273088 4.8257751 0.706898
			vertex 2.1310911 4.8410439 0.894586
			vertex 1.846981 4.8864532 0.753134
		endloop
	endfacet
	facet normal 0.5272625580346362 -0.797465443740754 0.29333097506764366
		outer loop
			vertex 2.273088 4.8257751 0.706898
			vertex 2.5309391 4.8684611 0.359459
			vertex 2.579438 5.0079179 0.651417
		endloop
	endfacet
	facet normal 0.534977143178644 -0.7934823485687268 0.29014689173981206
		outer loop
			vertex 2.5309391 4.8684611 0.359459
			vertex 2.8146541 5.0437722 0.315775
			vertex 2.579438 5.0079179 0.651417
		endloop
	endfacet
	facet normal 0.019456904989168 -0.9876547444856769 -0.15543337654176692
		outer loop
			vertex 2.2173591 4.8997512 0.121382
			vertex 2.5309391 4.8684611 0.359459
			vertex 2.0019481 4.8340092 0.512155
		endloop
	endfacet
	facet normal 0.03755570188165106 -0.9948302766477952 -0.0943519470972797
		outer loop
			vertex 2.5309391 4.8684611 0.359459
			vertex 2.273088 4.8257751 0.706898
			vertex 2.0019481 4.8340092 0.512155
		endloop
	endfacet
	facet normal 0.5349464304189357 -0.8369576441798211 0.11547388635965684
		outer loop
			vertex 2.5309391 4.8684611 0.359459
			vertex 2.8802681 4.9990768 -0.312143
			vertex 2.8146541 5.0437722 0.315775
		endloop
	endfacet
	facet normal 0.7176316839268293 -0.6853360487571994 0.12377102446943337
		outer loop
			vertex 2.8802681 4.9990768 -0.312143
			vertex 3.0040841 5.1527681 -0.179027
			vertex 2.8146541 5.0437722 0.315775
		endloop
	endfacet
	facet normal 0.033777473002165645 -0.9841943321934506 -0.17384072824248062
		outer loop
			vertex 2.5309391 4.8684611 0.359459
			vertex 2.2173591 4.8997512 0.121382
			vertex 2.8802681 4.9990768 -0.312143
		endloop
	endfacet
	facet normal -0.04549134095272677 -0.9563468318498162 -0.28867156962392826
		outer loop
			vertex 2.2173591 4.8997512 0.121382
			vertex 2.450429 5.015471 -0.298718
			vertex 2.8802681 4.9990768 -0.312143
		endloop
	endfacet
	facet normal 0.6902697362219585 -0.652083028830191 -0.31355288990489666
		outer loop
			vertex 3.0035191 5.3007112 -0.748445
			vertex 2.8642571 5.1506391 -0.742924
			vertex 2.8878801 5.4942641 -1.405542
		endloop
	endfacet
	facet normal 0.6989901862019304 -0.6447236390930584 -0.30942551411930225
		outer loop
			vertex 2.8642571 5.1506391 -0.742924
			vertex 2.6905401 5.315402 -1.478652
			vertex 2.8878801 5.4942641 -1.405542
		endloop
	endfacet
	facet normal -0.023482166386000158 -0.9767286607358302 -0.21318937862616918
		outer loop
			vertex 2.8642571 5.1506391 -0.742924
			vertex 2.5570149 5.1717391 -0.805752
			vertex 2.6905401 5.315402 -1.478652
		endloop
	endfacet
	facet normal -0.06785654519151778 -0.972871418884508 -0.22117118164967972
		outer loop
			vertex 2.5570149 5.1717391 -0.805752
			vertex 2.4186201 5.3226199 -1.426975
			vertex 2.6905401 5.315402 -1.478652
		endloop
	endfacet
	facet normal 0.3092461981079401 -0.4463568518271785 -0.8397215906374652
		outer loop
			vertex 2.225574 6.6202559 -2.667136
			vertex 2.5794179 5.8354559 -2.119662
			vertex 2.1696711 6.5586939 -2.655
		endloop
	endfacet
	facet normal 0.2438737879816895 -0.4839258720996409 -0.840441149544728
		outer loop
			vertex 2.5794179 5.8354559 -2.119662
			vertex 2.4460709 5.7365141 -2.1013851
			vertex 2.1696711 6.5586939 -2.655
		endloop
	endfacet
	facet normal -0.04313395395322579 -0.5679491837257733 -0.8219325925655879
		outer loop
			vertex 2.1696711 6.5586939 -2.655
			vertex 2.4460709 5.7365141 -2.1013851
			vertex 2.2445991 5.8164902 -2.146075
		endloop
	endfacet
	facet normal 0.5903192960990007 0.7965126216816301 0.1307316799977619
		outer loop
			vertex 3.0035191 5.3007112 -0.748445
			vertex 2.8878801 5.4942641 -1.405542
			vertex 2.7468071 5.6018682 -1.424129
		endloop
	endfacet
	facet normal 0.5967630167656633 0.7975782226930836 0.08799363901150402
		outer loop
			vertex 2.7468071 5.6018682 -1.424129
			vertex 2.8878801 5.4942641 -1.405542
			vertex 2.4276559 5.9138789 -2.08776
		endloop
	endfacet
	facet normal 0.2425569447102062 0.923765771289011 0.2963493350214719
		outer loop
			vertex 2.5400729 5.2250528 -0.024564
			vertex 2.8146541 5.0437722 0.315775
			vertex 3.0040841 5.1527681 -0.179027
		endloop
	endfacet
	facet normal 0.21088825665002967 0.8953755135507437 0.3922101897463315
		outer loop
			vertex 1.268759 5.311069 0.800024
			vertex 1.7526881 5.11023 0.998314
			vertex 1.3494591 5.3470602 0.674468
		endloop
	endfacet
	facet normal 0.2968211248281903 0.9083271588587489 0.29468456412802035
		outer loop
			vertex 1.7526881 5.11023 0.998314
			vertex 1.893732 5.1250882 0.810449
			vertex 1.3494591 5.3470602 0.674468
		endloop
	endfacet
	facet normal 0.21792148574276557 0.8993441218351064 0.37906513499965566
		outer loop
			vertex 1.197871 5.2781181 0.918954
			vertex 1.7526881 5.11023 0.998314
			vertex 1.268759 5.311069 0.800024
		endloop
	endfacet
	facet normal 0.17010945421386547 0.9372175216556597 0.30444390400972726
		outer loop
			vertex 2.1352601 4.959372 1.24896
			vertex 1.7526881 5.11023 0.998314
			vertex 1.691457 5.0978661 1.0705889
		endloop
	endfacet
	facet normal 0.22580989649307298 0.9102665113127669 0.34702272119887484
		outer loop
			vertex 1.7526881 5.11023 0.998314
			vertex 1.197871 5.2781181 0.918954
			vertex 1.691457 5.0978661 1.0705889
		endloop
	endfacet
	facet normal 0.30812700799824877 0.9438708720824004 0.11901900594634535
		outer loop
			vertex 1.197871 5.2781181 0.918954
			vertex 1.189013 5.277555 0.946352
			vertex 1.691457 5.0978661 1.0705889
		endloop
	endfacet
	facet normal -0.389418542125461 -0.06453943617721107 0.9187969635489706
		outer loop
			vertex 1.691457 5.0978661 1.0705889
			vertex 1.639021 4.956676 1.038447
			vertex 2.1352601 4.959372 1.24896
		endloop
	endfacet
	facet normal -0.3892808210403408 0.09251961359819819 0.9164608903110915
		outer loop
			vertex 1.639021 4.956676 1.038447
			vertex 2.010047 4.9007192 1.201695
			vertex 2.1352601 4.959372 1.24896
		endloop
	endfacet
	facet normal 0.4330472849718952 -0.8374422401513154 0.3334074735047444
		outer loop
			vertex 2.1310911 4.8410439 0.894586
			vertex 2.4338391 4.9908042 0.877524
			vertex 2.010047 4.9007192 1.201695
		endloop
	endfacet
	facet normal 0.3507980768484331 -0.9138136311504531 0.20465912342982603
		outer loop
			vertex 2.4338391 4.9908042 0.877524
			vertex 2.1352601 4.959372 1.24896
			vertex 2.010047 4.9007192 1.201695
		endloop
	endfacet
	facet normal -0.191542180288524 -0.9763066796288082 0.10068197694965271
		outer loop
			vertex 1.639021 4.956676 1.038447
			vertex 1.846981 4.8864532 0.753134
			vertex 2.010047 4.9007192 1.201695
		endloop
	endfacet
	facet normal -0.20851757692296718 -0.9721784216872054 0.1067217715367818
		outer loop
			vertex 1.846981 4.8864532 0.753134
			vertex 2.1310911 4.8410439 0.894586
			vertex 2.010047 4.9007192 1.201695
		endloop
	endfacet
	facet normal -0.2941201753094678 -0.8671029977566926 -0.40202700625366605
		outer loop
			vertex 2.450429 5.015471 -0.298718
			vertex 2.2173591 4.8997512 0.121382
			vertex 1.932855 5.3193889 -0.575563
		endloop
	endfacet
	facet normal -0.2799031364659352 -0.8686567105645083 -0.40876613532407563
		outer loop
			vertex 2.2173591 4.8997512 0.121382
			vertex 1.691429 5.2030411 -0.162999
			vertex 1.932855 5.3193889 -0.575563
		endloop
	endfacet
	facet normal 0.24628805772997056 0.9302550734833795 0.2719700183439915
		outer loop
			vertex 2.579438 5.0079179 0.651417
			vertex 2.8146541 5.0437722 0.315775
			vertex 2.1145501 5.1666431 0.529497
		endloop
	endfacet
	facet normal 0.2505880705009287 0.9236905686544983 0.2898298678558706
		outer loop
			vertex 2.8146541 5.0437722 0.315775
			vertex 2.5400729 5.2250528 -0.024564
			vertex 2.1145501 5.1666431 0.529497
		endloop
	endfacet
	facet normal 0.4376975768131188 0.6417438301810788 0.6297504963685561
		outer loop
			vertex 2.225574 6.6202559 -2.667136
			vertex 2.1743391 6.064395 -2.065079
			vertex 2.4276559 5.9138789 -2.08776
		endloop
	endfacet
	facet normal 0.8862660132118507 -0.13858659145832786 0.44195736275520336
		outer loop
			vertex 1.016577 5.5435719 0.871209
			vertex 1.094117 5.580442 0.727278
			vertex 1.060292 5.7649469 0.852964
		endloop
	endfacet
	facet normal 0.9468817702305893 0.2806017818045385 -0.1570909076079961
		outer loop
			vertex 1.094117 5.580442 0.727278
			vertex 1.040139 5.7994699 0.793156
			vertex 1.060292 5.7649469 0.852964
		endloop
	endfacet
	facet normal 0.5660596502216916 -0.10637312961215269 0.8174724641768751
		outer loop
			vertex 1.040139 5.7994699 0.793156
			vertex 1.094117 5.580442 0.727278
			vertex 1.139845 5.790544 0.722953
		endloop
	endfacet
	facet normal 0.8088378758151431 -0.1644189053329734 0.5645774652038054
		outer loop
			vertex 1.094117 5.580442 0.727278
			vertex 1.172935 5.5914268 0.617559
			vertex 1.139845 5.790544 0.722953
		endloop
	endfacet
	facet normal 0.8624254192877556 -0.11731102937057879 0.49240280112358664
		outer loop
			vertex 1.139845 5.790544 0.722953
			vertex 1.172935 5.5914268 0.617559
			vertex 1.389776 5.863965 0.3027
		endloop
	endfacet
	facet normal 0.8515567982989432 -0.07872418993969288 0.5183179730524424
		outer loop
			vertex 1.172935 5.5914268 0.617559
			vertex 1.355319 5.667748 0.329508
			vertex 1.389776 5.863965 0.3027
		endloop
	endfacet
	facet normal -0.1471063547859607 -0.011300592420019179 0.9890561242884773
		outer loop
			vertex 1.091673 6.0162091 0.83767
			vertex 0.981583 5.8488779 0.819384
			vertex 1.143543 5.9007812 0.844066
		endloop
	endfacet
	facet normal -0.20708070663583136 0.18978588836222895 0.9597389736369802
		outer loop
			vertex 0.981583 5.8488779 0.819384
			vertex 1.060292 5.7649469 0.852964
			vertex 1.143543 5.9007812 0.844066
		endloop
	endfacet
	facet normal -0.7530980309146623 -0.42820326010956195 -0.4994850586994586
		outer loop
			vertex 1.278255 5.5700951 0.20806
			vertex 1.4563611 5.157527 0.293211
			vertex 0.91093 5.4766889 0.84197
		endloop
	endfacet
	facet normal -0.7249600196532049 -0.5673311404370798 -0.390599983352262
		outer loop
			vertex 1.4563611 5.157527 0.293211
			vertex 1.133303 5.1610742 0.88766
			vertex 0.91093 5.4766889 0.84197
		endloop
	endfacet
	facet normal 0.7742929754730248 0.5759650673371085 0.2621728997064534
		outer loop
			vertex 1.189013 5.277555 0.946352
			vertex 1.197871 5.2781181 0.918954
			vertex 1.016577 5.5435719 0.871209
		endloop
	endfacet
	facet normal 0.6699390077378613 0.5476902658323256 0.5012156208895793
		outer loop
			vertex 1.016577 5.5435719 0.871209
			vertex 1.197871 5.2781181 0.918954
			vertex 1.094117 5.580442 0.727278
		endloop
	endfacet
	facet normal 0.6365291646266442 0.5568007137287656 0.5336699239893923
		outer loop
			vertex 1.197871 5.2781181 0.918954
			vertex 1.268759 5.311069 0.800024
			vertex 1.094117 5.580442 0.727278
		endloop
	endfacet
	facet normal 0.6458228996343603 0.5591105877967653 0.5199116587665857
		outer loop
			vertex 1.094117 5.580442 0.727278
			vertex 1.268759 5.311069 0.800024
			vertex 1.172935 5.5914268 0.617559
		endloop
	endfacet
	facet normal 0.6083133036171617 0.5684314874000818 0.5539319170931619
		outer loop
			vertex 1.268759 5.311069 0.800024
			vertex 1.3494591 5.3470602 0.674468
			vertex 1.172935 5.5914268 0.617559
		endloop
	endfacet
	facet normal 0.6164326108185699 0.5714513414196646 0.541714131908212
		outer loop
			vertex 1.172935 5.5914268 0.617559
			vertex 1.3494591 5.3470602 0.674468
			vertex 1.355319 5.667748 0.329508
		endloop
	endfacet
	facet normal 0.6718759899863123 0.5367389851135164 0.5103860459879612
		outer loop
			vertex 1.3494591 5.3470602 0.674468
			vertex 1.5295 5.412251 0.368904
			vertex 1.355319 5.667748 0.329508
		endloop
	endfacet
	facet normal -0.24674327856786035 -0.033643644674471486 0.9684967009002156
		outer loop
			vertex 0.91093 5.4766889 0.84197
			vertex 1.133303 5.1610742 0.88766
			vertex 1.016577 5.5435719 0.871209
		endloop
	endfacet
	facet normal -0.5669086912335688 -0.13807320143540117 0.8121270386147856
		outer loop
			vertex 1.133303 5.1610742 0.88766
			vertex 1.189013 5.277555 0.946352
			vertex 1.016577 5.5435719 0.871209
		endloop
	endfacet
	facet normal -0.27682212626750746 -0.11439020273093226 0.9540882516454714
		outer loop
			vertex 1.691457 5.0978661 1.0705889
			vertex 1.189013 5.277555 0.946352
			vertex 1.639021 4.956676 1.038447
		endloop
	endfacet
	facet normal -0.37337831022875967 -0.26880484530752796 0.8878809563167306
		outer loop
			vertex 1.189013 5.277555 0.946352
			vertex 1.133303 5.1610742 0.88766
			vertex 1.639021 4.956676 1.038447
		endloop
	endfacet
	facet normal -0.28640512920050115 0.11211122573527563 0.9515267600187491
		outer loop
			vertex 0.981583 5.8488779 0.819384
			vertex 0.91093 5.4766889 0.84197
			vertex 1.060292 5.7649469 0.852964
		endloop
	endfacet
	facet normal -0.34816748897558947 0.1450819650647892 0.9261374752343047
		outer loop
			vertex 0.91093 5.4766889 0.84197
			vertex 1.016577 5.5435719 0.871209
			vertex 1.060292 5.7649469 0.852964
		endloop
	endfacet
	facet normal -0.8657752763906095 0.00902538890072362 -0.5003515895307564
		outer loop
			vertex 1.278255 5.5700951 0.20806
			vertex 0.91093 5.4766889 0.84197
			vertex 1.28212 5.944067 0.208118
		endloop
	endfacet
	facet normal -0.896682119827564 0.14483312906085913 -0.4183115354708579
		outer loop
			vertex 0.91093 5.4766889 0.84197
			vertex 0.981583 5.8488779 0.819384
			vertex 1.28212 5.944067 0.208118
		endloop
	endfacet
	facet normal -0.845753658971947 0.10021311161162719 -0.5240783153276612
		outer loop
			vertex 1.55007 6.01192 -0.211323
			vertex 1.5295 5.5958881 -0.25768
			vertex 1.28212 5.944067 0.208118
		endloop
	endfacet
	facet normal -0.8802815970652063 0.00917128111254616 -0.4743629385513633
		outer loop
			vertex 1.5295 5.5958881 -0.25768
			vertex 1.278255 5.5700951 0.20806
			vertex 1.28212 5.944067 0.208118
		endloop
	endfacet
	facet normal -0.8659250894153966 0.27562202269053643 -0.4173802105142448
		outer loop
			vertex 1.7967891 6.085454 -0.674624
			vertex 1.700068 5.707128 -0.723792
			vertex 1.55007 6.01192 -0.211323
		endloop
	endfacet
	facet normal -0.9420876235989658 0.08279209486582562 -0.32498673586683735
		outer loop
			vertex 1.700068 5.707128 -0.723792
			vertex 1.5295 5.5958881 -0.25768
			vertex 1.55007 6.01192 -0.211323
		endloop
	endfacet
	facet normal -0.9506357880026067 0.3058564827786737 -0.05237757641321405
		outer loop
			vertex 1.8894221 6.2602072 -1.3354191
			vertex 1.751906 5.850564 -1.23164
			vertex 1.7967891 6.085454 -0.674624
		endloop
	endfacet
	facet normal -0.9675877487897723 0.2509918353029102 -0.02787556283229619
		outer loop
			vertex 1.751906 5.850564 -1.23164
			vertex 1.700068 5.707128 -0.723792
			vertex 1.7967891 6.085454 -0.674624
		endloop
	endfacet
	facet normal -0.9465351778884299 0.3173862501595573 0.05776785636816885
		outer loop
			vertex 1.896059 6.366735 -1.811954
			vertex 1.7861741 6.0343971 -1.786515
			vertex 1.8894221 6.2602072 -1.3354191
		endloop
	endfacet
	facet normal -0.9428180976467632 0.329397592197449 0.050904430104480425
		outer loop
			vertex 1.7861741 6.0343971 -1.786515
			vertex 1.751906 5.850564 -1.23164
			vertex 1.8894221 6.2602072 -1.3354191
		endloop
	endfacet
	facet normal -0.9619685010801933 0.2728863106357474 -0.012233740112368666
		outer loop
			vertex 1.8266 6.1605401 -2.1515501
			vertex 1.7861741 6.0343971 -1.786515
			vertex 1.928658 6.5196381 -2.1665621
		endloop
	endfacet
	facet normal -0.9471406624547747 0.31696122549161954 0.04959986955206124
		outer loop
			vertex 1.7861741 6.0343971 -1.786515
			vertex 1.896059 6.366735 -1.811954
			vertex 1.928658 6.5196381 -2.1665621
		endloop
	endfacet
	facet normal -0.9561585151573813 0.26668863595666137 -0.12098787271295916
		outer loop
			vertex 1.8266 6.1605401 -2.1515501
			vertex 1.928658 6.5196381 -2.1665621
			vertex 1.9168611 6.3560271 -2.4339731
		endloop
	endfacet
	facet normal -0.6912446305958192 0.15732332436259655 -0.7052873402266276
		outer loop
			vertex 2.129859 6.8815079 -2.8289111
			vertex 2.122838 6.8049321 -2.8391111
			vertex 2.0932209 6.9050102 -2.78776
		endloop
	endfacet
	facet normal -0.2210788599943738 0.3926402615264165 -0.8927249087440403
		outer loop
			vertex 2.122838 6.8049321 -2.8391111
			vertex 2.074836 6.8107109 -2.824682
			vertex 2.0932209 6.9050102 -2.78776
		endloop
	endfacet
	facet normal 0.9777234553887437 -0.20424542717656213 -0.04838026726010609
		outer loop
			vertex 2.0597701 6.3129058 -1.817638
			vertex 2.0233049 6.1564131 -1.893908
			vertex 2.10905 6.7234249 -2.5548091
		endloop
	endfacet
	facet normal 0.9900066796727582 -0.14081370397626936 0.007633804805222651
		outer loop
			vertex 2.0233049 6.1564131 -1.893908
			vertex 2.0943151 6.6191001 -2.568264
			vertex 2.10905 6.7234249 -2.5548091
		endloop
	endfacet
	facet normal -0.34420692650224577 -0.8586983786575887 -0.3796823491271433
		outer loop
			vertex 1.040139 5.7994699 0.793156
			vertex 1.139845 5.790544 0.722953
			vertex 1.060292 5.7649469 0.852964
		endloop
	endfacet
	facet normal 0.7944558206593887 -0.46101283248378505 0.39535694923157066
		outer loop
			vertex 1.139845 5.790544 0.722953
			vertex 1.143543 5.9007812 0.844066
			vertex 1.060292 5.7649469 0.852964
		endloop
	endfacet
	facet normal 0.7391279885142606 -0.5600127545948498 0.3742666579939386
		outer loop
			vertex 1.447523 5.9448581 0.309697
			vertex 1.143543 5.9007812 0.844066
			vertex 1.389776 5.863965 0.3027
		endloop
	endfacet
	facet normal 0.7965145762029857 -0.4590435527565864 0.39350164747912986
		outer loop
			vertex 1.143543 5.9007812 0.844066
			vertex 1.139845 5.790544 0.722953
			vertex 1.389776 5.863965 0.3027
		endloop
	endfacet
	facet normal -0.9776917650784203 0.1956011174663805 -0.07654420516111266
		outer loop
			vertex 1.9168611 6.3560271 -2.4339731
			vertex 1.928658 6.5196381 -2.1665621
			vertex 1.998394 6.6554561 -2.7102239
		endloop
	endfacet
	facet normal -0.9885486502647065 0.11460304762010233 -0.09817182658997287
		outer loop
			vertex 1.928658 6.5196381 -2.1665621
			vertex 1.992617 6.747807 -2.5442441
			vertex 1.998394 6.6554561 -2.7102239
		endloop
	endfacet
	facet normal -0.7626359936962294 -0.466149034739697 -0.44843217829479376
		outer loop
			vertex 2.0090561 6.1781349 -2.4058461
			vertex 2.0067921 5.9347191 -2.148963
			vertex 1.9168611 6.3560271 -2.4339731
		endloop
	endfacet
	facet normal -0.6421193296937565 -0.5188394987006358 -0.5643477128701008
		outer loop
			vertex 2.0067921 5.9347191 -2.148963
			vertex 1.8266 6.1605401 -2.1515501
			vertex 1.9168611 6.3560271 -2.4339731
		endloop
	endfacet
	facet normal -0.03227464633157486 -0.5378970851608988 -0.8423924696835676
		outer loop
			vertex 2.1696711 6.5586939 -2.655
			vertex 2.0090561 6.1781349 -2.4058461
			vertex 1.998394 6.6554561 -2.7102239
		endloop
	endfacet
	facet normal -0.6281735445674822 -0.4282696126484247 -0.6496022912424909
		outer loop
			vertex 2.0090561 6.1781349 -2.4058461
			vertex 1.9168611 6.3560271 -2.4339731
			vertex 1.998394 6.6554561 -2.7102239
		endloop
	endfacet
	facet normal 0.7678900091506228 0.4876166524279691 0.41542139343273793
		outer loop
			vertex 2.0233049 6.1564131 -1.893908
			vertex 2.1743391 6.064395 -2.065079
			vertex 2.0943151 6.6191001 -2.568264
		endloop
	endfacet
	facet normal 0.46310709096959357 0.6312053357635177 0.6221829685850823
		outer loop
			vertex 2.1743391 6.064395 -2.065079
			vertex 2.225574 6.6202559 -2.667136
			vertex 2.0943151 6.6191001 -2.568264
		endloop
	endfacet
	facet normal 0.7664074703003279 -0.5723388579418938 0.2916295958191158
		outer loop
			vertex 1.447523 5.9448581 0.309697
			vertex 1.389776 5.863965 0.3027
			vertex 1.76035 6.043993 -0.31786
		endloop
	endfacet
	facet normal 0.7773872265975258 -0.5503758810376665 0.3045578590268509
		outer loop
			vertex 1.389776 5.863965 0.3027
			vertex 1.710704 5.9699602 -0.324925
			vertex 1.76035 6.043993 -0.31786
		endloop
	endfacet
	facet normal 0.6838579318680925 -0.7183424004993824 0.12775963629362946
		outer loop
			vertex 1.957396 6.091814 -0.960255
			vertex 2.043236 6.183207 -0.905863
			vertex 1.710704 5.9699602 -0.324925
		endloop
	endfacet
	facet normal 0.792976668284378 -0.5556189284702491 0.24995121500440828
		outer loop
			vertex 2.043236 6.183207 -0.905863
			vertex 1.76035 6.043993 -0.31786
			vertex 1.710704 5.9699602 -0.324925
		endloop
	endfacet
	facet normal 0.9195861219156786 -0.3599535602044464 0.15746364302983323
		outer loop
			vertex 2.056814 6.1596599 -1.385763
			vertex 2.115685 6.2753892 -1.465018
			vertex 1.957396 6.091814 -0.960255
		endloop
	endfacet
	facet normal 0.7337962461962958 -0.6791596478563917 -0.016889102753175445
		outer loop
			vertex 2.115685 6.2753892 -1.465018
			vertex 2.043236 6.183207 -0.905863
			vertex 1.957396 6.091814 -0.960255
		endloop
	endfacet
	facet normal 0.3588149240404685 -0.8804416516839343 -0.3099586234740027
		outer loop
			vertex 2.0597701 6.3129058 -1.817638
			vertex 2.1592591 6.3445401 -1.792325
			vertex 2.056814 6.1596599 -1.385763
		endloop
	endfacet
	facet normal 0.8983185984700682 -0.4385175258863396 0.02694578136361584
		outer loop
			vertex 2.1592591 6.3445401 -1.792325
			vertex 2.115685 6.2753892 -1.465018
			vertex 2.056814 6.1596599 -1.385763
		endloop
	endfacet
	facet normal 0.9545009442945229 -0.08278860078336558 -0.2864855928684668
		outer loop
			vertex 2.0233049 6.1564131 -1.893908
			vertex 2.0597701 6.3129058 -1.817638
			vertex 2.125608 5.95576 -1.495074
		endloop
	endfacet
	facet normal 0.9578602779502251 0.26856889954540303 0.10185496611402266
		outer loop
			vertex 2.0597701 6.3129058 -1.817638
			vertex 2.056814 6.1596599 -1.385763
			vertex 2.125608 5.95576 -1.495074
		endloop
	endfacet
	facet normal 0.9414744630295386 0.15802067647182838 0.29775040095796274
		outer loop
			vertex 2.125608 5.95576 -1.495074
			vertex 2.056814 6.1596599 -1.385763
			vertex 1.949442 5.8745971 -0.89497
		endloop
	endfacet
	facet normal 0.9719749473841878 0.03430714485036246 0.23256767073202994
		outer loop
			vertex 2.056814 6.1596599 -1.385763
			vertex 1.957396 6.091814 -0.960255
			vertex 1.949442 5.8745971 -0.89497
		endloop
	endfacet
	facet normal 0.9168420183451685 0.08375282942780551 0.3903667211220684
		outer loop
			vertex 1.949442 5.8745971 -0.89497
			vertex 1.957396 6.091814 -0.960255
			vertex 1.719678 5.7901058 -0.337203
		endloop
	endfacet
	facet normal 0.9305809034293948 0.021483889420825176 0.36545536617743785
		outer loop
			vertex 1.957396 6.091814 -0.960255
			vertex 1.710704 5.9699602 -0.324925
			vertex 1.719678 5.7901058 -0.337203
		endloop
	endfacet
	facet normal 0.8927071587913412 -0.09662938067088271 0.4401553037665825
		outer loop
			vertex 1.389776 5.863965 0.3027
			vertex 1.355319 5.667748 0.329508
			vertex 1.710704 5.9699602 -0.324925
		endloop
	endfacet
	facet normal 0.8766136735764768 0.010898462708542474 0.48107139886855155
		outer loop
			vertex 1.355319 5.667748 0.329508
			vertex 1.719678 5.7901058 -0.337203
			vertex 1.710704 5.9699602 -0.324925
		endloop
	endfacet
	facet normal 0.6069893001073532 0.7866814137874648 0.11267804913354501
		outer loop
			vertex 2.1743391 6.064395 -2.065079
			vertex 2.0233049 6.1564131 -1.893908
			vertex 2.451189 5.7666612 -1.477771
		endloop
	endfacet
	facet normal 0.46738603168704057 0.8320558201122581 0.29871961703436656
		outer loop
			vertex 2.0233049 6.1564131 -1.893908
			vertex 2.125608 5.95576 -1.495074
			vertex 2.451189 5.7666612 -1.477771
		endloop
	endfacet
	facet normal 0.4662317947842688 0.8305993031797252 0.30452046087183443
		outer loop
			vertex 2.451189 5.7666612 -1.477771
			vertex 2.125608 5.95576 -1.495074
			vertex 2.211787 5.658031 -0.814942
		endloop
	endfacet
	facet normal 0.5623698733924646 0.7813002942411952 0.2707581498665658
		outer loop
			vertex 2.125608 5.95576 -1.495074
			vertex 1.949442 5.8745971 -0.89497
			vertex 2.211787 5.658031 -0.814942
		endloop
	endfacet
	facet normal 0.504422819138001 0.7614773606976764 0.40707474581183806
		outer loop
			vertex 2.211787 5.658031 -0.814942
			vertex 1.949442 5.8745971 -0.89497
			vertex 1.899484 5.556778 -0.23855
		endloop
	endfacet
	facet normal 0.6539978789652535 0.660169868980802 0.36940833558383673
		outer loop
			vertex 1.949442 5.8745971 -0.89497
			vertex 1.719678 5.7901058 -0.337203
			vertex 1.899484 5.556778 -0.23855
		endloop
	endfacet
	facet normal 0.6902043510660506 0.544094278959403 0.4770527951633231
		outer loop
			vertex 1.355319 5.667748 0.329508
			vertex 1.5295 5.412251 0.368904
			vertex 1.719678 5.7901058 -0.337203
		endloop
	endfacet
	facet normal 0.5695258494323928 0.6510425879906726 0.5017806846130279
		outer loop
			vertex 1.5295 5.412251 0.368904
			vertex 1.899484 5.556778 -0.23855
			vertex 1.719678 5.7901058 -0.337203
		endloop
	endfacet
	facet normal 0.5149339311326824 0.8441393115705071 0.14923762672165597
		outer loop
			vertex 2.4276559 5.9138789 -2.08776
			vertex 2.1743391 6.064395 -2.065079
			vertex 2.7468071 5.6018682 -1.424129
		endloop
	endfacet
	facet normal 0.44129786796737036 0.8669872188170895 0.2314937453480362
		outer loop
			vertex 2.1743391 6.064395 -2.065079
			vertex 2.451189 5.7666612 -1.477771
			vertex 2.7468071 5.6018682 -1.424129
		endloop
	endfacet
	facet normal 0.439728522107425 0.8661447839343674 0.2375542887605015
		outer loop
			vertex 2.7468071 5.6018682 -1.424129
			vertex 2.451189 5.7666612 -1.477771
			vertex 2.843138 5.288671 -0.460498
		endloop
	endfacet
	facet normal 0.3644038413453471 0.8889926204551594 0.27731202856894654
		outer loop
			vertex 2.451189 5.7666612 -1.477771
			vertex 2.211787 5.658031 -0.814942
			vertex 2.843138 5.288671 -0.460498
		endloop
	endfacet
	facet normal 0.3187348897051001 0.8808055823990035 0.3501279710326358
		outer loop
			vertex 2.843138 5.288671 -0.460498
			vertex 2.211787 5.658031 -0.814942
			vertex 2.5400729 5.2250528 -0.024564
		endloop
	endfacet
	facet normal 0.3409414242917104 0.8769205555263438 0.3387761569197401
		outer loop
			vertex 2.211787 5.658031 -0.814942
			vertex 1.899484 5.556778 -0.23855
			vertex 2.5400729 5.2250528 -0.024564
		endloop
	endfacet
	facet normal 0.2693914507269451 0.8869728091235926 0.3751099600792217
		outer loop
			vertex 1.5295 5.412251 0.368904
			vertex 2.1145501 5.1666431 0.529497
			vertex 1.899484 5.556778 -0.23855
		endloop
	endfacet
	facet normal 0.3358571235910314 0.8744219607919741 0.35012315978506514
		outer loop
			vertex 2.1145501 5.1666431 0.529497
			vertex 2.5400729 5.2250528 -0.024564
			vertex 1.899484 5.556778 -0.23855
		endloop
	endfacet
	facet normal 0.37230024954293806 -0.8137764925190798 -0.4462738446443059
		outer loop
			vertex 2.1592591 6.3445401 -1.792325
			vertex 2.0597701 6.3129058 -1.817638
			vertex 2.2124059 6.6645489 -2.331521
		endloop
	endfacet
	facet normal 0.4408108467519784 -0.796404010640304 -0.41403677278937745
		outer loop
			vertex 2.0597701 6.3129058 -1.817638
			vertex 2.10905 6.7234249 -2.5548091
			vertex 2.2124059 6.6645489 -2.331521
		endloop
	endfacet
	facet normal 0.23078581322904002 0.9197695635572923 0.31743008421672747
		outer loop
			vertex 2.1145501 5.1666431 0.529497
			vertex 1.893732 5.1250882 0.810449
			vertex 2.579438 5.0079179 0.651417
		endloop
	endfacet
	facet normal 0.21151666609046327 0.9548811326683031 0.20847715088247498
		outer loop
			vertex 1.893732 5.1250882 0.810449
			vertex 2.4338391 4.9908042 0.877524
			vertex 2.579438 5.0079179 0.651417
		endloop
	endfacet
	facet normal 0.2762046388728895 0.8937584010988446 0.35342172815254835
		outer loop
			vertex 1.3494591 5.3470602 0.674468
			vertex 1.893732 5.1250882 0.810449
			vertex 1.5295 5.412251 0.368904
		endloop
	endfacet
	facet normal 0.27878495508728796 0.8937886731490633 0.3513129040718767
		outer loop
			vertex 1.893732 5.1250882 0.810449
			vertex 2.1145501 5.1666431 0.529497
			vertex 1.5295 5.412251 0.368904
		endloop
	endfacet
	facet normal -0.48447343061588594 0.6644840984519552 0.5689871509373183
		outer loop
			vertex 1.928658 6.5196381 -2.1665621
			vertex 2.183306 6.6450958 -2.096252
			vertex 2.011673 6.8577499 -2.490737
		endloop
	endfacet
	facet normal -0.15086794558634378 0.8412682254596409 0.5191402853049868
		outer loop
			vertex 2.183306 6.6450958 -2.096252
			vertex 2.162724 6.8536081 -2.4401281
			vertex 2.011673 6.8577499 -2.490737
		endloop
	endfacet
	facet normal -0.06015595024781524 -0.5729671881784624 -0.8173676424477843
		outer loop
			vertex 2.1696711 6.5586939 -2.655
			vertex 1.998394 6.6554561 -2.7102239
			vertex 2.074836 6.8107109 -2.824682
		endloop
	endfacet
	facet normal -0.9352960872124721 0.2943922737326639 -0.1963527906894941
		outer loop
			vertex 1.992617 6.747807 -2.5442441
			vertex 2.0932209 6.9050102 -2.78776
			vertex 1.998394 6.6554561 -2.7102239
		endloop
	endfacet
	facet normal -0.9291590591730907 0.2770048070943917 -0.24480968037064177
		outer loop
			vertex 2.0932209 6.9050102 -2.78776
			vertex 2.074836 6.8107109 -2.824682
			vertex 1.998394 6.6554561 -2.7102239
		endloop
	endfacet
	facet normal -0.9535827045009014 0.2482406199007598 -0.1704600255427447
		outer loop
			vertex 2.011673 6.8577499 -2.490737
			vertex 2.116292 7.106297 -2.714035
			vertex 1.992617 6.747807 -2.5442441
		endloop
	endfacet
	facet normal -0.9442826939838646 0.20309616807105077 -0.2590022014528661
		outer loop
			vertex 2.116292 7.106297 -2.714035
			vertex 2.0932209 6.9050102 -2.78776
			vertex 1.992617 6.747807 -2.5442441
		endloop
	endfacet
	facet normal -0.20927843694980047 0.7007896155598291 0.6819798021579196
		outer loop
			vertex 2.162724 6.8536081 -2.4401281
			vertex 2.116292 7.106297 -2.714035
			vertex 2.011673 6.8577499 -2.490737
		endloop
	endfacet
	facet normal 0.9731563179516914 0.22925417391795305 0.02023127707050835
		outer loop
			vertex 2.143095 6.9976301 -2.771924
			vertex 2.116292 7.106297 -2.714035
			vertex 2.2124059 6.6645489 -2.331521
		endloop
	endfacet
	facet normal 0.9333613908877068 0.328443701448985 0.1447800019983963
		outer loop
			vertex 2.116292 7.106297 -2.714035
			vertex 2.162724 6.8536081 -2.4401281
			vertex 2.2124059 6.6645489 -2.331521
		endloop
	endfacet
	facet normal 0.4563144124696821 -0.7853661831216194 -0.4183026600219365
		outer loop
			vertex 2.10905 6.7234249 -2.5548091
			vertex 2.129859 6.8815079 -2.8289111
			vertex 2.2124059 6.6645489 -2.331521
		endloop
	endfacet
	facet normal 0.9842414628732162 -0.02637879524394615 -0.1748510849913982
		outer loop
			vertex 2.129859 6.8815079 -2.8289111
			vertex 2.143095 6.9976301 -2.771924
			vertex 2.2124059 6.6645489 -2.331521
		endloop
	endfacet
	facet normal 0.9900064565525616 -0.14081479888828655 0.0076425387334570025
		outer loop
			vertex 2.0943151 6.6191001 -2.568264
			vertex 2.122838 6.8049321 -2.8391111
			vertex 2.10905 6.7234249 -2.5548091
		endloop
	endfacet
	facet normal 0.9953353764788087 -0.09409576329794123 0.02129496793062228
		outer loop
			vertex 2.122838 6.8049321 -2.8391111
			vertex 2.129859 6.8815079 -2.8289111
			vertex 2.10905 6.7234249 -2.5548091
		endloop
	endfacet
	facet normal 0.40477108777464105 0.7335636409908531 0.545934749872159
		outer loop
			vertex 2.225574 6.6202559 -2.667136
			vertex 2.122838 6.8049321 -2.8391111
			vertex 2.0943151 6.6191001 -2.568264
		endloop
	endfacet
	facet normal -0.20762599147164998 0.9505275197823367 0.23106034233908215
		outer loop
			vertex -2.09114 4.9998922 0.810449
			vertex -2.631248 4.8656101 0.877524
			vertex -1.950093 4.985034 0.998314
		endloop
	endfacet
	facet normal -0.21126366298043342 0.9422927063915438 0.2597154600430817
		outer loop
			vertex -2.631248 4.8656101 0.877524
			vertex -2.3356521 4.8292398 1.2499321
			vertex -1.950093 4.985034 0.998314
		endloop
	endfacet
	facet normal -0.48259241931122226 0.8529258216548652 0.19905300695471767
		outer loop
			vertex -3.0852859 5.3690701 -1.405542
			vertex -2.625061 5.7886829 -2.08776
			vertex -2.776823 5.7102599 -2.119662
		endloop
	endfacet
	facet normal -0.4596009486152875 0.6381283973340761 0.6177047163068867
		outer loop
			vertex -2.625061 5.7886829 -2.08776
			vertex -2.4229801 6.4950609 -2.667136
			vertex -2.776823 5.7102599 -2.119662
		endloop
	endfacet
	facet normal -0.3108591206429556 -0.447567772382111 -0.8384805878718979
		outer loop
			vertex -2.367079 6.4334989 -2.655
			vertex -2.4229801 6.4950609 -2.667136
			vertex -2.2722411 6.685514 -2.824682
		endloop
	endfacet
	facet normal 0.2752655774209546 -0.7327123029640786 -0.6223837586025077
		outer loop
			vertex -2.4229801 6.4950609 -2.667136
			vertex -2.3202429 6.6797371 -2.8391111
			vertex -2.2722411 6.685514 -2.824682
		endloop
	endfacet
	facet normal -0.2447584134516919 0.9205309258437303 0.30449324066372246
		outer loop
			vertex -3.0405419 5.1634741 -0.460498
			vertex -3.201493 5.0275741 -0.179027
			vertex -2.7374821 5.0998559 -0.024564
		endloop
	endfacet
	facet normal -0.35371522198747407 0.9053832821009898 0.23487582725004227
		outer loop
			vertex -3.201493 5.0275741 -0.179027
			vertex -3.0405419 5.1634741 -0.460498
			vertex -3.2009251 5.1755152 -0.748445
		endloop
	endfacet
	facet normal -0.38323432757517667 0.8889965446919019 0.2506323875596724
		outer loop
			vertex -3.0405419 5.1634741 -0.460498
			vertex -2.9442129 5.4766741 -1.424129
			vertex -3.2009251 5.1755152 -0.748445
		endloop
	endfacet
	facet normal -0.7183882042042234 -0.6731146558032962 -0.1755991121932026
		outer loop
			vertex -3.2009251 5.1755152 -0.748445
			vertex -3.061662 5.025445 -0.742924
			vertex -3.201493 5.0275741 -0.179027
		endloop
	endfacet
	facet normal -0.8416123767717327 -0.4989157939769873 -0.20681305032552408
		outer loop
			vertex -3.061662 5.025445 -0.742924
			vertex -3.077673 4.8738842 -0.312143
			vertex -3.201493 5.0275741 -0.179027
		endloop
	endfacet
	facet normal 0.04625981090739044 -0.942846613683454 -0.3300004438791807
		outer loop
			vertex -3.077673 4.8738842 -0.312143
			vertex -3.061662 5.025445 -0.742924
			vertex -2.6478341 4.890275 -0.298718
		endloop
	endfacet
	facet normal 0.0051758641234668935 -0.9553218276719885 -0.29552227666290587
		outer loop
			vertex -3.061662 5.025445 -0.742924
			vertex -2.754425 5.046545 -0.805752
			vertex -2.6478341 4.890275 -0.298718
		endloop
	endfacet
	facet normal 0.2967400008906664 -0.8932592265070468 -0.3376882084578022
		outer loop
			vertex -2.6478341 4.890275 -0.298718
			vertex -2.754425 5.046545 -0.805752
			vertex -2.061785 5.1936622 -0.586259
		endloop
	endfacet
	facet normal 0.3047204465800161 -0.8756513363777202 -0.3746734398592837
		outer loop
			vertex -2.754425 5.046545 -0.805752
			vertex -2.2204471 5.3706541 -1.128947
			vertex -2.061785 5.1936622 -0.586259
		endloop
	endfacet
	facet normal 0.7048429441462979 -0.5874254551744876 -0.3976528117594855
		outer loop
			vertex -2.061785 5.1936622 -0.586259
			vertex -2.2204471 5.3706541 -1.128947
			vertex -1.81695 5.5872741 -0.733743
		endloop
	endfacet
	facet normal 0.6786753807632391 -0.6538195337576759 -0.3345440850213435
		outer loop
			vertex -2.2204471 5.3706541 -1.128947
			vertex -1.921892 5.7324529 -1.230366
			vertex -1.81695 5.5872741 -0.733743
		endloop
	endfacet
	facet normal 0.4541197309854346 0.8859651314803175 0.09402688833934884
		outer loop
			vertex -2.2549341 6.2539849 -1.307652
			vertex -2.1593201 6.1605549 -0.889096
			vertex -2.0336699 6.1447811 -1.3473181
		endloop
	endfacet
	facet normal 0.5011297751279351 0.8586241467359789 0.10785881105471819
		outer loop
			vertex -2.1593201 6.1605549 -0.889096
			vertex -1.890653 5.9790368 -0.692369
			vertex -2.0336699 6.1447811 -1.3473181
		endloop
	endfacet
	facet normal -0.77047151537911 0.5617257585432658 0.30139312563230547
		outer loop
			vertex -2.1593201 6.1605549 -0.889096
			vertex -2.2549341 6.2539849 -1.307652
			vertex -2.2406411 6.0580101 -0.905863
		endloop
	endfacet
	facet normal -0.9464867539696002 0.2755321468243204 0.16806207373012763
		outer loop
			vertex -2.3130901 6.150198 -1.465018
			vertex -2.2406411 6.0580101 -0.905863
			vertex -2.2549341 6.2539849 -1.307652
		endloop
	endfacet
	facet normal -0.6674211428546466 -0.5174604572300394 -0.5355218886972558
		outer loop
			vertex -3.0852859 5.3690701 -1.405542
			vertex -2.776823 5.7102599 -2.119662
			vertex -2.8879471 5.1902041 -1.478652
		endloop
	endfacet
	facet normal -0.4132832847997712 -0.6707691507124063 -0.6158454943877307
		outer loop
			vertex -2.776823 5.7102599 -2.119662
			vertex -2.643476 5.61132 -2.1013851
			vertex -2.8879471 5.1902041 -1.478652
		endloop
	endfacet
	facet normal 0.21418720983541742 -0.8286034395450261 -0.5172428627995471
		outer loop
			vertex -2.442003 5.6912961 -2.146075
			vertex -2.616025 5.1974258 -1.426975
			vertex -2.643476 5.61132 -2.1013851
		endloop
	endfacet
	facet normal 0.12175639126144233 -0.8437355473505025 -0.522767354876085
		outer loop
			vertex -2.616025 5.1974258 -1.426975
			vertex -2.8879471 5.1902041 -1.478652
			vertex -2.643476 5.61132 -2.1013851
		endloop
	endfacet
	facet normal 0.5392230525843918 -0.7686596609289043 -0.34409420980631517
		outer loop
			vertex -2.2488489 5.5773792 -1.700345
			vertex -2.616025 5.1974258 -1.426975
			vertex -2.2042 5.8095269 -2.148963
		endloop
	endfacet
	facet normal 0.3921410903601215 -0.7998312267154669 -0.454417620721299
		outer loop
			vertex -2.616025 5.1974258 -1.426975
			vertex -2.442003 5.6912961 -2.146075
			vertex -2.2042 5.8095269 -2.148963
		endloop
	endfacet
	facet normal 0.7270565961455362 -0.6366311319114691 -0.2570787970299933
		outer loop
			vertex -2.2042 5.8095269 -2.148963
			vertex -2.014138 6.022552 -2.1389761
			vertex -2.2488489 5.5773792 -1.700345
		endloop
	endfacet
	facet normal 0.5794668955379998 -0.7062567990541991 -0.4067179007189988
		outer loop
			vertex -2.014138 6.022552 -2.1389761
			vertex -1.942626 5.8815942 -1.79232
			vertex -2.2488489 5.5773792 -1.700345
		endloop
	endfacet
	facet normal 0.4181129149664804 0.8594521898170945 0.29414881226487005
		outer loop
			vertex -2.0673671 6.267477 -1.819129
			vertex -2.0636251 6.3772898 -2.1453021
			vertex -2.3539419 6.3936682 -1.780491
		endloop
	endfacet
	facet normal 0.4294885945196311 0.8505084926966762 0.3036031143258907
		outer loop
			vertex -2.0636251 6.3772898 -2.1453021
			vertex -2.3807111 6.5199022 -2.096252
			vertex -2.3539419 6.3936682 -1.780491
		endloop
	endfacet
	facet normal -0.9340570330718401 0.32741006168920483 0.14261875919283074
		outer loop
			vertex -2.3601291 6.7284112 -2.4401281
			vertex -2.4098151 6.5393548 -2.331521
			vertex -2.3807111 6.5199022 -2.096252
		endloop
	endfacet
	facet normal -0.9907561843414868 0.048749737696873734 0.12659244157367366
		outer loop
			vertex -2.4098151 6.5393548 -2.331521
			vertex -2.3566661 6.2193441 -1.792325
			vertex -2.3807111 6.5199022 -2.096252
		endloop
	endfacet
	facet normal -0.9960506540681521 0.009573340001024841 0.0882691661432872
		outer loop
			vertex -2.3566661 6.2193441 -1.792325
			vertex -2.3539419 6.3936682 -1.780491
			vertex -2.3807111 6.5199022 -2.096252
		endloop
	endfacet
	facet normal -0.7485994470926405 0.48443392232967375 0.4526838220092263
		outer loop
			vertex -1.583039 5.9483399 0.274346
			vertex -1.644932 5.8196621 0.309697
			vertex -1.255946 5.8797169 0.888693
		endloop
	endfacet
	facet normal -0.7855353440037233 0.3801024745212913 0.48831990762587524
		outer loop
			vertex -1.644932 5.8196621 0.309697
			vertex -1.307819 5.7642932 0.895092
			vertex -1.255946 5.8797169 0.888693
		endloop
	endfacet
	facet normal -0.777486541873606 0.4320148793219251 0.4570315320083332
		outer loop
			vertex -1.954803 5.9220939 -0.31427
			vertex -1.644932 5.8196621 0.309697
			vertex -1.808454 6.013917 -0.152103
		endloop
	endfacet
	facet normal -0.7405791250180439 0.48421237000937345 0.46591945689938125
		outer loop
			vertex -1.644932 5.8196621 0.309697
			vertex -1.583039 5.9483399 0.274346
			vertex -1.808454 6.013917 -0.152103
		endloop
	endfacet
	facet normal -0.7773220909397316 0.4331389971662564 0.45624661759940005
		outer loop
			vertex -1.954803 5.9220939 -0.31427
			vertex -1.808454 6.013917 -0.152103
			vertex -2.1593201 6.1605549 -0.889096
		endloop
	endfacet
	facet normal -0.7283927177594813 0.5012617874959021 0.4670981364888642
		outer loop
			vertex -1.954803 5.9220939 -0.31427
			vertex -2.1593201 6.1605549 -0.889096
			vertex -2.2406411 6.0580101 -0.905863
		endloop
	endfacet
	facet normal -0.9491564066117797 0.2577028092394071 0.18080757146185011
		outer loop
			vertex -2.3130901 6.150198 -1.465018
			vertex -2.2549341 6.2539849 -1.307652
			vertex -2.3566661 6.2193441 -1.792325
		endloop
	endfacet
	facet normal -0.9786920995764565 0.0013554717831980618 0.20532885068317164
		outer loop
			vertex -2.2549341 6.2539849 -1.307652
			vertex -2.3539419 6.3936682 -1.780491
			vertex -2.3566661 6.2193441 -1.792325
		endloop
	endfacet
	facet normal 0.10343377892931825 0.44766214645818814 -0.8882004593586118
		outer loop
			vertex -2.340502 6.872436 -2.771924
			vertex -2.3137 6.9811001 -2.714035
			vertex -2.3272641 6.75631 -2.8289111
		endloop
	endfacet
	facet normal 0.6006863157915102 0.3347757303531915 -0.7260173278836458
		outer loop
			vertex -2.3137 6.9811001 -2.714035
			vertex -2.2906251 6.7798119 -2.78776
			vertex -2.3272641 6.75631 -2.8289111
		endloop
	endfacet
	facet normal 0.7418853266876156 0.6009418567732949 -0.29744755306351817
		outer loop
			vertex -1.1534261 5.7311959 0.844334
			vertex -1.479525 5.8188701 0.208118
			vertex -1.255946 5.8797169 0.888693
		endloop
	endfacet
	facet normal 0.6736224260792826 0.6830123244138301 -0.2823596851214392
		outer loop
			vertex -1.479525 5.8188701 0.208118
			vertex -1.583039 5.9483399 0.274346
			vertex -1.255946 5.8797169 0.888693
		endloop
	endfacet
	facet normal 0.6414413325073116 0.7330244936607503 -0.22633627337359183
		outer loop
			vertex -1.808454 6.013917 -0.152103
			vertex -1.583039 5.9483399 0.274346
			vertex -1.700808 5.895155 -0.231661
		endloop
	endfacet
	facet normal 0.6976695967473576 0.677277780651525 -0.23356357081129847
		outer loop
			vertex -1.583039 5.9483399 0.274346
			vertex -1.479525 5.8188701 0.208118
			vertex -1.700808 5.895155 -0.231661
		endloop
	endfacet
	facet normal 0.624445088213459 0.7675742151570011 -0.14456194531134148
		outer loop
			vertex -2.1593201 6.1605549 -0.889096
			vertex -1.808454 6.013917 -0.152103
			vertex -1.890653 5.9790368 -0.692369
		endloop
	endfacet
	facet normal 0.6805409112761418 0.7172239850362829 -0.14984599883918295
		outer loop
			vertex -1.808454 6.013917 -0.152103
			vertex -1.700808 5.895155 -0.231661
			vertex -1.890653 5.9790368 -0.692369
		endloop
	endfacet
	facet normal 0.4165003448658249 0.8918847297399148 0.1762642663259005
		outer loop
			vertex -2.3539419 6.3936682 -1.780491
			vertex -2.2549341 6.2539849 -1.307652
			vertex -2.0673671 6.267477 -1.819129
		endloop
	endfacet
	facet normal 0.4618165320389723 0.8659017161901968 0.19219705677863166
		outer loop
			vertex -2.2549341 6.2539849 -1.307652
			vertex -2.0336699 6.1447811 -1.3473181
			vertex -2.0673671 6.267477 -1.819129
		endloop
	endfacet
	facet normal 0.9579454655654045 0.2414695630665792 -0.15502559503229107
		outer loop
			vertex -2.0636251 6.3772898 -2.1453021
			vertex -2.1900251 6.622613 -2.5442441
			vertex -2.2090781 6.7325511 -2.490737
		endloop
	endfacet
	facet normal 0.43807469794878856 -0.8947198830952577 -0.08698787163211856
		outer loop
			vertex -2.199353 4.7088132 0.512155
			vertex -1.585291 5.0317979 0.282516
			vertex -2.0443871 4.7612591 0.753134
		endloop
	endfacet
	facet normal 0.3799616514459248 -0.9121442229059828 -0.15369469753288975
		outer loop
			vertex -1.585291 5.0317979 0.282516
			vertex -1.3307101 5.0358801 0.88766
			vertex -2.0443871 4.7612591 0.753134
		endloop
	endfacet
	facet normal 0.364956398869203 -0.9302869838115394 -0.037053403018506674
		outer loop
			vertex -1.3307101 5.0358801 0.88766
			vertex -1.836429 4.8314781 1.038447
			vertex -2.0443871 4.7612591 0.753134
		endloop
	endfacet
	facet normal 0.7942429678768748 -0.45748831885236585 -0.39985315566063717
		outer loop
			vertex -1.638863 5.4812789 -0.275378
			vertex -1.422295 5.4457841 0.19541
			vertex -1.820358 5.077311 -0.173692
		endloop
	endfacet
	facet normal 0.7945729486353936 -0.40754053709629845 -0.45007170530940604
		outer loop
			vertex -1.422295 5.4457841 0.19541
			vertex -1.585291 5.0317979 0.282516
			vertex -1.820358 5.077311 -0.173692
		endloop
	endfacet
	facet normal 0.6991053940948303 -0.5875417190701029 -0.40748788485016385
		outer loop
			vertex -1.81695 5.5872741 -0.733743
			vertex -1.638863 5.4812789 -0.275378
			vertex -2.061785 5.1936622 -0.586259
		endloop
	endfacet
	facet normal 0.7071821180196968 -0.45413015251757466 -0.5419033645656207
		outer loop
			vertex -1.638863 5.4812789 -0.275378
			vertex -1.820358 5.077311 -0.173692
			vertex -2.061785 5.1936622 -0.586259
		endloop
	endfacet
	facet normal 0.7032060675259613 -0.6566790803129874 -0.2725322220838525
		outer loop
			vertex -2.2204471 5.3706541 -1.128947
			vertex -2.2488489 5.5773792 -1.700345
			vertex -1.921892 5.7324529 -1.230366
		endloop
	endfacet
	facet normal 0.6546001229694807 -0.7243434597272823 -0.2163913846682716
		outer loop
			vertex -2.2488489 5.5773792 -1.700345
			vertex -1.942626 5.8815942 -1.79232
			vertex -1.921892 5.7324529 -1.230366
		endloop
	endfacet
	facet normal 0.33188059320987195 -0.9063719880051387 -0.2614289410342247
		outer loop
			vertex -1.820358 5.077311 -0.173692
			vertex -1.585291 5.0317979 0.282516
			vertex -2.414763 4.7745519 0.121382
		endloop
	endfacet
	facet normal 0.33780512620664677 -0.8798735772126103 -0.33423073591696545
		outer loop
			vertex -1.585291 5.0317979 0.282516
			vertex -2.199353 4.7088132 0.512155
			vertex -2.414763 4.7745519 0.121382
		endloop
	endfacet
	facet normal 0.4666283151141627 -0.877684993803901 -0.10921111291972106
		outer loop
			vertex -2.754425 5.046545 -0.805752
			vertex -2.616025 5.1974258 -1.426975
			vertex -2.2204471 5.3706541 -1.128947
		endloop
	endfacet
	facet normal 0.5655151534315032 -0.7661515286634366 -0.30529403264070337
		outer loop
			vertex -2.616025 5.1974258 -1.426975
			vertex -2.2488489 5.5773792 -1.700345
			vertex -2.2204471 5.3706541 -1.128947
		endloop
	endfacet
	facet normal -0.1266143755757601 -0.5522409364998857 -0.8240138032528882
		outer loop
			vertex -2.367079 6.4334989 -2.655
			vertex -2.1776409 6.0197482 -2.4068191
			vertex -2.442003 5.6912961 -2.146075
		endloop
	endfacet
	facet normal 0.36132173509654447 -0.7405820159376091 -0.5665552765764427
		outer loop
			vertex -2.1776409 6.0197482 -2.4068191
			vertex -2.2042 5.8095269 -2.148963
			vertex -2.442003 5.6912961 -2.146075
		endloop
	endfacet
	facet normal -0.55427470403713 -0.7771241657374444 0.2980898916290746
		outer loop
			vertex -2.631248 4.8656101 0.877524
			vertex -2.7768431 4.8827238 0.651417
			vertex -2.3412499 4.6653032 0.89455
		endloop
	endfacet
	facet normal -0.5649020044334941 -0.7520621822133453 0.3395411602022971
		outer loop
			vertex -2.7768431 4.8827238 0.651417
			vertex -2.4790511 4.6858211 0.710733
			vertex -2.3412499 4.6653032 0.89455
		endloop
	endfacet
	facet normal 0.15942399700704696 -0.9809533178304761 0.11097106566883999
		outer loop
			vertex -2.199353 4.7088132 0.512155
			vertex -2.0443871 4.7612591 0.753134
			vertex -2.4790511 4.6858211 0.710733
		endloop
	endfacet
	facet normal 0.1890814077232015 -0.9501786348231006 -0.24780795624660965
		outer loop
			vertex -2.0443871 4.7612591 0.753134
			vertex -2.3412499 4.6653032 0.89455
			vertex -2.4790511 4.6858211 0.710733
		endloop
	endfacet
	facet normal -0.5677663493693138 -0.775500676927877 0.2761160491681844
		outer loop
			vertex -2.4790511 4.6858211 0.710733
			vertex -2.7768431 4.8827238 0.651417
			vertex -2.728343 4.7432642 0.359459
		endloop
	endfacet
	facet normal -0.5349707038220145 -0.7934840270888533 0.2901541742023272
		outer loop
			vertex -2.7768431 4.8827238 0.651417
			vertex -3.012059 4.9185729 0.315775
			vertex -2.728343 4.7432642 0.359459
		endloop
	endfacet
	facet normal -0.019457822662099212 -0.9876560755081856 -0.15542480384102017
		outer loop
			vertex -2.414763 4.7745519 0.121382
			vertex -2.199353 4.7088132 0.512155
			vertex -2.728343 4.7432642 0.359459
		endloop
	endfacet
	facet normal -0.02229323542895045 -0.9890458363754224 -0.14591554133316495
		outer loop
			vertex -2.199353 4.7088132 0.512155
			vertex -2.4790511 4.6858211 0.710733
			vertex -2.728343 4.7432642 0.359459
		endloop
	endfacet
	facet normal -0.5349395477409664 -0.8369633188201067 0.1154646405282727
		outer loop
			vertex -2.728343 4.7432642 0.359459
			vertex -3.012059 4.9185729 0.315775
			vertex -3.077673 4.8738842 -0.312143
		endloop
	endfacet
	facet normal -0.717622466545353 -0.685347053466323 0.12376353184356449
		outer loop
			vertex -3.012059 4.9185729 0.315775
			vertex -3.201493 5.0275741 -0.179027
			vertex -3.077673 4.8738842 -0.312143
		endloop
	endfacet
	facet normal -0.03378625556672836 -0.9841937533641819 -0.17384229857460906
		outer loop
			vertex -2.728343 4.7432642 0.359459
			vertex -3.077673 4.8738842 -0.312143
			vertex -2.414763 4.7745519 0.121382
		endloop
	endfacet
	facet normal 0.04548387654087791 -0.9563461839627951 -0.28867489221373915
		outer loop
			vertex -3.077673 4.8738842 -0.312143
			vertex -2.6478341 4.890275 -0.298718
			vertex -2.414763 4.7745519 0.121382
		endloop
	endfacet
	facet normal -0.6902623019407472 -0.6520895486512115 -0.31355569690139595
		outer loop
			vertex -3.2009251 5.1755152 -0.748445
			vertex -3.0852859 5.3690701 -1.405542
			vertex -3.061662 5.025445 -0.742924
		endloop
	endfacet
	facet normal -0.6989989146419785 -0.6447165088091757 -0.30942065315399375
		outer loop
			vertex -3.0852859 5.3690701 -1.405542
			vertex -2.8879471 5.1902041 -1.478652
			vertex -3.061662 5.025445 -0.742924
		endloop
	endfacet
	facet normal 0.02348367940054876 -0.9767297362341909 -0.2131842844998203
		outer loop
			vertex -3.061662 5.025445 -0.742924
			vertex -2.8879471 5.1902041 -1.478652
			vertex -2.754425 5.046545 -0.805752
		endloop
	endfacet
	facet normal 0.0678689749515243 -0.9728713161798166 -0.22116781952531228
		outer loop
			vertex -2.8879471 5.1902041 -1.478652
			vertex -2.616025 5.1974258 -1.426975
			vertex -2.754425 5.046545 -0.805752
		endloop
	endfacet
	facet normal -0.3092525295497493 -0.4463534553199361 -0.8397210643368638
		outer loop
			vertex -2.4229801 6.4950609 -2.667136
			vertex -2.367079 6.4334989 -2.655
			vertex -2.776823 5.7102599 -2.119662
		endloop
	endfacet
	facet normal -0.2438690098205868 -0.48392868258495075 -0.8404409177453944
		outer loop
			vertex -2.367079 6.4334989 -2.655
			vertex -2.643476 5.61132 -2.1013851
			vertex -2.776823 5.7102599 -2.119662
		endloop
	endfacet
	facet normal 0.04313386414799739 -0.567949489328376 -0.8219323861092827
		outer loop
			vertex -2.367079 6.4334989 -2.655
			vertex -2.442003 5.6912961 -2.146075
			vertex -2.643476 5.61132 -2.1013851
		endloop
	endfacet
	facet normal -0.5967630400147502 0.7975785128513952 0.08799085128643012
		outer loop
			vertex -2.625061 5.7886829 -2.08776
			vertex -3.0852859 5.3690701 -1.405542
			vertex -2.9442129 5.4766741 -1.424129
		endloop
	endfacet
	facet normal -0.5903185370597721 0.7965127859416944 0.13073410662490226
		outer loop
			vertex -2.9442129 5.4766741 -1.424129
			vertex -3.0852859 5.3690701 -1.405542
			vertex -3.2009251 5.1755152 -0.748445
		endloop
	endfacet
	facet normal -0.2425543438558839 0.9237631551140469 0.29635961858927945
		outer loop
			vertex -2.7374821 5.0998559 -0.024564
			vertex -3.201493 5.0275741 -0.179027
			vertex -3.012059 4.9185729 0.315775
		endloop
	endfacet
	facet normal -0.2108743436313764 0.8953700514472106 0.39223013929255335
		outer loop
			vertex -1.466164 5.1858711 0.800024
			vertex -1.5468661 5.2218661 0.674468
			vertex -1.950093 4.985034 0.998314
		endloop
	endfacet
	facet normal -0.2968216953038481 0.9083252923549132 0.2946897427215799
		outer loop
			vertex -1.5468661 5.2218661 0.674468
			vertex -2.09114 4.9998922 0.810449
			vertex -1.950093 4.985034 0.998314
		endloop
	endfacet
	facet normal -0.21793155690562435 0.8993521845899448 0.3790402149877829
		outer loop
			vertex -1.395278 5.1529241 0.918954
			vertex -1.466164 5.1858711 0.800024
			vertex -1.950093 4.985034 0.998314
		endloop
	endfacet
	facet normal -0.17601668345252588 0.9346370649792372 0.3089849250584413
		outer loop
			vertex -2.3356521 4.8292398 1.2499321
			vertex -1.8888609 4.972672 1.0705889
			vertex -1.950093 4.985034 0.998314
		endloop
	endfacet
	facet normal -0.2258171255324478 0.9102700817994281 0.3470086511848448
		outer loop
			vertex -1.950093 4.985034 0.998314
			vertex -1.8888609 4.972672 1.0705889
			vertex -1.395278 5.1529241 0.918954
		endloop
	endfacet
	facet normal -0.30814405127968875 0.9438713569228581 0.11897102689959194
		outer loop
			vertex -1.8888609 4.972672 1.0705889
			vertex -1.386422 5.1523619 0.946352
			vertex -1.395278 5.1529241 0.918954
		endloop
	endfacet
	facet normal 0.38950339726386696 -0.06450978241082429 0.9187630769100458
		outer loop
			vertex -1.8888609 4.972672 1.0705889
			vertex -2.3356521 4.8292398 1.2499321
			vertex -1.836429 4.8314781 1.038447
		endloop
	endfacet
	facet normal 0.38721720026719175 -0.13078846818577314 0.9126648982002411
		outer loop
			vertex -2.3356521 4.8292398 1.2499321
			vertex -2.2691021 4.7219729 1.2063251
			vertex -1.836429 4.8314781 1.038447
		endloop
	endfacet
	facet normal -0.5577039896477022 -0.7843386359411239 0.27162320243501487
		outer loop
			vertex -2.3412499 4.6653032 0.89455
			vertex -2.2691021 4.7219729 1.2063251
			vertex -2.631248 4.8656101 0.877524
		endloop
	endfacet
	facet normal -0.6565269965067903 -0.5955225001206479 0.4629527564534272
		outer loop
			vertex -2.2691021 4.7219729 1.2063251
			vertex -2.3356521 4.8292398 1.2499321
			vertex -2.631248 4.8656101 0.877524
		endloop
	endfacet
	facet normal 0.26194367571524346 -0.9639709261871311 0.046320235520904696
		outer loop
			vertex -1.836429 4.8314781 1.038447
			vertex -2.2691021 4.7219729 1.2063251
			vertex -2.0443871 4.7612591 0.753134
		endloop
	endfacet
	facet normal 0.34488397242079544 -0.9343190263970861 0.09001667889704293
		outer loop
			vertex -2.2691021 4.7219729 1.2063251
			vertex -2.3412499 4.6653032 0.89455
			vertex -2.0443871 4.7612591 0.753134
		endloop
	endfacet
	facet normal 0.26514263448836684 -0.8818116767894487 -0.39000967943674086
		outer loop
			vertex -2.6478341 4.890275 -0.298718
			vertex -2.061785 5.1936622 -0.586259
			vertex -2.414763 4.7745519 0.121382
		endloop
	endfacet
	facet normal 0.252582829365107 -0.8825173694310545 -0.3966925849602043
		outer loop
			vertex -2.061785 5.1936622 -0.586259
			vertex -1.820358 5.077311 -0.173692
			vertex -2.414763 4.7745519 0.121382
		endloop
	endfacet
	facet normal -0.24628871672994304 0.930258900824451 0.27195633003922187
		outer loop
			vertex -2.7768431 4.8827238 0.651417
			vertex -2.311954 5.0414472 0.529497
			vertex -3.012059 4.9185729 0.315775
		endloop
	endfacet
	facet normal -0.2505930267513265 0.9236878892666287 0.2898341218106818
		outer loop
			vertex -2.311954 5.0414472 0.529497
			vertex -2.7374821 5.0998559 -0.024564
			vertex -3.012059 4.9185729 0.315775
		endloop
	endfacet
	facet normal -0.4377034533638297 0.6417420887052016 0.6297481865775107
		outer loop
			vertex -2.4229801 6.4950609 -2.667136
			vertex -2.625061 5.7886829 -2.08776
			vertex -2.371747 5.9391999 -2.065079
		endloop
	endfacet
	facet normal -0.910221614961299 0.01338608008026084 0.4139050911952277
		outer loop
			vertex -1.218367 5.4249358 0.889134
			vertex -1.214431 5.6406279 0.890814
			vertex -1.291522 5.4552479 0.727278
		endloop
	endfacet
	facet normal -0.949105685041937 0.15072589302528455 0.27655036393540683
		outer loop
			vertex -1.214431 5.6406279 0.890814
			vertex -1.237543 5.6742759 0.793156
			vertex -1.291522 5.4552479 0.727278
		endloop
	endfacet
	facet normal -0.8478458998910838 0.05018231777447567 0.527862733123546
		outer loop
			vertex -1.237543 5.6742759 0.793156
			vertex -1.28282 5.6749039 0.720373
			vertex -1.291522 5.4552479 0.727278
		endloop
	endfacet
	facet normal -0.8087288806236345 0.05046062477559483 0.5860130740798365
		outer loop
			vertex -1.28282 5.6749039 0.720373
			vertex -1.37034 5.4662342 0.617559
			vertex -1.291522 5.4552479 0.727278
		endloop
	endfacet
	facet normal -0.8213096339839497 0.06523289549544527 0.5667408177204382
		outer loop
			vertex -1.28282 5.6749039 0.720373
			vertex -1.563063 5.7619691 0.304229
			vertex -1.37034 5.4662342 0.617559
		endloop
	endfacet
	facet normal -0.9025879922081562 -0.16843448153328183 0.3961877607300153
		outer loop
			vertex -1.563063 5.7619691 0.304229
			vertex -1.511021 5.5425529 0.329508
			vertex -1.37034 5.4662342 0.617559
		endloop
	endfacet
	facet normal 0.29576199606329023 -0.08014727865980585 0.9518935105399583
		outer loop
			vertex -1.255946 5.8797169 0.888693
			vertex -1.307819 5.7642932 0.895092
			vertex -1.1534261 5.7311959 0.844334
		endloop
	endfacet
	facet normal 0.34826805706674024 0.2315781409838281 0.9083396529082237
		outer loop
			vertex -1.307819 5.7642932 0.895092
			vertex -1.214431 5.6406279 0.890814
			vertex -1.1534261 5.7311959 0.844334
		endloop
	endfacet
	facet normal 0.7966834896229692 -0.4075763225426441 -0.44629245866895756
		outer loop
			vertex -1.422295 5.4457841 0.19541
			vertex -1.108338 5.3514938 0.84197
			vertex -1.585291 5.0317979 0.282516
		endloop
	endfacet
	facet normal 0.7543194898883896 -0.5768475802858192 -0.3134469273942804
		outer loop
			vertex -1.108338 5.3514938 0.84197
			vertex -1.3307101 5.0358801 0.88766
			vertex -1.585291 5.0317979 0.282516
		endloop
	endfacet
	facet normal -0.7939848262963962 0.5457548978126304 0.26784265366928944
		outer loop
			vertex -1.386422 5.1523619 0.946352
			vertex -1.218367 5.4249358 0.889134
			vertex -1.395278 5.1529241 0.918954
		endloop
	endfacet
	facet normal -0.734456474476219 0.5248429804695058 0.4302482224854033
		outer loop
			vertex -1.218367 5.4249358 0.889134
			vertex -1.291522 5.4552479 0.727278
			vertex -1.395278 5.1529241 0.918954
		endloop
	endfacet
	facet normal -0.636546603259904 0.5567990238657518 0.5336508867231688
		outer loop
			vertex -1.291522 5.4552479 0.727278
			vertex -1.466164 5.1858711 0.800024
			vertex -1.395278 5.1529241 0.918954
		endloop
	endfacet
	facet normal -0.64582269529292 0.5591044261123163 0.519918538759877
		outer loop
			vertex -1.291522 5.4552479 0.727278
			vertex -1.37034 5.4662342 0.617559
			vertex -1.466164 5.1858711 0.800024
		endloop
	endfacet
	facet normal -0.6083005665425553 0.5684278923677809 0.5539495933045974
		outer loop
			vertex -1.37034 5.4662342 0.617559
			vertex -1.5468661 5.2218661 0.674468
			vertex -1.466164 5.1858711 0.800024
		endloop
	endfacet
	facet normal -0.6566833543960159 0.5851688072775765 0.47575670152771926
		outer loop
			vertex -1.37034 5.4662342 0.617559
			vertex -1.511021 5.5425529 0.329508
			vertex -1.5468661 5.2218661 0.674468
		endloop
	endfacet
	facet normal -0.623864366165627 0.6036682521675995 0.4963646783904713
		outer loop
			vertex -1.511021 5.5425529 0.329508
			vertex -1.726905 5.2870531 0.368904
			vertex -1.5468661 5.2218661 0.674468
		endloop
	endfacet
	facet normal 0.33474315134177784 -0.10020974119931139 0.9369658640519102
		outer loop
			vertex -1.108338 5.3514938 0.84197
			vertex -1.218367 5.4249358 0.889134
			vertex -1.3307101 5.0358801 0.88766
		endloop
	endfacet
	facet normal 0.5392090334500979 -0.15883457841410278 0.8270581569308326
		outer loop
			vertex -1.218367 5.4249358 0.889134
			vertex -1.386422 5.1523619 0.946352
			vertex -1.3307101 5.0358801 0.88766
		endloop
	endfacet
	facet normal 0.27682594094573504 -0.11439340652127006 0.9540867607109786
		outer loop
			vertex -1.8888609 4.972672 1.0705889
			vertex -1.836429 4.8314781 1.038447
			vertex -1.386422 5.1523619 0.946352
		endloop
	endfacet
	facet normal 0.3733776005904816 -0.26879798370539226 0.8878833320505632
		outer loop
			vertex -1.836429 4.8314781 1.038447
			vertex -1.3307101 5.0358801 0.88766
			vertex -1.386422 5.1523619 0.946352
		endloop
	endfacet
	facet normal 0.5472821281556282 0.05979008526163523 0.8348098094211958
		outer loop
			vertex -1.1534261 5.7311959 0.844334
			vertex -1.214431 5.6406279 0.890814
			vertex -1.108338 5.3514938 0.84197
		endloop
	endfacet
	facet normal 0.3859038463838366 -0.014226755500049497 0.9224293039437236
		outer loop
			vertex -1.214431 5.6406279 0.890814
			vertex -1.218367 5.4249358 0.889134
			vertex -1.108338 5.3514938 0.84197
		endloop
	endfacet
	facet normal 0.8976496615517967 0.15178903897543425 -0.41374529938460797
		outer loop
			vertex -1.422295 5.4457841 0.19541
			vertex -1.479525 5.8188701 0.208118
			vertex -1.108338 5.3514938 0.84197
		endloop
	endfacet
	facet normal 0.8906475063344838 0.10850992044822859 -0.4415570366605936
		outer loop
			vertex -1.479525 5.8188701 0.208118
			vertex -1.1534261 5.7311959 0.844334
			vertex -1.108338 5.3514938 0.84197
		endloop
	endfacet
	facet normal 0.8911277174909478 0.17748583939145518 -0.41760048842749714
		outer loop
			vertex -1.700808 5.895155 -0.231661
			vertex -1.479525 5.8188701 0.208118
			vertex -1.638863 5.4812789 -0.275378
		endloop
	endfacet
	facet normal 0.9022154944421241 0.15214245681681357 -0.403559009839079
		outer loop
			vertex -1.479525 5.8188701 0.208118
			vertex -1.422295 5.4457841 0.19541
			vertex -1.638863 5.4812789 -0.275378
		endloop
	endfacet
	facet normal 0.917057610962264 0.20842918946951505 -0.3399450119552662
		outer loop
			vertex -1.890653 5.9790368 -0.692369
			vertex -1.700808 5.895155 -0.231661
			vertex -1.81695 5.5872741 -0.733743
		endloop
	endfacet
	facet normal 0.9308828429058988 0.1732955176665118 -0.3215988127156687
		outer loop
			vertex -1.700808 5.895155 -0.231661
			vertex -1.638863 5.4812789 -0.275378
			vertex -1.81695 5.5872741 -0.733743
		endloop
	endfacet
	facet normal 0.9636777230002721 0.21714270747289124 -0.15548083735416776
		outer loop
			vertex -2.0336699 6.1447811 -1.3473181
			vertex -1.890653 5.9790368 -0.692369
			vertex -1.921892 5.7324529 -1.230366
		endloop
	endfacet
	facet normal 0.9691542453172397 0.1978486426826519 -0.14695565103868619
		outer loop
			vertex -1.890653 5.9790368 -0.692369
			vertex -1.81695 5.5872741 -0.733743
			vertex -1.921892 5.7324529 -1.230366
		endloop
	endfacet
	facet normal 0.951198371639749 0.3083368829688222 0.012248444430248686
		outer loop
			vertex -2.0673671 6.267477 -1.819129
			vertex -2.0336699 6.1447811 -1.3473181
			vertex -1.942626 5.8815942 -1.79232
		endloop
	endfacet
	facet normal 0.9618627666172355 0.27109192136892163 0.036458035656685414
		outer loop
			vertex -2.0336699 6.1447811 -1.3473181
			vertex -1.921892 5.7324529 -1.230366
			vertex -1.942626 5.8815942 -1.79232
		endloop
	endfacet
	facet normal 0.9799134665419079 0.1340684723188583 -0.1476321198788015
		outer loop
			vertex -2.014138 6.022552 -2.1389761
			vertex -2.0636251 6.3772898 -2.1453021
			vertex -1.942626 5.8815942 -1.79232
		endloop
	endfacet
	facet normal 0.9426920113601491 0.3128039955535594 0.11612679313356412
		outer loop
			vertex -2.0636251 6.3772898 -2.1453021
			vertex -2.0673671 6.267477 -1.819129
			vertex -1.942626 5.8815942 -1.79232
		endloop
	endfacet
	facet normal 0.987575219784637 0.13637764626069693 -0.07807895278318049
		outer loop
			vertex -2.014138 6.022552 -2.1389761
			vertex -2.060344 6.189548 -2.4317231
			vertex -2.0636251 6.3772898 -2.1453021
		endloop
	endfacet
	facet normal 0.6912339938170282 0.15733126540899034 -0.7052959936909938
		outer loop
			vertex -2.3272641 6.75631 -2.8289111
			vertex -2.2906251 6.7798119 -2.78776
			vertex -2.3202429 6.6797371 -2.8391111
		endloop
	endfacet
	facet normal 0.2210931552193652 0.39264462942507344 -0.8927194473622676
		outer loop
			vertex -2.2906251 6.7798119 -2.78776
			vertex -2.2722411 6.685514 -2.824682
			vertex -2.3202429 6.6797371 -2.8391111
		endloop
	endfacet
	facet normal -0.9959256468912085 -0.06237517258693011 0.06512636723385096
		outer loop
			vertex -2.226378 6.203053 -1.815993
			vertex -2.299752 6.6054249 -2.552669
			vertex -2.220711 6.0312181 -1.893908
		endloop
	endfacet
	facet normal -0.9955979220200711 -0.07876674304951949 0.050799388369228496
		outer loop
			vertex -2.299752 6.6054249 -2.552669
			vertex -2.2917249 6.493906 -2.568264
			vertex -2.220711 6.0312181 -1.893908
		endloop
	endfacet
	facet normal 0.6068058651854569 -0.6962196675004643 -0.3834903083026637
		outer loop
			vertex -1.237543 5.6742759 0.793156
			vertex -1.214431 5.6406279 0.890814
			vertex -1.28282 5.6749039 0.720373
		endloop
	endfacet
	facet normal -0.7797699026466686 -0.5955373573975545 0.19311694609832344
		outer loop
			vertex -1.214431 5.6406279 0.890814
			vertex -1.307819 5.7642932 0.895092
			vertex -1.28282 5.6749039 0.720373
		endloop
	endfacet
	facet normal -0.5484280451055692 -0.8009970386706878 0.24006337367968636
		outer loop
			vertex -1.644932 5.8196621 0.309697
			vertex -1.563063 5.7619691 0.304229
			vertex -1.307819 5.7642932 0.895092
		endloop
	endfacet
	facet normal -0.6358286180801184 -0.720218682426596 0.2775013836254249
		outer loop
			vertex -1.563063 5.7619691 0.304229
			vertex -1.28282 5.6749039 0.720373
			vertex -1.307819 5.7642932 0.895092
		endloop
	endfacet
	facet normal 0.9549737314673514 0.25303323931800636 -0.15491724244757157
		outer loop
			vertex -2.060344 6.189548 -2.4317231
			vertex -2.1957991 6.5302601 -2.7102239
			vertex -2.0636251 6.3772898 -2.1453021
		endloop
	endfacet
	facet normal 0.9593841130515367 0.2310121588670347 -0.1619120319182866
		outer loop
			vertex -2.1957991 6.5302601 -2.7102239
			vertex -2.1900251 6.622613 -2.5442441
			vertex -2.0636251 6.3772898 -2.1453021
		endloop
	endfacet
	facet normal 0.7328058320717742 -0.5623956133068174 -0.38302321941997663
		outer loop
			vertex -2.1776409 6.0197482 -2.4068191
			vertex -2.060344 6.189548 -2.4317231
			vertex -2.2042 5.8095269 -2.148963
		endloop
	endfacet
	facet normal 0.6797254323920551 -0.5857594825226519 -0.44142855049739244
		outer loop
			vertex -2.060344 6.189548 -2.4317231
			vertex -2.014138 6.022552 -2.1389761
			vertex -2.2042 5.8095269 -2.148963
		endloop
	endfacet
	facet normal 0.011232702411855384 -0.5105702013924541 -0.8597626974035311
		outer loop
			vertex -2.367079 6.4334989 -2.655
			vertex -2.1957991 6.5302601 -2.7102239
			vertex -2.1776409 6.0197482 -2.4068191
		endloop
	endfacet
	facet normal 0.47163842072223694 -0.43804844841717644 -0.765291288946855
		outer loop
			vertex -2.1957991 6.5302601 -2.7102239
			vertex -2.060344 6.189548 -2.4317231
			vertex -2.1776409 6.0197482 -2.4068191
		endloop
	endfacet
	facet normal -0.7678870388255818 0.4876171574595257 0.4154262911212669
		outer loop
			vertex -2.220711 6.0312181 -1.893908
			vertex -2.2917249 6.493906 -2.568264
			vertex -2.371747 5.9391999 -2.065079
		endloop
	endfacet
	facet normal -0.4631208102418816 0.6312001238268241 0.6221780442943203
		outer loop
			vertex -2.2917249 6.493906 -2.568264
			vertex -2.4229801 6.4950609 -2.667136
			vertex -2.371747 5.9391999 -2.065079
		endloop
	endfacet
	facet normal -0.5632990228032857 -0.8132077076241455 0.14624443637125403
		outer loop
			vertex -1.644932 5.8196621 0.309697
			vertex -1.954803 5.9220939 -0.31427
			vertex -1.563063 5.7619691 0.304229
		endloop
	endfacet
	facet normal -0.5854072375249346 -0.7937102488109271 0.16529490973989902
		outer loop
			vertex -1.954803 5.9220939 -0.31427
			vertex -1.883991 5.8679652 -0.323397
			vertex -1.563063 5.7619691 0.304229
		endloop
	endfacet
	facet normal -0.39287224237215 -0.9177070126060147 -0.058866290754750715
		outer loop
			vertex -2.0982561 6.0004072 -0.958126
			vertex -1.883991 5.8679652 -0.323397
			vertex -2.2406411 6.0580101 -0.905863
		endloop
	endfacet
	facet normal -0.5954100990710073 -0.7965742085595149 0.10467255696712434
		outer loop
			vertex -1.883991 5.8679652 -0.323397
			vertex -1.954803 5.9220939 -0.31427
			vertex -2.2406411 6.0580101 -0.905863
		endloop
	endfacet
	facet normal -0.5606733394819812 -0.8280070246933612 -0.007055030302640721
		outer loop
			vertex -2.208746 6.078898 -1.389335
			vertex -2.0982561 6.0004072 -0.958126
			vertex -2.3130901 6.150198 -1.465018
		endloop
	endfacet
	facet normal -0.4038292827220682 -0.9096085149041357 -0.09764353552628462
		outer loop
			vertex -2.0982561 6.0004072 -0.958126
			vertex -2.2406411 6.0580101 -0.905863
			vertex -2.3130901 6.150198 -1.465018
		endloop
	endfacet
	facet normal -0.16747233422980795 -0.9484478577590006 -0.26907188329511883
		outer loop
			vertex -2.226378 6.203053 -1.815993
			vertex -2.208746 6.078898 -1.389335
			vertex -2.3566661 6.2193441 -1.792325
		endloop
	endfacet
	facet normal -0.5027613973206498 -0.8568639527696517 -0.11408393317271319
		outer loop
			vertex -2.208746 6.078898 -1.389335
			vertex -2.3130901 6.150198 -1.465018
			vertex -2.3566661 6.2193441 -1.792325
		endloop
	endfacet
	facet normal -0.9981359666759497 -0.005351924095454699 -0.06079431664509313
		outer loop
			vertex -2.220711 6.0312181 -1.893908
			vertex -2.245594 5.9432421 -1.477628
			vertex -2.226378 6.203053 -1.815993
		endloop
	endfacet
	facet normal -0.9747037185120047 0.20055575837685927 0.09864101023790134
		outer loop
			vertex -2.245594 5.9432421 -1.477628
			vertex -2.208746 6.078898 -1.389335
			vertex -2.226378 6.203053 -1.815993
		endloop
	endfacet
	facet normal -0.9502577090654404 0.059077057774710603 0.3058107055130419
		outer loop
			vertex -2.245594 5.9432421 -1.477628
			vertex -2.0664611 5.8041749 -0.894136
			vertex -2.208746 6.078898 -1.389335
		endloop
	endfacet
	facet normal -0.9689743037447904 -0.08083509455700919 0.2335690180016567
		outer loop
			vertex -2.0664611 5.8041749 -0.894136
			vertex -2.0982561 6.0004072 -0.958126
			vertex -2.208746 6.078898 -1.389335
		endloop
	endfacet
	facet normal -0.9474022747199565 -0.050445100422203064 0.3160446514321138
		outer loop
			vertex -2.0664611 5.8041749 -0.894136
			vertex -1.85595 5.6886339 -0.281532
			vertex -2.0982561 6.0004072 -0.958126
		endloop
	endfacet
	facet normal -0.9494128273215164 -0.07740552684963484 0.3043413671036113
		outer loop
			vertex -1.85595 5.6886339 -0.281532
			vertex -1.883991 5.8679652 -0.323397
			vertex -2.0982561 6.0004072 -0.958126
		endloop
	endfacet
	facet normal -0.8894384099159305 -0.16170902903723414 0.4274921109144076
		outer loop
			vertex -1.563063 5.7619691 0.304229
			vertex -1.883991 5.8679652 -0.323397
			vertex -1.511021 5.5425529 0.329508
		endloop
	endfacet
	facet normal -0.8729234520477681 -0.02272709381391105 0.48732753469487206
		outer loop
			vertex -1.883991 5.8679652 -0.323397
			vertex -1.85595 5.6886339 -0.281532
			vertex -1.511021 5.5425529 0.329508
		endloop
	endfacet
	facet normal -0.5887474887906178 0.8035659200311783 0.0875111798982695
		outer loop
			vertex -2.371747 5.9391999 -2.065079
			vertex -2.675127 5.6516972 -1.466148
			vertex -2.220711 6.0312181 -1.893908
		endloop
	endfacet
	facet normal -0.5534658738248918 0.8209501283077525 0.140415146414957
		outer loop
			vertex -2.675127 5.6516972 -1.466148
			vertex -2.245594 5.9432421 -1.477628
			vertex -2.220711 6.0312181 -1.893908
		endloop
	endfacet
	facet normal -0.5233650126863916 0.7841995078270455 0.3333469595175464
		outer loop
			vertex -2.675127 5.6516972 -1.466148
			vertex -2.401381 5.5468249 -0.789646
			vertex -2.245594 5.9432421 -1.477628
		endloop
	endfacet
	facet normal -0.5025395588592994 0.7934361003837022 0.343384837157095
		outer loop
			vertex -2.401381 5.5468249 -0.789646
			vertex -2.0664611 5.8041749 -0.894136
			vertex -2.245594 5.9432421 -1.477628
		endloop
	endfacet
	facet normal -0.46665275827973596 0.7780605973467934 0.4205435887589598
		outer loop
			vertex -2.401381 5.5468249 -0.789646
			vertex -2.0968881 5.4315801 -0.23855
			vertex -2.0664611 5.8041749 -0.894136
		endloop
	endfacet
	facet normal -0.6531885879976209 0.6709281879991997 0.35099862543574845
		outer loop
			vertex -2.0968881 5.4315801 -0.23855
			vertex -1.85595 5.6886339 -0.281532
			vertex -2.0664611 5.8041749 -0.894136
		endloop
	endfacet
	facet normal -0.6238176894408487 0.6036426567469393 0.4964544624597284
		outer loop
			vertex -1.511021 5.5425529 0.329508
			vertex -1.85595 5.6886339 -0.281532
			vertex -1.726905 5.2870531 0.368904
		endloop
	endfacet
	facet normal -0.5849979478225543 0.6330861949251068 0.5069312289045228
		outer loop
			vertex -1.85595 5.6886339 -0.281532
			vertex -2.0968881 5.4315801 -0.23855
			vertex -1.726905 5.2870531 0.368904
		endloop
	endfacet
	facet normal -0.5149403932213352 0.844136662481779 0.14923031355317745
		outer loop
			vertex -2.625061 5.7886829 -2.08776
			vertex -2.9442129 5.4766741 -1.424129
			vertex -2.371747 5.9391999 -2.065079
		endloop
	endfacet
	facet normal -0.5249206941485113 0.8399991419815542 0.13733064597859368
		outer loop
			vertex -2.9442129 5.4766741 -1.424129
			vertex -2.675127 5.6516972 -1.466148
			vertex -2.371747 5.9391999 -2.065079
		endloop
	endfacet
	facet normal -0.5075055298097922 0.8330800948440309 0.2200356625348325
		outer loop
			vertex -2.9442129 5.4766741 -1.424129
			vertex -3.0405419 5.1634741 -0.460498
			vertex -2.675127 5.6516972 -1.466148
		endloop
	endfacet
	facet normal -0.37833088986478947 0.8792696718524842 0.28939692799776195
		outer loop
			vertex -3.0405419 5.1634741 -0.460498
			vertex -2.401381 5.5468249 -0.789646
			vertex -2.675127 5.6516972 -1.466148
		endloop
	endfacet
	facet normal -0.3361115822416762 0.8700416659413032 0.3606334757188782
		outer loop
			vertex -3.0405419 5.1634741 -0.460498
			vertex -2.7374821 5.0998559 -0.024564
			vertex -2.401381 5.5468249 -0.789646
		endloop
	endfacet
	facet normal -0.3294401395676081 0.8711115629015265 0.3641892906455858
		outer loop
			vertex -2.7374821 5.0998559 -0.024564
			vertex -2.0968881 5.4315801 -0.23855
			vertex -2.401381 5.5468249 -0.789646
		endloop
	endfacet
	facet normal -0.26938969869110785 0.8869738560019259 0.3751087429108912
		outer loop
			vertex -1.726905 5.2870531 0.368904
			vertex -2.0968881 5.4315801 -0.23855
			vertex -2.311954 5.0414472 0.529497
		endloop
	endfacet
	facet normal -0.3358540236989078 0.8744233899047653 0.350122564186761
		outer loop
			vertex -2.0968881 5.4315801 -0.23855
			vertex -2.7374821 5.0998559 -0.024564
			vertex -2.311954 5.0414472 0.529497
		endloop
	endfacet
	facet normal -0.1948499818160936 -0.851778101557901 -0.48632041936637427
		outer loop
			vertex -2.3566661 6.2193441 -1.792325
			vertex -2.4098151 6.5393548 -2.331521
			vertex -2.226378 6.203053 -1.815993
		endloop
	endfacet
	facet normal -0.3468445448437508 -0.8372434564354975 -0.4227555515520438
		outer loop
			vertex -2.4098151 6.5393548 -2.331521
			vertex -2.299752 6.6054249 -2.552669
			vertex -2.226378 6.203053 -1.815993
		endloop
	endfacet
	facet normal -0.23078355926771496 0.9197716817015593 0.3174255854710061
		outer loop
			vertex -2.311954 5.0414472 0.529497
			vertex -2.7768431 4.8827238 0.651417
			vertex -2.09114 4.9998922 0.810449
		endloop
	endfacet
	facet normal -0.21151401632924052 0.9548828400160575 0.20847201907964172
		outer loop
			vertex -2.7768431 4.8827238 0.651417
			vertex -2.631248 4.8656101 0.877524
			vertex -2.09114 4.9998922 0.810449
		endloop
	endfacet
	facet normal -0.2762103106566316 0.8937602784374095 0.3534125478452224
		outer loop
			vertex -1.5468661 5.2218661 0.674468
			vertex -1.726905 5.2870531 0.368904
			vertex -2.09114 4.9998922 0.810449
		endloop
	endfacet
	facet normal -0.27878427815641227 0.8937904633975986 0.3513088865831807
		outer loop
			vertex -1.726905 5.2870531 0.368904
			vertex -2.311954 5.0414472 0.529497
			vertex -2.09114 4.9998922 0.810449
		endloop
	endfacet
	facet normal 0.40962696750672456 0.7166105629016318 0.5645131075794886
		outer loop
			vertex -2.0636251 6.3772898 -2.1453021
			vertex -2.2090781 6.7325511 -2.490737
			vertex -2.3807111 6.5199022 -2.096252
		endloop
	endfacet
	facet normal 0.15087639549092083 0.8412705209489801 0.519134109711449
		outer loop
			vertex -2.2090781 6.7325511 -2.490737
			vertex -2.3601291 6.7284112 -2.4401281
			vertex -2.3807111 6.5199022 -2.096252
		endloop
	endfacet
	facet normal 0.06015389159395322 -0.5729701198721615 -0.8173657388585504
		outer loop
			vertex -2.367079 6.4334989 -2.655
			vertex -2.2722411 6.685514 -2.824682
			vertex -2.1957991 6.5302601 -2.7102239
		endloop
	endfacet
	facet normal 0.9352974167590383 0.2943956681582011 -0.19634136796293378
		outer loop
			vertex -2.1900251 6.622613 -2.5442441
			vertex -2.1957991 6.5302601 -2.7102239
			vertex -2.2906251 6.7798119 -2.78776
		endloop
	endfacet
	facet normal 0.9291584332979294 0.27700207156732876 -0.24481515104001586
		outer loop
			vertex -2.1957991 6.5302601 -2.7102239
			vertex -2.2722411 6.685514 -2.824682
			vertex -2.2906251 6.7798119 -2.78776
		endloop
	endfacet
	facet normal 0.9535814031338251 0.24823367587235914 -0.17047741715612136
		outer loop
			vertex -2.2090781 6.7325511 -2.490737
			vertex -2.1900251 6.622613 -2.5442441
			vertex -2.3137 6.9811001 -2.714035
		endloop
	endfacet
	facet normal 0.944285181185242 0.20310656074797145 -0.25898498330035535
		outer loop
			vertex -2.1900251 6.622613 -2.5442441
			vertex -2.2906251 6.7798119 -2.78776
			vertex -2.3137 6.9811001 -2.714035
		endloop
	endfacet
	facet normal 0.20928672986583113 0.7007887259443972 0.681978171418481
		outer loop
			vertex -2.3601291 6.7284112 -2.4401281
			vertex -2.2090781 6.7325511 -2.490737
			vertex -2.3137 6.9811001 -2.714035
		endloop
	endfacet
	facet normal -0.9731564914371978 0.22925388793636509 0.020226172146589474
		outer loop
			vertex -2.340502 6.872436 -2.771924
			vertex -2.4098151 6.5393548 -2.331521
			vertex -2.3137 6.9811001 -2.714035
		endloop
	endfacet
	facet normal -0.9333318115888525 0.32849878147196254 0.14484571118161116
		outer loop
			vertex -2.4098151 6.5393548 -2.331521
			vertex -2.3601291 6.7284112 -2.4401281
			vertex -2.3137 6.9811001 -2.714035
		endloop
	endfacet
	facet normal -0.34685559226833973 -0.8372370673073615 -0.42275914092867123
		outer loop
			vertex -2.299752 6.6054249 -2.552669
			vertex -2.4098151 6.5393548 -2.331521
			vertex -2.3272641 6.75631 -2.8289111
		endloop
	endfacet
	facet normal -0.9842391560430499 -0.026388088849913307 -0.17486266748083756
		outer loop
			vertex -2.4098151 6.5393548 -2.331521
			vertex -2.340502 6.872436 -2.771924
			vertex -2.3272641 6.75631 -2.8289111
		endloop
	endfacet
	facet normal -0.9955986923711635 -0.07876505335299222 0.05078690893458217
		outer loop
			vertex -2.2917249 6.493906 -2.568264
			vertex -2.299752 6.6054249 -2.552669
			vertex -2.3202429 6.6797371 -2.8391111
		endloop
	endfacet
	facet normal -0.9941994009260662 -0.09727333793964643 0.0458851710722613
		outer loop
			vertex -2.299752 6.6054249 -2.552669
			vertex -2.3272641 6.75631 -2.8289111
			vertex -2.3202429 6.6797371 -2.8391111
		endloop
	endfacet
	facet normal -0.4047812684454715 0.7335642026756846 0.5459264467567608
		outer loop
			vertex -2.4229801 6.4950609 -2.667136
			vertex -2.2917249 6.493906 -2.568264
			vertex -2.3202429 6.6797371 -2.8391111
		endloop
	endfacet
endsolid exported
