solid exported
	facet normal -0.9453254557594927 0.3189315912297462 0.06813532717151619
		outer loop
			vertex -3.2217519 6.7361069 0.940392
			vertex -3.166728 6.9657159 0.62904
			vertex -3.2195411 6.8389249 0.489789
		endloop
	endfacet
	facet normal -0.23209318312748864 -0.9480718343003633 -0.21746850657530722
		outer loop
			vertex -3.2217519 6.7361069 0.940392
			vertex -3.2195411 6.8389249 0.489789
			vertex -3.139061 6.800036 0.573436
		endloop
	endfacet
	facet normal -0.18586008960924952 -0.9600609118740682 -0.20913888347692416
		outer loop
			vertex -3.2217519 6.7361069 0.940392
			vertex -3.139061 6.800036 0.573436
			vertex -3.0899811 6.7100558 0.942877
		endloop
	endfacet
	facet normal -0.1947667967838348 -0.9778442450012984 0.07672370812470776
		outer loop
			vertex -3.2217519 6.7361069 0.940392
			vertex -3.0899811 6.7100558 0.942877
			vertex -2.808779 6.7096219 1.6511919
		endloop
	endfacet
	facet normal -0.8604835993314567 -0.11841175615174027 0.4955266201594443
		outer loop
			vertex -3.2217519 6.7361069 0.940392
			vertex -2.808779 6.7096219 1.6511919
			vertex -2.7888451 6.9068789 1.732944
		endloop
	endfacet
	facet normal -0.8628419306856377 0.3003108164952338 0.4065921988265973
		outer loop
			vertex -3.2217519 6.7361069 0.940392
			vertex -2.7888451 6.9068789 1.732944
			vertex -2.886909 7.05898 1.412497
		endloop
	endfacet
	facet normal -0.8251765311474354 0.5143602832652968 0.2334891677203232
		outer loop
			vertex -3.2217519 6.7361069 0.940392
			vertex -2.886909 7.05898 1.412497
			vertex -3.166728 6.9657159 0.62904
		endloop
	endfacet
	facet normal -0.9445814109250646 0.3282321426497812 -0.005442303404630975
		outer loop
			vertex -3.2477031 7.116591 -0.309918
			vertex -3.1841781 7.3064032 0.112317
			vertex -2.983691 7.8658538 -0.943618
		endloop
	endfacet
	facet normal -0.03746003871553966 -0.897568454899329 -0.4392807920556754
		outer loop
			vertex -3.1297171 7.1206412 -0.328255
			vertex -3.2477031 7.116591 -0.309918
			vertex -3.0677841 7.684659 -1.485976
		endloop
	endfacet
	facet normal 0.6409440543034554 -0.7255698877259426 -0.2504776582420329
		outer loop
			vertex -3.0072551 7.140882 -0.073521
			vertex -3.1297171 7.1206412 -0.328255
			vertex -2.7929671 7.7142272 -1.186017
		endloop
	endfacet
	facet normal 0.6101899727731742 -0.7431107505932442 -0.27469002435439543
		outer loop
			vertex -3.1297171 7.1206412 -0.328255
			vertex -2.9883649 7.6623688 -1.4797781
			vertex -2.7929671 7.7142272 -1.186017
		endloop
	endfacet
	facet normal 0.48046601933690786 -0.817674089299982 -0.31711431369459075
		outer loop
			vertex -2.9165981 6.8345881 0.853609
			vertex -3.0072551 7.140882 -0.073521
			vertex -2.505816 7.4498291 -0.110396
		endloop
	endfacet
	facet normal 0.47795470060151846 -0.814885791643033 -0.3279031118352195
		outer loop
			vertex -3.0072551 7.140882 -0.073521
			vertex -2.7929671 7.7142272 -1.186017
			vertex -2.505816 7.4498291 -0.110396
		endloop
	endfacet
	facet normal 0.3991649620509586 -0.8405150030618939 -0.3663357240274573
		outer loop
			vertex -2.9165981 6.8345881 0.853609
			vertex -2.505816 7.4498291 -0.110396
			vertex -2.158613 7.2984171 0.615319
		endloop
	endfacet
	facet normal 0.4186375445618274 -0.8782619075198276 -0.23108143171375356
		outer loop
			vertex -2.7359011 6.806118 1.289173
			vertex -2.9165981 6.8345881 0.853609
			vertex -1.892817 7.19803 1.327018
		endloop
	endfacet
	facet normal 0.43437739501473827 -0.8551681160109402 -0.2828493805163967
		outer loop
			vertex -2.9165981 6.8345881 0.853609
			vertex -2.158613 7.2984171 0.615319
			vertex -1.892817 7.19803 1.327018
		endloop
	endfacet
	facet normal 0.5051185757419473 -0.8538175912073382 -0.1258997433886407
		outer loop
			vertex -2.808779 6.7096219 1.6511919
			vertex -2.7359011 6.806118 1.289173
			vertex -1.840596 7.238471 1.9491
		endloop
	endfacet
	facet normal 0.4205446195055629 -0.9069633509051782 0.02365804556112512
		outer loop
			vertex -2.7359011 6.806118 1.289173
			vertex -1.892817 7.19803 1.327018
			vertex -1.840596 7.238471 1.9491
		endloop
	endfacet
	facet normal 0.45368615455255873 -0.8857611982873985 0.09795903621301931
		outer loop
			vertex -2.808779 6.7096219 1.6511919
			vertex -1.840596 7.238471 1.9491
			vertex -2.189683 7.0958281 2.276057
		endloop
	endfacet
	facet normal -0.6663411780090042 -0.22702068513654963 0.7102471703637433
		outer loop
			vertex -2.7888451 6.9068789 1.732944
			vertex -2.808779 6.7096219 1.6511919
			vertex -2.23648 7.2671418 2.3663161
		endloop
	endfacet
	facet normal -0.4324510157470517 -0.5099175071518298 0.7436196977483901
		outer loop
			vertex -2.808779 6.7096219 1.6511919
			vertex -2.189683 7.0958281 2.276057
			vertex -2.23648 7.2671418 2.3663161
		endloop
	endfacet
	facet normal -0.8128989448871056 0.3890288465486512 0.43341880664601584
		outer loop
			vertex -2.886909 7.05898 1.412497
			vertex -2.7888451 6.9068789 1.732944
			vertex -2.3346159 7.3546052 2.1830029
		endloop
	endfacet
	facet normal -0.7959761325669027 0.25628002450793813 0.5483999867086499
		outer loop
			vertex -2.7888451 6.9068789 1.732944
			vertex -2.23648 7.2671418 2.3663161
			vertex -2.3346159 7.3546052 2.1830029
		endloop
	endfacet
	facet normal -0.8246953542591323 0.31309554138369133 0.4710082320183561
		outer loop
			vertex -2.886909 7.05898 1.412497
			vertex -2.3346159 7.3546052 2.1830029
			vertex -2.6920829 7.353025 1.558159
		endloop
	endfacet
	facet normal -0.8955058523474226 0.34712879344668274 0.27851547384618763
		outer loop
			vertex -3.166728 6.9657159 0.62904
			vertex -2.886909 7.05898 1.412497
			vertex -2.84659 7.365397 1.16023
		endloop
	endfacet
	facet normal -0.8523048493319493 0.3947001686173186 0.34320288562117846
		outer loop
			vertex -2.886909 7.05898 1.412497
			vertex -2.6920829 7.353025 1.558159
			vertex -2.84659 7.365397 1.16023
		endloop
	endfacet
	facet normal -0.8936857486281768 0.3601397320057448 0.26762876551246473
		outer loop
			vertex -3.166728 6.9657159 0.62904
			vertex -2.84659 7.365397 1.16023
			vertex -3.1841781 7.3064032 0.112317
		endloop
	endfacet
	facet normal -0.8063143440898214 0.5871919301019506 -0.07115346610072533
		outer loop
			vertex -2.983691 7.8658538 -0.943618
			vertex -2.9276969 7.8524642 -1.688643
			vertex -3.0677841 7.684659 -1.485976
		endloop
	endfacet
	facet normal -0.14559638057185195 -0.7102570591563216 -0.6887209913186835
		outer loop
			vertex -3.0677841 7.684659 -1.485976
			vertex -2.9276969 7.8524642 -1.688643
			vertex -2.9883649 7.6623688 -1.4797781
		endloop
	endfacet
	facet normal -0.25317414716400505 -0.677722984119349 -0.6903581737070572
		outer loop
			vertex -2.9276969 7.8524642 -1.688643
			vertex -2.860105 7.8012571 -1.663161
			vertex -2.9883649 7.6623688 -1.4797781
		endloop
	endfacet
	facet normal 0.5504161477904875 -0.8042409887734322 -0.2241394570980586
		outer loop
			vertex -2.9883649 7.6623688 -1.4797781
			vertex -2.860105 7.8012571 -1.663161
			vertex -2.7929671 7.7142272 -1.186017
		endloop
	endfacet
	facet normal -0.9037539986397526 0.42470547854526475 0.05342252742332375
		outer loop
			vertex -2.983691 7.8658538 -0.943618
			vertex -3.1841781 7.3064032 0.112317
			vertex -2.8397601 8.1428833 -0.711091
		endloop
	endfacet
	facet normal -0.8234317067796241 0.5323507960517098 0.19637427075130282
		outer loop
			vertex -3.1841781 7.3064032 0.112317
			vertex -2.76472 7.9474711 0.133308
			vertex -2.8397601 8.1428833 -0.711091
		endloop
	endfacet
	facet normal -0.8457125419405844 0.5286135411348576 -0.0730617583504641
		outer loop
			vertex -2.9276969 7.8524642 -1.688643
			vertex -2.983691 7.8658538 -0.943618
			vertex -2.8310959 8.094265 -1.057362
		endloop
	endfacet
	facet normal 0.6419260837395274 0.6293870016896179 -0.4379530855228518
		outer loop
			vertex -2.860105 7.8012571 -1.663161
			vertex -2.9276969 7.8524642 -1.688643
			vertex -2.765578 7.944232 -1.3191381
		endloop
	endfacet
	facet normal 0.9608115599768493 -0.2153999304477558 -0.17448213713144248
		outer loop
			vertex -2.7929671 7.7142272 -1.186017
			vertex -2.860105 7.8012571 -1.663161
			vertex -2.765578 7.944232 -1.3191381
		endloop
	endfacet
	facet normal 0.904978065885802 -0.28866255881536024 -0.3125517995529094
		outer loop
			vertex -2.505816 7.4498291 -0.110396
			vertex -2.7929671 7.7142272 -1.186017
			vertex -2.765578 7.944232 -1.3191381
		endloop
	endfacet
	facet normal 0.5677244618682367 -0.7789516385154659 0.2663142509339146
		outer loop
			vertex -2.189683 7.0958281 2.276057
			vertex -1.840596 7.238471 1.9491
			vertex -1.7844501 7.390152 2.273066
		endloop
	endfacet
	facet normal 0.29011471811027467 -0.3828499451796062 0.8770743239952751
		outer loop
			vertex -2.23648 7.2671418 2.3663161
			vertex -2.189683 7.0958281 2.276057
			vertex -1.882362 7.565268 2.379317
		endloop
	endfacet
	facet normal 0.28108478306312135 -0.37804093176045406 0.8820863895583279
		outer loop
			vertex -2.189683 7.0958281 2.276057
			vertex -1.7844501 7.390152 2.273066
			vertex -1.882362 7.565268 2.379317
		endloop
	endfacet
	facet normal -0.5306566076417982 0.6187257150998808 0.579294445200573
		outer loop
			vertex -2.3346159 7.3546052 2.1830029
			vertex -2.23648 7.2671418 2.3663161
			vertex -1.979477 7.6548409 2.1876521
		endloop
	endfacet
	facet normal -0.5432859350952407 0.6206679333635235 0.5653421169716111
		outer loop
			vertex -2.23648 7.2671418 2.3663161
			vertex -1.882362 7.565268 2.379317
			vertex -1.979477 7.6548409 2.1876521
		endloop
	endfacet
	facet normal -0.6069298599399666 0.7157717374395048 0.34540840319263394
		outer loop
			vertex -2.6920829 7.353025 1.558159
			vertex -2.3346159 7.3546052 2.1830029
			vertex -2.178853 7.8248968 1.482139
		endloop
	endfacet
	facet normal -0.6087568195521047 0.7147465821152442 0.3443144754485105
		outer loop
			vertex -2.3346159 7.3546052 2.1830029
			vertex -1.979477 7.6548409 2.1876521
			vertex -2.178853 7.8248968 1.482139
		endloop
	endfacet
	facet normal -0.6924011772427261 0.6609328016369866 0.2893932298329914
		outer loop
			vertex -2.84659 7.365397 1.16023
			vertex -2.6920829 7.353025 1.558159
			vertex -2.5140359 7.774147 1.0223711
		endloop
	endfacet
	facet normal -0.6019347760452253 0.7127147145585954 0.36015588435987617
		outer loop
			vertex -2.6920829 7.353025 1.558159
			vertex -2.178853 7.8248968 1.482139
			vertex -2.5140359 7.774147 1.0223711
		endloop
	endfacet
	facet normal -0.8171315014534125 0.5270104921826068 0.233572366648837
		outer loop
			vertex -3.1841781 7.3064032 0.112317
			vertex -2.84659 7.365397 1.16023
			vertex -2.76472 7.9474711 0.133308
		endloop
	endfacet
	facet normal -0.6790924576006514 0.6605111718880037 0.32024744470650124
		outer loop
			vertex -2.84659 7.365397 1.16023
			vertex -2.5140359 7.774147 1.0223711
			vertex -2.76472 7.9474711 0.133308
		endloop
	endfacet
	facet normal -0.8564772385841164 0.4809587638248769 0.18741773471945766
		outer loop
			vertex -2.8397601 8.1428833 -0.711091
			vertex -2.76472 7.9474711 0.133308
			vertex -2.7089851 8.2402353 -0.363293
		endloop
	endfacet
	facet normal -0.436129225969328 0.8895762462944155 -0.1358138442285335
		outer loop
			vertex -2.8310959 8.094265 -1.057362
			vertex -2.8397601 8.1428833 -0.711091
			vertex -2.6373041 8.2660084 -0.554758
		endloop
	endfacet
	facet normal 0.31154131512820643 0.8559736177579067 -0.4126150441642049
		outer loop
			vertex -2.765578 7.944232 -1.3191381
			vertex -2.8310959 8.094265 -1.057362
			vertex -2.6373041 8.2660084 -0.554758
		endloop
	endfacet
	facet normal 0.839725982119296 -0.4149933339531099 -0.35020109612659234
		outer loop
			vertex -2.505816 7.4498291 -0.110396
			vertex -2.765578 7.944232 -1.3191381
			vertex -2.1873381 7.8646712 0.161669
		endloop
	endfacet
	facet normal 0.8431025379799159 -0.2767090945627495 -0.46109672243260186
		outer loop
			vertex -2.158613 7.2984171 0.615319
			vertex -2.505816 7.4498291 -0.110396
			vertex -1.987932 7.8207598 0.613941
		endloop
	endfacet
	facet normal 0.8341345880008019 -0.3752833096440002 -0.40420530254238163
		outer loop
			vertex -2.505816 7.4498291 -0.110396
			vertex -2.1873381 7.8646712 0.161669
			vertex -1.987932 7.8207598 0.613941
		endloop
	endfacet
	facet normal 0.9021636366631154 -0.22420790303883315 -0.36855337320083204
		outer loop
			vertex -1.892817 7.19803 1.327018
			vertex -2.158613 7.2984171 0.615319
			vertex -1.83573 7.8409381 1.075648
		endloop
	endfacet
	facet normal 0.9103134635282293 -0.29821182632448134 -0.2870524425248055
		outer loop
			vertex -2.158613 7.2984171 0.615319
			vertex -1.987932 7.8207598 0.613941
			vertex -1.83573 7.8409381 1.075648
		endloop
	endfacet
	facet normal 0.9490837061644813 -0.3093421630489325 -0.05956126974217823
		outer loop
			vertex -1.840596 7.238471 1.9491
			vertex -1.892817 7.19803 1.327018
			vertex -1.691306 7.7864041 1.4821841
		endloop
	endfacet
	facet normal 0.9098839175376581 -0.2186442841283675 -0.35257046618274507
		outer loop
			vertex -1.892817 7.19803 1.327018
			vertex -1.83573 7.8409381 1.075648
			vertex -1.691306 7.7864041 1.4821841
		endloop
	endfacet
	facet normal 0.9505228523068104 -0.31003738730286845 -0.01957359744493726
		outer loop
			vertex -1.7844501 7.390152 2.273066
			vertex -1.840596 7.238471 1.9491
			vertex -1.643608 7.85747 1.7104501
		endloop
	endfacet
	facet normal 0.9380666065094397 -0.3340082869822671 -0.09202991893420061
		outer loop
			vertex -1.840596 7.238471 1.9491
			vertex -1.691306 7.7864041 1.4821841
			vertex -1.643608 7.85747 1.7104501
		endloop
	endfacet
	facet normal 0.6518705290870899 0.5815153427989881 0.48672858904844823
		outer loop
			vertex -1.882362 7.565268 2.379317
			vertex -1.643608 7.85747 1.7104501
			vertex -1.781554 8.1744318 1.516512
		endloop
	endfacet
	facet normal -0.30416729832576567 0.794588528996294 0.5254629617934177
		outer loop
			vertex -1.979477 7.6548409 2.1876521
			vertex -1.882362 7.565268 2.379317
			vertex -1.781554 8.1744318 1.516512
		endloop
	endfacet
	facet normal -0.4582776164471002 0.7631246948323225 0.4556559298425067
		outer loop
			vertex -1.938681 8.2072611 1.303499
			vertex -1.979477 7.6548409 2.1876521
			vertex -1.781554 8.1744318 1.516512
		endloop
	endfacet
	facet normal -0.6678645628127694 0.6174365066381098 0.415606888789678
		outer loop
			vertex -2.5140359 7.774147 1.0223711
			vertex -1.938681 8.2072611 1.303499
			vertex -2.1272261 8.3020172 0.859742
		endloop
	endfacet
	facet normal -0.6711187459756526 0.6179550454723484 0.40954998544174764
		outer loop
			vertex -2.502728 8.3250895 0.209604
			vertex -2.5140359 7.774147 1.0223711
			vertex -2.1272261 8.3020172 0.859742
		endloop
	endfacet
	facet normal -0.03068163239166231 0.9948293489540911 -0.09681530815610911
		outer loop
			vertex -2.340276 8.3359718 0.269943
			vertex -2.502728 8.3250895 0.209604
			vertex -2.2591591 8.3643188 0.535517
		endloop
	endfacet
	facet normal -0.28617978935834953 0.957927773849718 0.021806151658061036
		outer loop
			vertex -2.6373041 8.2660084 -0.554758
			vertex -2.7089851 8.2402353 -0.363293
			vertex -2.340276 8.3359718 0.269943
		endloop
	endfacet
	facet normal 0.6464435477033504 0.7014251714622025 -0.30018905455050515
		outer loop
			vertex -2.5760441 8.1497765 -0.672839
			vertex -2.340276 8.3359718 0.269943
			vertex -2.057657 8.2383547 0.650457
		endloop
	endfacet
	facet normal 0.9144116310068107 0.16572756269410285 -0.3693044056641307
		outer loop
			vertex -2.1873381 7.8646712 0.161669
			vertex -2.5760441 8.1497765 -0.672839
			vertex -2.057657 8.2383547 0.650457
		endloop
	endfacet
	facet normal 0.9057782871881707 0.18459001889263182 -0.3814344234382652
		outer loop
			vertex -1.987932 7.8207598 0.613941
			vertex -2.1873381 7.8646712 0.161669
			vertex -2.057657 8.2383547 0.650457
		endloop
	endfacet
	facet normal 0.9312761412449544 0.18303765917351833 -0.3149951810301023
		outer loop
			vertex -1.83573 7.8409381 1.075648
			vertex -1.987932 7.8207598 0.613941
			vertex -2.057657 8.2383547 0.650457
		endloop
	endfacet
	facet normal 0.9323029045258864 0.19412902114854527 -0.30516424653046076
		outer loop
			vertex -1.691306 7.7864041 1.4821841
			vertex -1.83573 7.8409381 1.075648
			vertex -2.057657 8.2383547 0.650457
		endloop
	endfacet
	facet normal 0.9287233342208503 0.25155777070900137 -0.27238145397516444
		outer loop
			vertex -1.643608 7.85747 1.7104501
			vertex -1.691306 7.7864041 1.4821841
			vertex -2.057657 8.2383547 0.650457
		endloop
	endfacet
	facet normal 0.9311292669615638 0.2341841667518228 -0.2795640610850677
		outer loop
			vertex -1.781554 8.1744318 1.516512
			vertex -1.643608 7.85747 1.7104501
			vertex -2.057657 8.2383547 0.650457
		endloop
	endfacet
	facet normal -0.18821537003250818 0.9402466674221726 0.2837449186946343
		outer loop
			vertex -1.938681 8.2072611 1.303499
			vertex -1.781554 8.1744318 1.516512
			vertex -1.984369 8.2854452 1.014114
		endloop
	endfacet
	facet normal -0.19892886728062806 0.9377317399950771 0.28475689555874045
		outer loop
			vertex -2.1272261 8.3020172 0.859742
			vertex -1.938681 8.2072611 1.303499
			vertex -1.984369 8.2854452 1.014114
		endloop
	endfacet
	facet normal -0.6242357488172378 0.6799682916930413 0.3846723959301338
		outer loop
			vertex -2.502728 8.3250895 0.209604
			vertex -2.1272261 8.3020172 0.859742
			vertex -2.2591591 8.3643188 0.535517
		endloop
	endfacet
	facet normal 0.6157773849637515 0.7412300021795206 -0.2672008533596996
		outer loop
			vertex -2.057657 8.2383547 0.650457
			vertex -2.340276 8.3359718 0.269943
			vertex -2.2591591 8.3643188 0.535517
		endloop
	endfacet
	facet normal -0.15639829043325418 0.9562120100680704 0.2473826318704205
		outer loop
			vertex -2.2591591 8.3643188 0.535517
			vertex -2.1272261 8.3020172 0.859742
			vertex -1.984369 8.2854452 1.014114
		endloop
	endfacet
	facet normal 0.6044769008714371 0.765374153468195 -0.22093003760400437
		outer loop
			vertex -2.057657 8.2383547 0.650457
			vertex -2.2591591 8.3643188 0.535517
			vertex -1.984369 8.2854452 1.014114
		endloop
	endfacet
	facet normal -0.013681870885082548 0.9898179107629305 -0.14168030894232092
		outer loop
			vertex -2.7089851 8.2402353 -0.363293
			vertex -2.502728 8.3250895 0.209604
			vertex -2.340276 8.3359718 0.269943
		endloop
	endfacet
	facet normal 0.8424321143740442 0.48596008001244645 -0.23270353092631413
		outer loop
			vertex -1.984369 8.2854452 1.014114
			vertex -1.781554 8.1744318 1.516512
			vertex -2.057657 8.2383547 0.650457
		endloop
	endfacet
	facet normal 0.8773365368602858 0.23755966174533824 0.4169484478942706
		outer loop
			vertex -1.882362 7.565268 2.379317
			vertex -1.7844501 7.390152 2.273066
			vertex -1.643608 7.85747 1.7104501
		endloop
	endfacet
	facet normal 0.9090506735009963 0.2377505258024268 -0.3422010527278585
		outer loop
			vertex -2.1873381 7.8646712 0.161669
			vertex -2.765578 7.944232 -1.3191381
			vertex -2.5760441 8.1497765 -0.672839
		endloop
	endfacet
	facet normal -0.9893179748802977 0.10409957696652888 0.10204519907441242
		outer loop
			vertex -3.2477031 7.116591 -0.309918
			vertex -3.166728 6.9657159 0.62904
			vertex -3.1841781 7.3064032 0.112317
		endloop
	endfacet
	facet normal -0.9353718073733513 0.3526164285622063 0.027225654797356544
		outer loop
			vertex -3.0677841 7.684659 -1.485976
			vertex -3.2477031 7.116591 -0.309918
			vertex -2.983691 7.8658538 -0.943618
		endloop
	endfacet
	facet normal -0.8219364546018658 0.5262190815443899 0.2179769318416372
		outer loop
			vertex -2.7089851 8.2402353 -0.363293
			vertex -2.76472 7.9474711 0.133308
			vertex -2.502728 8.3250895 0.209604
		endloop
	endfacet
	facet normal -0.4825716543525766 0.8735824994982183 -0.06307309240764204
		outer loop
			vertex -2.6373041 8.2660084 -0.554758
			vertex -2.8397601 8.1428833 -0.711091
			vertex -2.7089851 8.2402353 -0.363293
		endloop
	endfacet
	facet normal 0.5823307450789079 0.7097109832573795 -0.3964860950647423
		outer loop
			vertex -2.765578 7.944232 -1.3191381
			vertex -2.6373041 8.2660084 -0.554758
			vertex -2.5760441 8.1497765 -0.672839
		endloop
	endfacet
	facet normal -0.8488554698283426 0.5201511870794427 -0.09427159658322694
		outer loop
			vertex -2.8310959 8.094265 -1.057362
			vertex -2.983691 7.8658538 -0.943618
			vertex -2.8397601 8.1428833 -0.711091
		endloop
	endfacet
	facet normal 0.39426132477079123 0.8364311023217864 -0.38071120138333475
		outer loop
			vertex -2.765578 7.944232 -1.3191381
			vertex -2.9276969 7.8524642 -1.688643
			vertex -2.8310959 8.094265 -1.057362
		endloop
	endfacet
	facet normal -0.2112404108473789 -0.8742066385144249 -0.43719588516172053
		outer loop
			vertex -3.1297171 7.1206412 -0.328255
			vertex -3.0677841 7.684659 -1.485976
			vertex -2.9883649 7.6623688 -1.4797781
		endloop
	endfacet
	facet normal -0.8067325862947007 0.4942833019997246 0.32383105406139284
		outer loop
			vertex -2.76472 7.9474711 0.133308
			vertex -2.5140359 7.774147 1.0223711
			vertex -2.502728 8.3250895 0.209604
		endloop
	endfacet
	facet normal -0.6678257525916649 0.6152119863021509 0.4189546229432713
		outer loop
			vertex -2.5140359 7.774147 1.0223711
			vertex -2.178853 7.8248968 1.482139
			vertex -1.938681 8.2072611 1.303499
		endloop
	endfacet
	facet normal -0.7119303692555888 0.6098528891027639 0.3481875974020516
		outer loop
			vertex -2.178853 7.8248968 1.482139
			vertex -1.979477 7.6548409 2.1876521
			vertex -1.938681 8.2072611 1.303499
		endloop
	endfacet
	facet normal 0.6818126764879715 0.6662402083797652 -0.30208518487075103
		outer loop
			vertex -2.5760441 8.1497765 -0.672839
			vertex -2.6373041 8.2660084 -0.554758
			vertex -2.340276 8.3359718 0.269943
		endloop
	endfacet
	facet normal -0.9570455523762091 0.26179810983834906 0.12460160657866529
		outer loop
			vertex -3.2195411 6.8389249 0.489789
			vertex -3.166728 6.9657159 0.62904
			vertex -3.2477031 7.116591 -0.309918
		endloop
	endfacet
	facet normal -0.10532286029122961 -0.9366278571109012 -0.33411876987669437
		outer loop
			vertex -3.139061 6.800036 0.573436
			vertex -3.2195411 6.8389249 0.489789
			vertex -3.1297171 7.1206412 -0.328255
		endloop
	endfacet
	facet normal -0.01844801021009577 -0.9447176597294453 -0.32736556678216505
		outer loop
			vertex -3.2195411 6.8389249 0.489789
			vertex -3.2477031 7.116591 -0.309918
			vertex -3.1297171 7.1206412 -0.328255
		endloop
	endfacet
	facet normal 0.6418430379853476 -0.724598529605328 -0.2509870225400835
		outer loop
			vertex -3.139061 6.800036 0.573436
			vertex -3.1297171 7.1206412 -0.328255
			vertex -3.0072551 7.140882 -0.073521
		endloop
	endfacet
	facet normal 0.5184235555603309 -0.7955747051999983 -0.3135249678831348
		outer loop
			vertex -2.9165981 6.8345881 0.853609
			vertex -3.139061 6.800036 0.573436
			vertex -3.0072551 7.140882 -0.073521
		endloop
	endfacet
	facet normal 0.46754424215926516 -0.8425778910087072 -0.26732915891656395
		outer loop
			vertex -3.0899811 6.7100558 0.942877
			vertex -3.139061 6.800036 0.573436
			vertex -2.9165981 6.8345881 0.853609
		endloop
	endfacet
	facet normal 0.47542640596430435 -0.8427948213123749 -0.25232245576029677
		outer loop
			vertex -3.0899811 6.7100558 0.942877
			vertex -2.9165981 6.8345881 0.853609
			vertex -2.7359011 6.806118 1.289173
		endloop
	endfacet
	facet normal 0.40095063971962264 -0.9020669142519817 -0.15973060671121742
		outer loop
			vertex -2.808779 6.7096219 1.6511919
			vertex -3.0899811 6.7100558 0.942877
			vertex -2.7359011 6.806118 1.289173
		endloop
	endfacet
	facet normal 0.9897074575953672 0.14263119318265455 -0.011640064922799278
		outer loop
			vertex 3.3186531 6.651227 0.888543
			vertex 3.2416551 7.0839348 -0.356112
			vertex 3.2193151 7.2737489 0.07029
		endloop
	endfacet
	facet normal -0.013364976901859527 -0.944719364586061 -0.32760753893725025
		outer loop
			vertex 3.3186531 6.651227 0.888543
			vertex 3.1224511 7.0879869 -0.362934
			vertex 3.2416551 7.0839348 -0.356112
		endloop
	endfacet
	facet normal -0.37878868241031566 -0.8906682579703354 -0.251454147553674
		outer loop
			vertex 3.3186531 6.651227 0.888543
			vertex 3.042407 6.8859248 0.473362
			vertex 3.1224511 7.0879869 -0.362934
		endloop
	endfacet
	facet normal -0.41103897981062254 -0.8832151863622215 -0.22578284180909103
		outer loop
			vertex 3.3186531 6.651227 0.888543
			vertex 3.0247741 6.8019361 0.834009
			vertex 3.042407 6.8859248 0.473362
		endloop
	endfacet
	facet normal -0.4211383821698295 -0.8880100930566299 -0.18460914845406282
		outer loop
			vertex 3.3186531 6.651227 0.888543
			vertex 2.8871 6.7734661 1.285024
			vertex 3.0247741 6.8019361 0.834009
		endloop
	endfacet
	facet normal -0.3817517616648711 -0.914565287975993 -0.13355121300518666
		outer loop
			vertex 3.3186531 6.651227 0.888543
			vertex 2.9946899 6.676971 1.638285
			vertex 2.8871 6.7734661 1.285024
		endloop
	endfacet
	facet normal 0.866987883684537 -0.31582461517453975 0.3854696122835909
		outer loop
			vertex 3.3186531 6.651227 0.888543
			vertex 2.9430261 6.795763 1.851815
			vertex 2.9946899 6.676971 1.638285
		endloop
	endfacet
	facet normal 0.9317521550268042 0.1050038989915407 0.3475803544498461
		outer loop
			vertex 3.3186531 6.651227 0.888543
			vertex 2.982765 6.8742261 1.721584
			vertex 2.9430261 6.795763 1.851815
		endloop
	endfacet
	facet normal 0.930239906106544 0.03756149352829267 0.36502445300392217
		outer loop
			vertex 3.3186531 6.651227 0.888543
			vertex 3.2864051 6.8456349 0.95072
			vertex 2.982765 6.8742261 1.721584
		endloop
	endfacet
	facet normal 0.9867084729906156 0.1624558400363279 0.003806490065504533
		outer loop
			vertex 3.3186531 6.651227 0.888543
			vertex 3.2193151 7.2737489 0.07029
			vertex 3.2864051 6.8456349 0.95072
		endloop
	endfacet
	facet normal 0.9419055168038953 0.32240606088841334 -0.09417180744152394
		outer loop
			vertex 3.2416551 7.0839348 -0.356112
			vertex 3.056946 7.5645781 -0.558043
			vertex 3.2193151 7.2737489 0.07029
		endloop
	endfacet
	facet normal 0.9410689822477535 0.32937546487829933 -0.07681779603309308
		outer loop
			vertex 3.2416551 7.0839348 -0.356112
			vertex 2.9487031 7.6520061 -1.509221
			vertex 3.056946 7.5645781 -0.558043
		endloop
	endfacet
	facet normal -0.006048260293157468 -0.9025998750213761 -0.4304380143049901
		outer loop
			vertex 3.1224511 7.0879869 -0.362934
			vertex 2.8702581 7.6297159 -1.49536
			vertex 3.2416551 7.0839348 -0.356112
		endloop
	endfacet
	facet normal 0.16370233662896494 -0.8678296659568129 -0.46911961786681183
		outer loop
			vertex 2.8702581 7.6297159 -1.49536
			vertex 2.9487031 7.6520061 -1.509221
			vertex 3.2416551 7.0839348 -0.356112
		endloop
	endfacet
	facet normal -0.6339197265552221 -0.7431118060983248 -0.214314311051405
		outer loop
			vertex 3.1224511 7.0879869 -0.362934
			vertex 2.7042251 7.6815729 -1.18406
			vertex 2.8702581 7.6297159 -1.49536
		endloop
	endfacet
	facet normal -0.5812775630308108 -0.7764961380539573 -0.243249136286754
		outer loop
			vertex 3.042407 6.8859248 0.473362
			vertex 2.7273121 7.3520761 -0.261716
			vertex 3.1224511 7.0879869 -0.362934
		endloop
	endfacet
	facet normal -0.5817236676024985 -0.77048111754628 -0.2606845259230662
		outer loop
			vertex 2.7273121 7.3520761 -0.261716
			vertex 2.7042251 7.6815729 -1.18406
			vertex 3.1224511 7.0879869 -0.362934
		endloop
	endfacet
	facet normal -0.3780437126410211 -0.8974064244493052 -0.2274745275623339
		outer loop
			vertex 3.0247741 6.8019361 0.834009
			vertex 2.6666241 6.9910102 0.683311
			vertex 3.042407 6.8859248 0.473362
		endloop
	endfacet
	facet normal -0.42714227070537814 -0.8351504640973342 -0.3465157758236425
		outer loop
			vertex 2.6666241 6.9910102 0.683311
			vertex 2.7273121 7.3520761 -0.261716
			vertex 3.042407 6.8859248 0.473362
		endloop
	endfacet
	facet normal -0.4550512474853627 -0.8691270660276669 -0.1937692061710405
		outer loop
			vertex 2.8871 6.7734661 1.285024
			vertex 2.4067039 6.9739079 1.5141391
			vertex 3.0247741 6.8019361 0.834009
		endloop
	endfacet
	facet normal -0.4124825877424014 -0.8989370984887561 -0.1475473068881592
		outer loop
			vertex 2.4067039 6.9739079 1.5141391
			vertex 2.6666241 6.9910102 0.683311
			vertex 3.0247741 6.8019361 0.834009
		endloop
	endfacet
	facet normal -0.3631032487877533 -0.9302680037973245 0.052511635193735376
		outer loop
			vertex 2.8871 6.7734661 1.285024
			vertex 2.324862 7.0322661 1.9820679
			vertex 2.4067039 6.9739079 1.5141391
		endloop
	endfacet
	facet normal -0.37263895711467515 -0.9042538043909512 0.2084832484517137
		outer loop
			vertex 2.9946899 6.676971 1.638285
			vertex 2.4390111 7.0631762 2.3201621
			vertex 2.324862 7.0322661 1.9820679
		endloop
	endfacet
	facet normal 0.42479735517308487 -0.5096946549677234 0.7481701449104244
		outer loop
			vertex 2.9430261 6.795763 1.851815
			vertex 2.4943271 7.2344899 2.405463
			vertex 2.4390111 7.0631762 2.3201621
		endloop
	endfacet
	facet normal 0.845338003763737 0.256269762261305 0.4687530995559118
		outer loop
			vertex 2.982765 6.8742261 1.721584
			vertex 2.5742531 7.3219509 2.213511
			vertex 2.4943271 7.2344899 2.405463
		endloop
	endfacet
	facet normal 0.8447080594982718 0.4465736480911467 0.2950258819989001
		outer loop
			vertex 2.982765 6.8742261 1.721584
			vertex 2.732357 7.4255981 1.603945
			vertex 2.5742531 7.3219509 2.213511
		endloop
	endfacet
	facet normal 0.8186668251029737 0.4869497500361757 0.3044085583808759
		outer loop
			vertex 3.2864051 6.8456349 0.95072
			vertex 2.864538 7.4447641 1.126874
			vertex 2.982765 6.8742261 1.721584
		endloop
	endfacet
	facet normal 0.8585212433589894 0.4444617495857132 0.2557245155563732
		outer loop
			vertex 2.864538 7.4447641 1.126874
			vertex 2.732357 7.4255981 1.603945
			vertex 2.982765 6.8742261 1.721584
		endloop
	endfacet
	facet normal 0.8280876202528308 0.5263819433452943 0.19285471968306964
		outer loop
			vertex 3.2193151 7.2737489 0.07029
			vertex 2.864538 7.4447641 1.126874
			vertex 3.2864051 6.8456349 0.95072
		endloop
	endfacet
	facet normal 0.07820860231962141 -0.7102636921812978 -0.6995776598006842
		outer loop
			vertex 2.9487031 7.6520061 -1.509221
			vertex 2.8702581 7.6297159 -1.49536
			vertex 2.7896509 7.8198109 -1.6973701
		endloop
	endfacet
	facet normal 0.18516361819546598 -0.677716649158337 -0.7116281177345085
		outer loop
			vertex 2.8702581 7.6297159 -1.49536
			vertex 2.724844 7.7686009 -1.665463
			vertex 2.7896509 7.8198109 -1.6973701
		endloop
	endfacet
	facet normal -0.5695250907666469 -0.804247599766796 -0.16978506782573705
		outer loop
			vertex 2.8702581 7.6297159 -1.49536
			vertex 2.7042251 7.6815729 -1.18406
			vertex 2.724844 7.7686009 -1.665463
		endloop
	endfacet
	facet normal 0.8872636408730317 0.460988259824075 -0.015907730482482587
		outer loop
			vertex 3.056946 7.5645781 -0.558043
			vertex 2.748543 8.158905 -0.536484
			vertex 3.2193151 7.2737489 0.07029
		endloop
	endfacet
	facet normal 0.820156998752867 0.5482799574626542 0.16349796830982322
		outer loop
			vertex 2.748543 8.158905 -0.536484
			vertex 2.798419 7.8802691 0.14771
			vertex 3.2193151 7.2737489 0.07029
		endloop
	endfacet
	facet normal 0.8039174480405006 0.5693980038250083 -0.17176335457874978
		outer loop
			vertex 2.7896509 7.8198109 -1.6973701
			vertex 2.754631 8.0616121 -1.059702
			vertex 2.9487031 7.6520061 -1.509221
		endloop
	endfacet
	facet normal -0.29986756992092894 0.8644865965846814 -0.4034133919878606
		outer loop
			vertex 2.724844 7.7686009 -1.665463
			vertex 2.664077 7.9115782 -1.313903
			vertex 2.754631 8.0616121 -1.059702
		endloop
	endfacet
	facet normal -0.9731953800381229 -0.21538599628669008 -0.08062025102939999
		outer loop
			vertex 2.7042251 7.6815729 -1.18406
			vertex 2.664077 7.9115782 -1.313903
			vertex 2.724844 7.7686009 -1.665463
		endloop
	endfacet
	facet normal -0.5010944764966887 -0.8188495112514735 -0.2799817914574669
		outer loop
			vertex 2.7273121 7.3520761 -0.261716
			vertex 2.5225761 7.4171772 -0.08569
			vertex 2.7042251 7.6815729 -1.18406
		endloop
	endfacet
	facet normal -0.5089198004171688 -0.7927188085876377 -0.3355555501772331
		outer loop
			vertex 2.6666241 6.9910102 0.683311
			vertex 2.2472761 7.2657628 0.670237
			vertex 2.7273121 7.3520761 -0.261716
		endloop
	endfacet
	facet normal -0.5439795925734375 -0.762253635755097 -0.35079281298477766
		outer loop
			vertex 2.2472761 7.2657628 0.670237
			vertex 2.5225761 7.4171772 -0.08569
			vertex 2.7273121 7.3520761 -0.261716
		endloop
	endfacet
	facet normal -0.43184671837710786 -0.8888069809578867 -0.15339674842528445
		outer loop
			vertex 2.4067039 6.9739079 1.5141391
			vertex 2.0516441 7.1653738 1.404327
			vertex 2.6666241 6.9910102 0.683311
		endloop
	endfacet
	facet normal -0.524985835083449 -0.8132220235211967 -0.25111713088083837
		outer loop
			vertex 2.0516441 7.1653738 1.404327
			vertex 2.2472761 7.2657628 0.670237
			vertex 2.6666241 6.9910102 0.683311
		endloop
	endfacet
	facet normal -0.4805320993273365 -0.8766126592212695 0.02528136090240333
		outer loop
			vertex 2.324862 7.0322661 1.9820679
			vertex 2.0516441 7.1653738 1.404327
			vertex 2.4067039 6.9739079 1.5141391
		endloop
	endfacet
	facet normal -0.5537237133714625 -0.79130019881356 0.25929528458446593
		outer loop
			vertex 2.4390111 7.0631762 2.3201621
			vertex 2.035392 7.3574972 2.356425
			vertex 2.324862 7.0322661 1.9820679
		endloop
	endfacet
	facet normal -0.47263416164550087 -0.81276079636156 0.3406418018144248
		outer loop
			vertex 2.035392 7.3574972 2.356425
			vertex 2.059906 7.205821 2.028543
			vertex 2.324862 7.0322661 1.9820679
		endloop
	endfacet
	facet normal -0.20381522101530267 -0.3828423168859247 0.9010500075378174
		outer loop
			vertex 2.4943271 7.2344899 2.405463
			vertex 2.143132 7.5326142 2.452692
			vertex 2.4390111 7.0631762 2.3201621
		endloop
	endfacet
	facet normal -0.1943379253559907 -0.3780309277422449 0.9051659452490838
		outer loop
			vertex 2.143132 7.5326142 2.452692
			vertex 2.035392 7.3574972 2.356425
			vertex 2.4390111 7.0631762 2.3201621
		endloop
	endfacet
	facet normal 0.5842524202711067 0.6187273154768616 0.5251910304738178
		outer loop
			vertex 2.5742531 7.3219509 2.213511
			vertex 2.2212319 7.6221852 2.252526
			vertex 2.4943271 7.2344899 2.405463
		endloop
	endfacet
	facet normal 0.5954732951997116 0.6206699420999795 0.5100787955577111
		outer loop
			vertex 2.2212319 7.6221852 2.252526
			vertex 2.143132 7.5326142 2.452692
			vertex 2.4943271 7.2344899 2.405463
		endloop
	endfacet
	facet normal 0.6311337336800283 0.7209127265296196 0.2862779260416997
		outer loop
			vertex 2.732357 7.4255981 1.603945
			vertex 2.3474231 7.7887082 1.538184
			vertex 2.5742531 7.3219509 2.213511
		endloop
	endfacet
	facet normal 0.6397267168479612 0.7158327671633032 0.2798806481453417
		outer loop
			vertex 2.3474231 7.7887082 1.538184
			vertex 2.2212319 7.6221852 2.252526
			vertex 2.5742531 7.3219509 2.213511
		endloop
	endfacet
	facet normal 0.6968036892183936 0.6825336853588316 0.22048216944262822
		outer loop
			vertex 2.864538 7.4447641 1.126874
			vertex 2.631072 7.7034111 1.064033
			vertex 2.732357 7.4255981 1.603945
		endloop
	endfacet
	facet normal 0.6406803122848209 0.7249793287362205 0.25285116245689615
		outer loop
			vertex 2.631072 7.7034111 1.064033
			vertex 2.3474231 7.7887082 1.538184
			vertex 2.732357 7.4255981 1.603945
		endloop
	endfacet
	facet normal 0.8181188612390735 0.5439076658793146 0.18667077940212684
		outer loop
			vertex 3.2193151 7.2737489 0.07029
			vertex 2.798419 7.8802691 0.14771
			vertex 2.864538 7.4447641 1.126874
		endloop
	endfacet
	facet normal 0.6856014472981127 0.6812195305038977 0.25669165690139295
		outer loop
			vertex 2.798419 7.8802691 0.14771
			vertex 2.631072 7.7034111 1.064033
			vertex 2.864538 7.4447641 1.126874
		endloop
	endfacet
	facet normal 0.8391374780742622 0.5223756989829514 0.15156491019771093
		outer loop
			vertex 2.748543 8.158905 -0.536484
			vertex 2.545047 8.2578888 0.249017
			vertex 2.798419 7.8802691 0.14771
		endloop
	endfacet
	facet normal 0.47234507581654533 0.8675307441366269 -0.15582213363194775
		outer loop
			vertex 2.754631 8.0616121 -1.059702
			vertex 2.6104181 8.2333536 -0.540695
			vertex 2.748543 8.158905 -0.536484
		endloop
	endfacet
	facet normal -0.42785385363976214 0.8368473968154204 -0.3415077076273092
		outer loop
			vertex 2.664077 7.9115782 -1.313903
			vertex 2.538012 8.1171217 -0.65229
			vertex 2.754631 8.0616121 -1.059702
		endloop
	endfacet
	facet normal -0.9662575940467366 -0.23192381604437906 -0.11206072237151272
		outer loop
			vertex 2.7042251 7.6815729 -1.18406
			vertex 2.538012 8.1171217 -0.65229
			vertex 2.664077 7.9115782 -1.313903
		endloop
	endfacet
	facet normal -0.8688251464810547 -0.42911825542642595 -0.24698256558298698
		outer loop
			vertex 2.5225761 7.4171772 -0.08569
			vertex 2.231941 7.832015 0.215937
			vertex 2.7042251 7.6815729 -1.18406
		endloop
	endfacet
	facet normal -0.88378937709356 -0.27670826121201986 -0.37729149886208385
		outer loop
			vertex 2.2472761 7.2657628 0.670237
			vertex 2.0772631 7.7881088 0.685393
			vertex 2.5225761 7.4171772 -0.08569
		endloop
	endfacet
	facet normal -0.8693549579095782 -0.3752816330212784 -0.3215363946350685
		outer loop
			vertex 2.0772631 7.7881088 0.685393
			vertex 2.231941 7.832015 0.215937
			vertex 2.5225761 7.4171772 -0.08569
		endloop
	endfacet
	facet normal -0.9143470207859483 -0.2893829718016182 -0.2832437487591295
		outer loop
			vertex 2.0516441 7.1653738 1.404327
			vertex 2.0772631 7.7881088 0.685393
			vertex 2.2472761 7.2657628 0.670237
		endloop
	endfacet
	facet normal -0.9503913550736339 -0.3093412168895389 0.03262336179184345
		outer loop
			vertex 2.059906 7.205821 2.028543
			vertex 1.866106 7.7537489 1.5782779
			vertex 2.0516441 7.1653738 1.404327
		endloop
	endfacet
	facet normal -0.9479502853794928 -0.31004297194625985 0.07255075461819312
		outer loop
			vertex 2.035392 7.3574972 2.356425
			vertex 1.8407331 7.8248191 1.810089
			vertex 2.059906 7.205821 2.028543
		endloop
	endfacet
	facet normal -0.94256857725774 -0.3340118133195874 -0.0007653295244149
		outer loop
			vertex 1.8407331 7.8248191 1.810089
			vertex 1.866106 7.7537489 1.5782779
			vertex 2.059906 7.205821 2.028543
		endloop
	endfacet
	facet normal -0.8608852751487782 0.3063279507592247 0.4062508210646062
		outer loop
			vertex 2.143132 7.5326142 2.452692
			vertex 1.959254 8.1417818 1.6037019
			vertex 2.035392 7.3574972 2.356425
		endloop
	endfacet
	facet normal 0.3536275651301401 0.7945849435958948 0.4935405885951403
		outer loop
			vertex 2.2212319 7.6221852 2.252526
			vertex 1.959254 8.1417818 1.6037019
			vertex 2.143132 7.5326142 2.452692
		endloop
	endfacet
	facet normal 0.7199987766336502 0.6368795591835207 0.27565592455133553
		outer loop
			vertex 2.3474231 7.7887082 1.538184
			vertex 2.079664 8.1522999 1.397509
			vertex 2.2212319 7.6221852 2.252526
		endloop
	endfacet
	facet normal 0.5626045311961344 0.7411241626866277 0.3663483546566342
		outer loop
			vertex 2.079664 8.1522999 1.397509
			vertex 1.959254 8.1417818 1.6037019
			vertex 2.2212319 7.6221852 2.252526
		endloop
	endfacet
	facet normal 0.7176162286808789 0.6196931515304062 0.3178165292745892
		outer loop
			vertex 2.631072 7.7034111 1.064033
			vertex 2.2303331 8.2312803 0.939621
			vertex 2.3474231 7.7887082 1.538184
		endloop
	endfacet
	facet normal 0.6908263035841337 0.6393627991960836 0.3376006950236195
		outer loop
			vertex 2.2303331 8.2312803 0.939621
			vertex 2.079664 8.1522999 1.397509
			vertex 2.3474231 7.7887082 1.538184
		endloop
	endfacet
	facet normal 0.8339789447290077 0.49317825063989573 0.24749612692820705
		outer loop
			vertex 2.798419 7.8802691 0.14771
			vertex 2.545047 8.2578888 0.249017
			vertex 2.631072 7.7034111 1.064033
		endloop
	endfacet
	facet normal 0.7063512201799097 0.6177105915074768 0.34569000403517003
		outer loop
			vertex 2.545047 8.2578888 0.249017
			vertex 2.2303331 8.2312803 0.939621
			vertex 2.631072 7.7034111 1.064033
		endloop
	endfacet
	facet normal 0.2700362058902397 0.961487725569367 -0.05120352612711127
		outer loop
			vertex 2.748543 8.158905 -0.536484
			vertex 2.3946421 8.303319 0.308892
			vertex 2.545047 8.2578888 0.249017
		endloop
	endfacet
	facet normal 0.4685902327309803 0.8758874886219904 0.1150838870762918
		outer loop
			vertex 2.6104181 8.2333536 -0.540695
			vertex 2.402015 8.2755518 -0.013299
			vertex 2.748543 8.158905 -0.536484
		endloop
	endfacet
	facet normal -0.643997799837505 0.6992161841118536 -0.3104248084166457
		outer loop
			vertex 2.538012 8.1171217 -0.65229
			vertex 2.402015 8.2755518 -0.013299
			vertex 2.6104181 8.2333536 -0.540695
		endloop
	endfacet
	facet normal -0.9166487422648841 0.24049863426768117 -0.31924205584412907
		outer loop
			vertex 2.538012 8.1171217 -0.65229
			vertex 2.2219341 8.0777473 0.225611
			vertex 2.289336 8.2003117 0.124411
		endloop
	endfacet
	facet normal -0.9402270955547349 -0.024917876242370487 -0.33963525763424096
		outer loop
			vertex 2.231941 7.832015 0.215937
			vertex 2.2219341 8.0777473 0.225611
			vertex 2.538012 8.1171217 -0.65229
		endloop
	endfacet
	facet normal -0.9487160061906074 -0.026231858653505878 -0.31503940894644555
		outer loop
			vertex 2.0772631 7.7881088 0.685393
			vertex 2.2219341 8.0777473 0.225611
			vertex 2.231941 7.832015 0.215937
		endloop
	endfacet
	facet normal -0.9744037316267946 0.04059702598548489 -0.2211091343045593
		outer loop
			vertex 1.9704829 7.8082838 1.1596659
			vertex 2.02652 8.0378046 0.954858
			vertex 2.0772631 7.7881088 0.685393
		endloop
	endfacet
	facet normal -0.9640233301087903 0.07824539029681395 -0.25404070127296147
		outer loop
			vertex 2.02652 8.0378046 0.954858
			vertex 2.2219341 8.0777473 0.225611
			vertex 2.0772631 7.7881088 0.685393
		endloop
	endfacet
	facet normal -0.9696126031214379 0.07931807226435027 -0.23143042859644916
		outer loop
			vertex 1.866106 7.7537489 1.5782779
			vertex 1.936216 8.0336094 1.380458
			vertex 1.9704829 7.8082838 1.1596659
		endloop
	endfacet
	facet normal -0.976901857246529 0.054022706756365536 -0.20674696724014668
		outer loop
			vertex 1.936216 8.0336094 1.380458
			vertex 2.02652 8.0378046 0.954858
			vertex 1.9704829 7.8082838 1.1596659
		endloop
	endfacet
	facet normal -0.9788471291456214 0.13929889926672878 -0.14984697002760122
		outer loop
			vertex 1.8407331 7.8248191 1.810089
			vertex 1.936216 8.0336094 1.380458
			vertex 1.866106 7.7537489 1.5782779
		endloop
	endfacet
	facet normal -0.9466212105220364 0.31742534896270774 -0.056119797092449526
		outer loop
			vertex 1.959254 8.1417818 1.6037019
			vertex 1.936216 8.0336094 1.380458
			vertex 1.8407331 7.8248191 1.810089
		endloop
	endfacet
	facet normal 0.46538422543597796 0.8275457812848324 0.31398328393886077
		outer loop
			vertex 2.079664 8.1522999 1.397509
			vertex 2.1124649 8.2527924 1.08403
			vertex 1.959254 8.1417818 1.6037019
		endloop
	endfacet
	facet normal 0.5237599919948346 0.7937478879655018 0.3092567883424332
		outer loop
			vertex 2.2303331 8.2312803 0.939621
			vertex 2.1124649 8.2527924 1.08403
			vertex 2.079664 8.1522999 1.397509
		endloop
	endfacet
	facet normal 0.47466130495795894 0.8519816300227544 0.22096141672106012
		outer loop
			vertex 2.2303331 8.2312803 0.939621
			vertex 2.3946421 8.303319 0.308892
			vertex 2.208349 8.2694378 0.839719
		endloop
	endfacet
	facet normal -0.568990751597977 0.8089059402034875 -0.1480564233644763
		outer loop
			vertex 2.150197 8.2057028 0.714985
			vertex 2.208349 8.2694378 0.839719
			vertex 2.3946421 8.303319 0.308892
		endloop
	endfacet
	facet normal -0.48940144587756534 0.867808787692482 -0.08598914336503813
		outer loop
			vertex 2.150197 8.2057028 0.714985
			vertex 2.3946421 8.303319 0.308892
			vertex 2.402015 8.2755518 -0.013299
		endloop
	endfacet
	facet normal -0.9200055405486216 0.32452266707510047 -0.21971537022771573
		outer loop
			vertex 2.150197 8.2057028 0.714985
			vertex 2.289336 8.2003117 0.124411
			vertex 2.2219341 8.0777473 0.225611
		endloop
	endfacet
	facet normal -0.9097321631286027 0.34916795977236614 -0.22465334904638465
		outer loop
			vertex 2.150197 8.2057028 0.714985
			vertex 2.2219341 8.0777473 0.225611
			vertex 2.02652 8.0378046 0.954858
		endloop
	endfacet
	facet normal -0.8992921667615089 0.395394070036989 -0.18691476180595
		outer loop
			vertex 2.02652 8.0378046 0.954858
			vertex 1.936216 8.0336094 1.380458
			vertex 2.150197 8.2057028 0.714985
		endloop
	endfacet
	facet normal -0.8610117341136283 0.4859498302931331 -0.1500385155775609
		outer loop
			vertex 2.150197 8.2057028 0.714985
			vertex 1.959254 8.1417818 1.6037019
			vertex 2.1124649 8.2527924 1.08403
		endloop
	endfacet
	facet normal -0.5518575585412211 0.8182819628301577 -0.160834897916301
		outer loop
			vertex 2.150197 8.2057028 0.714985
			vertex 2.1124649 8.2527924 1.08403
			vertex 2.208349 8.2694378 0.839719
		endloop
	endfacet
	facet normal 0.8771169416020524 0.47700434585981133 -0.05597074937425509
		outer loop
			vertex 2.9487031 7.6520061 -1.509221
			vertex 2.754631 8.0616121 -1.059702
			vertex 3.056946 7.5645781 -0.558043
		endloop
	endfacet
	facet normal 0.843602225918867 0.30558834665552065 0.4415326112679318
		outer loop
			vertex 2.982765 6.8742261 1.721584
			vertex 2.4943271 7.2344899 2.405463
			vertex 2.9430261 6.795763 1.851815
		endloop
	endfacet
	facet normal -0.015369947112589238 -0.875343845793204 0.4832565740450099
		outer loop
			vertex 2.9430261 6.795763 1.851815
			vertex 2.4390111 7.0631762 2.3201621
			vertex 2.9946899 6.676971 1.638285
		endloop
	endfacet
	facet normal -0.4999560233646592 -0.8620446644275617 -0.0832043943152598
		outer loop
			vertex 2.9946899 6.676971 1.638285
			vertex 2.324862 7.0322661 1.9820679
			vertex 2.8871 6.7734661 1.285024
		endloop
	endfacet
	facet normal -0.5393273576304652 -0.8398432446076572 0.06155749993480135
		outer loop
			vertex 2.324862 7.0322661 1.9820679
			vertex 2.059906 7.205821 2.028543
			vertex 2.0516441 7.1653738 1.404327
		endloop
	endfacet
	facet normal -0.939749954014577 -0.21864425471099572 -0.262801662497546
		outer loop
			vertex 2.0516441 7.1653738 1.404327
			vertex 1.866106 7.7537489 1.5782779
			vertex 1.9704829 7.8082838 1.1596659
		endloop
	endfacet
	facet normal -0.9577098904058914 -0.19972461380721945 -0.2071276042884987
		outer loop
			vertex 2.0516441 7.1653738 1.404327
			vertex 1.9704829 7.8082838 1.1596659
			vertex 2.0772631 7.7881088 0.685393
		endloop
	endfacet
	facet normal -0.94594459754325 0.032941733156426414 -0.3226509888337392
		outer loop
			vertex 2.7042251 7.6815729 -1.18406
			vertex 2.231941 7.832015 0.215937
			vertex 2.538012 8.1171217 -0.65229
		endloop
	endfacet
	facet normal 0.20849959589304057 0.9748071293497631 -0.07924000934700377
		outer loop
			vertex 2.748543 8.158905 -0.536484
			vertex 2.402015 8.2755518 -0.013299
			vertex 2.3946421 8.303319 0.308892
		endloop
	endfacet
	facet normal 0.8839547366530756 0.4614335954956017 -0.0755186102665637
		outer loop
			vertex 3.056946 7.5645781 -0.558043
			vertex 2.754631 8.0616121 -1.059702
			vertex 2.748543 8.158905 -0.536484
		endloop
	endfacet
	facet normal -0.558698697203981 0.7285497859092693 -0.3963218076186726
		outer loop
			vertex 2.754631 8.0616121 -1.059702
			vertex 2.538012 8.1171217 -0.65229
			vertex 2.6104181 8.2333536 -0.540695
		endloop
	endfacet
	facet normal -0.6774233222670349 0.6747007333679612 -0.2930470317908515
		outer loop
			vertex 2.724844 7.7686009 -1.665463
			vertex 2.754631 8.0616121 -1.059702
			vertex 2.7896509 7.8198109 -1.6973701
		endloop
	endfacet
	facet normal -0.6803807045554232 0.7136216986794395 -0.16681177429227673
		outer loop
			vertex 2.150197 8.2057028 0.714985
			vertex 2.402015 8.2755518 -0.013299
			vertex 2.289336 8.2003117 0.124411
		endloop
	endfacet
	facet normal 0.3544422742976412 0.9141458339281133 0.19674366191211826
		outer loop
			vertex 2.545047 8.2578888 0.249017
			vertex 2.3946421 8.303319 0.308892
			vertex 2.2303331 8.2312803 0.939621
		endloop
	endfacet
	facet normal 0.4434245865051208 0.8654979256325959 0.23299780429960318
		outer loop
			vertex 2.2303331 8.2312803 0.939621
			vertex 2.208349 8.2694378 0.839719
			vertex 2.1124649 8.2527924 1.08403
		endloop
	endfacet
	facet normal -0.8584877626567279 0.4906637290476894 -0.1491571867717456
		outer loop
			vertex 2.150197 8.2057028 0.714985
			vertex 1.936216 8.0336094 1.380458
			vertex 1.959254 8.1417818 1.6037019
		endloop
	endfacet
	facet normal -0.4385377294312919 0.5997814830636184 0.6692883029302494
		outer loop
			vertex 2.035392 7.3574972 2.356425
			vertex 1.959254 8.1417818 1.6037019
			vertex 1.8407331 7.8248191 1.810089
		endloop
	endfacet
	facet normal -0.7575832156520441 0.577415102245083 -0.30440018242702954
		outer loop
			vertex 2.538012 8.1171217 -0.65229
			vertex 2.289336 8.2003117 0.124411
			vertex 2.402015 8.2755518 -0.013299
		endloop
	endfacet
endsolid exported
