solid exported
	facet normal -0.37335094742240194 0.01872799548172837 0.9275011225028418
		outer loop
			vertex 1.821151 5.7332611 0.934777
			vertex 2.241787 5.4065599 1.1106941
			vertex 1.816721 5.8393321 0.930852
		endloop
	endfacet
	facet normal -0.47455953786710603 -0.10282964551505759 0.8741963789804935
		outer loop
			vertex 2.241787 5.4065599 1.1106941
			vertex 2.260813 5.5080972 1.132966
			vertex 1.816721 5.8393321 0.930852
		endloop
	endfacet
	facet normal -0.19037432771206309 -0.11530415088545201 0.9749166980500257
		outer loop
			vertex 1.370401 5.9455962 0.871871
			vertex 1.821151 5.7332611 0.934777
			vertex 1.37492 6.0070109 0.880017
		endloop
	endfacet
	facet normal -0.1020554991700512 0.03252833101078114 0.9942467413931034
		outer loop
			vertex 1.821151 5.7332611 0.934777
			vertex 1.816721 5.8393321 0.930852
			vertex 1.37492 6.0070109 0.880017
		endloop
	endfacet
	facet normal -0.10884533094456138 -0.05601947389780068 0.9924789733167059
		outer loop
			vertex 1.149824 5.9017601 0.845206
			vertex 1.370401 5.9455962 0.871871
			vertex 1.118386 5.9635348 0.845245
		endloop
	endfacet
	facet normal -0.1128945502081762 -0.12247920654834145 0.9860292411975329
		outer loop
			vertex 1.370401 5.9455962 0.871871
			vertex 1.37492 6.0070109 0.880017
			vertex 1.118386 5.9635348 0.845245
		endloop
	endfacet
	facet normal -0.2728380655820854 0.20742752492184804 0.9394323881335059
		outer loop
			vertex 1.816721 5.8393321 0.930852
			vertex 2.260813 5.5080972 1.132966
			vertex 1.839889 5.9305892 0.917431
		endloop
	endfacet
	facet normal -0.5395077412505931 -0.11176895889799214 0.8345292666872399
		outer loop
			vertex 2.260813 5.5080972 1.132966
			vertex 2.2689481 5.5942001 1.149757
			vertex 1.839889 5.9305892 0.917431
		endloop
	endfacet
	facet normal -0.08573655845271848 0.07528978206163289 0.9934690187730041
		outer loop
			vertex 1.37492 6.0070109 0.880017
			vertex 1.816721 5.8393321 0.930852
			vertex 1.402652 6.0663009 0.877917
		endloop
	endfacet
	facet normal -0.04091783455538317 0.155541473260171 0.9869815504412198
		outer loop
			vertex 1.816721 5.8393321 0.930852
			vertex 1.839889 5.9305892 0.917431
			vertex 1.402652 6.0663009 0.877917
		endloop
	endfacet
	facet normal -0.14402255398694344 0.059805205899114644 0.9877655801304491
		outer loop
			vertex 1.118386 5.9635348 0.845245
			vertex 1.37492 6.0070109 0.880017
			vertex 1.097401 6.022552 0.838612
		endloop
	endfacet
	facet normal -0.1412766328184209 0.10096106301397695 0.9848084975133882
		outer loop
			vertex 1.37492 6.0070109 0.880017
			vertex 1.402652 6.0663009 0.877917
			vertex 1.097401 6.022552 0.838612
		endloop
	endfacet
	facet normal 0.4712124031345308 0.8219625176591494 0.31990075132080137
		outer loop
			vertex 2.2689481 5.5942001 1.149757
			vertex 2.5896089 5.5719481 0.7346
			vertex 1.839889 5.9305892 0.917431
		endloop
	endfacet
	facet normal 0.4726760545805369 0.7659691750342631 0.4357391080950938
		outer loop
			vertex 2.5896089 5.5719481 0.7346
			vertex 1.976456 6.025003 0.603321
			vertex 1.839889 5.9305892 0.917431
		endloop
	endfacet
	facet normal 0.24375602349194103 0.8944726495534072 0.37483553755254295
		outer loop
			vertex 1.839889 5.9305892 0.917431
			vertex 1.976456 6.025003 0.603321
			vertex 1.402652 6.0663009 0.877917
		endloop
	endfacet
	facet normal 0.2310470472620767 0.9093240261185508 0.3460449067318074
		outer loop
			vertex 1.976456 6.025003 0.603321
			vertex 1.6983531 6.1275821 0.519451
			vertex 1.402652 6.0663009 0.877917
		endloop
	endfacet
	facet normal -0.14765270112331014 0.9879176736232439 0.04708874593603442
		outer loop
			vertex 1.402652 6.0663009 0.877917
			vertex 1.6983531 6.1275821 0.519451
			vertex 1.097401 6.022552 0.838612
		endloop
	endfacet
	facet normal -0.16747687999761568 0.9858342264604764 0.009075935507630658
		outer loop
			vertex 1.6983531 6.1275821 0.519451
			vertex 1.395436 6.0784211 0.269668
			vertex 1.097401 6.022552 0.838612
		endloop
	endfacet
	facet normal 0.48066964411271124 0.7713745810566278 0.41705868763073556
		outer loop
			vertex 2.5896089 5.5719481 0.7346
			vertex 2.869556 5.7336659 0.112848
			vertex 1.976456 6.025003 0.603321
		endloop
	endfacet
	facet normal 0.47464858482130856 0.7850715092136026 0.3979591013511381
		outer loop
			vertex 2.869556 5.7336659 0.112848
			vertex 2.285321 6.164402 -0.040063
			vertex 1.976456 6.025003 0.603321
		endloop
	endfacet
	facet normal 0.24318574945084404 0.9172423870582558 0.31547915089226475
		outer loop
			vertex 1.976456 6.025003 0.603321
			vertex 2.285321 6.164402 -0.040063
			vertex 1.6983531 6.1275821 0.519451
		endloop
	endfacet
	facet normal 0.1606720159031168 0.9594284452500783 0.2316928176501083
		outer loop
			vertex 2.285321 6.164402 -0.040063
			vertex 1.964913 6.241169 -0.135758
			vertex 1.6983531 6.1275821 0.519451
		endloop
	endfacet
	facet normal -0.2221389127909504 0.9718810788804371 0.07811191930974755
		outer loop
			vertex 1.6983531 6.1275821 0.519451
			vertex 1.964913 6.241169 -0.135758
			vertex 1.395436 6.0784211 0.269668
		endloop
	endfacet
	facet normal -0.28282260855781605 0.9590938788922045 -0.012259835237795615
		outer loop
			vertex 1.964913 6.241169 -0.135758
			vertex 1.636126 6.1438942 -0.160821
			vertex 1.395436 6.0784211 0.269668
		endloop
	endfacet
	facet normal 0.44374940812977537 0.8291294795231507 0.34004524547498577
		outer loop
			vertex 3.12834 5.9190059 -0.58632
			vertex 3.130964 6.2551961 -1.409474
			vertex 2.6004281 6.2406549 -0.681684
		endloop
	endfacet
	facet normal 0.36111743475995206 0.8891727877204226 0.2810088110538243
		outer loop
			vertex 3.130964 6.2551961 -1.409474
			vertex 2.719806 6.410955 -1.37396
			vertex 2.6004281 6.2406549 -0.681684
		endloop
	endfacet
	facet normal 0.2038231541134077 0.9419340745500532 0.2668638623882915
		outer loop
			vertex 2.6004281 6.2406549 -0.681684
			vertex 2.719806 6.410955 -1.37396
			vertex 2.2611091 6.3453979 -0.792227
		endloop
	endfacet
	facet normal 0.18346514662794292 0.9502439036263863 0.2517480160670077
		outer loop
			vertex 2.719806 6.410955 -1.37396
			vertex 2.3578899 6.4710021 -1.336861
			vertex 2.2611091 6.3453979 -0.792227
		endloop
	endfacet
	facet normal -0.2778735349190677 0.9456853289535364 0.16871738853367627
		outer loop
			vertex 2.2611091 6.3453979 -0.792227
			vertex 2.3578899 6.4710021 -1.336861
			vertex 1.984633 6.285151 -0.909884
		endloop
	endfacet
	facet normal -0.28095851552034173 0.9452818493062585 0.16584492132334433
		outer loop
			vertex 2.3578899 6.4710021 -1.336861
			vertex 2.07795 6.3901472 -1.350252
			vertex 1.984633 6.285151 -0.909884
		endloop
	endfacet
	facet normal 0.3960761145767752 0.8608649860580334 0.31942947146602985
		outer loop
			vertex 2.9338961 6.4980168 -1.87643
			vertex 2.647969 6.7829161 -2.289701
			vertex 2.725224 6.6012301 -1.895848
		endloop
	endfacet
	facet normal 0.3751415369990984 0.867523201630055 0.3266072899546075
		outer loop
			vertex 2.647969 6.7829161 -2.289701
			vertex 2.523859 6.807683 -2.2129331
			vertex 2.725224 6.6012301 -1.895848
		endloop
	endfacet
	facet normal 0.11397926016099798 0.8641062578978611 0.49023372315142394
		outer loop
			vertex 2.725224 6.6012301 -1.895848
			vertex 2.523859 6.807683 -2.2129331
			vertex 2.3939021 6.6065331 -1.828163
		endloop
	endfacet
	facet normal -0.1983222815726963 0.894510710419169 0.40064805200723774
		outer loop
			vertex 2.523859 6.807683 -2.2129331
			vertex 2.3262761 6.735065 -2.1486061
			vertex 2.3939021 6.6065331 -1.828163
		endloop
	endfacet
	facet normal -0.24798305554376018 0.8799183584086945 0.40527532209416445
		outer loop
			vertex 2.3939021 6.6065331 -1.828163
			vertex 2.3262761 6.735065 -2.1486061
			vertex 2.165853 6.517715 -1.774865
		endloop
	endfacet
	facet normal -0.412750149835229 0.8531603458463481 0.31899018493730447
		outer loop
			vertex 2.3262761 6.735065 -2.1486061
			vertex 2.194036 6.6507649 -2.094249
			vertex 2.165853 6.517715 -1.774865
		endloop
	endfacet
	facet normal -0.18870875189847336 0.6237553302143856 -0.758497392867018
		outer loop
			vertex 2.176465 7.1485562 -2.7277651
			vertex 2.270576 7.156496 -2.7446499
			vertex 2.259325 7.1380572 -2.757014
		endloop
	endfacet
	facet normal -0.5529041913367903 0.5542618968000941 -0.6221661393532857
		outer loop
			vertex 2.1178041 7.1070518 -2.7126091
			vertex 2.176465 7.1485562 -2.7277651
			vertex 2.1256521 7.073781 -2.749223
		endloop
	endfacet
	facet normal -0.9559773187395615 -0.2829364643397787 -0.07780953156538041
		outer loop
			vertex 2.170325 6.853251 -2.434999
			vertex 2.1178041 7.1070518 -2.7126091
			vertex 2.185771 6.8073082 -2.45771
		endloop
	endfacet
	facet normal -0.9743892287900705 -0.22482176367591755 -0.004561293187449137
		outer loop
			vertex 2.1178041 7.1070518 -2.7126091
			vertex 2.1256521 7.073781 -2.749223
			vertex 2.185771 6.8073082 -2.45771
		endloop
	endfacet
	facet normal 0.5205056836744069 -0.4403043428519325 -0.7315776916557574
		outer loop
			vertex 2.153486 7.118382 -2.8204751
			vertex 2.259325 7.1380572 -2.757014
			vertex 2.1422491 7.0105672 -2.763581
		endloop
	endfacet
	facet normal -0.8911312841242014 -0.135619701652189 -0.43300384637890116
		outer loop
			vertex 2.1256521 7.073781 -2.749223
			vertex 2.153486 7.118382 -2.8204751
			vertex 2.1422491 7.0105672 -2.763581
		endloop
	endfacet
	facet normal -0.9553980373292724 -0.28783391604874503 -0.06607743214909627
		outer loop
			vertex 2.185771 6.8073082 -2.45771
			vertex 2.1256521 7.073781 -2.749223
			vertex 2.1983039 6.7691512 -2.472708
		endloop
	endfacet
	facet normal -0.9681498257322378 -0.24952866520979947 -0.020527059537438858
		outer loop
			vertex 2.1256521 7.073781 -2.749223
			vertex 2.1422491 7.0105672 -2.763581
			vertex 2.1983039 6.7691512 -2.472708
		endloop
	endfacet
	facet normal -0.017072489820023188 -0.7703693000790287 -0.637369336873914
		outer loop
			vertex 2.6270061 6.6764669 -2.2491269
			vertex 2.8995891 6.3985538 -1.920523
			vertex 2.4927781 6.6167579 -2.173363
		endloop
	endfacet
	facet normal -0.3147691129023562 -0.9078419054554732 -0.2770261364233337
		outer loop
			vertex 2.8995891 6.3985538 -1.920523
			vertex 2.640327 6.4608488 -1.830085
			vertex 2.4927781 6.6167579 -2.173363
		endloop
	endfacet
	facet normal 0.020653847619723588 -0.9069262306950182 -0.4207828782826459
		outer loop
			vertex 2.4927781 6.6167579 -2.173363
			vertex 2.640327 6.4608488 -1.830085
			vertex 2.295223 6.5885229 -2.1222041
		endloop
	endfacet
	facet normal -0.03482410231051517 -0.9301943092737041 -0.36541186200379905
		outer loop
			vertex 2.640327 6.4608488 -1.830085
			vertex 2.3476901 6.4493551 -1.772938
			vertex 2.295223 6.5885229 -2.1222041
		endloop
	endfacet
	facet normal 0.3203685084247499 -0.8624772842484482 -0.3917868718641844
		outer loop
			vertex 2.295223 6.5885229 -2.1222041
			vertex 2.3476901 6.4493551 -1.772938
			vertex 2.210149 6.56429 -2.1384239
		endloop
	endfacet
	facet normal 0.4867386155915414 -0.7640549288422857 -0.4234449029139914
		outer loop
			vertex 2.3476901 6.4493551 -1.772938
			vertex 2.1699891 6.347456 -1.793336
			vertex 2.210149 6.56429 -2.1384239
		endloop
	endfacet
	facet normal -0.3703216401793533 -0.8688771561099141 -0.3285032273893538
		outer loop
			vertex 3.088922 6.165781 -1.491055
			vertex 3.1170521 5.8399391 -0.660928
			vertex 2.696825 6.308001 -1.42521
		endloop
	endfacet
	facet normal -0.43152410081410214 -0.8553704750013168 -0.2865803568156797
		outer loop
			vertex 3.1170521 5.8399391 -0.660928
			vertex 2.563586 6.1604691 -0.784237
			vertex 2.696825 6.308001 -1.42521
		endloop
	endfacet
	facet normal -0.10213322075589627 -0.9645728284148148 -0.24324486408118
		outer loop
			vertex 2.696825 6.308001 -1.42521
			vertex 2.563586 6.1604691 -0.784237
			vertex 2.3226171 6.3417001 -1.40172
		endloop
	endfacet
	facet normal -0.15594567307222187 -0.9625739362037012 -0.22165821525800636
		outer loop
			vertex 2.563586 6.1604691 -0.784237
			vertex 2.226192 6.23137 -0.854761
			vertex 2.3226171 6.3417001 -1.40172
		endloop
	endfacet
	facet normal 0.325611737780895 -0.9363190887331818 -0.13146695513766837
		outer loop
			vertex 2.3226171 6.3417001 -1.40172
			vertex 2.226192 6.23137 -0.854761
			vertex 2.1231229 6.2813201 -1.4657871
		endloop
	endfacet
	facet normal 0.2970888409444744 -0.9463028891654957 -0.12747181077910727
		outer loop
			vertex 2.226192 6.23137 -0.854761
			vertex 2.046591 6.1817842 -0.905237
			vertex 2.1231229 6.2813201 -1.4657871
		endloop
	endfacet
	facet normal -0.45042313713814486 -0.8075687512327749 -0.3807252415626902
		outer loop
			vertex 2.84621 5.6220331 0.037321
			vertex 2.554476 5.4842372 0.674745
			vertex 2.2273321 6.0500669 -0.138422
		endloop
	endfacet
	facet normal -0.43533598578386934 -0.811599931071319 -0.389599963252844
		outer loop
			vertex 2.554476 5.4842372 0.674745
			vertex 1.901762 5.9180059 0.500472
			vertex 2.2273321 6.0500669 -0.138422
		endloop
	endfacet
	facet normal -0.20770502903000587 -0.931566373089007 -0.29840025711355794
		outer loop
			vertex 2.2273321 6.0500669 -0.138422
			vertex 1.901762 5.9180059 0.500472
			vertex 1.938742 6.14184 -0.224049
		endloop
	endfacet
	facet normal -0.22126705863261106 -0.9285186710320581 -0.29815091197065524
		outer loop
			vertex 1.901762 5.9180059 0.500472
			vertex 1.6256551 6.0084562 0.423694
			vertex 1.938742 6.14184 -0.224049
		endloop
	endfacet
	facet normal 0.43942667991514406 -0.8978571242940833 0.02750958620395402
		outer loop
			vertex 1.938742 6.14184 -0.224049
			vertex 1.6256551 6.0084562 0.423694
			vertex 1.718188 6.0341191 -0.216803
		endloop
	endfacet
	facet normal 0.27279059420980706 -0.9620730468926852 0.0008626431971654688
		outer loop
			vertex 1.6256551 6.0084562 0.423694
			vertex 1.454496 5.9598012 0.285663
			vertex 1.718188 6.0341191 -0.216803
		endloop
	endfacet
	facet normal -0.4132415500247315 -0.7980381913648077 -0.43859601737401127
		outer loop
			vertex 2.554476 5.4842372 0.674745
			vertex 2.241787 5.4065599 1.1106941
			vertex 1.901762 5.9180059 0.500472
		endloop
	endfacet
	facet normal -0.440926435337207 -0.7935322277615926 -0.41939299245999323
		outer loop
			vertex 2.241787 5.4065599 1.1106941
			vertex 1.821151 5.7332611 0.934777
			vertex 1.901762 5.9180059 0.500472
		endloop
	endfacet
	facet normal -0.177781138518691 -0.8932289912876744 -0.4129598478184069
		outer loop
			vertex 1.901762 5.9180059 0.500472
			vertex 1.821151 5.7332611 0.934777
			vertex 1.6256551 6.0084562 0.423694
		endloop
	endfacet
	facet normal -0.36429406400217645 -0.8709912941202832 -0.32964223106187834
		outer loop
			vertex 1.821151 5.7332611 0.934777
			vertex 1.370401 5.9455962 0.871871
			vertex 1.6256551 6.0084562 0.423694
		endloop
	endfacet
	facet normal 0.2627125737981492 -0.9647680263529642 0.014309398846844571
		outer loop
			vertex 1.6256551 6.0084562 0.423694
			vertex 1.370401 5.9455962 0.871871
			vertex 1.454496 5.9598012 0.285663
		endloop
	endfacet
	facet normal 0.19444050316384315 -0.9809056431241906 0.004124320126958034
		outer loop
			vertex 1.370401 5.9455962 0.871871
			vertex 1.149824 5.9017601 0.845206
			vertex 1.454496 5.9598012 0.285663
		endloop
	endfacet
	facet normal -0.9916372227306341 0.12337140238844772 -0.03788291920882565
		outer loop
			vertex 2.1699891 6.347456 -1.793336
			vertex 2.1841481 6.465435 -1.7797509
			vertex 2.210149 6.56429 -2.1384239
		endloop
	endfacet
	facet normal -0.9969745811902868 0.05172907866985851 -0.05801540209651078
		outer loop
			vertex 2.1841481 6.465435 -1.7797509
			vertex 2.211024 6.603941 -2.1181059
			vertex 2.210149 6.56429 -2.1384239
		endloop
	endfacet
	facet normal -0.8897875120004004 -0.4127262133365639 -0.19476975204840816
		outer loop
			vertex 2.046591 6.1817842 -0.905237
			vertex 2.0211251 6.240509 -0.913339
			vertex 2.1231229 6.2813201 -1.4657871
		endloop
	endfacet
	facet normal -0.9804696410609098 0.09111285595989718 -0.1742920836891962
		outer loop
			vertex 2.0211251 6.240509 -0.913339
			vertex 2.1132231 6.342236 -1.378252
			vertex 2.1231229 6.2813201 -1.4657871
		endloop
	endfacet
	facet normal -0.7990104413111861 -0.36996130037522146 -0.47403686660467553
		outer loop
			vertex 1.454496 5.9598012 0.285663
			vertex 1.431269 6.022491 0.275887
			vertex 1.718188 6.0341191 -0.216803
		endloop
	endfacet
	facet normal -0.7201944944671284 -0.5426879848497298 -0.4322148091389016
		outer loop
			vertex 1.431269 6.022491 0.275887
			vertex 1.6675121 6.0743642 -0.182894
			vertex 1.718188 6.0341191 -0.216803
		endloop
	endfacet
	facet normal -0.7868116972772069 -0.4001226890172237 -0.469924660729129
		outer loop
			vertex 1.149824 5.9017601 0.845206
			vertex 1.118386 5.9635348 0.845245
			vertex 1.454496 5.9598012 0.285663
		endloop
	endfacet
	facet normal -0.7975597692238356 -0.3698208061382402 -0.4765826117924197
		outer loop
			vertex 1.118386 5.9635348 0.845245
			vertex 1.431269 6.022491 0.275887
			vertex 1.454496 5.9598012 0.285663
		endloop
	endfacet
	facet normal -0.93055097459883 -0.30698910384723566 -0.19958099556881384
		outer loop
			vertex 2.1841481 6.465435 -1.7797509
			vertex 2.165853 6.517715 -1.774865
			vertex 2.211024 6.603941 -2.1181059
		endloop
	endfacet
	facet normal -0.9501256484804481 -0.24911887680948025 -0.18761939483110773
		outer loop
			vertex 2.165853 6.517715 -1.774865
			vertex 2.194036 6.6507649 -2.094249
			vertex 2.211024 6.603941 -2.1181059
		endloop
	endfacet
	facet normal -0.7538784478790531 -0.5946218587553667 -0.2794496929928221
		outer loop
			vertex 2.0211251 6.240509 -0.913339
			vertex 1.984633 6.285151 -0.909884
			vertex 2.1132231 6.342236 -1.378252
		endloop
	endfacet
	facet normal -0.8437908607472724 -0.4535235489127359 -0.2869379269127291
		outer loop
			vertex 1.984633 6.285151 -0.909884
			vertex 2.07795 6.3901472 -1.350252
			vertex 2.1132231 6.342236 -1.378252
		endloop
	endfacet
	facet normal -0.734531283748174 -0.5191799282687023 -0.43693934965640774
		outer loop
			vertex 1.431269 6.022491 0.275887
			vertex 1.395436 6.0784211 0.269668
			vertex 1.6675121 6.0743642 -0.182894
		endloop
	endfacet
	facet normal -0.8371517700470936 -0.2187420842827286 -0.5013270533999395
		outer loop
			vertex 1.395436 6.0784211 0.269668
			vertex 1.636126 6.1438942 -0.160821
			vertex 1.6675121 6.0743642 -0.182894
		endloop
	endfacet
	facet normal -0.8083850726102505 -0.3413417062392817 -0.4795825413446324
		outer loop
			vertex 1.118386 5.9635348 0.845245
			vertex 1.097401 6.022552 0.838612
			vertex 1.431269 6.022491 0.275887
		endloop
	endfacet
	facet normal -0.73496495916162 -0.519353621101838 -0.43600266633699253
		outer loop
			vertex 1.097401 6.022552 0.838612
			vertex 1.395436 6.0784211 0.269668
			vertex 1.431269 6.022491 0.275887
		endloop
	endfacet
	facet normal 0.7941278806733472 0.06433120113026275 -0.6043363349149179
		outer loop
			vertex 2.8995891 6.3985538 -1.920523
			vertex 2.6270061 6.6764669 -2.2491269
			vertex 2.9195819 6.4530339 -1.8884521
		endloop
	endfacet
	facet normal 0.5840712495633359 -0.38697659778517324 -0.7135193677820777
		outer loop
			vertex 2.6270061 6.6764669 -2.2491269
			vertex 2.643028 6.757834 -2.2801411
			vertex 2.9195819 6.4530339 -1.8884521
		endloop
	endfacet
	facet normal 0.9668663050476093 -0.2247870416793996 -0.12099724813650728
		outer loop
			vertex 3.1170521 5.8399391 -0.660928
			vertex 3.088922 6.165781 -1.491055
			vertex 3.132993 5.8929682 -0.632064
		endloop
	endfacet
	facet normal 0.9618696942192058 -0.24255652591217253 -0.12638442578130227
		outer loop
			vertex 3.088922 6.165781 -1.491055
			vertex 3.106379 6.2203379 -1.462901
			vertex 3.132993 5.8929682 -0.632064
		endloop
	endfacet
	facet normal 0.8190918134185852 -0.5088500139979559 0.2648778292816027
		outer loop
			vertex 2.554476 5.4842372 0.674745
			vertex 2.84621 5.6220331 0.037321
			vertex 2.57392 5.5306401 0.703761
		endloop
	endfacet
	facet normal 0.8340718989413424 -0.47810116889602294 0.27521507897758807
		outer loop
			vertex 2.84621 5.6220331 0.037321
			vertex 2.8761561 5.700191 0.082341
			vertex 2.57392 5.5306401 0.703761
		endloop
	endfacet
	facet normal 0.8049830492647346 -0.2670472830616424 0.5297999990617641
		outer loop
			vertex 2.241787 5.4065599 1.1106941
			vertex 2.554476 5.4842372 0.674745
			vertex 2.260813 5.5080972 1.132966
		endloop
	endfacet
	facet normal 0.6761633010406105 -0.5729533564799935 0.4631712875645191
		outer loop
			vertex 2.554476 5.4842372 0.674745
			vertex 2.57392 5.5306401 0.703761
			vertex 2.260813 5.5080972 1.132966
		endloop
	endfacet
	facet normal 0.7821131954865639 -0.08385537264565764 -0.6174684007495881
		outer loop
			vertex 2.9195819 6.4530339 -1.8884521
			vertex 2.643028 6.757834 -2.2801411
			vertex 2.9338961 6.4980168 -1.87643
		endloop
	endfacet
	facet normal 0.6142020801979791 -0.3838036980712556 -0.6895292060727406
		outer loop
			vertex 2.643028 6.757834 -2.2801411
			vertex 2.647969 6.7829161 -2.289701
			vertex 2.9338961 6.4980168 -1.87643
		endloop
	endfacet
	facet normal 0.990246742433109 0.13750266135050698 0.02245901204737186
		outer loop
			vertex 3.132993 5.8929682 -0.632064
			vertex 3.106379 6.2203379 -1.462901
			vertex 3.12834 5.9190059 -0.58632
		endloop
	endfacet
	facet normal 0.9048171482414512 -0.39519306646473495 -0.158519299980814
		outer loop
			vertex 3.106379 6.2203379 -1.462901
			vertex 3.130964 6.2551961 -1.409474
			vertex 3.12834 5.9190059 -0.58632
		endloop
	endfacet
	facet normal 0.8214339761647629 -0.5069774682985341 0.26118971924590934
		outer loop
			vertex 2.57392 5.5306401 0.703761
			vertex 2.8761561 5.700191 0.082341
			vertex 2.5896089 5.5719481 0.7346
		endloop
	endfacet
	facet normal 0.9151341532678702 -0.1576982207363759 0.3710266199335022
		outer loop
			vertex 2.8761561 5.700191 0.082341
			vertex 2.869556 5.7336659 0.112848
			vertex 2.5896089 5.5719481 0.7346
		endloop
	endfacet
	facet normal 0.7982682104937812 -0.18706793252726037 0.5725150240255997
		outer loop
			vertex 2.260813 5.5080972 1.132966
			vertex 2.57392 5.5306401 0.703761
			vertex 2.2689481 5.5942001 1.149757
		endloop
	endfacet
	facet normal 0.6114702609648898 -0.6092097717462418 0.5049431393379079
		outer loop
			vertex 2.57392 5.5306401 0.703761
			vertex 2.5896089 5.5719481 0.7346
			vertex 2.2689481 5.5942001 1.149757
		endloop
	endfacet
	facet normal 0.1717304670600882 0.9648347950604622 0.19900368067942892
		outer loop
			vertex 2.285321 6.164402 -0.040063
			vertex 2.6004281 6.2406549 -0.681684
			vertex 1.964913 6.241169 -0.135758
		endloop
	endfacet
	facet normal 0.21190577029121108 0.9458770108051262 0.24578979829856232
		outer loop
			vertex 2.6004281 6.2406549 -0.681684
			vertex 2.2611091 6.3453979 -0.792227
			vertex 1.964913 6.241169 -0.135758
		endloop
	endfacet
	facet normal 0.479684286015467 0.7877907911142227 0.38637890106145684
		outer loop
			vertex 2.869556 5.7336659 0.112848
			vertex 3.12834 5.9190059 -0.58632
			vertex 2.285321 6.164402 -0.040063
		endloop
	endfacet
	facet normal 0.45009232090307294 0.8336316239817267 0.32011750680285217
		outer loop
			vertex 3.12834 5.9190059 -0.58632
			vertex 2.6004281 6.2406549 -0.681684
			vertex 2.285321 6.164402 -0.040063
		endloop
	endfacet
	facet normal 0.9413526889134145 -0.10625968073181337 0.3202561401850981
		outer loop
			vertex 2.869556 5.7336659 0.112848
			vertex 2.8761561 5.700191 0.082341
			vertex 3.12834 5.9190059 -0.58632
		endloop
	endfacet
	facet normal 0.9241413321852293 -0.283937964957445 0.2556208720013576
		outer loop
			vertex 2.8761561 5.700191 0.082341
			vertex 3.132993 5.8929682 -0.632064
			vertex 3.12834 5.9190059 -0.58632
		endloop
	endfacet
	facet normal 0.8736754905497318 -0.4463013962163463 0.1936651774275016
		outer loop
			vertex 2.8761561 5.700191 0.082341
			vertex 2.84621 5.6220331 0.037321
			vertex 3.132993 5.8929682 -0.632064
		endloop
	endfacet
	facet normal 0.8928085489322988 -0.39054290936389463 0.22443068172375175
		outer loop
			vertex 2.84621 5.6220331 0.037321
			vertex 3.1170521 5.8399391 -0.660928
			vertex 3.132993 5.8929682 -0.632064
		endloop
	endfacet
	facet normal -0.3876615532037938 -0.8264518737735367 -0.40828399491509887
		outer loop
			vertex 3.1170521 5.8399391 -0.660928
			vertex 2.84621 5.6220331 0.037321
			vertex 2.563586 6.1604691 -0.784237
		endloop
	endfacet
	facet normal -0.4532417611101806 -0.8090003960986903 -0.3742863410517463
		outer loop
			vertex 2.84621 5.6220331 0.037321
			vertex 2.2273321 6.0500669 -0.138422
			vertex 2.563586 6.1604691 -0.784237
		endloop
	endfacet
	facet normal -0.15074965562283735 -0.9584103484408513 -0.24233065289203987
		outer loop
			vertex 2.563586 6.1604691 -0.784237
			vertex 2.2273321 6.0500669 -0.138422
			vertex 2.226192 6.23137 -0.854761
		endloop
	endfacet
	facet normal -0.229336964296311 -0.9436805763470452 -0.23847751808642534
		outer loop
			vertex 2.2273321 6.0500669 -0.138422
			vertex 1.938742 6.14184 -0.224049
			vertex 2.226192 6.23137 -0.854761
		endloop
	endfacet
	facet normal 0.26969831859294074 -0.9628465440904577 -0.013760431723001437
		outer loop
			vertex 2.226192 6.23137 -0.854761
			vertex 1.938742 6.14184 -0.224049
			vertex 2.046591 6.1817842 -0.905237
		endloop
	endfacet
	facet normal 0.43924825800401956 -0.8982072358100583 0.01687392600696345
		outer loop
			vertex 1.938742 6.14184 -0.224049
			vertex 1.718188 6.0341191 -0.216803
			vertex 2.046591 6.1817842 -0.905237
		endloop
	endfacet
	facet normal -0.7202781960495822 -0.5229519242111814 -0.455763760362079
		outer loop
			vertex 1.718188 6.0341191 -0.216803
			vertex 1.6675121 6.0743642 -0.182894
			vertex 2.046591 6.1817842 -0.905237
		endloop
	endfacet
	facet normal -0.7835302115703718 -0.404811885748931 -0.471389164823379
		outer loop
			vertex 1.6675121 6.0743642 -0.182894
			vertex 2.0211251 6.240509 -0.913339
			vertex 2.046591 6.1817842 -0.905237
		endloop
	endfacet
	facet normal -0.8523076967043416 -0.23665960780334117 -0.46643737004329827
		outer loop
			vertex 1.6675121 6.0743642 -0.182894
			vertex 1.636126 6.1438942 -0.160821
			vertex 2.0211251 6.240509 -0.913339
		endloop
	endfacet
	facet normal -0.7132128999221784 -0.549309552295041 -0.43541517559912685
		outer loop
			vertex 1.636126 6.1438942 -0.160821
			vertex 1.984633 6.285151 -0.909884
			vertex 2.0211251 6.240509 -0.913339
		endloop
	endfacet
	facet normal -0.28526661260688135 0.9581620676023289 0.023418196767169663
		outer loop
			vertex 1.964913 6.241169 -0.135758
			vertex 2.2611091 6.3453979 -0.792227
			vertex 1.636126 6.1438942 -0.160821
		endloop
	endfacet
	facet normal -0.240915650467304 0.9679855481152637 0.07045301980687776
		outer loop
			vertex 2.2611091 6.3453979 -0.792227
			vertex 1.984633 6.285151 -0.909884
			vertex 1.636126 6.1438942 -0.160821
		endloop
	endfacet
	facet normal 0.18766821838184028 0.9221840998226085 0.33816730451619814
		outer loop
			vertex 2.719806 6.410955 -1.37396
			vertex 2.725224 6.6012301 -1.895848
			vertex 2.3578899 6.4710021 -1.336861
		endloop
	endfacet
	facet normal 0.07054082397802588 0.9602539997541655 0.2700671177848728
		outer loop
			vertex 2.725224 6.6012301 -1.895848
			vertex 2.3939021 6.6065331 -1.828163
			vertex 2.3578899 6.4710021 -1.336861
		endloop
	endfacet
	facet normal 0.36026114287924993 0.881173847024458 0.306177334646858
		outer loop
			vertex 3.130964 6.2551961 -1.409474
			vertex 2.9338961 6.4980168 -1.87643
			vertex 2.719806 6.410955 -1.37396
		endloop
	endfacet
	facet normal 0.3963737791440289 0.8612178591528025 0.3181063128630811
		outer loop
			vertex 2.9338961 6.4980168 -1.87643
			vertex 2.725224 6.6012301 -1.895848
			vertex 2.719806 6.410955 -1.37396
		endloop
	endfacet
	facet normal 0.9152666894679927 -0.029768937139693787 -0.40174705665614274
		outer loop
			vertex 3.130964 6.2551961 -1.409474
			vertex 3.106379 6.2203379 -1.462901
			vertex 2.9338961 6.4980168 -1.87643
		endloop
	endfacet
	facet normal 0.8714663945771927 -0.15275396346625286 -0.46606067176707733
		outer loop
			vertex 3.106379 6.2203379 -1.462901
			vertex 2.9195819 6.4530339 -1.8884521
			vertex 2.9338961 6.4980168 -1.87643
		endloop
	endfacet
	facet normal 0.8999986473519702 -0.06559985023551558 -0.4309281777903392
		outer loop
			vertex 3.106379 6.2203379 -1.462901
			vertex 3.088922 6.165781 -1.491055
			vertex 2.9195819 6.4530339 -1.8884521
		endloop
	endfacet
	facet normal 0.8973504291293825 -0.07310154959940841 -0.4352222085182221
		outer loop
			vertex 3.088922 6.165781 -1.491055
			vertex 2.8995891 6.3985538 -1.920523
			vertex 2.9195819 6.4530339 -1.8884521
		endloop
	endfacet
	facet normal -0.3287400268549271 -0.8834279472075337 -0.333893780768832
		outer loop
			vertex 2.8995891 6.3985538 -1.920523
			vertex 3.088922 6.165781 -1.491055
			vertex 2.640327 6.4608488 -1.830085
		endloop
	endfacet
	facet normal -0.3686763941694704 -0.8854826878554025 -0.2828393994664978
		outer loop
			vertex 3.088922 6.165781 -1.491055
			vertex 2.696825 6.308001 -1.42521
			vertex 2.640327 6.4608488 -1.830085
		endloop
	endfacet
	facet normal -0.03140452489666244 -0.9365309753314516 -0.3491754402313184
		outer loop
			vertex 2.640327 6.4608488 -1.830085
			vertex 2.696825 6.308001 -1.42521
			vertex 2.3476901 6.4493551 -1.772938
		endloop
	endfacet
	facet normal -0.1036491432154889 -0.9533603995380898 -0.2834798118090053
		outer loop
			vertex 2.696825 6.308001 -1.42521
			vertex 2.3226171 6.3417001 -1.40172
			vertex 2.3476901 6.4493551 -1.772938
		endloop
	endfacet
	facet normal 0.5044075264482237 -0.8378145957262204 -0.20890129355869128
		outer loop
			vertex 2.3476901 6.4493551 -1.772938
			vertex 2.3226171 6.3417001 -1.40172
			vertex 2.1699891 6.347456 -1.793336
		endloop
	endfacet
	facet normal 0.3281550745826263 -0.9339472763192057 -0.1416217923965396
		outer loop
			vertex 2.3226171 6.3417001 -1.40172
			vertex 2.1231229 6.2813201 -1.4657871
			vertex 2.1699891 6.347456 -1.793336
		endloop
	endfacet
	facet normal -0.9902914769777756 0.03307500972558602 -0.13501420057471003
		outer loop
			vertex 2.1231229 6.2813201 -1.4657871
			vertex 2.1132231 6.342236 -1.378252
			vertex 2.1699891 6.347456 -1.793336
		endloop
	endfacet
	facet normal -0.9821794680337812 0.13314820976930966 -0.13264632225624176
		outer loop
			vertex 2.1132231 6.342236 -1.378252
			vertex 2.1841481 6.465435 -1.7797509
			vertex 2.1699891 6.347456 -1.793336
		endloop
	endfacet
	facet normal -0.8437701315355866 -0.45287770746447864 -0.2880169217426945
		outer loop
			vertex 2.1132231 6.342236 -1.378252
			vertex 2.07795 6.3901472 -1.350252
			vertex 2.1841481 6.465435 -1.7797509
		endloop
	endfacet
	facet normal -0.9145503684904668 -0.2940905609998569 -0.27768393080036363
		outer loop
			vertex 2.07795 6.3901472 -1.350252
			vertex 2.165853 6.517715 -1.774865
			vertex 2.1841481 6.465435 -1.7797509
		endloop
	endfacet
	facet normal -0.28004822590902334 0.9304852631609322 0.23615707951602813
		outer loop
			vertex 2.3578899 6.4710021 -1.336861
			vertex 2.3939021 6.6065331 -1.828163
			vertex 2.07795 6.3901472 -1.350252
		endloop
	endfacet
	facet normal -0.31070132930124905 0.9261232194692344 0.21391696129661447
		outer loop
			vertex 2.3939021 6.6065331 -1.828163
			vertex 2.165853 6.517715 -1.774865
			vertex 2.07795 6.3901472 -1.350252
		endloop
	endfacet
	facet normal -0.09936535886775874 0.7974984615683549 0.5950821197559116
		outer loop
			vertex 2.523859 6.807683 -2.2129331
			vertex 2.357007 6.9714031 -2.4602029
			vertex 2.3262761 6.735065 -2.1486061
		endloop
	endfacet
	facet normal -0.1676191778547415 0.79336441955924 0.5852150963472582
		outer loop
			vertex 2.357007 6.9714031 -2.4602029
			vertex 2.204221 6.9528461 -2.478807
			vertex 2.3262761 6.735065 -2.1486061
		endloop
	endfacet
	facet normal 0.3942698296891063 0.8432435987140574 0.36536493349073507
		outer loop
			vertex 2.647969 6.7829161 -2.289701
			vertex 2.469795 6.9592891 -2.5044911
			vertex 2.523859 6.807683 -2.2129331
		endloop
	endfacet
	facet normal 0.2545721913316148 0.8765081456210014 0.40856635943338887
		outer loop
			vertex 2.469795 6.9592891 -2.5044911
			vertex 2.357007 6.9714031 -2.4602029
			vertex 2.523859 6.807683 -2.2129331
		endloop
	endfacet
	facet normal 0.5241596616417531 -0.3915116436251808 -0.7562904746283089
		outer loop
			vertex 2.647969 6.7829161 -2.289701
			vertex 2.643028 6.757834 -2.2801411
			vertex 2.469795 6.9592891 -2.5044911
		endloop
	endfacet
	facet normal 0.5766654560685749 -0.33429502354937957 -0.7454554238902166
		outer loop
			vertex 2.643028 6.757834 -2.2801411
			vertex 2.464067 6.9465871 -2.503226
			vertex 2.469795 6.9592891 -2.5044911
		endloop
	endfacet
	facet normal 0.5273826609011252 -0.39130290061407075 -0.7541548706677322
		outer loop
			vertex 2.643028 6.757834 -2.2801411
			vertex 2.6270061 6.6764669 -2.2491269
			vertex 2.464067 6.9465871 -2.503226
		endloop
	endfacet
	facet normal 0.6029913306669087 -0.3226041654963658 -0.729608119160515
		outer loop
			vertex 2.6270061 6.6764669 -2.2491269
			vertex 2.445725 6.9039311 -2.4995241
			vertex 2.464067 6.9465871 -2.503226
		endloop
	endfacet
	facet normal 0.25079390277857977 -0.7083232818574458 -0.6598337265613102
		outer loop
			vertex 2.3193231 6.8412571 -2.480288
			vertex 2.445725 6.9039311 -2.4995241
			vertex 2.4927781 6.6167579 -2.173363
		endloop
	endfacet
	facet normal -0.036286404963703424 -0.7526369254011647 -0.657435133939077
		outer loop
			vertex 2.445725 6.9039311 -2.4995241
			vertex 2.6270061 6.6764669 -2.2491269
			vertex 2.4927781 6.6167579 -2.173363
		endloop
	endfacet
	facet normal 0.1272071073742142 -0.8143771490042729 -0.5662227574136853
		outer loop
			vertex 2.239655 6.8132329 -2.45788
			vertex 2.3193231 6.8412571 -2.480288
			vertex 2.295223 6.5885229 -2.1222041
		endloop
	endfacet
	facet normal -0.03307502900477571 -0.8155040090189166 -0.5778055501034998
		outer loop
			vertex 2.3193231 6.8412571 -2.480288
			vertex 2.4927781 6.6167579 -2.173363
			vertex 2.295223 6.5885229 -2.1222041
		endloop
	endfacet
	facet normal 0.7360845933805681 -0.5652025254634733 -0.3724588253719806
		outer loop
			vertex 2.1983039 6.7691512 -2.472708
			vertex 2.239655 6.8132329 -2.45788
			vertex 2.210149 6.56429 -2.1384239
		endloop
	endfacet
	facet normal 0.32392114922719145 -0.7605267448812361 -0.5627380913033051
		outer loop
			vertex 2.239655 6.8132329 -2.45788
			vertex 2.295223 6.5885229 -2.1222041
			vertex 2.210149 6.56429 -2.1384239
		endloop
	endfacet
	facet normal -0.9993022272982907 0.002973731177668506 0.0372319142612691
		outer loop
			vertex 2.210149 6.56429 -2.1384239
			vertex 2.211024 6.603941 -2.1181059
			vertex 2.1983039 6.7691512 -2.472708
		endloop
	endfacet
	facet normal -0.9562329202942063 -0.2768619362457395 -0.09468933627328033
		outer loop
			vertex 2.211024 6.603941 -2.1181059
			vertex 2.185771 6.8073082 -2.45771
			vertex 2.1983039 6.7691512 -2.472708
		endloop
	endfacet
	facet normal -0.9507656216615332 -0.29190290546316894 -0.10410296080668763
		outer loop
			vertex 2.211024 6.603941 -2.1181059
			vertex 2.194036 6.6507649 -2.094249
			vertex 2.185771 6.8073082 -2.45771
		endloop
	endfacet
	facet normal -0.9568685995395084 -0.27409789161086895 -0.09629552964585827
		outer loop
			vertex 2.194036 6.6507649 -2.094249
			vertex 2.170325 6.853251 -2.434999
			vertex 2.185771 6.8073082 -2.45771
		endloop
	endfacet
	facet normal -0.24357173097475454 0.7658289076560786 0.5951293103757025
		outer loop
			vertex 2.3262761 6.735065 -2.1486061
			vertex 2.204221 6.9528461 -2.478807
			vertex 2.194036 6.6507649 -2.094249
		endloop
	endfacet
	facet normal -0.848904163623834 0.42633279466276636 0.3124132986560501
		outer loop
			vertex 2.204221 6.9528461 -2.478807
			vertex 2.170325 6.853251 -2.434999
			vertex 2.194036 6.6507649 -2.094249
		endloop
	endfacet
	facet normal 0.6997058575650875 -0.4776535993880484 -0.5312802950239612
		outer loop
			vertex 2.1422491 7.0105672 -2.763581
			vertex 2.239655 6.8132329 -2.45788
			vertex 2.1983039 6.7691512 -2.472708
		endloop
	endfacet
	facet normal 0.1272066841366269 -0.8143766247478964 -0.5662236065152957
		outer loop
			vertex 2.1422491 7.0105672 -2.763581
			vertex 2.3193231 6.8412571 -2.480288
			vertex 2.239655 6.8132329 -2.45788
		endloop
	endfacet
	facet normal 0.5046974133393204 -0.42475743552877016 -0.751572778865508
		outer loop
			vertex 2.259325 7.1380572 -2.757014
			vertex 2.445725 6.9039311 -2.4995241
			vertex 2.1422491 7.0105672 -2.763581
		endloop
	endfacet
	facet normal 0.27378558038120515 -0.7405380424129723 -0.6137139917864751
		outer loop
			vertex 2.445725 6.9039311 -2.4995241
			vertex 2.3193231 6.8412571 -2.480288
			vertex 2.1422491 7.0105672 -2.763581
		endloop
	endfacet
	facet normal 0.602874008110881 -0.32256368359694976 -0.7297229613823923
		outer loop
			vertex 2.464067 6.9465871 -2.503226
			vertex 2.445725 6.9039311 -2.4995241
			vertex 2.259325 7.1380572 -2.757014
		endloop
	endfacet
	facet normal 0.5730550830025263 -0.3330011399443895 -0.7488111328236947
		outer loop
			vertex 2.469795 6.9592891 -2.5044911
			vertex 2.464067 6.9465871 -2.503226
			vertex 2.270576 7.156496 -2.7446499
		endloop
	endfacet
	facet normal 0.7646954200588088 -0.035150027128787516 -0.6434325062770204
		outer loop
			vertex 2.464067 6.9465871 -2.503226
			vertex 2.259325 7.1380572 -2.757014
			vertex 2.270576 7.156496 -2.7446499
		endloop
	endfacet
	facet normal 0.2545708293155454 0.8765104520897492 0.40856225992989037
		outer loop
			vertex 2.357007 6.9714031 -2.4602029
			vertex 2.469795 6.9592891 -2.5044911
			vertex 2.176465 7.1485562 -2.7277651
		endloop
	endfacet
	facet normal 0.0432622838320505 0.7894107892383361 0.612338942605925
		outer loop
			vertex 2.469795 6.9592891 -2.5044911
			vertex 2.270576 7.156496 -2.7446499
			vertex 2.176465 7.1485562 -2.7277651
		endloop
	endfacet
	facet normal -0.16761935262080804 0.7933602729529764 0.5852206677202714
		outer loop
			vertex 2.204221 6.9528461 -2.478807
			vertex 2.357007 6.9714031 -2.4602029
			vertex 2.1178041 7.1070518 -2.7126091
		endloop
	endfacet
	facet normal -0.311532499066978 0.6819515677342531 0.6617322428972899
		outer loop
			vertex 2.357007 6.9714031 -2.4602029
			vertex 2.176465 7.1485562 -2.7277651
			vertex 2.1178041 7.1070518 -2.7126091
		endloop
	endfacet
	facet normal -0.6738537643822262 0.4773899885822909 0.5639325341113984
		outer loop
			vertex 2.170325 6.853251 -2.434999
			vertex 2.204221 6.9528461 -2.478807
			vertex 2.1178041 7.1070518 -2.7126091
		endloop
	endfacet
	facet normal 0.010326577684326049 0.9500962070412162 -0.31178607916201756
		outer loop
			vertex 2.176465 7.1485562 -2.7277651
			vertex 2.259325 7.1380572 -2.757014
			vertex 2.153486 7.118382 -2.8204751
		endloop
	endfacet
	facet normal -0.8301016176315782 0.5570764123067711 0.024437169575334886
		outer loop
			vertex 2.1256521 7.073781 -2.749223
			vertex 2.176465 7.1485562 -2.7277651
			vertex 2.153486 7.118382 -2.8204751
		endloop
	endfacet
	facet normal 0.4435297490009777 -0.1861213482618094 0.8767212815212918
		outer loop
			vertex -2.008714 5.6050758 0.960717
			vertex -2.0132191 5.6992331 0.982985
			vertex -2.4409361 5.281549 1.1106941
		endloop
	endfacet
	facet normal 0.3945600650626179 -0.12573068785876063 0.9102275260550771
		outer loop
			vertex -2.0132191 5.6992331 0.982985
			vertex -2.459959 5.38309 1.132966
			vertex -2.4409361 5.281549 1.1106941
		endloop
	endfacet
	facet normal 0.2589748731261773 -0.27513340149387466 0.9258691195151131
		outer loop
			vertex -1.5705301 5.8205891 0.902195
			vertex -1.571691 5.9153228 0.930671
			vertex -2.008714 5.6050758 0.960717
		endloop
	endfacet
	facet normal 0.2178968182640318 -0.21473358058413217 0.952055915353678
		outer loop
			vertex -1.571691 5.9153228 0.930671
			vertex -2.0132191 5.6992331 0.982985
			vertex -2.008714 5.6050758 0.960717
		endloop
	endfacet
	facet normal 0.013712245514494611 -0.08808634103292758 0.9960184590891784
		outer loop
			vertex -1.3117369 5.7687092 0.894044
			vertex -1.280297 5.8304791 0.899074
			vertex -1.5705301 5.8205891 0.902195
		endloop
	endfacet
	facet normal 0.02009655698914805 -0.28758218196852187 0.957545099204944
		outer loop
			vertex -1.280297 5.8304791 0.899074
			vertex -1.571691 5.9153228 0.930671
			vertex -1.5705301 5.8205891 0.902195
		endloop
	endfacet
	facet normal 0.3788814373540834 -0.09886856375341503 0.9201488268371811
		outer loop
			vertex -2.0132191 5.6992331 0.982985
			vertex -2.010138 5.7973981 0.992264
			vertex -2.459959 5.38309 1.132966
		endloop
	endfacet
	facet normal 0.4087116622515706 -0.13732654968262992 0.9022727946091593
		outer loop
			vertex -2.010138 5.7973981 0.992264
			vertex -2.468097 5.4691911 1.149757
			vertex -2.459959 5.38309 1.132966
		endloop
	endfacet
	facet normal 0.22540644259463416 -0.23145360612276547 0.9463726347742731
		outer loop
			vertex -1.571691 5.9153228 0.930671
			vertex -1.594402 5.9572811 0.946342
			vertex -2.0132191 5.6992331 0.982985
		endloop
	endfacet
	facet normal 0.1462887984254619 -0.09764256549705723 0.9844112539271316
		outer loop
			vertex -1.594402 5.9572811 0.946342
			vertex -2.010138 5.7973981 0.992264
			vertex -2.0132191 5.6992331 0.982985
		endloop
	endfacet
	facet normal 0.09915905495580553 -0.029852207684093846 0.9946237115194154
		outer loop
			vertex -1.280297 5.8304791 0.899074
			vertex -1.255777 5.8866711 0.898316
			vertex -1.571691 5.9153228 0.930671
		endloop
	endfacet
	facet normal 0.06820055604800765 -0.3164622497387009 0.9461502674760828
		outer loop
			vertex -1.255777 5.8866711 0.898316
			vertex -1.594402 5.9572811 0.946342
			vertex -1.571691 5.9153228 0.930671
		endloop
	endfacet
	facet normal -0.4752895743408215 0.8182994363907218 0.3232427151933175
		outer loop
			vertex -2.468097 5.4691911 1.149757
			vertex -2.010138 5.7973981 0.992264
			vertex -2.7887549 5.446939 0.7346
		endloop
	endfacet
	facet normal -0.48370540599202594 0.773381086748345 0.40976917267412694
		outer loop
			vertex -2.010138 5.7973981 0.992264
			vertex -2.1756001 5.8999891 0.603321
			vertex -2.7887549 5.446939 0.7346
		endloop
	endfacet
	facet normal -0.29984965908440747 0.8832370735069373 0.3605307947039557
		outer loop
			vertex -2.010138 5.7973981 0.992264
			vertex -1.594402 5.9572811 0.946342
			vertex -2.1756001 5.8999891 0.603321
		endloop
	endfacet
	facet normal -0.2566365534364882 0.9249565474167241 0.28034454664069
		outer loop
			vertex -1.594402 5.9572811 0.946342
			vertex -1.8974971 6.0025711 0.519451
			vertex -2.1756001 5.8999891 0.603321
		endloop
	endfacet
	facet normal 0.1989103161861236 0.9793064574900334 -0.037330261625898635
		outer loop
			vertex -1.594402 5.9572811 0.946342
			vertex -1.255777 5.8866711 0.898316
			vertex -1.8974971 6.0025711 0.519451
		endloop
	endfacet
	facet normal 0.1704269903381698 0.9852878863407512 0.01274448878725561
		outer loop
			vertex -1.255777 5.8866711 0.898316
			vertex -1.5945801 5.9534059 0.269668
			vertex -1.8974971 6.0025711 0.519451
		endloop
	endfacet
	facet normal -0.4806646979559817 0.7713779315496866 0.4170581912119841
		outer loop
			vertex -2.7887549 5.446939 0.7346
			vertex -2.1756001 5.8999891 0.603321
			vertex -3.068706 5.608655 0.112848
		endloop
	endfacet
	facet normal -0.47464394884382416 0.7850740183141814 0.3979596808647403
		outer loop
			vertex -2.1756001 5.8999891 0.603321
			vertex -2.484468 6.0393882 -0.040063
			vertex -3.068706 5.608655 0.112848
		endloop
	endfacet
	facet normal -0.24319284364179924 0.9172391499759932 0.31548309392538465
		outer loop
			vertex -2.1756001 5.8999891 0.603321
			vertex -1.8974971 6.0025711 0.519451
			vertex -2.484468 6.0393882 -0.040063
		endloop
	endfacet
	facet normal -0.16067599051088555 0.9594277354053866 0.23169300077524424
		outer loop
			vertex -1.8974971 6.0025711 0.519451
			vertex -2.164063 6.1161561 -0.135758
			vertex -2.484468 6.0393882 -0.040063
		endloop
	endfacet
	facet normal 0.2221458436451642 0.9718801245969134 0.0781040816133606
		outer loop
			vertex -1.8974971 6.0025711 0.519451
			vertex -1.5945801 5.9534059 0.269668
			vertex -2.164063 6.1161561 -0.135758
		endloop
	endfacet
	facet normal 0.2828128595417966 0.9590969613437577 -0.012243578682831699
		outer loop
			vertex -1.5945801 5.9534059 0.269668
			vertex -1.835272 6.0188842 -0.160821
			vertex -2.164063 6.1161561 -0.135758
		endloop
	endfacet
	facet normal -0.41532188250051566 0.8516197659369158 0.3197678973596016
		outer loop
			vertex -3.3343229 5.8204479 -0.590039
			vertex -2.799576 6.1156468 -0.681684
			vertex -3.3301089 6.1301861 -1.409474
		endloop
	endfacet
	facet normal -0.3611179429583051 0.889173662764258 0.28100538912973877
		outer loop
			vertex -2.799576 6.1156468 -0.681684
			vertex -2.9189539 6.285944 -1.37396
			vertex -3.3301089 6.1301861 -1.409474
		endloop
	endfacet
	facet normal -0.2038111806211125 0.9419380885068398 0.26685883922761366
		outer loop
			vertex -2.799576 6.1156468 -0.681684
			vertex -2.460254 6.2203851 -0.792227
			vertex -2.9189539 6.285944 -1.37396
		endloop
	endfacet
	facet normal -0.18346598559565735 0.9502425763837573 0.25175241440147744
		outer loop
			vertex -2.460254 6.2203851 -0.792227
			vertex -2.557039 6.3459911 -1.336861
			vertex -2.9189539 6.285944 -1.37396
		endloop
	endfacet
	facet normal 0.27787382828149226 0.9456850867155762 0.1687182631487801
		outer loop
			vertex -2.460254 6.2203851 -0.792227
			vertex -2.183784 6.16014 -0.909884
			vertex -2.557039 6.3459911 -1.336861
		endloop
	endfacet
	facet normal 0.2809617649120294 0.9452812112479876 0.16584305327343438
		outer loop
			vertex -2.183784 6.16014 -0.909884
			vertex -2.2770979 6.2651348 -1.350252
			vertex -2.557039 6.3459911 -1.336861
		endloop
	endfacet
	facet normal -0.3960583761615678 0.8608693282110974 0.3194397633633547
		outer loop
			vertex -3.133044 6.3730092 -1.87643
			vertex -2.9243691 6.4762192 -1.895848
			vertex -2.8471191 6.6579051 -2.289701
		endloop
	endfacet
	facet normal -0.375151080905536 0.8675188286708395 0.3266079429483956
		outer loop
			vertex -2.9243691 6.4762192 -1.895848
			vertex -2.7230101 6.682673 -2.2129331
			vertex -2.8471191 6.6579051 -2.289701
		endloop
	endfacet
	facet normal -0.11398806534507887 0.8641058166269138 0.4902324536690942
		outer loop
			vertex -2.9243691 6.4762192 -1.895848
			vertex -2.5930531 6.4815249 -1.828163
			vertex -2.7230101 6.682673 -2.2129331
		endloop
	endfacet
	facet normal 0.19833303521721363 0.8945116340233896 0.4006406666057912
		outer loop
			vertex -2.5930531 6.4815249 -1.828163
			vertex -2.5254221 6.6100521 -2.1486061
			vertex -2.7230101 6.682673 -2.2129331
		endloop
	endfacet
	facet normal 0.2479970046951821 0.8799174086231825 0.40526884862283885
		outer loop
			vertex -2.5930531 6.4815249 -1.828163
			vertex -2.3649991 6.3927021 -1.774865
			vertex -2.5254221 6.6100521 -2.1486061
		endloop
	endfacet
	facet normal 0.4127467468718603 0.8531612156092216 0.31899226186052204
		outer loop
			vertex -2.3649991 6.3927021 -1.774865
			vertex -2.393187 6.5257549 -2.094249
			vertex -2.5254221 6.6100521 -2.1486061
		endloop
	endfacet
	facet normal -0.011385907594949531 0.9500144214411628 -0.31199833358858203
		outer loop
			vertex -2.375612 7.023541 -2.7277651
			vertex -2.352634 6.9933691 -2.8204751
			vertex -2.4583941 7.0129142 -2.757102
		endloop
	endfacet
	facet normal 0.83008064734655 0.5571081260754057 0.024426517588116085
		outer loop
			vertex -2.375612 7.023541 -2.7277651
			vertex -2.3248 6.9487729 -2.749223
			vertex -2.352634 6.9933691 -2.8204751
		endloop
	endfacet
	facet normal 0.9559633222775599 -0.282974371065526 -0.0778436367349343
		outer loop
			vertex -2.369472 6.7282391 -2.434999
			vertex -2.380996 6.6939688 -2.451942
			vertex -2.316951 6.9820371 -2.7126091
		endloop
	endfacet
	facet normal 0.9748570959183972 -0.2227324095701728 -0.006626934782676868
		outer loop
			vertex -2.380996 6.6939688 -2.451942
			vertex -2.3248 6.9487729 -2.749223
			vertex -2.316951 6.9820371 -2.7126091
		endloop
	endfacet
	facet normal -0.5078129024087693 -0.5194090527751983 -0.6872701739798934
		outer loop
			vertex -2.352634 6.9933691 -2.8204751
			vertex -2.361855 6.9189472 -2.757417
			vertex -2.4583941 7.0129142 -2.757102
		endloop
	endfacet
	facet normal 0.5840348812020303 -0.5656524493957056 -0.5821860218452254
		outer loop
			vertex -2.3248 6.9487729 -2.749223
			vertex -2.361855 6.9189472 -2.757417
			vertex -2.352634 6.9933691 -2.8204751
		endloop
	endfacet
	facet normal 0.8698292144618986 -0.4436405552031754 -0.21582445516580043
		outer loop
			vertex -2.380996 6.6939688 -2.451942
			vertex -2.3942411 6.6747141 -2.465744
			vertex -2.3248 6.9487729 -2.749223
		endloop
	endfacet
	facet normal 0.6152674637948499 -0.6366981203731606 -0.4648241081406358
		outer loop
			vertex -2.3942411 6.6747141 -2.465744
			vertex -2.361855 6.9189472 -2.757417
			vertex -2.3248 6.9487729 -2.749223
		endloop
	endfacet
	facet normal -0.03410587610028629 -0.7489746577198951 -0.6617202968844147
		outer loop
			vertex -2.807548 6.5704231 -2.271553
			vertex -2.6816289 6.5048389 -2.2038109
			vertex -3.0987339 6.2735472 -1.920523
		endloop
	endfacet
	facet normal 0.3162903535380827 -0.9077867652080339 -0.27546978268385247
		outer loop
			vertex -2.6816289 6.5048389 -2.2038109
			vertex -2.836226 6.3446341 -1.853376
			vertex -3.0987339 6.2735472 -1.920523
		endloop
	endfacet
	facet normal -0.020573052645812207 -0.9058132087352263 -0.42317748095288116
		outer loop
			vertex -2.6816289 6.5048389 -2.2038109
			vertex -2.492733 6.4686151 -2.135457
			vertex -2.836226 6.3446341 -1.853376
		endloop
	endfacet
	facet normal 0.03499936774352061 -0.9299169193753516 -0.3661004880043319
		outer loop
			vertex -2.492733 6.4686151 -2.135457
			vertex -2.5471599 6.325727 -1.777716
			vertex -2.836226 6.3446341 -1.853376
		endloop
	endfacet
	facet normal 0.1859538922333153 -0.9218847375038772 -0.3399259930053716
		outer loop
			vertex -2.492733 6.4686151 -2.135457
			vertex -2.4218421 6.4781041 -2.122411
			vertex -2.5471599 6.325727 -1.777716
		endloop
	endfacet
	facet normal -0.46831586074832293 -0.7325082774117434 -0.49407679372222874
		outer loop
			vertex -2.4218421 6.4781041 -2.122411
			vertex -2.3691339 6.222445 -1.793336
			vertex -2.5471599 6.325727 -1.777716
		endloop
	endfacet
	facet normal 0.3703240090058771 -0.8688760599007918 -0.3285034564279207
		outer loop
			vertex -3.2880671 6.040771 -1.491055
			vertex -2.8959751 6.1829901 -1.42521
			vertex -3.3162 5.7149272 -0.660928
		endloop
	endfacet
	facet normal 0.431523972723942 -0.8553698525973477 -0.286582407401673
		outer loop
			vertex -2.8959751 6.1829901 -1.42521
			vertex -2.762733 6.0354581 -0.784237
			vertex -3.3162 5.7149272 -0.660928
		endloop
	endfacet
	facet normal 0.10213700170797768 -0.9645721090959873 -0.2432461289234082
		outer loop
			vertex -2.8959751 6.1829901 -1.42521
			vertex -2.521764 6.216691 -1.40172
			vertex -2.762733 6.0354581 -0.784237
		endloop
	endfacet
	facet normal 0.15595273993032263 -0.9625728251994209 -0.22165806796918225
		outer loop
			vertex -2.521764 6.216691 -1.40172
			vertex -2.425343 6.1063609 -0.854761
			vertex -2.762733 6.0354581 -0.784237
		endloop
	endfacet
	facet normal -0.3256217211547701 -0.9363156195412504 -0.1314669362056088
		outer loop
			vertex -2.521764 6.216691 -1.40172
			vertex -2.3222711 6.1563091 -1.4657871
			vertex -2.425343 6.1063609 -0.854761
		endloop
	endfacet
	facet normal -0.2970712609304584 -0.9463089538430031 -0.12746775986793116
		outer loop
			vertex -2.3222711 6.1563091 -1.4657871
			vertex -2.2457371 6.056777 -0.905237
			vertex -2.425343 6.1063609 -0.854761
		endloop
	endfacet
	facet normal 0.45042322329812634 -0.8075693016630291 -0.38072397209161085
		outer loop
			vertex -3.0453579 5.4970222 0.037321
			vertex -2.4264791 5.925056 -0.138422
			vertex -2.7536261 5.3592262 0.674745
		endloop
	endfacet
	facet normal 0.43533533822119014 -0.8116006589820448 -0.3895991704762128
		outer loop
			vertex -2.4264791 5.925056 -0.138422
			vertex -2.1009099 5.792995 0.500472
			vertex -2.7536261 5.3592262 0.674745
		endloop
	endfacet
	facet normal 0.20770549381850717 -0.9315662926403204 -0.2984001847418649
		outer loop
			vertex -2.4264791 5.925056 -0.138422
			vertex -2.1378901 6.016829 -0.224049
			vertex -2.1009099 5.792995 0.500472
		endloop
	endfacet
	facet normal 0.2212602127980339 -0.9285202768164276 -0.2981509915685565
		outer loop
			vertex -2.1378901 6.016829 -0.224049
			vertex -1.8248039 5.8834429 0.423694
			vertex -2.1009099 5.792995 0.500472
		endloop
	endfacet
	facet normal -0.4394231503696317 -0.8978590282003426 0.027503825158778635
		outer loop
			vertex -2.1378901 6.016829 -0.224049
			vertex -1.917336 5.9091091 -0.216803
			vertex -1.8248039 5.8834429 0.423694
		endloop
	endfacet
	facet normal -0.27278500533735356 -0.9620746370810043 0.0008564744911032597
		outer loop
			vertex -1.917336 5.9091091 -0.216803
			vertex -1.653646 5.8347902 0.285663
			vertex -1.8248039 5.8834429 0.423694
		endloop
	endfacet
	facet normal 0.4132405459214427 -0.7980386425855193 -0.4385961424212596
		outer loop
			vertex -2.7536261 5.3592262 0.674745
			vertex -2.1009099 5.792995 0.500472
			vertex -2.4409361 5.281549 1.1106941
		endloop
	endfacet
	facet normal 0.4493595366204732 -0.7919583338763994 -0.41337392788122373
		outer loop
			vertex -2.1009099 5.792995 0.500472
			vertex -2.008714 5.6050758 0.960717
			vertex -2.4409361 5.281549 1.1106941
		endloop
	endfacet
	facet normal 0.18188307206797857 -0.8970738238547133 -0.4027121833888282
		outer loop
			vertex -2.1009099 5.792995 0.500472
			vertex -1.8248039 5.8834429 0.423694
			vertex -2.008714 5.6050758 0.960717
		endloop
	endfacet
	facet normal 0.3839233192340105 -0.8669190724588693 -0.3178902432529092
		outer loop
			vertex -1.8248039 5.8834429 0.423694
			vertex -1.5705301 5.8205891 0.902195
			vertex -2.008714 5.6050758 0.960717
		endloop
	endfacet
	facet normal -0.2634616459263074 -0.964578185128914 0.013299845834138058
		outer loop
			vertex -1.8248039 5.8834429 0.423694
			vertex -1.653646 5.8347902 0.285663
			vertex -1.5705301 5.8205891 0.902195
		endloop
	endfacet
	facet normal -0.1964383601936923 -0.9805084299268435 0.003897369216503735
		outer loop
			vertex -1.653646 5.8347902 0.285663
			vertex -1.3117369 5.7687092 0.894044
			vertex -1.5705301 5.8205891 0.902195
		endloop
	endfacet
	facet normal 0.9901836669025728 0.12583956865839332 -0.060833450989109306
		outer loop
			vertex -2.3691339 6.222445 -1.793336
			vertex -2.4218421 6.4781041 -2.122411
			vertex -2.3832929 6.3404241 -1.7797509
		endloop
	endfacet
	facet normal 0.7514152565704685 -0.5786702336856858 -0.3170423833484902
		outer loop
			vertex -2.4218421 6.4781041 -2.122411
			vertex -2.4047971 6.4937439 -2.110559
			vertex -2.3832929 6.3404241 -1.7797509
		endloop
	endfacet
	facet normal 0.8897823426797792 -0.412736570114485 -0.19477142076140194
		outer loop
			vertex -2.2457371 6.056777 -0.905237
			vertex -2.3222711 6.1563091 -1.4657871
			vertex -2.2202721 6.1154981 -0.913339
		endloop
	endfacet
	facet normal 0.9804715259734714 0.09108367217233551 -0.1742967338157976
		outer loop
			vertex -2.3222711 6.1563091 -1.4657871
			vertex -2.3123691 6.2172251 -1.378252
			vertex -2.2202721 6.1154981 -0.913339
		endloop
	endfacet
	facet normal 0.7989885662558371 -0.37001601167829173 -0.47403103494827453
		outer loop
			vertex -1.653646 5.8347902 0.285663
			vertex -1.917336 5.9091091 -0.216803
			vertex -1.630414 5.89748 0.275887
		endloop
	endfacet
	facet normal 0.7201676673891099 -0.5427308512899294 -0.432205684721334
		outer loop
			vertex -1.917336 5.9091091 -0.216803
			vertex -1.866657 5.9493532 -0.182894
			vertex -1.630414 5.89748 0.275887
		endloop
	endfacet
	facet normal 0.7942481038607347 -0.36468594297038665 -0.4859774814880087
		outer loop
			vertex -1.3117369 5.7687092 0.894044
			vertex -1.653646 5.8347902 0.285663
			vertex -1.280297 5.8304791 0.899074
		endloop
	endfacet
	facet normal 0.7926500630462037 -0.3693834780823903 -0.4850378579787416
		outer loop
			vertex -1.653646 5.8347902 0.285663
			vertex -1.630414 5.89748 0.275887
			vertex -1.280297 5.8304791 0.899074
		endloop
	endfacet
	facet normal 0.9300648337396332 -0.30653220588532015 -0.20252755811481138
		outer loop
			vertex -2.3832929 6.3404241 -1.7797509
			vertex -2.4047971 6.4937439 -2.110559
			vertex -2.3649991 6.3927021 -1.774865
		endloop
	endfacet
	facet normal 0.9501533940200966 -0.2490272571809407 -0.1876005144263442
		outer loop
			vertex -2.4047971 6.4937439 -2.110559
			vertex -2.393187 6.5257549 -2.094249
			vertex -2.3649991 6.3927021 -1.774865
		endloop
	endfacet
	facet normal 0.7539109194051391 -0.5945824769862096 -0.27944588682362437
		outer loop
			vertex -2.2202721 6.1154981 -0.913339
			vertex -2.3123691 6.2172251 -1.378252
			vertex -2.183784 6.16014 -0.909884
		endloop
	endfacet
	facet normal 0.8437984266122885 -0.45351449412523615 -0.28692998948342396
		outer loop
			vertex -2.3123691 6.2172251 -1.378252
			vertex -2.2770979 6.2651348 -1.350252
			vertex -2.183784 6.16014 -0.909884
		endloop
	endfacet
	facet normal 0.7345098517080042 -0.5192162178675861 -0.4369322565880954
		outer loop
			vertex -1.630414 5.89748 0.275887
			vertex -1.866657 5.9493532 -0.182894
			vertex -1.5945801 5.9534059 0.269668
		endloop
	endfacet
	facet normal 0.8371534454016649 -0.21872496793101162 -0.5013317237675066
		outer loop
			vertex -1.866657 5.9493532 -0.182894
			vertex -1.835272 6.0188842 -0.160821
			vertex -1.5945801 5.9534059 0.269668
		endloop
	endfacet
	facet normal 0.7982682745724138 -0.35489765128549733 -0.4866368450119855
		outer loop
			vertex -1.280297 5.8304791 0.899074
			vertex -1.630414 5.89748 0.275887
			vertex -1.255777 5.8866711 0.898316
		endloop
	endfacet
	facet normal 0.729327226706089 -0.517121655843854 -0.44795869166979635
		outer loop
			vertex -1.630414 5.89748 0.275887
			vertex -1.5945801 5.9534059 0.269668
			vertex -1.255777 5.8866711 0.898316
		endloop
	endfacet
	facet normal -0.7941105156050161 0.06428191316454279 -0.6043643972351797
		outer loop
			vertex -3.0987339 6.2735472 -1.920523
			vertex -3.118732 6.328023 -1.8884521
			vertex -2.807548 6.5704231 -2.271553
		endloop
	endfacet
	facet normal -0.5670881294385798 -0.40526567809247355 -0.7170570295381674
		outer loop
			vertex -3.118732 6.328023 -1.8884521
			vertex -2.8471191 6.6579051 -2.289701
			vertex -2.807548 6.5704231 -2.271553
		endloop
	endfacet
	facet normal -0.9638253455916138 -0.23537643126913085 -0.12505454329297386
		outer loop
			vertex -3.3162 5.7149272 -0.660928
			vertex -3.3435149 5.8026662 -0.615547
			vertex -3.2880671 6.040771 -1.491055
		endloop
	endfacet
	facet normal -0.9618552218583836 -0.24237906776406 -0.12683422130318323
		outer loop
			vertex -3.3435149 5.8026662 -0.615547
			vertex -3.31317 6.1192069 -1.4505759
			vertex -3.2880671 6.040771 -1.491055
		endloop
	endfacet
	facet normal -0.8190933936807224 -0.5088484284906855 0.26487598843828186
		outer loop
			vertex -2.7536261 5.3592262 0.674745
			vertex -2.7730701 5.4056292 0.703761
			vertex -3.0453579 5.4970222 0.037321
		endloop
	endfacet
	facet normal -0.8340843318908053 -0.4780761651495519 0.2752208342589043
		outer loop
			vertex -2.7730701 5.4056292 0.703761
			vertex -3.0753009 5.5751801 0.082341
			vertex -3.0453579 5.4970222 0.037321
		endloop
	endfacet
	facet normal -0.8049867677946511 -0.2670159029855956 0.5298101652746082
		outer loop
			vertex -2.4409361 5.281549 1.1106941
			vertex -2.459959 5.38309 1.132966
			vertex -2.7536261 5.3592262 0.674745
		endloop
	endfacet
	facet normal -0.6761576148899379 -0.5729542435310157 0.4631784911307434
		outer loop
			vertex -2.459959 5.38309 1.132966
			vertex -2.7730701 5.4056292 0.703761
			vertex -2.7536261 5.3592262 0.674745
		endloop
	endfacet
	facet normal -0.7894162783814209 -0.08882568828569247 -0.6073976757668736
		outer loop
			vertex -3.118732 6.328023 -1.8884521
			vertex -3.133044 6.3730092 -1.87643
			vertex -2.8471191 6.6579051 -2.289701
		endloop
	endfacet
	facet normal -0.9338993018706663 0.3442503616420679 0.09655973526676492
		outer loop
			vertex -3.3435149 5.8026662 -0.615547
			vertex -3.3343229 5.8204479 -0.590039
			vertex -3.31317 6.1192069 -1.4505759
		endloop
	endfacet
	facet normal -0.8283635122042967 -0.5225840649981324 -0.20179144347219002
		outer loop
			vertex -3.3343229 5.8204479 -0.590039
			vertex -3.3301089 6.1301861 -1.409474
			vertex -3.31317 6.1192069 -1.4505759
		endloop
	endfacet
	facet normal -0.821467843290573 -0.5069079379288858 0.2612181557706505
		outer loop
			vertex -2.7730701 5.4056292 0.703761
			vertex -2.7887549 5.446939 0.7346
			vertex -3.0753009 5.5751801 0.082341
		endloop
	endfacet
	facet normal -0.9151252952111244 -0.15781628432939826 0.37099826746929065
		outer loop
			vertex -2.7887549 5.446939 0.7346
			vertex -3.068706 5.608655 0.112848
			vertex -3.0753009 5.5751801 0.082341
		endloop
	endfacet
	facet normal -0.7982599439266119 -0.18709826361509943 0.5725166387752388
		outer loop
			vertex -2.459959 5.38309 1.132966
			vertex -2.468097 5.4691911 1.149757
			vertex -2.7730701 5.4056292 0.703761
		endloop
	endfacet
	facet normal -0.611508137161692 -0.6091534249580232 0.5049652493458809
		outer loop
			vertex -2.468097 5.4691911 1.149757
			vertex -2.7887549 5.446939 0.7346
			vertex -2.7730701 5.4056292 0.703761
		endloop
	endfacet
	facet normal -0.1717315683214562 0.9648327207169808 0.19901278721660517
		outer loop
			vertex -2.484468 6.0393882 -0.040063
			vertex -2.164063 6.1161561 -0.135758
			vertex -2.799576 6.1156468 -0.681684
		endloop
	endfacet
	facet normal -0.2118940830756785 0.9458812160925408 0.2457836906729442
		outer loop
			vertex -2.164063 6.1161561 -0.135758
			vertex -2.460254 6.2203851 -0.792227
			vertex -2.799576 6.1156468 -0.681684
		endloop
	endfacet
	facet normal -0.4682088580819947 0.7814740702275291 0.41240604114825175
		outer loop
			vertex -3.068706 5.608655 0.112848
			vertex -2.484468 6.0393882 -0.040063
			vertex -3.3343229 5.8204479 -0.590039
		endloop
	endfacet
	facet normal -0.418990704945981 0.854401194934045 0.3073196825199231
		outer loop
			vertex -2.484468 6.0393882 -0.040063
			vertex -2.799576 6.1156468 -0.681684
			vertex -3.3343229 5.8204479 -0.590039
		endloop
	endfacet
	facet normal -0.9402818668446388 -0.1087227250964066 0.32256686117884525
		outer loop
			vertex -3.068706 5.608655 0.112848
			vertex -3.3343229 5.8204479 -0.590039
			vertex -3.0753009 5.5751801 0.082341
		endloop
	endfacet
	facet normal -0.9355844104036668 -0.021915649008027685 0.35242235363010166
		outer loop
			vertex -3.3343229 5.8204479 -0.590039
			vertex -3.3435149 5.8026662 -0.615547
			vertex -3.0753009 5.5751801 0.082341
		endloop
	endfacet
	facet normal -0.8748000862795512 -0.4452101906406703 0.1910829537007101
		outer loop
			vertex -3.0753009 5.5751801 0.082341
			vertex -3.3435149 5.8026662 -0.615547
			vertex -3.0453579 5.4970222 0.037321
		endloop
	endfacet
	facet normal -0.8919458626621976 -0.3931660013541354 0.22327801830674754
		outer loop
			vertex -3.3435149 5.8026662 -0.615547
			vertex -3.3162 5.7149272 -0.660928
			vertex -3.0453579 5.4970222 0.037321
		endloop
	endfacet
	facet normal 0.3876624496305265 -0.8264518672432619 -0.40828315698371054
		outer loop
			vertex -3.3162 5.7149272 -0.660928
			vertex -2.762733 6.0354581 -0.784237
			vertex -3.0453579 5.4970222 0.037321
		endloop
	endfacet
	facet normal 0.45324139870561264 -0.809000718862233 -0.3742860822683234
		outer loop
			vertex -2.762733 6.0354581 -0.784237
			vertex -2.4264791 5.925056 -0.138422
			vertex -3.0453579 5.4970222 0.037321
		endloop
	endfacet
	facet normal 0.15075589668017275 -0.9584086558101659 -0.24233346463975686
		outer loop
			vertex -2.762733 6.0354581 -0.784237
			vertex -2.425343 6.1063609 -0.854761
			vertex -2.4264791 5.925056 -0.138422
		endloop
	endfacet
	facet normal 0.22933625610668693 -0.9436798704503228 -0.23848099241203755
		outer loop
			vertex -2.425343 6.1063609 -0.854761
			vertex -2.1378901 6.016829 -0.224049
			vertex -2.4264791 5.925056 -0.138422
		endloop
	endfacet
	facet normal -0.26968424985718403 -0.9628503615565096 -0.013769046062337543
		outer loop
			vertex -2.425343 6.1063609 -0.854761
			vertex -2.2457371 6.056777 -0.905237
			vertex -2.1378901 6.016829 -0.224049
		endloop
	endfacet
	facet normal -0.43924467652155275 -0.8982091183031404 0.016866948288645937
		outer loop
			vertex -2.2457371 6.056777 -0.905237
			vertex -1.917336 5.9091091 -0.216803
			vertex -2.1378901 6.016829 -0.224049
		endloop
	endfacet
	facet normal 0.7202522658342299 -0.5229909922246605 -0.4557599100541019
		outer loop
			vertex -1.917336 5.9091091 -0.216803
			vertex -2.2457371 6.056777 -0.905237
			vertex -1.866657 5.9493532 -0.182894
		endloop
	endfacet
	facet normal 0.7835236363672103 -0.40482275281034186 -0.4713907615354387
		outer loop
			vertex -2.2457371 6.056777 -0.905237
			vertex -2.2202721 6.1154981 -0.913339
			vertex -1.866657 5.9493532 -0.182894
		endloop
	endfacet
	facet normal 0.8523115254578167 -0.23664418564586231 -0.46643819844838635
		outer loop
			vertex -1.866657 5.9493532 -0.182894
			vertex -2.2202721 6.1154981 -0.913339
			vertex -1.835272 6.0188842 -0.160821
		endloop
	endfacet
	facet normal 0.7132396063962843 -0.5492680386158056 -0.43542380001880854
		outer loop
			vertex -2.2202721 6.1154981 -0.913339
			vertex -2.183784 6.16014 -0.909884
			vertex -1.835272 6.0188842 -0.160821
		endloop
	endfacet
	facet normal 0.2852561350806267 0.9581650022481777 0.023425752188844764
		outer loop
			vertex -2.164063 6.1161561 -0.135758
			vertex -1.835272 6.0188842 -0.160821
			vertex -2.460254 6.2203851 -0.792227
		endloop
	endfacet
	facet normal 0.2409139387409207 0.9679861194242584 0.0704510235717075
		outer loop
			vertex -1.835272 6.0188842 -0.160821
			vertex -2.183784 6.16014 -0.909884
			vertex -2.460254 6.2203851 -0.792227
		endloop
	endfacet
	facet normal -0.1876687894991112 0.9221842639097807 0.33816654010282327
		outer loop
			vertex -2.9189539 6.285944 -1.37396
			vertex -2.557039 6.3459911 -1.336861
			vertex -2.9243691 6.4762192 -1.895848
		endloop
	endfacet
	facet normal -0.07055105939063278 0.9602516065671175 0.27007295329989855
		outer loop
			vertex -2.557039 6.3459911 -1.336861
			vertex -2.5930531 6.4815249 -1.828163
			vertex -2.9243691 6.4762192 -1.895848
		endloop
	endfacet
	facet normal -0.36026134028302753 0.8811717891957822 0.30618302471394604
		outer loop
			vertex -3.3301089 6.1301861 -1.409474
			vertex -2.9189539 6.285944 -1.37396
			vertex -3.133044 6.3730092 -1.87643
		endloop
	endfacet
	facet normal -0.3963582573823359 0.8612248459767109 0.31810673755396734
		outer loop
			vertex -2.9189539 6.285944 -1.37396
			vertex -2.9243691 6.4762192 -1.895848
			vertex -3.133044 6.3730092 -1.87643
		endloop
	endfacet
	facet normal -0.9234033786568064 0.011614645925493675 -0.38365518409793475
		outer loop
			vertex -3.3301089 6.1301861 -1.409474
			vertex -3.133044 6.3730092 -1.87643
			vertex -3.31317 6.1192069 -1.4505759
		endloop
	endfacet
	facet normal -0.8735266024355955 -0.15455027354058365 -0.4615901729736626
		outer loop
			vertex -3.133044 6.3730092 -1.87643
			vertex -3.118732 6.328023 -1.8884521
			vertex -3.31317 6.1192069 -1.4505759
		endloop
	endfacet
	facet normal -0.8999902629381991 -0.0656370521583248 -0.4309400236696478
		outer loop
			vertex -3.31317 6.1192069 -1.4505759
			vertex -3.118732 6.328023 -1.8884521
			vertex -3.2880671 6.040771 -1.491055
		endloop
	endfacet
	facet normal -0.8973305406918468 -0.07316994916296331 -0.43525171944653723
		outer loop
			vertex -3.118732 6.328023 -1.8884521
			vertex -3.0987339 6.2735472 -1.920523
			vertex -3.2880671 6.040771 -1.491055
		endloop
	endfacet
	facet normal 0.32526978909232646 -0.8840102708374853 -0.33574604295161764
		outer loop
			vertex -3.0987339 6.2735472 -1.920523
			vertex -2.836226 6.3446341 -1.853376
			vertex -3.2880671 6.040771 -1.491055
		endloop
	endfacet
	facet normal 0.3686789338814156 -0.8854800700159196 -0.28284428457486116
		outer loop
			vertex -2.836226 6.3446341 -1.853376
			vertex -2.8959751 6.1829901 -1.42521
			vertex -3.2880671 6.040771 -1.491055
		endloop
	endfacet
	facet normal 0.03018260742392671 -0.9365080321206569 -0.34934469508293353
		outer loop
			vertex -2.836226 6.3446341 -1.853376
			vertex -2.5471599 6.325727 -1.777716
			vertex -2.8959751 6.1829901 -1.42521
		endloop
	endfacet
	facet normal 0.10365242599464954 -0.9533632190968377 -0.28346912893424403
		outer loop
			vertex -2.5471599 6.325727 -1.777716
			vertex -2.521764 6.216691 -1.40172
			vertex -2.8959751 6.1829901 -1.42521
		endloop
	endfacet
	facet normal -0.5043934503162888 -0.8378247399180141 -0.2088945965297847
		outer loop
			vertex -2.5471599 6.325727 -1.777716
			vertex -2.3691339 6.222445 -1.793336
			vertex -2.521764 6.216691 -1.40172
		endloop
	endfacet
	facet normal -0.32816533939970033 -0.9339434916214278 -0.1416229659153343
		outer loop
			vertex -2.3691339 6.222445 -1.793336
			vertex -2.3222711 6.1563091 -1.4657871
			vertex -2.521764 6.216691 -1.40172
		endloop
	endfacet
	facet normal 0.9902930763757719 0.033035850211146967 -0.13501205680618408
		outer loop
			vertex -2.3222711 6.1563091 -1.4657871
			vertex -2.3691339 6.222445 -1.793336
			vertex -2.3123691 6.2172251 -1.378252
		endloop
	endfacet
	facet normal 0.9821798900214452 0.13314783148286602 -0.13264357733743495
		outer loop
			vertex -2.3691339 6.222445 -1.793336
			vertex -2.3832929 6.3404241 -1.7797509
			vertex -2.3123691 6.2172251 -1.378252
		endloop
	endfacet
	facet normal 0.8437776409812868 -0.4528666367695867 -0.2880123293907018
		outer loop
			vertex -2.3123691 6.2172251 -1.378252
			vertex -2.3832929 6.3404241 -1.7797509
			vertex -2.2770979 6.2651348 -1.350252
		endloop
	endfacet
	facet normal 0.914555167456033 -0.29408131075186156 -0.2776779219634404
		outer loop
			vertex -2.3832929 6.3404241 -1.7797509
			vertex -2.3649991 6.3927021 -1.774865
			vertex -2.2770979 6.2651348 -1.350252
		endloop
	endfacet
	facet normal 0.2800513208708316 0.930483445479711 0.23616057115172331
		outer loop
			vertex -2.557039 6.3459911 -1.336861
			vertex -2.2770979 6.2651348 -1.350252
			vertex -2.5930531 6.4815249 -1.828163
		endloop
	endfacet
	facet normal 0.31071322540831237 0.9261199703720414 0.2139137490542685
		outer loop
			vertex -2.2770979 6.2651348 -1.350252
			vertex -2.3649991 6.3927021 -1.774865
			vertex -2.5930531 6.4815249 -1.828163
		endloop
	endfacet
	facet normal 0.16826663051356366 0.7658536865123727 0.6206081468293986
		outer loop
			vertex -2.5191939 6.8826551 -2.514977
			vertex -2.403693 6.8272581 -2.477931
			vertex -2.375612 7.023541 -2.7277651
		endloop
	endfacet
	facet normal 0.35135493350253066 0.7166164275589021 0.6025036153054596
		outer loop
			vertex -2.403693 6.8272581 -2.477931
			vertex -2.316951 6.9820371 -2.7126091
			vertex -2.375612 7.023541 -2.7277651
		endloop
	endfacet
	facet normal -0.3295297069062528 0.86350302606642 0.3818019070675461
		outer loop
			vertex -2.6178391 6.8625522 -2.554651
			vertex -2.5191939 6.8826551 -2.514977
			vertex -2.4583941 7.0129142 -2.757102
		endloop
	endfacet
	facet normal -0.25678955345501847 0.876549846514242 0.40708659006682013
		outer loop
			vertex -2.5191939 6.8826551 -2.514977
			vertex -2.375612 7.023541 -2.7277651
			vertex -2.4583941 7.0129142 -2.757102
		endloop
	endfacet
	facet normal -0.5876891239526715 -0.35543592700170046 -0.7268334027713528
		outer loop
			vertex -2.5993171 6.8137522 -2.545763
			vertex -2.6178391 6.8625522 -2.554651
			vertex -2.4583941 7.0129142 -2.757102
		endloop
	endfacet
	facet normal -0.46123271230470186 -0.47133775150313756 -0.7517347332058132
		outer loop
			vertex -2.4583941 7.0129142 -2.757102
			vertex -2.361855 6.9189472 -2.757417
			vertex -2.5993171 6.8137522 -2.545763
		endloop
	endfacet
	facet normal -0.4508055978052574 -0.4872152686031596 -0.7479275332727067
		outer loop
			vertex -2.361855 6.9189472 -2.757417
			vertex -2.499568 6.7261901 -2.548846
			vertex -2.5993171 6.8137522 -2.545763
		endloop
	endfacet
	facet normal 0.1576401419762909 -0.774922268130917 -0.6120825630521834
		outer loop
			vertex -2.361855 6.9189472 -2.757417
			vertex -2.425262 6.6889381 -2.4825461
			vertex -2.499568 6.7261901 -2.548846
		endloop
	endfacet
	facet normal -0.0036061411104413013 -0.7665015377014148 -0.6422323477119931
		outer loop
			vertex -2.361855 6.9189472 -2.757417
			vertex -2.3942411 6.6747141 -2.465744
			vertex -2.425262 6.6889381 -2.4825461
		endloop
	endfacet
	facet normal 0.9508205564072467 -0.29151519359171185 -0.10468601348127082
		outer loop
			vertex -2.4047971 6.4937439 -2.110559
			vertex -2.380996 6.6939688 -2.451942
			vertex -2.393187 6.5257549 -2.094249
		endloop
	endfacet
	facet normal 0.9568539164733378 -0.2741437050609001 -0.09631101445378401
		outer loop
			vertex -2.380996 6.6939688 -2.451942
			vertex -2.369472 6.7282391 -2.434999
			vertex -2.393187 6.5257549 -2.094249
		endloop
	endfacet
	facet normal 0.6738574536962687 0.4773896852044672 0.5639283824727754
		outer loop
			vertex -2.403693 6.8272581 -2.477931
			vertex -2.369472 6.7282391 -2.434999
			vertex -2.316951 6.9820371 -2.7126091
		endloop
	endfacet
	facet normal 0.5529152479651951 0.5543022502849368 -0.6221203612619041
		outer loop
			vertex -2.316951 6.9820371 -2.7126091
			vertex -2.3248 6.9487729 -2.749223
			vertex -2.375612 7.023541 -2.7277651
		endloop
	endfacet
	facet normal 0.7478966138057199 -0.600195132846598 -0.28357795676884434
		outer loop
			vertex -2.4218421 6.4781041 -2.122411
			vertex -2.3942411 6.6747141 -2.465744
			vertex -2.4047971 6.4937439 -2.110559
		endloop
	endfacet
	facet normal 0.868726958782495 -0.45127786652588203 -0.20411212180653443
		outer loop
			vertex -2.3942411 6.6747141 -2.465744
			vertex -2.380996 6.6939688 -2.451942
			vertex -2.4047971 6.4937439 -2.110559
		endloop
	endfacet
	facet normal -0.08649531146517472 -0.8334118608757414 -0.5458417639263017
		outer loop
			vertex -2.425262 6.6889381 -2.4825461
			vertex -2.3942411 6.6747141 -2.465744
			vertex -2.492733 6.4686151 -2.135457
		endloop
	endfacet
	facet normal 0.20199386801281333 -0.8568126169984113 -0.4744160796574631
		outer loop
			vertex -2.3942411 6.6747141 -2.465744
			vertex -2.4218421 6.4781041 -2.122411
			vertex -2.492733 6.4686151 -2.135457
		endloop
	endfacet
	facet normal 0.041110537020985424 -0.8506921263845432 -0.524054224153561
		outer loop
			vertex -2.499568 6.7261901 -2.548846
			vertex -2.425262 6.6889381 -2.4825461
			vertex -2.6816289 6.5048389 -2.2038109
		endloop
	endfacet
	facet normal 0.03000089591170913 -0.8465174183626947 -0.5315150107504523
		outer loop
			vertex -2.425262 6.6889381 -2.4825461
			vertex -2.492733 6.4686151 -2.135457
			vertex -2.6816289 6.5048389 -2.2038109
		endloop
	endfacet
	facet normal -0.4423510555097229 -0.4771815840552377 -0.7593571488620937
		outer loop
			vertex -2.5993171 6.8137522 -2.545763
			vertex -2.499568 6.7261901 -2.548846
			vertex -2.807548 6.5704231 -2.271553
		endloop
	endfacet
	facet normal -0.11071174770894199 -0.8089366692671573 -0.5773771505993196
		outer loop
			vertex -2.499568 6.7261901 -2.548846
			vertex -2.6816289 6.5048389 -2.2038109
			vertex -2.807548 6.5704231 -2.271553
		endloop
	endfacet
	facet normal -0.5228086793374698 -0.3933694836217899 -0.756261551425522
		outer loop
			vertex -2.8471191 6.6579051 -2.289701
			vertex -2.6178391 6.8625522 -2.554651
			vertex -2.807548 6.5704231 -2.271553
		endloop
	endfacet
	facet normal -0.5687771238532576 -0.35132647093500874 -0.7436815811902084
		outer loop
			vertex -2.6178391 6.8625522 -2.554651
			vertex -2.5993171 6.8137522 -2.545763
			vertex -2.807548 6.5704231 -2.271553
		endloop
	endfacet
	facet normal -0.380099594451164 0.861550577075017 0.3365336557311408
		outer loop
			vertex -2.8471191 6.6579051 -2.289701
			vertex -2.7230101 6.682673 -2.2129331
			vertex -2.6178391 6.8625522 -2.554651
		endloop
	endfacet
	facet normal -0.32341573431054826 0.8747246733800949 0.3609141290950735
		outer loop
			vertex -2.7230101 6.682673 -2.2129331
			vertex -2.5191939 6.8826551 -2.514977
			vertex -2.6178391 6.8625522 -2.554651
		endloop
	endfacet
	facet normal 0.09937583198001797 0.7974994115179185 0.5950790978070505
		outer loop
			vertex -2.7230101 6.682673 -2.2129331
			vertex -2.5254221 6.6100521 -2.1486061
			vertex -2.5191939 6.8826551 -2.514977
		endloop
	endfacet
	facet normal 0.18846446721491808 0.7863665919522563 0.5883100608172454
		outer loop
			vertex -2.5254221 6.6100521 -2.1486061
			vertex -2.403693 6.8272581 -2.477931
			vertex -2.5191939 6.8826551 -2.514977
		endloop
	endfacet
	facet normal 0.2435637865912878 0.7658297456358972 0.5951314834224203
		outer loop
			vertex -2.5254221 6.6100521 -2.1486061
			vertex -2.393187 6.5257549 -2.094249
			vertex -2.403693 6.8272581 -2.477931
		endloop
	endfacet
	facet normal 0.8471472306406337 0.4288193760068795 0.313776213851489
		outer loop
			vertex -2.393187 6.5257549 -2.094249
			vertex -2.369472 6.7282391 -2.434999
			vertex -2.403693 6.8272581 -2.477931
		endloop
	endfacet
endsolid exported
