solid exported
	facet normal -0.3340493763877702 -0.7832221555311475 -0.524379699473659
		outer loop
			vertex -0.524714 5.691247 -0.187432
			vertex -0.678589 5.7648349 -0.19932
			vertex -0.392238 5.6818228 -0.257748
		endloop
	endfacet
	facet normal -0.3340492909323308 -0.7832286492916304 -0.5243700545954314
		outer loop
			vertex -0.678589 5.7648349 -0.19932
			vertex -0.658757 5.8092809 -0.278341
			vertex -0.392238 5.6818228 -0.257748
		endloop
	endfacet
	facet normal -0.7072544636940821 -0.525401142404495 -0.4730166626503216
		outer loop
			vertex -0.678589 5.7648349 -0.19932
			vertex -0.777944 5.8379998 -0.132032
			vertex -0.658757 5.8092809 -0.278341
		endloop
	endfacet
	facet normal -0.6266462894125573 -0.6822905468153452 -0.3765554908534608
		outer loop
			vertex -0.777944 5.8379998 -0.132032
			vertex -0.844344 5.9156828 -0.162288
			vertex -0.658757 5.8092809 -0.278341
		endloop
	endfacet
	facet normal -0.7051176554284337 -0.6804291674260482 -0.19956262204882835
		outer loop
			vertex -0.777944 5.8379998 -0.132032
			vertex -0.813553 5.8562312 -0.068376
			vertex -0.844344 5.9156828 -0.162288
		endloop
	endfacet
	facet normal -0.7050981444937077 -0.6804446371977577 -0.19957881235327213
		outer loop
			vertex -0.813553 5.8562312 -0.068376
			vertex -0.906022 5.9472561 -0.05203
			vertex -0.844344 5.9156828 -0.162288
		endloop
	endfacet
	facet normal -0.6137765566367367 -0.6918166979658341 0.3803524614601574
		outer loop
			vertex -0.813553 5.8562312 -0.068376
			vertex -0.748113 5.8257461 -0.018224
			vertex -0.906022 5.9472561 -0.05203
		endloop
	endfacet
	facet normal -0.613764266464437 -0.6917732019426363 0.3804513928025554
		outer loop
			vertex -0.748113 5.8257461 -0.018224
			vertex -0.792676 5.8944612 0.034829
			vertex -0.906022 5.9472561 -0.05203
		endloop
	endfacet
	facet normal -0.5779302358377604 -0.6994303392275026 0.42046859938955183
		outer loop
			vertex -0.748113 5.8257461 -0.018224
			vertex -0.622459 5.7417779 0.014809
			vertex -0.792676 5.8944612 0.034829
		endloop
	endfacet
	facet normal -0.49032948456081904 -0.6261295981088665 0.6062497199523895
		outer loop
			vertex -0.622459 5.7417779 0.014809
			vertex -0.561542 5.7693448 0.092549
			vertex -0.792676 5.8944612 0.034829
		endloop
	endfacet
	facet normal -0.23263189238440138 -0.8448033609906983 0.48186064780647153
		outer loop
			vertex -0.622459 5.7417779 0.014809
			vertex -0.485026 5.674943 -0.036017
			vertex -0.561542 5.7693448 0.092549
		endloop
	endfacet
	facet normal -0.23260532398470354 -0.8448021603817231 0.4818755784103865
		outer loop
			vertex -0.485026 5.674943 -0.036017
			vertex -0.323496 5.653585 0.004511
			vertex -0.561542 5.7693448 0.092549
		endloop
	endfacet
	facet normal -0.16902507397509325 -0.9723298330795769 0.16126134090710154
		outer loop
			vertex -0.485026 5.674943 -0.036017
			vertex -0.444537 5.6540108 -0.11979
			vertex -0.323496 5.653585 0.004511
		endloop
	endfacet
	facet normal -0.16901879951936338 -0.9723319382838997 0.16125522379789084
		outer loop
			vertex -0.444537 5.6540108 -0.11979
			vertex -0.253368 5.617331 -0.140588
			vertex -0.323496 5.653585 0.004511
		endloop
	endfacet
	facet normal -0.20963401304334847 -0.9400480106406777 -0.26900430900981026
		outer loop
			vertex -0.444537 5.6540108 -0.11979
			vertex -0.524714 5.691247 -0.187432
			vertex -0.253368 5.617331 -0.140588
		endloop
	endfacet
	facet normal -0.20964121790205925 -0.940055131012576 -0.2689738099025074
		outer loop
			vertex -0.524714 5.691247 -0.187432
			vertex -0.392238 5.6818228 -0.257748
			vertex -0.253368 5.617331 -0.140588
		endloop
	endfacet
	facet normal -0.12209315868123881 -0.40192222690171053 -0.907497539459809
		outer loop
			vertex -0.392238 5.6818228 -0.257748
			vertex -0.658757 5.8092809 -0.278341
			vertex -0.303373 5.7143822 -0.284124
		endloop
	endfacet
	facet normal -0.12209722702528691 -0.4019379192400473 -0.9074900419452088
		outer loop
			vertex -0.658757 5.8092809 -0.278341
			vertex -0.611123 5.861558 -0.307904
			vertex -0.303373 5.7143822 -0.284124
		endloop
	endfacet
	facet normal -0.5292138704087982 0.002387436133914782 -0.8484851085998188
		outer loop
			vertex -0.658757 5.8092809 -0.278341
			vertex -0.844344 5.9156828 -0.162288
			vertex -0.611123 5.861558 -0.307904
		endloop
	endfacet
	facet normal -0.5543751084323422 -0.287889777850105 -0.7808890541940295
		outer loop
			vertex -0.844344 5.9156828 -0.162288
			vertex -0.871298 5.986989 -0.169441
			vertex -0.611123 5.861558 -0.307904
		endloop
	endfacet
	facet normal -0.8542293743760692 -0.36048199059387825 -0.3746263610726621
		outer loop
			vertex -0.844344 5.9156828 -0.162288
			vertex -0.906022 5.9472561 -0.05203
			vertex -0.871298 5.986989 -0.169441
		endloop
	endfacet
	facet normal -0.8542355999301319 -0.3604696605791681 -0.3746240296803547
		outer loop
			vertex -0.906022 5.9472561 -0.05203
			vertex -0.942516 6.0234451 -0.042125
			vertex -0.871298 5.986989 -0.169441
		endloop
	endfacet
	facet normal -0.6675373532086781 -0.401283764621416 0.6271883467686692
		outer loop
			vertex -0.906022 5.9472561 -0.05203
			vertex -0.792676 5.8944612 0.034829
			vertex -0.942516 6.0234451 -0.042125
		endloop
	endfacet
	facet normal -0.6675407189661633 -0.4012935455837931 0.6271785063240974
		outer loop
			vertex -0.792676 5.8944612 0.034829
			vertex -0.811636 5.9624801 0.05817
			vertex -0.942516 6.0234451 -0.042125
		endloop
	endfacet
	facet normal -0.41884592666657683 -0.39699800192345963 0.8166766044056835
		outer loop
			vertex -0.792676 5.8944612 0.034829
			vertex -0.561542 5.7693448 0.092549
			vertex -0.811636 5.9624801 0.05817
		endloop
	endfacet
	facet normal -0.2771736237757763 -0.19131066580011147 0.9415811231296658
		outer loop
			vertex -0.561542 5.7693448 0.092549
			vertex -0.498868 5.8154449 0.120365
			vertex -0.811636 5.9624801 0.05817
		endloop
	endfacet
	facet normal 0.038261610754305946 -0.553866413323985 0.8317259436461693
		outer loop
			vertex -0.561542 5.7693448 0.092549
			vertex -0.323496 5.653585 0.004511
			vertex -0.498868 5.8154449 0.120365
		endloop
	endfacet
	facet normal 0.038269776373243726 -0.5538602397355862 0.8317296790763097
		outer loop
			vertex -0.323496 5.653585 0.004511
			vertex -0.223997 5.6817751 0.018705
			vertex -0.498868 5.8154449 0.120365
		endloop
	endfacet
	facet normal 0.21288317059096307 -0.9187797113948997 0.3324523990111122
		outer loop
			vertex -0.323496 5.653585 0.004511
			vertex -0.253368 5.617331 -0.140588
			vertex -0.223997 5.6817751 0.018705
		endloop
	endfacet
	facet normal 0.2128896967155017 -0.9187787721536634 0.33245081571894
		outer loop
			vertex -0.253368 5.617331 -0.140588
			vertex -0.143019 5.639914 -0.14884
			vertex -0.223997 5.6817751 0.018705
		endloop
	endfacet
	facet normal 0.12049920527851135 -0.8023887578596164 -0.5845102418159575
		outer loop
			vertex -0.253368 5.617331 -0.140588
			vertex -0.392238 5.6818228 -0.257748
			vertex -0.143019 5.639914 -0.14884
		endloop
	endfacet
	facet normal 0.1204997162894213 -0.8023880325842555 -0.5845111320922268
		outer loop
			vertex -0.392238 5.6818228 -0.257748
			vertex -0.303373 5.7143822 -0.284124
			vertex -0.143019 5.639914 -0.14884
		endloop
	endfacet
	facet normal 0.20759779208340587 0.2827876178649502 -0.936447713385196
		outer loop
			vertex -0.303373 5.7143822 -0.284124
			vertex -0.611123 5.861558 -0.307904
			vertex -0.281931 5.7802 -0.259495
		endloop
	endfacet
	facet normal 0.20759713295798848 0.2827842607529175 -0.9364488732750171
		outer loop
			vertex -0.611123 5.861558 -0.307904
			vertex -0.548449 5.9076581 -0.280089
			vertex -0.281931 5.7802 -0.259495
		endloop
	endfacet
	facet normal -0.11301245642222271 0.6214191897622825 -0.7752847059555628
		outer loop
			vertex -0.611123 5.861558 -0.307904
			vertex -0.871298 5.986989 -0.169441
			vertex -0.548449 5.9076581 -0.280089
		endloop
	endfacet
	facet normal -0.0961446900414102 0.6545869500104702 -0.7498480669127789
		outer loop
			vertex -0.871298 5.986989 -0.169441
			vertex -0.788429 6.0107832 -0.159295
			vertex -0.548449 5.9076581 -0.280089
		endloop
	endfacet
	facet normal -0.21266210257998344 0.901435640217201 -0.3770790589153229
		outer loop
			vertex -0.871298 5.986989 -0.169441
			vertex -0.942516 6.0234451 -0.042125
			vertex -0.788429 6.0107832 -0.159295
		endloop
	endfacet
	facet normal -0.21267449724181642 0.9014263188435484 -0.3770943514813109
		outer loop
			vertex -0.942516 6.0234451 -0.042125
			vertex -0.850108 6.0423551 -0.049038
			vertex -0.788429 6.0107832 -0.159295
		endloop
	endfacet
	facet normal -0.11267021056458669 0.7770009033792913 0.6193343360407987
		outer loop
			vertex -0.942516 6.0234451 -0.042125
			vertex -0.811636 5.9624801 0.05817
			vertex -0.850108 6.0423551 -0.049038
		endloop
	endfacet
	facet normal -0.11270916534988586 0.7769903678190814 0.6193404656265411
		outer loop
			vertex -0.811636 5.9624801 0.05817
			vertex -0.736761 5.9895592 0.037824
			vertex -0.850108 6.0423551 -0.049038
		endloop
	endfacet
	facet normal 0.058318132797206115 0.4915817443507698 0.8688765067649727
		outer loop
			vertex -0.811636 5.9624801 0.05817
			vertex -0.498868 5.8154449 0.120365
			vertex -0.736761 5.9895592 0.037824
		endloop
	endfacet
	facet normal 0.03547337272681756 0.46725816658357117 0.8834089911181255
		outer loop
			vertex -0.498868 5.8154449 0.120365
			vertex -0.451234 5.8677211 0.090802
			vertex -0.736761 5.9895592 0.037824
		endloop
	endfacet
	facet normal 0.40377400349258663 0.14308184624092127 0.903600652600394
		outer loop
			vertex -0.498868 5.8154449 0.120365
			vertex -0.223997 5.6817751 0.018705
			vertex -0.451234 5.8677211 0.090802
		endloop
	endfacet
	facet normal 0.4037792612781137 0.14308966241850773 0.9035970654393797
		outer loop
			vertex -0.223997 5.6817751 0.018705
			vertex -0.213189 5.7519612 0.002761
			vertex -0.451234 5.8677211 0.090802
		endloop
	endfacet
	facet normal 0.8960206432533709 -0.03747344923310977 0.4424282399060767
		outer loop
			vertex -0.223997 5.6817751 0.018705
			vertex -0.143019 5.639914 -0.14884
			vertex -0.213189 5.7519612 0.002761
		endloop
	endfacet
	facet normal 0.8960138173657116 -0.03749406456369443 0.4424403171188392
		outer loop
			vertex -0.143019 5.639914 -0.14884
			vertex -0.14306 5.7157068 -0.142334
			vertex -0.213189 5.7519612 0.002761
		endloop
	endfacet
	facet normal 0.6608267197388494 0.0645444893033057 -0.7477580192681103
		outer loop
			vertex -0.143019 5.639914 -0.14884
			vertex -0.303373 5.7143822 -0.284124
			vertex -0.14306 5.7157068 -0.142334
		endloop
	endfacet
	facet normal 0.6608275056108858 0.06452793859636112 -0.7477587531875499
		outer loop
			vertex -0.303373 5.7143822 -0.284124
			vertex -0.281931 5.7802 -0.259495
			vertex -0.14306 5.7157068 -0.142334
		endloop
	endfacet
	facet normal 0.39124256692444154 0.7269066505773653 -0.5643899141309758
		outer loop
			vertex -0.281931 5.7802 -0.259495
			vertex -0.548449 5.9076581 -0.280089
			vertex -0.333656 5.861639 -0.190462
		endloop
	endfacet
	facet normal 0.3544070272688922 0.8352068309902788 -0.42050589590349685
		outer loop
			vertex -0.548449 5.9076581 -0.280089
			vertex -0.493018 5.9230051 -0.202889
			vertex -0.333656 5.861639 -0.190462
		endloop
	endfacet
	facet normal 0.2212770427785277 0.9138195948486763 -0.3405440036321167
		outer loop
			vertex -0.548449 5.9076581 -0.280089
			vertex -0.788429 6.0107832 -0.159295
			vertex -0.493018 5.9230051 -0.202889
		endloop
	endfacet
	facet normal 0.204191475367978 0.8898384538575073 -0.4080359879024517
		outer loop
			vertex -0.788429 6.0107832 -0.159295
			vertex -0.654403 5.9934101 -0.130112
			vertex -0.493018 5.9230051 -0.202889
		endloop
	endfacet
	facet normal 0.16577715959864184 0.9687212289209557 -0.18465403865954283
		outer loop
			vertex -0.788429 6.0107832 -0.159295
			vertex -0.850108 6.0423551 -0.049038
			vertex -0.654403 5.9934101 -0.130112
		endloop
	endfacet
	facet normal 0.16580161771983842 0.9687275661457494 -0.18459882489013146
		outer loop
			vertex -0.850108 6.0423551 -0.049038
			vertex -0.690014 6.0116358 -0.066453
			vertex -0.654403 5.9934101 -0.130112
		endloop
	endfacet
	facet normal 0.21077192160231667 0.9329062996747033 0.2919949196327217
		outer loop
			vertex -0.850108 6.0423551 -0.049038
			vertex -0.736761 5.9895592 0.037824
			vertex -0.690014 6.0116358 -0.066453
		endloop
	endfacet
	facet normal 0.21075227890775894 0.9329130463839028 0.29198754223749385
		outer loop
			vertex -0.736761 5.9895592 0.037824
			vertex -0.624574 5.9811559 -0.016302
			vertex -0.690014 6.0116358 -0.066453
		endloop
	endfacet
	facet normal 0.27949255328120004 0.8495338196777962 0.4474105518246181
		outer loop
			vertex -0.736761 5.9895592 0.037824
			vertex -0.451234 5.8677211 0.090802
			vertex -0.624574 5.9811559 -0.016302
		endloop
	endfacet
	facet normal 0.3125180835428364 0.8594839539675246 0.40449941944465523
		outer loop
			vertex -0.451234 5.8677211 0.090802
			vertex -0.436888 5.8999481 0.011242
			vertex -0.624574 5.9811559 -0.016302
		endloop
	endfacet
	facet normal 0.5162053867032761 0.7573867529352709 0.39987161091616413
		outer loop
			vertex -0.451234 5.8677211 0.090802
			vertex -0.213189 5.7519612 0.002761
			vertex -0.436888 5.8999481 0.011242
		endloop
	endfacet
	facet normal 0.4609060207666138 0.662897832196238 0.5900272062291823
		outer loop
			vertex -0.213189 5.7519612 0.002761
			vertex -0.293966 5.8453341 -0.039044
			vertex -0.436888 5.8999481 0.011242
		endloop
	endfacet
	facet normal 0.706426501304479 0.6871298319708595 0.1697474367123444
		outer loop
			vertex -0.213189 5.7519612 0.002761
			vertex -0.14306 5.7157068 -0.142334
			vertex -0.293966 5.8453341 -0.039044
		endloop
	endfacet
	facet normal 0.7064226172409419 0.6871376507822167 0.169731949638111
		outer loop
			vertex -0.14306 5.7157068 -0.142334
			vertex -0.253478 5.8244028 -0.122817
			vertex -0.293966 5.8453341 -0.039044
		endloop
	endfacet
	facet normal 0.6231852620352772 0.69681609299623 -0.3550879633604781
		outer loop
			vertex -0.14306 5.7157068 -0.142334
			vertex -0.281931 5.7802 -0.259495
			vertex -0.253478 5.8244028 -0.122817
		endloop
	endfacet
	facet normal 0.6231934828666597 0.6968090322966433 -0.35508739124663125
		outer loop
			vertex -0.281931 5.7802 -0.259495
			vertex -0.333656 5.861639 -0.190462
			vertex -0.253478 5.8244028 -0.122817
		endloop
	endfacet
	facet normal -0.41648452894008303 -0.8958799549343117 -0.15472473461102793
		outer loop
			vertex -0.678589 5.7648349 -0.19932
			vertex -0.524714 5.691247 -0.187432
			vertex -0.665303 5.7401271 -0.092021
		endloop
	endfacet
	facet normal -0.6325088987488885 -0.7682532198221189 -0.09858743954690874
		outer loop
			vertex -0.777944 5.8379998 -0.132032
			vertex -0.678589 5.7648349 -0.19932
			vertex -0.665303 5.7401271 -0.092021
		endloop
	endfacet
	facet normal -0.624087889452592 -0.7707369211475843 -0.12837018586319748
		outer loop
			vertex -0.813553 5.8562312 -0.068376
			vertex -0.777944 5.8379998 -0.132032
			vertex -0.665303 5.7401271 -0.092021
		endloop
	endfacet
	facet normal -0.5674526404464926 -0.7789303466747078 0.26695508213840646
		outer loop
			vertex -0.748113 5.8257461 -0.018224
			vertex -0.813553 5.8562312 -0.068376
			vertex -0.665303 5.7401271 -0.092021
		endloop
	endfacet
	facet normal -0.582398671605344 -0.7749319709828352 0.24554475694054065
		outer loop
			vertex -0.622459 5.7417779 0.014809
			vertex -0.748113 5.8257461 -0.018224
			vertex -0.665303 5.7401271 -0.092021
		endloop
	endfacet
	facet normal -0.380668523283969 -0.909557809779452 0.16672152245588728
		outer loop
			vertex -0.485026 5.674943 -0.036017
			vertex -0.622459 5.7417779 0.014809
			vertex -0.665303 5.7401271 -0.092021
		endloop
	endfacet
	facet normal -0.3560777271629783 -0.9324700328095988 0.06089573162803185
		outer loop
			vertex -0.444537 5.6540108 -0.11979
			vertex -0.485026 5.674943 -0.036017
			vertex -0.665303 5.7401271 -0.092021
		endloop
	endfacet
	facet normal -0.37023366239228733 -0.9262190278120248 -0.07103061136257705
		outer loop
			vertex -0.524714 5.691247 -0.187432
			vertex -0.444537 5.6540108 -0.11979
			vertex -0.665303 5.7401271 -0.092021
		endloop
	endfacet
	facet normal 0.36532390757168476 0.9200815808208876 -0.14138008060081064
		outer loop
			vertex -0.333656 5.861639 -0.190462
			vertex -0.493018 5.9230051 -0.202889
			vertex -0.451913 5.9231038 -0.096032
		endloop
	endfacet
	facet normal 0.3450505802645628 0.9290284589381349 -0.13358974340166527
		outer loop
			vertex -0.493018 5.9230051 -0.202889
			vertex -0.654403 5.9934101 -0.130112
			vertex -0.451913 5.9231038 -0.096032
		endloop
	endfacet
	facet normal 0.33880179735175686 0.9375441551174839 -0.07889422866257373
		outer loop
			vertex -0.654403 5.9934101 -0.130112
			vertex -0.690014 6.0116358 -0.066453
			vertex -0.451913 5.9231038 -0.096032
		endloop
	endfacet
	facet normal 0.35750634483719507 0.9287579470891549 0.09796881707914623
		outer loop
			vertex -0.690014 6.0116358 -0.066453
			vertex -0.624574 5.9811559 -0.016302
			vertex -0.451913 5.9231038 -0.096032
		endloop
	endfacet
	facet normal 0.37487890812247326 0.9156419144924289 0.1451402379409025
		outer loop
			vertex -0.624574 5.9811559 -0.016302
			vertex -0.436888 5.8999481 0.011242
			vertex -0.451913 5.9231038 -0.096032
		endloop
	endfacet
	facet normal 0.39613216235201587 0.9073982773641758 0.14038403109628428
		outer loop
			vertex -0.436888 5.8999481 0.011242
			vertex -0.293966 5.8453341 -0.039044
			vertex -0.451913 5.9231038 -0.096032
		endloop
	endfacet
	facet normal 0.44434840601051995 0.8958081636009095 -0.00906797121060201
		outer loop
			vertex -0.293966 5.8453341 -0.039044
			vertex -0.253478 5.8244028 -0.122817
			vertex -0.451913 5.9231038 -0.096032
		endloop
	endfacet
	facet normal 0.44187278574032485 0.8965688509422657 -0.030211533263816176
		outer loop
			vertex -0.253478 5.8244028 -0.122817
			vertex -0.333656 5.861639 -0.190462
			vertex -0.451913 5.9231038 -0.096032
		endloop
	endfacet
	facet normal 0.39454634944908223 -0.7015808230985009 -0.5933949163894418
		outer loop
			vertex 0.771514 5.770751 -0.205193
			vertex 0.639294 5.7513318 -0.270146
			vertex 0.914272 5.8601351 -0.215954
		endloop
	endfacet
	facet normal 0.39454017273570763 -0.7015378822114049 -0.5934497888785665
		outer loop
			vertex 0.639294 5.7513318 -0.270146
			vertex 0.886558 5.9061561 -0.288782
			vertex 0.914272 5.8601351 -0.215954
		endloop
	endfacet
	facet normal 0.7286352460386742 -0.4188126915785358 -0.5419286000968239
		outer loop
			vertex 0.914272 5.8601351 -0.215954
			vertex 0.886558 5.9061561 -0.288782
			vertex 1.0116529 5.9396839 -0.1465
		endloop
	endfacet
	facet normal 0.6727554099569343 -0.5843593230468062 -0.45378887154926567
		outer loop
			vertex 0.886558 5.9061561 -0.288782
			vertex 1.069025 6.0251331 -0.17148
			vertex 1.0116529 5.9396839 -0.1465
		endloop
	endfacet
	facet normal 0.7542008761182707 -0.5904041833375389 -0.28740900953165505
		outer loop
			vertex 1.0116529 5.9396839 -0.1465
			vertex 1.069025 6.0251331 -0.17148
			vertex 1.050287 5.9583158 -0.083393
		endloop
	endfacet
	facet normal 0.7542131375874388 -0.5903936712150716 -0.28739842741341043
		outer loop
			vertex 1.069025 6.0251331 -0.17148
			vertex 1.135938 6.0574031 -0.062173
			vertex 1.050287 5.9583158 -0.083393
		endloop
	endfacet
	facet normal 0.6968996056644117 -0.661650828394097 0.27667511798170913
		outer loop
			vertex 1.050287 5.9583158 -0.083393
			vertex 1.135938 6.0574031 -0.062173
			vertex 0.993371 5.9189072 -0.034274
		endloop
	endfacet
	facet normal 0.6969050236835527 -0.6616668964799258 0.27662303965369567
		outer loop
			vertex 1.135938 6.0574031 -0.062173
			vertex 1.037359 5.989141 0.022901
			vertex 0.993371 5.9189072 -0.034274
		endloop
	endfacet
	facet normal 0.665137541275807 -0.6755619310888442 0.31813224993559835
		outer loop
			vertex 0.993371 5.9189072 -0.034274
			vertex 1.037359 5.989141 0.022901
			vertex 0.879871 5.8210421 -0.004792
		endloop
	endfacet
	facet normal 0.5833362156711076 -0.6308071904572847 0.5116650740024162
		outer loop
			vertex 1.037359 5.989141 0.022901
			vertex 0.826977 5.8384399 0.07696
			vertex 0.879871 5.8210421 -0.004792
		endloop
	endfacet
	facet normal 0.34333412451426704 -0.8484968311419261 0.40270933250439067
		outer loop
			vertex 0.879871 5.8210421 -0.004792
			vertex 0.826977 5.8384399 0.07696
			vertex 0.747188 5.7431059 -0.055881
		endloop
	endfacet
	facet normal 0.3433337824586324 -0.84849686164942 0.40270955984894863
		outer loop
			vertex 0.826977 5.8384399 0.07696
			vertex 0.597164 5.7034521 -0.011526
			vertex 0.747188 5.7431059 -0.055881
		endloop
	endfacet
	facet normal 0.27904981367918397 -0.9561391524501984 0.0890456211019329
		outer loop
			vertex 0.747188 5.7431059 -0.055881
			vertex 0.597164 5.7034521 -0.011526
			vertex 0.702305 5.7222762 -0.138889
		endloop
	endfacet
	facet normal 0.2790640279840958 -0.9561338378273493 0.08905814082292497
		outer loop
			vertex 0.597164 5.7034521 -0.011526
			vertex 0.519422 5.6673698 -0.155303
			vertex 0.702305 5.7222762 -0.138889
		endloop
	endfacet
	facet normal 0.298265907327956 -0.8916600739607011 -0.3405580141917502
		outer loop
			vertex 0.702305 5.7222762 -0.138889
			vertex 0.519422 5.6673698 -0.155303
			vertex 0.771514 5.770751 -0.205193
		endloop
	endfacet
	facet normal 0.29826241709324564 -0.8916569656177594 -0.3405692091411446
		outer loop
			vertex 0.519422 5.6673698 -0.155303
			vertex 0.639294 5.7513318 -0.270146
			vertex 0.771514 5.770751 -0.205193
		endloop
	endfacet
	facet normal 0.12062055231865335 -0.3062981751183685 -0.9442627337121275
		outer loop
			vertex 0.639294 5.7513318 -0.270146
			vertex 0.550597 5.7759352 -0.289457
			vertex 0.886558 5.9061561 -0.288782
		endloop
	endfacet
	facet normal 0.12062714467613572 -0.30631521596783207 -0.9442563637243135
		outer loop
			vertex 0.550597 5.7759352 -0.289457
			vertex 0.836114 5.9547071 -0.310976
			vertex 0.886558 5.9061561 -0.288782
		endloop
	endfacet
	facet normal 0.48630541114315223 0.10895058988834327 -0.8669699049308874
		outer loop
			vertex 0.886558 5.9061561 -0.288782
			vertex 0.836114 5.9547071 -0.310976
			vertex 1.069025 6.0251331 -0.17148
		endloop
	endfacet
	facet normal 0.5442911376976659 -0.17496838304440307 -0.8204469649883579
		outer loop
			vertex 0.836114 5.9547071 -0.310976
			vertex 1.0909359 6.0990939 -0.172717
			vertex 1.069025 6.0251331 -0.17148
		endloop
	endfacet
	facet normal 0.8557259854398799 -0.26098157685264195 -0.44679039200329174
		outer loop
			vertex 1.069025 6.0251331 -0.17148
			vertex 1.0909359 6.0990939 -0.172717
			vertex 1.135938 6.0574031 -0.062173
		endloop
	endfacet
	facet normal 0.855723589355462 -0.2609873656168191 -0.446791599752052
		outer loop
			vertex 1.0909359 6.0990939 -0.172717
			vertex 1.1682 6.1363559 -0.046502
			vertex 1.135938 6.0574031 -0.062173
		endloop
	endfacet
	facet normal 0.7418272655266259 -0.40866023218959596 0.5316851725862163
		outer loop
			vertex 1.135938 6.0574031 -0.062173
			vertex 1.1682 6.1363559 -0.046502
			vertex 1.037359 5.989141 0.022901
		endloop
	endfacet
	facet normal 0.7418215959152445 -0.4086464814838092 0.5317036514870501
		outer loop
			vertex 1.1682 6.1363559 -0.046502
			vertex 1.054371 6.0575361 0.051732
			vertex 1.037359 5.989141 0.022901
		endloop
	endfacet
	facet normal 0.505301852635939 -0.43888574858936 0.7430002270577346
		outer loop
			vertex 1.037359 5.989141 0.022901
			vertex 1.054371 6.0575361 0.051732
			vertex 0.826977 5.8384399 0.07696
		endloop
	endfacet
	facet normal 0.35142850919952406 -0.2612180901868477 0.8990345445426089
		outer loop
			vertex 1.054371 6.0575361 0.051732
			vertex 0.767315 5.8765168 0.111345
			vertex 0.826977 5.8384399 0.07696
		endloop
	endfacet
	facet normal 0.05946619384745525 -0.6160941003383947 0.7854246184819529
		outer loop
			vertex 0.826977 5.8384399 0.07696
			vertex 0.767315 5.8765168 0.111345
			vertex 0.597164 5.7034521 -0.011526
		endloop
	endfacet
	facet normal 0.059456174192036776 -0.6160881189642066 0.7854300688295502
		outer loop
			vertex 0.767315 5.8765168 0.111345
			vertex 0.501948 5.720644 0.009167
			vertex 0.597164 5.7034521 -0.011526
		endloop
	endfacet
	facet normal -0.10703113288373545 -0.9491500219360401 0.29607190419294893
		outer loop
			vertex 0.597164 5.7034521 -0.011526
			vertex 0.501948 5.720644 0.009167
			vertex 0.519422 5.6673698 -0.155303
		endloop
	endfacet
	facet normal -0.10705342843881836 -0.949148409341955 0.29606901307487676
		outer loop
			vertex 0.501948 5.720644 0.009167
			vertex 0.41218 5.6789842 -0.156846
			vertex 0.519422 5.6673698 -0.155303
		endloop
	endfacet
	facet normal -0.07386530279331466 -0.766754822228941 -0.6376762184933019
		outer loop
			vertex 0.519422 5.6673698 -0.155303
			vertex 0.41218 5.6789842 -0.156846
			vertex 0.639294 5.7513318 -0.270146
		endloop
	endfacet
	facet normal -0.0738580920133401 -0.7667631272962065 -0.6376670674129963
		outer loop
			vertex 0.41218 5.6789842 -0.156846
			vertex 0.550597 5.7759352 -0.289457
			vertex 0.639294 5.7513318 -0.270146
		endloop
	endfacet
	facet normal -0.2879772541162795 0.35276303203512904 -0.8902962115728846
		outer loop
			vertex 0.550597 5.7759352 -0.289457
			vertex 0.529185 5.8379622 -0.257954
			vertex 0.836114 5.9547071 -0.310976
		endloop
	endfacet
	facet normal -0.2879800457319461 0.3527724820840322 -0.8902915641207085
		outer loop
			vertex 0.529185 5.8379622 -0.257954
			vertex 0.776451 5.9927821 -0.27659
			vertex 0.836114 5.9547071 -0.310976
		endloop
	endfacet
	facet normal 0.011973259782110968 0.680460501542556 -0.7326869364814985
		outer loop
			vertex 0.836114 5.9547071 -0.310976
			vertex 0.776451 5.9927821 -0.27659
			vertex 1.0909359 6.0990939 -0.172717
		endloop
	endfacet
	facet normal -0.007078362687215503 0.7094715070235649 -0.7046985720883646
		outer loop
			vertex 0.776451 5.9927821 -0.27659
			vertex 1.011477 6.1138101 -0.157103
			vertex 1.0909359 6.0990939 -0.172717
		endloop
	endfacet
	facet normal 0.10606004482836813 0.9341647670713622 -0.34071609127470365
		outer loop
			vertex 1.0909359 6.0990939 -0.172717
			vertex 1.011477 6.1138101 -0.157103
			vertex 1.1682 6.1363559 -0.046502
		endloop
	endfacet
	facet normal 0.10605044145800924 0.9341704015711609 -0.34070363176071017
		outer loop
			vertex 1.011477 6.1138101 -0.157103
			vertex 1.078389 6.14608 -0.047795
			vertex 1.1682 6.1363559 -0.046502
		endloop
	endfacet
	facet normal 0.07009774579417731 0.7368297814294217 0.6724345166878672
		outer loop
			vertex 1.1682 6.1363559 -0.046502
			vertex 1.078389 6.14608 -0.047795
			vertex 1.054371 6.0575361 0.051732
		endloop
	endfacet
	facet normal 0.07010116685914554 0.7368291859793588 0.6724348125238474
		outer loop
			vertex 1.078389 6.14608 -0.047795
			vertex 0.979812 6.0778222 0.037276
			vertex 1.054371 6.0575361 0.051732
		endloop
	endfacet
	facet normal -0.06641652132663245 0.4055474853086542 0.9116578759900537
		outer loop
			vertex 1.054371 6.0575361 0.051732
			vertex 0.979812 6.0778222 0.037276
			vertex 0.767315 5.8765168 0.111345
		endloop
	endfacet
	facet normal -0.03934355555804277 0.3813594548537872 0.9235892219107331
		outer loop
			vertex 0.979812 6.0778222 0.037276
			vertex 0.716868 5.9250698 0.089148
			vertex 0.767315 5.8765168 0.111345
		endloop
	endfacet
	facet normal -0.3758756275614379 0.03284198196694864 0.9260879638704836
		outer loop
			vertex 0.767315 5.8765168 0.111345
			vertex 0.716868 5.9250698 0.089148
			vertex 0.501948 5.720644 0.009167
		endloop
	endfacet
	facet normal -0.3758442707625827 0.0328035027615879 0.9261020539559952
		outer loop
			vertex 0.716868 5.9250698 0.089148
			vertex 0.487054 5.7900801 0.000663
			vertex 0.501948 5.720644 0.009167
		endloop
	endfacet
	facet normal -0.8595734785810938 -0.12365302163849957 0.49582594240284267
		outer loop
			vertex 0.501948 5.720644 0.009167
			vertex 0.487054 5.7900801 0.000663
			vertex 0.41218 5.6789842 -0.156846
		endloop
	endfacet
	facet normal -0.8595874809340358 -0.1236206220588088 0.4958097461963327
		outer loop
			vertex 0.487054 5.7900801 0.000663
			vertex 0.409314 5.7540002 -0.143111
			vertex 0.41218 5.6789842 -0.156846
		endloop
	endfacet
	facet normal -0.7232769595975052 0.09753675284778145 -0.6836351523724477
		outer loop
			vertex 0.41218 5.6789842 -0.156846
			vertex 0.409314 5.7540002 -0.143111
			vertex 0.550597 5.7759352 -0.289457
		endloop
	endfacet
	facet normal -0.7232769510369418 0.0975343513120596 -0.6836355040610758
		outer loop
			vertex 0.409314 5.7540002 -0.143111
			vertex 0.529185 5.8379622 -0.257954
			vertex 0.550597 5.7759352 -0.289457
		endloop
	endfacet
	facet normal -0.4926562883323993 0.729768365001207 -0.474054759505702
		outer loop
			vertex 0.529185 5.8379622 -0.257954
			vertex 0.580799 5.920795 -0.184079
			vertex 0.776451 5.9927821 -0.27659
		endloop
	endfacet
	facet normal -0.4599407653174151 0.8236117226068762 -0.3318406587260891
		outer loop
			vertex 0.580799 5.920795 -0.184079
			vertex 0.729315 5.9986191 -0.196771
			vertex 0.776451 5.9927821 -0.27659
		endloop
	endfacet
	facet normal -0.3327893289163544 0.9056556745024663 -0.2627528530784881
		outer loop
			vertex 0.776451 5.9927821 -0.27659
			vertex 0.729315 5.9986191 -0.196771
			vertex 1.011477 6.1138101 -0.157103
		endloop
	endfacet
	facet normal -0.31632105920683745 0.8889216194800427 -0.33129947467999843
		outer loop
			vertex 0.729315 5.9986191 -0.196771
			vertex 0.886603 6.0814691 -0.12465
			vertex 1.011477 6.1138101 -0.157103
		endloop
	endfacet
	facet normal -0.27643375781842505 0.9544199915404329 -0.11254713362118332
		outer loop
			vertex 1.011477 6.1138101 -0.157103
			vertex 0.886603 6.0814691 -0.12465
			vertex 1.078389 6.14608 -0.047795
		endloop
	endfacet
	facet normal -0.27641940786480923 0.954419930379994 -0.11258289145832039
		outer loop
			vertex 0.886603 6.0814691 -0.12465
			vertex 0.925235 6.1001019 -0.061542
			vertex 1.078389 6.14608 -0.047795
		endloop
	endfacet
	facet normal -0.2976437398986389 0.8827968759369756 0.36342520542068607
		outer loop
			vertex 1.078389 6.14608 -0.047795
			vertex 0.925235 6.1001019 -0.061542
			vertex 0.979812 6.0778222 0.037276
		endloop
	endfacet
	facet normal -0.29765044377327887 0.8827934128169922 0.36342812715652295
		outer loop
			vertex 0.925235 6.1001019 -0.061542
			vertex 0.868321 6.0606918 -0.012425
			vertex 0.979812 6.0778222 0.037276
		endloop
	endfacet
	facet normal -0.35086197685938025 0.7799500920732152 0.5182409932351077
		outer loop
			vertex 0.979812 6.0778222 0.037276
			vertex 0.868321 6.0606918 -0.012425
			vertex 0.716868 5.9250698 0.089148
		endloop
	endfacet
	facet normal -0.3866153113156584 0.7891632240686572 0.47723160711949786
		outer loop
			vertex 0.868321 6.0606918 -0.012425
			vertex 0.694916 5.9595251 0.014388
			vertex 0.716868 5.9250698 0.089148
		endloop
	endfacet
	facet normal -0.57443615917063 0.666143440186721 0.47568478652727103
		outer loop
			vertex 0.716868 5.9250698 0.089148
			vertex 0.694916 5.9595251 0.014388
			vertex 0.487054 5.7900801 0.000663
		endloop
	endfacet
	facet normal -0.5029173185295837 0.5638796873558636 0.6550678353502535
		outer loop
			vertex 0.694916 5.9595251 0.014388
			vertex 0.556474 5.8931522 -0.034765
			vertex 0.487054 5.7900801 0.000663
		endloop
	endfacet
	facet normal -0.7574537134102133 0.5992389754363809 0.259184340497329
		outer loop
			vertex 0.487054 5.7900801 0.000663
			vertex 0.556474 5.8931522 -0.034765
			vertex 0.409314 5.7540002 -0.143111
		endloop
	endfacet
	facet normal -0.7574533191988989 0.5992406174498828 0.25918169617635894
		outer loop
			vertex 0.556474 5.8931522 -0.034765
			vertex 0.51159 5.8723202 -0.117773
			vertex 0.409314 5.7540002 -0.143111
		endloop
	endfacet
	facet normal -0.7050629173631661 0.663219458840714 -0.25105025786557555
		outer loop
			vertex 0.409314 5.7540002 -0.143111
			vertex 0.51159 5.8723202 -0.117773
			vertex 0.529185 5.8379622 -0.257954
		endloop
	endfacet
	facet normal -0.7050539930233586 0.6632285286473236 -0.2510513607015989
		outer loop
			vertex 0.51159 5.8723202 -0.117773
			vertex 0.580799 5.920795 -0.184079
			vertex 0.529185 5.8379622 -0.257954
		endloop
	endfacet
	facet normal 0.5026160696399815 -0.831309334847159 -0.23728016422708278
		outer loop
			vertex 0.914272 5.8601351 -0.215954
			vertex 0.911824 5.8289852 -0.112006
			vertex 0.771514 5.770751 -0.205193
		endloop
	endfacet
	facet normal 0.6988723050988009 -0.6895036545215169 -0.1901636441787999
		outer loop
			vertex 1.0116529 5.9396839 -0.1465
			vertex 0.911824 5.8289852 -0.112006
			vertex 0.914272 5.8601351 -0.215954
		endloop
	endfacet
	facet normal 0.6898337729057433 -0.6901950701150569 -0.21854091366949835
		outer loop
			vertex 1.050287 5.9583158 -0.083393
			vertex 0.911824 5.8289852 -0.112006
			vertex 1.0116529 5.9396839 -0.1465
		endloop
	endfacet
	facet normal 0.6544478690136435 -0.7375216026760061 0.1666129416633553
		outer loop
			vertex 0.993371 5.9189072 -0.034274
			vertex 0.911824 5.8289852 -0.112006
			vertex 1.050287 5.9583158 -0.083393
		endloop
	endfacet
	facet normal 0.667440490745141 -0.7304490794371693 0.1448010140271036
		outer loop
			vertex 0.879871 5.8210421 -0.004792
			vertex 0.911824 5.8289852 -0.112006
			vertex 0.993371 5.9189072 -0.034274
		endloop
	endfacet
	facet normal 0.48209168680194264 -0.8725487137461032 0.07903383867988818
		outer loop
			vertex 0.747188 5.7431059 -0.055881
			vertex 0.911824 5.8289852 -0.112006
			vertex 0.879871 5.8210421 -0.004792
		endloop
	endfacet
	facet normal 0.4560898165631398 -0.8896268055631008 -0.02337147943530164
		outer loop
			vertex 0.702305 5.7222762 -0.138889
			vertex 0.911824 5.8289852 -0.112006
			vertex 0.747188 5.7431059 -0.055881
		endloop
	endfacet
	facet normal 0.4640230425941167 -0.8724262325067402 -0.15347665873283056
		outer loop
			vertex 0.771514 5.770751 -0.205193
			vertex 0.911824 5.8289852 -0.112006
			vertex 0.702305 5.7222762 -0.138889
		endloop
	endfacet
	facet normal -0.4671340327481992 0.8824658524518942 -0.05513451464152093
		outer loop
			vertex 0.580799 5.920795 -0.184079
			vertex 0.6991 5.9893112 -0.08975
			vertex 0.729315 5.9986191 -0.196771
		endloop
	endfacet
	facet normal -0.4478770688437935 0.8927622714583848 -0.04880223216572526
		outer loop
			vertex 0.729315 5.9986191 -0.196771
			vertex 0.6991 5.9893112 -0.08975
			vertex 0.886603 6.0814691 -0.12465
		endloop
	endfacet
	facet normal -0.4404170844699702 0.8977818515753263 0.004531963034964502
		outer loop
			vertex 0.886603 6.0814691 -0.12465
			vertex 0.6991 5.9893112 -0.08975
			vertex 0.925235 6.1001019 -0.061542
		endloop
	endfacet
	facet normal -0.4507819127154829 0.8744434675012334 0.17928828548734135
		outer loop
			vertex 0.925235 6.1001019 -0.061542
			vertex 0.6991 5.9893112 -0.08975
			vertex 0.868321 6.0606918 -0.012425
		endloop
	endfacet
	facet normal -0.46452439343085883 0.8561771893521711 0.22622490654370792
		outer loop
			vertex 0.868321 6.0606918 -0.012425
			vertex 0.6991 5.9893112 -0.08975
			vertex 0.694916 5.9595251 0.014388
		endloop
	endfacet
	facet normal -0.4845814431927642 0.8459752405492429 0.22250105008936152
		outer loop
			vertex 0.694916 5.9595251 0.014388
			vertex 0.6991 5.9893112 -0.08975
			vertex 0.556474 5.8931522 -0.034765
		endloop
	endfacet
	facet normal -0.5361560719438351 0.8404143412553201 0.07899621212528841
		outer loop
			vertex 0.556474 5.8931522 -0.034765
			vertex 0.6991 5.9893112 -0.08975
			vertex 0.51159 5.8723202 -0.117773
		endloop
	endfacet
	facet normal -0.5346902032757701 0.8430397308997307 0.05822712980583407
		outer loop
			vertex 0.51159 5.8723202 -0.117773
			vertex 0.6991 5.9893112 -0.08975
			vertex 0.580799 5.920795 -0.184079
		endloop
	endfacet
endsolid exported
