solid exported
	facet normal 0.48557512208562675 -0.8548383595551847 0.18294310548509263
		outer loop
			vertex 0.64627 5.4511628 4.45473
			vertex 0.703358 5.483417 4.4539189
			vertex 0.600625 5.7420058 5.9349051
		endloop
	endfacet
	facet normal 0.47647553121286385 -0.8598901343456251 0.18319395462318633
		outer loop
			vertex 0.703358 5.483417 4.4539189
			vertex 0.65472 5.7713609 5.9319968
			vertex 0.600625 5.7420058 5.9349051
		endloop
	endfacet
	facet normal 0.03956682556527649 -0.9802370719564969 0.1938291749888044
		outer loop
			vertex 0.64627 5.4511628 4.45473
			vertex 0.600625 5.7420058 5.9349051
			vertex 0.574217 5.4484181 4.4555578
		endloop
	endfacet
	facet normal 0.026667412305571077 -0.9806124917802727 0.19413394882248028
		outer loop
			vertex 0.600625 5.7420058 5.9349051
			vertex 0.532497 5.739593 5.932076
			vertex 0.574217 5.4484181 4.4555578
		endloop
	endfacet
	facet normal -0.4164144405996239 -0.894083757918367 0.16496438247898576
		outer loop
			vertex 0.514719 5.4762268 4.4560881
			vertex 0.574217 5.4484181 4.4555578
			vertex 0.476353 5.7650461 5.924602
		endloop
	endfacet
	facet normal -0.42532037100904974 -0.8901476824954334 0.16352273650087248
		outer loop
			vertex 0.574217 5.4484181 4.4555578
			vertex 0.532497 5.739593 5.932076
			vertex 0.476353 5.7650461 5.924602
		endloop
	endfacet
	facet normal -0.8898996371698368 -0.45141673180748826 0.06558635535871266
		outer loop
			vertex 0.490503 5.5239692 4.4561172
			vertex 0.514719 5.4762268 4.4560881
			vertex 0.453645 5.8086381 5.915329
		endloop
	endfacet
	facet normal -0.8906119125004228 -0.4500591219003058 0.06524728428574614
		outer loop
			vertex 0.514719 5.4762268 4.4560881
			vertex 0.476353 5.7650461 5.924602
			vertex 0.453645 5.8086381 5.915329
		endloop
	endfacet
	facet normal -0.920919494791989 0.37753190148229493 -0.09683463985181513
		outer loop
			vertex 0.510822 5.57341 4.4556351
			vertex 0.490503 5.5239692 4.4561172
			vertex 0.473042 5.8537259 5.9078069
		endloop
	endfacet
	facet normal -0.9200327232809331 0.37957206064765703 -0.0972874034393022
		outer loop
			vertex 0.490503 5.5239692 4.4561172
			vertex 0.453645 5.8086381 5.915329
			vertex 0.473042 5.8537259 5.9078069
		endloop
	endfacet
	facet normal -0.4859636837305018 0.8557876508787612 -0.1773888234881003
		outer loop
			vertex 0.56791 5.60566 4.4548259
			vertex 0.510822 5.57341 4.4556351
			vertex 0.527136 5.88308 5.904902
		endloop
	endfacet
	facet normal -0.47667663114534925 0.8607541201878803 -0.17855456840839698
		outer loop
			vertex 0.510822 5.57341 4.4556351
			vertex 0.473042 5.8537259 5.9078069
			vertex 0.527136 5.88308 5.904902
		endloop
	endfacet
	facet normal -0.03958798082604266 0.9813209410240689 -0.18826046446812214
		outer loop
			vertex 0.639965 5.608408 4.4539981
			vertex 0.56791 5.60566 4.4548259
			vertex 0.595265 5.8854942 5.9077291
		endloop
	endfacet
	facet normal -0.02696195890537259 0.9816897191693866 -0.18856921288777767
		outer loop
			vertex 0.56791 5.60566 4.4548259
			vertex 0.527136 5.88308 5.904902
			vertex 0.595265 5.8854942 5.9077291
		endloop
	endfacet
	facet normal 0.4169888128168617 0.8951750369938571 -0.15742294346324087
		outer loop
			vertex 0.699462 5.5805998 4.4534669
			vertex 0.639965 5.608408 4.4539981
			vertex 0.651406 5.8600421 5.915204
		endloop
	endfacet
	facet normal 0.42504497467497965 0.8914791021791094 -0.156849545365855
		outer loop
			vertex 0.639965 5.608408 4.4539981
			vertex 0.595265 5.8854942 5.9077291
			vertex 0.651406 5.8600421 5.915204
		endloop
	endfacet
	facet normal 0.8903851179281235 0.45161683179751877 -0.05706644381151995
		outer loop
			vertex 0.723676 5.5328569 4.4534369
			vertex 0.699462 5.5805998 4.4534669
			vertex 0.674117 5.8164458 5.9244752
		endloop
	endfacet
	facet normal 0.8903520003321862 0.4516807518467084 -0.057077262685478844
		outer loop
			vertex 0.699462 5.5805998 4.4534669
			vertex 0.651406 5.8600421 5.915204
			vertex 0.674117 5.8164458 5.9244752
		endloop
	endfacet
	facet normal 0.9203009964274342 -0.3771985911874457 0.10376559536223115
		outer loop
			vertex 0.703358 5.483417 4.4539189
			vertex 0.723676 5.5328569 4.4534369
			vertex 0.65472 5.7713609 5.9319968
		endloop
	endfacet
	facet normal 0.9197943721580664 -0.3783862203405005 0.10393354224108375
		outer loop
			vertex 0.723676 5.5328569 4.4534369
			vertex 0.674117 5.8164458 5.9244752
			vertex 0.65472 5.7713609 5.9319968
		endloop
	endfacet
	facet normal -0.045401648075994325 0.18099811051305117 0.9824349211742673
		outer loop
			vertex 0.600625 5.7420058 5.9349051
			vertex 0.65472 5.7713609 5.9319968
			vertex 0.565032 5.808949 5.920927
		endloop
	endfacet
	facet normal -0.04717779349098078 0.18007181979202394 0.9825214478667178
		outer loop
			vertex 0.532497 5.739593 5.932076
			vertex 0.600625 5.7420058 5.9349051
			vertex 0.565032 5.808949 5.920927
		endloop
	endfacet
	facet normal -0.04880092299837403 0.1807990168120926 0.9823085998983658
		outer loop
			vertex 0.476353 5.7650461 5.924602
			vertex 0.532497 5.739593 5.932076
			vertex 0.565032 5.808949 5.920927
		endloop
	endfacet
	facet normal -0.04985641859014751 0.18289409061937786 0.9818676535775455
		outer loop
			vertex 0.453645 5.8086381 5.915329
			vertex 0.476353 5.7650461 5.924602
			vertex 0.565032 5.808949 5.920927
		endloop
	endfacet
	facet normal -0.04984131365610221 0.18517789225325448 0.9814402639354451
		outer loop
			vertex 0.473042 5.8537259 5.9078069
			vertex 0.453645 5.8086381 5.915329
			vertex 0.565032 5.808949 5.920927
		endloop
	endfacet
	facet normal -0.04885193987840995 0.18711725088054443 0.9811221240972112
		outer loop
			vertex 0.527136 5.88308 5.904902
			vertex 0.473042 5.8537259 5.9078069
			vertex 0.565032 5.808949 5.920927
		endloop
	endfacet
	facet normal -0.04736703969043127 0.18786133794998003 0.9810527413215911
		outer loop
			vertex 0.595265 5.8854942 5.9077291
			vertex 0.527136 5.88308 5.904902
			vertex 0.565032 5.808949 5.920927
		endloop
	endfacet
	facet normal -0.04575307522513997 0.18725699649693547 0.9812448590287695
		outer loop
			vertex 0.651406 5.8600421 5.915204
			vertex 0.595265 5.8854942 5.9077291
			vertex 0.565032 5.808949 5.920927
		endloop
	endfacet
	facet normal -0.04467649248585195 0.18548035493967102 0.9816318296340106
		outer loop
			vertex 0.674117 5.8164458 5.9244752
			vertex 0.651406 5.8600421 5.915204
			vertex 0.565032 5.808949 5.920927
		endloop
	endfacet
	facet normal -0.04452145544475288 0.18300089515553217 0.9821041250179916
		outer loop
			vertex 0.65472 5.7713609 5.9319968
			vertex 0.674117 5.8164458 5.9244752
			vertex 0.565032 5.808949 5.920927
		endloop
	endfacet
	facet normal 0.07803057822453249 -0.9314406004112304 -0.3554288068903699
		outer loop
			vertex 0.830527 5.9669251 2.4482191
			vertex 0.77879 5.6448078 3.2810049
			vertex 0.736774 5.9646358 2.433636
		endloop
	endfacet
	facet normal 0.04095976022424746 -0.934119791019639 -0.35460190928391544
		outer loop
			vertex 0.77879 5.6448078 3.2810049
			vertex 0.696708 5.6421728 3.278465
			vertex 0.736774 5.9646358 2.433636
		endloop
	endfacet
	facet normal 0.5547406563093948 -0.7870134237046743 -0.2699493936760531
		outer loop
			vertex 0.830527 5.9669251 2.4482191
			vertex 0.905139 6.01437 2.4632239
			vertex 0.77879 5.6448078 3.2810049
		endloop
	endfacet
	facet normal 0.4816049390612836 -0.8241556150600374 -0.29803389880479864
		outer loop
			vertex 0.905139 6.01437 2.4632239
			vertex 0.843845 5.6812348 3.285398
			vertex 0.77879 5.6448078 3.2810049
		endloop
	endfacet
	facet normal 0.9409540419093284 -0.33233154710294344 -0.06450762601942592
		outer loop
			vertex 0.905139 6.01437 2.4632239
			vertex 0.932112 6.0888581 2.4729221
			vertex 0.843845 5.6812348 3.285398
		endloop
	endfacet
	facet normal 0.9237182781533254 -0.3731009777262795 -0.0868343424294221
		outer loop
			vertex 0.932112 6.0888581 2.4729221
			vertex 0.867016 5.7375388 3.289963
			vertex 0.843845 5.6812348 3.285398
		endloop
	endfacet
	facet normal 0.8959993077816419 0.3775622915240259 0.23373479945002812
		outer loop
			vertex 0.932112 6.0888581 2.4729221
			vertex 0.901141 6.1619301 2.4736099
			vertex 0.867016 5.7375388 3.289963
		endloop
	endfacet
	facet normal 0.8686749074074135 0.4237448929971194 0.25660119037054707
		outer loop
			vertex 0.901141 6.1619301 2.4736099
			vertex 0.839461 5.7922158 3.292953
			vertex 0.867016 5.7375388 3.289963
		endloop
	endfacet
	facet normal 0.4184186352758937 0.8156518333313867 0.39954715921528783
		outer loop
			vertex 0.901141 6.1619301 2.4736099
			vertex 0.82406 6.205677 2.4650249
			vertex 0.839461 5.7922158 3.292953
		endloop
	endfacet
	facet normal 0.3934407511509483 0.8253958328808356 0.40487787590424057
		outer loop
			vertex 0.82406 6.205677 2.4650249
			vertex 0.771699 5.824379 3.293232
			vertex 0.839461 5.7922158 3.292953
		endloop
	endfacet
	facet normal -0.08626317973752992 0.9070305531677662 0.4121337640156977
		outer loop
			vertex 0.82406 6.205677 2.4650249
			vertex 0.730308 6.2033868 2.4504421
			vertex 0.771699 5.824379 3.293232
		endloop
	endfacet
	facet normal -0.04197472393282165 0.9104452604944742 0.4114942893818973
		outer loop
			vertex 0.730308 6.2033868 2.4504421
			vertex 0.689615 5.821744 3.290689
			vertex 0.771699 5.824379 3.293232
		endloop
	endfacet
	facet normal -0.5532743860528179 0.7681958501534044 0.322122010339197
		outer loop
			vertex 0.730308 6.2033868 2.4504421
			vertex 0.655695 6.155941 2.435436
			vertex 0.689615 5.821744 3.290689
		endloop
	endfacet
	facet normal -0.47732889495807435 0.8118752692665759 0.3361780379373826
		outer loop
			vertex 0.655695 6.155941 2.435436
			vertex 0.624564 5.7853169 3.2862971
			vertex 0.689615 5.821744 3.290689
		endloop
	endfacet
	facet normal -0.9391938319147666 0.32607092409684435 0.10766939468524632
		outer loop
			vertex 0.655695 6.155941 2.435436
			vertex 0.628723 6.0814562 2.425734
			vertex 0.624564 5.7853169 3.2862971
		endloop
	endfacet
	facet normal -0.9212094258811734 0.369241664732073 0.12261234315339685
		outer loop
			vertex 0.628723 6.0814562 2.425734
			vertex 0.601389 5.7290139 3.281733
			vertex 0.624564 5.7853169 3.2862971
		endloop
	endfacet
	facet normal -0.9052581970962561 -0.38190993211614327 -0.1861515520780824
		outer loop
			vertex 0.628723 6.0814562 2.425734
			vertex 0.659691 6.0083852 2.4250491
			vertex 0.601389 5.7290139 3.281733
		endloop
	endfacet
	facet normal -0.8791838456758944 -0.432127163596511 -0.20075328137935836
		outer loop
			vertex 0.659691 6.0083852 2.4250491
			vertex 0.628946 5.6743369 3.278743
			vertex 0.601389 5.7290139 3.281733
		endloop
	endfacet
	facet normal -0.4348184256765872 -0.833179080999586 -0.3416804877027946
		outer loop
			vertex 0.659691 6.0083852 2.4250491
			vertex 0.736774 5.9646358 2.433636
			vertex 0.628946 5.6743369 3.278743
		endloop
	endfacet
	facet normal -0.4039634179601756 -0.848090028143591 -0.342865660446385
		outer loop
			vertex 0.736774 5.9646358 2.433636
			vertex 0.696708 5.6421728 3.278465
			vertex 0.628946 5.6743369 3.278743
		endloop
	endfacet
	facet normal -0.06063359956198902 -0.9182778334138 -0.39126638913279277
		outer loop
			vertex 0.89736 6.291069 1.642632
			vertex 1.000048 6.2846341 1.641821
			vertex 0.736774 5.9646358 2.433636
		endloop
	endfacet
	facet normal 0.0774319167178611 -0.9330448905701707 -0.3513282374849713
		outer loop
			vertex 1.000048 6.2846341 1.641821
			vertex 0.830527 5.9669251 2.4482191
			vertex 0.736774 5.9646358 2.433636
		endloop
	endfacet
	facet normal 0.42047282132446584 -0.8708219633193555 -0.25469926330491616
		outer loop
			vertex 1.000048 6.2846341 1.641821
			vertex 1.085096 6.3250098 1.644178
			vertex 0.830527 5.9669251 2.4482191
		endloop
	endfacet
	facet normal 0.5535979795771018 -0.8116969426051305 -0.18621855539562848
		outer loop
			vertex 1.085096 6.3250098 1.644178
			vertex 0.905139 6.01437 2.4632239
			vertex 0.830527 5.9669251 2.4482191
		endloop
	endfacet
	facet normal 0.8979977858071059 -0.43891817038506753 0.03083531078747381
		outer loop
			vertex 1.085096 6.3250098 1.644178
			vertex 1.1200171 6.396781 1.648803
			vertex 0.905139 6.01437 2.4632239
		endloop
	endfacet
	facet normal 0.9335569524478576 -0.3487974272149975 0.08253345566779027
		outer loop
			vertex 1.1200171 6.396781 1.648803
			vertex 0.932112 6.0888581 2.4729221
			vertex 0.905139 6.01437 2.4632239
		endloop
	endfacet
	facet normal 0.8931174311459723 0.31484029766149507 0.32127377912248084
		outer loop
			vertex 1.1200171 6.396781 1.648803
			vertex 1.091471 6.4725289 1.653928
			vertex 0.932112 6.0888581 2.4729221
		endloop
	endfacet
	facet normal 0.8671968500289777 0.3643597386655682 0.33942834905083863
		outer loop
			vertex 1.091471 6.4725289 1.653928
			vertex 0.901141 6.1619301 2.4736099
			vertex 0.932112 6.0888581 2.4729221
		endloop
	endfacet
	facet normal 0.4981827639510089 0.766149188013006 0.4059918169238699
		outer loop
			vertex 1.091471 6.4725289 1.653928
			vertex 1.010366 6.5233231 1.657596
			vertex 0.901141 6.1619301 2.4736099
		endloop
	endfacet
	facet normal 0.4138753211348356 0.8105562651629942 0.4143739368741171
		outer loop
			vertex 1.010366 6.5233231 1.657596
			vertex 0.82406 6.205677 2.4650249
			vertex 0.901141 6.1619301 2.4736099
		endloop
	endfacet
	facet normal 0.06086979876116691 0.9239880103303796 0.3775460559514316
		outer loop
			vertex 1.010366 6.5233231 1.657596
			vertex 0.907677 6.529757 1.658406
			vertex 0.82406 6.205677 2.4650249
		endloop
	endfacet
	facet normal -0.07936745334690255 0.9277992849479848 0.3645398389740624
		outer loop
			vertex 0.907677 6.529757 1.658406
			vertex 0.730308 6.2033868 2.4504421
			vertex 0.82406 6.205677 2.4650249
		endloop
	endfacet
	facet normal -0.41965719807994006 0.8684756283190183 0.26388997539804443
		outer loop
			vertex 0.907677 6.529757 1.658406
			vertex 0.822631 6.489378 1.656049
			vertex 0.730308 6.2033868 2.4504421
		endloop
	endfacet
	facet normal -0.554638700116375 0.8013622934308944 0.22404103865228694
		outer loop
			vertex 0.822631 6.489378 1.656049
			vertex 0.655695 6.155941 2.435436
			vertex 0.730308 6.2033868 2.4504421
		endloop
	endfacet
	facet normal -0.8990524232925808 0.43780935892031037 -0.005263593214229545
		outer loop
			vertex 0.822631 6.489378 1.656049
			vertex 0.787709 6.4176092 1.6514241
			vertex 0.655695 6.155941 2.435436
		endloop
	endfacet
	facet normal -0.9376009982679321 0.3450808749007576 -0.042703136005507514
		outer loop
			vertex 0.787709 6.4176092 1.6514241
			vertex 0.628723 6.0814562 2.425734
			vertex 0.655695 6.155941 2.435436
		endloop
	endfacet
	facet normal -0.8934399294380785 -0.3150145431753753 -0.3202045128877655
		outer loop
			vertex 0.787709 6.4176092 1.6514241
			vertex 0.816254 6.3418598 1.646299
			vertex 0.628723 6.0814562 2.425734
		endloop
	endfacet
	facet normal -0.8698097679329405 -0.3655252681814988 -0.33139439634563506
		outer loop
			vertex 0.816254 6.3418598 1.646299
			vertex 0.659691 6.0083852 2.4250491
			vertex 0.628723 6.0814562 2.425734
		endloop
	endfacet
	facet normal -0.4943107403906838 -0.758715277420676 -0.4242735199642806
		outer loop
			vertex 0.816254 6.3418598 1.646299
			vertex 0.89736 6.291069 1.642632
			vertex 0.659691 6.0083852 2.4250491
		endloop
	endfacet
	facet normal -0.41280715492749187 -0.8093384055401902 -0.4178056942626947
		outer loop
			vertex 0.89736 6.291069 1.642632
			vertex 0.736774 5.9646358 2.433636
			vertex 0.659691 6.0083852 2.4250491
		endloop
	endfacet
	facet normal -0.42162546394714395 -0.8866201077387913 -0.19009669303964763
		outer loop
			vertex 0.628946 5.6743369 3.278743
			vertex 0.696708 5.6421728 3.278465
			vertex 0.514719 5.4762268 4.4560881
		endloop
	endfacet
	facet normal -0.41712039672833834 -0.8888306572685878 -0.18971198521096153
		outer loop
			vertex 0.696708 5.6421728 3.278465
			vertex 0.574217 5.4484181 4.4555578
			vertex 0.514719 5.4762268 4.4560881
		endloop
	endfacet
	facet normal 0.03658291868372008 -0.9866566849048901 -0.15865142984881297
		outer loop
			vertex 0.77879 5.6448078 3.2810049
			vertex 0.64627 5.4511628 4.45473
			vertex 0.696708 5.6421728 3.278465
		endloop
	endfacet
	facet normal 0.035762257769900566 -0.9866804907221859 -0.15869048537144853
		outer loop
			vertex 0.64627 5.4511628 4.45473
			vertex 0.574217 5.4484181 4.4555578
			vertex 0.696708 5.6421728 3.278465
		endloop
	endfacet
	facet normal 0.4911827701877476 -0.8666480406603814 -0.08752519574506785
		outer loop
			vertex 0.77879 5.6448078 3.2810049
			vertex 0.843845 5.6812348 3.285398
			vertex 0.64627 5.4511628 4.45473
		endloop
	endfacet
	facet normal 0.4890452808786422 -0.8677965943142621 -0.0881123382217145
		outer loop
			vertex 0.843845 5.6812348 3.285398
			vertex 0.703358 5.483417 4.4539189
			vertex 0.64627 5.4511628 4.45473
		endloop
	endfacet
	facet normal 0.9224558437713942 -0.3833518536300332 0.04600622360532581
		outer loop
			vertex 0.843845 5.6812348 3.285398
			vertex 0.867016 5.7375388 3.289963
			vertex 0.703358 5.483417 4.4539189
		endloop
	endfacet
	facet normal 0.9240728719489442 -0.37930096412332753 0.0471180002031562
		outer loop
			vertex 0.867016 5.7375388 3.289963
			vertex 0.723676 5.5328569 4.4534369
			vertex 0.703358 5.483417 4.4539189
		endloop
	endfacet
	facet normal 0.8816225152467873 0.43418550653573157 0.18499915276627246
		outer loop
			vertex 0.867016 5.7375388 3.289963
			vertex 0.839461 5.7922158 3.292953
			vertex 0.723676 5.5328569 4.4534369
		endloop
	endfacet
	facet normal 0.876216230561475 0.44427754387728013 0.18671524122848557
		outer loop
			vertex 0.839461 5.7922158 3.292953
			vertex 0.699462 5.5805998 4.4534669
			vertex 0.723676 5.5328569 4.4534369
		endloop
	endfacet
	facet normal 0.4198012396929626 0.8826093084154459 0.21158385536391966
		outer loop
			vertex 0.839461 5.7922158 3.292953
			vertex 0.771699 5.824379 3.293232
			vertex 0.699462 5.5805998 4.4534669
		endloop
	endfacet
	facet normal 0.4153724321058334 0.8846648578305712 0.21174001031005024
		outer loop
			vertex 0.771699 5.824379 3.293232
			vertex 0.639965 5.608408 4.4539981
			vertex 0.699462 5.5805998 4.4534669
		endloop
	endfacet
	facet normal -0.03709887062302298 0.9831997798021656 0.17872287709039814
		outer loop
			vertex 0.771699 5.824379 3.293232
			vertex 0.689615 5.821744 3.290689
			vertex 0.639965 5.608408 4.4539981
		endloop
	endfacet
	facet normal -0.03544443593771585 0.98324641973535 0.17880204148351717
		outer loop
			vertex 0.689615 5.821744 3.290689
			vertex 0.56791 5.60566 4.4548259
			vertex 0.639965 5.608408 4.4539981
		endloop
	endfacet
	facet normal -0.4912694447824536 0.8641551433879171 0.10904228894950904
		outer loop
			vertex 0.689615 5.821744 3.290689
			vertex 0.624564 5.7853169 3.2862971
			vertex 0.56791 5.60566 4.4548259
		endloop
	endfacet
	facet normal -0.4877236362521705 0.8661018689240015 0.10951350276250056
		outer loop
			vertex 0.624564 5.7853169 3.2862971
			vertex 0.510822 5.57341 4.4556351
			vertex 0.56791 5.60566 4.4548259
		endloop
	endfacet
	facet normal -0.9239402645689291 0.3819790114132015 -0.02064999632181889
		outer loop
			vertex 0.624564 5.7853169 3.2862971
			vertex 0.601389 5.7290139 3.281733
			vertex 0.510822 5.57341 4.4556351
		endloop
	endfacet
	facet normal -0.9248026734288829 0.37986729857501855 -0.02099644474926508
		outer loop
			vertex 0.601389 5.7290139 3.281733
			vertex 0.490503 5.5239692 4.4561172
			vertex 0.510822 5.57341 4.4556351
		endloop
	endfacet
	facet normal -0.8849906545416076 -0.4372872453291937 -0.15991062018022015
		outer loop
			vertex 0.601389 5.7290139 3.281733
			vertex 0.628946 5.6743369 3.278743
			vertex 0.490503 5.5239692 4.4561172
		endloop
	endfacet
	facet normal -0.8803097856154024 -0.44641472703558305 -0.1605259257425734
		outer loop
			vertex 0.628946 5.6743369 3.278743
			vertex 0.514719 5.4762268 4.4560881
			vertex 0.490503 5.5239692 4.4561172
		endloop
	endfacet
	facet normal -0.5265572492602248 -0.6596487005457861 -0.5362844908439561
		outer loop
			vertex 0.957429 6.686192 1.084144
			vertex 1.037048 6.6270499 1.078716
			vertex 0.816254 6.3418598 1.646299
		endloop
	endfacet
	facet normal -0.46556929211569725 -0.7048067973871862 -0.5352500467965475
		outer loop
			vertex 1.037048 6.6270499 1.078716
			vertex 0.89736 6.291069 1.642632
			vertex 0.816254 6.3418598 1.646299
		endloop
	endfacet
	facet normal -0.12246771687884227 -0.8389807290419615 -0.530200900243203
		outer loop
			vertex 1.037048 6.6270499 1.078716
			vertex 1.1445 6.6087208 1.0829
			vertex 0.89736 6.291069 1.642632
		endloop
	endfacet
	facet normal -0.057752505910780697 -0.8570967609257678 -0.511907990240026
		outer loop
			vertex 1.1445 6.6087208 1.0829
			vertex 1.000048 6.2846341 1.641821
			vertex 0.89736 6.291069 1.642632
		endloop
	endfacet
	facet normal 0.3202152499394509 -0.8531075314661485 -0.41190986084573145
		outer loop
			vertex 1.1445 6.6087208 1.0829
			vertex 1.238742 6.6382041 1.0951
			vertex 1.000048 6.2846341 1.641821
		endloop
	endfacet
	facet normal 0.40770672110448464 -0.837570269186164 -0.3636636821867798
		outer loop
			vertex 1.238742 6.6382041 1.0951
			vertex 1.085096 6.3250098 1.644178
			vertex 1.000048 6.2846341 1.641821
		endloop
	endfacet
	facet normal 0.8322106430396912 -0.5486469591432047 -0.08007471407615735
		outer loop
			vertex 1.238742 6.6382041 1.0951
			vertex 1.2837729 6.7042389 1.110653
			vertex 1.085096 6.3250098 1.644178
		endloop
	endfacet
	facet normal 0.898396114632071 -0.4385940070806224 0.02279732806628829
		outer loop
			vertex 1.2837729 6.7042389 1.110653
			vertex 1.1200171 6.396781 1.648803
			vertex 1.085096 6.3250098 1.644178
		endloop
	endfacet
	facet normal 0.9053056576139895 0.18611901736329417 0.38181327591877134
		outer loop
			vertex 1.2837729 6.7042389 1.110653
			vertex 1.262399 6.781601 1.123621
			vertex 1.1200171 6.396781 1.648803
		endloop
	endfacet
	facet normal 0.848637193379351 0.2898771597472596 0.44247728333789027
		outer loop
			vertex 1.262399 6.781601 1.123621
			vertex 1.091471 6.4725289 1.653928
			vertex 1.1200171 6.396781 1.648803
		endloop
	endfacet
	facet normal 0.5222689321854996 0.6527514362286062 0.5487720154812106
		outer loop
			vertex 1.262399 6.781601 1.123621
			vertex 1.18278 6.8407412 1.1290489
			vertex 1.091471 6.4725289 1.653928
		endloop
	endfacet
	facet normal 0.4568860569706596 0.6888892719044971 0.5627492354510092
		outer loop
			vertex 1.18278 6.8407412 1.1290489
			vertex 1.010366 6.5233231 1.657596
			vertex 1.091471 6.4725289 1.653928
		endloop
	endfacet
	facet normal 0.1210999703805242 0.8330453207213884 0.5397872643903665
		outer loop
			vertex 1.18278 6.8407412 1.1290489
			vertex 1.07533 6.8590722 1.1248651
			vertex 1.010366 6.5233231 1.657596
		endloop
	endfacet
	facet normal 0.05696016917538265 0.8414780617792764 0.5372803836654605
		outer loop
			vertex 1.07533 6.8590722 1.1248651
			vertex 0.907677 6.529757 1.658406
			vertex 1.010366 6.5233231 1.657596
		endloop
	endfacet
	facet normal -0.31998579047077713 0.847862538870665 0.42277441866388044
		outer loop
			vertex 1.07533 6.8590722 1.1248651
			vertex 0.981088 6.8295879 1.112666
			vertex 0.907677 6.529757 1.658406
		endloop
	endfacet
	facet normal -0.40233858722037824 0.8241325327987494 0.3986592901416301
		outer loop
			vertex 0.981088 6.8295879 1.112666
			vertex 0.822631 6.489378 1.656049
			vertex 0.907677 6.529757 1.658406
		endloop
	endfacet
	facet normal -0.8327955918710275 0.5447938968488558 0.09824007388242174
		outer loop
			vertex 0.981088 6.8295879 1.112666
			vertex 0.936055 6.7635531 1.097113
			vertex 0.822631 6.489378 1.656049
		endloop
	endfacet
	facet normal -0.8995502258555494 0.43570301771042663 0.031181268756383818
		outer loop
			vertex 0.936055 6.7635531 1.097113
			vertex 0.787709 6.4176092 1.6514241
			vertex 0.822631 6.489378 1.656049
		endloop
	endfacet
	facet normal -0.9118860638527724 -0.19104419816610105 -0.36327113964388796
		outer loop
			vertex 0.936055 6.7635531 1.097113
			vertex 0.957429 6.686192 1.084144
			vertex 0.787709 6.4176092 1.6514241
		endloop
	endfacet
	facet normal -0.865956472782471 -0.29920882637001656 -0.40074114521523635
		outer loop
			vertex 0.957429 6.686192 1.084144
			vertex 0.816254 6.3418598 1.646299
			vertex 0.787709 6.4176092 1.6514241
		endloop
	endfacet
	facet normal -0.9960587373648082 0.06647207050760903 0.05872355201838237
		outer loop
			vertex -0.83467 5.6340952 4.7609749
			vertex -0.753181 5.8490238 5.899889
			vertex -0.831816 5.6830592 4.7539592
		endloop
	endfacet
	facet normal -0.9406653821566565 0.33898346861869555 0.015454669692658435
		outer loop
			vertex -0.753181 5.8490238 5.899889
			vertex -0.736118 5.8966742 5.893281
			vertex -0.831816 5.6830592 4.7539592
		endloop
	endfacet
	facet normal -0.7894980702327016 -0.5903425959819116 0.16789406323088873
		outer loop
			vertex -0.83467 5.6340952 4.7609749
			vertex -0.79768 5.5824661 4.7533789
			vertex -0.753181 5.8490238 5.899889
		endloop
	endfacet
	facet normal -0.8841850956490984 -0.44626546169779574 0.1380719172302902
		outer loop
			vertex -0.79768 5.5824661 4.7533789
			vertex -0.728796 5.8026528 5.9061689
			vertex -0.753181 5.8490238 5.899889
		endloop
	endfacet
	facet normal -0.4271317120130447 -0.8830891652450387 0.19419584655606464
		outer loop
			vertex -0.79768 5.5824661 4.7533789
			vertex -0.734974 5.5478911 4.7340732
			vertex -0.728796 5.8026528 5.9061689
		endloop
	endfacet
	facet normal -0.3462659969927404 -0.9163510005614072 0.20099926143329916
		outer loop
			vertex -0.734974 5.5478911 4.7340732
			vertex -0.651376 5.7745309 5.911335
			vertex -0.728796 5.8026528 5.9061689
		endloop
	endfacet
	facet normal 0.006666014149597453 -0.9803651618693064 0.19707793800506
		outer loop
			vertex -0.670503 5.5435772 4.710433
			vertex -0.599518 5.7854071 5.911016
			vertex -0.734974 5.5478911 4.7340732
		endloop
	endfacet
	facet normal 0.20324385530620842 -0.9640517257974803 0.1711613427943618
		outer loop
			vertex -0.599518 5.7854071 5.911016
			vertex -0.651376 5.7745309 5.911335
			vertex -0.734974 5.5478911 4.7340732
		endloop
	endfacet
	facet normal 0.5883302982390329 -0.7981708609053157 0.12957907614903502
		outer loop
			vertex -0.628891 5.5711732 4.6914849
			vertex -0.555722 5.821949 5.9039831
			vertex -0.670503 5.5435772 4.710433
		endloop
	endfacet
	facet normal 0.6471962578299394 -0.7538157271911111 0.1135731186956632
		outer loop
			vertex -0.555722 5.821949 5.9039831
			vertex -0.599518 5.7854071 5.911016
			vertex -0.670503 5.5435772 4.710433
		endloop
	endfacet
	facet normal 0.9962926287428895 -0.06594939090969643 -0.05524197454131454
		outer loop
			vertex -0.626039 5.6201348 4.6844692
			vertex -0.541805 5.8815889 5.8915038
			vertex -0.628891 5.5711732 4.6914849
		endloop
	endfacet
	facet normal 0.973251129076207 -0.22946718075181397 -0.011271766041876255
		outer loop
			vertex -0.541805 5.8815889 5.8915038
			vertex -0.555722 5.821949 5.9039831
			vertex -0.628891 5.5711732 4.6914849
		endloop
	endfacet
	facet normal 0.7858094361197735 0.5901931987199318 -0.1848662172757876
		outer loop
			vertex -0.663031 5.6717672 4.6920662
			vertex -0.578948 5.9336772 5.8856359
			vertex -0.626039 5.6201348 4.6844692
		endloop
	endfacet
	facet normal 0.8106173509053581 0.5580431917134688 -0.1774466302678766
		outer loop
			vertex -0.578948 5.9336772 5.8856359
			vertex -0.541805 5.8815889 5.8915038
			vertex -0.626039 5.6201348 4.6844692
		endloop
	endfacet
	facet normal 0.42124447589944386 0.8819755002521185 -0.2113582467736438
		outer loop
			vertex -0.725738 5.7063432 4.7113709
			vertex -0.641873 5.947423 5.8845172
			vertex -0.663031 5.6717672 4.6920662
		endloop
	endfacet
	facet normal 0.21180109153277507 0.9513704923552995 -0.22368389280670184
		outer loop
			vertex -0.641873 5.947423 5.8845172
			vertex -0.578948 5.9336772 5.8856359
			vertex -0.663031 5.6717672 4.6920662
		endloop
	endfacet
	facet normal -0.002966390550030366 0.9823003813981928 -0.1872889778712828
		outer loop
			vertex -0.790208 5.7106562 4.735013
			vertex -0.706168 5.9309759 5.8892231
			vertex -0.725738 5.7063432 4.7113709
		endloop
	endfacet
	facet normal -0.25605297924912457 0.9503226083251151 -0.1769853438107156
		outer loop
			vertex -0.706168 5.9309759 5.8892231
			vertex -0.641873 5.947423 5.8845172
			vertex -0.725738 5.7063432 4.7113709
		endloop
	endfacet
	facet normal -0.5817946435423174 0.8068621845598736 -0.10241292824998578
		outer loop
			vertex -0.831816 5.6830592 4.7539592
			vertex -0.736118 5.8966742 5.893281
			vertex -0.790208 5.7106562 4.735013
		endloop
	endfacet
	facet normal -0.7555091968596728 0.6514579386425541 -0.06934268267125644
		outer loop
			vertex -0.736118 5.8966742 5.893281
			vertex -0.706168 5.9309759 5.8892231
			vertex -0.790208 5.7106562 4.735013
		endloop
	endfacet
	facet normal 0.020017059355090096 0.13029857107117984 0.9912727171225805
		outer loop
			vertex -0.736118 5.8966742 5.893281
			vertex -0.753181 5.8490238 5.899889
			vertex -0.645624 5.8655262 5.8955479
		endloop
	endfacet
	facet normal 0.01793007493702352 0.14343382844148708 0.9894974731000433
		outer loop
			vertex -0.753181 5.8490238 5.899889
			vertex -0.728796 5.8026528 5.9061689
			vertex -0.645624 5.8655262 5.8955479
		endloop
	endfacet
	facet normal -0.0035719764737063625 0.17115809993346898 0.9852371013168537
		outer loop
			vertex -0.728796 5.8026528 5.9061689
			vertex -0.651376 5.7745309 5.911335
			vertex -0.645624 5.8655262 5.8955479
		endloop
	endfacet
	facet normal -0.03016706183295325 0.17271309960128292 0.984510098275525
		outer loop
			vertex -0.651376 5.7745309 5.911335
			vertex -0.599518 5.7854071 5.911016
			vertex -0.645624 5.8655262 5.8955479
		endloop
	endfacet
	facet normal -0.00033352375480193147 0.1893782409160299 0.9819041555210241
		outer loop
			vertex -0.599518 5.7854071 5.911016
			vertex -0.555722 5.821949 5.9039831
			vertex -0.645624 5.8655262 5.8955479
		endloop
	endfacet
	facet normal 0.006683191977710297 0.2033096764428557 0.9790916762028419
		outer loop
			vertex -0.555722 5.821949 5.9039831
			vertex -0.541805 5.8815889 5.8915038
			vertex -0.645624 5.8655262 5.8955479
		endloop
	endfacet
	facet normal 0.019228438974565693 0.12545330136654476 0.9919131697436205
		outer loop
			vertex -0.541805 5.8815889 5.8915038
			vertex -0.578948 5.9336772 5.8856359
			vertex -0.645624 5.8655262 5.8955479
		endloop
	endfacet
	facet normal 0.011425944942918237 0.13296214824161445 0.9910552532110087
		outer loop
			vertex -0.578948 5.9336772 5.8856359
			vertex -0.641873 5.947423 5.8845172
			vertex -0.645624 5.8655262 5.8955479
		endloop
	endfacet
	facet normal 0.03882596830367087 0.13163742096528014 0.9905372954043136
		outer loop
			vertex -0.641873 5.947423 5.8845172
			vertex -0.706168 5.9309759 5.8892231
			vertex -0.645624 5.8655262 5.8955479
		endloop
	endfacet
	facet normal 0.01197761839780214 0.1071525483050631 0.994170442152274
		outer loop
			vertex -0.706168 5.9309759 5.8892231
			vertex -0.736118 5.8966742 5.893281
			vertex -0.645624 5.8655262 5.8955479
		endloop
	endfacet
	facet normal -0.14998666993693657 -0.8289557479382639 -0.5388286989399714
		outer loop
			vertex -0.863587 6.173697 2.0310731
			vertex -1.004324 5.5067658 3.096282
			vertex -0.938571 6.1868749 2.031672
		endloop
	endfacet
	facet normal -0.894371824419479 -0.3498603783153901 -0.27874137721117914
		outer loop
			vertex -1.004324 5.5067658 3.096282
			vertex -1.032135 5.5613751 3.1169741
			vertex -0.938571 6.1868749 2.031672
		endloop
	endfacet
	facet normal -0.7031297288867107 -0.5881600085889376 -0.3995952810686858
		outer loop
			vertex -0.938571 6.1868749 2.031672
			vertex -1.032135 5.5613751 3.1169741
			vertex -0.97506 6.227334 2.0363269
		endloop
	endfacet
	facet normal -0.9806650200592033 0.1854484431786363 0.06248994603056211
		outer loop
			vertex -1.032135 5.5613751 3.1169741
			vertex -1.02213 5.6127882 3.121408
			vertex -0.97506 6.227334 2.0363269
		endloop
	endfacet
	facet normal -0.9543361109971864 0.2757957437646581 0.11480111048271815
		outer loop
			vertex -0.97506 6.227334 2.0363269
			vertex -1.02213 5.6127882 3.121408
			vertex -0.959115 6.2796221 2.0432611
		endloop
	endfacet
	facet normal -0.3735746848784349 0.7985091918782058 0.4720434570079252
		outer loop
			vertex -1.02213 5.6127882 3.121408
			vertex -0.978128 5.641366 3.1078889
			vertex -0.959115 6.2796221 2.0432611
		endloop
	endfacet
	facet normal -0.5536304199086757 0.7185652630205308 0.4209006069513074
		outer loop
			vertex -0.959115 6.2796221 2.0432611
			vertex -0.978128 5.641366 3.1078889
			vertex -0.896827 6.3237681 2.049825
		endloop
	endfacet
	facet normal 0.29635066712029506 0.7920925814223126 0.5336343547346754
		outer loop
			vertex -0.978128 5.641366 3.1078889
			vertex -0.916939 5.636198 3.081579
			vertex -0.896827 6.3237681 2.049825
		endloop
	endfacet
	facet normal -0.20750866787014746 0.8158978306396333 0.5396766464433098
		outer loop
			vertex -0.896827 6.3237681 2.049825
			vertex -0.916939 5.636198 3.081579
			vertex -0.81199 6.342906 2.0535121
		endloop
	endfacet
	facet normal 0.6495841241876108 0.5939592242790318 0.47460815995646916
		outer loop
			vertex -0.916939 5.636198 3.081579
			vertex -0.861933 5.5992532 3.0525291
			vertex -0.81199 6.342906 2.0535121
		endloop
	endfacet
	facet normal 0.14365964033259257 0.7903829065032308 0.5955306615507009
		outer loop
			vertex -0.81199 6.342906 2.0535121
			vertex -0.861933 5.5992532 3.0525291
			vertex -0.737006 6.3297291 2.052912
		endloop
	endfacet
	facet normal 0.8830380691450036 0.3194489225682865 0.3437966758283518
		outer loop
			vertex -0.861933 5.5992532 3.0525291
			vertex -0.834121 5.544642 3.0318379
			vertex -0.737006 6.3297291 2.052912
		endloop
	endfacet
	facet normal 0.6694006496533228 0.54572342481854 0.5040721315923276
		outer loop
			vertex -0.737006 6.3297291 2.052912
			vertex -0.834121 5.544642 3.0318379
			vertex -0.700516 6.289269 2.0482571
		endloop
	endfacet
	facet normal 0.9816955396524365 -0.19016101922972015 -0.010613867910704577
		outer loop
			vertex -0.834121 5.544642 3.0318379
			vertex -0.844128 5.4932289 3.0274041
			vertex -0.700516 6.289269 2.0482571
		endloop
	endfacet
	facet normal 0.9560271324865112 -0.2799577824905913 -0.0873828471301408
		outer loop
			vertex -0.700516 6.289269 2.0482571
			vertex -0.844128 5.4932289 3.0274041
			vertex -0.716462 6.23698 2.041321
		endloop
	endfacet
	facet normal 0.33606180924914664 -0.7723415560632721 -0.539027811102501
		outer loop
			vertex -0.844128 5.4932289 3.0274041
			vertex -0.888126 5.4646502 3.0409219
			vertex -0.716462 6.23698 2.041321
		endloop
	endfacet
	facet normal 0.5472485816346989 -0.7051599114353152 -0.4508530683086774
		outer loop
			vertex -0.716462 6.23698 2.041321
			vertex -0.888126 5.4646502 3.0409219
			vertex -0.778749 6.1928382 2.0347569
		endloop
	endfacet
	facet normal -0.3125594182045049 -0.7530522134138404 -0.5789809789312403
		outer loop
			vertex -0.888126 5.4646502 3.0409219
			vertex -0.949318 5.4698191 3.0672331
			vertex -0.778749 6.1928382 2.0347569
		endloop
	endfacet
	facet normal 0.21133505977988692 -0.840749934903738 -0.4984747129666581
		outer loop
			vertex -0.863587 6.173697 2.0310731
			vertex -0.778749 6.1928382 2.0347569
			vertex -1.004324 5.5067658 3.096282
		endloop
	endfacet
	facet normal -0.6489196311637132 -0.5687013604306163 -0.50545234684856
		outer loop
			vertex -0.778749 6.1928382 2.0347569
			vertex -0.949318 5.4698191 3.0672331
			vertex -1.004324 5.5067658 3.096282
		endloop
	endfacet
	facet normal 0.40805240143820615 -0.80896285045792 -0.42316940373745143
		outer loop
			vertex -1.087739 6.5534081 1.18714
			vertex -1.009727 6.5871911 1.197783
			vertex -0.938571 6.1868749 2.031672
		endloop
	endfacet
	facet normal -0.16062535433900804 -0.8950742995447122 -0.4159825643437608
		outer loop
			vertex -1.009727 6.5871911 1.197783
			vertex -0.863587 6.173697 2.0310731
			vertex -0.938571 6.1868749 2.031672
		endloop
	endfacet
	facet normal -0.3139034379883364 -0.8995518938829465 -0.3037614554723935
		outer loop
			vertex -1.16131 6.5781832 1.189799
			vertex -1.087739 6.5534081 1.18714
			vertex -0.97506 6.227334 2.0363269
		endloop
	endfacet
	facet normal -0.7426119245848617 -0.652263369906712 -0.15192111684129944
		outer loop
			vertex -1.087739 6.5534081 1.18714
			vertex -0.938571 6.1868749 2.031672
			vertex -0.97506 6.227334 2.0363269
		endloop
	endfacet
	facet normal -0.8306674316534406 0.43409087334717084 0.34864986973605416
		outer loop
			vertex -1.096773 6.7021899 1.189164
			vertex -1.16131 6.5781832 1.189799
			vertex -0.959115 6.2796221 2.0432611
		endloop
	endfacet
	facet normal -0.9220811319738693 0.24103215601801575 0.30277035162494836
		outer loop
			vertex -1.16131 6.5781832 1.189799
			vertex -0.97506 6.227334 2.0363269
			vertex -0.959115 6.2796221 2.0432611
		endloop
	endfacet
	facet normal -0.6343157330817676 0.6425339856494666 0.4298762938920347
		outer loop
			vertex -1.024106 6.765974 1.201052
			vertex -1.096773 6.7021899 1.189164
			vertex -0.896827 6.3237681 2.049825
		endloop
	endfacet
	facet normal -0.5496721403178698 0.7101491619275894 0.43994170747033584
		outer loop
			vertex -1.096773 6.7021899 1.189164
			vertex -0.959115 6.2796221 2.0432611
			vertex -0.896827 6.3237681 2.049825
		endloop
	endfacet
	facet normal -0.12845922618587066 0.8752320062055844 0.46633374585276915
		outer loop
			vertex -0.930917 6.7722321 1.214977
			vertex -1.024106 6.765974 1.201052
			vertex -0.81199 6.342906 2.0535121
		endloop
	endfacet
	facet normal -0.2131313050476062 0.8530177268610557 0.47637779594508994
		outer loop
			vertex -1.024106 6.765974 1.201052
			vertex -0.896827 6.3237681 2.049825
			vertex -0.81199 6.342906 2.0535121
		endloop
	endfacet
	facet normal 0.21948415110736866 0.8827685502087251 0.41538704141446625
		outer loop
			vertex -0.852795 6.7478018 1.2256171
			vertex -0.930917 6.7722321 1.214977
			vertex -0.737006 6.3297291 2.052912
		endloop
	endfacet
	facet normal 0.1594546683589651 0.8877179135191312 0.4318924805501632
		outer loop
			vertex -0.930917 6.7722321 1.214977
			vertex -0.81199 6.342906 2.0535121
			vertex -0.737006 6.3297291 2.052912
		endloop
	endfacet
	facet normal 0.7899278819392016 0.5860516422463155 0.18043673117035633
		outer loop
			vertex -0.819582 6.7020211 1.228909
			vertex -0.852795 6.7478018 1.2256171
			vertex -0.700516 6.289269 2.0482571
		endloop
	endfacet
	facet normal 0.7368699765662441 0.6392640424371305 0.219918443251587
		outer loop
			vertex -0.852795 6.7478018 1.2256171
			vertex -0.737006 6.3297291 2.052912
			vertex -0.700516 6.289269 2.0482571
		endloop
	endfacet
	facet normal 0.8605714675489406 -0.3872132467811202 -0.3308816265039294
		outer loop
			vertex -0.843964 6.6523728 1.223596
			vertex -0.819582 6.7020211 1.228909
			vertex -0.716462 6.23698 2.041321
		endloop
	endfacet
	facet normal 0.932410469642731 -0.249688559205709 -0.2612782798136861
		outer loop
			vertex -0.819582 6.7020211 1.228909
			vertex -0.700516 6.289269 2.0482571
			vertex -0.716462 6.23698 2.041321
		endloop
	endfacet
	facet normal 0.5476153446285001 -0.708376086032995 -0.445332185075348
		outer loop
			vertex -0.916577 6.603713 1.211707
			vertex -0.843964 6.6523728 1.223596
			vertex -0.778749 6.1928382 2.0347569
		endloop
	endfacet
	facet normal 0.548527575985278 -0.7078214569792797 -0.44509132031915083
		outer loop
			vertex -0.843964 6.6523728 1.223596
			vertex -0.716462 6.23698 2.041321
			vertex -0.778749 6.1928382 2.0347569
		endloop
	endfacet
	facet normal 0.22150556820422743 -0.8575018034670604 -0.46435540301073436
		outer loop
			vertex -1.009727 6.5871911 1.197783
			vertex -0.916577 6.603713 1.211707
			vertex -0.863587 6.173697 2.0310731
		endloop
	endfacet
	facet normal 0.21402967156962055 -0.8591827137345559 -0.46475408993092737
		outer loop
			vertex -0.916577 6.603713 1.211707
			vertex -0.778749 6.1928382 2.0347569
			vertex -0.863587 6.173697 2.0310731
		endloop
	endfacet
	facet normal -0.4251662710192993 -0.8678335869039525 0.25709629991301686
		outer loop
			vertex -0.934315 5.400558 3.913388
			vertex -0.876016 5.364625 3.8885059
			vertex -0.79768 5.5824661 4.7533789
		endloop
	endfacet
	facet normal -0.40450592482104974 -0.8774894798030114 0.25765707756572087
		outer loop
			vertex -0.876016 5.364625 3.8885059
			vertex -0.734974 5.5478911 4.7340732
			vertex -0.79768 5.5824661 4.7533789
		endloop
	endfacet
	facet normal 0.009618862758600223 -0.9775611354536045 0.21043218368370112
		outer loop
			vertex -0.813422 5.3598232 3.863338
			vertex -0.670503 5.5435772 4.710433
			vertex -0.876016 5.364625 3.8885059
		endloop
	endfacet
	facet normal 0.01157230337147614 -0.9776412333465312 0.209961188450037
		outer loop
			vertex -0.670503 5.5435772 4.710433
			vertex -0.734974 5.5478911 4.7340732
			vertex -0.876016 5.364625 3.8885059
		endloop
	endfacet
	facet normal 0.5672921766375862 -0.8193536273522662 0.08269957479016177
		outer loop
			vertex -0.770444 5.3879809 3.8474979
			vertex -0.628891 5.5711732 4.6914849
			vertex -0.813422 5.3598232 3.863338
		endloop
	endfacet
	facet normal 0.5757905006849708 -0.8137354382243142 0.07937213553152232
		outer loop
			vertex -0.628891 5.5711732 4.6914849
			vertex -0.670503 5.5435772 4.710433
			vertex -0.813422 5.3598232 3.863338
		endloop
	endfacet
	facet normal 0.9813917721854223 -0.1365976670706551 -0.13494912685012397
		outer loop
			vertex -0.770444 5.3879809 3.8474979
			vertex -0.763498 5.4383459 3.8470311
			vertex -0.628891 5.5711732 4.6914849
		endloop
	endfacet
	facet normal 0.9863464971615787 -0.07822017237214844 -0.14492133097358512
		outer loop
			vertex -0.763498 5.4383459 3.8470311
			vertex -0.626039 5.6201348 4.6844692
			vertex -0.628891 5.5711732 4.6914849
		endloop
	endfacet
	facet normal 0.8007571135062984 0.5461180311976559 -0.24605515879545656
		outer loop
			vertex -0.795235 5.4916811 3.862124
			vertex -0.663031 5.6717672 4.6920662
			vertex -0.763498 5.4383459 3.8470311
		endloop
	endfacet
	facet normal 0.7682491832767769 0.5877381811057252 -0.2536868598589593
		outer loop
			vertex -0.663031 5.6717672 4.6920662
			vertex -0.626039 5.6201348 4.6844692
			vertex -0.763498 5.4383459 3.8470311
		endloop
	endfacet
	facet normal 0.4264674187292721 0.8680172687708796 -0.2543060397983785
		outer loop
			vertex -0.853535 5.5276141 3.8870051
			vertex -0.725738 5.7063432 4.7113709
			vertex -0.795235 5.4916811 3.862124
		endloop
	endfacet
	facet normal 0.405485745892774 0.8777957301380096 -0.25506071047744594
		outer loop
			vertex -0.725738 5.7063432 4.7113709
			vertex -0.663031 5.6717672 4.6920662
			vertex -0.795235 5.4916811 3.862124
		endloop
	endfacet
	facet normal -0.00954635041457697 0.977590393683061 -0.21029952299603583
		outer loop
			vertex -0.916128 5.5324168 3.9121721
			vertex -0.790208 5.7106562 4.735013
			vertex -0.853535 5.5276141 3.8870051
		endloop
	endfacet
	facet normal -0.011661983804748454 0.9776009300211447 -0.21014380732139382
		outer loop
			vertex -0.790208 5.7106562 4.735013
			vertex -0.725738 5.7063432 4.7113709
			vertex -0.853535 5.5276141 3.8870051
		endloop
	endfacet
	facet normal -0.5686538833497329 0.8177067895061233 -0.08937766693563526
		outer loop
			vertex -0.959108 5.5042591 3.928015
			vertex -0.831816 5.6830592 4.7539592
			vertex -0.916128 5.5324168 3.9121721
		endloop
	endfacet
	facet normal -0.5779317968893676 0.8114000819504994 -0.08731978673215983
		outer loop
			vertex -0.831816 5.6830592 4.7539592
			vertex -0.790208 5.7106562 4.735013
			vertex -0.916128 5.5324168 3.9121721
		endloop
	endfacet
	facet normal -0.9826382468607554 0.13664536403287278 0.12549948324493174
		outer loop
			vertex -0.966053 5.4538922 3.928477
			vertex -0.83467 5.6340952 4.7609749
			vertex -0.959108 5.5042591 3.928015
		endloop
	endfacet
	facet normal -0.9877720604255802 0.07699893420603035 0.1355637148124065
		outer loop
			vertex -0.83467 5.6340952 4.7609749
			vertex -0.831816 5.6830592 4.7539592
			vertex -0.959108 5.5042591 3.928015
		endloop
	endfacet
	facet normal -0.799909476016297 -0.5462898051567892 0.248419562355888
		outer loop
			vertex -0.934315 5.400558 3.913388
			vertex -0.79768 5.5824661 4.7533789
			vertex -0.966053 5.4538922 3.928477
		endloop
	endfacet
	facet normal -0.7696494627832786 -0.5880175338787814 0.2487470287029113
		outer loop
			vertex -0.79768 5.5824661 4.7533789
			vertex -0.83467 5.6340952 4.7609749
			vertex -0.966053 5.4538922 3.928477
		endloop
	endfacet
	facet normal 0.8891118415982971 0.4575204292869672 -0.012457524423168638
		outer loop
			vertex -0.861933 5.5992532 3.0525291
			vertex -0.795235 5.4916811 3.862124
			vertex -0.834121 5.544642 3.0318379
		endloop
	endfacet
	facet normal 0.8584082370421102 0.5129125209960935 -0.007486279696116434
		outer loop
			vertex -0.795235 5.4916811 3.862124
			vertex -0.763498 5.4383459 3.8470311
			vertex -0.834121 5.544642 3.0318379
		endloop
	endfacet
	facet normal 0.5794646021787722 0.8124869485084567 0.06391974127931133
		outer loop
			vertex -0.916939 5.636198 3.081579
			vertex -0.853535 5.5276141 3.8870051
			vertex -0.861933 5.5992532 3.0525291
		endloop
	endfacet
	facet normal 0.5439008660762916 0.8365229843774874 0.06634112216146217
		outer loop
			vertex -0.853535 5.5276141 3.8870051
			vertex -0.795235 5.4916811 3.862124
			vertex -0.861933 5.5992532 3.0525291
		endloop
	endfacet
	facet normal 0.13579352858142046 0.9831091214055899 0.12270522810596256
		outer loop
			vertex -0.978128 5.641366 3.1078889
			vertex -0.916128 5.5324168 3.9121721
			vertex -0.916939 5.636198 3.081579
		endloop
	endfacet
	facet normal 0.12495323624121871 0.98452229539164 0.12289238637776732
		outer loop
			vertex -0.916128 5.5324168 3.9121721
			vertex -0.853535 5.5276141 3.8870051
			vertex -0.916939 5.636198 3.081579
		endloop
	endfacet
	facet normal -0.5045456344350586 0.8495879724836847 0.15373346995233803
		outer loop
			vertex -1.02213 5.6127882 3.121408
			vertex -0.959108 5.5042591 3.928015
			vertex -0.978128 5.641366 3.1078889
		endloop
	endfacet
	facet normal -0.501128252150007 0.8515628504559754 0.15398437135103438
		outer loop
			vertex -0.959108 5.5042591 3.928015
			vertex -0.916128 5.5324168 3.9121721
			vertex -0.978128 5.641366 3.1078889
		endloop
	endfacet
	facet normal -0.9779371775314638 0.1813673329072822 0.10365696964456235
		outer loop
			vertex -1.032135 5.5613751 3.1169741
			vertex -0.966053 5.4538922 3.928477
			vertex -1.02213 5.6127882 3.121408
		endloop
	endfacet
	facet normal -0.9859852523443442 0.13683122249537336 0.09544788478474395
		outer loop
			vertex -0.966053 5.4538922 3.928477
			vertex -0.959108 5.5042591 3.928015
			vertex -1.02213 5.6127882 3.121408
		endloop
	endfacet
	facet normal -0.8884347913732026 -0.4587062811340114 0.016497549086436348
		outer loop
			vertex -1.004324 5.5067658 3.096282
			vertex -0.934315 5.400558 3.913388
			vertex -1.032135 5.5613751 3.1169741
		endloop
	endfacet
	facet normal -0.8590821591008023 -0.5118331354426539 0.002164573317273444
		outer loop
			vertex -0.934315 5.400558 3.913388
			vertex -0.966053 5.4538922 3.928477
			vertex -1.032135 5.5613751 3.1169741
		endloop
	endfacet
	facet normal -0.5770665482364842 -0.8147433233827822 -0.05645808985087103
		outer loop
			vertex -1.004324 5.5067658 3.096282
			vertex -0.949318 5.4698191 3.0672331
			vertex -0.934315 5.400558 3.913388
		endloop
	endfacet
	facet normal -0.5419155392641425 -0.8383584296961745 -0.05901433437240547
		outer loop
			vertex -0.949318 5.4698191 3.0672331
			vertex -0.876016 5.364625 3.8885059
			vertex -0.934315 5.400558 3.913388
		endloop
	endfacet
	facet normal -0.13199383907042553 -0.9847281194188744 -0.11352602024742155
		outer loop
			vertex -0.888126 5.4646502 3.0409219
			vertex -0.813422 5.3598232 3.863338
			vertex -0.949318 5.4698191 3.0672331
		endloop
	endfacet
	facet normal -0.12201517893027386 -0.985799346835876 -0.11537739765037913
		outer loop
			vertex -0.813422 5.3598232 3.863338
			vertex -0.876016 5.364625 3.8885059
			vertex -0.949318 5.4698191 3.0672331
		endloop
	endfacet
	facet normal 0.5044056181988549 -0.8495594208943104 -0.15434948234171403
		outer loop
			vertex -0.844128 5.4932289 3.0274041
			vertex -0.770444 5.3879809 3.8474979
			vertex -0.888126 5.4646502 3.0409219
		endloop
	endfacet
	facet normal 0.5011256660045316 -0.8515506563411904 -0.15406020432416223
		outer loop
			vertex -0.770444 5.3879809 3.8474979
			vertex -0.813422 5.3598232 3.863338
			vertex -0.888126 5.4646502 3.0409219
		endloop
	endfacet
	facet normal 0.9775182604301058 -0.18092558386938287 -0.10827734586340222
		outer loop
			vertex -0.834121 5.544642 3.0318379
			vertex -0.763498 5.4383459 3.8470311
			vertex -0.844128 5.4932289 3.0274041
		endloop
	endfacet
	facet normal 0.984903677688035 -0.13681415961162538 -0.10605013628632426
		outer loop
			vertex -0.763498 5.4383459 3.8470311
			vertex -0.770444 5.3879809 3.8474979
			vertex -0.844128 5.4932289 3.0274041
		endloop
	endfacet
endsolid exported
