solid exported
	facet normal -0.7355775916775626 -0.6337569292115466 -0.23932772780893505
		outer loop
			vertex -1.734814 1.3532161 -0.96047
			vertex -1.759485 1.368006 -0.923808
			vertex -1.736505 1.359656 -0.972326
		endloop
	endfacet
	facet normal -0.027692614012137646 -0.9872437377890758 0.15678941713467018
		outer loop
			vertex -1.759485 1.368006 -0.923808
			vertex -1.768487 1.3679971 -0.925454
			vertex -1.736505 1.359656 -0.972326
		endloop
	endfacet
	facet normal 0.6768784281896352 -0.41658572759524415 0.6068705998938076
		outer loop
			vertex -1.734594 1.365219 -0.952476
			vertex -1.759096 1.379094 -0.915623
			vertex -1.734814 1.3532161 -0.96047
		endloop
	endfacet
	facet normal 0.6285702283314428 -0.4760606116334162 0.6150331390312034
		outer loop
			vertex -1.759096 1.379094 -0.915623
			vertex -1.759485 1.368006 -0.923808
			vertex -1.734814 1.3532161 -0.96047
		endloop
	endfacet
	facet normal 0.8429896606841297 0.056372093853248165 0.5349678672726582
		outer loop
			vertex -1.7423 1.383477 -0.942257
			vertex -1.7674659 1.397027 -0.904029
			vertex -1.734594 1.365219 -0.952476
		endloop
	endfacet
	facet normal 0.8390808086517095 0.04091165744972314 0.5424662504129727
		outer loop
			vertex -1.7674659 1.397027 -0.904029
			vertex -1.759096 1.379094 -0.915623
			vertex -1.734594 1.365219 -0.952476
		endloop
	endfacet
	facet normal 0.823663941926325 0.4000683737752436 0.4018992499062666
		outer loop
			vertex -1.754987 1.401015 -0.933714
			vertex -1.7814029 1.414952 -0.89345
			vertex -1.7423 1.383477 -0.942257
		endloop
	endfacet
	facet normal 0.8230591221285545 0.4048584923654377 0.3983255987763755
		outer loop
			vertex -1.7814029 1.414952 -0.89345
			vertex -1.7674659 1.397027 -0.904029
			vertex -1.7423 1.383477 -0.942257
		endloop
	endfacet
	facet normal 0.6384948605162982 0.7540113831533236 0.15424379134825758
		outer loop
			vertex -1.767809 1.411136 -0.930113
			vertex -1.795585 1.4260271 -0.887928
			vertex -1.754987 1.401015 -0.933714
		endloop
	endfacet
	facet normal 0.6463136408998337 0.7447436693156753 0.16623941951602492
		outer loop
			vertex -1.795585 1.4260271 -0.887928
			vertex -1.7814029 1.414952 -0.89345
			vertex -1.754987 1.401015 -0.933714
		endloop
	endfacet
	facet normal -0.014911258566830982 0.9341948145084342 -0.3564515435700976
		outer loop
			vertex -1.775871 1.409971 -0.932829
			vertex -1.804589 1.426017 -0.889574
			vertex -1.767809 1.411136 -0.930113
		endloop
	endfacet
	facet normal 0.05389163593777355 0.952213078549339 -0.3006425529021816
		outer loop
			vertex -1.804589 1.426017 -0.889574
			vertex -1.795585 1.4260271 -0.887928
			vertex -1.767809 1.411136 -0.930113
		endloop
	endfacet
	facet normal -0.6793637654454951 0.4151727265234155 -0.60505907261261
		outer loop
			vertex -1.775871 1.409971 -0.932829
			vertex -1.776089 1.397967 -0.940821
			vertex -1.804589 1.426017 -0.889574
		endloop
	endfacet
	facet normal -0.6336339557367773 0.47369114013153807 -0.6116573500729372
		outer loop
			vertex -1.776089 1.397967 -0.940821
			vertex -1.804978 1.414929 -0.897758
			vertex -1.804589 1.426017 -0.889574
		endloop
	endfacet
	facet normal -0.8361014021509386 -0.04695347384460301 -0.5465618140843345
		outer loop
			vertex -1.768383 1.379712 -0.951041
			vertex -1.7966059 1.396997 -0.909352
			vertex -1.776089 1.397967 -0.940821
		endloop
	endfacet
	facet normal -0.836583529243238 -0.03719421215220619 -0.5465753280027422
		outer loop
			vertex -1.7966059 1.396997 -0.909352
			vertex -1.804978 1.414929 -0.897758
			vertex -1.776089 1.397967 -0.940821
		endloop
	endfacet
	facet normal -0.8261903410696708 -0.40865709588674964 -0.3878258607991336
		outer loop
			vertex -1.755698 1.362174 -0.959584
			vertex -1.782668 1.37907 -0.919933
			vertex -1.768383 1.379712 -0.951041
		endloop
	endfacet
	facet normal -0.8245586479436081 -0.4125678991334755 -0.38715728677890054
		outer loop
			vertex -1.782668 1.37907 -0.919933
			vertex -1.7966059 1.396997 -0.909352
			vertex -1.768383 1.379712 -0.951041
		endloop
	endfacet
	facet normal -0.02354742089433211 -0.9869076792357883 0.1595579883135153
		outer loop
			vertex -1.736505 1.359656 -0.972326
			vertex -1.768487 1.3679971 -0.925454
			vertex -1.755698 1.362174 -0.959584
		endloop
	endfacet
	facet normal -0.6377675042788685 -0.7624933456633992 -0.10888759481658052
		outer loop
			vertex -1.768487 1.3679971 -0.925454
			vertex -1.782668 1.37907 -0.919933
			vertex -1.755698 1.362174 -0.959584
		endloop
	endfacet
	facet normal -0.16167871635185052 -0.4334269522988702 0.8865670136542027
		outer loop
			vertex -1.768487 1.3679971 -0.925454
			vertex -1.759485 1.368006 -0.923808
			vertex -1.775695 1.394843 -0.913644
		endloop
	endfacet
	facet normal -0.4154816174026342 -0.5307317884655546 0.7387142846274499
		outer loop
			vertex -1.759485 1.368006 -0.923808
			vertex -1.759096 1.379094 -0.915623
			vertex -1.775695 1.394843 -0.913644
		endloop
	endfacet
	facet normal -0.5198260276047659 -0.621527444463811 0.5860755384785595
		outer loop
			vertex -1.759096 1.379094 -0.915623
			vertex -1.7674659 1.397027 -0.904029
			vertex -1.775695 1.394843 -0.913644
		endloop
	endfacet
	facet normal -0.465467205399333 -0.6894474951855877 0.5549796681681719
		outer loop
			vertex -1.7674659 1.397027 -0.904029
			vertex -1.7814029 1.414952 -0.89345
			vertex -1.775695 1.394843 -0.913644
		endloop
	endfacet
	facet normal -0.31609544199122575 -0.7154387370620037 0.6230819248409448
		outer loop
			vertex -1.7814029 1.414952 -0.89345
			vertex -1.795585 1.4260271 -0.887928
			vertex -1.775695 1.394843 -0.913644
		endloop
	endfacet
	facet normal -0.1312465795579877 -0.6792066826518579 0.7221167617465941
		outer loop
			vertex -1.795585 1.4260271 -0.887928
			vertex -1.804589 1.426017 -0.889574
			vertex -1.775695 1.394843 -0.913644
		endloop
	endfacet
	facet normal 0.028428211447811616 -0.5942577137922802 0.8037721109818697
		outer loop
			vertex -1.804589 1.426017 -0.889574
			vertex -1.804978 1.414929 -0.897758
			vertex -1.775695 1.394843 -0.913644
		endloop
	endfacet
	facet normal 0.1250863054074734 -0.4968451823951106 0.8587772009842122
		outer loop
			vertex -1.804978 1.414929 -0.897758
			vertex -1.7966059 1.396997 -0.909352
			vertex -1.775695 1.394843 -0.913644
		endloop
	endfacet
	facet normal 0.14080030146634154 -0.41975692389203 0.8966489836896533
		outer loop
			vertex -1.7966059 1.396997 -0.909352
			vertex -1.782668 1.37907 -0.919933
			vertex -1.775695 1.394843 -0.913644
		endloop
	endfacet
	facet normal 0.05329666930444956 -0.3900793864084389 0.9192374760312308
		outer loop
			vertex -1.782668 1.37907 -0.919933
			vertex -1.768487 1.3679971 -0.925454
			vertex -1.775695 1.394843 -0.913644
		endloop
	endfacet
	facet normal -0.9445530408584942 -0.26458676438745854 -0.19445667156450963
		outer loop
			vertex -1.742413 1.361995 -1.053081
			vertex -1.768383 1.379712 -0.951041
			vertex -1.749434 1.380586 -1.044273
		endloop
	endfacet
	facet normal -0.9379971188292638 -0.28771626486213664 -0.19334103548336773
		outer loop
			vertex -1.768383 1.379712 -0.951041
			vertex -1.776089 1.397967 -0.940821
			vertex -1.749434 1.380586 -1.044273
		endloop
	endfacet
	facet normal -0.8466954799338313 -0.5185275808516229 -0.11931434178581714
		outer loop
			vertex -1.731006 1.344854 -1.059536
			vertex -1.755698 1.362174 -0.959584
			vertex -1.742413 1.361995 -1.053081
		endloop
	endfacet
	facet normal -0.8309004764900456 -0.5439764812271951 -0.11702130592458182
		outer loop
			vertex -1.755698 1.362174 -0.959584
			vertex -1.768383 1.379712 -0.951041
			vertex -1.742413 1.361995 -1.053081
		endloop
	endfacet
	facet normal -0.6133781372596901 -0.7841260371407903 0.09441196221725688
		outer loop
			vertex -1.7195719 1.335713 -1.06117
			vertex -1.736505 1.359656 -0.972326
			vertex -1.731006 1.344854 -1.059536
		endloop
	endfacet
	facet normal -0.019049904921144476 -0.9859186481167522 0.16613705311618818
		outer loop
			vertex -1.736505 1.359656 -0.972326
			vertex -1.755698 1.362174 -0.959584
			vertex -1.731006 1.344854 -1.059536
		endloop
	endfacet
	facet normal 0.2102718415205048 -0.9573360459482667 0.19822574956779465
		outer loop
			vertex -1.712478 1.33806 -1.0573601
			vertex -1.734814 1.3532161 -0.96047
			vertex -1.7195719 1.335713 -1.06117
		endloop
	endfacet
	facet normal -0.9227112308708566 -0.3783418049561822 -0.0739017120727719
		outer loop
			vertex -1.734814 1.3532161 -0.96047
			vertex -1.736505 1.359656 -0.972326
			vertex -1.7195719 1.335713 -1.06117
		endloop
	endfacet
	facet normal 0.9591999596452837 -0.1483607502980813 0.24067514451533367
		outer loop
			vertex -1.7124341 1.350999 -1.049559
			vertex -1.734594 1.365219 -0.952476
			vertex -1.712478 1.33806 -1.0573601
		endloop
	endfacet
	facet normal 0.95143770854357 -0.18253300256313634 0.2478870503609398
		outer loop
			vertex -1.734594 1.365219 -0.952476
			vertex -1.734814 1.3532161 -0.96047
			vertex -1.712478 1.33806 -1.0573601
		endloop
	endfacet
	facet normal 0.9453110272838646 0.27135460637073405 0.18097994169771656
		outer loop
			vertex -1.719457 1.36959 -1.040751
			vertex -1.7423 1.383477 -0.942257
			vertex -1.7124341 1.350999 -1.049559
		endloop
	endfacet
	facet normal 0.9383793605126283 0.30083319437944606 0.1701280838761474
		outer loop
			vertex -1.7423 1.383477 -0.942257
			vertex -1.734594 1.365219 -0.952476
			vertex -1.7124341 1.350999 -1.049559
		endloop
	endfacet
	facet normal 0.8473369997516436 0.5148715436285425 0.13010496690536086
		outer loop
			vertex -1.730863 1.38673 -1.034296
			vertex -1.754987 1.401015 -0.933714
			vertex -1.719457 1.36959 -1.040751
		endloop
	endfacet
	facet normal 0.8307214664190317 0.5444910665812841 0.11589358758701664
		outer loop
			vertex -1.754987 1.401015 -0.933714
			vertex -1.7423 1.383477 -0.942257
			vertex -1.719457 1.36959 -1.040751
		endloop
	endfacet
	facet normal 0.6274785266793111 0.7775870427382494 0.04036198114494804
		outer loop
			vertex -1.7422971 1.395872 -1.032662
			vertex -1.767809 1.411136 -0.930113
			vertex -1.730863 1.38673 -1.034296
		endloop
	endfacet
	facet normal 0.6259105028001553 0.7788939668576474 0.03949975793869243
		outer loop
			vertex -1.767809 1.411136 -0.930113
			vertex -1.754987 1.401015 -0.933714
			vertex -1.730863 1.38673 -1.034296
		endloop
	endfacet
	facet normal -0.21204546301020136 0.9575503060947477 -0.19527962749514977
		outer loop
			vertex -1.7422971 1.395872 -1.032662
			vertex -1.7493891 1.3935241 -1.036474
			vertex -1.767809 1.411136 -0.930113
		endloop
	endfacet
	facet normal -0.08222324539479513 0.9808330283066784 -0.17665194168052104
		outer loop
			vertex -1.7493891 1.3935241 -1.036474
			vertex -1.775871 1.409971 -0.932829
			vertex -1.767809 1.411136 -0.930113
		endloop
	endfacet
	facet normal -0.9489464854284646 0.16525456494748933 -0.2686847531159536
		outer loop
			vertex -1.7493891 1.3935241 -1.036474
			vertex -1.749434 1.380586 -1.044273
			vertex -1.775871 1.409971 -0.932829
		endloop
	endfacet
	facet normal -0.9399769663524137 0.20077370429187522 -0.27592249345030295
		outer loop
			vertex -1.749434 1.380586 -1.044273
			vertex -1.776089 1.397967 -0.940821
			vertex -1.775871 1.409971 -0.932829
		endloop
	endfacet
	facet normal -0.8119475240932758 0.10048144129947452 -0.5750171285041689
		outer loop
			vertex -1.219081 1.302382 -1.467528
			vertex -1.346016 1.321007 -1.285036
			vertex -1.217815 1.32693 -1.465026
		endloop
	endfacet
	facet normal -0.8135217414641008 -0.033735918554072854 -0.5805551343021004
		outer loop
			vertex -1.346016 1.321007 -1.285036
			vertex -1.349885 1.341342 -1.2807961
			vertex -1.217815 1.32693 -1.465026
		endloop
	endfacet
	facet normal -0.8197066014232859 -0.20393823556289528 -0.535247871232179
		outer loop
			vertex -1.22053 1.284215 -1.458387
			vertex -1.339397 1.305057 -1.284289
			vertex -1.219081 1.302382 -1.467528
		endloop
	endfacet
	facet normal -0.7854210066994625 -0.3498510368575016 -0.5106056151717628
		outer loop
			vertex -1.339397 1.305057 -1.284289
			vertex -1.346016 1.321007 -1.285036
			vertex -1.219081 1.302382 -1.467528
		endloop
	endfacet
	facet normal -0.3409724137403355 -0.930604654823624 -0.13308940411878445
		outer loop
			vertex -1.212032 1.279485 -1.447085
			vertex -1.332559 1.299584 -1.278836
			vertex -1.22053 1.284215 -1.458387
		endloop
	endfacet
	facet normal -0.4879955192023931 -0.8413205162822303 -0.2324653998361658
		outer loop
			vertex -1.332559 1.299584 -1.278836
			vertex -1.339397 1.305057 -1.284289
			vertex -1.22053 1.284215 -1.458387
		endloop
	endfacet
	facet normal 0.40251070594457966 -0.826986518261482 0.3925282540324302
		outer loop
			vertex -1.20373 1.289914 -1.4336261
			vertex -1.3281111 1.306679 -1.270761
			vertex -1.212032 1.279485 -1.447085
		endloop
	endfacet
	facet normal 0.4650063830496795 -0.7761669782077485 0.42583316646652525
		outer loop
			vertex -1.3281111 1.306679 -1.270761
			vertex -1.332559 1.299584 -1.278836
			vertex -1.212032 1.279485 -1.447085
		endloop
	endfacet
	facet normal 0.6422554482809547 -0.5137212574858719 0.5688571075064146
		outer loop
			vertex -1.191761 1.311608 -1.4275481
			vertex -1.327752 1.323633 -1.263151
			vertex -1.20373 1.289914 -1.4336261
		endloop
	endfacet
	facet normal 0.7473478140445965 -0.28519660302066485 0.6001117749788257
		outer loop
			vertex -1.327752 1.323633 -1.263151
			vertex -1.3281111 1.306679 -1.270761
			vertex -1.20373 1.289914 -1.4336261
		endloop
	endfacet
	facet normal 0.7558276448141698 -0.1030216624735524 0.6466151161207497
		outer loop
			vertex -1.190631 1.3361551 -1.424958
			vertex -1.331622 1.343968 -1.258909
			vertex -1.191761 1.311608 -1.4275481
		endloop
	endfacet
	facet normal 0.7709611294219811 0.01389764350566229 0.6367305493105956
		outer loop
			vertex -1.331622 1.343968 -1.258909
			vertex -1.327752 1.323633 -1.263151
			vertex -1.191761 1.311608 -1.4275481
		endloop
	endfacet
	facet normal 0.7180568769419181 0.3730028988149588 0.5875909792977226
		outer loop
			vertex -1.196075 1.354236 -1.429783
			vertex -1.3382421 1.35992 -1.259658
			vertex -1.190631 1.3361551 -1.424958
		endloop
	endfacet
	facet normal 0.7271729183516897 0.330039290429634 0.6019083099514333
		outer loop
			vertex -1.3382421 1.35992 -1.259658
			vertex -1.331622 1.343968 -1.258909
			vertex -1.190631 1.3361551 -1.424958
		endloop
	endfacet
	facet normal 0.2766140789278998 0.9427246006369405 0.18642687223893156
		outer loop
			vertex -1.204574 1.358965 -1.4410861
			vertex -1.34508 1.365392 -1.265108
			vertex -1.196075 1.354236 -1.429783
		endloop
	endfacet
	facet normal 0.4207009385609046 0.8476582917149826 0.32324316045480656
		outer loop
			vertex -1.34508 1.365392 -1.265108
			vertex -1.3382421 1.35992 -1.259658
			vertex -1.196075 1.354236 -1.429783
		endloop
	endfacet
	facet normal -0.4325671218930138 0.8221144633353243 -0.37015333880983214
		outer loop
			vertex -1.212877 1.348536 -1.454546
			vertex -1.349527 1.358294 -1.273182
			vertex -1.204574 1.358965 -1.4410861
		endloop
	endfacet
	facet normal -0.48233816215402925 0.7723447976856406 -0.4133199859888225
		outer loop
			vertex -1.349527 1.358294 -1.273182
			vertex -1.34508 1.365392 -1.265108
			vertex -1.204574 1.358965 -1.4410861
		endloop
	endfacet
	facet normal -0.7175720141240501 0.4298238008567925 -0.5480345835464898
		outer loop
			vertex -1.217815 1.32693 -1.465026
			vertex -1.349885 1.341342 -1.2807961
			vertex -1.212877 1.348536 -1.454546
		endloop
	endfacet
	facet normal -0.7594714228345869 0.2798214818466439 -0.5872845104331944
		outer loop
			vertex -1.349885 1.341342 -1.2807961
			vertex -1.349527 1.358294 -1.273182
			vertex -1.212877 1.348536 -1.454546
		endloop
	endfacet
	facet normal -0.36032552365002807 0.38852356389035764 -0.8480654204177106
		outer loop
			vertex -1.349527 1.358294 -1.273182
			vertex -1.349885 1.341342 -1.2807961
			vertex -1.635905 1.389464 -1.137226
		endloop
	endfacet
	facet normal -0.35816701819529656 0.39506161340309065 -0.8459566825153859
		outer loop
			vertex -1.349885 1.341342 -1.2807961
			vertex -1.63551 1.374169 -1.144536
			vertex -1.635905 1.389464 -1.137226
		endloop
	endfacet
	facet normal -0.41656538820688277 0.10892830263771482 -0.9025563152693108
		outer loop
			vertex -1.346016 1.321007 -1.285036
			vertex -1.630206 1.35474 -1.1497999
			vertex -1.349885 1.341342 -1.2807961
		endloop
	endfacet
	facet normal -0.414586394093161 0.1308090010812798 -0.9005593412257453
		outer loop
			vertex -1.630206 1.35474 -1.1497999
			vertex -1.63551 1.374169 -1.144536
			vertex -1.349885 1.341342 -1.2807961
		endloop
	endfacet
	facet normal -0.4373253049764132 -0.22229400742533692 -0.8713965526039631
		outer loop
			vertex -1.339397 1.305057 -1.284289
			vertex -1.6220191 1.3386 -1.1510071
			vertex -1.346016 1.321007 -1.285036
		endloop
	endfacet
	facet normal -0.4394922929371452 -0.15677573932402245 -0.8844590957236275
		outer loop
			vertex -1.6220191 1.3386 -1.1510071
			vertex -1.630206 1.35474 -1.1497999
			vertex -1.346016 1.321007 -1.285036
		endloop
	endfacet
	facet normal -0.3074629030750821 -0.8363477051887668 -0.4538601979223629
		outer loop
			vertex -1.332559 1.299584 -1.278836
			vertex -1.6140749 1.331913 -1.1477
			vertex -1.339397 1.305057 -1.284289
		endloop
	endfacet
	facet normal -0.363200847613946 -0.7224533899156249 -0.5883419445288032
		outer loop
			vertex -1.6140749 1.331913 -1.1477
			vertex -1.6220191 1.3386 -1.1510071
			vertex -1.339397 1.305057 -1.284289
		endloop
	endfacet
	facet normal 0.1858711584871698 -0.7866309718424199 0.5887814760850475
		outer loop
			vertex -1.3281111 1.306679 -1.270761
			vertex -1.609414 1.3372329 -1.1411361
			vertex -1.332559 1.299584 -1.278836
		endloop
	endfacet
	facet normal 0.16181283423762136 -0.8197056374083393 0.5494536146727731
		outer loop
			vertex -1.609414 1.3372329 -1.1411361
			vertex -1.6140749 1.331913 -1.1477
			vertex -1.332559 1.299584 -1.278836
		endloop
	endfacet
	facet normal 0.3505534965190285 -0.38968489882967033 0.8516207640155288
		outer loop
			vertex -1.327752 1.323633 -1.263151
			vertex -1.609809 1.35253 -1.1338249
			vertex -1.3281111 1.306679 -1.270761
		endloop
	endfacet
	facet normal 0.3482224536636283 -0.3969004949952224 0.8492414967705182
		outer loop
			vertex -1.609809 1.35253 -1.1338249
			vertex -1.609414 1.3372329 -1.1411361
			vertex -1.3281111 1.306679 -1.270761
		endloop
	endfacet
	facet normal 0.40598552346228983 -0.11194101719721604 0.9069977747535566
		outer loop
			vertex -1.331622 1.343968 -1.258909
			vertex -1.615115 1.3719569 -1.128559
			vertex -1.327752 1.323633 -1.263151
		endloop
	endfacet
	facet normal 0.40138401807550894 -0.1358922330940838 0.9057726927978471
		outer loop
			vertex -1.615115 1.3719569 -1.128559
			vertex -1.609809 1.35253 -1.1338249
			vertex -1.327752 1.323633 -1.263151
		endloop
	endfacet
	facet normal 0.4285088216911592 0.21899089631408902 0.8765975000331716
		outer loop
			vertex -1.3382421 1.35992 -1.259658
			vertex -1.623299 1.388096 -1.127352
			vertex -1.331622 1.343968 -1.258909
		endloop
	endfacet
	facet normal 0.42519483017972426 0.14884410755551744 0.8927792493301112
		outer loop
			vertex -1.623299 1.388096 -1.127352
			vertex -1.615115 1.3719569 -1.128559
			vertex -1.331622 1.343968 -1.258909
		endloop
	endfacet
	facet normal 0.3018217324623024 0.83514138684018 0.4598287787863165
		outer loop
			vertex -1.34508 1.365392 -1.265108
			vertex -1.631242 1.394785 -1.130661
			vertex -1.3382421 1.35992 -1.259658
		endloop
	endfacet
	facet normal 0.35103028708563316 0.7155894429284473 0.6039118203164536
		outer loop
			vertex -1.631242 1.394785 -1.130661
			vertex -1.623299 1.388096 -1.127352
			vertex -1.3382421 1.35992 -1.259658
		endloop
	endfacet
	facet normal -0.1925068341496604 0.7871409610731874 -0.585960942560555
		outer loop
			vertex -1.349527 1.358294 -1.273182
			vertex -1.635905 1.389464 -1.137226
			vertex -1.34508 1.365392 -1.265108
		endloop
	endfacet
	facet normal -0.17125955213133529 0.821366673081385 -0.5440835911466105
		outer loop
			vertex -1.635905 1.389464 -1.137226
			vertex -1.631242 1.394785 -1.130661
			vertex -1.34508 1.365392 -1.265108
		endloop
	endfacet
	facet normal -0.6516291568478461 0.027484871225820447 -0.758039592501253
		outer loop
			vertex -1.630206 1.35474 -1.1497999
			vertex -1.742413 1.361995 -1.053081
			vertex -1.63551 1.374169 -1.144536
		endloop
	endfacet
	facet normal -0.6533385438819463 0.10825766863632617 -0.7492856760005796
		outer loop
			vertex -1.742413 1.361995 -1.053081
			vertex -1.749434 1.380586 -1.044273
			vertex -1.63551 1.374169 -1.144536
		endloop
	endfacet
	facet normal -0.6288648897392335 -0.2642955407683595 -0.731215985590593
		outer loop
			vertex -1.6220191 1.3386 -1.1510071
			vertex -1.731006 1.344854 -1.059536
			vertex -1.630206 1.35474 -1.1497999
		endloop
	endfacet
	facet normal -0.6508590775296138 -0.153107348170735 -0.7435997586964547
		outer loop
			vertex -1.731006 1.344854 -1.059536
			vertex -1.742413 1.361995 -1.053081
			vertex -1.630206 1.35474 -1.1497999
		endloop
	endfacet
	facet normal -0.43123854531592026 -0.7559168696755327 -0.4925677650575127
		outer loop
			vertex -1.6140749 1.331913 -1.1477
			vertex -1.7195719 1.335713 -1.06117
			vertex -1.6220191 1.3386 -1.1510071
		endloop
	endfacet
	facet normal -0.5457379004874421 -0.5734152457510444 -0.6110360872418489
		outer loop
			vertex -1.7195719 1.335713 -1.06117
			vertex -1.731006 1.344854 -1.059536
			vertex -1.6220191 1.3386 -1.1510071
		endloop
	endfacet
	facet normal 0.3440807594057599 -0.8338994103078351 0.4315323910148588
		outer loop
			vertex -1.609414 1.3372329 -1.1411361
			vertex -1.712478 1.33806 -1.0573601
			vertex -1.6140749 1.331913 -1.1477
		endloop
	endfacet
	facet normal 0.176435916237888 -0.9502126911365788 0.25683887763397073
		outer loop
			vertex -1.712478 1.33806 -1.0573601
			vertex -1.7195719 1.335713 -1.06117
			vertex -1.6140749 1.331913 -1.1477
		endloop
	endfacet
	facet normal 0.6015996983676749 -0.33176267764114464 0.7266438802111392
		outer loop
			vertex -1.609809 1.35253 -1.1338249
			vertex -1.7124341 1.350999 -1.049559
			vertex -1.609414 1.3372329 -1.1411361
		endloop
	endfacet
	facet normal 0.5685485615422219 -0.4261720328436672 0.7036546962752162
		outer loop
			vertex -1.7124341 1.350999 -1.049559
			vertex -1.712478 1.33806 -1.0573601
			vertex -1.609414 1.3372329 -1.1411361
		endloop
	endfacet
	facet normal 0.643982804627629 -0.03131100261153801 0.7643989589601712
		outer loop
			vertex -1.615115 1.3719569 -1.128559
			vertex -1.719457 1.36959 -1.040751
			vertex -1.609809 1.35253 -1.1338249
		endloop
	endfacet
	facet normal 0.6307539737328851 -0.12460049355568537 0.7659139257291608
		outer loop
			vertex -1.719457 1.36959 -1.040751
			vertex -1.7124341 1.350999 -1.049559
			vertex -1.609809 1.35253 -1.1338249
		endloop
	endfacet
	facet normal 0.6290714122045992 0.2643251549799686 0.731027612879108
		outer loop
			vertex -1.623299 1.388096 -1.127352
			vertex -1.730863 1.38673 -1.034296
			vertex -1.615115 1.3719569 -1.128559
		endloop
	endfacet
	facet normal 0.6359688096770345 0.13721198729441222 0.759418556305213
		outer loop
			vertex -1.730863 1.38673 -1.034296
			vertex -1.719457 1.36959 -1.040751
			vertex -1.615115 1.3719569 -1.128559
		endloop
	endfacet
	facet normal 0.43588146227621793 0.7577936997814458 0.4855471752729022
		outer loop
			vertex -1.631242 1.394785 -1.130661
			vertex -1.7422971 1.395872 -1.032662
			vertex -1.623299 1.388096 -1.127352
		endloop
	endfacet
	facet normal 0.5379001615595866 0.5601628637314211 0.629984906398863
		outer loop
			vertex -1.7422971 1.395872 -1.032662
			vertex -1.730863 1.38673 -1.034296
			vertex -1.623299 1.388096 -1.127352
		endloop
	endfacet
	facet normal -0.36129688541143506 0.8331732124234391 -0.4186728540185084
		outer loop
			vertex -1.631242 1.394785 -1.130661
			vertex -1.635905 1.389464 -1.137226
			vertex -1.7422971 1.395872 -1.032662
		endloop
	endfacet
	facet normal -0.1834716191581461 0.9519994883179624 -0.24502069138304644
		outer loop
			vertex -1.635905 1.389464 -1.137226
			vertex -1.7493891 1.3935241 -1.036474
			vertex -1.7422971 1.395872 -1.032662
		endloop
	endfacet
	facet normal -0.6214089816898481 0.3247296617403423 -0.7130228076725099
		outer loop
			vertex -1.635905 1.389464 -1.137226
			vertex -1.63551 1.374169 -1.144536
			vertex -1.7493891 1.3935241 -1.036474
		endloop
	endfacet
	facet normal -0.5862111906899339 0.41973842003133743 -0.692947399633974
		outer loop
			vertex -1.63551 1.374169 -1.144536
			vertex -1.749434 1.380586 -1.044273
			vertex -1.7493891 1.3935241 -1.036474
		endloop
	endfacet
	facet normal -0.26132469756878307 0.9628550009030545 -0.06796800480051832
		outer loop
			vertex 2.095479 1.434103 -1.02332
			vertex 1.9692481 1.395426 -1.0858949
			vertex 2.126462 1.444849 -0.990213
		endloop
	endfacet
	facet normal 0.3406208938681032 -0.9371566182340384 -0.07559682242419685
		outer loop
			vertex 1.9692481 1.395426 -1.0858949
			vertex 2.1343181 1.447986 -0.993704
			vertex 2.126462 1.444849 -0.990213
		endloop
	endfacet
	facet normal -0.35475575333942017 -0.7507660970400925 0.5572240330493353
		outer loop
			vertex 2.0951791 1.442789 -1.011808
			vertex 2.095479 1.434103 -1.02332
			vertex 2.126256 1.452595 -0.978811
		endloop
	endfacet
	facet normal -0.29487485731858115 -0.7928630644672474 0.5333075843497371
		outer loop
			vertex 2.095479 1.434103 -1.02332
			vertex 2.126462 1.444849 -0.990213
			vertex 2.126256 1.452595 -0.978811
		endloop
	endfacet
	facet normal -0.6311466470356978 -0.34823827236275595 0.6930974070052487
		outer loop
			vertex 2.101599 1.4589421 -0.997846
			vertex 2.0951791 1.442789 -1.011808
			vertex 2.1337841 1.468268 -0.963852
		endloop
	endfacet
	facet normal -0.6218897107506135 -0.36338133335914186 0.693690993331073
		outer loop
			vertex 2.0951791 1.442789 -1.011808
			vertex 2.126256 1.452595 -0.978811
			vertex 2.1337841 1.468268 -0.963852
		endloop
	endfacet
	facet normal -0.7264271990431118 0.007992262463710998 0.687196950103164
		outer loop
			vertex 2.1122811 1.4763891 -0.986757
			vertex 2.101599 1.4589421 -0.997846
			vertex 2.1461661 1.485882 -0.951048
		endloop
	endfacet
	facet normal -0.7279290944532969 0.013386964938534049 0.6855217156430115
		outer loop
			vertex 2.101599 1.4589421 -0.997846
			vertex 2.1337841 1.468268 -0.963852
			vertex 2.1461661 1.485882 -0.951048
		endloop
	endfacet
	facet normal -0.7050120535560908 0.455106996295596 0.5439077369034423
		outer loop
			vertex 2.123147 1.488471 -0.982782
			vertex 2.1122811 1.4763891 -0.986757
			vertex 2.1586781 1.49871 -0.945294
		endloop
	endfacet
	facet normal -0.7066389057554903 0.44105145278862096 0.5532947432117263
		outer loop
			vertex 2.1122811 1.4763891 -0.986757
			vertex 2.1461661 1.485882 -0.951048
			vertex 2.1586781 1.49871 -0.945294
		endloop
	endfacet
	facet normal -0.29248750092795156 0.9562647150675517 -0.0029759902042816298
		outer loop
			vertex 2.1300471 1.490567 -0.98744
			vertex 2.123147 1.488471 -0.982782
			vertex 2.1665361 1.501848 -0.948782
		endloop
	endfacet
	facet normal -0.34321808674686666 0.936683266968714 0.0694679948655315
		outer loop
			vertex 2.123147 1.488471 -0.982782
			vertex 2.1586781 1.49871 -0.945294
			vertex 2.1665361 1.501848 -0.948782
		endloop
	endfacet
	facet normal 0.3577387331869605 0.7498898610712168 -0.5564963567179751
		outer loop
			vertex 2.1300471 1.490567 -0.98744
			vertex 2.1665361 1.501848 -0.948782
			vertex 2.1303461 1.481882 -0.998951
		endloop
	endfacet
	facet normal 0.3013065078012409 0.7911748543290417 -0.5322186939915216
		outer loop
			vertex 2.1665361 1.501848 -0.948782
			vertex 2.1667399 1.494101 -0.960183
			vertex 2.1303461 1.481882 -0.998951
		endloop
	endfacet
	facet normal 0.6191520592778353 0.3582015378201935 -0.6988149868135805
		outer loop
			vertex 2.1239271 1.465731 -1.012917
			vertex 2.1303461 1.481882 -0.998951
			vertex 2.159215 1.4784271 -0.975144
		endloop
	endfacet
	facet normal 0.6175088564929263 0.3673946984393511 -0.6954882800676492
		outer loop
			vertex 2.1303461 1.481882 -0.998951
			vertex 2.1667399 1.494101 -0.960183
			vertex 2.159215 1.4784271 -0.975144
		endloop
	endfacet
	facet normal 0.7349335061995677 -0.019280476552023782 -0.6778650342724111
		outer loop
			vertex 2.1132441 1.448279 -1.024003
			vertex 2.1239271 1.465731 -1.012917
			vertex 2.146831 1.460814 -0.987945
		endloop
	endfacet
	facet normal 0.7344562153713856 -0.023461060900183114 -0.6782504303896746
		outer loop
			vertex 2.1239271 1.465731 -1.012917
			vertex 2.159215 1.4784271 -0.975144
			vertex 2.146831 1.460814 -0.987945
		endloop
	endfacet
	facet normal 0.44384064698269543 -0.8382334735725839 -0.3168124427297997
		outer loop
			vertex 1.9692481 1.395426 -1.0858949
			vertex 2.1132441 1.448279 -1.024003
			vertex 2.1343181 1.447986 -0.993704
		endloop
	endfacet
	facet normal 0.7200564678124304 -0.4754653294743641 -0.5054220054858325
		outer loop
			vertex 2.1132441 1.448279 -1.024003
			vertex 2.146831 1.460814 -0.987945
			vertex 2.1343181 1.447986 -0.993704
		endloop
	endfacet
	facet normal 0.5126963474382742 -0.5927111030226043 0.6211569879484414
		outer loop
			vertex 2.1343181 1.447986 -0.993704
			vertex 2.1389451 1.471393 -0.975188
			vertex 2.126462 1.444849 -0.990213
		endloop
	endfacet
	facet normal 0.7235087073836719 -0.5648652199670255 0.39681536463651745
		outer loop
			vertex 2.126462 1.444849 -0.990213
			vertex 2.1389451 1.471393 -0.975188
			vertex 2.126256 1.452595 -0.978811
		endloop
	endfacet
	facet normal 0.7930689135100597 -0.5744107305549712 0.20271657812640315
		outer loop
			vertex 2.126256 1.452595 -0.978811
			vertex 2.1389451 1.471393 -0.975188
			vertex 2.1337841 1.468268 -0.963852
		endloop
	endfacet
	facet normal 0.7475783632394662 -0.643899456865929 0.1628498703222159
		outer loop
			vertex 2.1337841 1.468268 -0.963852
			vertex 2.1389451 1.471393 -0.975188
			vertex 2.1461661 1.485882 -0.951048
		endloop
	endfacet
	facet normal 0.6351938797995293 -0.7311665436648046 0.24884577651727313
		outer loop
			vertex 2.1461661 1.485882 -0.951048
			vertex 2.1389451 1.471393 -0.975188
			vertex 2.1586781 1.49871 -0.945294
		endloop
	endfacet
	facet normal 0.48606282424694736 -0.7807678198833855 0.39261245818189017
		outer loop
			vertex 2.1586781 1.49871 -0.945294
			vertex 2.1389451 1.471393 -0.975188
			vertex 2.1665361 1.501848 -0.948782
		endloop
	endfacet
	facet normal 0.3448688849485922 -0.7734978656827574 0.5317579373911911
		outer loop
			vertex 2.1665361 1.501848 -0.948782
			vertex 2.1389451 1.471393 -0.975188
			vertex 2.1667399 1.494101 -0.960183
		endloop
	endfacet
	facet normal 0.2515007899520595 -0.7287246056458239 0.6369519619090819
		outer loop
			vertex 2.1667399 1.494101 -0.960183
			vertex 2.1389451 1.471393 -0.975188
			vertex 2.159215 1.4784271 -0.975144
		endloop
	endfacet
	facet normal 0.23215027434791002 -0.6733692954378445 0.701911705331754
		outer loop
			vertex 2.159215 1.4784271 -0.975144
			vertex 2.1389451 1.471393 -0.975188
			vertex 2.146831 1.460814 -0.987945
		endloop
	endfacet
	facet normal 0.3138373038365798 -0.6264442583671308 0.7134940349291238
		outer loop
			vertex 2.146831 1.460814 -0.987945
			vertex 2.1389451 1.471393 -0.975188
			vertex 2.1343181 1.447986 -0.993704
		endloop
	endfacet
	facet normal 0.2872101369063168 0.529735981081454 -0.798053962840812
		outer loop
			vertex 1.95463 1.411944 -1.109548
			vertex 1.9599119 1.4285851 -1.096601
			vertex 2.1239271 1.465731 -1.012917
		endloop
	endfacet
	facet normal 0.2690789201980077 0.5665479055667761 -0.7788581420277854
		outer loop
			vertex 1.9599119 1.4285851 -1.096601
			vertex 2.1303461 1.481882 -0.998951
			vertex 2.1239271 1.465731 -1.012917
		endloop
	endfacet
	facet normal 0.4119824902997024 0.2586064175650278 -0.8737237254880047
		outer loop
			vertex 1.94569 1.394664 -1.118878
			vertex 1.95463 1.411944 -1.109548
			vertex 2.1132441 1.448279 -1.024003
		endloop
	endfacet
	facet normal 0.39632091956667503 0.30703037201519406 -0.8652526101515307
		outer loop
			vertex 1.95463 1.411944 -1.109548
			vertex 2.1239271 1.465731 -1.012917
			vertex 2.1132441 1.448279 -1.024003
		endloop
	endfacet
	facet normal 0.7162863582425959 -0.4863790642047104 -0.5003691226473811
		outer loop
			vertex 1.936507 1.383348 -1.121024
			vertex 1.94569 1.394664 -1.118878
			vertex 1.9692481 1.395426 -1.0858949
		endloop
	endfacet
	facet normal 0.43794387816486796 -0.8498580303858903 -0.29316631417427674
		outer loop
			vertex 1.94569 1.394664 -1.118878
			vertex 2.1132441 1.448279 -1.024003
			vertex 1.9692481 1.395426 -1.0858949
		endloop
	endfacet
	facet normal 0.25409379332721077 -0.963262110266538 0.08696235459924513
		outer loop
			vertex 1.9305919 1.382316 -1.115172
			vertex 1.936507 1.383348 -1.121024
			vertex 2.095479 1.434103 -1.02332
		endloop
	endfacet
	facet normal -0.24368482030873062 0.9642194800001056 -0.10439589426518572
		outer loop
			vertex 1.936507 1.383348 -1.121024
			vertex 1.9692481 1.395426 -1.0858949
			vertex 2.095479 1.434103 -1.02332
		endloop
	endfacet
	facet normal -0.11559152656429024 -0.7660879684173678 0.6322561376789371
		outer loop
			vertex 1.9302 1.391966 -1.103551
			vertex 1.9305919 1.382316 -1.115172
			vertex 2.0951791 1.442789 -1.011808
		endloop
	endfacet
	facet normal -0.08340925490611546 -0.7965277627382927 0.5988208575050946
		outer loop
			vertex 1.9305919 1.382316 -1.115172
			vertex 2.095479 1.434103 -1.02332
			vertex 2.0951791 1.442789 -1.011808
		endloop
	endfacet
	facet normal -0.2848977047042879 -0.5307204503424314 0.7982287275227292
		outer loop
			vertex 1.935481 1.408607 -1.090602
			vertex 1.9302 1.391966 -1.103551
			vertex 2.101599 1.4589421 -0.997846
		endloop
	endfacet
	facet normal -0.25737422904546314 -0.5713226575202739 0.7793259441512423
		outer loop
			vertex 1.9302 1.391966 -1.103551
			vertex 2.0951791 1.442789 -1.011808
			vertex 2.101599 1.4589421 -0.997846
		endloop
	endfacet
	facet normal -0.41431039385314117 -0.25696554063229654 0.8731068711634372
		outer loop
			vertex 1.9444211 1.425887 -1.081274
			vertex 1.935481 1.408607 -1.090602
			vertex 2.1122811 1.4763891 -0.986757
		endloop
	endfacet
	facet normal -0.38916985676983246 -0.31248679660114376 0.8665441849852227
		outer loop
			vertex 1.935481 1.408607 -1.090602
			vertex 2.101599 1.4589421 -0.997846
			vertex 2.1122811 1.4763891 -0.986757
		endloop
	endfacet
	facet normal -0.5372547338579637 0.28503979574976945 0.7937944732650501
		outer loop
			vertex 1.953601 1.437205 -1.079125
			vertex 1.9444211 1.425887 -1.081274
			vertex 2.123147 1.488471 -0.982782
		endloop
	endfacet
	facet normal -0.5258450013937517 0.20100169089094008 0.826489778985916
		outer loop
			vertex 1.9444211 1.425887 -1.081274
			vertex 2.1122811 1.4763891 -0.986757
			vertex 2.123147 1.488471 -0.982782
		endloop
	endfacet
	facet normal -0.24686289617967744 0.9657855030193723 -0.07948001413814718
		outer loop
			vertex 1.953601 1.437205 -1.079125
			vertex 2.123147 1.488471 -0.982782
			vertex 1.959516 1.438235 -1.084981
		endloop
	endfacet
	facet normal -0.2921243185655263 0.9563773749479664 -0.002387297690687842
		outer loop
			vertex 2.123147 1.488471 -0.982782
			vertex 2.1300471 1.490567 -0.98744
			vertex 1.959516 1.438235 -1.084981
		endloop
	endfacet
	facet normal 0.12620537092737022 0.7652665990163249 -0.6312204343801556
		outer loop
			vertex 1.959516 1.438235 -1.084981
			vertex 2.1300471 1.490567 -0.98744
			vertex 1.9599119 1.4285851 -1.096601
		endloop
	endfacet
	facet normal 0.09377691275483649 0.7959259132581059 -0.598086809115886
		outer loop
			vertex 2.1300471 1.490567 -0.98744
			vertex 2.1303461 1.481882 -0.998951
			vertex 1.9599119 1.4285851 -1.096601
		endloop
	endfacet
	facet normal 0.51627707218585 0.45733017613464266 -0.7240905293758948
		outer loop
			vertex 1.401279 1.348943 -1.384261
			vertex 1.395075 1.370912 -1.374809
			vertex 1.5867389 1.361261 -1.244248
		endloop
	endfacet
	facet normal 0.5314169593469423 0.3915733365149177 -0.7511766353189013
		outer loop
			vertex 1.395075 1.370912 -1.374809
			vertex 1.58733 1.379815 -1.234158
			vertex 1.5867389 1.361261 -1.244248
		endloop
	endfacet
	facet normal 0.5659087542933637 0.35018510648610723 -0.7464031571539921
		outer loop
			vertex 1.4131531 1.3324161 -1.3830121
			vertex 1.401279 1.348943 -1.384261
			vertex 1.584196 1.344507 -1.247658
		endloop
	endfacet
	facet normal 0.5979342118559746 0.07173300044377273 -0.7983289140069448
		outer loop
			vertex 1.401279 1.348943 -1.384261
			vertex 1.5867389 1.361261 -1.244248
			vertex 1.584196 1.344507 -1.247658
		endloop
	endfacet
	facet normal 0.47109878172060243 -0.6924180687087469 -0.5464642312054957
		outer loop
			vertex 1.415417 1.324264 -1.370731
			vertex 1.4131531 1.3324161 -1.3830121
			vertex 1.58067 1.3359571 -1.243085
		endloop
	endfacet
	facet normal 0.5383973735464754 -0.5592138715671214 -0.6304031361003593
		outer loop
			vertex 1.4131531 1.3324161 -1.3830121
			vertex 1.584196 1.344507 -1.247658
			vertex 1.58067 1.3359571 -1.243085
		endloop
	endfacet
	facet normal -0.16847059954991497 -0.9400773505767649 0.296432508372248
		outer loop
			vertex 1.4149441 1.330036 -1.352695
			vertex 1.415417 1.324264 -1.370731
			vertex 1.577509 1.338874 -1.232277
		endloop
	endfacet
	facet normal -0.1086544595554242 -0.9672783800456486 0.2292743856495629
		outer loop
			vertex 1.415417 1.324264 -1.370731
			vertex 1.58067 1.3359571 -1.243085
			vertex 1.577509 1.338874 -1.232277
		endloop
	endfacet
	facet normal -0.3054533337672853 -0.8085852553290013 0.5028798522062556
		outer loop
			vertex 1.4040231 1.345044 -1.335197
			vertex 1.4149441 1.330036 -1.352695
			vertex 1.5759211 1.3521481 -1.219362
		endloop
	endfacet
	facet normal -0.42551292438392607 -0.6567000089266813 0.6226426338261266
		outer loop
			vertex 1.4149441 1.330036 -1.352695
			vertex 1.577509 1.338874 -1.232277
			vertex 1.5759211 1.3521481 -1.219362
		endloop
	endfacet
	facet normal -0.4803504200026386 -0.4539363489558376 0.7504700294481673
		outer loop
			vertex 1.397971 1.3670599 -1.325754
			vertex 1.4040231 1.345044 -1.335197
			vertex 1.576511 1.370703 -1.209273
		endloop
	endfacet
	facet normal -0.5004028100806898 -0.40124736032825287 0.7672011362693347
		outer loop
			vertex 1.4040231 1.345044 -1.335197
			vertex 1.5759211 1.3521481 -1.219362
			vertex 1.576511 1.370703 -1.209273
		endloop
	endfacet
	facet normal -0.5485637924296818 -0.0390988759379905 0.8351940155051105
		outer loop
			vertex 1.393838 1.3860199 -1.327581
			vertex 1.397971 1.3670599 -1.325754
			vertex 1.579054 1.387457 -1.205862
		endloop
	endfacet
	facet normal -0.5430507683431048 -0.08759760711736084 0.8351182684082993
		outer loop
			vertex 1.397971 1.3670599 -1.325754
			vertex 1.576511 1.370703 -1.209273
			vertex 1.579054 1.387457 -1.205862
		endloop
	endfacet
	facet normal -0.3855891088650383 0.7343332831544536 0.5586373317065974
		outer loop
			vertex 1.391574 1.394173 -1.339861
			vertex 1.393838 1.3860199 -1.327581
			vertex 1.582579 1.3960069 -1.210434
		endloop
	endfacet
	facet normal -0.45853465546251687 0.5586307604078684 0.6911422742576219
		outer loop
			vertex 1.393838 1.3860199 -1.327581
			vertex 1.579054 1.387457 -1.205862
			vertex 1.582579 1.3960069 -1.210434
		endloop
	endfacet
	facet normal 0.1855275369255956 0.9372708490358173 -0.2951319850338155
		outer loop
			vertex 1.392046 1.3884 -1.357898
			vertex 1.391574 1.394173 -1.339861
			vertex 1.585741 1.39309 -1.221242
		endloop
	endfacet
	facet normal 0.13962087931826403 0.9655179392404114 -0.21972964994134025
		outer loop
			vertex 1.391574 1.394173 -1.339861
			vertex 1.582579 1.3960069 -1.210434
			vertex 1.585741 1.39309 -1.221242
		endloop
	endfacet
	facet normal 0.41921796754496465 0.6675939186525902 -0.6152842070665782
		outer loop
			vertex 1.395075 1.370912 -1.374809
			vertex 1.392046 1.3884 -1.357898
			vertex 1.58733 1.379815 -1.234158
		endloop
	endfacet
	facet normal 0.4238340725779627 0.6571690093032366 -0.6232925253309082
		outer loop
			vertex 1.392046 1.3884 -1.357898
			vertex 1.585741 1.39309 -1.221242
			vertex 1.58733 1.379815 -1.234158
		endloop
	endfacet
	facet normal 0.3048496025506588 0.6826501630280747 -0.6641200755454157
		outer loop
			vertex 1.585741 1.39309 -1.221242
			vertex 1.697255 1.411224 -1.151414
			vertex 1.58733 1.379815 -1.234158
		endloop
	endfacet
	facet normal 0.3102973906661947 0.6756783024755582 -0.6687109696344894
		outer loop
			vertex 1.697255 1.411224 -1.151414
			vertex 1.697888 1.399157 -1.163313
			vertex 1.58733 1.379815 -1.234158
		endloop
	endfacet
	facet normal 0.4389058017552059 0.41843704505042945 -0.7951554165791018
		outer loop
			vertex 1.5867389 1.361261 -1.244248
			vertex 1.58733 1.379815 -1.234158
			vertex 1.695459 1.381283 -1.173701
		endloop
	endfacet
	facet normal 0.44198969980981295 0.4050805012746698 -0.8003467328283999
		outer loop
			vertex 1.58733 1.379815 -1.234158
			vertex 1.697888 1.399157 -1.163313
			vertex 1.695459 1.381283 -1.173701
		endloop
	endfacet
	facet normal 0.5288878930866342 0.09145736110695711 -0.8437494578639637
		outer loop
			vertex 1.584196 1.344507 -1.247658
			vertex 1.5867389 1.361261 -1.244248
			vertex 1.690902 1.364429 -1.178612
		endloop
	endfacet
	facet normal 0.5280463458325434 0.10285326231633106 -0.8429639749620301
		outer loop
			vertex 1.5867389 1.361261 -1.244248
			vertex 1.695459 1.381283 -1.173701
			vertex 1.690902 1.364429 -1.178612
		endloop
	endfacet
	facet normal 0.5143488701774794 -0.5596634280259297 -0.649786185662188
		outer loop
			vertex 1.58067 1.3359571 -1.243085
			vertex 1.584196 1.344507 -1.247658
			vertex 1.685953 1.3550299 -1.176174
		endloop
	endfacet
	facet normal 0.5403169648691784 -0.466201192737609 -0.7005098324538992
		outer loop
			vertex 1.584196 1.344507 -1.247658
			vertex 1.690902 1.364429 -1.178612
			vertex 1.685953 1.3550299 -1.176174
		endloop
	endfacet
	facet normal 0.0021311751260580073 -0.9652982359972876 0.2611412906323072
		outer loop
			vertex 1.577509 1.338874 -1.232277
			vertex 1.58067 1.3359571 -1.243085
			vertex 1.682503 1.356681 -1.167311
		endloop
	endfacet
	facet normal 0.049222130267475975 -0.9782708255071957 0.2014035100324757
		outer loop
			vertex 1.58067 1.3359571 -1.243085
			vertex 1.685953 1.3550299 -1.176174
			vertex 1.682503 1.356681 -1.167311
		endloop
	endfacet
	facet normal -0.2953120989226235 -0.684157979569219 0.6668722690453388
		outer loop
			vertex 1.5759211 1.3521481 -1.219362
			vertex 1.577509 1.338874 -1.232277
			vertex 1.681873 1.368747 -1.155414
		endloop
	endfacet
	facet normal -0.3004487329727725 -0.6775722028772975 0.6712871730809864
		outer loop
			vertex 1.577509 1.338874 -1.232277
			vertex 1.682503 1.356681 -1.167311
			vertex 1.681873 1.368747 -1.155414
		endloop
	endfacet
	facet normal -0.4166828857477526 -0.4239844022905129 0.8041222539759001
		outer loop
			vertex 1.576511 1.370703 -1.209273
			vertex 1.5759211 1.3521481 -1.219362
			vertex 1.684299 1.386623 -1.145025
		endloop
	endfacet
	facet normal -0.4227305302863367 -0.41180306030979696 0.8072899963974026
		outer loop
			vertex 1.5759211 1.3521481 -1.219362
			vertex 1.681873 1.368747 -1.155414
			vertex 1.684299 1.386623 -1.145025
		endloop
	endfacet
	facet normal -0.5005070570317572 -0.09912867484648662 0.8600384826765537
		outer loop
			vertex 1.579054 1.387457 -1.205862
			vertex 1.576511 1.370703 -1.209273
			vertex 1.6888601 1.403476 -1.140113
		endloop
	endfacet
	facet normal -0.49573753596312276 -0.11666539625870698 0.860600651146053
		outer loop
			vertex 1.576511 1.370703 -1.209273
			vertex 1.684299 1.386623 -1.145025
			vertex 1.6888601 1.403476 -1.140113
		endloop
	endfacet
	facet normal -0.4919201591975767 0.5595133929768146 0.6670527116012674
		outer loop
			vertex 1.582579 1.3960069 -1.210434
			vertex 1.579054 1.387457 -1.205862
			vertex 1.693808 1.412872 -1.142554
		endloop
	endfacet
	facet normal -0.5051762320962312 0.4563229822717276 0.7325068671184533
		outer loop
			vertex 1.579054 1.387457 -1.205862
			vertex 1.6888601 1.403476 -1.140113
			vertex 1.693808 1.412872 -1.142554
		endloop
	endfacet
	facet normal 0.005207612362686382 0.9658265292704616 -0.25913702192248456
		outer loop
			vertex 1.585741 1.39309 -1.221242
			vertex 1.582579 1.3960069 -1.210434
			vertex 1.697255 1.411224 -1.151414
		endloop
	endfacet
	facet normal -0.03019880386650193 0.9805111893714278 -0.19412841049795085
		outer loop
			vertex 1.582579 1.3960069 -1.210434
			vertex 1.693808 1.412872 -1.142554
			vertex 1.697255 1.411224 -1.151414
		endloop
	endfacet
	facet normal 0.15680467326809114 0.48024984781852714 -0.8630019571887243
		outer loop
			vertex 1.695459 1.381283 -1.173701
			vertex 1.697888 1.399157 -1.163313
			vertex 1.95463 1.411944 -1.109548
		endloop
	endfacet
	facet normal 0.13915826724973887 0.58019055828245 -0.8025047618151242
		outer loop
			vertex 1.697888 1.399157 -1.163313
			vertex 1.9599119 1.4285851 -1.096601
			vertex 1.95463 1.411944 -1.109548
		endloop
	endfacet
	facet normal 0.1970518301078803 0.224782602342744 -0.9542763530210518
		outer loop
			vertex 1.690902 1.364429 -1.178612
			vertex 1.695459 1.381283 -1.173701
			vertex 1.94569 1.394664 -1.118878
		endloop
	endfacet
	facet normal 0.17633947393598437 0.3954602952789125 -0.9013964415227607
		outer loop
			vertex 1.695459 1.381283 -1.173701
			vertex 1.95463 1.411944 -1.109548
			vertex 1.94569 1.394664 -1.118878
		endloop
	endfacet
	facet normal 0.23917565014908432 -0.3598580329402224 -0.9018299199428663
		outer loop
			vertex 1.685953 1.3550299 -1.176174
			vertex 1.690902 1.364429 -1.178612
			vertex 1.936507 1.383348 -1.121024
		endloop
	endfacet
	facet normal 0.22833076902444222 -0.0006584912573433598 -0.9735833946334391
		outer loop
			vertex 1.690902 1.364429 -1.178612
			vertex 1.94569 1.394664 -1.118878
			vertex 1.936507 1.383348 -1.121024
		endloop
	endfacet
	facet normal 0.05796833548347878 -0.9771286742443064 0.20459527377444256
		outer loop
			vertex 1.682503 1.356681 -1.167311
			vertex 1.685953 1.3550299 -1.176174
			vertex 1.9305919 1.382316 -1.115172
		endloop
	endfacet
	facet normal 0.12310145377449758 -0.9911157674648051 -0.050354419480874664
		outer loop
			vertex 1.685953 1.3550299 -1.176174
			vertex 1.936507 1.383348 -1.121024
			vertex 1.9305919 1.382316 -1.115172
		endloop
	endfacet
	facet normal -0.0821368292086348 -0.7019013189912369 0.7075224941200906
		outer loop
			vertex 1.681873 1.368747 -1.155414
			vertex 1.682503 1.356681 -1.167311
			vertex 1.9302 1.391966 -1.103551
		endloop
	endfacet
	facet normal -0.05436479294290287 -0.7690951046919852 0.6368180189246374
		outer loop
			vertex 1.682503 1.356681 -1.167311
			vertex 1.9305919 1.382316 -1.115172
			vertex 1.9302 1.391966 -1.103551
		endloop
	endfacet
	facet normal -0.14495505219437574 -0.48238916847905394 0.8638800396915146
		outer loop
			vertex 1.684299 1.386623 -1.145025
			vertex 1.681873 1.368747 -1.155414
			vertex 1.935481 1.408607 -1.090602
		endloop
	endfacet
	facet normal -0.11236940932081735 -0.5877722351217881 0.8011846949791465
		outer loop
			vertex 1.681873 1.368747 -1.155414
			vertex 1.9302 1.391966 -1.103551
			vertex 1.935481 1.408607 -1.090602
		endloop
	endfacet
	facet normal -0.1999811093709346 -0.22389502666323924 0.9538755542156627
		outer loop
			vertex 1.6888601 1.403476 -1.140113
			vertex 1.684299 1.386623 -1.145025
			vertex 1.9444211 1.425887 -1.081274
		endloop
	endfacet
	facet normal -0.15986500204511905 -0.4035912692012629 0.9008647337672999
		outer loop
			vertex 1.684299 1.386623 -1.145025
			vertex 1.935481 1.408607 -1.090602
			vertex 1.9444211 1.425887 -1.081274
		endloop
	endfacet
	facet normal -0.2529394361873218 0.36587460136008293 0.8956324121540267
		outer loop
			vertex 1.693808 1.412872 -1.142554
			vertex 1.6888601 1.403476 -1.140113
			vertex 1.953601 1.437205 -1.079125
		endloop
	endfacet
	facet normal -0.22408983357863968 -0.0032879932446831872 0.9745629459337762
		outer loop
			vertex 1.6888601 1.403476 -1.140113
			vertex 1.9444211 1.425887 -1.081274
			vertex 1.953601 1.437205 -1.079125
		endloop
	endfacet
	facet normal -0.043141854543740206 0.9790705667827563 -0.1988959668927939
		outer loop
			vertex 1.693808 1.412872 -1.142554
			vertex 1.953601 1.437205 -1.079125
			vertex 1.697255 1.411224 -1.151414
		endloop
	endfacet
	facet normal -0.11649607858098332 0.9915693447591416 0.0567353347498714
		outer loop
			vertex 1.953601 1.437205 -1.079125
			vertex 1.959516 1.438235 -1.084981
			vertex 1.697255 1.411224 -1.151414
		endloop
	endfacet
	facet normal 0.10643949153740549 0.7009693835362153 -0.7052039123445907
		outer loop
			vertex 1.697255 1.411224 -1.151414
			vertex 1.959516 1.438235 -1.084981
			vertex 1.697888 1.399157 -1.163313
		endloop
	endfacet
	facet normal 0.07551068569391718 0.7683753310991887 -0.635529296652992
		outer loop
			vertex 1.959516 1.438235 -1.084981
			vertex 1.9599119 1.4285851 -1.096601
			vertex 1.697888 1.399157 -1.163313
		endloop
	endfacet
endsolid exported
