solid exported
	facet normal 0.3040869882162308 -0.9093942980683438 -0.2837835693594091
		outer loop
			vertex -0.746454 8.0180178 3.722013
			vertex -0.247875 8.1940889 3.6920371
			vertex -0.736821 8.0017824 3.7843621
		endloop
	endfacet
	facet normal 0.2862712562197443 -0.893705392900869 -0.34545540748738185
		outer loop
			vertex -0.247875 8.1940889 3.6920371
			vertex -0.24234 8.1724119 3.752703
			vertex -0.736821 8.0017824 3.7843621
		endloop
	endfacet
	facet normal 0.034779822502440806 -0.9401103452279965 -0.33909128968759467
		outer loop
			vertex -0.247875 8.1940889 3.6920371
			vertex 0.326854 8.227581 3.6581309
			vertex -0.24234 8.1724119 3.752703
		endloop
	endfacet
	facet normal 0.029079047752579478 -0.9296482433632597 -0.3672989961780576
		outer loop
			vertex 0.326854 8.227581 3.6581309
			vertex 0.342643 8.2043304 3.7182291
			vertex -0.24234 8.1724119 3.752703
		endloop
	endfacet
	facet normal -0.34744942653625654 -0.9016382444194609 -0.25754101071444696
		outer loop
			vertex 0.326854 8.227581 3.6581309
			vertex 0.77598 8.0651178 3.6209891
			vertex 0.342643 8.2043304 3.7182291
		endloop
	endfacet
	facet normal -0.33789787767800855 -0.9229203708101911 -0.18450748874849884
		outer loop
			vertex 0.77598 8.0651178 3.6209891
			vertex 0.788131 8.0481863 3.683429
			vertex 0.342643 8.2043304 3.7182291
		endloop
	endfacet
	facet normal 0.2999610791493747 -0.9176466143589549 -0.260668452542862
		outer loop
			vertex -0.24234 8.1724119 3.752703
			vertex -0.160903 8.0685968 4.2118821
			vertex -0.736821 8.0017824 3.7843621
		endloop
	endfacet
	facet normal 0.309626719152754 -0.9102709744697121 -0.27484185966599556
		outer loop
			vertex -0.160903 8.0685968 4.2118821
			vertex -0.655209 7.8868618 4.256918
			vertex -0.736821 8.0017824 3.7843621
		endloop
	endfacet
	facet normal 0.03994198562332923 -0.973804682589222 -0.2238505705862064
		outer loop
			vertex 0.342643 8.2043304 3.7182291
			vertex 0.423926 8.1018181 4.1786861
			vertex -0.24234 8.1724119 3.752703
		endloop
	endfacet
	facet normal 0.042352398951088395 -0.972864845673308 -0.2274648683998008
		outer loop
			vertex 0.423926 8.1018181 4.1786861
			vertex -0.160903 8.0685968 4.2118821
			vertex -0.24234 8.1724119 3.752703
		endloop
	endfacet
	facet normal -0.35889333640409726 -0.9187809957532433 -0.16442948314525047
		outer loop
			vertex 0.870272 7.9316878 4.1551008
			vertex 0.423926 8.1018181 4.1786861
			vertex 0.788131 8.0481863 3.683429
		endloop
	endfacet
	facet normal -0.337394288605692 -0.9297467006481951 -0.14743190512930016
		outer loop
			vertex 0.423926 8.1018181 4.1786861
			vertex 0.342643 8.2043304 3.7182291
			vertex 0.788131 8.0481863 3.683429
		endloop
	endfacet
	facet normal 0.30639029704737475 -0.9058476981082806 -0.2925148435672132
		outer loop
			vertex -0.655209 7.8868618 4.256918
			vertex -0.160903 8.0685968 4.2118821
			vertex -0.647527 7.8743181 4.3038092
		endloop
	endfacet
	facet normal 0.35072170405517705 -0.9301025861444028 -0.10910300432218634
		outer loop
			vertex -0.160903 8.0685968 4.2118821
			vertex -0.153346 8.064271 4.2730522
			vertex -0.647527 7.8743181 4.3038092
		endloop
	endfacet
	facet normal 0.052196725234998145 -0.9956746590514779 -0.07686010146666301
		outer loop
			vertex -0.160903 8.0685968 4.2118821
			vertex 0.423926 8.1018181 4.1786861
			vertex -0.153346 8.064271 4.2730522
		endloop
	endfacet
	facet normal 0.050240922341544376 -0.994810061963912 -0.08848045172595412
		outer loop
			vertex 0.423926 8.1018181 4.1786861
			vertex 0.43234 8.0969172 4.2385659
			vertex -0.153346 8.064271 4.2730522
		endloop
	endfacet
	facet normal -0.3572534684245143 -0.93363951186423 -0.026214903863585118
		outer loop
			vertex 0.423926 8.1018181 4.1786861
			vertex 0.870272 7.9316878 4.1551008
			vertex 0.43234 8.0969172 4.2385659
		endloop
	endfacet
	facet normal -0.3762226380683024 -0.910514325157089 -0.17152314796743431
		outer loop
			vertex 0.870272 7.9316878 4.1551008
			vertex 0.879087 7.9192648 4.2017121
			vertex 0.43234 8.0969172 4.2385659
		endloop
	endfacet
	facet normal 0.03969895916322235 0.8709070694640889 0.48984167748245916
		outer loop
			vertex -0.871973 10.1197252 3.827585
			vertex -0.287757 10.0878897 3.836839
			vertex -0.8761 10.8278837 2.5688591
		endloop
	endfacet
	facet normal 0.1844174855906409 0.883712521460422 0.43016551514793616
		outer loop
			vertex -0.287757 10.0878897 3.836839
			vertex -0.290374 10.7053833 2.5694101
			vertex -0.8761 10.8278837 2.5688591
		endloop
	endfacet
	facet normal -0.03865463229190205 0.8982786821585952 0.43772277594591236
		outer loop
			vertex -0.287757 10.0878897 3.836839
			vertex 0.278899 10.0785408 3.906065
			vertex -0.290374 10.7053833 2.5694101
		endloop
	endfacet
	facet normal 0.013698647095511395 0.9075297820200763 0.419764269339764
		outer loop
			vertex 0.278899 10.0785408 3.906065
			vertex 0.300564 10.6943483 2.573983
			vertex -0.290374 10.7053833 2.5694101
		endloop
	endfacet
	facet normal -0.14495400532568056 0.8990089218456728 0.4132448363645012
		outer loop
			vertex 0.278899 10.0785408 3.906065
			vertex 0.863397 10.1537247 3.9475279
			vertex 0.300564 10.6943483 2.573983
		endloop
	endfacet
	facet normal -0.19864860049173014 0.8815037794682198 0.428357117725294
		outer loop
			vertex 0.863397 10.1537247 3.9475279
			vertex 0.886498 10.8281288 2.5704041
			vertex 0.300564 10.6943483 2.573983
		endloop
	endfacet
	facet normal 0.2505174382379328 0.9570554576184341 0.14589675863936644
		outer loop
			vertex -0.86708 11.2058239 1.302086
			vertex -0.280462 11.0534 1.2946841
			vertex -0.822542 11.4117126 -0.124981
		endloop
	endfacet
	facet normal 0.2907970923849229 0.9481478234820266 0.12826829649905927
		outer loop
			vertex -0.280462 11.0534 1.2946841
			vertex -0.241652 11.233923 -0.127712
			vertex -0.822542 11.4117126 -0.124981
		endloop
	endfacet
	facet normal 0.022660877156757946 0.9917101704434964 0.12648091747539655
		outer loop
			vertex -0.280462 11.0534 1.2946841
			vertex 0.312121 11.0398273 1.294935
			vertex -0.241652 11.233923 -0.127712
		endloop
	endfacet
	facet normal 0.028794757295630132 0.9918502796872329 0.12411238712007713
		outer loop
			vertex 0.312121 11.0398273 1.294935
			vertex 0.349601 11.216877 -0.128662
			vertex -0.241652 11.233923 -0.127712
		endloop
	endfacet
	facet normal -0.27260657044793113 0.9556228840149864 0.1116716673803044
		outer loop
			vertex 0.312121 11.0398273 1.294935
			vertex 0.894738 11.2052126 1.301913
			vertex 0.349601 11.216877 -0.128662
		endloop
	endfacet
	facet normal -0.312567630822469 0.9413965547433607 0.12678329101013056
		outer loop
			vertex 0.894738 11.2052126 1.301913
			vertex 0.941434 11.4128628 -0.124817
			vertex 0.349601 11.216877 -0.128662
		endloop
	endfacet
	facet normal 0.2908777867171294 0.9518663586262288 -0.09664651318173843
		outer loop
			vertex -0.822542 11.4117126 -0.124981
			vertex -0.241652 11.233923 -0.127712
			vertex -0.882747 11.2783327 -1.619832
		endloop
	endfacet
	facet normal 0.2628069137189833 0.9611578863389514 -0.08430921438337761
		outer loop
			vertex -0.241652 11.233923 -0.127712
			vertex -0.295687 11.1181679 -1.615802
			vertex -0.882747 11.2783327 -1.619832
		endloop
	endfacet
	facet normal 0.02860315811209334 0.9964994350445585 -0.07855402791639926
		outer loop
			vertex -0.241652 11.233923 -0.127712
			vertex 0.349601 11.216877 -0.128662
			vertex -0.295687 11.1181679 -1.615802
		endloop
	endfacet
	facet normal 0.02758173190901984 0.9965627384330561 -0.07811502052555283
		outer loop
			vertex 0.349601 11.216877 -0.128662
			vertex 0.296952 11.1017637 -1.6158251
			vertex -0.295687 11.1181679 -1.615802
		endloop
	endfacet
	facet normal -0.3133879859083283 0.9475824939760318 -0.062252609571690126
		outer loop
			vertex 0.349601 11.216877 -0.128662
			vertex 0.941434 11.4128628 -0.124817
			vertex 0.296952 11.1017637 -1.6158251
		endloop
	endfacet
	facet normal -0.287429035635628 0.9548616348765046 -0.07499205100903762
		outer loop
			vertex 0.941434 11.4128628 -0.124817
			vertex 0.88232 11.2777023 -1.619222
			vertex 0.296952 11.1017637 -1.6158251
		endloop
	endfacet
	facet normal 0.18723736463946206 0.9166245312490064 -0.35318782254688286
		outer loop
			vertex -0.865027 10.9628992 -2.5725751
			vertex -0.280078 10.8419666 -2.576328
			vertex -0.850746 10.5817356 -3.554234
		endloop
	endfacet
	facet normal 0.13685777054038448 0.9345185046116169 -0.3285500192987108
		outer loop
			vertex -0.280078 10.8419666 -2.576328
			vertex -0.25367 10.4917831 -3.5613799
			vertex -0.850746 10.5817356 -3.554234
		endloop
	endfacet
	facet normal 0.01966507222608119 0.9422160193254016 -0.3344282551773063
		outer loop
			vertex -0.280078 10.8419666 -2.576328
			vertex 0.31332 10.8299732 -2.5752251
			vertex -0.25367 10.4917831 -3.5613799
		endloop
	endfacet
	facet normal 0.004917486558682183 0.9450400541759881 -0.32691759562463246
		outer loop
			vertex 0.31332 10.8299732 -2.5752251
			vertex 0.348073 10.4908247 -3.555099
			vertex -0.25367 10.4917831 -3.5613799
		endloop
	endfacet
	facet normal -0.20865814281832995 0.9218858929878039 -0.3264784521920014
		outer loop
			vertex 0.31332 10.8299732 -2.5752251
			vertex 0.894734 10.9625034 -2.572588
			vertex 0.348073 10.4908247 -3.555099
		endloop
	endfacet
	facet normal -0.13732338276022688 0.9206046756478212 -0.3655534430458262
		outer loop
			vertex 0.894734 10.9625034 -2.572588
			vertex 0.947092 10.5821514 -3.5501299
			vertex 0.348073 10.4908247 -3.555099
		endloop
	endfacet
	facet normal 0.015933962748887413 -0.48272774381418154 -0.8756255102400724
		outer loop
			vertex -0.83032 9.6068354 -4.894599
			vertex -0.244992 9.6084194 -4.8848209
			vertex -0.720938 8.8558969 -4.4786201
		endloop
	endfacet
	facet normal 0.048506457259439875 -0.4980271317524868 -0.8658037304392545
		outer loop
			vertex -0.244992 9.6084194 -4.8848209
			vertex -0.274623 8.9338541 -4.4984579
			vertex -0.720938 8.8558969 -4.4786201
		endloop
	endfacet
	facet normal 0.010558148074594993 -0.4973301222511037 -0.8674971325664064
		outer loop
			vertex -0.244992 9.6084194 -4.8848209
			vertex 0.347362 9.6087275 -4.8777881
			vertex -0.274623 8.9338541 -4.4984579
		endloop
	endfacet
	facet normal -0.02204177951607233 -0.47434729213809584 -0.8800618196450867
		outer loop
			vertex 0.347362 9.6087275 -4.8777881
			vertex 0.307576 8.9414377 -4.517127
			vertex -0.274623 8.9338541 -4.4984579
		endloop
	endfacet
	facet normal 0.00044785756736021 -0.475500831695089 -0.8797151575827701
		outer loop
			vertex 0.347362 9.6087275 -4.8777881
			vertex 0.934332 9.6005907 -4.8730912
			vertex 0.307576 8.9414377 -4.517127
		endloop
	endfacet
	facet normal -0.09171033566665505 -0.4042484515899646 -0.9100397813936629
		outer loop
			vertex 0.934332 9.6005907 -4.8730912
			vertex 0.885876 8.8468876 -4.5334058
			vertex 0.307576 8.9414377 -4.517127
		endloop
	endfacet
	facet normal 0.17726945291390395 -0.9617625382071816 0.20877825836251496
		outer loop
			vertex -0.720938 8.8558969 -4.4786201
			vertex -0.274623 8.9338541 -4.4984579
			vertex -0.744918 8.8666096 -4.4089098
		endloop
	endfacet
	facet normal 0.11544041198041197 -0.9843803389550884 -0.13292426249732692
		outer loop
			vertex -0.274623 8.9338541 -4.4984579
			vertex -0.283675 8.9277554 -4.4611549
			vertex -0.744918 8.8666096 -4.4089098
		endloop
	endfacet
	facet normal 0.007743562875595843 -0.9871653821508443 -0.15951346500207875
		outer loop
			vertex -0.274623 8.9338541 -4.4984579
			vertex 0.307576 8.9414377 -4.517127
			vertex -0.283675 8.9277554 -4.4611549
		endloop
	endfacet
	facet normal 0.003246756932107524 -0.978764730290141 -0.20496112145841536
		outer loop
			vertex 0.307576 8.9414377 -4.517127
			vertex 0.29616 8.9337177 -4.480442
			vertex -0.283675 8.9277554 -4.4611549
		endloop
	endfacet
	facet normal -0.16305898664900634 -0.9540210373613879 -0.251506713916151
		outer loop
			vertex 0.307576 8.9414377 -4.517127
			vertex 0.885876 8.8468876 -4.5334058
			vertex 0.29616 8.9337177 -4.480442
		endloop
	endfacet
	facet normal -0.13733688762682097 -0.986583096137086 0.08827442275959585
		outer loop
			vertex 0.885876 8.8468876 -4.5334058
			vertex 0.877383 8.850296 -4.5085258
			vertex 0.29616 8.9337177 -4.480442
		endloop
	endfacet
	facet normal 0.14993516995556733 -0.9707392833236682 0.18757582099686035
		outer loop
			vertex -0.283675 8.9277554 -4.4611549
			vertex -0.379491 8.965888 -4.187223
			vertex -0.744918 8.8666096 -4.4089098
		endloop
	endfacet
	facet normal 0.15366147840514874 -0.9712787204751889 0.18167497683066888
		outer loop
			vertex -0.379491 8.965888 -4.187223
			vertex -0.814782 8.8962879 -4.1911511
			vertex -0.744918 8.8666096 -4.4089098
		endloop
	endfacet
	facet normal 0.014856490218819235 -0.9899539486936383 0.1406074826040632
		outer loop
			vertex 0.29616 8.9337177 -4.480442
			vertex 0.20121 8.9711447 -4.206903
			vertex -0.283675 8.9277554 -4.4611549
		endloop
	endfacet
	facet normal 0.013791443908288037 -0.989685348773921 0.14259279959790017
		outer loop
			vertex 0.20121 8.9711447 -4.206903
			vertex -0.379491 8.965888 -4.187223
			vertex -0.283675 8.9277554 -4.4611549
		endloop
	endfacet
	facet normal -0.1351599393068971 -0.9865189763589841 0.0922610431882178
		outer loop
			vertex 0.773869 8.8914671 -4.2199411
			vertex 0.20121 8.9711447 -4.206903
			vertex 0.877383 8.850296 -4.5085258
		endloop
	endfacet
	facet normal -0.13739477262050032 -0.9866610353084087 0.08730794843941993
		outer loop
			vertex 0.20121 8.9711447 -4.206903
			vertex 0.29616 8.9337177 -4.480442
			vertex 0.877383 8.850296 -4.5085258
		endloop
	endfacet
	facet normal 0.1540191413872096 -0.972972593054261 0.17205358831368275
		outer loop
			vertex -0.814782 8.8962879 -4.1911511
			vertex -0.379491 8.965888 -4.187223
			vertex -0.835336 8.9038658 -4.1298981
		endloop
	endfacet
	facet normal 0.16184700704025748 -0.9530789862986555 0.2558241430905966
		outer loop
			vertex -0.379491 8.965888 -4.187223
			vertex -0.387746 8.9759283 -4.1445951
			vertex -0.835336 8.9038658 -4.1298981
		endloop
	endfacet
	facet normal 0.016675648605754052 -0.9725044061237421 0.23228668238511974
		outer loop
			vertex -0.379491 8.965888 -4.187223
			vertex 0.20121 8.9711447 -4.206903
			vertex -0.387746 8.9759283 -4.1445951
		endloop
	endfacet
	facet normal 0.016989075759870735 -0.9717996652368515 0.23519519967543787
		outer loop
			vertex 0.20121 8.9711447 -4.206903
			vertex 0.193601 8.9827318 -4.1584768
			vertex -0.387746 8.9759283 -4.1445951
		endloop
	endfacet
	facet normal -0.12997253327357283 -0.9687262527529756 0.21136836996492187
		outer loop
			vertex 0.20121 8.9711447 -4.206903
			vertex 0.773869 8.8914671 -4.2199411
			vertex 0.193601 8.9827318 -4.1584768
		endloop
	endfacet
	facet normal -0.14840829515745368 -0.9868390434120307 0.06421588842402173
		outer loop
			vertex 0.773869 8.8914671 -4.2199411
			vertex 0.761677 8.8957834 -4.181787
			vertex 0.193601 8.9827318 -4.1584768
		endloop
	endfacet
	facet normal 0.014463655605068331 0.11278934880117347 0.9935136463398706
		outer loop
			vertex -0.835336 8.9038658 -4.1298981
			vertex -0.387746 8.9759283 -4.1445951
			vertex -0.816451 9.034029 -4.1449499
		endloop
	endfacet
	facet normal -0.06541751508374465 -0.47734213157402317 0.8762790869036167
		outer loop
			vertex -0.387746 8.9759283 -4.1445951
			vertex -0.348719 9.0963984 -4.076057
			vertex -0.816451 9.034029 -4.1449499
		endloop
	endfacet
	facet normal 0.026519514498354796 -0.5007984129252117 0.8651575954485754
		outer loop
			vertex -0.387746 8.9759283 -4.1445951
			vertex 0.193601 8.9827318 -4.1584768
			vertex -0.348719 9.0963984 -4.076057
		endloop
	endfacet
	facet normal -0.012057546353768015 -0.6240460205787225 0.7812945537860787
		outer loop
			vertex 0.193601 8.9827318 -4.1584768
			vertex 0.23643 9.1071949 -4.058403
			vertex -0.348719 9.0963984 -4.076057
		endloop
	endfacet
	facet normal -0.061412241573912285 -0.6125119972758315 0.7880720714363879
		outer loop
			vertex 0.193601 8.9827318 -4.1584768
			vertex 0.761677 8.8957834 -4.181787
			vertex 0.23643 9.1071949 -4.058403
		endloop
	endfacet
	facet normal -0.07749387159992735 -0.6391157981633966 0.7651965083574406
		outer loop
			vertex 0.761677 8.8957834 -4.181787
			vertex 0.827651 9.0381317 -4.0562119
			vertex 0.23643 9.1071949 -4.058403
		endloop
	endfacet
	facet normal -0.04008173145897004 -0.8355914056737525 0.5478872672068715
		outer loop
			vertex -0.857164 9.6331768 -3.1260481
			vertex -0.262044 9.6042433 -3.1266379
			vertex -0.866438 10.061264 -2.4738441
		endloop
	endfacet
	facet normal -0.13655166817315642 -0.8664712111188007 0.4801887985172574
		outer loop
			vertex -0.262044 9.6042433 -3.1266379
			vertex -0.280793 10.0202351 -2.3813379
			vertex -0.866438 10.061264 -2.4738441
		endloop
	endfacet
	facet normal 0.0019526296143549849 -0.8731699442934993 0.48741197730469943
		outer loop
			vertex -0.262044 9.6042433 -3.1266379
			vertex 0.343822 9.6081095 -3.122139
			vertex -0.280793 10.0202351 -2.3813379
		endloop
	endfacet
	facet normal -0.002922871336308344 -0.8749131950818368 0.48427095503947276
		outer loop
			vertex 0.343822 9.6081095 -3.122139
			vertex 0.312209 10.019537 -2.37902
			vertex -0.280793 10.0202351 -2.3813379
		endloop
	endfacet
	facet normal 0.10399293301743984 -0.8682394946180213 0.4851243653619897
		outer loop
			vertex 0.343822 9.6081095 -3.122139
			vertex 0.944433 9.6910295 -3.102484
			vertex 0.312209 10.019537 -2.37902
		endloop
	endfacet
	facet normal 0.07986417915954211 -0.8794991324421927 0.4691513496949606
		outer loop
			vertex 0.944433 9.6910295 -3.102484
			vertex 0.894307 10.0694027 -2.38463
			vertex 0.312209 10.019537 -2.37902
		endloop
	endfacet
	facet normal -0.2076562989123048 -0.9713603965722336 0.11548957309245118
		outer loop
			vertex -0.881389 10.4365387 -1.459849
			vertex -0.295399 10.3124838 -1.44961
			vertex -0.822164 10.5854473 -0.100918
		endloop
	endfacet
	facet normal -0.18502379128222413 -0.9747499063935274 0.12501526564928708
		outer loop
			vertex -0.295399 10.3124838 -1.44961
			vertex -0.239548 10.4759789 -0.092171
			vertex -0.822164 10.5854473 -0.100918
		endloop
	endfacet
	facet normal -0.01126775497758313 -0.9927064484646959 0.1200289334884529
		outer loop
			vertex -0.295399 10.3124838 -1.44961
			vertex 0.297258 10.3057671 -1.449525
			vertex -0.239548 10.4759789 -0.092171
		endloop
	endfacet
	facet normal 0.045186677605941535 -0.9888530795372557 0.14187230616516644
		outer loop
			vertex 0.297258 10.3057671 -1.449525
			vertex 0.346995 10.5034628 -0.087423
			vertex -0.239548 10.4759789 -0.092171
		endloop
	endfacet
	facet normal 0.2183871758356084 -0.9668451510149547 0.1323536753906612
		outer loop
			vertex 0.297258 10.3057671 -1.449525
			vertex 0.880274 10.4362926 -1.458027
			vertex 0.346995 10.5034628 -0.087423
		endloop
	endfacet
	facet normal 0.14454165053557053 -0.9839693310264025 0.10446083888188552
		outer loop
			vertex 0.880274 10.4362926 -1.458027
			vertex 0.939678 10.5891829 -0.100073
			vertex 0.346995 10.5034628 -0.087423
		endloop
	endfacet
	facet normal -0.17445540331120926 -0.949368735625413 -0.26127440761109394
		outer loop
			vertex -0.822164 10.5854473 -0.100918
			vertex -0.239548 10.4759789 -0.092171
			vertex -0.865524 10.2589712 1.11432
		endloop
	endfacet
	facet normal -0.043691603690485886 -0.9790714790762846 -0.19877143312440634
		outer loop
			vertex -0.239548 10.4759789 -0.092171
			vertex -0.276378 10.2324762 1.115325
			vertex -0.865524 10.2589712 1.11432
		endloop
	endfacet
	facet normal 0.0474812015405629 -0.9794406805066056 -0.19606501184306674
		outer loop
			vertex -0.239548 10.4759789 -0.092171
			vertex 0.346995 10.5034628 -0.087423
			vertex -0.276378 10.2324762 1.115325
		endloop
	endfacet
	facet normal 0.11749871790625437 -0.9801109783561857 -0.15992661253233398
		outer loop
			vertex 0.346995 10.5034628 -0.087423
			vertex 0.308102 10.2998962 1.131561
			vertex -0.276378 10.2324762 1.115325
		endloop
	endfacet
	facet normal 0.13800174365362114 -0.9776096831760733 -0.1588547327243921
		outer loop
			vertex 0.346995 10.5034628 -0.087423
			vertex 0.939678 10.5891829 -0.100073
			vertex 0.308102 10.2998962 1.131561
		endloop
	endfacet
	facet normal -0.03719534369550454 -0.9684194999046253 -0.24653636367045156
		outer loop
			vertex 0.939678 10.5891829 -0.100073
			vertex 0.890147 10.2805176 1.119868
			vertex 0.308102 10.2998962 1.131561
		endloop
	endfacet
	facet normal -0.031026229124608295 -0.7659594811374594 -0.6421397405253328
		outer loop
			vertex -0.835126 9.8479795 2.22684
			vertex -0.250574 9.8269138 2.2237239
			vertex -0.783482 9.1578999 3.047488
		endloop
	endfacet
	facet normal 0.09835681955152194 -0.8026717308722718 -0.5882550709566562
		outer loop
			vertex -0.250574 9.8269138 2.2237239
			vertex -0.200665 9.2262487 3.0516739
			vertex -0.783482 9.1578999 3.047488
		endloop
	endfacet
	facet normal 0.03516578742694558 -0.8079145449948785 -0.588249483960982
		outer loop
			vertex -0.250574 9.8269138 2.2237239
			vertex 0.341145 9.8474035 2.2309561
			vertex -0.200665 9.2262487 3.0516739
		endloop
	endfacet
	facet normal 0.04141490686698817 -0.8096558360745245 -0.5854419122335378
		outer loop
			vertex 0.341145 9.8474035 2.2309561
			vertex 0.391373 9.2500086 3.0606959
			vertex -0.200665 9.2262487 3.0516739
		endloop
	endfacet
	facet normal 0.0016287623908672257 -0.8114947448630858 -0.5843574472809167
		outer loop
			vertex 0.341145 9.8474035 2.2309561
			vertex 0.925347 9.8509359 2.227679
			vertex 0.391373 9.2500086 3.0606959
		endloop
	endfacet
	facet normal -0.025325490181709945 -0.8029677457635833 -0.595484188547778
		outer loop
			vertex 0.925347 9.8509359 2.227679
			vertex 0.976732 9.2196007 3.0768039
			vertex 0.391373 9.2500086 3.0606959
		endloop
	endfacet
	facet normal 0.9597648280171751 -0.2713702112590583 -0.07217813617970782
		outer loop
			vertex 0.837971 9.0976362 -4.1427059
			vertex 0.827651 9.0381317 -4.0562119
			vertex 0.773869 8.8914671 -4.2199411
		endloop
	endfacet
	facet normal 0.7339616122588769 -0.6077161311263144 0.3032844468468743
		outer loop
			vertex 0.827651 9.0381317 -4.0562119
			vertex 0.761677 8.8957834 -4.181787
			vertex 0.773869 8.8914671 -4.2199411
		endloop
	endfacet
	facet normal 0.9905337120108969 -0.08017209273377957 0.1114244179549533
		outer loop
			vertex 0.894307 10.0694027 -2.38463
			vertex 0.944433 9.6910295 -3.102484
			vertex 0.904359 10.1655884 -2.4047821
		endloop
	endfacet
	facet normal 0.9946015361276959 -0.04983039213598089 0.09102041722604015
		outer loop
			vertex 0.944433 9.6910295 -3.102484
			vertex 0.952262 9.7492933 -3.156136
			vertex 0.904359 10.1655884 -2.4047821
		endloop
	endfacet
	facet normal 0.9975770990760245 -0.05891048015095799 -0.037006576813417916
		outer loop
			vertex 0.939678 10.5891829 -0.100073
			vertex 0.880274 10.4362926 -1.458027
			vertex 0.944976 10.6829109 -0.106461
		endloop
	endfacet
	facet normal 0.9947301754868064 -0.09812709653067542 -0.029714489772616603
		outer loop
			vertex 0.880274 10.4362926 -1.458027
			vertex 0.889096 10.5306864 -1.474419
			vertex 0.944976 10.6829109 -0.106461
		endloop
	endfacet
	facet normal 0.9933712125737459 -0.114751615626772 0.0067602323045590365
		outer loop
			vertex 0.901519 10.3801193 1.139518
			vertex 0.890147 10.2805176 1.119868
			vertex 0.944976 10.6829109 -0.106461
		endloop
	endfacet
	facet normal 0.9981509501892197 -0.05460024681394808 0.026711302555550504
		outer loop
			vertex 0.890147 10.2805176 1.119868
			vertex 0.939678 10.5891829 -0.100073
			vertex 0.944976 10.6829109 -0.106461
		endloop
	endfacet
	facet normal 0.998184346144128 0.060159221789376355 -0.002979789676535666
		outer loop
			vertex 0.970496 9.3275194 3.1666181
			vertex 0.976732 9.2196007 3.0768039
			vertex 0.9301 9.952981 2.2620671
		endloop
	endfacet
	facet normal 0.9969009412581433 -0.02087336856350902 -0.07584731902605422
		outer loop
			vertex 0.976732 9.2196007 3.0768039
			vertex 0.925347 9.8509359 2.227679
			vertex 0.9301 9.952981 2.2620671
		endloop
	endfacet
	facet normal 0.9914621937725828 -0.029776739915385365 0.1269490609641095
		outer loop
			vertex 0.938502 9.5623484 -4.8188438
			vertex 0.837971 9.0976362 -4.1427059
			vertex 0.877383 8.850296 -4.5085258
		endloop
	endfacet
	facet normal 0.8443628734979389 -0.3972194930369926 0.3595386101794055
		outer loop
			vertex 0.837971 9.0976362 -4.1427059
			vertex 0.773869 8.8914671 -4.2199411
			vertex 0.877383 8.850296 -4.5085258
		endloop
	endfacet
	facet normal 0.9987365335834439 0.010525338808094507 0.049138108721252516
		outer loop
			vertex 0.904204 10.8993692 -2.5588069
			vertex 0.904359 10.1655884 -2.4047821
			vertex 0.955529 10.5130548 -3.519244
		endloop
	endfacet
	facet normal 0.9984217707711244 0.020572962354836008 0.05225629981350528
		outer loop
			vertex 0.904359 10.1655884 -2.4047821
			vertex 0.952262 9.7492933 -3.156136
			vertex 0.955529 10.5130548 -3.519244
		endloop
	endfacet
	facet normal 0.9991763977486009 -0.005476460427840922 -0.04020615081442119
		outer loop
			vertex 0.944976 10.6829109 -0.106461
			vertex 0.889096 10.5306864 -1.474419
			vertex 0.947988 11.3515368 -0.122682
		endloop
	endfacet
	facet normal 0.9992102666823365 -0.0074000966870901505 -0.03903948674913803
		outer loop
			vertex 0.889096 10.5306864 -1.474419
			vertex 0.888924 11.2168264 -1.608882
			vertex 0.947988 11.3515368 -0.122682
		endloop
	endfacet
	facet normal 0.9994973184471703 -0.007927207118101095 0.030696413540067885
		outer loop
			vertex 0.902954 11.1384354 1.288625
			vertex 0.901519 10.3801193 1.139518
			vertex 0.947988 11.3515368 -0.122682
		endloop
	endfacet
	facet normal 0.9994163025765938 -0.0036781682601534312 0.03396358671254495
		outer loop
			vertex 0.901519 10.3801193 1.139518
			vertex 0.944976 10.6829109 -0.106461
			vertex 0.947988 11.3515368 -0.122682
		endloop
	endfacet
	facet normal 0.9963025057257061 0.07247680277283264 0.046134912425486695
		outer loop
			vertex 0.881743 10.0930119 3.8807061
			vertex 0.970496 9.3275194 3.1666181
			vertex 0.8945 10.7614231 2.555156
		endloop
	endfacet
	facet normal 0.9987782766801405 0.04809552437391556 -0.011347888219705409
		outer loop
			vertex 0.970496 9.3275194 3.1666181
			vertex 0.9301 9.952981 2.2620671
			vertex 0.8945 10.7614231 2.555156
		endloop
	endfacet
	facet normal 0.9671895845596082 -0.16660605366967937 -0.1917986715283205
		outer loop
			vertex 0.938502 9.5623484 -4.8188438
			vertex 0.877383 8.850296 -4.5085258
			vertex 0.934332 9.6005907 -4.8730912
		endloop
	endfacet
	facet normal 0.9466518906684025 0.07984824864421272 0.3122089926353676
		outer loop
			vertex 0.877383 8.850296 -4.5085258
			vertex 0.885876 8.8468876 -4.5334058
			vertex 0.934332 9.6005907 -4.8730912
		endloop
	endfacet
	facet normal 0.9891170480693134 0.14699717215405256 -0.006268699814107612
		outer loop
			vertex 0.904204 10.8993692 -2.5588069
			vertex 0.955529 10.5130548 -3.519244
			vertex 0.894734 10.9625034 -2.572588
		endloop
	endfacet
	facet normal 0.9923369619217611 0.1234552085359788 0.005115221327314121
		outer loop
			vertex 0.955529 10.5130548 -3.519244
			vertex 0.947092 10.5821514 -3.5501299
			vertex 0.894734 10.9625034 -2.572588
		endloop
	endfacet
	facet normal 0.9933246227862974 0.1044541277109262 -0.048944141330803236
		outer loop
			vertex 0.947988 11.3515368 -0.122682
			vertex 0.888924 11.2168264 -1.608882
			vertex 0.941434 11.4128628 -0.124817
		endloop
	endfacet
	facet normal 0.9938526539031401 0.0996083177685682 -0.04832272096024086
		outer loop
			vertex 0.888924 11.2168264 -1.608882
			vertex 0.88232 11.2777023 -1.619222
			vertex 0.941434 11.4128628 -0.124817
		endloop
	endfacet
	facet normal 0.9924682648217934 0.11242936888913885 0.04864545541783361
		outer loop
			vertex 0.902954 11.1384354 1.288625
			vertex 0.947988 11.3515368 -0.122682
			vertex 0.894738 11.2052126 1.301913
		endloop
	endfacet
	facet normal 0.9930038040718847 0.1078014684859889 0.048190128564164186
		outer loop
			vertex 0.947988 11.3515368 -0.122682
			vertex 0.941434 11.4128628 -0.124817
			vertex 0.894738 11.2052126 1.301913
		endloop
	endfacet
	facet normal 0.9777571396793358 0.18334443078256507 0.10186164885324248
		outer loop
			vertex 0.881743 10.0930119 3.8807061
			vertex 0.8945 10.7614231 2.555156
			vertex 0.863397 10.1537247 3.9475279
		endloop
	endfacet
	facet normal 0.9923294360235523 0.10363338713153558 0.06739741443723143
		outer loop
			vertex 0.8945 10.7614231 2.555156
			vertex 0.886498 10.8281288 2.5704041
			vertex 0.863397 10.1537247 3.9475279
		endloop
	endfacet
	facet normal -0.9397036482614444 0.0984665459890075 -0.3275078514556968
		outer loop
			vertex -0.835336 8.9038658 -4.1298981
			vertex -0.816451 9.034029 -4.1449499
			vertex -0.814782 8.8962879 -4.1911511
		endloop
	endfacet
	facet normal -0.9997607308667955 -0.01680913395622618 0.013997643813607217
		outer loop
			vertex -0.816451 9.034029 -4.1449499
			vertex -0.81829 9.0708199 -4.2321172
			vertex -0.814782 8.8962879 -4.1911511
		endloop
	endfacet
	facet normal -0.9979055902637962 -0.05967084181992875 0.024976460052728536
		outer loop
			vertex -0.857164 9.6331768 -3.1260481
			vertex -0.866438 10.061264 -2.4738441
			vertex -0.86325 9.7169676 -3.169024
		endloop
	endfacet
	facet normal -0.9962322562003897 -0.0794465887260753 0.0347783157394242
		outer loop
			vertex -0.866438 10.061264 -2.4738441
			vertex -0.874269 10.1584797 -2.476088
			vertex -0.86325 9.7169676 -3.169024
		endloop
	endfacet
	facet normal -0.9963184367910026 -0.06892864376048925 0.05097464643990042
		outer loop
			vertex -0.881389 10.4365387 -1.459849
			vertex -0.822164 10.5854473 -0.100918
			vertex -0.888732 10.5312128 -1.475351
		endloop
	endfacet
	facet normal -0.9929900116418648 -0.10600938986350172 0.05227662996270292
		outer loop
			vertex -0.822164 10.5854473 -0.100918
			vertex -0.832717 10.6814795 -0.106632
			vertex -0.888732 10.5312128 -1.475351
		endloop
	endfacet
	facet normal -0.9914369930825804 -0.11285810052094587 -0.0656942759620314
		outer loop
			vertex -0.822164 10.5854473 -0.100918
			vertex -0.865524 10.2589712 1.11432
			vertex -0.832717 10.6814795 -0.106632
		endloop
	endfacet
	facet normal -0.995868550721623 -0.07414951222141453 -0.05241831283950827
		outer loop
			vertex -0.865524 10.2589712 1.11432
			vertex -0.874203 10.3612967 1.134461
			vertex -0.832717 10.6814795 -0.106632
		endloop
	endfacet
	facet normal -0.9964257750215052 -0.08409255947514098 -0.008007266307077774
		outer loop
			vertex -0.835126 9.8479795 2.22684
			vertex -0.783482 9.1578999 3.047488
			vertex -0.843644 9.9456501 2.2610819
		endloop
	endfacet
	facet normal -0.9841360671014697 -0.15722261235062918 -0.08220250358532573
		outer loop
			vertex -0.783482 9.1578999 3.047488
			vertex -0.80224 9.2391968 3.11657
			vertex -0.843644 9.9456501 2.2610819
		endloop
	endfacet
	facet normal -0.9992490902862143 -0.011391879148657486 0.0370335071473854
		outer loop
			vertex -0.81829 9.0708199 -4.2321172
			vertex -0.845961 9.6047821 -4.8144922
			vertex -0.814782 8.8962879 -4.1911511
		endloop
	endfacet
	facet normal -0.9269147572193114 -0.27005129400031597 -0.26057883923645886
		outer loop
			vertex -0.845961 9.6047821 -4.8144922
			vertex -0.744918 8.8666096 -4.4089098
			vertex -0.814782 8.8962879 -4.1911511
		endloop
	endfacet
	facet normal -0.9998880349022992 -0.0016048529940761477 -0.014877570570705793
		outer loop
			vertex -0.874269 10.1584797 -2.476088
			vertex -0.874213 10.8992491 -2.5597589
			vertex -0.86325 9.7169676 -3.169024
		endloop
	endfacet
	facet normal -0.9998861691505628 -0.0015368168273388082 -0.015009561467653915
		outer loop
			vertex -0.874213 10.8992491 -2.5597589
			vertex -0.859163 10.5119724 -3.522686
			vertex -0.86325 9.7169676 -3.169024
		endloop
	endfacet
	facet normal -0.9991733361834131 0.005110016406430155 0.04033028629249223
		outer loop
			vertex -0.832717 10.6814795 -0.106632
			vertex -0.829938 11.3515368 -0.122682
			vertex -0.888732 10.5312128 -1.475351
		endloop
	endfacet
	facet normal -0.999210949260916 0.0072119120479139836 0.039057229826404916
		outer loop
			vertex -0.829938 11.3515368 -0.122682
			vertex -0.889003 11.2168236 -1.608882
			vertex -0.888732 10.5312128 -1.475351
		endloop
	endfacet
	facet normal -0.9994726574566031 0.005364021389981076 -0.0320255253065971
		outer loop
			vertex -0.874203 10.3612967 1.134461
			vertex -0.874972 11.1384354 1.288625
			vertex -0.832717 10.6814795 -0.106632
		endloop
	endfacet
	facet normal -0.9995017306596965 0.00339366297285521 -0.03138110036149838
		outer loop
			vertex -0.874972 11.1384354 1.288625
			vertex -0.829938 11.3515368 -0.122682
			vertex -0.832717 10.6814795 -0.106632
		endloop
	endfacet
	facet normal -0.9968758410765844 -0.07741257758651657 -0.015679614448834235
		outer loop
			vertex -0.80224 9.2391968 3.11657
			vertex -0.875688 10.0488777 3.7887199
			vertex -0.843644 9.9456501 2.2610819
		endloop
	endfacet
	facet normal -0.9989553715560208 -0.041950548689637907 -0.018119522731319025
		outer loop
			vertex -0.875688 10.0488777 3.7887199
			vertex -0.883231 10.7615938 2.554487
			vertex -0.843644 9.9456501 2.2610819
		endloop
	endfacet
	facet normal -0.9209643274383894 -0.2767624807335438 -0.27427584079566697
		outer loop
			vertex -0.744918 8.8666096 -4.4089098
			vertex -0.845961 9.6047821 -4.8144922
			vertex -0.720938 8.8558969 -4.4786201
		endloop
	endfacet
	facet normal -0.950427184435169 -0.244711306329695 -0.1918451032501263
		outer loop
			vertex -0.845961 9.6047821 -4.8144922
			vertex -0.83032 9.6068354 -4.894599
			vertex -0.720938 8.8558969 -4.4786201
		endloop
	endfacet
	facet normal -0.9939638616755798 0.0955240727138388 -0.053953620964030495
		outer loop
			vertex -0.859163 10.5119724 -3.522686
			vertex -0.874213 10.8992491 -2.5597589
			vertex -0.850746 10.5817356 -3.554234
		endloop
	endfacet
	facet normal -0.9894284536091087 0.12975192860020998 -0.06477478068827243
		outer loop
			vertex -0.874213 10.8992491 -2.5597589
			vertex -0.865027 10.9628992 -2.5725751
			vertex -0.850746 10.5817356 -3.554234
		endloop
	endfacet
	facet normal -0.9938750825259554 0.10640033555854145 0.02985446243118737
		outer loop
			vertex -0.889003 11.2168236 -1.608882
			vertex -0.829938 11.3515368 -0.122682
			vertex -0.882747 11.2783327 -1.619832
		endloop
	endfacet
	facet normal -0.9919801540169164 0.12302782596196826 0.028974610879989864
		outer loop
			vertex -0.829938 11.3515368 -0.122682
			vertex -0.822542 11.4117126 -0.124981
			vertex -0.882747 11.2783327 -1.619832
		endloop
	endfacet
	facet normal -0.9925048664325076 0.1214761616175221 -0.013327875542034028
		outer loop
			vertex -0.829938 11.3515368 -0.122682
			vertex -0.874972 11.1384354 1.288625
			vertex -0.822542 11.4117126 -0.124981
		endloop
	endfacet
	facet normal -0.9927949242213434 0.11902716115967922 -0.0138120724949238
		outer loop
			vertex -0.874972 11.1384354 1.288625
			vertex -0.86708 11.2058239 1.302086
			vertex -0.822542 11.4117126 -0.124981
		endloop
	endfacet
	facet normal -0.9937621961882063 0.09383710232722309 0.06026023277438718
		outer loop
			vertex -0.883231 10.7615938 2.554487
			vertex -0.875688 10.0488777 3.7887199
			vertex -0.8761 10.8278837 2.5688591
		endloop
	endfacet
	facet normal -0.9989393000492198 0.03865442608042025 0.02502219338044478
		outer loop
			vertex -0.875688 10.0488777 3.7887199
			vertex -0.871973 10.1197252 3.827585
			vertex -0.8761 10.8278837 2.5688591
		endloop
	endfacet
	facet normal -0.19014557774306134 -0.8919798103368878 0.4101422646059865
		outer loop
			vertex 0.167086 9.3058615 -3.8614061
			vertex 0.741294 9.225831 -3.769249
			vertex 0.343822 9.6081095 -3.122139
		endloop
	endfacet
	facet normal 0.0965847655752285 -0.8298534365341095 0.5495586019082103
		outer loop
			vertex 0.741294 9.225831 -3.769249
			vertex 0.944433 9.6910295 -3.102484
			vertex 0.343822 9.6081095 -3.122139
		endloop
	endfacet
	facet normal 0.017880384674213313 -0.9226864928326188 0.3851362457470652
		outer loop
			vertex -0.416399 9.2539377 -3.9587131
			vertex 0.167086 9.3058615 -3.8614061
			vertex -0.262044 9.6042433 -3.1266379
		endloop
	endfacet
	facet normal 0.003102902563819151 -0.9258808529363085 0.37780288268039136
		outer loop
			vertex 0.167086 9.3058615 -3.8614061
			vertex 0.343822 9.6081095 -3.122139
			vertex -0.262044 9.6042433 -3.1266379
		endloop
	endfacet
	facet normal 0.0667716116318814 -0.894220049982284 0.44261953649806607
		outer loop
			vertex -0.899349 9.1755323 -4.0442591
			vertex -0.416399 9.2539377 -3.9587131
			vertex -0.857164 9.6331768 -3.1260481
		endloop
	endfacet
	facet normal -0.044229948177243995 -0.9177894039123424 0.3945964036207957
		outer loop
			vertex -0.416399 9.2539377 -3.9587131
			vertex -0.262044 9.6042433 -3.1266379
			vertex -0.857164 9.6331768 -3.1260481
		endloop
	endfacet
	facet normal -0.9977577551054547 0.06692831500033475 -0.0002505556611577057
		outer loop
			vertex -0.893178 9.2672567 -4.1169119
			vertex -0.899349 9.1755323 -4.0442591
			vertex -0.86325 9.7169676 -3.169024
		endloop
	endfacet
	facet normal -0.997109077128399 -0.038966588783274 0.06523107592817823
		outer loop
			vertex -0.899349 9.1755323 -4.0442591
			vertex -0.857164 9.6331768 -3.1260481
			vertex -0.86325 9.7169676 -3.169024
		endloop
	endfacet
	facet normal -0.9995853919827302 0.01583616664115748 0.02404703642541942
		outer loop
			vertex -0.86325 9.7169676 -3.169024
			vertex -0.859163 10.5119724 -3.522686
			vertex -0.893178 9.2672567 -4.1169119
		endloop
	endfacet
	facet normal -0.996279939652133 0.05775807724294429 -0.06395534660949329
		outer loop
			vertex -0.859163 10.5119724 -3.522686
			vertex -0.811615 10.015296 -4.711925
			vertex -0.893178 9.2672567 -4.1169119
		endloop
	endfacet
	facet normal -0.9897701634901842 0.11207116025401334 -0.08828974178200723
		outer loop
			vertex -0.800555 10.0767097 -4.757957
			vertex -0.811615 10.015296 -4.711925
			vertex -0.850746 10.5817356 -3.554234
		endloop
	endfacet
	facet normal -0.9934539626931361 0.08571133972543152 -0.07551682098563671
		outer loop
			vertex -0.811615 10.015296 -4.711925
			vertex -0.859163 10.5119724 -3.522686
			vertex -0.850746 10.5817356 -3.554234
		endloop
	endfacet
	facet normal 0.13344591538833087 0.9158545029581786 -0.37868551210390666
		outer loop
			vertex -0.850746 10.5817356 -3.554234
			vertex -0.25367 10.4917831 -3.5613799
			vertex -0.800555 10.0767097 -4.757957
		endloop
	endfacet
	facet normal 0.08174728864054223 0.9294515858421104 -0.3597737210741025
		outer loop
			vertex -0.25367 10.4917831 -3.5613799
			vertex -0.220434 10.0667372 -4.651906
			vertex -0.800555 10.0767097 -4.757957
		endloop
	endfacet
	facet normal 0.005273063212273185 0.9317709369121718 -0.36300842404849637
		outer loop
			vertex -0.25367 10.4917831 -3.5613799
			vertex 0.348073 10.4908247 -3.555099
			vertex -0.220434 10.0667372 -4.651906
		endloop
	endfacet
	facet normal -0.007932429109125444 0.9340531018596362 -0.35704604671501516
		outer loop
			vertex 0.348073 10.4908247 -3.555099
			vertex 0.362978 10.1087866 -4.5548639
			vertex -0.220434 10.0667372 -4.651906
		endloop
	endfacet
	facet normal -0.13800151344478048 0.9244965107819018 -0.3553333418623126
		outer loop
			vertex 0.348073 10.4908247 -3.555099
			vertex 0.947092 10.5821514 -3.5501299
			vertex 0.362978 10.1087866 -4.5548639
		endloop
	endfacet
	facet normal 0.0532494376111715 0.8910538186838725 -0.450763341014975
		outer loop
			vertex 0.947092 10.5821514 -3.5501299
			vertex 0.938636 10.1216927 -4.4613481
			vertex 0.362978 10.1087866 -4.5548639
		endloop
	endfacet
	facet normal 0.9934512584217022 0.08963207909044377 -0.07085681010503408
		outer loop
			vertex 0.955529 10.5130548 -3.519244
			vertex 0.932597 10.059392 -4.4146352
			vertex 0.947092 10.5821514 -3.5501299
		endloop
	endfacet
	facet normal 0.9967628987836479 -0.07510018131694302 0.028699936839331485
		outer loop
			vertex 0.932597 10.059392 -4.4146352
			vertex 0.938636 10.1216927 -4.4613481
			vertex 0.947092 10.5821514 -3.5501299
		endloop
	endfacet
	facet normal 0.999733725363087 -0.013256092621355374 -0.018887942716393505
		outer loop
			vertex 0.955529 10.5130548 -3.519244
			vertex 0.952262 9.7492933 -3.156136
			vertex 0.932597 10.059392 -4.4146352
		endloop
	endfacet
	facet normal 0.958405137542229 -0.27328376157382434 -0.08231389914663526
		outer loop
			vertex 0.952262 9.7492933 -3.156136
			vertex 0.769181 9.313447 -3.8407841
			vertex 0.932597 10.059392 -4.4146352
		endloop
	endfacet
	facet normal 0.962114016120442 -0.24304877680202305 -0.1235472058754644
		outer loop
			vertex 0.944433 9.6910295 -3.102484
			vertex 0.741294 9.225831 -3.769249
			vertex 0.952262 9.7492933 -3.156136
		endloop
	endfacet
	facet normal 0.9421845487785047 -0.3326785084479637 -0.040165732408157996
		outer loop
			vertex 0.741294 9.225831 -3.769249
			vertex 0.769181 9.313447 -3.8407841
			vertex 0.952262 9.7492933 -3.156136
		endloop
	endfacet
	facet normal -0.08626446890012313 -0.7165124495579397 0.6922198718859932
		outer loop
			vertex 0.23643 9.1071949 -4.058403
			vertex 0.827651 9.0381317 -4.0562119
			vertex 0.167086 9.3058615 -3.8614061
		endloop
	endfacet
	facet normal -0.19733110283911096 -0.8465696786518765 0.4943482730217221
		outer loop
			vertex 0.827651 9.0381317 -4.0562119
			vertex 0.741294 9.225831 -3.769249
			vertex 0.167086 9.3058615 -3.8614061
		endloop
	endfacet
	facet normal -0.013025437823037615 -0.6008982173254863 0.7992194131679804
		outer loop
			vertex -0.348719 9.0963984 -4.076057
			vertex 0.23643 9.1071949 -4.058403
			vertex -0.416399 9.2539377 -3.9587131
		endloop
	endfacet
	facet normal -0.053291389950593855 -0.7124335614752351 0.6997131185284768
		outer loop
			vertex 0.23643 9.1071949 -4.058403
			vertex 0.167086 9.3058615 -3.8614061
			vertex -0.416399 9.2539377 -3.9587131
		endloop
	endfacet
	facet normal -0.03904319824174197 -0.5944186327309972 0.8032073939732304
		outer loop
			vertex -0.816451 9.034029 -4.1449499
			vertex -0.348719 9.0963984 -4.076057
			vertex -0.899349 9.1755323 -4.0442591
		endloop
	endfacet
	facet normal -0.04164680496884481 -0.6082834219261442 0.7926265339021319
		outer loop
			vertex -0.348719 9.0963984 -4.076057
			vertex -0.416399 9.2539377 -3.9587131
			vertex -0.899349 9.1755323 -4.0442591
		endloop
	endfacet
	facet normal -0.9482598372432849 -0.29918194468045867 -0.10627062175671251
		outer loop
			vertex -0.81829 9.0708199 -4.2321172
			vertex -0.816451 9.034029 -4.1449499
			vertex -0.893178 9.2672567 -4.1169119
		endloop
	endfacet
	facet normal -0.8890175356374607 -0.24604659321407812 -0.3861462097403557
		outer loop
			vertex -0.816451 9.034029 -4.1449499
			vertex -0.899349 9.1755323 -4.0442591
			vertex -0.893178 9.2672567 -4.1169119
		endloop
	endfacet
	facet normal -0.9301410670342566 -0.16106727805620213 -0.32999231408616325
		outer loop
			vertex -0.893178 9.2672567 -4.1169119
			vertex -0.811615 10.015296 -4.711925
			vertex -0.81829 9.0708199 -4.2321172
		endloop
	endfacet
	facet normal -0.9932551085372956 0.05801913398833444 0.10038958838350089
		outer loop
			vertex -0.811615 10.015296 -4.711925
			vertex -0.845961 9.6047821 -4.8144922
			vertex -0.81829 9.0708199 -4.2321172
		endloop
	endfacet
	facet normal -0.9753629009108187 0.11630054692820863 -0.18746038064357068
		outer loop
			vertex -0.83032 9.6068354 -4.894599
			vertex -0.845961 9.6047821 -4.8144922
			vertex -0.800555 10.0767097 -4.757957
		endloop
	endfacet
	facet normal -0.9896994483264675 0.10666211605248681 -0.09548924013464424
		outer loop
			vertex -0.845961 9.6047821 -4.8144922
			vertex -0.811615 10.015296 -4.711925
			vertex -0.800555 10.0767097 -4.757957
		endloop
	endfacet
	facet normal 0.17782554682373808 0.2643843698338853 -0.9478813110745344
		outer loop
			vertex -0.800555 10.0767097 -4.757957
			vertex -0.220434 10.0667372 -4.651906
			vertex -0.83032 9.6068354 -4.894599
		endloop
	endfacet
	facet normal 0.013671776216440685 0.4524241105053193 -0.8916981029297743
		outer loop
			vertex -0.220434 10.0667372 -4.651906
			vertex -0.244992 9.6084194 -4.8848209
			vertex -0.83032 9.6068354 -4.894599
		endloop
	endfacet
	facet normal 0.1156259834438695 0.44507921090273755 -0.8879950044762835
		outer loop
			vertex -0.220434 10.0667372 -4.651906
			vertex 0.362978 10.1087866 -4.5548639
			vertex -0.244992 9.6084194 -4.8848209
		endloop
	endfacet
	facet normal 0.009692884767685954 0.5422499998520993 -0.8401612854953974
		outer loop
			vertex 0.362978 10.1087866 -4.5548639
			vertex 0.347362 9.6087275 -4.8777881
			vertex -0.244992 9.6084194 -4.8848209
		endloop
	endfacet
	facet normal 0.12369773451825784 0.5355938386772943 -0.8353670513289181
		outer loop
			vertex 0.362978 10.1087866 -4.5548639
			vertex 0.938636 10.1216927 -4.4613481
			vertex 0.347362 9.6087275 -4.8777881
		endloop
	endfacet
	facet normal 0.014870540911562563 0.6198217378443154 -0.7846017335620987
		outer loop
			vertex 0.938636 10.1216927 -4.4613481
			vertex 0.934332 9.6005907 -4.8730912
			vertex 0.347362 9.6087275 -4.8777881
		endloop
	endfacet
	facet normal 0.9965936266205687 -0.04458189683002275 0.06938009696087016
		outer loop
			vertex 0.932597 10.059392 -4.4146352
			vertex 0.938502 9.5623484 -4.8188438
			vertex 0.938636 10.1216927 -4.4613481
		endloop
	endfacet
	facet normal 0.9980275355547176 0.033638098461920354 -0.053004873421633875
		outer loop
			vertex 0.938502 9.5623484 -4.8188438
			vertex 0.934332 9.6005907 -4.8730912
			vertex 0.938636 10.1216927 -4.4613481
		endloop
	endfacet
	facet normal 0.9840379494348168 -0.10509700764793475 0.14361035149170445
		outer loop
			vertex 0.932597 10.059392 -4.4146352
			vertex 0.769181 9.313447 -3.8407841
			vertex 0.938502 9.5623484 -4.8188438
		endloop
	endfacet
	facet normal 0.9813649432958303 0.05540369705392139 0.18399260426095684
		outer loop
			vertex 0.769181 9.313447 -3.8407841
			vertex 0.837971 9.0976362 -4.1427059
			vertex 0.938502 9.5623484 -4.8188438
		endloop
	endfacet
	facet normal 0.9579778043806301 -0.08001118389180648 0.2754573229491258
		outer loop
			vertex 0.769181 9.313447 -3.8407841
			vertex 0.741294 9.225831 -3.769249
			vertex 0.837971 9.0976362 -4.1427059
		endloop
	endfacet
	facet normal 0.9697159298219277 0.1312317272009886 0.20598361397314988
		outer loop
			vertex 0.741294 9.225831 -3.769249
			vertex 0.827651 9.0381317 -4.0562119
			vertex 0.837971 9.0976362 -4.1427059
		endloop
	endfacet
	facet normal -0.0383997133666999 -0.9244607863644055 -0.37933852491918135
		outer loop
			vertex 0.308102 10.2998962 1.131561
			vertex 0.890147 10.2805176 1.119868
			vertex 0.341145 9.8474035 2.2309561
		endloop
	endfacet
	facet normal 0.003608610240351897 -0.932310246445727 -0.36164151075953815
		outer loop
			vertex 0.890147 10.2805176 1.119868
			vertex 0.925347 9.8509359 2.227679
			vertex 0.341145 9.8474035 2.2309561
		endloop
	endfacet
	facet normal 0.11702685850026393 -0.9317739040019187 -0.3436598699449534
		outer loop
			vertex -0.276378 10.2324762 1.115325
			vertex 0.308102 10.2998962 1.131561
			vertex -0.250574 9.8269138 2.2237239
		endloop
	endfacet
	facet normal 0.036646599664464694 -0.9237278376662327 -0.381292418825104
		outer loop
			vertex 0.308102 10.2998962 1.131561
			vertex 0.341145 9.8474035 2.2309561
			vertex -0.250574 9.8269138 2.2237239
		endloop
	endfacet
	facet normal -0.0415764917649044 -0.937595177422788 -0.3452342373028115
		outer loop
			vertex -0.865524 10.2589712 1.11432
			vertex -0.276378 10.2324762 1.115325
			vertex -0.835126 9.8479795 2.22684
		endloop
	endfacet
	facet normal -0.03565779380141198 -0.9387793915858966 -0.3426686091179495
		outer loop
			vertex -0.276378 10.2324762 1.115325
			vertex -0.250574 9.8269138 2.2237239
			vertex -0.835126 9.8479795 2.22684
		endloop
	endfacet
	facet normal -0.9964787015768882 -0.083756837536091 -0.003871623637676628
		outer loop
			vertex -0.874203 10.3612967 1.134461
			vertex -0.865524 10.2589712 1.11432
			vertex -0.843644 9.9456501 2.2610819
		endloop
	endfacet
	facet normal -0.9963392244333263 -0.08537862708725084 -0.00431739415554877
		outer loop
			vertex -0.865524 10.2589712 1.11432
			vertex -0.835126 9.8479795 2.22684
			vertex -0.843644 9.9456501 2.2610819
		endloop
	endfacet
	facet normal -0.998646265507942 -0.05137588819469586 0.008133541617727578
		outer loop
			vertex -0.843644 9.9456501 2.2610819
			vertex -0.883231 10.7615938 2.554487
			vertex -0.874203 10.3612967 1.134461
		endloop
	endfacet
	facet normal -0.9999792305246357 0.00028774544534269583 -0.006438611800407412
		outer loop
			vertex -0.883231 10.7615938 2.554487
			vertex -0.874972 11.1384354 1.288625
			vertex -0.874203 10.3612967 1.134461
		endloop
	endfacet
	facet normal -0.9934628361649399 0.11113616743221551 0.026083432435025155
		outer loop
			vertex -0.86708 11.2058239 1.302086
			vertex -0.874972 11.1384354 1.288625
			vertex -0.8761 10.8278837 2.5688591
		endloop
	endfacet
	facet normal -0.994517731386799 0.10181837964201754 0.023822248515384597
		outer loop
			vertex -0.874972 11.1384354 1.288625
			vertex -0.883231 10.7615938 2.554487
			vertex -0.8761 10.8278837 2.5688591
		endloop
	endfacet
	facet normal 0.19617400473380822 0.9392572548616 0.28162309751963016
		outer loop
			vertex -0.8761 10.8278837 2.5688591
			vertex -0.290374 10.7053833 2.5694101
			vertex -0.86708 11.2058239 1.302086
		endloop
	endfacet
	facet normal 0.246070636248366 0.9345434850023674 0.25705586283132037
		outer loop
			vertex -0.290374 10.7053833 2.5694101
			vertex -0.280462 11.0534 1.2946841
			vertex -0.86708 11.2058239 1.302086
		endloop
	endfacet
	facet normal 0.015972796836647374 0.9645391980177175 0.2634558886199999
		outer loop
			vertex -0.290374 10.7053833 2.5694101
			vertex 0.300564 10.6943483 2.573983
			vertex -0.280462 11.0534 1.2946841
		endloop
	endfacet
	facet normal 0.021994933434416195 0.9651196414571996 0.2608836916649683
		outer loop
			vertex 0.300564 10.6943483 2.573983
			vertex 0.312121 11.0398273 1.294935
			vertex -0.280462 11.0534 1.2946841
		endloop
	endfacet
	facet normal -0.21388592070211254 0.9435472901042012 0.25292553106087956
		outer loop
			vertex 0.300564 10.6943483 2.573983
			vertex 0.886498 10.8281288 2.5704041
			vertex 0.312121 11.0398273 1.294935
		endloop
	endfacet
	facet normal -0.26572080344699756 0.9245540928161221 0.27311569722818885
		outer loop
			vertex 0.886498 10.8281288 2.5704041
			vertex 0.894738 11.2052126 1.301913
			vertex 0.312121 11.0398273 1.294935
		endloop
	endfacet
	facet normal 0.9931357970680109 0.11012744568810887 0.039411093467441455
		outer loop
			vertex 0.8945 10.7614231 2.555156
			vertex 0.902954 11.1384354 1.288625
			vertex 0.886498 10.8281288 2.5704041
		endloop
	endfacet
	facet normal 0.9926489624290471 0.11409906407997518 0.04036633454514253
		outer loop
			vertex 0.902954 11.1384354 1.288625
			vertex 0.894738 11.2052126 1.301913
			vertex 0.886498 10.8281288 2.5704041
		endloop
	endfacet
	facet normal 0.9991362542767224 0.03752940624793597 0.01784065740264092
		outer loop
			vertex 0.8945 10.7614231 2.555156
			vertex 0.9301 9.952981 2.2620671
			vertex 0.902954 11.1384354 1.288625
		endloop
	endfacet
	facet normal 0.9996992732187614 0.0028963457454366033 -0.024351063779702357
		outer loop
			vertex 0.9301 9.952981 2.2620671
			vertex 0.901519 10.3801193 1.139518
			vertex 0.902954 11.1384354 1.288625
		endloop
	endfacet
	facet normal 0.9985286827129805 -0.03167754899489992 -0.04401139272002111
		outer loop
			vertex 0.925347 9.8509359 2.227679
			vertex 0.890147 10.2805176 1.119868
			vertex 0.9301 9.952981 2.2620671
		endloop
	endfacet
	facet normal 0.9928688414635767 -0.10080595245136074 -0.06363665296941198
		outer loop
			vertex 0.890147 10.2805176 1.119868
			vertex 0.901519 10.3801193 1.139518
			vertex 0.9301 9.952981 2.2620671
		endloop
	endfacet
	facet normal 0.010577461175282441 -0.16830158045422267 -0.9856787992706835
		outer loop
			vertex 0.380231 8.8253622 3.622025
			vertex 0.960654 8.7184935 3.6465011
			vertex 0.351225 8.5024786 3.6768451
		endloop
	endfacet
	facet normal -0.03341256587514947 -0.04597997508790578 -0.9983834144919249
		outer loop
			vertex 0.960654 8.7184935 3.6465011
			vertex 0.879574 8.3414717 3.6665781
			vertex 0.351225 8.5024786 3.6768451
		endloop
	endfacet
	facet normal 0.0355895211170388 -0.23195635906159845 -0.9720749114536116
		outer loop
			vertex -0.212124 8.8171263 3.602303
			vertex 0.380231 8.8253622 3.622025
			vertex -0.23613 8.4194984 3.696306
		endloop
	endfacet
	facet normal -0.009134312757935378 -0.16658280305069678 -0.9859851591470398
		outer loop
			vertex 0.380231 8.8253622 3.622025
			vertex 0.351225 8.5024786 3.6768451
			vertex -0.23613 8.4194984 3.696306
		endloop
	endfacet
	facet normal 0.0644183895734654 -0.28041621687644874 -0.9577144754035316
		outer loop
			vertex -0.795347 8.7323608 3.587893
			vertex -0.212124 8.8171263 3.602303
			vertex -0.775712 8.2983189 3.7163
		endloop
	endfacet
	facet normal 0.015817141967835912 -0.23094319793854026 -0.9728386594630632
		outer loop
			vertex -0.212124 8.8171263 3.602303
			vertex -0.23613 8.4194984 3.696306
			vertex -0.775712 8.2983189 3.7163
		endloop
	endfacet
	facet normal -0.9917579460482766 -0.08519647424961545 -0.09569606692826219
		outer loop
			vertex -0.807199 8.7495279 3.6954391
			vertex -0.795347 8.7323608 3.587893
			vertex -0.781826 8.303834 3.8292761
		endloop
	endfacet
	facet normal -0.9968828176352763 -0.06018759383857892 -0.051010797400892594
		outer loop
			vertex -0.795347 8.7323608 3.587893
			vertex -0.775712 8.2983189 3.7163
			vertex -0.781826 8.303834 3.8292761
		endloop
	endfacet
	facet normal -0.9984892443158917 -0.0500018611052622 0.022782512405123186
		outer loop
			vertex -0.781826 8.303834 3.8292761
			vertex -0.75966 8.2912369 4.773098
			vertex -0.807199 8.7495279 3.6954391
		endloop
	endfacet
	facet normal -0.9907370578614342 -0.13509660858413716 -0.013747309887162083
		outer loop
			vertex -0.75966 8.2912369 4.773098
			vertex -0.850018 8.9497766 4.813436
			vertex -0.807199 8.7495279 3.6954391
		endloop
	endfacet
	facet normal -0.9580350669116064 -0.12291065927720746 0.2589628938742307
		outer loop
			vertex -0.835889 8.9943876 4.8868799
			vertex -0.850018 8.9497766 4.813436
			vertex -0.751647 8.2900448 4.864234
		endloop
	endfacet
	facet normal -0.9864278097572694 -0.14054734994043935 0.08489180503556457
		outer loop
			vertex -0.850018 8.9497766 4.813436
			vertex -0.75966 8.2912369 4.773098
			vertex -0.751647 8.2900448 4.864234
		endloop
	endfacet
	facet normal 0.053264567690817756 -0.02572487983010999 0.998249025236908
		outer loop
			vertex -0.751647 8.2900448 4.864234
			vertex -0.210107 8.430933 4.8389692
			vertex -0.835889 8.9943876 4.8868799
		endloop
	endfacet
	facet normal -0.021483069223192177 -0.1083692199830558 0.9938785589281096
		outer loop
			vertex -0.210107 8.430933 4.8389692
			vertex -0.278003 9.0558071 4.9056358
			vertex -0.835889 8.9943876 4.8868799
		endloop
	endfacet
	facet normal 0.036842441156568866 -0.10205506065890325 0.9940962725629406
		outer loop
			vertex -0.210107 8.430933 4.8389692
			vertex 0.379715 8.4282293 4.8168321
			vertex -0.278003 9.0558071 4.9056358
		endloop
	endfacet
	facet normal -0.031922670108001684 -0.17275730441278042 0.9844469802407876
		outer loop
			vertex 0.379715 8.4282293 4.8168321
			vertex 0.313375 9.0591326 4.925396
			vertex -0.278003 9.0558071 4.9056358
		endloop
	endfacet
	facet normal -0.042504569266650166 -0.17377045369874383 0.9838684825792466
		outer loop
			vertex 0.379715 8.4282293 4.8168321
			vertex 0.910381 8.2459593 4.8075652
			vertex 0.313375 9.0591326 4.925396
		endloop
	endfacet
	facet normal -0.0678720940269288 -0.1917039750315193 0.9791031430904074
		outer loop
			vertex 0.910381 8.2459593 4.8075652
			vertex 0.837183 8.9790106 4.9460192
			vertex 0.313375 9.0591326 4.925396
		endloop
	endfacet
	facet normal 0.9947157636559845 0.08999312535516689 0.049414440430920775
		outer loop
			vertex 0.910381 8.2459593 4.8075652
			vertex 0.914285 8.25315 4.7158818
			vertex 0.837183 8.9790106 4.9460192
		endloop
	endfacet
	facet normal 0.920534533992758 -0.02580973927588743 0.38980768217833667
		outer loop
			vertex 0.914285 8.25315 4.7158818
			vertex 0.861212 8.9300404 4.8860321
			vertex 0.837183 8.9790106 4.9460192
		endloop
	endfacet
	facet normal 0.9965154154323793 0.08198768340643561 -0.015331228759589725
		outer loop
			vertex 0.914285 8.25315 4.7158818
			vertex 0.893063 8.3356953 3.777904
			vertex 0.861212 8.9300404 4.8860321
		endloop
	endfacet
	facet normal 0.9811644586198764 -0.15707266846802814 0.11244768544304466
		outer loop
			vertex 0.893063 8.3356953 3.777904
			vertex 0.956865 8.7388697 3.784373
			vertex 0.861212 8.9300404 4.8860321
		endloop
	endfacet
	facet normal 0.9681197964235055 -0.21503870389009752 -0.12846172816125978
		outer loop
			vertex 0.879574 8.3414717 3.6665781
			vertex 0.960654 8.7184935 3.6465011
			vertex 0.893063 8.3356953 3.777904
		endloop
	endfacet
	facet normal 0.9863341004338244 -0.1568934917462361 0.05029388202428231
		outer loop
			vertex 0.960654 8.7184935 3.6465011
			vertex 0.956865 8.7388697 3.784373
			vertex 0.893063 8.3356953 3.777904
		endloop
	endfacet
	facet normal -0.024797679955491626 -0.7970221362696676 -0.6034407919298799
		outer loop
			vertex 0.391373 9.2500086 3.0606959
			vertex 0.976732 9.2196007 3.0768039
			vertex 0.380231 8.8253622 3.622025
		endloop
	endfacet
	facet normal -0.10938101905054637 -0.7448233049124676 -0.6582355483645148
		outer loop
			vertex 0.976732 9.2196007 3.0768039
			vertex 0.960654 8.7184935 3.6465011
			vertex 0.380231 8.8253622 3.622025
		endloop
	endfacet
	facet normal 0.04127506025381746 -0.8024124626826998 -0.5953407504383759
		outer loop
			vertex -0.200665 9.2262487 3.0516739
			vertex 0.391373 9.2500086 3.0606959
			vertex -0.212124 8.8171263 3.602303
		endloop
	endfacet
	facet normal 0.031150982732052798 -0.7974146366137719 -0.6026271762781311
		outer loop
			vertex 0.391373 9.2500086 3.0606959
			vertex 0.380231 8.8253622 3.622025
			vertex -0.212124 8.8171263 3.602303
		endloop
	endfacet
	facet normal 0.09624249661708463 -0.7830362981484053 -0.6144847741213387
		outer loop
			vertex -0.783482 9.1578999 3.047488
			vertex -0.200665 9.2262487 3.0516739
			vertex -0.795347 8.7323608 3.587893
		endloop
	endfacet
	facet normal 0.1304207812857538 -0.7971269354880828 -0.5895583673633951
		outer loop
			vertex -0.200665 9.2262487 3.0516739
			vertex -0.212124 8.8171263 3.602303
			vertex -0.795347 8.7323608 3.587893
		endloop
	endfacet
	facet normal -0.9848737249178608 -0.12803924360006885 -0.11674629786310138
		outer loop
			vertex -0.80224 9.2391968 3.11657
			vertex -0.783482 9.1578999 3.047488
			vertex -0.807199 8.7495279 3.6954391
		endloop
	endfacet
	facet normal -0.9912315206594043 -0.09236309806994467 -0.09449407688404032
		outer loop
			vertex -0.783482 9.1578999 3.047488
			vertex -0.795347 8.7323608 3.587893
			vertex -0.807199 8.7495279 3.6954391
		endloop
	endfacet
	facet normal -0.9990327517455329 -0.028979227651217826 -0.033072122769599456
		outer loop
			vertex -0.807199 8.7495279 3.6954391
			vertex -0.850018 8.9497766 4.813436
			vertex -0.80224 9.2391968 3.11657
		endloop
	endfacet
	facet normal -0.9975391302625967 -0.05884123951549528 -0.0381233803226118
		outer loop
			vertex -0.850018 8.9497766 4.813436
			vertex -0.875688 10.0488777 3.7887199
			vertex -0.80224 9.2391968 3.11657
		endloop
	endfacet
	facet normal -0.998169302487266 0.021284173949401505 0.05661296239711199
		outer loop
			vertex -0.871973 10.1197252 3.827585
			vertex -0.875688 10.0488777 3.7887199
			vertex -0.835889 8.9943876 4.8868799
		endloop
	endfacet
	facet normal -0.9866173535225573 0.09826626980426773 0.13011509500015805
		outer loop
			vertex -0.875688 10.0488777 3.7887199
			vertex -0.850018 8.9497766 4.813436
			vertex -0.835889 8.9943876 4.8868799
		endloop
	endfacet
	facet normal -0.09931316865877962 0.6803385883485331 0.7261379343725806
		outer loop
			vertex -0.835889 8.9943876 4.8868799
			vertex -0.278003 9.0558071 4.9056358
			vertex -0.871973 10.1197252 3.827585
		endloop
	endfacet
	facet normal 0.028194266891153275 0.7191966760292017 0.6942342720602449
		outer loop
			vertex -0.278003 9.0558071 4.9056358
			vertex -0.287757 10.0878897 3.836839
			vertex -0.871973 10.1197252 3.827585
		endloop
	endfacet
	facet normal -0.027249326282617493 0.71896268909778 0.6945143093575771
		outer loop
			vertex -0.278003 9.0558071 4.9056358
			vertex 0.313375 9.0591326 4.925396
			vertex -0.287757 10.0878897 3.836839
		endloop
	endfacet
	facet normal -0.07468819684645543 0.7038408952679869 0.7064203192152558
		outer loop
			vertex 0.313375 9.0591326 4.925396
			vertex 0.278899 10.0785408 3.906065
			vertex -0.287757 10.0878897 3.836839
		endloop
	endfacet
	facet normal 0.08031598563372494 0.7061526722578056 0.7034896914062377
		outer loop
			vertex 0.313375 9.0591326 4.925396
			vertex 0.837183 8.9790106 4.9460192
			vertex 0.278899 10.0785408 3.906065
		endloop
	endfacet
	facet normal -0.13619697345605677 0.6433703570625752 0.7533425303768433
		outer loop
			vertex 0.837183 8.9790106 4.9460192
			vertex 0.863397 10.1537247 3.9475279
			vertex 0.278899 10.0785408 3.906065
		endloop
	endfacet
	facet normal 0.9550662594658217 0.18400259117910445 0.23236068184901493
		outer loop
			vertex 0.861212 8.9300404 4.8860321
			vertex 0.881743 10.0930119 3.8807061
			vertex 0.837183 8.9790106 4.9460192
		endloop
	endfacet
	facet normal 0.9797074830491709 0.11666721098326446 0.1629785554569843
		outer loop
			vertex 0.881743 10.0930119 3.8807061
			vertex 0.863397 10.1537247 3.9475279
			vertex 0.837183 8.9790106 4.9460192
		endloop
	endfacet
	facet normal 0.9957269372845842 0.04970182647146716 0.07783055191415696
		outer loop
			vertex 0.861212 8.9300404 4.8860321
			vertex 0.956865 8.7388697 3.784373
			vertex 0.881743 10.0930119 3.8807061
		endloop
	endfacet
	facet normal 0.9962845418359352 0.05029622822193338 0.0699099501173334
		outer loop
			vertex 0.956865 8.7388697 3.784373
			vertex 0.970496 9.3275194 3.1666181
			vertex 0.881743 10.0930119 3.8807061
		endloop
	endfacet
	facet normal 0.9996301885080829 0.004919378617104431 0.026744830104461617
		outer loop
			vertex 0.956865 8.7388697 3.784373
			vertex 0.960654 8.7184935 3.6465011
			vertex 0.970496 9.3275194 3.1666181
		endloop
	endfacet
	facet normal 0.9987647701690947 0.019776912430282362 0.045582974933636236
		outer loop
			vertex 0.960654 8.7184935 3.6465011
			vertex 0.976732 9.2196007 3.0768039
			vertex 0.970496 9.3275194 3.1666181
		endloop
	endfacet
	facet normal 0.9952325272346224 -0.08458085559128357 0.048562285794977914
		outer loop
			vertex 0.880274 10.4362926 -1.458027
			vertex 0.894307 10.0694027 -2.38463
			vertex 0.889096 10.5306864 -1.474419
		endloop
	endfacet
	facet normal 0.9942811499486011 -0.09285656197771827 0.05275086496509426
		outer loop
			vertex 0.894307 10.0694027 -2.38463
			vertex 0.904359 10.1655884 -2.4047821
			vertex 0.889096 10.5306864 -1.474419
		endloop
	endfacet
	facet normal 0.08438492582527218 -0.9519206498807407 0.29449322678814177
		outer loop
			vertex 0.312209 10.019537 -2.37902
			vertex 0.894307 10.0694027 -2.38463
			vertex 0.297258 10.3057671 -1.449525
		endloop
	endfacet
	facet normal 0.20862342134581832 -0.9082248328702383 0.3627725472300699
		outer loop
			vertex 0.894307 10.0694027 -2.38463
			vertex 0.880274 10.4362926 -1.458027
			vertex 0.297258 10.3057671 -1.449525
		endloop
	endfacet
	facet normal -0.0022929839671530314 -0.9541712334157335 0.29925240107044176
		outer loop
			vertex -0.280793 10.0202351 -2.3813379
			vertex 0.312209 10.019537 -2.37902
			vertex -0.295399 10.3124838 -1.44961
		endloop
	endfacet
	facet normal -0.010873376379542502 -0.955704719983995 0.294126261810167
		outer loop
			vertex 0.312209 10.019537 -2.37902
			vertex 0.297258 10.3057671 -1.449525
			vertex -0.295399 10.3124838 -1.44961
		endloop
	endfacet
	facet normal -0.11945913153864053 -0.9316891384851625 0.3430522775333371
		outer loop
			vertex -0.866438 10.061264 -2.4738441
			vertex -0.280793 10.0202351 -2.3813379
			vertex -0.881389 10.4365387 -1.459849
		endloop
	endfacet
	facet normal -0.203051055866693 -0.9351909785416535 0.29015186086896955
		outer loop
			vertex -0.280793 10.0202351 -2.3813379
			vertex -0.295399 10.3124838 -1.44961
			vertex -0.881389 10.4365387 -1.459849
		endloop
	endfacet
	facet normal -0.9966819580099076 -0.07993086943863069 0.015366544449599532
		outer loop
			vertex -0.874269 10.1584797 -2.476088
			vertex -0.866438 10.061264 -2.4738441
			vertex -0.888732 10.5312128 -1.475351
		endloop
	endfacet
	facet normal -0.9970831853976204 -0.07518561641316916 0.013124194524103117
		outer loop
			vertex -0.866438 10.061264 -2.4738441
			vertex -0.881389 10.4365387 -1.459849
			vertex -0.888732 10.5312128 -1.475351
		endloop
	endfacet
	facet normal -0.9999065884035322 -0.0029926487251903874 -0.013336360853579941
		outer loop
			vertex -0.888732 10.5312128 -1.475351
			vertex -0.889003 11.2168236 -1.608882
			vertex -0.874269 10.1584797 -2.476088
		endloop
	endfacet
	facet normal -0.9998860124489644 -0.001619953297379855 -0.015011257782875362
		outer loop
			vertex -0.889003 11.2168236 -1.608882
			vertex -0.874213 10.8992491 -2.5597589
			vertex -0.874269 10.1584797 -2.476088
		endloop
	endfacet
	facet normal -0.9895456034410713 0.13041188392617048 -0.06158115979155488
		outer loop
			vertex -0.865027 10.9628992 -2.5725751
			vertex -0.874213 10.8992491 -2.5597589
			vertex -0.882747 11.2783327 -1.619832
		endloop
	endfacet
	facet normal -0.9945911444957705 0.09288200798570921 -0.046490729001987495
		outer loop
			vertex -0.874213 10.8992491 -2.5597589
			vertex -0.889003 11.2168236 -1.608882
			vertex -0.882747 11.2783327 -1.619832
		endloop
	endfacet
	facet normal 0.25301106245024224 0.9198298001851589 -0.2998308539312291
		outer loop
			vertex -0.882747 11.2783327 -1.619832
			vertex -0.295687 11.1181679 -1.615802
			vertex -0.865027 10.9628992 -2.5725751
		endloop
	endfacet
	facet normal 0.1933890102658792 0.9437435319539985 -0.2682328029965311
		outer loop
			vertex -0.295687 11.1181679 -1.615802
			vertex -0.280078 10.8419666 -2.576328
			vertex -0.865027 10.9628992 -2.5725751
		endloop
	endfacet
	facet normal 0.026584971996976247 0.9608309771594749 -0.27585697851366514
		outer loop
			vertex -0.295687 11.1181679 -1.615802
			vertex 0.296952 11.1017637 -1.6158251
			vertex -0.280078 10.8419666 -2.576328
		endloop
	endfacet
	facet normal 0.01994997321036008 0.9620348364445038 -0.27219656874417614
		outer loop
			vertex 0.296952 11.1017637 -1.6158251
			vertex 0.31332 10.8299732 -2.5752251
			vertex -0.280078 10.8419666 -2.576328
		endloop
	endfacet
	facet normal -0.2788744137747326 0.9227086021482908 -0.2661538969531475
		outer loop
			vertex 0.296952 11.1017637 -1.6158251
			vertex 0.88232 11.2777023 -1.619222
			vertex 0.31332 10.8299732 -2.5752251
		endloop
	endfacet
	facet normal -0.21000701097721525 0.9274629821925744 -0.309369474904801
		outer loop
			vertex 0.88232 11.2777023 -1.619222
			vertex 0.894734 10.9625034 -2.572588
			vertex 0.31332 10.8299732 -2.5752251
		endloop
	endfacet
	facet normal 0.9943286256949345 0.10464442282236139 -0.0189770623595448
		outer loop
			vertex 0.888924 11.2168264 -1.608882
			vertex 0.904204 10.8993692 -2.5588069
			vertex 0.88232 11.2777023 -1.619222
		endloop
	endfacet
	facet normal 0.9894277292399953 0.1410454252648153 -0.03374843141324183
		outer loop
			vertex 0.904204 10.8993692 -2.5588069
			vertex 0.894734 10.9625034 -2.572588
			vertex 0.88232 11.2777023 -1.619222
		endloop
	endfacet
	facet normal 0.999882148367756 0.0031934102498531736 0.01501637461097144
		outer loop
			vertex 0.888924 11.2168264 -1.608882
			vertex 0.889096 10.5306864 -1.474419
			vertex 0.904204 10.8993692 -2.5588069
		endloop
	endfacet
	facet normal 0.9998806122555212 0.0033762788573117506 0.015078527003714188
		outer loop
			vertex 0.889096 10.5306864 -1.474419
			vertex 0.904359 10.1655884 -2.4047821
			vertex 0.904204 10.8993692 -2.5588069
		endloop
	endfacet
	facet normal 0.9830760937027953 0.11465608724675656 -0.14288238396428438
		outer loop
			vertex 0.870272 7.9316878 4.1551008
			vertex 0.788131 8.0481863 3.683429
			vertex 0.914285 8.25315 4.7158818
		endloop
	endfacet
	facet normal 0.9434056663551186 -0.3278205240330175 -0.05019415017482375
		outer loop
			vertex 0.788131 8.0481863 3.683429
			vertex 0.893063 8.3356953 3.777904
			vertex 0.914285 8.25315 4.7158818
		endloop
	endfacet
	facet normal 0.9174514843404563 -0.30099838165519727 -0.2601590823370308
		outer loop
			vertex 0.77598 8.0651178 3.6209891
			vertex 0.879574 8.3414717 3.6665781
			vertex 0.788131 8.0481863 3.683429
		endloop
	endfacet
	facet normal 0.9444109856405211 -0.3019312788657881 -0.13009762889449364
		outer loop
			vertex 0.879574 8.3414717 3.6665781
			vertex 0.893063 8.3356953 3.777904
			vertex 0.788131 8.0481863 3.683429
		endloop
	endfacet
	facet normal 0.0012757786829352981 0.0678071435001866 -0.9976976313889381
		outer loop
			vertex 0.351225 8.5024786 3.6768451
			vertex 0.879574 8.3414717 3.6665781
			vertex 0.326854 8.227581 3.6581309
		endloop
	endfacet
	facet normal -0.019975895855088042 0.17001899290777311 -0.985238298908144
		outer loop
			vertex 0.879574 8.3414717 3.6665781
			vertex 0.77598 8.0651178 3.6209891
			vertex 0.326854 8.227581 3.6581309
		endloop
	endfacet
	facet normal -0.03604299570591406 0.020800042021276197 -0.9991337551661723
		outer loop
			vertex -0.23613 8.4194984 3.696306
			vertex 0.351225 8.5024786 3.6768451
			vertex -0.247875 8.1940889 3.6920371
		endloop
	endfacet
	facet normal -0.06299275633979709 0.07334268502189689 -0.9953154089043804
		outer loop
			vertex 0.351225 8.5024786 3.6768451
			vertex 0.326854 8.227581 3.6581309
			vertex -0.247875 8.1940889 3.6920371
		endloop
	endfacet
	facet normal -0.03170854514714902 -0.0236754465130442 -0.999216713929996
		outer loop
			vertex -0.775712 8.2983189 3.7163
			vertex -0.23613 8.4194984 3.696306
			vertex -0.746454 8.0180178 3.722013
		endloop
	endfacet
	facet normal -0.06788891514567265 0.022427316756342 -0.9974407805295784
		outer loop
			vertex -0.23613 8.4194984 3.696306
			vertex -0.247875 8.1940889 3.6920371
			vertex -0.746454 8.0180178 3.722013
		endloop
	endfacet
	facet normal -0.9889918498712033 -0.1404182886979072 -0.04666717355365196
		outer loop
			vertex -0.781826 8.303834 3.8292761
			vertex -0.775712 8.2983189 3.7163
			vertex -0.736821 8.0017824 3.7843621
		endloop
	endfacet
	facet normal -0.9868915608967865 -0.10043768686852518 0.12632227866534362
		outer loop
			vertex -0.775712 8.2983189 3.7163
			vertex -0.746454 8.0180178 3.722013
			vertex -0.736821 8.0017824 3.7843621
		endloop
	endfacet
	facet normal -0.9778734807435219 -0.16485180844556768 0.12879183557498833
		outer loop
			vertex -0.736821 8.0017824 3.7843621
			vertex -0.655209 7.8868618 4.256918
			vertex -0.781826 8.303834 3.8292761
		endloop
	endfacet
	facet normal -0.9619240232134795 -0.27265912055557734 0.018951979913794277
		outer loop
			vertex -0.655209 7.8868618 4.256918
			vertex -0.75966 8.2912369 4.773098
			vertex -0.781826 8.303834 3.8292761
		endloop
	endfacet
	facet normal -0.9372489302581815 -0.339833066756894 0.07796107662480596
		outer loop
			vertex -0.751647 8.2900448 4.864234
			vertex -0.75966 8.2912369 4.773098
			vertex -0.647527 7.8743181 4.3038092
		endloop
	endfacet
	facet normal -0.9422235930402019 -0.328310391800823 0.06653560966882613
		outer loop
			vertex -0.75966 8.2912369 4.773098
			vertex -0.655209 7.8868618 4.256918
			vertex -0.647527 7.8743181 4.3038092
		endloop
	endfacet
	facet normal 0.31881908809267245 -0.7319336056263815 0.6021856740429162
		outer loop
			vertex -0.647527 7.8743181 4.3038092
			vertex -0.153346 8.064271 4.2730522
			vertex -0.751647 8.2900448 4.864234
		endloop
	endfacet
	facet normal 0.23482209859745387 -0.8048617323973225 0.545028599004372
		outer loop
			vertex -0.153346 8.064271 4.2730522
			vertex -0.210107 8.430933 4.8389692
			vertex -0.751647 8.2900448 4.864234
		endloop
	endfacet
	facet normal 0.07867738627762759 -0.8330239276581389 0.5476139195067349
		outer loop
			vertex -0.153346 8.064271 4.2730522
			vertex 0.43234 8.0969172 4.2385659
			vertex -0.210107 8.430933 4.8389692
		endloop
	endfacet
	facet normal 0.01471963734538954 -0.8670050804925259 0.4980818433516413
		outer loop
			vertex 0.43234 8.0969172 4.2385659
			vertex 0.379715 8.4282293 4.8168321
			vertex -0.210107 8.430933 4.8389692
		endloop
	endfacet
	facet normal -0.29656925847415067 -0.8400343857711233 0.45430045746204567
		outer loop
			vertex 0.43234 8.0969172 4.2385659
			vertex 0.879087 7.9192648 4.2017121
			vertex 0.379715 8.4282293 4.8168321
		endloop
	endfacet
	facet normal -0.2799785465633152 -0.8388705925168711 0.466806322230845
		outer loop
			vertex 0.879087 7.9192648 4.2017121
			vertex 0.910381 8.2459593 4.8075652
			vertex 0.379715 8.4282293 4.8168321
		endloop
	endfacet
	facet normal 0.9800750072996355 0.12911694828078935 -0.15093638969206796
		outer loop
			vertex 0.870272 7.9316878 4.1551008
			vertex 0.914285 8.25315 4.7158818
			vertex 0.879087 7.9192648 4.2017121
		endloop
	endfacet
	facet normal 0.9881086335265542 -0.1507520249381876 0.030251534296991928
		outer loop
			vertex 0.914285 8.25315 4.7158818
			vertex 0.910381 8.2459593 4.8075652
			vertex 0.879087 7.9192648 4.2017121
		endloop
	endfacet
endsolid exported
