solid exported
	facet normal -0.6218829379210646 0.5109296131058593 -0.593474971649321
		outer loop
			vertex -2.0738101 3.5424581 0.628269
			vertex -2.1285281 3.455061 0.610365
			vertex -2.214215 3.6194861 0.841709
		endloop
	endfacet
	facet normal -0.7299672263129052 0.39968097057702034 -0.5544393296544311
		outer loop
			vertex -2.1285281 3.455061 0.610365
			vertex -2.2687571 3.524272 0.844881
			vertex -2.214215 3.6194861 0.841709
		endloop
	endfacet
	facet normal -0.834777968843758 -0.47630926823795533 -0.27617969462600533
		outer loop
			vertex -2.1297531 3.3113101 0.64085
			vertex -2.247093 3.3816481 0.874213
			vertex -2.1447239 3.3508301 0.617943
		endloop
	endfacet
	facet normal -0.812504341020697 -0.520795567698237 -0.2619325724082325
		outer loop
			vertex -2.247093 3.3816481 0.874213
			vertex -2.2696071 3.421495 0.864824
			vertex -2.1447239 3.3508301 0.617943
		endloop
	endfacet
	facet normal -0.7000033790885001 0.5254796644178983 -0.4835973444384643
		outer loop
			vertex -2.148387 3.2749 0.628259
			vertex -2.2670541 3.346065 0.877357
			vertex -2.1297531 3.3113101 0.64085
		endloop
	endfacet
	facet normal -0.7711746998189772 0.3880121367828343 -0.5047139428114995
		outer loop
			vertex -2.2670541 3.346065 0.877357
			vertex -2.247093 3.3816481 0.874213
			vertex -2.1297531 3.3113101 0.64085
		endloop
	endfacet
	facet normal -0.8034938820007056 -0.5311468533116317 -0.2688505194426601
		outer loop
			vertex -2.0837209 3.0502241 0.703307
			vertex -2.194176 3.1048591 0.925478
			vertex -2.134654 3.1508441 0.65674
		endloop
	endfacet
	facet normal -0.7847813147287039 -0.558191430600007 -0.26933364969384094
		outer loop
			vertex -2.194176 3.1048591 0.925478
			vertex -2.256372 3.206213 0.896649
			vertex -2.134654 3.1508441 0.65674
		endloop
	endfacet
	facet normal -0.22335075713392843 -0.959959819193905 0.16909046342389072
		outer loop
			vertex -2.0184231 3.0420499 0.743152
			vertex -2.1220291 3.101064 0.941334
			vertex -2.0837209 3.0502241 0.703307
		endloop
	endfacet
	facet normal -0.09389335118868794 -0.9766010489372511 0.193479791754123
		outer loop
			vertex -2.1220291 3.101064 0.941334
			vertex -2.194176 3.1048591 0.925478
			vertex -2.0837209 3.0502241 0.703307
		endloop
	endfacet
	facet normal 0.6391014781963974 -0.5168545039227636 0.5695706473668862
		outer loop
			vertex -1.963702 3.129446 0.761058
			vertex -2.067488 3.19628 0.938162
			vertex -2.0184231 3.0420499 0.743152
		endloop
	endfacet
	facet normal 0.7508450648937636 -0.41292209757600956 0.5154871772004697
		outer loop
			vertex -2.067488 3.19628 0.938162
			vertex -2.1220291 3.101064 0.941334
			vertex -2.0184231 3.0420499 0.743152
		endloop
	endfacet
	facet normal 0.8121325865480674 -0.08422524785341787 0.5773619051260452
		outer loop
			vertex -1.9404581 3.279031 0.750184
			vertex -2.0513861 3.3541391 0.917175
			vertex -1.95635 3.176755 0.757618
		endloop
	endfacet
	facet normal 0.8506503841775431 -0.016903016091831837 0.5254600003288523
		outer loop
			vertex -2.0513861 3.3541391 0.917175
			vertex -2.0620329 3.2497571 0.931053
			vertex -1.95635 3.176755 0.757618
		endloop
	endfacet
	facet normal 0.8172458381059349 0.012608293083765505 0.576151257087965
		outer loop
			vertex -1.957576 3.4336629 0.714682
			vertex -2.079874 3.514338 0.886391
			vertex -1.962653 3.3788049 0.723084
		endloop
	endfacet
	facet normal 0.7797053137894284 -0.07471085571629392 0.6216734767437551
		outer loop
			vertex -2.079874 3.514338 0.886391
			vertex -2.0893359 3.4537511 0.890977
			vertex -1.962653 3.3788049 0.723084
		endloop
	endfacet
	facet normal 0.7790964449779448 0.5409769918175757 0.3167848224690298
		outer loop
			vertex -2.0085101 3.5342851 0.668115
			vertex -2.1420679 3.6156919 0.857566
			vertex -1.957576 3.4336629 0.714682
		endloop
	endfacet
	facet normal 0.7765647492173399 0.559115987501474 0.2904074771648653
		outer loop
			vertex -2.1420679 3.6156919 0.857566
			vertex -2.079874 3.514338 0.886391
			vertex -1.957576 3.4336629 0.714682
		endloop
	endfacet
	facet normal 0.23495407539463406 0.9533557639258343 -0.18949767767664477
		outer loop
			vertex -2.0738101 3.5424581 0.628269
			vertex -2.214215 3.6194861 0.841709
			vertex -2.0085101 3.5342851 0.668115
		endloop
	endfacet
	facet normal 0.11966607390975458 0.9399835224365375 -0.3195481314337872
		outer loop
			vertex -2.214215 3.6194861 0.841709
			vertex -2.1420679 3.6156919 0.857566
			vertex -2.0085101 3.5342851 0.668115
		endloop
	endfacet
	facet normal -0.31358814656675504 0.046293537827360745 0.9484299566590325
		outer loop
			vertex -2.247093 3.3816481 0.874213
			vertex -2.172092 3.370652 0.899548
			vertex -2.2696071 3.421495 0.864824
		endloop
	endfacet
	facet normal -0.26139529230457564 0.112280034131134 0.9586791408477172
		outer loop
			vertex -2.256372 3.206213 0.896649
			vertex -2.194176 3.1048591 0.925478
			vertex -2.2670541 3.346065 0.877357
		endloop
	endfacet
	facet normal -0.25413664555409654 0.1148026411431028 0.9603306300296163
		outer loop
			vertex -2.194176 3.1048591 0.925478
			vertex -2.172092 3.370652 0.899548
			vertex -2.2670541 3.346065 0.877357
		endloop
	endfacet
	facet normal -0.20473078171244136 0.14949825997923125 0.9673342634697661
		outer loop
			vertex -2.1220291 3.101064 0.941334
			vertex -2.067488 3.19628 0.938162
			vertex -2.194176 3.1048591 0.925478
		endloop
	endfacet
	facet normal -0.1773967963408172 0.11014603390096152 0.977956148231557
		outer loop
			vertex -2.067488 3.19628 0.938162
			vertex -2.172092 3.370652 0.899548
			vertex -2.194176 3.1048591 0.925478
		endloop
	endfacet
	facet normal -0.12382235664801965 0.14316319141818754 0.9819227691713285
		outer loop
			vertex -2.067488 3.19628 0.938162
			vertex -2.0620329 3.2497571 0.931053
			vertex -2.172092 3.370652 0.899548
		endloop
	endfacet
	facet normal -0.12380553830925707 0.14317847427446806 0.9819226615107683
		outer loop
			vertex -2.0620329 3.2497571 0.931053
			vertex -2.0513861 3.3541391 0.917175
			vertex -2.172092 3.370652 0.899548
		endloop
	endfacet
	facet normal -0.12810506859387982 0.11509791321409411 0.9850591666363591
		outer loop
			vertex -2.0513861 3.3541391 0.917175
			vertex -2.064769 3.433943 0.90611
			vertex -2.172092 3.370652 0.899548
		endloop
	endfacet
	facet normal -0.20474713456119717 0.14947043487530964 0.9673351022200967
		outer loop
			vertex -2.1420679 3.6156919 0.857566
			vertex -2.214215 3.6194861 0.841709
			vertex -2.079874 3.514338 0.886391
		endloop
	endfacet
	facet normal -0.1677976654300123 0.19615730739258705 0.9661088211131952
		outer loop
			vertex -2.214215 3.6194861 0.841709
			vertex -2.172092 3.370652 0.899548
			vertex -2.079874 3.514338 0.886391
		endloop
	endfacet
	facet normal -0.7229692759613224 -0.015933929129163762 -0.6906964137147868
		outer loop
			vertex -1.663757 3.4498031 -0.255547
			vertex -1.882792 3.432873 -0.025887
			vertex -1.671731 3.5015421 -0.248394
		endloop
	endfacet
	facet normal -0.6800333443178367 -0.19762975300084537 -0.706043292826101
		outer loop
			vertex -1.882792 3.432873 -0.025887
			vertex -1.899132 3.471246 -0.02089
			vertex -1.671731 3.5015421 -0.248394
		endloop
	endfacet
	facet normal -0.6577212769326087 0.388694739879507 -0.6452279605380886
		outer loop
			vertex -1.673382 3.3857901 -0.284298
			vertex -1.895888 3.3756089 -0.063617
			vertex -1.663757 3.4498031 -0.255547
		endloop
	endfacet
	facet normal -0.6367452113317437 0.5204678896772729 -0.5689188972612698
		outer loop
			vertex -1.895888 3.3756089 -0.063617
			vertex -1.882792 3.432873 -0.025887
			vertex -1.663757 3.4498031 -0.255547
		endloop
	endfacet
	facet normal -0.6126321272732085 -0.3236833294859811 -0.7210485273860374
		outer loop
			vertex -1.600961 3.139816 -0.293689
			vertex -1.8150589 3.1483841 -0.115629
			vertex -1.651564 3.268465 -0.308446
		endloop
	endfacet
	facet normal -0.653498715938519 -0.25474980869758945 -0.7127706245597166
		outer loop
			vertex -1.8150589 3.1483841 -0.115629
			vertex -1.877256 3.2682331 -0.101439
			vertex -1.651564 3.268465 -0.308446
		endloop
	endfacet
	facet normal -0.43162022769365943 -0.7440604439115176 -0.5099784650863887
		outer loop
			vertex -1.536924 3.0743921 -0.252433
			vertex -1.739164 3.0821829 -0.092634
			vertex -1.600961 3.139816 -0.293689
		endloop
	endfacet
	facet normal -0.46424919841102735 -0.7141853458349756 -0.5238434628486788
		outer loop
			vertex -1.739164 3.0821829 -0.092634
			vertex -1.8150589 3.1483841 -0.115629
			vertex -1.600961 3.139816 -0.293689
		endloop
	endfacet
	facet normal 0.1595288120984364 -0.9718282104445162 0.17349492065957164
		outer loop
			vertex -1.4702801 3.097724 -0.183019
			vertex -1.670763 3.0945771 -0.016302
			vertex -1.536924 3.0743921 -0.252433
		endloop
	endfacet
	facet normal 0.052143283352130934 -0.9920700900483268 0.1143591466948069
		outer loop
			vertex -1.670763 3.0945771 -0.016302
			vertex -1.739164 3.0821829 -0.092634
			vertex -1.536924 3.0743921 -0.252433
		endloop
	endfacet
	facet normal 0.6786050005747403 -0.055467921934864745 0.732406009554253
		outer loop
			vertex -1.465149 3.332128 -0.125605
			vertex -1.668328 3.3134191 0.061232
			vertex -1.451878 3.1905551 -0.148623
		endloop
	endfacet
	facet normal 0.6574572227403153 -0.11393992753762339 0.7448272908395025
		outer loop
			vertex -1.668328 3.3134191 0.061232
			vertex -1.6456569 3.1819971 0.021116
			vertex -1.451878 3.1905551 -0.148623
		endloop
	endfacet
	facet normal 0.7027537976819744 -0.3471772368429219 0.6209710670085011
		outer loop
			vertex -1.4847 3.5069251 -0.102423
			vertex -1.695882 3.472224 0.117171
			vertex -1.49295 3.459445 -0.119632
		endloop
	endfacet
	facet normal 0.7097610014578518 -0.32362418991077685 0.6257049660296303
		outer loop
			vertex -1.695882 3.472224 0.117171
			vertex -1.707309 3.4178171 0.101993
			vertex -1.49295 3.459445 -0.119632
		endloop
	endfacet
	facet normal 0.6696694489626356 0.34636687477704226 0.656942019651099
		outer loop
			vertex -1.539583 3.6361189 -0.114593
			vertex -1.7580791 3.592073 0.131359
			vertex -1.4847 3.5069251 -0.102423
		endloop
	endfacet
	facet normal 0.6730051180371611 0.26763755825047947 0.6895174026154149
		outer loop
			vertex -1.7580791 3.592073 0.131359
			vertex -1.695882 3.472224 0.117171
			vertex -1.4847 3.5069251 -0.102423
		endloop
	endfacet
	facet normal 0.22999232351431104 0.9069446097252746 0.35292351298086977
		outer loop
			vertex -1.608835 3.6703639 -0.157466
			vertex -1.831158 3.6271851 0.098378
			vertex -1.539583 3.6361189 -0.114593
		endloop
	endfacet
	facet normal 0.2532939642909648 0.88789966903527 0.3840264904675533
		outer loop
			vertex -1.831158 3.6271851 0.098378
			vertex -1.7580791 3.592073 0.131359
			vertex -1.539583 3.6361189 -0.114593
		endloop
	endfacet
	facet normal -0.5495638850345749 0.7344786152965638 -0.39814658096955585
		outer loop
			vertex -1.666002 3.5965819 -0.214667
			vertex -1.887203 3.564146 0.030822
			vertex -1.608835 3.6703639 -0.157466
		endloop
	endfacet
	facet normal -0.5166133987667351 0.7963571550364481 -0.3145248445464005
		outer loop
			vertex -1.887203 3.564146 0.030822
			vertex -1.831158 3.6271851 0.098378
			vertex -1.608835 3.6703639 -0.157466
		endloop
	endfacet
	facet normal -0.7397378990252703 -0.23278000975490787 -0.631348800429829
		outer loop
			vertex -1.882792 3.432873 -0.025887
			vertex -1.9924541 3.3761301 0.123523
			vertex -1.899132 3.471246 -0.02089
		endloop
	endfacet
	facet normal -0.7684610982136205 -0.17885456182676068 -0.6143928598592872
		outer loop
			vertex -1.9924541 3.3761301 0.123523
			vertex -2.0055621 3.4175341 0.127865
			vertex -1.899132 3.471246 -0.02089
		endloop
	endfacet
	facet normal -0.775587579504182 0.4612861388395812 -0.4309048672657515
		outer loop
			vertex -1.895888 3.3756089 -0.063617
			vertex -2.009697 3.329479 0.091846
			vertex -1.882792 3.432873 -0.025887
		endloop
	endfacet
	facet normal -0.7672236425401017 0.5294187824364311 -0.36205474051726694
		outer loop
			vertex -2.009697 3.329479 0.091846
			vertex -1.9924541 3.3761301 0.123523
			vertex -1.882792 3.432873 -0.025887
		endloop
	endfacet
	facet normal -0.7140067815701006 -0.2953855890756138 -0.6347768660232975
		outer loop
			vertex -1.8150589 3.1483841 -0.115629
			vertex -1.941099 3.094943 0.051011
			vertex -1.877256 3.2682331 -0.101439
		endloop
	endfacet
	facet normal -0.7138261039311697 -0.2955596371752974 -0.6348990425408229
		outer loop
			vertex -1.941099 3.094943 0.051011
			vertex -1.996147 3.2136919 0.057622
			vertex -1.877256 3.2682331 -0.101439
		endloop
	endfacet
	facet normal -0.44247483389088527 -0.7013747333527972 -0.5588286900182614
		outer loop
			vertex -1.739164 3.0821829 -0.092634
			vertex -1.867533 3.028322 0.076607
			vertex -1.8150589 3.1483841 -0.115629
		endloop
	endfacet
	facet normal -0.4412971907782837 -0.7020409568711322 -0.5589233259461089
		outer loop
			vertex -1.867533 3.028322 0.076607
			vertex -1.941099 3.094943 0.051011
			vertex -1.8150589 3.1483841 -0.115629
		endloop
	endfacet
	facet normal 0.2873754662286395 -0.9522752943648642 -0.1028936594362525
		outer loop
			vertex -1.670763 3.0945771 -0.016302
			vertex -1.795761 3.0389321 0.149578
			vertex -1.739164 3.0821829 -0.092634
		endloop
	endfacet
	facet normal 0.2555854103640092 -0.9603055353994988 -0.11175587989069433
		outer loop
			vertex -1.795761 3.0389321 0.149578
			vertex -1.867533 3.028322 0.076607
			vertex -1.739164 3.0821829 -0.092634
		endloop
	endfacet
	facet normal 0.8091195311834676 -0.0393942418926122 0.5863221622650401
		outer loop
			vertex -1.668328 3.3134191 0.061232
			vertex -1.785534 3.2553101 0.219071
			vertex -1.6456569 3.1819971 0.021116
		endloop
	endfacet
	facet normal 0.8120917101263309 -0.024764283868856207 0.5830041034062748
		outer loop
			vertex -1.785534 3.2553101 0.219071
			vertex -1.766681 3.132165 0.187579
			vertex -1.6456569 3.1819971 0.021116
		endloop
	endfacet
	facet normal 0.8243967735530342 -0.30598622966572675 0.4761747441961831
		outer loop
			vertex -1.695882 3.472224 0.117171
			vertex -1.803858 3.411917 0.265356
			vertex -1.707309 3.4178171 0.101993
		endloop
	endfacet
	facet normal 0.7626037423335976 -0.48024350463693216 0.43336094474794185
		outer loop
			vertex -1.803858 3.411917 0.265356
			vertex -1.818634 3.375618 0.251132
			vertex -1.707309 3.4178171 0.101993
		endloop
	endfacet
	facet normal 0.7114659227862153 0.2936455052912855 0.6384266269009968
		outer loop
			vertex -1.7580791 3.592073 0.131359
			vertex -1.8589081 3.530663 0.271969
			vertex -1.695882 3.472224 0.117171
		endloop
	endfacet
	facet normal 0.7114415568544036 0.29428167238603603 0.6381608014272424
		outer loop
			vertex -1.8589081 3.530663 0.271969
			vertex -1.803858 3.411917 0.265356
			vertex -1.695882 3.472224 0.117171
		endloop
	endfacet
	facet normal 0.17979502216681692 0.8458823217791954 0.5021522156731677
		outer loop
			vertex -1.831158 3.6271851 0.098378
			vertex -1.929653 3.566196 0.236381
			vertex -1.7580791 3.592073 0.131359
		endloop
	endfacet
	facet normal 0.17638224395237187 0.8493788514836459 0.49743830840683
		outer loop
			vertex -1.929653 3.566196 0.236381
			vertex -1.8589081 3.530663 0.271969
			vertex -1.7580791 3.592073 0.131359
		endloop
	endfacet
	facet normal -0.6583691104142882 0.7389228104201813 -0.1433289736691074
		outer loop
			vertex -1.831158 3.6271851 0.098378
			vertex -1.887203 3.564146 0.030822
			vertex -1.929653 3.566196 0.236381
		endloop
	endfacet
	facet normal -0.6343134361896958 0.7605543309026336 -0.13857696206248876
		outer loop
			vertex -1.887203 3.564146 0.030822
			vertex -1.989074 3.5049419 0.172189
			vertex -1.929653 3.566196 0.236381
		endloop
	endfacet
	facet normal -0.9237508185330037 -0.2632786131884202 -0.27815247095287143
		outer loop
			vertex -1.9924541 3.3761301 0.123523
			vertex -2.1297531 3.3113101 0.64085
			vertex -2.0055621 3.4175341 0.127865
		endloop
	endfacet
	facet normal -0.821794249963986 -0.48481722252761755 -0.2993434005732153
		outer loop
			vertex -2.1297531 3.3113101 0.64085
			vertex -2.1447239 3.3508301 0.617943
			vertex -2.0055621 3.4175341 0.127865
		endloop
	endfacet
	facet normal -0.8761308771423696 0.44677728205224115 -0.18106558579629128
		outer loop
			vertex -2.009697 3.329479 0.091846
			vertex -2.148387 3.2749 0.628259
			vertex -1.9924541 3.3761301 0.123523
		endloop
	endfacet
	facet normal -0.8537754983144544 0.4939015266189871 -0.16470786405432797
		outer loop
			vertex -2.148387 3.2749 0.628259
			vertex -2.1297531 3.3113101 0.64085
			vertex -1.9924541 3.3761301 0.123523
		endloop
	endfacet
	facet normal -0.8893027314867341 -0.3998995632180906 -0.22185804269445378
		outer loop
			vertex -1.941099 3.094943 0.051011
			vertex -2.0837209 3.0502241 0.703307
			vertex -1.996147 3.2136919 0.057622
		endloop
	endfacet
	facet normal -0.81524176237283 -0.5254013005456788 -0.24358641642782936
		outer loop
			vertex -2.0837209 3.0502241 0.703307
			vertex -2.134654 3.1508441 0.65674
			vertex -1.996147 3.2136919 0.057622
		endloop
	endfacet
	facet normal -0.6404952157364527 -0.756981412541113 -0.12940254899334933
		outer loop
			vertex -1.867533 3.028322 0.076607
			vertex -2.0184231 3.0420499 0.743152
			vertex -1.941099 3.094943 0.051011
		endloop
	endfacet
	facet normal -0.07308077873388251 -0.9937731288135873 -0.0841080746878843
		outer loop
			vertex -2.0184231 3.0420499 0.743152
			vertex -2.0837209 3.0502241 0.703307
			vertex -1.941099 3.094943 0.051011
		endloop
	endfacet
	facet normal -0.002062161311766186 -0.9893009949199157 0.14587422301828806
		outer loop
			vertex -1.795761 3.0389321 0.149578
			vertex -1.963702 3.129446 0.761058
			vertex -1.867533 3.028322 0.076607
		endloop
	endfacet
	facet normal 0.8127541245866892 -0.5489000330827701 0.19529333488129805
		outer loop
			vertex -1.963702 3.129446 0.761058
			vertex -2.0184231 3.0420499 0.743152
			vertex -1.867533 3.028322 0.076607
		endloop
	endfacet
	facet normal 0.9581180808176686 0.07608112843575171 0.27608224337361936
		outer loop
			vertex -1.785534 3.2553101 0.219071
			vertex -1.9404581 3.279031 0.750184
			vertex -1.766681 3.132165 0.187579
		endloop
	endfacet
	facet normal 0.9388024981739598 -0.12247248400275924 0.32194775986878077
		outer loop
			vertex -1.9404581 3.279031 0.750184
			vertex -1.95635 3.176755 0.757618
			vertex -1.766681 3.132165 0.187579
		endloop
	endfacet
	facet normal 0.8332588829898692 -0.4596100102778802 0.3073081065817212
		outer loop
			vertex -1.803858 3.411917 0.265356
			vertex -1.957576 3.4336629 0.714682
			vertex -1.818634 3.375618 0.251132
		endloop
	endfacet
	facet normal 0.9554610814412684 -0.04372504352635272 0.29185997056756635
		outer loop
			vertex -1.957576 3.4336629 0.714682
			vertex -1.962653 3.3788049 0.723084
			vertex -1.818634 3.375618 0.251132
		endloop
	endfacet
	facet normal 0.8652785476591952 0.38313650464254045 0.3232637526403024
		outer loop
			vertex -1.8589081 3.530663 0.271969
			vertex -2.0085101 3.5342851 0.668115
			vertex -1.803858 3.411917 0.265356
		endloop
	endfacet
	facet normal 0.8113872523647248 0.527367902387376 0.25205916414913704
		outer loop
			vertex -2.0085101 3.5342851 0.668115
			vertex -1.957576 3.4336629 0.714682
			vertex -1.803858 3.411917 0.265356
		endloop
	endfacet
	facet normal 0.3632314421370343 0.9123526404773892 0.18887980002368257
		outer loop
			vertex -1.929653 3.566196 0.236381
			vertex -2.0738101 3.5424581 0.628269
			vertex -1.8589081 3.530663 0.271969
		endloop
	endfacet
	facet normal 0.10561001656102782 0.9939306749332077 0.030795094232650234
		outer loop
			vertex -2.0738101 3.5424581 0.628269
			vertex -2.0085101 3.5342851 0.668115
			vertex -1.8589081 3.530663 0.271969
		endloop
	endfacet
	facet normal -0.6075438749292452 0.7744098132039866 -0.17657825814443898
		outer loop
			vertex -1.929653 3.566196 0.236381
			vertex -1.989074 3.5049419 0.172189
			vertex -2.0738101 3.5424581 0.628269
		endloop
	endfacet
	facet normal -0.812553219261435 0.5489035514204584 -0.19611771237164402
		outer loop
			vertex -1.989074 3.5049419 0.172189
			vertex -2.1285281 3.455061 0.610365
			vertex -2.0738101 3.5424581 0.628269
		endloop
	endfacet
	facet normal 0.7906638880368175 0.47720379103552246 0.38357158129328167
		outer loop
			vertex -1.962653 3.3788049 0.723084
			vertex -2.0893359 3.4537511 0.890977
			vertex -1.947679 3.344249 0.735209
		endloop
	endfacet
	facet normal 0.6219180792595471 0.7829349887839003 0.01518901010829176
		outer loop
			vertex -2.0893359 3.4537511 0.890977
			vertex -2.064769 3.433943 0.90611
			vertex -1.947679 3.344249 0.735209
		endloop
	endfacet
	facet normal 0.883353343826232 0.385252753292813 0.2669591467459426
		outer loop
			vertex -1.818634 3.375618 0.251132
			vertex -1.962653 3.3788049 0.723084
			vertex -1.793857 3.326453 0.240097
		endloop
	endfacet
	facet normal 0.8538024909456061 0.4572831460128712 0.2488240961555967
		outer loop
			vertex -1.962653 3.3788049 0.723084
			vertex -1.947679 3.344249 0.735209
			vertex -1.793857 3.326453 0.240097
		endloop
	endfacet
	facet normal 0.7555707937396926 0.20526430316487088 0.6220766363510293
		outer loop
			vertex -1.707309 3.4178171 0.101993
			vertex -1.818634 3.375618 0.251132
			vertex -1.678581 3.3725159 0.082048
		endloop
	endfacet
	facet normal 0.749867391666621 0.23947739790578046 0.6167247934106226
		outer loop
			vertex -1.818634 3.375618 0.251132
			vertex -1.793857 3.326453 0.240097
			vertex -1.678581 3.3725159 0.082048
		endloop
	endfacet
	facet normal 0.6627742053331991 0.28145638512267607 0.6939111297699601
		outer loop
			vertex -1.49295 3.459445 -0.119632
			vertex -1.707309 3.4178171 0.101993
			vertex -1.4732029 3.4041281 -0.116056
		endloop
	endfacet
	facet normal 0.6807291948379536 0.113033626966879 0.723761813354355
		outer loop
			vertex -1.707309 3.4178171 0.101993
			vertex -1.678581 3.3725159 0.082048
			vertex -1.4732029 3.4041281 -0.116056
		endloop
	endfacet
	facet normal 0.8542450501465336 0.20434332273344147 0.4780263598949359
		outer loop
			vertex -1.947679 3.344249 0.735209
			vertex -2.064769 3.433943 0.90611
			vertex -1.9404581 3.279031 0.750184
		endloop
	endfacet
	facet normal 0.8552837936789363 0.20915965590612717 0.47406947867522303
		outer loop
			vertex -2.064769 3.433943 0.90611
			vertex -2.0513861 3.3541391 0.917175
			vertex -1.9404581 3.279031 0.750184
		endloop
	endfacet
	facet normal 0.9549383875335494 0.02429319121494974 0.2958082434203257
		outer loop
			vertex -1.793857 3.326453 0.240097
			vertex -1.947679 3.344249 0.735209
			vertex -1.785534 3.2553101 0.219071
		endloop
	endfacet
	facet normal 0.9485154683095544 0.16683769964725265 0.2692277629701662
		outer loop
			vertex -1.947679 3.344249 0.735209
			vertex -1.9404581 3.279031 0.750184
			vertex -1.785534 3.2553101 0.219071
		endloop
	endfacet
	facet normal 0.8148614527060776 -0.06164322338149055 0.576368741262814
		outer loop
			vertex -1.678581 3.3725159 0.082048
			vertex -1.793857 3.326453 0.240097
			vertex -1.668328 3.3134191 0.061232
		endloop
	endfacet
	facet normal 0.8136337700668214 -0.07519374328872977 0.5764945699458752
		outer loop
			vertex -1.793857 3.326453 0.240097
			vertex -1.785534 3.2553101 0.219071
			vertex -1.668328 3.3134191 0.061232
		endloop
	endfacet
	facet normal 0.6955311047555898 -0.01746044833890295 0.7182837984120715
		outer loop
			vertex -1.4732029 3.4041281 -0.116056
			vertex -1.678581 3.3725159 0.082048
			vertex -1.465149 3.332128 -0.125605
		endloop
	endfacet
	facet normal 0.677303776285947 -0.13709324371638093 0.7228174300306524
		outer loop
			vertex -1.678581 3.3725159 0.082048
			vertex -1.668328 3.3134191 0.061232
			vertex -1.465149 3.332128 -0.125605
		endloop
	endfacet
	facet normal 0.8332508149516327 -0.08982153135613484 0.5455503385456553
		outer loop
			vertex -1.95635 3.176755 0.757618
			vertex -2.0620329 3.2497571 0.931053
			vertex -1.963702 3.129446 0.761058
		endloop
	endfacet
	facet normal 0.8593365958642972 -0.019725372947526767 0.5110298667107851
		outer loop
			vertex -2.0620329 3.2497571 0.931053
			vertex -2.067488 3.19628 0.938162
			vertex -1.963702 3.129446 0.761058
		endloop
	endfacet
	facet normal 0.8607372806855538 -0.3978874127449623 0.3175168348562926
		outer loop
			vertex -1.766681 3.132165 0.187579
			vertex -1.95635 3.176755 0.757618
			vertex -1.795761 3.0389321 0.149578
		endloop
	endfacet
	facet normal 0.9514439902870191 -0.1274850556983643 0.28018189434776053
		outer loop
			vertex -1.95635 3.176755 0.757618
			vertex -1.963702 3.129446 0.761058
			vertex -1.795761 3.0389321 0.149578
		endloop
	endfacet
	facet normal 0.7895223899917468 -0.418774164647381 0.44864528831317124
		outer loop
			vertex -1.6456569 3.1819971 0.021116
			vertex -1.766681 3.132165 0.187579
			vertex -1.670763 3.0945771 -0.016302
		endloop
	endfacet
	facet normal 0.7850791584537177 -0.4275429500629206 0.44817155288248417
		outer loop
			vertex -1.766681 3.132165 0.187579
			vertex -1.795761 3.0389321 0.149578
			vertex -1.670763 3.0945771 -0.016302
		endloop
	endfacet
	facet normal 0.6194640164001163 -0.3777729980529915 0.688151069408085
		outer loop
			vertex -1.451878 3.1905551 -0.148623
			vertex -1.6456569 3.1819971 0.021116
			vertex -1.4702801 3.097724 -0.183019
		endloop
	endfacet
	facet normal 0.5732578000323831 -0.45601397046481945 0.6807545471335047
		outer loop
			vertex -1.6456569 3.1819971 0.021116
			vertex -1.670763 3.0945771 -0.016302
			vertex -1.4702801 3.097724 -0.183019
		endloop
	endfacet
	facet normal 0.03259051035990027 0.07037526376364003 0.9969880545345964
		outer loop
			vertex -2.172092 3.370652 0.899548
			vertex -2.0893359 3.4537511 0.890977
			vertex -2.079874 3.514338 0.886391
		endloop
	endfacet
	facet normal -0.26905363149482664 0.18560818418553313 0.945071291143052
		outer loop
			vertex -2.2687571 3.524272 0.844881
			vertex -2.2696071 3.421495 0.864824
			vertex -2.214215 3.6194861 0.841709
		endloop
	endfacet
	facet normal -0.24542041054007235 0.1798732802326271 0.9525830279554098
		outer loop
			vertex -2.2696071 3.421495 0.864824
			vertex -2.172092 3.370652 0.899548
			vertex -2.214215 3.6194861 0.841709
		endloop
	endfacet
	facet normal -0.8756683744388651 0.10174313115298637 -0.4720733346322177
		outer loop
			vertex -2.1447239 3.3508301 0.617943
			vertex -2.2696071 3.421495 0.864824
			vertex -2.1285281 3.455061 0.610365
		endloop
	endfacet
	facet normal -0.8661772191797444 -0.08828105936102211 -0.491877504600628
		outer loop
			vertex -2.2696071 3.421495 0.864824
			vertex -2.2687571 3.524272 0.844881
			vertex -2.1285281 3.455061 0.610365
		endloop
	endfacet
	facet normal -0.9304076682916032 0.2894983743448839 -0.22479382116920363
		outer loop
			vertex -2.0055621 3.4175341 0.127865
			vertex -2.1447239 3.3508301 0.617943
			vertex -1.989074 3.5049419 0.172189
		endloop
	endfacet
	facet normal -0.9493121245002931 0.12658955510799966 -0.28771787364412865
		outer loop
			vertex -2.1447239 3.3508301 0.617943
			vertex -2.1285281 3.455061 0.610365
			vertex -1.989074 3.5049419 0.172189
		endloop
	endfacet
	facet normal -0.8157623525715048 0.35773517691708817 -0.45448578341143303
		outer loop
			vertex -1.899132 3.471246 -0.02089
			vertex -2.0055621 3.4175341 0.127865
			vertex -1.887203 3.564146 0.030822
		endloop
	endfacet
	facet normal -0.8195271760929834 0.3745241822689258 -0.43371285955209204
		outer loop
			vertex -2.0055621 3.4175341 0.127865
			vertex -1.989074 3.5049419 0.172189
			vertex -1.887203 3.564146 0.030822
		endloop
	endfacet
	facet normal -0.6978494299799204 0.2765334827975081 -0.6607082608599506
		outer loop
			vertex -1.671731 3.5015421 -0.248394
			vertex -1.899132 3.471246 -0.02089
			vertex -1.666002 3.5965819 -0.214667
		endloop
	endfacet
	facet normal -0.7031534540417697 0.4126222598736712 -0.5790665684753986
		outer loop
			vertex -1.899132 3.471246 -0.02089
			vertex -1.887203 3.564146 0.030822
			vertex -1.666002 3.5965819 -0.214667
		endloop
	endfacet
	facet normal -0.6757288131122378 0.02596721739950281 -0.7366927953702638
		outer loop
			vertex -1.651564 3.268465 -0.308446
			vertex -1.877256 3.2682331 -0.101439
			vertex -1.673382 3.3857901 -0.284298
		endloop
	endfacet
	facet normal -0.7015183518540242 0.12538002234137613 -0.7015353533569705
		outer loop
			vertex -1.877256 3.2682331 -0.101439
			vertex -1.895888 3.3756089 -0.063617
			vertex -1.673382 3.3857901 -0.284298
		endloop
	endfacet
	facet normal -0.8098281989771607 0.064858095685667 -0.5830709352775503
		outer loop
			vertex -1.877256 3.2682331 -0.101439
			vertex -1.996147 3.2136919 0.057622
			vertex -1.895888 3.3756089 -0.063617
		endloop
	endfacet
	facet normal -0.8150543581429511 0.0744510970954652 -0.5745810886319385
		outer loop
			vertex -1.996147 3.2136919 0.057622
			vertex -2.009697 3.329479 0.091846
			vertex -1.895888 3.3756089 -0.063617
		endloop
	endfacet
	facet normal -0.9722070842184893 -0.04591525626494404 -0.22957607592584126
		outer loop
			vertex -1.996147 3.2136919 0.057622
			vertex -2.134654 3.1508441 0.65674
			vertex -2.009697 3.329479 0.091846
		endloop
	endfacet
	facet normal -0.9505961852915515 -0.1655237051160419 -0.2626191073661781
		outer loop
			vertex -2.134654 3.1508441 0.65674
			vertex -2.148387 3.2749 0.628259
			vertex -2.009697 3.329479 0.091846
		endloop
	endfacet
	facet normal -0.8923215469881264 -0.19251587665533262 -0.4082889834618931
		outer loop
			vertex -2.134654 3.1508441 0.65674
			vertex -2.256372 3.206213 0.896649
			vertex -2.148387 3.2749 0.628259
		endloop
	endfacet
	facet normal -0.9091106296262913 -0.12428396090577568 -0.39758189113949816
		outer loop
			vertex -2.256372 3.206213 0.896649
			vertex -2.2670541 3.346065 0.877357
			vertex -2.148387 3.2749 0.628259
		endloop
	endfacet
	facet normal -0.27916787711415886 0.23878378756909815 0.9300793510135197
		outer loop
			vertex -2.247093 3.3816481 0.874213
			vertex -2.2670541 3.346065 0.877357
			vertex -2.172092 3.370652 0.899548
		endloop
	endfacet
	facet normal -0.26482731284917554 0.3561608702150872 0.8961115605195129
		outer loop
			vertex -2.172092 3.370652 0.899548
			vertex -2.064769 3.433943 0.90611
			vertex -2.0893359 3.4537511 0.890977
		endloop
	endfacet
	facet normal 0.6021082757959609 0.5912877426350394 -0.5365113508841867
		outer loop
			vertex 2.075094 3.6886799 0.344987
			vertex 2.201318 3.7626381 0.568153
			vertex 2.136965 3.606858 0.324247
		endloop
	endfacet
	facet normal 0.7169299098893178 0.4861584476023574 -0.4996613534494743
		outer loop
			vertex 2.201318 3.7626381 0.568153
			vertex 2.262841 3.671721 0.567968
			vertex 2.136965 3.606858 0.324247
		endloop
	endfacet
	facet normal 0.8783113921635536 -0.39510427789016367 -0.2691871244852042
		outer loop
			vertex 2.1480851 3.461993 0.346275
			vertex 2.160809 3.503849 0.326356
			vertex 2.251111 3.5263491 0.587971
		endloop
	endfacet
	facet normal 0.8589993615576483 -0.441928638092647 -0.25849405346570486
		outer loop
			vertex 2.160809 3.503849 0.326356
			vertex 2.2708371 3.5682621 0.581867
			vertex 2.251111 3.5263491 0.587971
		endloop
	endfacet
	facet normal 0.6748634769299741 0.6047719491060092 -0.42285952405084254
		outer loop
			vertex 2.169899 3.427911 0.332345
			vertex 2.1480851 3.461993 0.346275
			vertex 2.273612 3.492219 0.589839
		endloop
	endfacet
	facet normal 0.7570703799004465 0.47453676849629933 -0.4490649120366495
		outer loop
			vertex 2.1480851 3.461993 0.346275
			vertex 2.251111 3.5263491 0.587971
			vertex 2.273612 3.492219 0.589839
		endloop
	endfacet
	facet normal 0.8510693123645513 -0.452458862028621 -0.2663869436047781
		outer loop
			vertex 2.1199429 3.194859 0.391376
			vertex 2.1646841 3.3016601 0.352916
			vertex 2.2177219 3.2437611 0.620706
		endloop
	endfacet
	facet normal 0.834533216028882 -0.48070329962989555 -0.2692185897545381
		outer loop
			vertex 2.1646841 3.3016601 0.352916
			vertex 2.272979 3.3510389 0.600444
			vertex 2.2177219 3.2437611 0.620706
		endloop
	endfacet
	facet normal 0.289910973840592 -0.9493083155795337 0.12151275331564246
		outer loop
			vertex 2.054054 3.17942 0.427961
			vertex 2.1199429 3.194859 0.391376
			vertex 2.1455491 3.2336509 0.633342
		endloop
	endfacet
	facet normal 0.16129412483508665 -0.9769886478001707 0.13956141072401615
		outer loop
			vertex 2.1199429 3.194859 0.391376
			vertex 2.2177219 3.2437611 0.620706
			vertex 2.1455491 3.2336509 0.633342
		endloop
	endfacet
	facet normal -0.6179557515489453 -0.5969806214391185 0.5116100338673415
		outer loop
			vertex 1.992183 3.2612441 0.448707
			vertex 2.054054 3.17942 0.427961
			vertex 2.084024 3.3245671 0.633528
		endloop
	endfacet
	facet normal -0.7352732034607493 -0.4985158494455596 0.45918979096245144
		outer loop
			vertex 2.054054 3.17942 0.427961
			vertex 2.1455491 3.2336509 0.633342
			vertex 2.084024 3.3245671 0.633528
		endloop
	endfacet
	facet normal -0.8237913031285085 -0.17970658316026186 0.537655496446096
		outer loop
			vertex 1.957963 3.40907 0.445679
			vertex 1.981362 3.307997 0.447748
			vertex 2.0566521 3.4817851 0.621194
		endloop
	endfacet
	facet normal -0.8654300093364609 -0.11237439191483453 0.4882651891970842
		outer loop
			vertex 1.981362 3.307997 0.447748
			vertex 2.0747521 3.3778291 0.62935
			vertex 2.0566521 3.4817851 0.621194
		endloop
	endfacet
	facet normal -0.8362522700566692 -0.08364200121000803 0.5419281838570978
		outer loop
			vertex 1.964465 3.566442 0.420037
			vertex 1.9734221 3.5116949 0.425409
			vertex 2.0738871 3.6452489 0.60105
		endloop
	endfacet
	facet normal -0.7938179725691968 -0.170561501954861 0.5837480625038782
		outer loop
			vertex 1.9734221 3.5116949 0.425409
			vertex 2.08779 3.5853651 0.602459
			vertex 2.0738871 3.6452489 0.60105
		endloop
	endfacet
	facet normal -0.8292634402632149 0.4610968067192926 0.31577188202259077
		outer loop
			vertex 2.0092051 3.673243 0.381578
			vertex 1.964465 3.566442 0.420037
			vertex 2.1291461 3.752526 0.58079
		endloop
	endfacet
	facet normal -0.827168853098683 0.4809657590011602 0.29062626710579265
		outer loop
			vertex 1.964465 3.566442 0.420037
			vertex 2.0738871 3.6452489 0.60105
			vertex 2.1291461 3.752526 0.58079
		endloop
	endfacet
	facet normal -0.300232852418764 0.9431250477860065 -0.14274235029288154
		outer loop
			vertex 2.075094 3.6886799 0.344987
			vertex 2.0092051 3.673243 0.381578
			vertex 2.201318 3.7626381 0.568153
		endloop
	endfacet
	facet normal -0.17961321806600078 0.9463850159895529 -0.2685041776331031
		outer loop
			vertex 2.0092051 3.673243 0.381578
			vertex 2.1291461 3.752526 0.58079
			vertex 2.201318 3.7626381 0.568153
		endloop
	endfacet
	facet normal 0.21264903206405425 0.07448516979036804 0.9742855580596076
		outer loop
			vertex 2.272979 3.3510389 0.600444
			vertex 2.176302 3.508275 0.609524
			vertex 2.2177219 3.2437611 0.620706
		endloop
	endfacet
	facet normal 0.1573003373348088 0.10443974365708933 0.9820127004368105
		outer loop
			vertex 2.1455491 3.2336509 0.633342
			vertex 2.2177219 3.2437611 0.620706
			vertex 2.084024 3.3245671 0.633528
		endloop
	endfacet
	facet normal 0.13269695945932133 0.0625951399852653 0.9891781262242287
		outer loop
			vertex 2.2177219 3.2437611 0.620706
			vertex 2.176302 3.508275 0.609524
			vertex 2.084024 3.3245671 0.633528
		endloop
	endfacet
	facet normal 0.07665625938094331 0.09122793002954398 0.9928752603828168
		outer loop
			vertex 2.084024 3.3245671 0.633528
			vertex 2.176302 3.508275 0.609524
			vertex 2.0747521 3.3778291 0.62935
		endloop
	endfacet
	facet normal 0.07663931971092366 0.09124113165337107 0.9928753550012505
		outer loop
			vertex 2.176302 3.508275 0.609524
			vertex 2.0566521 3.4817851 0.621194
			vertex 2.0747521 3.3778291 0.62935
		endloop
	endfacet
	facet normal 0.08295600675273883 0.06343962959770812 0.9945319071503664
		outer loop
			vertex 2.0566521 3.4817851 0.621194
			vertex 2.176302 3.508275 0.609524
			vertex 2.0642791 3.5628941 0.615384
		endloop
	endfacet
	facet normal 0.09914057745876838 0.13511790001111845 0.9858571392436775
		outer loop
			vertex 2.0738871 3.6452489 0.60105
			vertex 2.176302 3.508275 0.609524
			vertex 2.1291461 3.752526 0.58079
		endloop
	endfacet
	facet normal 0.1573107683204713 0.1044529425006432 0.9820096257030175
		outer loop
			vertex 2.201318 3.7626381 0.568153
			vertex 2.1291461 3.752526 0.58079
			vertex 2.262841 3.671721 0.567968
		endloop
	endfacet
	facet normal 0.1836828126322733 0.14975227938844943 0.9715116464363467
		outer loop
			vertex 2.1291461 3.752526 0.58079
			vertex 2.176302 3.508275 0.609524
			vertex 2.262841 3.671721 0.567968
		endloop
	endfacet
	facet normal 0.7759076439153704 -0.20113855752253715 -0.5979219086063429
		outer loop
			vertex 1.82469 3.5608599 -0.328663
			vertex 1.8382519 3.6060891 -0.326279
			vertex 1.95148 3.5324769 -0.154583
		endloop
	endfacet
	facet normal 0.7950163093757527 -0.14875605073538378 -0.5880652218896892
		outer loop
			vertex 1.8382519 3.6060891 -0.326279
			vertex 1.964642 3.571578 -0.14668
			vertex 1.95148 3.5324769 -0.154583
		endloop
	endfacet
	facet normal 0.7202740449752011 0.5071920786890295 -0.4732457030445848
		outer loop
			vertex 1.84797 3.5029509 -0.355294
			vertex 1.82469 3.5608599 -0.328663
			vertex 1.970289 3.478776 -0.195035
		endloop
	endfacet
	facet normal 0.7074068318659411 0.5663337703701343 -0.4228967187951927
		outer loop
			vertex 1.82469 3.5608599 -0.328663
			vertex 1.95148 3.5324769 -0.154583
			vertex 1.970289 3.478776 -0.195035
		endloop
	endfacet
	facet normal 0.6797390569664017 -0.255512216914543 -0.6875087791743771
		outer loop
			vertex 1.804631 3.2485089 -0.366311
			vertex 1.845126 3.383091 -0.376291
			vertex 1.909054 3.2498109 -0.263552
		endloop
	endfacet
	facet normal 0.7403862862935067 -0.19021662856108015 -0.6447059649850974
		outer loop
			vertex 1.845126 3.383091 -0.376291
			vertex 1.961329 3.3728471 -0.23982
			vertex 1.909054 3.2498109 -0.263552
		endloop
	endfacet
	facet normal 0.5552744324155784 -0.6838078519108807 -0.4733678552358456
		outer loop
			vertex 1.74333 3.1753531 -0.332541
			vertex 1.804631 3.2485089 -0.366311
			vertex 1.8318191 3.177464 -0.23179
		endloop
	endfacet
	facet normal 0.48448765089986484 -0.7293102552268517 -0.4830924008370192
		outer loop
			vertex 1.804631 3.2485089 -0.366311
			vertex 1.909054 3.2498109 -0.263552
			vertex 1.8318191 3.177464 -0.23179
		endloop
	endfacet
	facet normal -0.11666048061315604 -0.9922889998669545 0.04186732623593889
		outer loop
			vertex 1.667111 3.186862 -0.27215
			vertex 1.74333 3.1753531 -0.332541
			vertex 1.765781 3.1794219 -0.173549
		endloop
	endfacet
	facet normal -0.0062921423236799974 -0.9996297987765016 0.026470253928314202
		outer loop
			vertex 1.74333 3.1753531 -0.332541
			vertex 1.8318191 3.177464 -0.23179
			vertex 1.765781 3.1794219 -0.173549
		endloop
	endfacet
	facet normal -0.7845910050535371 -0.0900767879222993 0.6134355117424178
		outer loop
			vertex 1.646259 3.4100001 -0.205592
			vertex 1.640408 3.275224 -0.232866
			vertex 1.743767 3.392288 -0.083479
		endloop
	endfacet
	facet normal -0.7366304326373531 -0.18111523819847483 0.651592569175567
		outer loop
			vertex 1.640408 3.275224 -0.232866
			vertex 1.732705 3.2622671 -0.132125
			vertex 1.743767 3.392288 -0.083479
		endloop
	endfacet
	facet normal -0.8229084833461362 -0.2968612857241813 0.4844533053609483
		outer loop
			vertex 1.654809 3.5931439 -0.16378
			vertex 1.661132 3.5511539 -0.17877
			vertex 1.757018 3.5489571 -0.017241
		endloop
	endfacet
	facet normal -0.7900845765361395 -0.40110723862064385 0.4635508009332214
		outer loop
			vertex 1.661132 3.5511539 -0.17877
			vertex 1.773127 3.496587 -0.0351
			vertex 1.757018 3.5489571 -0.017241
		endloop
	endfacet
	facet normal -0.7719825132496717 0.27479563131111767 0.573175680092103
		outer loop
			vertex 1.695304 3.727725 -0.173761
			vertex 1.654809 3.5931439 -0.16378
			vertex 1.809294 3.671993 0.006486
		endloop
	endfacet
	facet normal -0.7705837255031902 0.21146282299972363 0.6012355582287291
		outer loop
			vertex 1.654809 3.5931439 -0.16378
			vertex 1.757018 3.5489571 -0.017241
			vertex 1.809294 3.671993 0.006486
		endloop
	endfacet
	facet normal -0.28402732377078727 0.8615896657452597 0.4207038474183189
		outer loop
			vertex 1.756676 3.770786 -0.220515
			vertex 1.695304 3.727725 -0.173761
			vertex 1.880619 3.714397 -0.021355
		endloop
	endfacet
	facet normal -0.31598034323054613 0.8314905965168319 0.4569242941625989
		outer loop
			vertex 1.695304 3.727725 -0.173761
			vertex 1.809294 3.671993 0.006486
			vertex 1.880619 3.714397 -0.021355
		endloop
	endfacet
	facet normal 0.604692527409038 0.766569305651666 -0.2161445047379012
		outer loop
			vertex 1.815488 3.7058771 -0.286184
			vertex 1.756676 3.770786 -0.220515
			vertex 1.943755 3.6599741 -0.090138
		endloop
	endfacet
	facet normal 0.5677677770272691 0.8139662772708443 -0.12287656747873597
		outer loop
			vertex 1.756676 3.770786 -0.220515
			vertex 1.880619 3.714397 -0.021355
			vertex 1.943755 3.6599741 -0.090138
		endloop
	endfacet
	facet normal 0.7778963290031498 -0.13794014881031846 -0.6130659154361876
		outer loop
			vertex 1.95148 3.5324769 -0.154583
			vertex 1.964642 3.571578 -0.14668
			vertex 2.059648 3.4749451 -0.004388
		endloop
	endfacet
	facet normal 0.8017603260133951 -0.0832018986136929 -0.5918258389914817
		outer loop
			vertex 1.964642 3.571578 -0.14668
			vertex 2.069382 3.5168619 0.002906
			vertex 2.059648 3.4749451 -0.004388
		endloop
	endfacet
	facet normal 0.7531550519282573 0.5432548541669844 -0.37098737334167164
		outer loop
			vertex 1.970289 3.478776 -0.195035
			vertex 1.95148 3.5324769 -0.154583
			vertex 2.0815589 3.4317441 -0.038013
		endloop
	endfacet
	facet normal 0.7370804285950193 0.6062549992148675 -0.29860897124695335
		outer loop
			vertex 1.95148 3.5324769 -0.154583
			vertex 2.059648 3.4749451 -0.004388
			vertex 2.0815589 3.4317441 -0.038013
		endloop
	endfacet
	facet normal 0.7571891550103035 -0.2018871282673045 -0.6212134665111212
		outer loop
			vertex 1.909054 3.2498109 -0.263552
			vertex 1.961329 3.3728471 -0.23982
			vertex 2.0326641 3.1957221 -0.095307
		endloop
	endfacet
	facet normal 0.7570236610091756 -0.20206985417811565 -0.6213557360358878
		outer loop
			vertex 1.961329 3.3728471 -0.23982
			vertex 2.078176 3.3175981 -0.079493
			vertex 2.0326641 3.1957221 -0.095307
		endloop
	endfacet
	facet normal 0.4072027609905881 -0.6949175045692159 -0.5926850540421413
		outer loop
			vertex 1.8318191 3.177464 -0.23179
			vertex 1.909054 3.2498109 -0.263552
			vertex 1.963536 3.1223691 -0.076696
		endloop
	endfacet
	facet normal 0.5138611340577393 -0.6315673372577324 -0.5805768109510333
		outer loop
			vertex 1.909054 3.2498109 -0.263552
			vertex 2.0326641 3.1957221 -0.095307
			vertex 1.963536 3.1223691 -0.076696
		endloop
	endfacet
	facet normal -0.19110609216592203 -0.9641158700883014 -0.1842798159890218
		outer loop
			vertex 1.765781 3.1794219 -0.173549
			vertex 1.8318191 3.177464 -0.23179
			vertex 1.8885469 3.123107 -0.006234
		endloop
	endfacet
	facet normal -0.1844380213108159 -0.965048707368493 -0.1861816551149757
		outer loop
			vertex 1.8318191 3.177464 -0.23179
			vertex 1.963536 3.1223691 -0.076696
			vertex 1.8885469 3.123107 -0.006234
		endloop
	endfacet
	facet normal -0.8245392786558587 -0.13538959688974128 0.5493674863037582
		outer loop
			vertex 1.743767 3.392288 -0.083479
			vertex 1.732705 3.2622671 -0.132125
			vertex 1.859252 3.3334391 0.075348
		endloop
	endfacet
	facet normal -0.8285018577016751 -0.12083909024542626 0.546793001101451
		outer loop
			vertex 1.732705 3.2622671 -0.132125
			vertex 1.851046 3.2114041 0.035945
			vertex 1.859252 3.3334391 0.075348
		endloop
	endfacet
	facet normal -0.8153280510920127 -0.3951205948140073 0.4232255718364917
		outer loop
			vertex 1.757018 3.5489571 -0.017241
			vertex 1.773127 3.496587 -0.0351
			vertex 1.863827 3.4878261 0.131451
		endloop
	endfacet
	facet normal -0.7388562991928186 -0.5613225851819077 0.3728382015134613
		outer loop
			vertex 1.773127 3.496587 -0.0351
			vertex 1.881848 3.45367 0.11574
			vertex 1.863827 3.4878261 0.131451
		endloop
	endfacet
	facet normal -0.7546463902206175 0.20013465978303613 0.6248639401345862
		outer loop
			vertex 1.809294 3.671993 0.006486
			vertex 1.757018 3.5489571 -0.017241
			vertex 1.909341 3.6097 0.147264
		endloop
	endfacet
	facet normal -0.7546610977248782 0.20078329901382932 0.6246380507284242
		outer loop
			vertex 1.757018 3.5489571 -0.017241
			vertex 1.863827 3.4878261 0.131451
			vertex 1.909341 3.6097 0.147264
		endloop
	endfacet
	facet normal -0.2622353486575737 0.797669072115968 0.5430991376388764
		outer loop
			vertex 1.880619 3.714397 -0.021355
			vertex 1.809294 3.671993 0.006486
			vertex 1.978406 3.6525121 0.116754
		endloop
	endfacet
	facet normal -0.2589437691292241 0.8016774164799321 0.5387591709987058
		outer loop
			vertex 1.809294 3.671993 0.006486
			vertex 1.909341 3.6097 0.147264
			vertex 1.978406 3.6525121 0.116754
		endloop
	endfacet
	facet normal 0.6045958308320094 0.7932122798956732 -0.0726509488118375
		outer loop
			vertex 1.880619 3.714397 -0.021355
			vertex 1.978406 3.6525121 0.116754
			vertex 1.943755 3.6599741 -0.090138
		endloop
	endfacet
	facet normal 0.5788106751859247 0.8126525841303596 -0.06763120431474862
		outer loop
			vertex 1.978406 3.6525121 0.116754
			vertex 2.0446429 3.59991 0.051568
			vertex 1.943755 3.6599741 -0.090138
		endloop
	endfacet
	facet normal 0.9525287815954454 -0.17825009135055234 -0.24681131490637945
		outer loop
			vertex 2.059648 3.4749451 -0.004388
			vertex 2.069382 3.5168619 0.002906
			vertex 2.1480851 3.461993 0.346275
		endloop
	endfacet
	facet normal 0.8803622426538756 -0.39358248887763264 -0.26467932703240515
		outer loop
			vertex 2.069382 3.5168619 0.002906
			vertex 2.160809 3.503849 0.326356
			vertex 2.1480851 3.461993 0.346275
		endloop
	endfacet
	facet normal 0.8095277526563677 0.556390482106916 -0.1873351251099603
		outer loop
			vertex 2.0815589 3.4317441 -0.038013
			vertex 2.059648 3.4749451 -0.004388
			vertex 2.169899 3.427911 0.332345
		endloop
	endfacet
	facet normal 0.7938953250324361 0.5811862178854537 -0.17875344201341978
		outer loop
			vertex 2.059648 3.4749451 -0.004388
			vertex 2.1480851 3.461993 0.346275
			vertex 2.169899 3.427911 0.332345
		endloop
	endfacet
	facet normal 0.9305090744330904 -0.3257506651319012 -0.16744959409863513
		outer loop
			vertex 2.0326641 3.1957221 -0.095307
			vertex 2.078176 3.3175981 -0.079493
			vertex 2.1199429 3.194859 0.391376
		endloop
	endfacet
	facet normal 0.8786568068100824 -0.43719212067568586 -0.1918991023048469
		outer loop
			vertex 2.078176 3.3175981 -0.079493
			vertex 2.1646841 3.3016601 0.352916
			vertex 2.1199429 3.194859 0.391376
		endloop
	endfacet
	facet normal 0.7203170638440513 -0.691767804944372 -0.05099638788708923
		outer loop
			vertex 1.963536 3.1223691 -0.076696
			vertex 2.0326641 3.1957221 -0.095307
			vertex 2.054054 3.17942 0.427961
		endloop
	endfacet
	facet normal 0.2074240022033942 -0.9774761424541537 -0.0389316611882097
		outer loop
			vertex 2.0326641 3.1957221 -0.095307
			vertex 2.1199429 3.194859 0.391376
			vertex 2.054054 3.17942 0.427961
		endloop
	endfacet
	facet normal 0.2148834319299282 -0.9470436775532487 0.23860717400873385
		outer loop
			vertex 1.8885469 3.123107 -0.006234
			vertex 1.963536 3.1223691 -0.076696
			vertex 1.992183 3.2612441 0.448707
		endloop
	endfacet
	facet normal -0.754759151478652 -0.622886303005475 0.20579425839268983
		outer loop
			vertex 1.963536 3.1223691 -0.076696
			vertex 2.054054 3.17942 0.427961
			vertex 1.992183 3.2612441 0.448707
		endloop
	endfacet
	facet normal -0.9650853105426541 -0.01944592428202558 0.2612129388135408
		outer loop
			vertex 1.859252 3.3334391 0.075348
			vertex 1.851046 3.2114041 0.035945
			vertex 1.957963 3.40907 0.445679
		endloop
	endfacet
	facet normal -0.9181257223479037 -0.20561676388982816 0.3387726440706435
		outer loop
			vertex 1.851046 3.2114041 0.035945
			vertex 1.981362 3.307997 0.447748
			vertex 1.957963 3.40907 0.445679
		endloop
	endfacet
	facet normal -0.7187594726486418 -0.5653590493123366 0.40466525158270933
		outer loop
			vertex 1.863827 3.4878261 0.131451
			vertex 1.881848 3.45367 0.11574
			vertex 1.964465 3.566442 0.420037
		endloop
	endfacet
	facet normal -0.9448376568642344 -0.12487153390998076 0.30280175394186853
		outer loop
			vertex 1.881848 3.45367 0.11574
			vertex 1.9734221 3.5116949 0.425409
			vertex 1.964465 3.566442 0.420037
		endloop
	endfacet
	facet normal -0.9045591504587701 0.29828360136170984 0.30463032757753544
		outer loop
			vertex 1.909341 3.6097 0.147264
			vertex 1.863827 3.4878261 0.131451
			vertex 2.0092051 3.673243 0.381578
		endloop
	endfacet
	facet normal -0.8799359700084374 0.4363130778418585 0.1879989010326259
		outer loop
			vertex 1.863827 3.4878261 0.131451
			vertex 1.964465 3.566442 0.420037
			vertex 2.0092051 3.673243 0.381578
		endloop
	endfacet
	facet normal -0.5010103604991567 0.8621307015868942 0.075625868945718
		outer loop
			vertex 1.978406 3.6525121 0.116754
			vertex 1.909341 3.6097 0.147264
			vertex 2.075094 3.6886799 0.344987
		endloop
	endfacet
	facet normal -0.2946001923639002 0.9465793105437275 -0.13114242452278566
		outer loop
			vertex 1.909341 3.6097 0.147264
			vertex 2.0092051 3.673243 0.381578
			vertex 2.075094 3.6886799 0.344987
		endloop
	endfacet
	facet normal 0.3913127651915636 0.8687877680314939 -0.3034503813096756
		outer loop
			vertex 1.978406 3.6525121 0.116754
			vertex 2.075094 3.6886799 0.344987
			vertex 2.0446429 3.59991 0.051568
		endloop
	endfacet
	facet normal 0.7356299743389697 0.6234178567064937 -0.2649504044034067
		outer loop
			vertex 2.075094 3.6886799 0.344987
			vertex 2.136965 3.606858 0.324247
			vertex 2.0446429 3.59991 0.051568
		endloop
	endfacet
	facet normal -0.8383305956283238 0.3927140808184825 0.37812360830865166
		outer loop
			vertex 1.9734221 3.5116949 0.425409
			vertex 1.960705 3.4754429 0.434865
			vertex 2.08779 3.5853651 0.602459
		endloop
	endfacet
	facet normal -0.6802077834973338 0.7321550097679215 0.03558669612902129
		outer loop
			vertex 1.960705 3.4754429 0.434865
			vertex 2.0642791 3.5628941 0.615384
			vertex 2.08779 3.5853651 0.602459
		endloop
	endfacet
	facet normal -0.9245993180933921 0.3148650718257722 0.2144203524047704
		outer loop
			vertex 1.881848 3.45367 0.11574
			vertex 1.8613321 3.403574 0.100837
			vertex 1.9734221 3.5116949 0.425409
		endloop
	endfacet
	facet normal -0.909567861960632 0.36894990840173536 0.19121262923435772
		outer loop
			vertex 1.8613321 3.403574 0.100837
			vertex 1.960705 3.4754429 0.434865
			vertex 1.9734221 3.5116949 0.425409
		endloop
	endfacet
	facet normal -0.7912297958909034 0.10989729518483944 0.6015629598017947
		outer loop
			vertex 1.773127 3.496587 -0.0351
			vertex 1.748698 3.4505889 -0.058828
			vertex 1.881848 3.45367 0.11574
		endloop
	endfacet
	facet normal -0.7879771154183383 0.14466395279685393 0.5984683837415179
		outer loop
			vertex 1.748698 3.4505889 -0.058828
			vertex 1.8613321 3.403574 0.100837
			vertex 1.881848 3.45367 0.11574
		endloop
	endfacet
	facet normal -0.7687414028608365 0.08953286660971414 0.6332618110420051
		outer loop
			vertex 1.661132 3.5511539 -0.17877
			vertex 1.649268 3.4906011 -0.184611
			vertex 1.773127 3.496587 -0.0351
		endloop
	endfacet
	facet normal -0.7691159579302261 0.08147466305311224 0.6338947251219659
		outer loop
			vertex 1.649268 3.4906011 -0.184611
			vertex 1.748698 3.4505889 -0.058828
			vertex 1.773127 3.496587 -0.0351
		endloop
	endfacet
	facet normal -0.8842227362027804 0.11046799655355906 0.4538138104107362
		outer loop
			vertex 1.960705 3.4754429 0.434865
			vertex 1.957963 3.40907 0.445679
			vertex 2.0642791 3.5628941 0.615384
		endloop
	endfacet
	facet normal -0.8855021236092558 0.11550521126834702 0.45004948089443775
		outer loop
			vertex 1.957963 3.40907 0.445679
			vertex 2.0566521 3.4817851 0.621194
			vertex 2.0642791 3.5628941 0.615384
		endloop
	endfacet
	facet normal -0.9504508930903898 -0.08089906581476293 0.3001640234504787
		outer loop
			vertex 1.8613321 3.403574 0.100837
			vertex 1.859252 3.3334391 0.075348
			vertex 1.960705 3.4754429 0.434865
		endloop
	endfacet
	facet normal -0.9671317708809776 0.07931575406424109 0.24158880129228985
		outer loop
			vertex 1.859252 3.3334391 0.075348
			vertex 1.957963 3.40907 0.445679
			vertex 1.960705 3.4754429 0.434865
		endloop
	endfacet
	facet normal -0.8281901351375649 -0.15738740633857098 0.5378943245534754
		outer loop
			vertex 1.748698 3.4505889 -0.058828
			vertex 1.743767 3.392288 -0.083479
			vertex 1.8613321 3.403574 0.100837
		endloop
	endfacet
	facet normal -0.8259375986752732 -0.17076538678127628 0.5372767124787419
		outer loop
			vertex 1.743767 3.392288 -0.083479
			vertex 1.859252 3.3334391 0.075348
			vertex 1.8613321 3.403574 0.100837
		endloop
	endfacet
	facet normal -0.797252916094734 -0.12401803918639502 0.5907684095606373
		outer loop
			vertex 1.649268 3.4906011 -0.184611
			vertex 1.646259 3.4100001 -0.205592
			vertex 1.748698 3.4505889 -0.058828
		endloop
	endfacet
	facet normal -0.7807674164547878 -0.1861555635033878 0.5964464331180566
		outer loop
			vertex 1.646259 3.4100001 -0.205592
			vertex 1.743767 3.392288 -0.083479
			vertex 1.748698 3.4505889 -0.058828
		endloop
	endfacet
	facet normal -0.8432640807832843 -0.18482125921426826 0.5047244715715447
		outer loop
			vertex 1.981362 3.307997 0.447748
			vertex 1.992183 3.2612441 0.448707
			vertex 2.0747521 3.3778291 0.62935
		endloop
	endfacet
	facet normal -0.8733479705104685 -0.11490249077866836 0.4733505466544896
		outer loop
			vertex 1.992183 3.2612441 0.448707
			vertex 2.084024 3.3245671 0.633528
			vertex 2.0747521 3.3778291 0.62935
		endloop
	endfacet
	facet normal -0.7808260368673101 -0.5064038892352989 0.36587675673299264
		outer loop
			vertex 1.851046 3.2114041 0.035945
			vertex 1.8885469 3.123107 -0.006234
			vertex 1.981362 3.307997 0.447748
		endloop
	endfacet
	facet normal -0.9371829002176592 -0.21121714331034538 0.2776248006058432
		outer loop
			vertex 1.8885469 3.123107 -0.006234
			vertex 1.992183 3.2612441 0.448707
			vertex 1.981362 3.307997 0.447748
		endloop
	endfacet
	facet normal -0.7709375124649747 -0.5030935687711114 0.3905793298876225
		outer loop
			vertex 1.732705 3.2622671 -0.132125
			vertex 1.765781 3.1794219 -0.173549
			vertex 1.851046 3.2114041 0.035945
		endloop
	endfacet
	facet normal -0.7658284171388101 -0.5114506042269313 0.3897757238958982
		outer loop
			vertex 1.765781 3.1794219 -0.173549
			vertex 1.8885469 3.123107 -0.006234
			vertex 1.851046 3.2114041 0.035945
		endloop
	endfacet
	facet normal -0.6837297655801755 -0.4588785244374864 0.5674011874060131
		outer loop
			vertex 1.640408 3.275224 -0.232866
			vertex 1.667111 3.186862 -0.27215
			vertex 1.732705 3.2622671 -0.132125
		endloop
	endfacet
	facet normal -0.6170616613614346 -0.5349365049483682 0.5771289645750686
		outer loop
			vertex 1.667111 3.186862 -0.27215
			vertex 1.765781 3.1794219 -0.173549
			vertex 1.732705 3.2622671 -0.132125
		endloop
	endfacet
	facet normal -0.07415757456668377 0.006246889106285057 0.9972269704088838
		outer loop
			vertex 2.176302 3.508275 0.609524
			vertex 2.0738871 3.6452489 0.60105
			vertex 2.08779 3.5853651 0.602459
		endloop
	endfacet
	facet normal 0.020415989012357173 0.13466906751295382 0.990680286292121
		outer loop
			vertex 2.2708371 3.5682621 0.581867
			vertex 2.262841 3.671721 0.567968
			vertex 2.251111 3.5263491 0.587971
		endloop
	endfacet
	facet normal 0.2499829853747241 0.11216212972243138 0.9617318564336261
		outer loop
			vertex 2.262841 3.671721 0.567968
			vertex 2.176302 3.508275 0.609524
			vertex 2.251111 3.5263491 0.587971
		endloop
	endfacet
	facet normal 0.8819168865741229 0.19535791756069973 -0.4290196839560543
		outer loop
			vertex 2.160809 3.503849 0.326356
			vertex 2.136965 3.606858 0.324247
			vertex 2.2708371 3.5682621 0.581867
		endloop
	endfacet
	facet normal 0.8877385646870287 0.006773343978551379 -0.46029812358814004
		outer loop
			vertex 2.136965 3.606858 0.324247
			vertex 2.262841 3.671721 0.567968
			vertex 2.2708371 3.5682621 0.581867
		endloop
	endfacet
	facet normal 0.8856170208412664 0.4010422515370455 -0.23419565512267154
		outer loop
			vertex 2.069382 3.5168619 0.002906
			vertex 2.0446429 3.59991 0.051568
			vertex 2.160809 3.503849 0.326356
		endloop
	endfacet
	facet normal 0.9249334479486231 0.2075790124530041 -0.31844790854220933
		outer loop
			vertex 2.0446429 3.59991 0.051568
			vertex 2.136965 3.606858 0.324247
			vertex 2.160809 3.503849 0.326356
		endloop
	endfacet
	facet normal 0.8019767304708412 0.4446503894891002 -0.3988976747368822
		outer loop
			vertex 1.964642 3.571578 -0.14668
			vertex 1.943755 3.6599741 -0.090138
			vertex 2.069382 3.5168619 0.002906
		endloop
	endfacet
	facet normal 0.8036834439060854 0.4603463760094191 -0.377059857431481
		outer loop
			vertex 1.943755 3.6599741 -0.090138
			vertex 2.0446429 3.59991 0.051568
			vertex 2.069382 3.5168619 0.002906
		endloop
	endfacet
	facet normal 0.7905175742035155 0.37491642325600943 -0.48427227924826594
		outer loop
			vertex 1.8382519 3.6060891 -0.326279
			vertex 1.815488 3.7058771 -0.286184
			vertex 1.964642 3.571578 -0.14668
		endloop
	endfacet
	facet normal 0.7916365958727369 0.4508335855910901 -0.4123840178499967
		outer loop
			vertex 1.815488 3.7058771 -0.286184
			vertex 1.943755 3.6599741 -0.090138
			vertex 1.964642 3.571578 -0.14668
		endloop
	endfacet
	facet normal 0.7614719876337714 0.09427558083515356 -0.6413053304840588
		outer loop
			vertex 1.845126 3.383091 -0.376291
			vertex 1.84797 3.5029509 -0.355294
			vertex 1.961329 3.3728471 -0.23982
		endloop
	endfacet
	facet normal 0.7949885261983061 0.1779444690115931 -0.5799387977719956
		outer loop
			vertex 1.84797 3.5029509 -0.355294
			vertex 1.970289 3.478776 -0.195035
			vertex 1.961329 3.3728471 -0.23982
		endloop
	endfacet
	facet normal 0.823180197193091 0.16061461190368778 -0.5445891197886458
		outer loop
			vertex 1.961329 3.3728471 -0.23982
			vertex 1.970289 3.478776 -0.195035
			vertex 2.078176 3.3175981 -0.079493
		endloop
	endfacet
	facet normal 0.8273409919430252 0.17002330714968236 -0.5353493794491742
		outer loop
			vertex 1.970289 3.478776 -0.195035
			vertex 2.0815589 3.4317441 -0.038013
			vertex 2.078176 3.3175981 -0.079493
		endloop
	endfacet
	facet normal 0.9800126645093191 0.041645792436534095 -0.19452713274419642
		outer loop
			vertex 2.078176 3.3175981 -0.079493
			vertex 2.0815589 3.4317441 -0.038013
			vertex 2.1646841 3.3016601 0.352916
		endloop
	endfacet
	facet normal 0.9695764188994214 -0.07786292628788061 -0.23207527361625988
		outer loop
			vertex 2.0815589 3.4317441 -0.038013
			vertex 2.169899 3.427911 0.332345
			vertex 2.1646841 3.3016601 0.352916
		endloop
	endfacet
	facet normal 0.9187307951917777 -0.10018522398896693 -0.3819641957835374
		outer loop
			vertex 2.1646841 3.3016601 0.352916
			vertex 2.169899 3.427911 0.332345
			vertex 2.272979 3.3510389 0.600444
		endloop
	endfacet
	facet normal 0.9298382129189755 -0.03170688187786946 -0.3666000155990572
		outer loop
			vertex 2.169899 3.427911 0.332345
			vertex 2.273612 3.492219 0.589839
			vertex 2.272979 3.3510389 0.600444
		endloop
	endfacet
	facet normal 0.2530671514847665 0.10003059805161028 0.9622634235451453
		outer loop
			vertex 2.176302 3.508275 0.609524
			vertex 2.272979 3.3510389 0.600444
			vertex 2.251111 3.5263491 0.587971
		endloop
	endfacet
	facet normal 0.0306114192274936 0.07473420199974559 0.9967335351358155
		outer loop
			vertex 2.272979 3.3510389 0.600444
			vertex 2.273612 3.492219 0.589839
			vertex 2.251111 3.5263491 0.587971
		endloop
	endfacet
	facet normal 0.20394426614271693 0.3189848466889782 0.9255568074895877
		outer loop
			vertex 2.176302 3.508275 0.609524
			vertex 2.08779 3.5853651 0.602459
			vertex 2.0642791 3.5628941 0.615384
		endloop
	endfacet
endsolid exported
